<svg xmlns="http://www.w3.org/2000/svg" xmlns:xlink="http://www.w3.org/1999/xlink" width="113" height="113" viewBox="0 0 113 113">
  <defs>
    <filter id="Trazado_982547" x="0" y="0" width="113" height="113" filterUnits="userSpaceOnUse">
      <feOffset dy="3" input="SourceAlpha"/>
      <feGaussianBlur stdDeviation="3" result="blur"/>
      <feFlood flood-opacity="0.161"/>
      <feComposite operator="in" in2="blur"/>
      <feComposite in="SourceGraphic"/>
    </filter>
  </defs>
  <g id="Grupo_1228071" data-name="Grupo 1228071" transform="translate(-271.425 -5633.18)">
    <g id="Grupo_1227502" data-name="Grupo 1227502" transform="translate(0 2048.198)">
      <g id="Grupo_1225350" data-name="Grupo 1225350" transform="translate(-0.575 -393.641)">
        <g id="Grupo_1208121" data-name="Grupo 1208121" transform="translate(0 -1922.377)">
          <g id="Grupo_1202432" data-name="Grupo 1202432" transform="translate(0 1255.486)">
            <g id="Grupo_1202055" data-name="Grupo 1202055" transform="translate(0 3240.511)">
              <g id="Grupo_1177900" data-name="Grupo 1177900" transform="translate(281 1411.003)">
                <g id="Grupo_1172010" data-name="Grupo 1172010" transform="translate(0)">
                  <g id="Grupo_1171046" data-name="Grupo 1171046">
                    <g id="Grupo_1148525" data-name="Grupo 1148525">
                      <g transform="matrix(1, 0, 0, 1, -9, -6)" filter="url(#Trazado_982547)">
                        <g id="Trazado_982547-2" data-name="Trazado 982547" transform="translate(9 6)" fill="#e5fdfa">
                          <path d="M 47.5 93.5 C 41.28937149047852 93.5 35.26533508300781 92.28397369384766 29.59518623352051 89.88570404052734 C 24.11771965026855 87.56893157958984 19.19813346862793 84.25196075439453 14.97309303283691 80.02691650390625 C 10.74804019927979 75.80186462402344 7.431066513061523 70.88229370117188 5.114293098449707 65.40481567382812 C 2.716026782989502 59.73468017578125 1.5 53.71062850952148 1.5 47.5 C 1.5 41.28937149047852 2.716026782989502 35.26533508300781 5.114293098449707 29.59518623352051 C 7.431066513061523 24.11771965026855 10.74804019927979 19.19813346862793 14.97309303283691 14.97309303283691 C 19.19813346862793 10.74804019927979 24.11771965026855 7.431066513061523 29.59518623352051 5.114293098449707 C 35.26533508300781 2.716026782989502 41.28937149047852 1.5 47.5 1.5 C 53.71062850952148 1.5 59.73468017578125 2.716026782989502 65.40481567382812 5.114293098449707 C 70.88229370117188 7.431066513061523 75.80186462402344 10.74804019927979 80.02691650390625 14.97309303283691 C 84.25196075439453 19.19813346862793 87.56893157958984 24.11771965026855 89.88570404052734 29.59518623352051 C 92.28397369384766 35.26533508300781 93.5 41.28937149047852 93.5 47.5 C 93.5 53.71062850952148 92.28397369384766 59.73468017578125 89.88570404052734 65.40481567382812 C 87.56893157958984 70.88229370117188 84.25196075439453 75.80186462402344 80.02691650390625 80.02691650390625 C 75.80186462402344 84.25196075439453 70.88229370117188 87.56893157958984 65.40481567382812 89.88570404052734 C 59.73468017578125 92.28397369384766 53.71062850952148 93.5 47.5 93.5 Z" stroke="none"/>
                          <path d="M 47.5 3 C 41.49121475219727 3 35.66376876831055 4.176155090332031 30.17950439453125 6.495796203613281 C 24.88084411621094 8.736953735351562 20.12152099609375 11.94598388671875 16.03375244140625 16.03375244140625 C 11.94598388671875 20.12152099609375 8.736953735351562 24.88084411621094 6.495796203613281 30.17950439453125 C 4.176155090332031 35.66376876831055 3 41.49121475219727 3 47.5 C 3 53.50878524780273 4.176155090332031 59.33623123168945 6.495796203613281 64.82049560546875 C 8.736953735351562 70.11915588378906 11.94598388671875 74.87847900390625 16.03375244140625 78.96624755859375 C 20.12152099609375 83.05401611328125 24.88084411621094 86.26304626464844 30.17950439453125 88.50419616699219 C 35.66376876831055 90.82384490966797 41.49121475219727 92 47.5 92 C 53.50878524780273 92 59.33623123168945 90.82384490966797 64.82049560546875 88.50419616699219 C 70.11915588378906 86.26304626464844 74.87847900390625 83.05401611328125 78.96624755859375 78.96624755859375 C 83.05401611328125 74.87847900390625 86.26304626464844 70.11915588378906 88.50419616699219 64.82049560546875 C 90.82384490966797 59.33623123168945 92 53.50878524780273 92 47.5 C 92 41.49121475219727 90.82384490966797 35.66376876831055 88.50419616699219 30.17950439453125 C 86.26304626464844 24.88084411621094 83.05401611328125 20.12152099609375 78.96624755859375 16.03375244140625 C 74.87847900390625 11.94598388671875 70.11915588378906 8.736953735351562 64.82049560546875 6.495796203613281 C 59.33623123168945 4.176155090332031 53.50878524780273 3 47.5 3 M 47.5 0 C 73.7335205078125 0 95 21.2664794921875 95 47.5 C 95 73.7335205078125 73.7335205078125 95 47.5 95 C 21.2664794921875 95 0 73.7335205078125 0 47.5 C 0 21.2664794921875 21.2664794921875 0 47.5 0 Z" stroke="none" fill="#098576"/>
                        </g>
                      </g>
                    </g>
                  </g>
                </g>
              </g>
            </g>
          </g>
        </g>
      </g>
    </g>
    <g id="agregar-usuario_3_" data-name="agregar-usuario (3)" transform="translate(287.504 5651.247)">
      <path id="Trazado_1216881" data-name="Trazado 1216881" d="M181.91,256.332a2.483,2.483,0,0,1-1.994-2.434v-5.6H168.931v5.6a2.483,2.483,0,0,1-1.994,2.434l-1.338.269v8.988h17.649V256.6Z" transform="translate(-134.509 -217.178)" fill="#fce0a2"/>
      <path id="Trazado_1216882" data-name="Trazado 1216882" d="M237.162,248.3v7.665a2.483,2.483,0,0,0,1.994,2.435l6.686,1.63V256.6l-1.338-.269a2.483,2.483,0,0,1-1.994-2.434v-5.6Z" transform="translate(-197.102 -217.178)" fill="#f2ca91"/>
      <path id="Trazado_1216883" data-name="Trazado 1216883" d="M65.395,311.927,54.24,308.449a.822.822,0,0,0-.757.142l-7.011,5.58-7.011-5.58a.822.822,0,0,0-.757-.142L27.55,311.927a11.481,11.481,0,0,0-8.238,11.013v7.339a1.058,1.058,0,0,0,1.058,1.058h52.2a1.058,1.058,0,0,0,1.058-1.058V322.94A11.48,11.48,0,0,0,65.395,311.927Z" transform="translate(-6.557 -269.755)" fill="#4cbad8"/>
      <path id="Trazado_1216884" data-name="Trazado 1216884" d="M281.646,311.927l-11.155-3.478a.822.822,0,0,0-.757.142l-3.182,2.532,9.7,3.025a11.481,11.481,0,0,1,8.238,11.013v6.176h4.334a1.058,1.058,0,0,0,1.058-1.058V322.94A11.481,11.481,0,0,0,281.646,311.927Z" transform="translate(-222.809 -269.755)" fill="#37a6c4"/>
      <g id="Grupo_1228069" data-name="Grupo 1228069" transform="translate(23.858 18.81)">
        <path id="Trazado_1216885" data-name="Trazado 1216885" d="M331.923,156.545h-2.232v-6.472h2.232A2.082,2.082,0,0,1,334,152.155v2.307A2.082,2.082,0,0,1,331.923,156.545Z" transform="translate(-301.892 -150.073)" fill="#f2ca8f"/>
        <path id="Trazado_1216886" data-name="Trazado 1216886" d="M109.983,156.545h2.232v-6.472h-2.232a2.082,2.082,0,0,0-2.082,2.082v2.307A2.082,2.082,0,0,0,109.983,156.545Z" transform="translate(-107.901 -150.073)" fill="#f2ca8f"/>
      </g>
      <path id="Trazado_1216887" data-name="Trazado 1216887" d="M145.081,75.9h0a13.029,13.029,0,0,1-13.029-13.029V59.211a13.029,13.029,0,0,1,13.029-13.029h0a13.029,13.029,0,0,1,13.029,13.029v3.662A13.029,13.029,0,0,1,145.081,75.9Z" transform="translate(-105.166 -40.394)" fill="#fce0a2"/>
      <path id="Trazado_1216888" data-name="Trazado 1216888" d="M217.246,46.182h0a13.079,13.079,0,0,0-2.688.278A13.033,13.033,0,0,1,224.9,59.211v3.662a13.034,13.034,0,0,1-10.341,12.751,13.081,13.081,0,0,0,2.688.278h0a13.029,13.029,0,0,0,13.029-13.029V59.211A13.029,13.029,0,0,0,217.246,46.182Z" transform="translate(-177.331 -40.394)" fill="#f2ca91"/>
      <path id="Trazado_1216889" data-name="Trazado 1216889" d="M128.035,7.5H123.6a13.573,13.573,0,0,0-13.573,13.573v5.362a2.081,2.081,0,0,1,1.816-1.065h.945a13,13,0,0,1,.8-4.509c5.761-1.632,11.617,2.823,17.985,2.823A13.146,13.146,0,0,0,138.4,22.1h.034a13.053,13.053,0,0,1,.415,3.269h.945a2.08,2.08,0,0,1,1.816,1.065V21.072A13.573,13.573,0,0,0,128.035,7.5Z" transform="translate(-85.903 -6.559)" fill="#f9a058"/>
      <path id="Trazado_1216890" data-name="Trazado 1216890" d="M219.463,7.5h-4.434c-.158,0-.315,0-.471.009a13.572,13.572,0,0,1,13.1,13.564v1.975a10.119,10.119,0,0,0,2.166-.946h.034a13.053,13.053,0,0,1,.415,3.269h.945a2.08,2.08,0,0,1,1.816,1.065V21.072A13.573,13.573,0,0,0,219.463,7.5Z" transform="translate(-177.331 -6.559)" fill="#ef8d43"/>
      <circle id="Elipse_13269" data-name="Elipse 13269" cx="11.139" cy="11.139" r="11.139" transform="translate(49.809 40.956)" fill="#e9f6ff"/>
      <path id="Trazado_1216891" data-name="Trazado 1216891" d="M384.941,326.758a11.156,11.156,0,0,0-2.7.331,11.142,11.142,0,0,1,0,21.616,11.14,11.14,0,1,0,2.7-21.947Z" transform="translate(-323.992 -285.802)" fill="#ccdfed"/>
      <g id="Grupo_1228070" data-name="Grupo 1228070" transform="translate(28.446 38.657)">
        <path id="Trazado_1216892" data-name="Trazado 1216892" d="M155.973,314.17l-2.842,2.486a1.188,1.188,0,0,1-1.622-.054l-7-7,3.7-1.154a.822.822,0,0,1,.757.142Z" transform="translate(-144.504 -308.412)" fill="#2195bd"/>
        <path id="Trazado_1216893" data-name="Trazado 1216893" d="M236,314.17l2.842,2.486a1.188,1.188,0,0,0,1.622-.054l7-7-3.7-1.154a.822.822,0,0,0-.757.142Z" transform="translate(-224.535 -308.412)" fill="#2195bd"/>
      </g>
      <path id="Trazado_1216894" data-name="Trazado 1216894" d="M363.02,369.752h-4.787v-4.787a.94.94,0,0,0-1.88,0v4.787h-4.787a.94.94,0,1,0,0,1.88h4.787v4.787a.94.94,0,1,0,1.88,0v-4.787h4.787a.94.94,0,0,0,0-1.88Z" transform="translate(-296.344 -318.398)"/>
      <path id="Trazado_1216895" data-name="Trazado 1216895" d="M60.948,40.016a12.034,12.034,0,0,0-3.849.629L51.664,38.95h0l-3.7-1.154a1.757,1.757,0,0,0-1.14.034,1.554,1.554,0,0,1-.475-1.111V34.877a14.032,14.032,0,0,0,7.027-8.655h.515A3.026,3.026,0,0,0,56.912,23.2V20.893a3,3,0,0,0-.267-1.239V14.513a14.392,14.392,0,0,0-1.339-6.1.94.94,0,1,0-1.706.791,12.526,12.526,0,0,1,1.165,5.306V18c-.068-.02-.136-.038-.206-.054l-.012,0a3,3,0,0,0-.408-.062l-.048,0c-.065,0-.13-.007-.2-.007h-.042c-.008-.125-.019-.25-.031-.375l-.005-.055c0-.02,0-.039-.007-.059q-.015-.149-.034-.3l-.012-.093q-.023-.176-.05-.35l0-.022v-.008q-.035-.219-.077-.436l-.013-.066-.007-.034q-.027-.135-.056-.269l-.005-.025-.015-.069-.007-.029c-.029-.126-.059-.251-.091-.376a.936.936,0,0,0-.112-.257c-.006-.009-.01-.019-.015-.028s-.022-.027-.032-.04a.938.938,0,0,0-.751-.379h-.046a.94.94,0,0,0-.467.131,12.371,12.371,0,0,1-6.341,1.451c-.326,0-.652-.013-.978-.037a17.035,17.035,0,0,1-1.884-.251l-.066-.012a34.044,34.044,0,0,1-3.538-.913c-.422-.129-.842-.26-1.26-.391-3.429-1.075-6.975-2.186-10.515-1.183a.94.94,0,0,0-.625.579l0,.006c-.05.135-.1.274-.148.424l-.03.091-.008.025-.015.046c-.031.1-.062.2-.091.3-.015.05-.029.1-.043.151-.008.03-.017.059-.025.089l-.015.054c-.006.022-.01.043-.016.065q-.052.2-.1.4c-.008.032-.017.064-.024.1l0,.023c-.005.024-.01.047-.015.07-.011.052-.023.1-.033.155-.024.115-.047.23-.067.342l0,.016,0,.026c-.007.038-.013.076-.019.113-.016.092-.031.188-.045.287-.009.062-.019.125-.027.188l0,.024c-.014.1-.026.212-.038.321q-.01.093-.019.186c0,.015,0,.03,0,.045L26,17.6c0,.055-.008.107-.012.16s-.007.076-.01.114h-.042c-.066,0-.131,0-.2.007l-.048,0a3.007,3.007,0,0,0-.408.062l-.014,0c-.069.016-.138.033-.2.054V14.513A12.647,12.647,0,0,1,37.7,1.88h4.434a12.52,12.52,0,0,1,9.163,3.936.94.94,0,1,0,1.363-1.294A14.382,14.382,0,0,0,42.132,0H37.7A14.529,14.529,0,0,0,23.185,14.513v5.141a3,3,0,0,0-.267,1.239V23.2a3.026,3.026,0,0,0,3.022,3.022h.515a14.033,14.033,0,0,0,7.027,8.655v1.842a1.554,1.554,0,0,1-.475,1.111,1.759,1.759,0,0,0-1.14-.034L20.72,41.272a12.316,12.316,0,0,0-4.793,2.679.94.94,0,1,0,1.258,1.4,10.45,10.45,0,0,1,4.073-2.275l.014,0,6.911-2.155,6.6,6.6a2.134,2.134,0,0,0,2.905.1l2.223-1.944,2.223,1.944a2.134,2.134,0,0,0,2.905-.1l6.6-6.6,2.936.915a12.061,12.061,0,0,0-1.924,1.49l-.09.086-.125.122A12.045,12.045,0,0,0,48.9,51.283c0,.02,0,.04,0,.06q-.009.15-.015.3c0,.029,0,.058,0,.087,0,.121-.006.243-.006.365q0,.156,0,.311c0,.005,0,.01,0,.015a11.989,11.989,0,0,0,3.532,8.221H20.741V52.1a.94.94,0,0,0-1.88,0v8.547H13.813a.118.118,0,0,1-.118-.118V53.185a10.45,10.45,0,0,1,1.032-4.55.94.94,0,1,0-1.7-.812,12.317,12.317,0,0,0-1.216,5.362v7.339a2,2,0,0,0,2,2H54.857a12.078,12.078,0,1,0,6.091-22.506Zm-7.186-15.69q.057-.432.088-.872c0-.033,0-.067.006-.1q.01-.167.017-.335c0-.038,0-.075,0-.113,0-.142.007-.284.007-.427V19.75h.008a1.141,1.141,0,0,1,.136.009l.035.005a1.1,1.1,0,0,1,.109.022l.027.007a1.146,1.146,0,0,1,.26.11l.014.008a1.14,1.14,0,0,1,.108.073l.012.009a1.142,1.142,0,0,1,.2.2l.011.015a1.159,1.159,0,0,1,.079.12v0a1.135,1.135,0,0,1,.145.555V23.2a1.144,1.144,0,0,1-1.142,1.142H53.76Zm-27.822.016A1.144,1.144,0,0,1,24.8,23.2V20.893a1.125,1.125,0,0,1,.224-.676l.013-.017a1.142,1.142,0,0,1,.2-.2l.013-.01a1.159,1.159,0,0,1,.106-.072l.016-.01a1.141,1.141,0,0,1,.259-.11l.028-.007c.036-.009.072-.016.108-.022l.036-.006a1.132,1.132,0,0,1,.136-.009h0l.005,2.729c0,.143,0,.285.007.427,0,.037,0,.075,0,.112q.006.168.017.335c0,.033,0,.067.006.1q.03.44.088.872c0,.005,0,.011,0,.016Zm2.146.64q-.015-.069-.028-.139t-.03-.154q-.016-.087-.031-.174c-.007-.042-.014-.085-.021-.127q-.016-.1-.03-.2c0-.035-.01-.069-.015-.1-.01-.076-.019-.151-.028-.227,0-.029-.007-.058-.01-.088-.009-.08-.016-.161-.023-.242,0-.026,0-.051-.007-.077-.007-.083-.012-.166-.017-.25,0-.024,0-.048,0-.073,0-.085-.008-.17-.01-.255,0-.023,0-.045,0-.068q0-.161,0-.322V18.825c0-.005,0-.01,0-.014h0c0-.133,0-.266.008-.4,0-.036,0-.07,0-.107v-.011c.005-.119.012-.237.021-.355,0-.049.007-.1.012-.151.01-.117.021-.234.034-.351.005-.044.011-.087.016-.131q.018-.147.04-.293c.007-.044.013-.089.02-.131.02-.123.042-.245.065-.366.006-.03.011-.06.017-.091q.038-.188.082-.375l.025-.105q.043-.177.092-.353c.034-.125.072-.249.11-.372.011-.034.02-.068.031-.1l.007-.021,0-.008q.268-.059.537-.1a14.735,14.735,0,0,1,6.245.719c.722.206,1.452.435,2.192.667a27.787,27.787,0,0,0,8.289,1.69q.231,0,.457,0a14.975,14.975,0,0,0,5.724-1.136c0,.017,0,.034.007.051q.028.181.05.363c.006.048.011.095.016.142q.017.151.03.3c0,.051.008.1.012.153.007.1.013.2.018.307,0,.037,0,.075.005.111v.029c.005.143.009.286.009.429v0s0,.007,0,.01v3.658q0,.161,0,.322c0,.023,0,.046,0,.068,0,.085-.006.17-.01.255,0,.024,0,.048,0,.073,0,.083-.01.166-.017.25,0,.026,0,.051-.007.077-.007.081-.014.161-.023.242,0,.029-.007.058-.01.088-.009.076-.018.151-.028.227,0,.035-.01.069-.015.1q-.014.1-.03.2c-.007.042-.014.085-.021.127q-.015.087-.031.174t-.03.154q-.014.069-.028.139A12.115,12.115,0,0,1,40.85,34.533l-.049,0-.256.016-.127.005-.185.007q-.159,0-.319,0t-.319,0l-.185-.007-.127-.005c-.085,0-.171-.01-.256-.016l-.049,0A12.115,12.115,0,0,1,28.087,24.982Zm8.368,21.211a.249.249,0,0,1-.339-.011l-5.9-5.9,2.157-.672,6.081,4.839Zm-1.907-7.251a3.406,3.406,0,0,0,.815-2.222V35.69c.242.084.486.158.731.227l.006,0q.307.087.618.16l.087.02q.27.061.543.112l.114.021.28.047.252.037q.16.022.321.04t.318.033l.172.015q.234.018.47.029l.126,0c.171.006.342.011.515.011s.344,0,.515-.011l.126,0q.236-.011.47-.029l.172-.015q.16-.015.318-.033t.321-.04l.252-.037q.14-.022.28-.047l.114-.021q.273-.051.543-.112l.087-.02q.311-.073.618-.16l.006,0c.245-.07.49-.144.731-.227v1.029a3.407,3.407,0,0,0,.815,2.222l-5.368,4.272Zm9.167,7.24a.249.249,0,0,1-.339.011l-1.994-1.744,3.759-2.992,2.233-1.777h0l.088-.07,2.157.672ZM60.948,62.294a10.212,10.212,0,0,1-10.183-9.636c0-.03,0-.06,0-.089-.007-.157-.012-.315-.012-.474s0-.311.012-.466c0-.057.007-.114.01-.171q.009-.141.021-.281c.007-.072.013-.145.021-.217s.017-.132.025-.2a10.244,10.244,0,0,1,2.369-5.3c.046-.054.092-.107.139-.16s.083-.092.125-.137q.108-.116.219-.23l.074-.076a10.2,10.2,0,1,1,7.183,17.432Z"/>
    </g>
  </g>
</svg>
