<svg xmlns="http://www.w3.org/2000/svg" xmlns:xlink="http://www.w3.org/1999/xlink" width="113" height="113" viewBox="0 0 113 113">
  <defs>
    <filter id="Trazado_982547" x="0" y="0" width="113" height="113" filterUnits="userSpaceOnUse">
      <feOffset dy="3" input="SourceAlpha"/>
      <feGaussianBlur stdDeviation="3" result="blur"/>
      <feFlood flood-opacity="0.161"/>
      <feComposite operator="in" in2="blur"/>
      <feComposite in="SourceGraphic"/>
    </filter>
  </defs>
  <g id="Grupo_1228082" data-name="Grupo 1228082" transform="translate(-900.425 -5633.467)">
    <g id="Grupo_1227504" data-name="Grupo 1227504" transform="translate(0 2048.198)">
      <g id="Grupo_1225352" data-name="Grupo 1225352" transform="translate(-0.575 -393.641)">
        <g id="Grupo_1208123" data-name="Grupo 1208123" transform="translate(0 -1922.377)">
          <g id="Grupo_1202434" data-name="Grupo 1202434" transform="translate(-0.56 1255.773)">
            <g id="Grupo_1202053" data-name="Grupo 1202053" transform="translate(0 3240.511)">
              <g id="Grupo_1177898" data-name="Grupo 1177898" transform="translate(910.561 1411.003)">
                <g id="Grupo_1172010" data-name="Grupo 1172010" transform="translate(0)">
                  <g id="Grupo_1171046" data-name="Grupo 1171046">
                    <g id="Grupo_1148525" data-name="Grupo 1148525">
                      <g transform="matrix(1, 0, 0, 1, -9, -6)" filter="url(#Trazado_982547)">
                        <g id="Trazado_982547-2" data-name="Trazado 982547" transform="translate(9 6)" fill="#e5fdfa">
                          <path d="M 47.5 93.5 C 41.28937149047852 93.5 35.26533508300781 92.28397369384766 29.59518623352051 89.88570404052734 C 24.11771965026855 87.56893157958984 19.19813346862793 84.25196075439453 14.97309303283691 80.02691650390625 C 10.74804019927979 75.80186462402344 7.431066513061523 70.88229370117188 5.114293098449707 65.40481567382812 C 2.716026782989502 59.73468017578125 1.5 53.71062850952148 1.5 47.5 C 1.5 41.28937149047852 2.716026782989502 35.26533508300781 5.114293098449707 29.59518623352051 C 7.431066513061523 24.11771965026855 10.74804019927979 19.19813346862793 14.97309303283691 14.97309303283691 C 19.19813346862793 10.74804019927979 24.11771965026855 7.431066513061523 29.59518623352051 5.114293098449707 C 35.26533508300781 2.716026782989502 41.28937149047852 1.5 47.5 1.5 C 53.71062850952148 1.5 59.73468017578125 2.716026782989502 65.40481567382812 5.114293098449707 C 70.88229370117188 7.431066513061523 75.80186462402344 10.74804019927979 80.02691650390625 14.97309303283691 C 84.25196075439453 19.19813346862793 87.56893157958984 24.11771965026855 89.88570404052734 29.59518623352051 C 92.28397369384766 35.26533508300781 93.5 41.28937149047852 93.5 47.5 C 93.5 53.71062850952148 92.28397369384766 59.73468017578125 89.88570404052734 65.40481567382812 C 87.56893157958984 70.88229370117188 84.25196075439453 75.80186462402344 80.02691650390625 80.02691650390625 C 75.80186462402344 84.25196075439453 70.88229370117188 87.56893157958984 65.40481567382812 89.88570404052734 C 59.73468017578125 92.28397369384766 53.71062850952148 93.5 47.5 93.5 Z" stroke="none"/>
                          <path d="M 47.5 3 C 41.49121475219727 3 35.66376876831055 4.176155090332031 30.17950439453125 6.495796203613281 C 24.88084411621094 8.736953735351562 20.12152099609375 11.94598388671875 16.03375244140625 16.03375244140625 C 11.94598388671875 20.12152099609375 8.736953735351562 24.88084411621094 6.495796203613281 30.17950439453125 C 4.176155090332031 35.66376876831055 3 41.49121475219727 3 47.5 C 3 53.50878524780273 4.176155090332031 59.33623123168945 6.495796203613281 64.82049560546875 C 8.736953735351562 70.11915588378906 11.94598388671875 74.87847900390625 16.03375244140625 78.96624755859375 C 20.12152099609375 83.05401611328125 24.88084411621094 86.26304626464844 30.17950439453125 88.50419616699219 C 35.66376876831055 90.82384490966797 41.49121475219727 92 47.5 92 C 53.50878524780273 92 59.33623123168945 90.82384490966797 64.82049560546875 88.50419616699219 C 70.11915588378906 86.26304626464844 74.87847900390625 83.05401611328125 78.96624755859375 78.96624755859375 C 83.05401611328125 74.87847900390625 86.26304626464844 70.11915588378906 88.50419616699219 64.82049560546875 C 90.82384490966797 59.33623123168945 92 53.50878524780273 92 47.5 C 92 41.49121475219727 90.82384490966797 35.66376876831055 88.50419616699219 30.17950439453125 C 86.26304626464844 24.88084411621094 83.05401611328125 20.12152099609375 78.96624755859375 16.03375244140625 C 74.87847900390625 11.94598388671875 70.11915588378906 8.736953735351562 64.82049560546875 6.495796203613281 C 59.33623123168945 4.176155090332031 53.50878524780273 3 47.5 3 M 47.5 0 C 73.7335205078125 0 95 21.2664794921875 95 47.5 C 95 73.7335205078125 73.7335205078125 95 47.5 95 C 21.2664794921875 95 0 73.7335205078125 0 47.5 C 0 21.2664794921875 21.2664794921875 0 47.5 0 Z" stroke="none" fill="#098576"/>
                        </g>
                      </g>
                    </g>
                  </g>
                </g>
              </g>
            </g>
          </g>
        </g>
      </g>
    </g>
    <g id="bussiness-Workflow-website-management" transform="translate(928.384 5657.582)">
      <path id="Trazado_1216913" data-name="Trazado 1216913" d="M3,15H55.425V56.578H3Z" transform="translate(-0.096 -1.25)" fill="#e1ecfd"/>
      <path id="Trazado_1216914" data-name="Trazado 1216914" d="M3,7H55.425v7.231H3Z" transform="translate(-0.096 -0.481)" fill="#8e95a3"/>
      <path id="Trazado_1216915" data-name="Trazado 1216915" d="M54.846,48v8.135H44V48H54.846Z" transform="translate(-4.037 -4.422)" fill="#ee8647"/>
      <path id="Trazado_1216916" data-name="Trazado 1216916" d="M18.846,48v8.135H8V48H18.846Z" transform="translate(-0.577 -4.422)" fill="#dd636e"/>
      <path id="Trazado_1216917" data-name="Trazado 1216917" d="M36.846,48v8.135H26V48H36.846Z" transform="translate(-2.307 -4.422)" fill="#499f96"/>
      <path id="Trazado_1216918" data-name="Trazado 1216918" d="M36.846,20v8.135H26V20Z" transform="translate(-2.307 -1.73)" fill="#f6cc4f"/>
      <path id="Trazado_1216919" data-name="Trazado 1216919" d="M13.423,6.615v3.615H8V3h5.423Z" transform="translate(-0.577 -0.096)" fill="#3e3d42"/>
      <path id="Trazado_1216920" data-name="Trazado 1216920" d="M55.423,6.615v3.615H50V3h5.423Z" transform="translate(-4.614 -0.096)" fill="#3e3d42"/>
      <path id="Trazado_1216921" data-name="Trazado 1216921" d="M55.329,5.615H51.713V2.9a.9.9,0,0,0-.9-.9H45.386a.9.9,0,0,0-.9.9V5.615H13.75V2.9a.9.9,0,0,0-.9-.9H7.423a.9.9,0,0,0-.9.9V5.615H2.9a.9.9,0,0,0-.9.9V55.329a.9.9,0,0,0,.9.9H55.329a.9.9,0,0,0,.9-.9V6.519A.9.9,0,0,0,55.329,5.615ZM46.29,3.808h3.615V9.231H46.29Zm-37.963,0h3.615V9.231H8.327Zm46.1,50.617H3.808V14.654H54.425Zm0-41.578H3.808V7.423H6.519v2.712a.9.9,0,0,0,.9.9h5.423a.9.9,0,0,0,.9-.9V7.423H44.482v2.712a.9.9,0,0,0,.9.9h5.423a.9.9,0,0,0,.9-.9V7.423h2.712Z"/>
      <path id="Trazado_1216922" data-name="Trazado 1216922" d="M51.29,44.308H46.77V37.077a.9.9,0,0,0-.9-.9H30.5V28.943H35.02a.9.9,0,0,0,.9-.9V19.9a.9.9,0,0,0-.9-.9H24.174a.9.9,0,0,0-.9.9v8.135a.9.9,0,0,0,.9.9h4.519v7.231H13.327a.9.9,0,0,0-.9.9v7.231H7.9a.9.9,0,0,0-.9.9v8.135a.9.9,0,0,0,.9.9H18.75a.9.9,0,0,0,.9-.9V45.212a.9.9,0,0,0-.9-.9H14.231V37.981H28.693v6.327H24.174a.9.9,0,0,0-.9.9v8.135a.9.9,0,0,0,.9.9H35.02a.9.9,0,0,0,.9-.9V45.212a.9.9,0,0,0-.9-.9H30.5V37.981H44.963v6.327H40.443a.9.9,0,0,0-.9.9v8.135a.9.9,0,0,0,.9.9H51.29a.9.9,0,0,0,.9-.9V45.212A.9.9,0,0,0,51.29,44.308ZM17.846,46.116v6.327H8.808V46.116Zm16.27,0v6.327H25.077V46.116ZM25.077,27.135V20.808h9.039v6.327ZM50.386,52.443H41.347V46.116h9.039Z" transform="translate(-0.481 -1.634)"/>
    </g>
  </g>
</svg>
