<svg xmlns="http://www.w3.org/2000/svg" xmlns:xlink="http://www.w3.org/1999/xlink" width="113" height="113" viewBox="0 0 113 113">
  <defs>
    <filter id="Trazado_982547" x="0" y="0" width="113" height="113" filterUnits="userSpaceOnUse">
      <feOffset dy="3" input="SourceAlpha"/>
      <feGaussianBlur stdDeviation="3" result="blur"/>
      <feFlood flood-opacity="0.161"/>
      <feComposite operator="in" in2="blur"/>
      <feComposite in="SourceGraphic"/>
    </filter>
  </defs>
  <g id="Grupo_1227953" data-name="Grupo 1227953" transform="translate(-793.869 -788.328)">
    <g id="Grupo_1223793" data-name="Grupo 1223793" transform="translate(0.869 -700.672)">
      <g id="Grupo_1208028" data-name="Grupo 1208028" transform="translate(-0.49 -4138.425)">
        <g id="Grupo_1177675" data-name="Grupo 1177675" transform="translate(-4493 3707.152)">
          <g id="Grupo_1176928" data-name="Grupo 1176928" transform="translate(5295.49 1926.273)">
            <g id="Grupo_1172322" data-name="Grupo 1172322" transform="translate(0 0)">
              <g id="Grupo_1164700" data-name="Grupo 1164700">
                <g id="Grupo_1160931" data-name="Grupo 1160931">
                  <g id="Grupo_1160749" data-name="Grupo 1160749">
                    <g id="Grupo_1158891" data-name="Grupo 1158891">
                      <g id="Grupo_1157406" data-name="Grupo 1157406">
                        <g id="Grupo_1155793" data-name="Grupo 1155793">
                          <g id="Grupo_1154704" data-name="Grupo 1154704">
                            <g id="Grupo_1150790" data-name="Grupo 1150790">
                              <g id="Grupo_1154214" data-name="Grupo 1154214">
                                <g id="Grupo_1152583" data-name="Grupo 1152583">
                                  <g id="Grupo_1146973" data-name="Grupo 1146973">
                                    <g id="Grupo_1146954" data-name="Grupo 1146954">
                                      <g transform="matrix(1, 0, 0, 1, -9, -6)" filter="url(#Trazado_982547)">
                                        <g id="Trazado_982547-2" data-name="Trazado 982547" transform="translate(9 6)" fill="#eddbfd">
                                          <path d="M 47.5000114440918 93.49987030029297 C 41.28938293457031 93.49987030029297 35.26534652709961 92.28384399414062 29.5951976776123 89.88558959960938 C 24.11773109436035 87.56881713867188 19.19814491271973 84.25183868408203 14.97310447692871 80.02680206298828 C 10.74805164337158 75.80176544189453 7.43107795715332 70.88218688964844 5.114304542541504 65.40472412109375 C 2.716038227081299 59.73458862304688 1.500011444091797 53.71054840087891 1.500011444091797 47.49993515014648 C 1.500011444091797 41.28932189941406 2.716038227081299 35.26528167724609 5.114304542541504 29.59514808654785 C 7.43107795715332 24.1176815032959 10.74805164337158 19.1981086730957 14.97310447692871 14.97306823730469 C 19.19814491271973 10.74802875518799 24.11773109436035 7.431055068969727 29.5951976776123 5.11428165435791 C 35.26534652709961 2.716028451919556 41.28938293457031 1.500001788139343 47.5000114440918 1.500001788139343 C 53.71063995361328 1.500001788139343 59.73467636108398 2.716028451919556 65.40482330322266 5.11428165435791 C 70.88229370117188 7.431055068969727 75.8018798828125 10.74802875518799 80.02691650390625 14.97306823730469 C 84.25196838378906 19.1981086730957 87.56894683837891 24.1176815032959 89.88571929931641 29.59514808654785 C 92.28398132324219 35.26528167724609 93.50001525878906 41.28932189941406 93.50001525878906 47.49993515014648 C 93.50001525878906 53.71054840087891 92.28398132324219 59.73458862304688 89.88571929931641 65.40472412109375 C 87.56894683837891 70.88218688964844 84.25196838378906 75.80176544189453 80.02691650390625 80.02680206298828 C 75.8018798828125 84.25183868408203 70.88229370117188 87.56881713867188 65.40482330322266 89.88558959960938 C 59.73467636108398 92.28384399414062 53.71063995361328 93.49987030029297 47.5000114440918 93.49987030029297 Z" stroke="none"/>
                                          <path d="M 47.5000114440918 3 C 41.49122619628906 3 35.66378021240234 4.1761474609375 30.17951965332031 6.495796203613281 C 24.880859375 8.7369384765625 20.12153625488281 11.94596862792969 16.03376770019531 16.03373718261719 C 11.94598388671875 20.12149047851562 8.736968994140625 24.88081359863281 6.495811462402344 30.17947387695312 C 4.176162719726562 35.66371917724609 3.000007629394531 41.49116516113281 3.000007629394531 47.49993515014648 C 3.000007629394531 53.50870513916016 4.176162719726562 59.33615112304688 6.495811462402344 64.82039642333984 C 8.736968994140625 70.11905670166016 11.94598388671875 74.87837982177734 16.03376770019531 78.96613311767578 C 20.12153625488281 83.05390167236328 24.880859375 86.26293182373047 30.17951965332031 88.50407409667969 C 35.66378021240234 90.82372283935547 41.49122619628906 91.99987030029297 47.5000114440918 91.99987030029297 C 53.50879669189453 91.99987030029297 59.33624267578125 90.82372283935547 64.82050323486328 88.50407409667969 C 70.11916351318359 86.26293182373047 74.87848663330078 83.05390167236328 78.96625518798828 78.96613311767578 C 83.05403900146484 74.87837982177734 86.2630615234375 70.11905670166016 88.50421142578125 64.82039642333984 C 90.82386016845703 59.33615112304688 92.00001525878906 53.50870513916016 92.00001525878906 47.49993515014648 C 92.00001525878906 41.49116516113281 90.82386016845703 35.66371917724609 88.50421142578125 30.17947387695312 C 86.2630615234375 24.88081359863281 83.05403900146484 20.12149047851562 78.96625518798828 16.03373718261719 C 74.87848663330078 11.94596862792969 70.11916351318359 8.7369384765625 64.82050323486328 6.495796203613281 C 59.33624267578125 4.1761474609375 53.50879669189453 3 47.5000114440918 3 M 47.5000114440918 0 C 73.73353576660156 0 95.00001525878906 21.26644134521484 95.00001525878906 47.49993515014648 C 95.00001525878906 73.73342895507812 73.73353576660156 94.99987030029297 47.5000114440918 94.99987030029297 C 21.26648712158203 94.99987030029297 7.62939453125e-06 73.73342895507812 7.62939453125e-06 47.49993515014648 C 7.62939453125e-06 21.26644134521484 21.26648712158203 0 47.5000114440918 0 Z" stroke="none" fill="#aa52f9"/>
                                        </g>
                                      </g>
                                    </g>
                                  </g>
                                </g>
                              </g>
                            </g>
                          </g>
                        </g>
                      </g>
                    </g>
                  </g>
                </g>
              </g>
            </g>
          </g>
        </g>
      </g>
    </g>
    <g id="red" transform="translate(820.024 811.494)">
      <g id="Grupo_1227925" data-name="Grupo 1227925" transform="translate(44.938 38.235)">
        <g id="Grupo_1227921" data-name="Grupo 1227921" transform="translate(0 9.576)">
          <path id="Trazado_1216385" data-name="Trazado 1216385" d="M379.24,407.793v5.267h14.843v-5.267a4.309,4.309,0,0,0-4.309-4.309h-6.224A4.309,4.309,0,0,0,379.24,407.793Z" transform="translate(-379.24 -403.484)" fill="#e69642"/>
        </g>
        <g id="Grupo_1227922" data-name="Grupo 1227922" transform="translate(7.421 9.576)">
          <path id="Trazado_1216386" data-name="Trazado 1216386" d="M444.982,403.484H441.87a4.309,4.309,0,0,1,4.309,4.309v5.267h3.112v-5.267A4.309,4.309,0,0,0,444.982,403.484Z" transform="translate(-441.87 -403.484)" fill="#e38523"/>
        </g>
        <g id="Grupo_1227923" data-name="Grupo 1227923" transform="translate(2.633)">
          <circle id="Elipse_13243" data-name="Elipse 13243" cx="4.788" cy="4.788" r="4.788" fill="#fed2a4"/>
        </g>
        <g id="Grupo_1227924" data-name="Grupo 1227924" transform="translate(3.195 0.562)">
          <path id="Trazado_1216387" data-name="Trazado 1216387" d="M412.683,327.413a4.788,4.788,0,0,1-6.477,6.477,4.788,4.788,0,1,0,6.477-6.477Z" transform="translate(-406.206 -327.413)" fill="#ffbd86"/>
        </g>
      </g>
      <g id="Grupo_1227930" data-name="Grupo 1227930" transform="translate(0.889 38.235)">
        <g id="Grupo_1227926" data-name="Grupo 1227926" transform="translate(0 9.576)">
          <path id="Trazado_1216388" data-name="Trazado 1216388" d="M7.5,407.793v5.267H22.343v-5.267a4.309,4.309,0,0,0-4.309-4.309H11.809A4.309,4.309,0,0,0,7.5,407.793Z" transform="translate(-7.5 -403.484)" fill="#ad7fdd"/>
        </g>
        <g id="Grupo_1227927" data-name="Grupo 1227927" transform="translate(7.421 9.576)">
          <path id="Trazado_1216389" data-name="Trazado 1216389" d="M73.242,403.484H70.13a4.309,4.309,0,0,1,4.309,4.309v5.267h3.112v-5.267A4.309,4.309,0,0,0,73.242,403.484Z" transform="translate(-70.13 -403.484)" fill="#9d66d6"/>
        </g>
        <g id="Grupo_1227928" data-name="Grupo 1227928" transform="translate(2.633)">
          <circle id="Elipse_13244" data-name="Elipse 13244" cx="4.788" cy="4.788" r="4.788" fill="#fed2a4"/>
        </g>
        <g id="Grupo_1227929" data-name="Grupo 1227929" transform="translate(3.195 0.562)">
          <path id="Trazado_1216390" data-name="Trazado 1216390" d="M40.942,327.413a4.788,4.788,0,0,1-6.477,6.477,4.788,4.788,0,1,0,6.477-6.477Z" transform="translate(-34.465 -327.413)" fill="#ffbd86"/>
        </g>
      </g>
      <g id="Grupo_1227935" data-name="Grupo 1227935" transform="translate(44.938 3.283)">
        <g id="Grupo_1227931" data-name="Grupo 1227931" transform="translate(0 9.576)">
          <path id="Trazado_1216391" data-name="Trazado 1216391" d="M379.24,112.825v5.267h14.843v-5.267a4.309,4.309,0,0,0-4.309-4.309h-6.224a4.309,4.309,0,0,0-4.309,4.309Z" transform="translate(-379.24 -108.516)" fill="#62a4fb"/>
        </g>
        <g id="Grupo_1227932" data-name="Grupo 1227932" transform="translate(7.421 9.576)">
          <path id="Trazado_1216392" data-name="Trazado 1216392" d="M444.982,108.516H441.87a4.309,4.309,0,0,1,4.309,4.309v5.267h3.112v-5.267A4.309,4.309,0,0,0,444.982,108.516Z" transform="translate(-441.87 -108.516)" fill="#5392f9"/>
        </g>
        <g id="Grupo_1227933" data-name="Grupo 1227933" transform="translate(2.633)">
          <circle id="Elipse_13245" data-name="Elipse 13245" cx="4.788" cy="4.788" r="4.788" fill="#fed2a4"/>
        </g>
        <g id="Grupo_1227934" data-name="Grupo 1227934" transform="translate(3.195 0.562)">
          <path id="Trazado_1216393" data-name="Trazado 1216393" d="M412.683,32.445a4.788,4.788,0,0,1-6.477,6.477,4.788,4.788,0,1,0,6.477-6.477Z" transform="translate(-406.206 -32.445)" fill="#ffbd86"/>
        </g>
      </g>
      <g id="Grupo_1227940" data-name="Grupo 1227940" transform="translate(0.889 3.283)">
        <g id="Grupo_1227936" data-name="Grupo 1227936" transform="translate(0 9.576)">
          <path id="Trazado_1216394" data-name="Trazado 1216394" d="M7.5,112.825v5.267H22.343v-5.267a4.309,4.309,0,0,0-4.309-4.309H11.809A4.309,4.309,0,0,0,7.5,112.825Z" transform="translate(-7.5 -108.516)" fill="#e175a5"/>
        </g>
        <g id="Grupo_1227937" data-name="Grupo 1227937" transform="translate(7.421 9.576)">
          <path id="Trazado_1216395" data-name="Trazado 1216395" d="M73.242,108.516H70.13a4.309,4.309,0,0,1,4.309,4.309v5.267h3.112v-5.267A4.309,4.309,0,0,0,73.242,108.516Z" transform="translate(-70.13 -108.516)" fill="#de5791"/>
        </g>
        <g id="Grupo_1227938" data-name="Grupo 1227938" transform="translate(2.633)">
          <circle id="Elipse_13246" data-name="Elipse 13246" cx="4.788" cy="4.788" r="4.788" fill="#fed2a4"/>
        </g>
        <g id="Grupo_1227939" data-name="Grupo 1227939" transform="translate(3.195 0.562)">
          <path id="Trazado_1216396" data-name="Trazado 1216396" d="M40.942,32.445a4.788,4.788,0,0,1-6.477,6.477,4.788,4.788,0,1,0,6.477-6.477Z" transform="translate(-34.465 -32.445)" fill="#ffbd86"/>
        </g>
      </g>
      <g id="Grupo_1227947" data-name="Grupo 1227947" transform="translate(21.635 21.635)">
        <g id="Grupo_1227943" data-name="Grupo 1227943">
          <g id="Grupo_1227941" data-name="Grupo 1227941">
            <circle id="Elipse_13247" data-name="Elipse 13247" cx="8.699" cy="8.699" r="8.699" fill="#a2f5c3"/>
          </g>
          <g id="Grupo_1227942" data-name="Grupo 1227942" transform="translate(1.377 1.377)">
            <path id="Trazado_1216397" data-name="Trazado 1216397" d="M206.22,194.2A8.7,8.7,0,0,1,194.2,206.22,8.7,8.7,0,1,0,206.22,194.2Z" transform="translate(-194.204 -194.204)" fill="#88f2a9"/>
          </g>
        </g>
        <g id="Grupo_1227946" data-name="Grupo 1227946" transform="translate(4.269 5.017)">
          <g id="Grupo_1227945" data-name="Grupo 1227945">
            <g id="Grupo_1227944" data-name="Grupo 1227944">
              <path id="Trazado_1216398" data-name="Trazado 1216398" d="M222.028,232.293a1.915,1.915,0,0,1-1.354-.561l-1.5-1.5a1.915,1.915,0,0,1,2.708-2.708l.142.142,2.179-2.179a1.915,1.915,0,1,1,2.708,2.708l-3.533,3.533A1.915,1.915,0,0,1,222.028,232.293Z" transform="translate(-218.616 -224.93)" fill="#e6f7fe"/>
            </g>
          </g>
        </g>
      </g>
      <g id="Grupo_1227948" data-name="Grupo 1227948" transform="translate(27.222 0.889)">
        <circle id="Elipse_13248" data-name="Elipse 13248" cx="3.112" cy="3.112" r="3.112" fill="#a2f5c3"/>
      </g>
      <g id="Grupo_1227949" data-name="Grupo 1227949" transform="translate(53.556 27.222)">
        <circle id="Elipse_13249" data-name="Elipse 13249" cx="3.112" cy="3.112" r="3.112" fill="#a2f5c3"/>
      </g>
      <g id="Grupo_1227950" data-name="Grupo 1227950" transform="translate(0.889 27.222)">
        <circle id="Elipse_13250" data-name="Elipse 13250" cx="3.112" cy="3.112" r="3.112" fill="#a2f5c3"/>
      </g>
      <g id="Grupo_1227951" data-name="Grupo 1227951" transform="translate(27.222 53.556)">
        <circle id="Elipse_13251" data-name="Elipse 13251" cx="3.112" cy="3.112" r="3.112" fill="#a2f5c3"/>
      </g>
      <g id="Grupo_1227952" data-name="Grupo 1227952" transform="translate(0 0)">
        <path id="Trazado_1216399" data-name="Trazado 1216399" d="M59.78,23.323a.889.889,0,0,0,.889-.889V17.168A5.205,5.205,0,0,0,56.4,12.054a5.675,5.675,0,1,0-9.716-3.984c0,.173.009.345.024.514A27.106,27.106,0,0,0,34.29,3.4a4,4,0,0,0-7.911,0A27.1,27.1,0,0,0,13.962,8.585c.015-.169.024-.341.024-.514a5.677,5.677,0,1,0-9.715,3.984A5.2,5.2,0,0,0,0,17.167v5.267a.889.889,0,0,0,.889.889H4.025A27.159,27.159,0,0,0,3.4,26.379a4,4,0,0,0,0,7.911,27.14,27.14,0,0,0,1.073,4.555,5.666,5.666,0,0,0-.2,8.161A5.205,5.205,0,0,0,0,52.12v5.267a.889.889,0,0,0,.889.889H15.731a.889.889,0,0,0,.889-.889V53.852a27.273,27.273,0,0,0,9.759,3.419,4,4,0,0,0,7.911,0,27.272,27.272,0,0,0,9.759-3.419v3.535a.889.889,0,0,0,.889.889h4.9a.889.889,0,1,0,0-1.777H45.826V52.12A3.425,3.425,0,0,1,49.247,48.7h6.223a3.425,3.425,0,0,1,3.421,3.421V56.5h-4.9a.889.889,0,1,0,0,1.777H59.78a.889.889,0,0,0,.889-.889V52.12a5.206,5.206,0,0,0-4.27-5.114,5.666,5.666,0,0,0-.2-8.161,27.143,27.143,0,0,0,1.073-4.555,4,4,0,0,0,0-7.911,27.157,27.157,0,0,0-.627-3.056Zm-.889-6.155v4.378H45.826V17.168a3.424,3.424,0,0,1,3.42-3.42h6.224A3.424,3.424,0,0,1,58.892,17.168Zm-6.533-13a3.9,3.9,0,1,1-3.9,3.9,3.9,3.9,0,0,1,3.9-3.9ZM30.335,1.777A2.223,2.223,0,1,1,28.111,4,2.226,2.226,0,0,1,30.335,1.777ZM8.31,4.171a3.9,3.9,0,1,1-3.9,3.9,3.9,3.9,0,0,1,3.9-3.9ZM1.777,30.335A2.223,2.223,0,1,1,4,32.558a2.226,2.226,0,0,1-2.223-2.223ZM8.31,39.123a3.9,3.9,0,1,1-3.9,3.9A3.9,3.9,0,0,1,8.31,39.123ZM1.777,56.5V52.12A3.424,3.424,0,0,1,5.2,48.7h6.224a3.424,3.424,0,0,1,3.42,3.42V56.5Zm28.557,2.394a2.223,2.223,0,1,1,2.224-2.223A2.226,2.226,0,0,1,30.335,58.892Zm22.043-11.97h-.037a3.9,3.9,0,1,1,.037,0Zm6.514-16.587a2.223,2.223,0,1,1-2.224-2.223A2.226,2.226,0,0,1,58.892,30.335Zm-3.4-3.824a4,4,0,0,0,0,7.649,25.379,25.379,0,0,1-.838,3.674,5.673,5.673,0,0,0-6.334,9.174,5.207,5.207,0,0,0-4.256,4.752,25.472,25.472,0,0,1-9.9,3.736,4,4,0,0,0-7.649,0,25.473,25.473,0,0,1-9.9-3.736,5.206,5.206,0,0,0-4.257-4.751,5.673,5.673,0,0,0-6.334-9.174,25.38,25.38,0,0,1-.838-3.674,4,4,0,0,0,0-7.649,25.354,25.354,0,0,1,.693-3.187h1.8a.889.889,0,0,0,0-1.777H1.777V17.167A3.424,3.424,0,0,1,5.2,13.748h6.223a3.424,3.424,0,0,1,3.421,3.42v4.378H11.815a.889.889,0,0,0,0,1.777h3.916a.889.889,0,0,0,.889-.889V17.167A5.205,5.205,0,0,0,12.586,12.1,25.362,25.362,0,0,1,26.51,5.177a4,4,0,0,0,7.648,0A25.362,25.362,0,0,1,48.083,12.1a5.206,5.206,0,0,0-4.034,5.065v5.267a.889.889,0,0,0,.889.889H54.8a25.346,25.346,0,0,1,.693,3.187Z" transform="translate(0 0)"/>
        <path id="Trazado_1216400" data-name="Trazado 1216400" d="M191.651,179.4a.889.889,0,0,0-.3,1.221A7.805,7.805,0,1,1,188.734,178a.889.889,0,0,0,.925-1.518,9.583,9.583,0,1,0,3.214,3.214A.889.889,0,0,0,191.651,179.4Z" transform="translate(-154.344 -154.343)"/>
        <path id="Trazado_1216401" data-name="Trazado 1216401" d="M218.95,217.43a2.785,2.785,0,0,0-1.983.821l-1.61,1.61a2.8,2.8,0,0,0-3.419,4.392l1.5,1.5a2.8,2.8,0,0,0,3.965,0l3.533-3.533a2.8,2.8,0,0,0-1.982-4.787Zm.726,3.53-3.533,3.533a1.026,1.026,0,0,1-1.451,0l-1.5-1.5a1.026,1.026,0,1,1,1.452-1.452l.142.142a.889.889,0,0,0,1.257,0l2.179-2.179a1.026,1.026,0,1,1,1.451,1.452Z" transform="translate(-186.101 -191.666)"/>
        <path id="Trazado_1216402" data-name="Trazado 1216402" d="M249.389,93.453a.889.889,0,0,0,.889-.889V85.742a.889.889,0,0,0-1.777,0v6.823A.889.889,0,0,0,249.389,93.453Z" transform="translate(-219.054 -74.798)"/>
        <path id="Trazado_1216403" data-name="Trazado 1216403" d="M354.567,249.389a.889.889,0,0,0,.889.889h6.823a.889.889,0,1,0,0-1.777h-6.823A.889.889,0,0,0,354.567,249.389Z" transform="translate(-312.553 -219.054)"/>
        <path id="Trazado_1216404" data-name="Trazado 1216404" d="M249.389,354.567a.889.889,0,0,0-.889.889v6.823a.889.889,0,0,0,1.777,0v-6.823A.889.889,0,0,0,249.389,354.567Z" transform="translate(-219.054 -312.553)"/>
        <path id="Trazado_1216405" data-name="Trazado 1216405" d="M92.565,248.5H85.743a.889.889,0,1,0,0,1.777h6.823a.889.889,0,0,0,0-1.777Z" transform="translate(-74.799 -219.054)"/>
      </g>
    </g>
  </g>
</svg>
