<svg xmlns="http://www.w3.org/2000/svg" xmlns:xlink="http://www.w3.org/1999/xlink" width="113" height="113" viewBox="0 0 113 113">
  <defs>
    <filter id="Trazado_982547" x="0" y="0" width="113" height="113" filterUnits="userSpaceOnUse">
      <feOffset dy="3" input="SourceAlpha"/>
      <feGaussianBlur stdDeviation="3" result="blur"/>
      <feFlood flood-opacity="0.161"/>
      <feComposite operator="in" in2="blur"/>
      <feComposite in="SourceGraphic"/>
    </filter>
  </defs>
  <g id="Grupo_1227965" data-name="Grupo 1227965" transform="translate(-4103 -799)">
    <g id="Grupo_1227497" data-name="Grupo 1227497" transform="translate(3310 -690)">
      <g id="Grupo_1208028" data-name="Grupo 1208028" transform="translate(-0.49 -4138.425)">
        <g id="Grupo_1177675" data-name="Grupo 1177675" transform="translate(-4493 3707.152)">
          <g id="Grupo_1176928" data-name="Grupo 1176928" transform="translate(5295.49 1926.273)">
            <g id="Grupo_1172322" data-name="Grupo 1172322" transform="translate(0 0)">
              <g id="Grupo_1164700" data-name="Grupo 1164700">
                <g id="Grupo_1160931" data-name="Grupo 1160931">
                  <g id="Grupo_1160749" data-name="Grupo 1160749">
                    <g id="Grupo_1158891" data-name="Grupo 1158891">
                      <g id="Grupo_1157406" data-name="Grupo 1157406">
                        <g id="Grupo_1155793" data-name="Grupo 1155793">
                          <g id="Grupo_1154704" data-name="Grupo 1154704">
                            <g id="Grupo_1150790" data-name="Grupo 1150790">
                              <g id="Grupo_1154214" data-name="Grupo 1154214">
                                <g id="Grupo_1152583" data-name="Grupo 1152583">
                                  <g id="Grupo_1146973" data-name="Grupo 1146973">
                                    <g id="Grupo_1146954" data-name="Grupo 1146954">
                                      <g transform="matrix(1, 0, 0, 1, -9, -6)" filter="url(#Trazado_982547)">
                                        <g id="Trazado_982547-2" data-name="Trazado 982547" transform="translate(9 6)" fill="#eddbfd">
                                          <path d="M 47.5000114440918 93.49987030029297 C 41.28938293457031 93.49987030029297 35.26534652709961 92.28384399414062 29.5951976776123 89.88558959960938 C 24.11773109436035 87.56881713867188 19.19814491271973 84.25183868408203 14.97310447692871 80.02680206298828 C 10.74805164337158 75.80176544189453 7.43107795715332 70.88218688964844 5.114304542541504 65.40472412109375 C 2.716038227081299 59.73458862304688 1.500011444091797 53.71054840087891 1.500011444091797 47.49993515014648 C 1.500011444091797 41.28932189941406 2.716038227081299 35.26528167724609 5.114304542541504 29.59514808654785 C 7.43107795715332 24.1176815032959 10.74805164337158 19.1981086730957 14.97310447692871 14.97306823730469 C 19.19814491271973 10.74802875518799 24.11773109436035 7.431055068969727 29.5951976776123 5.11428165435791 C 35.26534652709961 2.716028451919556 41.28938293457031 1.500001788139343 47.5000114440918 1.500001788139343 C 53.71063995361328 1.500001788139343 59.73467636108398 2.716028451919556 65.40482330322266 5.11428165435791 C 70.88229370117188 7.431055068969727 75.8018798828125 10.74802875518799 80.02691650390625 14.97306823730469 C 84.25196838378906 19.1981086730957 87.56894683837891 24.1176815032959 89.88571929931641 29.59514808654785 C 92.28398132324219 35.26528167724609 93.50001525878906 41.28932189941406 93.50001525878906 47.49993515014648 C 93.50001525878906 53.71054840087891 92.28398132324219 59.73458862304688 89.88571929931641 65.40472412109375 C 87.56894683837891 70.88218688964844 84.25196838378906 75.80176544189453 80.02691650390625 80.02680206298828 C 75.8018798828125 84.25183868408203 70.88229370117188 87.56881713867188 65.40482330322266 89.88558959960938 C 59.73467636108398 92.28384399414062 53.71063995361328 93.49987030029297 47.5000114440918 93.49987030029297 Z" stroke="none"/>
                                          <path d="M 47.5000114440918 3 C 41.49122619628906 3 35.66378021240234 4.1761474609375 30.17951965332031 6.495796203613281 C 24.880859375 8.7369384765625 20.12153625488281 11.94596862792969 16.03376770019531 16.03373718261719 C 11.94598388671875 20.12149047851562 8.736968994140625 24.88081359863281 6.495811462402344 30.17947387695312 C 4.176162719726562 35.66371917724609 3.000007629394531 41.49116516113281 3.000007629394531 47.49993515014648 C 3.000007629394531 53.50870513916016 4.176162719726562 59.33615112304688 6.495811462402344 64.82039642333984 C 8.736968994140625 70.11905670166016 11.94598388671875 74.87837982177734 16.03376770019531 78.96613311767578 C 20.12153625488281 83.05390167236328 24.880859375 86.26293182373047 30.17951965332031 88.50407409667969 C 35.66378021240234 90.82372283935547 41.49122619628906 91.99987030029297 47.5000114440918 91.99987030029297 C 53.50879669189453 91.99987030029297 59.33624267578125 90.82372283935547 64.82050323486328 88.50407409667969 C 70.11916351318359 86.26293182373047 74.87848663330078 83.05390167236328 78.96625518798828 78.96613311767578 C 83.05403900146484 74.87837982177734 86.2630615234375 70.11905670166016 88.50421142578125 64.82039642333984 C 90.82386016845703 59.33615112304688 92.00001525878906 53.50870513916016 92.00001525878906 47.49993515014648 C 92.00001525878906 41.49116516113281 90.82386016845703 35.66371917724609 88.50421142578125 30.17947387695312 C 86.2630615234375 24.88081359863281 83.05403900146484 20.12149047851562 78.96625518798828 16.03373718261719 C 74.87848663330078 11.94596862792969 70.11916351318359 8.7369384765625 64.82050323486328 6.495796203613281 C 59.33624267578125 4.1761474609375 53.50879669189453 3 47.5000114440918 3 M 47.5000114440918 0 C 73.73353576660156 0 95.00001525878906 21.26644134521484 95.00001525878906 47.49993515014648 C 95.00001525878906 73.73342895507812 73.73353576660156 94.99987030029297 47.5000114440918 94.99987030029297 C 21.26648712158203 94.99987030029297 7.62939453125e-06 73.73342895507812 7.62939453125e-06 47.49993515014648 C 7.62939453125e-06 21.26644134521484 21.26648712158203 0 47.5000114440918 0 Z" stroke="none" fill="#aa52f9"/>
                                        </g>
                                      </g>
                                    </g>
                                  </g>
                                </g>
                              </g>
                            </g>
                          </g>
                        </g>
                      </g>
                    </g>
                  </g>
                </g>
              </g>
            </g>
          </g>
        </g>
      </g>
    </g>
    <g id="work_time" data-name="work time" transform="translate(4128 820)">
      <circle id="Elipse_13252" data-name="Elipse 13252" cx="18" cy="18" r="18" transform="translate(25 25)" fill="#ffdaaa"/>
      <path id="Trazado_1216416" data-name="Trazado 1216416" d="M61,43A18,18,0,0,1,43,61c-.33,0-.67-.01-1-.03a18,18,0,0,0,0-35.94c.33-.02.67-.03,1-.03A18,18,0,0,1,61,43Z" fill="#ffc477"/>
      <path id="Trazado_1216417" data-name="Trazado 1216417" d="M61,13l-1.98.49,1.05,1.75-2.83,2.83-1.75-1.05L55,19H51l-.49-1.98-1.75,1.05-2.83-2.83,1.05-1.75L45,13V9l1.98-.49L45.93,6.76l2.83-2.83,1.75,1.05L51,3h4l.49,1.98,1.75-1.05,2.83,2.83L59.02,8.51,61,9Z" fill="#c0ab91"/>
      <circle id="Elipse_13253" data-name="Elipse 13253" cx="3" cy="3" r="3" transform="translate(50 8)" fill="#ffde55"/>
      <path id="Trazado_1216418" data-name="Trazado 1216418" d="M32.44,23.76a13.086,13.086,0,0,1-.98,2.38l1.42,1.99,1.26,1.77L29.9,34.14l-1.77-1.26-1.99-1.42a13.086,13.086,0,0,1-2.38.98L23,37H17l-.76-4.56a13.086,13.086,0,0,1-2.38-.98L10.1,34.14,5.86,29.9l2.68-3.76a14.517,14.517,0,0,1-.98-2.38L3,23V17l4.56-.76a16.936,16.936,0,0,1,.98-2.38L5.86,10.1,10.1,5.86l3.76,2.68a13.086,13.086,0,0,1,2.38-.98L17,3h6l.76,4.56a13.086,13.086,0,0,1,2.38.98L29.9,5.86l4.24,4.24-2.68,3.76a13.086,13.086,0,0,1,.98,2.38L37,17v6Z" fill="#57a4ff"/>
      <path id="Trazado_1216419" data-name="Trazado 1216419" d="M25,18,20,29V22H15l5-11v7Z" fill="#ffde55"/>
      <path id="Trazado_1216420" data-name="Trazado 1216420" d="M19,55l-1.98.49,1.05,1.75-2.83,2.83-1.75-1.05L13,61H9l-.49-1.98L6.76,60.07,3.93,57.24l1.05-1.75L3,55V51l1.98-.49L3.93,48.76l2.83-2.83,1.75,1.05L9,45h4l.49,1.98,1.75-1.05,2.83,2.83-1.05,1.75L19,51Z" fill="#c0ab91"/>
      <circle id="Elipse_13254" data-name="Elipse 13254" cx="3" cy="3" r="3" transform="translate(8 50)" fill="#ffde55"/>
      <path id="Trazado_1216421" data-name="Trazado 1216421" d="M36.535,4H45V2H36a1,1,0,0,0-.832.445l-2,3,1.664,1.11Z"/>
      <path id="Trazado_1216422" data-name="Trazado 1216422" d="M27.465,60H19v2h9a1,1,0,0,0,.832-.445l2-3-1.664-1.11Z"/>
      <path id="Trazado_1216423" data-name="Trazado 1216423" d="M43,24a18.779,18.779,0,0,0-9.857,2.78l-.519-.727a14.1,14.1,0,0,0,.581-1.407l3.96-.66A1,1,0,0,0,38,23V17a1,1,0,0,0-.835-.986l-3.96-.66a14.1,14.1,0,0,0-.581-1.407l2.332-3.265a1,1,0,0,0-.107-1.288L30.606,5.151a1,1,0,0,0-1.288-.107L26.053,7.376A14.1,14.1,0,0,0,24.646,6.8l-.66-3.96A1,1,0,0,0,23,2H17a1,1,0,0,0-.986.835l-.66,3.96a14.1,14.1,0,0,0-1.407.581L10.682,5.044a1,1,0,0,0-1.288.107L5.151,9.394a1,1,0,0,0-.107,1.288l2.343,3.28a13.254,13.254,0,0,0-.573,1.389l-3.979.663A1,1,0,0,0,2,17v6a1,1,0,0,0,.835.986l3.978.663a14.849,14.849,0,0,0,.563,1.4L5.044,29.318a1,1,0,0,0,.107,1.288l4.243,4.243a1,1,0,0,0,1.288.107l3.265-2.332a14.1,14.1,0,0,0,1.407.581l.66,3.96A1,1,0,0,0,17,38h6a1,1,0,0,0,.986-.835l.66-3.96a14.1,14.1,0,0,0,1.407-.581l.727.519A18.779,18.779,0,0,0,24,43,19,19,0,1,0,43,24ZM25.668,30.577a11.966,11.966,0,0,1-2.2.908,1,1,0,0,0-.7.793L22.153,36H17.847l-.62-3.722a1,1,0,0,0-.7-.793,11.966,11.966,0,0,1-2.2-.908,1,1,0,0,0-1.054.067L10.2,32.836,7.164,29.792l2.192-3.07a1,1,0,0,0,.067-1.054A13.512,13.512,0,0,1,8.5,23.423a1,1,0,0,0-.777-.65L4,22.153V17.847l3.722-.62a1,1,0,0,0,.777-.65,16.4,16.4,0,0,1,.947-2.289,1,1,0,0,0-.09-1.01l-2.192-3.07,3.044-3.044,3.07,2.192a1,1,0,0,0,1.054.067,11.966,11.966,0,0,1,2.2-.908,1,1,0,0,0,.7-.793L17.847,4h4.306l.62,3.722a1,1,0,0,0,.7.793,11.966,11.966,0,0,1,2.2.908,1,1,0,0,0,1.054-.067L29.8,7.164l3.044,3.044-2.192,3.07a1,1,0,0,0-.067,1.054,11.966,11.966,0,0,1,.908,2.2,1,1,0,0,0,.793.7l3.722.62v4.306l-3.722.62a1,1,0,0,0-.793.7,11.966,11.966,0,0,1-.908,2.2,1,1,0,0,0,.067,1.054l2.192,3.07L29.8,32.846l-3.07-2.192a1,1,0,0,0-1.059-.077ZM44,59.949V57H42v2.949A16.994,16.994,0,0,1,26.051,44H29V42H26.037a16.748,16.748,0,0,1,2.372-7.693l.909.649a1,1,0,0,0,1.288-.107l4.243-4.243a1,1,0,0,0,.107-1.288l-.649-.909A16.748,16.748,0,0,1,42,26.037V29h2V26.051A16.994,16.994,0,0,1,59.949,42H57v2h2.949A16.994,16.994,0,0,1,44,59.949Z"/>
      <path id="Trazado_1216424" data-name="Trazado 1216424" d="M44,31H42V43a1,1,0,0,0,1,1h8V42H44Z"/>
      <path id="Trazado_1216425" data-name="Trazado 1216425" d="M25,17H21V11a1,1,0,0,0-1.91-.414l-5,11A1,1,0,0,0,15,23h4v6a1,1,0,0,0,.788.978A1.025,1.025,0,0,0,20,30a1,1,0,0,0,.91-.586l5-11A1,1,0,0,0,25,17Zm-4,7.383V22a1,1,0,0,0-1-1H16.553L19,15.617V18a1,1,0,0,0,1,1h3.447Z"/>
      <path id="Trazado_1216426" data-name="Trazado 1216426" d="M19,6h2V8H19Z"/>
      <path id="Trazado_1216427" data-name="Trazado 1216427" d="M9.808,9.808h2v2h-2Z" transform="translate(-4.477 10.808) rotate(-45)"/>
      <path id="Trazado_1216428" data-name="Trazado 1216428" d="M6,19H8v2H6Z"/>
      <path id="Trazado_1216429" data-name="Trazado 1216429" d="M9.808,28.192h2v2h-2Z" transform="translate(-17.477 16.192) rotate(-45)"/>
      <path id="Trazado_1216430" data-name="Trazado 1216430" d="M19,32h2v2H19Z"/>
      <path id="Trazado_1216431" data-name="Trazado 1216431" d="M28.192,28.192h2v2h-2Z" transform="translate(-12.092 29.192) rotate(-45)"/>
      <path id="Trazado_1216432" data-name="Trazado 1216432" d="M32,19h2v2H32Z"/>
      <path id="Trazado_1216433" data-name="Trazado 1216433" d="M28.192,9.808h2v2h-2Z" transform="translate(0.908 23.808) rotate(-45)"/>
      <path id="Trazado_1216434" data-name="Trazado 1216434" d="M53,7a4,4,0,1,0,4,4A4,4,0,0,0,53,7Zm0,6a2,2,0,1,1,2-2A2,2,0,0,1,53,13Z"/>
      <path id="Trazado_1216435" data-name="Trazado 1216435" d="M61.243,8.03l-.669-.167.355-.591a1,1,0,0,0-.151-1.222L57.95,3.222a1,1,0,0,0-1.222-.151l-.591.355-.167-.669A1,1,0,0,0,55,2H51a1,1,0,0,0-.97.757l-.167.669-.591-.355a1,1,0,0,0-1.222.151L45.222,6.05a1,1,0,0,0-.151,1.222l.355.591-.669.167A1,1,0,0,0,44,9v4a1,1,0,0,0,.757.97l.669.167-.355.591a1,1,0,0,0,.151,1.222l2.828,2.828a1,1,0,0,0,1.222.151l.591-.355.167.669A1,1,0,0,0,51,20h4a1,1,0,0,0,.97-.757l.167-.669.591.355a1,1,0,0,0,1.222-.151l2.828-2.828a1,1,0,0,0,.151-1.222l-.355-.591.669-.167A1,1,0,0,0,62,13V9a1,1,0,0,0-.757-.97ZM60,12.219l-1.221.3A1,1,0,0,0,58.165,14l.647,1.079-1.724,1.724-1.079-.647a1,1,0,0,0-1.485.614L54.219,18H51.781l-.3-1.221A1,1,0,0,0,50,16.165l-1.079.647-1.724-1.724.647-1.079a1,1,0,0,0-.614-1.485L46,12.219V9.781l1.221-.3A1,1,0,0,0,47.835,8l-.647-1.079,1.724-1.724,1.079.647a1,1,0,0,0,1.485-.615l.3-1.22h2.438l.3,1.22A1,1,0,0,0,56,5.84l1.079-.647L58.8,6.917,58.155,8a1,1,0,0,0,.614,1.485l1.221.3Z"/>
      <path id="Trazado_1216436" data-name="Trazado 1216436" d="M11,49a4,4,0,1,0,4,4A4,4,0,0,0,11,49Zm0,6a2,2,0,1,1,2-2A2,2,0,0,1,11,55Z"/>
      <path id="Trazado_1216437" data-name="Trazado 1216437" d="M18.929,56.728l-.355-.591.669-.167A1,1,0,0,0,20,55V51a1,1,0,0,0-.757-.97l-.669-.167.355-.591a1,1,0,0,0-.151-1.222L15.95,45.222a1,1,0,0,0-1.222-.151l-.591.355-.167-.669A1,1,0,0,0,13,44H9a1,1,0,0,0-.97.757l-.167.669-.591-.355a1,1,0,0,0-1.222.151L3.222,48.05a1,1,0,0,0-.151,1.222l.355.591-.669.167A1,1,0,0,0,2,51v4a1,1,0,0,0,.757.97l.669.167-.355.591a1,1,0,0,0,.151,1.222L6.05,60.778a1,1,0,0,0,1.222.151l.591-.355.167.669A1,1,0,0,0,9,62h4a1,1,0,0,0,.97-.757l.167-.669.591.355a1,1,0,0,0,1.222-.151l2.828-2.828a1,1,0,0,0,.151-1.222ZM18,54.219l-1.221.3A1,1,0,0,0,16.165,56l.647,1.079-1.724,1.724-1.079-.647a1,1,0,0,0-1.485.614L12.219,60H9.781l-.3-1.221A1,1,0,0,0,8,58.165l-1.079.647L5.188,57.088l.647-1.079a1,1,0,0,0-.614-1.485L4,54.219V51.781l1.221-.3A1,1,0,0,0,5.835,50l-.647-1.079,1.724-1.724,1.079.647a1,1,0,0,0,1.485-.615l.3-1.22h2.438l.3,1.22A1,1,0,0,0,14,47.84l1.079-.647L16.8,48.917,16.155,50a1,1,0,0,0,.614,1.485l1.221.3Z"/>
    </g>
  </g>
</svg>
