<svg xmlns="http://www.w3.org/2000/svg" xmlns:xlink="http://www.w3.org/1999/xlink" width="113" height="113" viewBox="0 0 113 113">
  <defs>
    <filter id="Trazado_982547" x="0" y="0" width="113" height="113" filterUnits="userSpaceOnUse">
      <feOffset dy="3" input="SourceAlpha"/>
      <feGaussianBlur stdDeviation="3" result="blur"/>
      <feFlood flood-opacity="0.161"/>
      <feComposite operator="in" in2="blur"/>
      <feComposite in="SourceGraphic"/>
    </filter>
  </defs>
  <g id="Grupo_1227967" data-name="Grupo 1227967" transform="translate(-4421 -799)">
    <g id="Grupo_1227498" data-name="Grupo 1227498" transform="translate(3309 -690)">
      <g id="Grupo_1208038" data-name="Grupo 1208038" transform="translate(0 -4138.425)">
        <g id="Grupo_1202104" data-name="Grupo 1202104" transform="translate(0 -1149.226)">
          <g id="Grupo_1201923" data-name="Grupo 1201923" transform="translate(-4174.49 4856.378)">
            <g id="Grupo_1176928" data-name="Grupo 1176928" transform="translate(5295.49 1926.273)">
              <g id="Grupo_1172322" data-name="Grupo 1172322" transform="translate(0 0)">
                <g id="Grupo_1164700" data-name="Grupo 1164700">
                  <g id="Grupo_1160931" data-name="Grupo 1160931">
                    <g id="Grupo_1160749" data-name="Grupo 1160749">
                      <g id="Grupo_1158891" data-name="Grupo 1158891">
                        <g id="Grupo_1157406" data-name="Grupo 1157406">
                          <g id="Grupo_1155793" data-name="Grupo 1155793">
                            <g id="Grupo_1154704" data-name="Grupo 1154704">
                              <g id="Grupo_1150790" data-name="Grupo 1150790">
                                <g id="Grupo_1154214" data-name="Grupo 1154214">
                                  <g id="Grupo_1152583" data-name="Grupo 1152583">
                                    <g id="Grupo_1146973" data-name="Grupo 1146973">
                                      <g id="Grupo_1146954" data-name="Grupo 1146954">
                                        <g transform="matrix(1, 0, 0, 1, -9, -6)" filter="url(#Trazado_982547)">
                                          <g id="Trazado_982547-2" data-name="Trazado 982547" transform="translate(9 6)" fill="#eddbfd">
                                            <path d="M 47.5000114440918 93.49987030029297 C 41.28938293457031 93.49987030029297 35.26534652709961 92.28384399414062 29.5951976776123 89.88558959960938 C 24.11773109436035 87.56881713867188 19.19814491271973 84.25183868408203 14.97310447692871 80.02680206298828 C 10.74805164337158 75.80176544189453 7.43107795715332 70.88218688964844 5.114304542541504 65.40472412109375 C 2.716038227081299 59.73458862304688 1.500011444091797 53.71054840087891 1.500011444091797 47.49993515014648 C 1.500011444091797 41.28932189941406 2.716038227081299 35.26528167724609 5.114304542541504 29.59514808654785 C 7.43107795715332 24.1176815032959 10.74805164337158 19.1981086730957 14.97310447692871 14.97306823730469 C 19.19814491271973 10.74802875518799 24.11773109436035 7.431055068969727 29.5951976776123 5.11428165435791 C 35.26534652709961 2.716028451919556 41.28938293457031 1.500001788139343 47.5000114440918 1.500001788139343 C 53.71063995361328 1.500001788139343 59.73467636108398 2.716028451919556 65.40482330322266 5.11428165435791 C 70.88229370117188 7.431055068969727 75.8018798828125 10.74802875518799 80.02691650390625 14.97306823730469 C 84.25196838378906 19.1981086730957 87.56894683837891 24.1176815032959 89.88571929931641 29.59514808654785 C 92.28398132324219 35.26528167724609 93.50001525878906 41.28932189941406 93.50001525878906 47.49993515014648 C 93.50001525878906 53.71054840087891 92.28398132324219 59.73458862304688 89.88571929931641 65.40472412109375 C 87.56894683837891 70.88218688964844 84.25196838378906 75.80176544189453 80.02691650390625 80.02680206298828 C 75.8018798828125 84.25183868408203 70.88229370117188 87.56881713867188 65.40482330322266 89.88558959960938 C 59.73467636108398 92.28384399414062 53.71063995361328 93.49987030029297 47.5000114440918 93.49987030029297 Z" stroke="none"/>
                                            <path d="M 47.5000114440918 3 C 41.49122619628906 3 35.66378021240234 4.1761474609375 30.17951965332031 6.495796203613281 C 24.880859375 8.7369384765625 20.12153625488281 11.94596862792969 16.03376770019531 16.03373718261719 C 11.94598388671875 20.12149047851562 8.736968994140625 24.88081359863281 6.495811462402344 30.17947387695312 C 4.176162719726562 35.66371917724609 3.000007629394531 41.49116516113281 3.000007629394531 47.49993515014648 C 3.000007629394531 53.50870513916016 4.176162719726562 59.33615112304688 6.495811462402344 64.82039642333984 C 8.736968994140625 70.11905670166016 11.94598388671875 74.87837982177734 16.03376770019531 78.96613311767578 C 20.12153625488281 83.05390167236328 24.880859375 86.26293182373047 30.17951965332031 88.50407409667969 C 35.66378021240234 90.82372283935547 41.49122619628906 91.99987030029297 47.5000114440918 91.99987030029297 C 53.50879669189453 91.99987030029297 59.33624267578125 90.82372283935547 64.82050323486328 88.50407409667969 C 70.11916351318359 86.26293182373047 74.87848663330078 83.05390167236328 78.96625518798828 78.96613311767578 C 83.05403900146484 74.87837982177734 86.2630615234375 70.11905670166016 88.50421142578125 64.82039642333984 C 90.82386016845703 59.33615112304688 92.00001525878906 53.50870513916016 92.00001525878906 47.49993515014648 C 92.00001525878906 41.49116516113281 90.82386016845703 35.66371917724609 88.50421142578125 30.17947387695312 C 86.2630615234375 24.88081359863281 83.05403900146484 20.12149047851562 78.96625518798828 16.03373718261719 C 74.87848663330078 11.94596862792969 70.11916351318359 8.7369384765625 64.82050323486328 6.495796203613281 C 59.33624267578125 4.1761474609375 53.50879669189453 3 47.5000114440918 3 M 47.5000114440918 0 C 73.73353576660156 0 95.00001525878906 21.26644134521484 95.00001525878906 47.49993515014648 C 95.00001525878906 73.73342895507812 73.73353576660156 94.99987030029297 47.5000114440918 94.99987030029297 C 21.26648712158203 94.99987030029297 7.62939453125e-06 73.73342895507812 7.62939453125e-06 47.49993515014648 C 7.62939453125e-06 21.26644134521484 21.26648712158203 0 47.5000114440918 0 Z" stroke="none" fill="#aa52f9"/>
                                          </g>
                                        </g>
                                      </g>
                                    </g>
                                  </g>
                                </g>
                              </g>
                            </g>
                          </g>
                        </g>
                      </g>
                    </g>
                  </g>
                </g>
              </g>
            </g>
          </g>
        </g>
      </g>
    </g>
    <g id="requisito" transform="translate(4408.269 803.634)">
      <path id="Trazado_1216438" data-name="Trazado 1216438" d="M108.991,140.745a12.884,12.884,0,0,1,8.54-17.6v-9.788l-4.6,1.091a.874.874,0,0,1-1.027-1.14l.7-2.342a.847.847,0,0,1,.036-.1l.755-2.178a.867.867,0,0,1,.243-.4l3.89-3.672V93.956a.6.6,0,0,0-.592-.592h-8.23v.886a.874.874,0,0,1-.874.874H90.141a.874.874,0,0,1-.874-.874v-.886H81.036a.6.6,0,0,0-.592.592v46.2a.6.6,0,0,0,.592.593Z" transform="translate(-32.597 -66.759)" fill="#f7f7f8" fill-rule="evenodd"/>
      <g id="Grupo_1227966" data-name="Grupo 1227966" transform="translate(52.084 33.74)">
        <path id="Trazado_1216439" data-name="Trazado 1216439" d="M112.446,342.1a.872.872,0,0,1,.929-1.475l1.21.764,1.93-2.106a3.15,3.15,0,1,0,1.021,1.462l-2.126,2.319a.872.872,0,0,1-1.141.188Z" transform="translate(-111.399 -312.163)" fill="#41ba7d" fill-rule="evenodd"/>
        <path id="Trazado_1216440" data-name="Trazado 1216440" d="M112.452,245.551a.872.872,0,1,1,.929-1.475l1.21.764,1.93-2.106a3.149,3.149,0,1,0,1.021,1.462l-2.126,2.319a.872.872,0,0,1-1.141.188Z" transform="translate(-111.404 -228.83)" fill="#41ba7d" fill-rule="evenodd"/>
        <path id="Trazado_1216441" data-name="Trazado 1216441" d="M112.452,149a.872.872,0,1,1,.929-1.475l1.21.764,1.93-2.106a3.149,3.149,0,1,0,1.021,1.462l-2.126,2.319a.872.872,0,0,1-1.141.188Z" transform="translate(-111.404 -145.496)" fill="#41ba7d" fill-rule="evenodd"/>
      </g>
      <path id="Trazado_1216442" data-name="Trazado 1216442" d="M161.95,32.393h-4.268v5.2h15.944v-5.2h-4.268v0a.871.871,0,0,1-.871-.861,2.833,2.833,0,0,0-5.664-.065c0,.018,0,.036,0,.055a.874.874,0,0,1-.874.874Z" transform="translate(-99.263 -10.976)" fill="#6298c6" fill-rule="evenodd"/>
      <path id="Trazado_1216443" data-name="Trazado 1216443" d="M350.578,125.482l-1.782-1.888a.252.252,0,0,0-.176-.079.258.258,0,0,0-.185.07l-8.495,8.018a.872.872,0,0,1-.087.082l-3.488,3.293,2.133,2.26.158-.149a.873.873,0,0,1,.088-.082l11.826-11.163a.252.252,0,0,0,.079-.177A.259.259,0,0,0,350.578,125.482Z" transform="translate(-253.489 -92.784)" fill="#f5ca81" fill-rule="evenodd"/>
      <path id="Trazado_1216444" data-name="Trazado 1216444" d="M326.563,220.624l.948-.225-1.306-1.384-.3.874-.007.027-.279.933Z" transform="translate(-244.211 -175.212)" fill="#9c9c9c" fill-rule="evenodd"/>
      <path id="Trazado_1216445" data-name="Trazado 1216445" d="M297.517,81.393l1.672-1.578V72.388a4.027,4.027,0,0,0-4.013-4.013h-8.231v1.672h8.231a2.345,2.345,0,0,1,2.34,2.34Z" transform="translate(-210.834 -45.191)" fill="#85beed" fill-rule="evenodd"/>
      <path id="Trazado_1216446" data-name="Trazado 1216446" d="M312.958,323.909a11.126,11.126,0,1,0,3.259,7.867A11.126,11.126,0,0,0,312.958,323.909Z" transform="translate(-216.892 -262.936)" fill="#2fa369" fill-rule="evenodd"/>
      <path id="Trazado_1216447" data-name="Trazado 1216447" d="M89.616,122.6a12.935,12.935,0,0,1-1.263-1.671H59.468a2.346,2.346,0,0,1-2.34-2.34v-46.2a2.345,2.345,0,0,1,2.34-2.34H67.7V68.375H59.468a4.026,4.026,0,0,0-4.012,4.013v46.2a4.027,4.027,0,0,0,4.012,4.013Z" transform="translate(-11.028 -45.191)" fill="#85beed" fill-rule="evenodd"/>
      <path id="Trazado_1216448" data-name="Trazado 1216448" d="M365.7,230.5h.156V218.231l-1.672,1.578v10.781A13.006,13.006,0,0,1,365.7,230.5Z" transform="translate(-277.501 -174.536)" fill="#85beed" fill-rule="evenodd"/>
      <path id="Trazado_1216449" data-name="Trazado 1216449" d="M63.192,61.7a.874.874,0,1,1,0-1.749H74.68a.874.874,0,1,1,0,1.749Zm0,4.222a.874.874,0,1,1,0-1.749h9.65a.874.874,0,0,1,0,1.749Zm-4.808-6.356L59,58.9a.87.87,0,1,1,1.284,1.175l-.779.85a4.909,4.909,0,1,1-1.121-1.353Zm-5.252,4.108A.872.872,0,1,1,54.06,62.2l1.21.764,1.93-2.106a3.15,3.15,0,1,0,1.021,1.462L56.1,64.64a.872.872,0,0,1-1.141.188l-1.823-1.152Zm10.06-15.189a.874.874,0,1,1,0-1.749H76.468a.874.874,0,1,1,0,1.749Zm0,4.222a.874.874,0,1,1,0-1.749H80.945a.874.874,0,1,1,0,1.749Zm-4.808-6.356L59,45.682a.87.87,0,0,1,1.284,1.175l-.779.85a4.909,4.909,0,1,1-1.121-1.353Zm-5.252,4.108a.872.872,0,0,1,.929-1.475l1.21.764,1.93-2.106a3.149,3.149,0,1,0,1.021,1.462l-2.126,2.319a.872.872,0,0,1-1.141.188L53.13,50.461Zm10.06-15.189a.874.874,0,0,1,0-1.749H80.945a.874.874,0,0,1,0,1.749Zm0,4.222a.874.874,0,0,1,0-1.749H80.945a.874.874,0,0,1,0,1.749Zm-4.807-6.356L59,32.467a.87.87,0,0,1,1.284,1.175l-.779.85a4.909,4.909,0,1,1-1.121-1.353Zm-5.252,4.108a.872.872,0,1,1,.929-1.475l1.21.764,1.93-2.106a3.149,3.149,0,1,0,1.021,1.462L56.1,38.21a.872.872,0,0,1-1.141.188l-1.823-1.151Zm9.555-15.829H58.419v5.2H74.362v-5.2H70.094v0a.871.871,0,0,1-.871-.861,2.833,2.833,0,0,0-5.664-.065c0,.018,0,.036,0,.055a.874.874,0,0,1-.874.874ZM97.088,32.7,95.306,30.81a.252.252,0,0,0-.176-.079.258.258,0,0,0-.185.07L86.45,38.82a.877.877,0,0,1-.087.082L82.875,42.2l2.133,2.26.158-.149a.882.882,0,0,1,.088-.082L97.079,33.061a.253.253,0,0,0,.079-.177.259.259,0,0,0-.07-.185ZM82.352,45.412l-.948.225.279-.933.007-.027.3-.874L83.3,45.187Zm4.331-9.21,1.672-1.578V27.2a4.027,4.027,0,0,0-4.013-4.013H76.111v1.672h8.231a2.345,2.345,0,0,1,2.34,2.34v9Zm9.383,24.77a11.126,11.126,0,1,0,3.259,7.867A11.126,11.126,0,0,0,96.066,60.972ZM76.394,73.985a12.884,12.884,0,0,1,8.54-17.6V46.6l-4.6,1.091a.874.874,0,0,1-1.027-1.14l.7-2.342a.85.85,0,0,1,.036-.1l.755-2.178a.867.867,0,0,1,.243-.4l3.89-3.672V27.2a.6.6,0,0,0-.592-.592h-8.23v.886a.874.874,0,0,1-.874.874H57.544a.874.874,0,0,1-.874-.874V26.6H48.439a.6.6,0,0,0-.592.592v46.2a.6.6,0,0,0,.592.593Zm2.194,3.42a12.936,12.936,0,0,1-1.263-1.671H48.439a2.346,2.346,0,0,1-2.34-2.34V27.2a2.345,2.345,0,0,1,2.34-2.34H56.67V23.184H48.439A4.026,4.026,0,0,0,44.427,27.2v46.2a4.027,4.027,0,0,0,4.012,4.013ZM90.1,56.105V42.045l8.173-7.714a2.006,2.006,0,0,0,.084-2.827l-1.782-1.888a2.006,2.006,0,0,0-2.827-.084L90.1,32.974V27.2a5.776,5.776,0,0,0-5.761-5.762H76.111v-.893a.874.874,0,0,0-.874-.874H70.872a4.576,4.576,0,0,0-8.962,0H57.544a.874.874,0,0,0-.874.874v.893H48.439A5.776,5.776,0,0,0,42.678,27.2v46.2a5.776,5.776,0,0,0,5.761,5.761H80.494A12.875,12.875,0,1,0,90.1,56.105Zm-1.9-.14a13.019,13.019,0,0,0-1.518.089l0-10.781L88.355,43.7V55.966H88.2ZM82.353,70.651a.872.872,0,0,1,.929-1.475l3.461,2.186,6.2-6.758a.87.87,0,1,1,1.284,1.175l-6.654,7.259a.872.872,0,0,1-1.141.188Z" transform="translate(0)" fill-rule="evenodd"/>
    </g>
  </g>
</svg>
