<svg xmlns="http://www.w3.org/2000/svg" xmlns:xlink="http://www.w3.org/1999/xlink" width="118" height="118" viewBox="0 0 118 118">
  <defs>
    <filter id="Trazado_982547" x="0" y="0" width="118" height="118" filterUnits="userSpaceOnUse">
      <feOffset dy="3" input="SourceAlpha"/>
      <feGaussianBlur stdDeviation="3" result="blur"/>
      <feFlood flood-opacity="0.161"/>
      <feComposite operator="in" in2="blur"/>
      <feComposite in="SourceGraphic"/>
    </filter>
  </defs>
  <g id="Grupo_1227814" data-name="Grupo 1227814" transform="translate(-320.888 -1179.669)">
    <g id="Grupo_1227362" data-name="Grupo 1227362" transform="translate(0 237.622)">
      <g id="Grupo_1208610" data-name="Grupo 1208610" transform="translate(329.888 948.048)">
        <g id="Grupo_1174813" data-name="Grupo 1174813">
          <g id="Grupo_1201680" data-name="Grupo 1201680">
            <g id="Grupo_1201330" data-name="Grupo 1201330">
              <g id="Grupo_1172010" data-name="Grupo 1172010">
                <g id="Grupo_1171046" data-name="Grupo 1171046">
                  <g id="Grupo_1148525" data-name="Grupo 1148525">
                    <g transform="matrix(1, 0, 0, 1, -9, -6)" filter="url(#Trazado_982547)">
                      <g id="Trazado_982547-2" data-name="Trazado 982547" transform="translate(9 6)" fill="#fdf4ce">
                        <path d="M 50 98.5 C 43.45188522338867 98.5 37.10042953491211 97.21787261962891 31.12207221984863 94.68923950195312 C 25.34691429138184 92.24655914306641 20.15997123718262 88.74931335449219 15.70532894134521 84.29468536376953 C 11.2506856918335 79.84004211425781 7.753442764282227 74.65309906005859 5.310757160186768 68.8779296875 C 2.782128572463989 62.89957046508789 1.5 56.54811477661133 1.5 50 C 1.5 43.45188522338867 2.782128572463989 37.10042953491211 5.310757160186768 31.12207221984863 C 7.753442764282227 25.34691429138184 11.2506856918335 20.15997123718262 15.70532894134521 15.70532894134521 C 20.15997123718262 11.2506856918335 25.34691429138184 7.753442764282227 31.12207221984863 5.310757160186768 C 37.10042953491211 2.782128572463989 43.45188522338867 1.5 50 1.5 C 56.54811477661133 1.5 62.89957046508789 2.782128572463989 68.8779296875 5.310757160186768 C 74.65309906005859 7.753442764282227 79.84004211425781 11.2506856918335 84.29468536376953 15.70532894134521 C 88.74931335449219 20.15997123718262 92.24655914306641 25.34691429138184 94.68923950195312 31.12207221984863 C 97.21787261962891 37.10042953491211 98.5 43.45188522338867 98.5 50 C 98.5 56.54811477661133 97.21787261962891 62.89957046508789 94.68923950195312 68.8779296875 C 92.24655914306641 74.65309906005859 88.74931335449219 79.84004211425781 84.29468536376953 84.29468536376953 C 79.84004211425781 88.74931335449219 74.65309906005859 92.24655914306641 68.8779296875 94.68923950195312 C 62.89957046508789 97.21787261962891 56.54811477661133 98.5 50 98.5 Z" stroke="none"/>
                        <path d="M 50 3 C 43.65372467041016 3 37.49886322021484 4.242263793945312 31.70639801025391 6.6922607421875 C 26.11003112792969 9.059326171875 21.08335113525391 12.44861602783203 16.76598358154297 16.76598358154297 C 12.44861602783203 21.08335113525391 9.059326171875 26.11003112792969 6.6922607421875 31.70639801025391 C 4.242263793945312 37.49886322021484 3 43.65372467041016 3 50 C 3 56.34627532958984 4.242263793945312 62.50113677978516 6.6922607421875 68.29360198974609 C 9.059326171875 73.88996887207031 12.44861602783203 78.91666412353516 16.76598358154297 83.23401641845703 C 21.08335113525391 87.55138397216797 26.11003112792969 90.940673828125 31.70639801025391 93.3077392578125 C 37.49886322021484 95.75773620605469 43.65372467041016 97 50 97 C 56.34627532958984 97 62.50113677978516 95.75773620605469 68.29360198974609 93.3077392578125 C 73.88996887207031 90.940673828125 78.91666412353516 87.55138397216797 83.23401641845703 83.23401641845703 C 87.55138397216797 78.91666412353516 90.940673828125 73.88996887207031 93.3077392578125 68.29360198974609 C 95.75773620605469 62.50113677978516 97 56.34627532958984 97 50 C 97 43.65372467041016 95.75773620605469 37.49886322021484 93.3077392578125 31.70639801025391 C 90.940673828125 26.11003112792969 87.55138397216797 21.08335113525391 83.23401641845703 16.76598358154297 C 78.91666412353516 12.44861602783203 73.88996887207031 9.059326171875 68.29360198974609 6.6922607421875 C 62.50113677978516 4.242263793945312 56.34627532958984 3 50 3 M 50 0 C 77.61424255371094 0 100 22.38577270507812 100 50 C 100 77.61424255371094 77.61424255371094 100 50 100 C 22.38577270507812 100 0 77.61424255371094 0 50 C 0 22.38577270507812 22.38577270507812 0 50 0 Z" stroke="none" fill="#866d08"/>
                      </g>
                    </g>
                  </g>
                </g>
              </g>
            </g>
          </g>
        </g>
      </g>
    </g>
    <g id="desarrollo-de-aplicaciones" transform="translate(348 1204)">
      <rect id="Rectángulo_422189" data-name="Rectángulo 422189" width="60" height="48" rx="2" transform="translate(2 2)" fill="#e2e7f6"/>
      <path id="Trazado_1215993" data-name="Trazado 1215993" d="M4,2A2,2,0,0,0,2,4V47H56a2,2,0,0,0,2-2V2Z" fill="#f7fafd"/>
      <path id="Trazado_1215994" data-name="Trazado 1215994" d="M60,2H4A2,2,0,0,0,2,4v6H62V4A2,2,0,0,0,60,2Z" fill="#5e87ca"/>
      <path id="Trazado_1215995" data-name="Trazado 1215995" d="M58,2H4A2,2,0,0,0,2,4v6H58Z" fill="#78a0d4"/>
      <path id="Trazado_1215996" data-name="Trazado 1215996" d="M60,50H4a2,2,0,0,1-2-2V42H62v6A2,2,0,0,1,60,50Z" fill="#5e87ca"/>
      <path id="Trazado_1215997" data-name="Trazado 1215997" d="M2,42v5H56a2,2,0,0,0,2-2V42Z" fill="#78a0d4"/>
      <path id="Trazado_1215998" data-name="Trazado 1215998" d="M5,45h8v2H5Z" fill="#f7fafd"/>
      <path id="Trazado_1215999" data-name="Trazado 1215999" d="M15,45h2v2H15Z" fill="#f7fafd"/>
      <path id="Trazado_1216000" data-name="Trazado 1216000" d="M45.764,58H18.236a2,2,0,0,0-1.789,1.106L15,62H49l-1.447-2.894A2,2,0,0,0,45.764,58Z" fill="#3b5892"/>
      <path id="Trazado_1216001" data-name="Trazado 1216001" d="M40,58l-2-8H26l-2,8Z" fill="#c8cded"/>
      <path id="Trazado_1216002" data-name="Trazado 1216002" d="M45,59V58H18.236a2,2,0,0,0-1.789,1.106L16,60H44A1,1,0,0,0,45,59Z" fill="#4c6cb5"/>
      <g id="Grupo_1227813" data-name="Grupo 1227813">
        <path id="Trazado_1216003" data-name="Trazado 1216003" d="M30,5h4V7H30Z" fill="#f7fafd"/>
        <path id="Trazado_1216004" data-name="Trazado 1216004" d="M36,5h2V7H36Z" fill="#f7fafd"/>
        <path id="Trazado_1216005" data-name="Trazado 1216005" d="M26,5h2V7H26Z" fill="#f7fafd"/>
      </g>
      <path id="Trazado_1216006" data-name="Trazado 1216006" d="M26,28V24H23.738a7.968,7.968,0,0,0-.852-2.058l1.6-1.6-2.828-2.828-1.6,1.6A7.968,7.968,0,0,0,18,18.262V16H14v2.262a7.968,7.968,0,0,0-2.058.852l-1.6-1.6L7.515,20.343l1.6,1.6A7.968,7.968,0,0,0,8.262,24H6v4H8.262a7.968,7.968,0,0,0,.852,2.058l-1.6,1.6,2.828,2.828,1.6-1.6A7.968,7.968,0,0,0,14,33.738V36h4V33.738a7.968,7.968,0,0,0,2.058-.852l1.6,1.6,2.828-2.828-1.6-1.6A7.968,7.968,0,0,0,23.738,28Z" fill="#939393"/>
      <circle id="Elipse_13230" data-name="Elipse 13230" cx="4" cy="4" r="4" transform="translate(12 22)" fill="#f2f2f2"/>
      <path id="Trazado_1216007" data-name="Trazado 1216007" d="M18,16H14v2.262a7.968,7.968,0,0,0-2.058.852l-1.6-1.6L7.515,20.343l1.6,1.6A7.968,7.968,0,0,0,8.262,24H6v4H8.262a7.968,7.968,0,0,0,.852,2.058l-.723.723a9.9,9.9,0,0,0,11.525-9.823,10,10,0,0,0-.2-2.017A7.948,7.948,0,0,0,18,18.262Z" fill="#b5b5b5"/>
      <path id="Trazado_1216008" data-name="Trazado 1216008" d="M40,14H58v6H40Z" fill="#f0ae42"/>
      <path id="Trazado_1216009" data-name="Trazado 1216009" d="M56,17V14H40v4H55A1,1,0,0,0,56,17Z" fill="#f9d266"/>
      <path id="Trazado_1216010" data-name="Trazado 1216010" d="M40,24H58v4H40Z" fill="#f0ae42"/>
      <path id="Trazado_1216011" data-name="Trazado 1216011" d="M56,25V24H40v2H55A1,1,0,0,0,56,25Z" fill="#f9d266"/>
      <path id="Trazado_1216012" data-name="Trazado 1216012" d="M40,32H58v6H40Z" fill="#f0ae42"/>
      <path id="Trazado_1216013" data-name="Trazado 1216013" d="M56,35V32H40v4H55A1,1,0,0,0,56,35Z" fill="#f9d266"/>
      <path id="Trazado_1216014" data-name="Trazado 1216014" d="M40,18V16H32a1,1,0,0,0-1,1v8H26v2h5v8a1,1,0,0,0,1,1h8V34H33V27h7V25H33V18Z" fill="#3b5892"/>
      <path id="Trazado_1216015" data-name="Trazado 1216015" d="M19.441,23.993a3.989,3.989,0,1,0-4.8,5.753,9.977,9.977,0,0,0,4.8-5.753Z" fill="#f7fafd"/>
      <path id="Trazado_1216016" data-name="Trazado 1216016" d="M60,1H4A3,3,0,0,0,1,4V48a3,3,0,0,0,3,3H24.719l-1.5,6H18.236a2.983,2.983,0,0,0-2.683,1.658l-1.448,2.9A1,1,0,0,0,15,63H49a1,1,0,0,0,.9-1.447l-1.448-2.9A2.983,2.983,0,0,0,45.764,57H40.781l-1.5-6H60a3,3,0,0,0,3-3V4a3,3,0,0,0-3-3ZM4,3H60a1,1,0,0,1,1,1V9H3V4A1,1,0,0,1,4,3Zm57,8V41H3V11ZM46.658,59.553,47.382,61H16.618l.724-1.447A.994.994,0,0,1,18.236,59H45.764a.994.994,0,0,1,.894.553ZM38.719,57H25.281l1.5-6H37.219ZM60,49H4a1,1,0,0,1-1-1V43H61v5A1,1,0,0,1,60,49Z"/>
      <path id="Trazado_1216017" data-name="Trazado 1216017" d="M30,5h4V7H30Z"/>
      <path id="Trazado_1216018" data-name="Trazado 1216018" d="M36,5h2V7H36Z"/>
      <path id="Trazado_1216019" data-name="Trazado 1216019" d="M26,5h2V7H26Z"/>
      <path id="Trazado_1216020" data-name="Trazado 1216020" d="M5,45h8v2H5Z"/>
      <path id="Trazado_1216021" data-name="Trazado 1216021" d="M15,45h2v2H15Z"/>
      <path id="Trazado_1216022" data-name="Trazado 1216022" d="M6,29H7.522a9.266,9.266,0,0,0,.362.873L6.808,30.95a1,1,0,0,0,0,1.414l2.828,2.828a1,1,0,0,0,1.414,0l1.077-1.076a9.265,9.265,0,0,0,.873.362V36a1,1,0,0,0,1,1h4a1,1,0,0,0,1-1V34.478a9.265,9.265,0,0,0,.873-.362l1.077,1.076a1,1,0,0,0,1.414,0l2.828-2.828a1,1,0,0,0,0-1.414l-1.076-1.077A9.267,9.267,0,0,0,24.478,29H26a1,1,0,0,0,1-1V27h4v8a1,1,0,0,0,1,1h7v2a1,1,0,0,0,1,1H58a1,1,0,0,0,1-1V32a1,1,0,0,0-1-1H40a1,1,0,0,0-1,1v2H33V27h6v1a1,1,0,0,0,1,1H58a1,1,0,0,0,1-1V24a1,1,0,0,0-1-1H40a1,1,0,0,0-1,1v1H33V18h6v2a1,1,0,0,0,1,1H58a1,1,0,0,0,1-1V14a1,1,0,0,0-1-1H40a1,1,0,0,0-1,1v2H32a1,1,0,0,0-1,1v8H27V24a1,1,0,0,0-1-1H24.478a9.267,9.267,0,0,0-.362-.873l1.076-1.077a1,1,0,0,0,0-1.414l-2.828-2.828a1,1,0,0,0-1.414,0l-1.077,1.076A9.265,9.265,0,0,0,19,17.522V16a1,1,0,0,0-1-1H14a1,1,0,0,0-1,1v1.522a9.266,9.266,0,0,0-.873.362L11.05,16.808a1,1,0,0,0-1.414,0L6.808,19.636a1,1,0,0,0,0,1.414l1.076,1.077A9.266,9.266,0,0,0,7.522,23H6a1,1,0,0,0-1,1v4A1,1,0,0,0,6,29Zm35,4H57v4H41Zm0-8H57v2H41Zm0-10H57v4H41ZM7,25H8.262a1,1,0,0,0,.968-.75,7,7,0,0,1,.745-1.8,1,1,0,0,0-.154-1.216l-.892-.892,1.414-1.414.892.892a1,1,0,0,0,1.216.154,7,7,0,0,1,1.8-.745,1,1,0,0,0,.75-.968V17h2v1.262a1,1,0,0,0,.75.968,7,7,0,0,1,1.8.745,1,1,0,0,0,1.216-.154l.892-.892,1.414,1.414-.892.892a1,1,0,0,0-.154,1.216,7,7,0,0,1,.745,1.8,1,1,0,0,0,.968.75H25v2H23.738a1,1,0,0,0-.968.75,7,7,0,0,1-.745,1.8,1,1,0,0,0,.154,1.216l.892.892-1.414,1.414-.892-.892a1,1,0,0,0-1.216-.154,7,7,0,0,1-1.8.745,1,1,0,0,0-.75.968V35H15V33.738a1,1,0,0,0-.75-.968,7,7,0,0,1-1.8-.745,1,1,0,0,0-1.216.154l-.892.892L8.929,31.657l.892-.892a1,1,0,0,0,.154-1.216,7,7,0,0,1-.745-1.8A1,1,0,0,0,8.262,27H7Z"/>
      <path id="Trazado_1216023" data-name="Trazado 1216023" d="M16,31a5,5,0,1,0-5-5,5,5,0,0,0,5,5Zm0-8a3,3,0,1,1-3,3A3,3,0,0,1,16,23Z"/>
    </g>
  </g>
</svg>
