<svg xmlns="http://www.w3.org/2000/svg" xmlns:xlink="http://www.w3.org/1999/xlink" width="118" height="118" viewBox="0 0 118 118">
  <defs>
    <filter id="Trazado_982547" x="0" y="0" width="118" height="118" filterUnits="userSpaceOnUse">
      <feOffset dy="3" input="SourceAlpha"/>
      <feGaussianBlur stdDeviation="3" result="blur"/>
      <feFlood flood-opacity="0.161"/>
      <feComposite operator="in" in2="blur"/>
      <feComposite in="SourceGraphic"/>
    </filter>
  </defs>
  <g id="Grupo_1227826" data-name="Grupo 1227826" transform="translate(-740.638 -1179.669)">
    <g id="Grupo_1227363" data-name="Grupo 1227363" transform="translate(0 237.622)">
      <g id="Grupo_1208611" data-name="Grupo 1208611" transform="translate(749.638 948.048)">
        <g id="Grupo_1174813" data-name="Grupo 1174813">
          <g id="Grupo_1201680" data-name="Grupo 1201680">
            <g id="Grupo_1201330" data-name="Grupo 1201330">
              <g id="Grupo_1172010" data-name="Grupo 1172010">
                <g id="Grupo_1171046" data-name="Grupo 1171046">
                  <g id="Grupo_1148525" data-name="Grupo 1148525">
                    <g transform="matrix(1, 0, 0, 1, -9, -6)" filter="url(#Trazado_982547)">
                      <g id="Trazado_982547-2" data-name="Trazado 982547" transform="translate(9 6)" fill="#fdf4ce">
                        <path d="M 50 98.5 C 43.45188522338867 98.5 37.10042953491211 97.21787261962891 31.12207221984863 94.68923950195312 C 25.34691429138184 92.24655914306641 20.15997123718262 88.74931335449219 15.70532894134521 84.29468536376953 C 11.2506856918335 79.84004211425781 7.753442764282227 74.65309906005859 5.310757160186768 68.8779296875 C 2.782128572463989 62.89957046508789 1.5 56.54811477661133 1.5 50 C 1.5 43.45188522338867 2.782128572463989 37.10042953491211 5.310757160186768 31.12207221984863 C 7.753442764282227 25.34691429138184 11.2506856918335 20.15997123718262 15.70532894134521 15.70532894134521 C 20.15997123718262 11.2506856918335 25.34691429138184 7.753442764282227 31.12207221984863 5.310757160186768 C 37.10042953491211 2.782128572463989 43.45188522338867 1.5 50 1.5 C 56.54811477661133 1.5 62.89957046508789 2.782128572463989 68.8779296875 5.310757160186768 C 74.65309906005859 7.753442764282227 79.84004211425781 11.2506856918335 84.29468536376953 15.70532894134521 C 88.74931335449219 20.15997123718262 92.24655914306641 25.34691429138184 94.68923950195312 31.12207221984863 C 97.21787261962891 37.10042953491211 98.5 43.45188522338867 98.5 50 C 98.5 56.54811477661133 97.21787261962891 62.89957046508789 94.68923950195312 68.8779296875 C 92.24655914306641 74.65309906005859 88.74931335449219 79.84004211425781 84.29468536376953 84.29468536376953 C 79.84004211425781 88.74931335449219 74.65309906005859 92.24655914306641 68.8779296875 94.68923950195312 C 62.89957046508789 97.21787261962891 56.54811477661133 98.5 50 98.5 Z" stroke="none"/>
                        <path d="M 50 3 C 43.65372467041016 3 37.49886322021484 4.242263793945312 31.70639801025391 6.6922607421875 C 26.11003112792969 9.059326171875 21.08335113525391 12.44861602783203 16.76598358154297 16.76598358154297 C 12.44861602783203 21.08335113525391 9.059326171875 26.11003112792969 6.6922607421875 31.70639801025391 C 4.242263793945312 37.49886322021484 3 43.65372467041016 3 50 C 3 56.34627532958984 4.242263793945312 62.50113677978516 6.6922607421875 68.29360198974609 C 9.059326171875 73.88996887207031 12.44861602783203 78.91666412353516 16.76598358154297 83.23401641845703 C 21.08335113525391 87.55138397216797 26.11003112792969 90.940673828125 31.70639801025391 93.3077392578125 C 37.49886322021484 95.75773620605469 43.65372467041016 97 50 97 C 56.34627532958984 97 62.50113677978516 95.75773620605469 68.29360198974609 93.3077392578125 C 73.88996887207031 90.940673828125 78.91666412353516 87.55138397216797 83.23401641845703 83.23401641845703 C 87.55138397216797 78.91666412353516 90.940673828125 73.88996887207031 93.3077392578125 68.29360198974609 C 95.75773620605469 62.50113677978516 97 56.34627532958984 97 50 C 97 43.65372467041016 95.75773620605469 37.49886322021484 93.3077392578125 31.70639801025391 C 90.940673828125 26.11003112792969 87.55138397216797 21.08335113525391 83.23401641845703 16.76598358154297 C 78.91666412353516 12.44861602783203 73.88996887207031 9.059326171875 68.29360198974609 6.6922607421875 C 62.50113677978516 4.242263793945312 56.34627532958984 3 50 3 M 50 0 C 77.61424255371094 0 100 22.38577270507812 100 50 C 100 77.61424255371094 77.61424255371094 100 50 100 C 22.38577270507812 100 0 77.61424255371094 0 50 C 0 22.38577270507812 22.38577270507812 0 50 0 Z" stroke="none" fill="#866d08"/>
                      </g>
                    </g>
                  </g>
                </g>
              </g>
            </g>
          </g>
        </g>
      </g>
    </g>
    <g id="programacion" transform="translate(766.039 1202.07)">
      <g id="Grupo_1227824" data-name="Grupo 1227824" transform="translate(2.052 2.052)">
        <g id="Grupo_1227815" data-name="Grupo 1227815" transform="translate(0 23.135)">
          <path id="Trazado_1216024" data-name="Trazado 1216024" d="M2,57.651V24H34.978c.137.294.284.589.442.873l-1.283,2.482,4.469,4.459,2.482-1.272a15.278,15.278,0,0,0,3.176,1.3l.852,2.671H48.27V51.341a6.318,6.318,0,0,0-5.952,8.413H4.1A2.109,2.109,0,0,1,2,57.651Z" transform="translate(-2 -24)" fill="#e6e9ed"/>
        </g>
        <g id="Grupo_1227816" data-name="Grupo 1227816" transform="translate(0 10.516)">
          <path id="Trazado_1216025" data-name="Trazado 1216025" d="M34.978,24.619H2V14.1A2.109,2.109,0,0,1,4.1,12H34.978a14.393,14.393,0,0,0-.862,2.3l-2.671.852v6.31l2.671.852A14.393,14.393,0,0,0,34.978,24.619Z" transform="translate(-2 -12)" fill="#5cd6b3"/>
        </g>
        <g id="Grupo_1227817" data-name="Grupo 1227817" transform="translate(4.206 14.722)">
          <path id="Trazado_1216026" data-name="Trazado 1216026" d="M17.567,20.206H7.052A1.052,1.052,0,0,1,6,19.155v-2.1A1.052,1.052,0,0,1,7.052,16H17.567a1.052,1.052,0,0,1,1.052,1.052v2.1A1.052,1.052,0,0,1,17.567,20.206Z" transform="translate(-6 -16)" fill="#e6e9ed"/>
        </g>
        <g id="Grupo_1227818" data-name="Grupo 1227818" transform="translate(39.96 50.476)">
          <path id="Trazado_1216027" data-name="Trazado 1216027" d="M46.31,50A6.318,6.318,0,1,1,40,56.31,6.315,6.315,0,0,1,46.31,50Z" transform="translate(-40 -50)" fill="#ff826e"/>
        </g>
        <g id="Grupo_1227819" data-name="Grupo 1227819" transform="translate(44.167 54.683)">
          <circle id="Elipse_13231" data-name="Elipse 13231" cx="2" cy="2" r="2" transform="translate(-0.218 0.464)" fill="#fc6e51"/>
        </g>
        <g id="Grupo_1227820" data-name="Grupo 1227820" transform="translate(56.786 50.476)">
          <ellipse id="Elipse_13232" data-name="Elipse 13232" cx="2" cy="2.5" rx="2" ry="2.5" transform="translate(0.162 -0.329)" fill="#ff826e"/>
        </g>
        <g id="Grupo_1227821" data-name="Grupo 1227821" transform="translate(31.548 50.476)">
          <ellipse id="Elipse_13233" data-name="Elipse 13233" cx="2" cy="2.5" rx="2" ry="2.5" transform="translate(0.401 -0.329)" fill="#ff826e"/>
        </g>
        <g id="Grupo_1227822" data-name="Grupo 1227822" transform="translate(29.445)">
          <path id="Trazado_1216028" data-name="Trazado 1216028" d="M63.651,15.671v6.31l-2.671.852a15.279,15.279,0,0,1-1.3,3.176l1.283,2.482L56.49,32.948l-2.482-1.272a15.278,15.278,0,0,1-3.176,1.3l-.852,2.671h-6.31l-.852-2.671a15.278,15.278,0,0,1-3.176-1.3l-2.482,1.272L32.692,28.49l1.283-2.482c-.158-.284-.3-.578-.442-.873a14.393,14.393,0,0,1-.862-2.3L30,21.98v-6.31l2.671-.852a14.393,14.393,0,0,1,.862-2.3c.137-.294.284-.589.442-.873L32.692,9.161l4.469-4.469,2.482,1.283a15.279,15.279,0,0,1,3.176-1.3L43.671,2h6.31l.852,2.671a15.279,15.279,0,0,1,3.176,1.3L56.49,4.692l4.469,4.469-1.283,2.482a15.279,15.279,0,0,1,1.3,3.176Z" transform="translate(-30 -2)" fill="#fcd770"/>
        </g>
        <g id="Grupo_1227823" data-name="Grupo 1227823" transform="translate(35.754 6.31)">
          <circle id="Elipse_13234" data-name="Elipse 13234" cx="10.5" cy="10.5" r="10.5" transform="translate(0.194 -0.162)" fill="#ffeaa7"/>
        </g>
      </g>
      <g id="Grupo_1227825" data-name="Grupo 1227825" transform="translate(1 1)">
        <path id="Trazado_1216029" data-name="Trazado 1216029" d="M46.567,7A11.567,11.567,0,1,0,58.135,18.567,11.581,11.581,0,0,0,46.567,7Zm0,21.032a9.464,9.464,0,1,1,9.464-9.464A9.476,9.476,0,0,1,46.567,28.032Z" transform="translate(0.754 -0.69)"/>
        <path id="Trazado_1216030" data-name="Trazado 1216030" d="M63.324,14.033a15.706,15.706,0,0,0-.966-2.344l1.38-2.681L58.191,3.463,55.51,4.843a15.705,15.705,0,0,0-2.344-.966L52.243,1H44.4l-.921,2.875a15.705,15.705,0,0,0-2.344.966l-2.681-1.38L32.907,9.008,34.2,11.516H4.155A3.159,3.159,0,0,0,1,14.671V58.837a3.159,3.159,0,0,0,3.155,3.155H41.681A7.356,7.356,0,1,0,49.373,51.56V36.754h2.87l.921-2.875a15.705,15.705,0,0,0,2.344-.966l2.681,1.38,5.546-5.546-1.38-2.679a15.725,15.725,0,0,0,.966-2.344L66.2,22.8V14.955ZM4.155,13.619H33.472c-.049.139-.106.273-.151.414l-2.876.922V22.8l2.875.921c.045.141.1.276.151.414H3.1V14.671a1.053,1.053,0,0,1,1.052-1.052ZM53.58,58.837a5.258,5.258,0,1,1-5.258-5.258A5.264,5.264,0,0,1,53.58,58.837ZM47.27,51.56a7.289,7.289,0,0,0-6.225,8.329H4.155A1.053,1.053,0,0,1,3.1,58.837v-32.6H34.2l-1.29,2.507,5.546,5.546,2.681-1.38a15.7,15.7,0,0,0,2.344.966l.922,2.876h2.87ZM64.1,21.265l-2.478.794-.154.544a13.538,13.538,0,0,1-1.212,2.939l-.277.493,1.188,2.308L57.787,31.72l-2.308-1.187-.492.276a13.581,13.581,0,0,1-2.94,1.212l-.544.154-.793,2.476H45.934l-.794-2.478L44.6,32.02a13.634,13.634,0,0,1-2.94-1.212l-.492-.276-2.308,1.187L35.48,28.342l1.188-2.308-.277-.493A13.56,13.56,0,0,1,35.179,22.6l-.154-.544-2.478-.793V16.49l2.478-.794.154-.544a13.634,13.634,0,0,1,1.212-2.94l.276-.492L35.48,9.412l3.377-3.377,2.308,1.187.492-.276A13.581,13.581,0,0,1,44.6,5.734l.544-.154L45.933,3.1h4.775L51.5,5.581l.544.154a13.634,13.634,0,0,1,2.94,1.212l.492.276,2.308-1.187,3.377,3.377L59.976,11.72l.276.492a13.581,13.581,0,0,1,1.212,2.94l.154.544,2.478.793Z" transform="translate(-1 -1)"/>
        <path id="Trazado_1216031" data-name="Trazado 1216031" d="M48.2,14.662l2.682,3.575L48.2,21.813l1.683,1.262,3.628-4.837L49.883,13.4Z" transform="translate(1.435 -0.36)"/>
        <path id="Trazado_1216032" data-name="Trazado 1216032" d="M42.378,13.4,38.75,18.237l3.628,4.837,1.683-1.262-2.682-3.575,2.682-3.575Z" transform="translate(0.948 -0.36)"/>
        <path id="Trazado_1216033" data-name="Trazado 1216033" d="M0,0H14.872V2.1H0Z" transform="translate(45.245 25.092) rotate(-81.837)"/>
        <path id="Trazado_1216034" data-name="Trazado 1216034" d="M7.1,21.31H17.619a2.105,2.105,0,0,0,2.1-2.1V17.1a2.105,2.105,0,0,0-2.1-2.1H7.1A2.105,2.105,0,0,0,5,17.1v2.1A2.105,2.105,0,0,0,7.1,21.31Zm4.206-2.1V17.1h2.1v2.1Zm6.311,0h-2.1V17.1h2.1ZM7.1,17.1h2.1v2.1H7.1Z" transform="translate(-0.794 -0.278)"/>
        <path id="Trazado_1216035" data-name="Trazado 1216035" d="M43,56.155A3.155,3.155,0,1,0,46.155,53,3.159,3.159,0,0,0,43,56.155Zm4.206,0A1.052,1.052,0,1,1,46.155,55.1,1.053,1.053,0,0,1,47.206,56.155Z" transform="translate(1.167 1.683)"/>
        <path id="Trazado_1216036" data-name="Trazado 1216036" d="M59.31,49.967V46.184L55.1,41.977V34H53v8.848l4.206,4.206v2.913a3.155,3.155,0,1,0,2.1,0ZM58.258,53.98a1.052,1.052,0,1,1,1.052-1.052A1.053,1.053,0,0,1,58.258,53.98Z" transform="translate(1.683 0.702)"/>
        <path id="Trazado_1216037" data-name="Trazado 1216037" d="M37.31,41.977,33.1,46.184v3.784a3.155,3.155,0,1,0,2.1,0V47.054l4.206-4.206V34h-2.1Zm-3.155,12a1.052,1.052,0,1,1,1.052-1.052A1.053,1.053,0,0,1,34.155,53.98Z" transform="translate(0.548 0.702)"/>
        <path id="Trazado_1216038" data-name="Trazado 1216038" d="M7.1,34.361a3.159,3.159,0,0,0,3.155,3.155H11.31v-2.1H10.258a1.053,1.053,0,0,1-1.052-1.052,3.134,3.134,0,0,0-.82-2.1,3.134,3.134,0,0,0,.82-2.1A1.053,1.053,0,0,1,10.258,29.1H11.31V27H10.258A3.159,3.159,0,0,0,7.1,30.155a1.053,1.053,0,0,1-1.052,1.052H5v2.1H6.052A1.053,1.053,0,0,1,7.1,34.361Z" transform="translate(-0.794 0.341)"/>
        <path id="Trazado_1216039" data-name="Trazado 1216039" d="M13,27H25.619v2.1H13Z" transform="translate(-0.381 0.341)"/>
        <path id="Trazado_1216040" data-name="Trazado 1216040" d="M13,31H25.619v2.1H13Z" transform="translate(-0.381 0.548)"/>
        <path id="Trazado_1216041" data-name="Trazado 1216041" d="M23,35h2.1v2.1H23Z" transform="translate(0.135 0.754)"/>
        <path id="Trazado_1216042" data-name="Trazado 1216042" d="M13,35h8.413v2.1H13Z" transform="translate(-0.381 0.754)"/>
        <path id="Trazado_1216043" data-name="Trazado 1216043" d="M27.206,46.155A3.159,3.159,0,0,0,24.052,43H23v2.1h1.052A1.053,1.053,0,0,1,25.1,46.155a3.134,3.134,0,0,0,.82,2.1,3.129,3.129,0,0,0-.82,2.1,1.053,1.053,0,0,1-1.052,1.052H23v2.1h1.052a3.159,3.159,0,0,0,3.155-3.155,1.053,1.053,0,0,1,1.052-1.052H29.31v-2.1H28.258A1.053,1.053,0,0,1,27.206,46.155Z" transform="translate(0.135 1.167)"/>
        <path id="Trazado_1216044" data-name="Trazado 1216044" d="M9,51H21.619v2.1H9Z" transform="translate(-0.587 1.58)"/>
        <path id="Trazado_1216045" data-name="Trazado 1216045" d="M13,47h8.413v2.1H13Z" transform="translate(-0.381 1.373)"/>
        <path id="Trazado_1216046" data-name="Trazado 1216046" d="M9,47h2.1v2.1H9Z" transform="translate(-0.587 1.373)"/>
        <path id="Trazado_1216047" data-name="Trazado 1216047" d="M9,43H21.619v2.1H9Z" transform="translate(-0.587 1.167)"/>
        <path id="Trazado_1216048" data-name="Trazado 1216048" d="M5,39H26.032v2.1H5Z" transform="translate(-0.794 0.96)"/>
      </g>
    </g>
  </g>
</svg>
