<svg xmlns="http://www.w3.org/2000/svg" xmlns:xlink="http://www.w3.org/1999/xlink" width="108" height="108" viewBox="0 0 108 108">
  <defs>
    <filter id="Trazado_904820" x="0" y="0" width="108" height="108" filterUnits="userSpaceOnUse">
      <feOffset dy="3" input="SourceAlpha"/>
      <feGaussianBlur stdDeviation="3" result="blur"/>
      <feFlood flood-opacity="0.161"/>
      <feComposite operator="in" in2="blur"/>
      <feComposite in="SourceGraphic"/>
    </filter>
  </defs>
  <g id="Grupo_1226148" data-name="Grupo 1226148" transform="translate(-206.023 -4414.544)">
    <g id="Grupo_1180427" data-name="Grupo 1180427" transform="translate(-5 2134.438)">
      <g id="Grupo_1179140" data-name="Grupo 1179140" transform="translate(220.023 2286.106)">
        <g id="Grupo_1173585" data-name="Grupo 1173585" transform="translate(0 0)">
          <g id="Grupo_1173428" data-name="Grupo 1173428">
            <g id="Grupo_1171958" data-name="Grupo 1171958">
              <g id="Grupo_1167341" data-name="Grupo 1167341">
                <g id="Grupo_1166792" data-name="Grupo 1166792">
                  <g transform="matrix(1, 0, 0, 1, -9, -6)" filter="url(#Trazado_904820)">
                    <g id="Trazado_904820-2" data-name="Trazado 904820" transform="translate(9 6)" fill="#fef9e5">
                      <path d="M 44.99999618530273 88.49999237060547 C 39.12687301635742 88.49999237060547 33.43022155761719 87.35006713867188 28.06829643249512 85.08216857910156 C 22.88852119445801 82.89130401611328 18.23629570007324 79.75457763671875 14.24084663391113 75.75914001464844 C 10.24540901184082 71.76369476318359 7.108683586120605 67.11146545410156 4.917821407318115 61.93169403076172 C 2.649921178817749 56.56976699829102 1.499996185302734 50.87311553955078 1.499996185302734 44.99999237060547 C 1.499996185302734 39.12686920166016 2.649921178817749 33.43021774291992 4.917821407318115 28.06829261779785 C 7.108683586120605 22.88851737976074 10.24540901184082 18.23630523681641 14.24084663391113 14.24085521697998 C 18.23629570007324 10.24540519714355 22.88852119445801 7.108692169189453 28.06829643249512 4.917829990386963 C 33.43022155761719 2.649929761886597 39.12687301635742 1.500004887580872 44.99999618530273 1.500004887580872 C 50.87311935424805 1.500004887580872 56.56977081298828 2.649929761886597 61.93169784545898 4.917829990386963 C 67.11147308349609 7.108692169189453 71.76369476318359 10.24540519714355 75.75914764404297 14.24085521697998 C 79.75458526611328 18.23630523681641 82.89131164550781 22.88851737976074 85.08216857910156 28.06829261779785 C 87.35007476806641 33.43021774291992 88.5 39.12686920166016 88.5 44.99999237060547 C 88.5 50.87311553955078 87.35007476806641 56.56976699829102 85.08216857910156 61.93169403076172 C 82.89131164550781 67.11146545410156 79.75458526611328 71.76369476318359 75.75914764404297 75.75914001464844 C 71.76369476318359 79.75457763671875 67.11147308349609 82.89130401611328 61.93169784545898 85.08216857910156 C 56.56977081298828 87.35006713867188 50.87311935424805 88.49999237060547 44.99999618530273 88.49999237060547 Z" stroke="none"/>
                      <path d="M 44.99999618530273 2.999992370605469 C 39.32870864868164 2.999992370605469 33.82865142822266 4.11004638671875 28.65262603759766 6.299331665039062 C 23.65165710449219 8.414566040039062 19.15968322753906 11.44333648681641 15.301513671875 15.30150604248047 C 11.44333648681641 19.15967559814453 8.414566040039062 23.65164947509766 6.299339294433594 28.65262222290039 C 4.110054016113281 33.82864761352539 2.999992370605469 39.32870483398438 2.999992370605469 44.99999237060547 C 2.999992370605469 50.67127990722656 4.110054016113281 56.17132186889648 6.299339294433594 61.34736633300781 C 8.414566040039062 66.34833526611328 11.44333648681641 70.84029388427734 15.301513671875 74.69846343994141 C 19.15968322753906 78.55663299560547 23.65165710449219 81.58540344238281 28.65262603759766 83.70063781738281 C 33.82865142822266 85.88992309570312 39.32870864868164 86.99997711181641 44.99999618530273 86.99997711181641 C 50.67128372192383 86.99997711181641 56.17134094238281 85.88992309570312 61.34736633300781 83.70063781738281 C 66.34834289550781 81.58540344238281 70.84030914306641 78.55663299560547 74.69847869873047 74.69846343994141 C 78.55665588378906 70.84029388427734 81.58542633056641 66.34833526611328 83.70065307617188 61.34736633300781 C 85.88993835449219 56.17132186889648 87 50.67127990722656 87 44.99999237060547 C 87 39.32870483398438 85.88993835449219 33.82864761352539 83.70065307617188 28.65262222290039 C 81.58542633056641 23.65164947509766 78.55665588378906 19.15967559814453 74.69847869873047 15.30150604248047 C 70.84030914306641 11.44333648681641 66.34834289550781 8.414566040039062 61.34736633300781 6.299331665039062 C 56.17134094238281 4.11004638671875 50.67128372192383 2.999992370605469 44.99999618530273 2.999992370605469 M 44.99999618530273 -7.62939453125e-06 C 69.85281372070312 -7.62939453125e-06 90 20.14717864990234 90 44.99999237060547 C 90 69.85279083251953 69.85281372070312 89.99997711181641 44.99999618530273 89.99997711181641 C 20.14717864990234 89.99997711181641 -7.62939453125e-06 69.85279083251953 -7.62939453125e-06 44.99999237060547 C -7.62939453125e-06 20.14717864990234 20.14717864990234 -7.62939453125e-06 44.99999618530273 -7.62939453125e-06 Z" stroke="none" fill="#866d08"/>
                    </g>
                  </g>
                </g>
              </g>
            </g>
          </g>
        </g>
      </g>
    </g>
    <g id="funcion" transform="translate(234.332 4414.668)">
      <path id="Trazado_1214356" data-name="Trazado 1214356" d="M55.774,35.495H9.1a1.6,1.6,0,0,0-1.6,1.6v7.366H57.375V37.1A1.6,1.6,0,0,0,55.774,35.495Z" transform="translate(-6.747 -6.747)" fill="#ffe177"/>
      <path id="Trazado_1214357" data-name="Trazado 1214357" d="M462.455,35.495h-2.91a1.6,1.6,0,0,1,1.6,1.6v7.366h2.91V37.1A1.6,1.6,0,0,0,462.455,35.495Z" transform="translate(-413.428 -6.747)" fill="#ffd15b"/>
      <path id="Trazado_1214358" data-name="Trazado 1214358" d="M25.221,79.018l-.816-1.768a.908.908,0,0,0-.825-.528H15.3a.908.908,0,0,0-.825.528l-.816,1.768a.908.908,0,0,1-.825.528H7.5v35.7a1.6,1.6,0,0,0,1.6,1.6H55.774a1.6,1.6,0,0,0,1.6-1.6v-35.7H26.046a.908.908,0,0,1-.825-.528Z" transform="translate(-6.747 -43.838)" fill="#f5f8f9"/>
      <g id="Grupo_1226145" data-name="Grupo 1226145" transform="translate(46.117 35.708)">
        <path id="Trazado_1214359" data-name="Trazado 1214359" d="M461.146,104.853v35.7a1.6,1.6,0,0,1-1.6,1.6h2.91a1.6,1.6,0,0,0,1.6-1.6v-35.7Z" transform="translate(-459.545 -104.853)" fill="#e8edf2"/>
      </g>
      <g id="Grupo_1226146" data-name="Grupo 1226146" transform="translate(36.585 40.403)">
        <path id="Trazado_1214360" data-name="Trazado 1214360" d="M373.464,155.886h-7.9a1,1,0,0,1-1-1v-2.237a1,1,0,0,1,1-1h7.9a1,1,0,0,1,1,1v2.237A1,1,0,0,1,373.464,155.886Z" transform="translate(-364.564 -151.644)" fill="#ffe177"/>
        <path id="Trazado_1214361" data-name="Trazado 1214361" d="M433.352,151.643h-2.22a1,1,0,0,1,1,1v2.237a1,1,0,0,1-1,1h2.22a1,1,0,0,0,1-1v-2.237A1,1,0,0,0,433.352,151.643Z" transform="translate(-424.452 -151.643)" fill="#ffd15b"/>
      </g>
      <g id="Grupo_1226147" data-name="Grupo 1226147" transform="translate(0 27.995)">
        <path id="Trazado_1214362" data-name="Trazado 1214362" d="M49.027,28H7.093a.753.753,0,0,0,0,1.505H49.027a.849.849,0,0,1,.848.848v4.606H19.3a.156.156,0,0,1-.141-.09L18.341,33.1a1.666,1.666,0,0,0-1.508-.965H8.552a1.666,1.666,0,0,0-1.508.965l-.816,1.768a.156.156,0,0,1-.141.09H1.505V30.349a.849.849,0,0,1,.848-.848H4.183a.753.753,0,0,0,0-1.505H2.354A2.356,2.356,0,0,0,0,30.349V71.4a2.356,2.356,0,0,0,2.354,2.354H49.027A2.356,2.356,0,0,0,51.381,71.4V66.794a.753.753,0,1,0-1.505,0V71.4a.849.849,0,0,1-.848.848H2.354a.849.849,0,0,1-.848-.848V36.461H6.087A1.666,1.666,0,0,0,7.595,35.5l.816-1.768a.156.156,0,0,1,.141-.09h8.282a.156.156,0,0,1,.141.09L17.79,35.5a1.666,1.666,0,0,0,1.508.965H49.875V63.884a.753.753,0,0,0,1.505,0V30.349A2.356,2.356,0,0,0,49.027,28Z" transform="translate(0 -27.995)"/>
        <path id="Trazado_1214363" data-name="Trazado 1214363" d="M359.745,64.179a.753.753,0,0,0,0-1.505h-.729a.753.753,0,1,0,0,1.505Z" transform="translate(-322.31 -59.194)"/>
        <path id="Trazado_1214364" data-name="Trazado 1214364" d="M395.745,64.179a.753.753,0,0,0,0-1.505h-.729a.753.753,0,1,0,0,1.505Z" transform="translate(-354.698 -59.194)"/>
        <path id="Trazado_1214365" data-name="Trazado 1214365" d="M431.745,64.179a.753.753,0,1,0,0-1.505h-.729a.753.753,0,0,0,0,1.505Z" transform="translate(-387.085 -59.194)"/>
        <path id="Trazado_1214366" data-name="Trazado 1214366" d="M43.231,134.081a.753.753,0,0,0-1.048.185l-1.666,2.377a.753.753,0,0,0,0,.864l1.666,2.377a.753.753,0,1,0,1.233-.864l-1.363-1.946,1.363-1.946A.753.753,0,0,0,43.231,134.081Z" transform="translate(-36.328 -123.312)"/>
        <path id="Trazado_1214367" data-name="Trazado 1214367" d="M120.645,140.071a.753.753,0,0,0,1.048-.185l1.666-2.377a.753.753,0,0,0,0-.864l-1.666-2.377a.753.753,0,0,0-1.233.864l1.363,1.946-1.363,1.946A.753.753,0,0,0,120.645,140.071Z" transform="translate(-108.249 -123.314)"/>
        <path id="Trazado_1214368" data-name="Trazado 1214368" d="M81.05,135.153a.752.752,0,0,0-1.005.35l-2.19,4.527a.753.753,0,1,0,1.355.656l2.19-4.527A.753.753,0,0,0,81.05,135.153Z" transform="translate(-69.974 -124.331)"/>
        <path id="Trazado_1214369" data-name="Trazado 1214369" d="M203.279,134.7a.753.753,0,0,0-.753-.753H190.794a.753.753,0,1,0,0,1.505h11.733A.753.753,0,0,0,203.279,134.7Z" transform="translate(-170.97 -123.314)"/>
        <path id="Trazado_1214370" data-name="Trazado 1214370" d="M368.473,145.9a1.757,1.757,0,0,0-1.755-1.755h-7.9a1.757,1.757,0,0,0-1.755,1.755v2.237a1.757,1.757,0,0,0,1.755,1.755h2.494a.753.753,0,0,0,0-1.505H358.82a.25.25,0,0,1-.25-.25V145.9a.25.25,0,0,1,.25-.25h7.9a.25.25,0,0,1,.25.25v2.237a.25.25,0,0,1-.25.25h-2.494a.753.753,0,0,0,0,1.505h2.494a1.757,1.757,0,0,0,1.755-1.755Z" transform="translate(-321.232 -132.487)"/>
        <path id="Trazado_1214371" data-name="Trazado 1214371" d="M33.9,217.637a.753.753,0,0,0,.255.564l.872.769a.124.124,0,0,1,.042.093,2.856,2.856,0,0,0,2.853,2.853.753.753,0,1,0,0-1.505,1.349,1.349,0,0,1-1.348-1.348,1.63,1.63,0,0,0-.551-1.222l-.232-.2.232-.2a1.63,1.63,0,0,0,.551-1.222,1.349,1.349,0,0,1,1.348-1.348.753.753,0,1,0,0-1.505,2.856,2.856,0,0,0-2.853,2.853.124.124,0,0,1-.042.093l-.872.769A.753.753,0,0,0,33.9,217.637Z" transform="translate(-30.503 -194.756)"/>
        <path id="Trazado_1214372" data-name="Trazado 1214372" d="M432.622,375.789a1.349,1.349,0,0,1-1.348,1.348.753.753,0,0,0,0,1.505,2.856,2.856,0,0,0,2.853-2.853.124.124,0,0,1,.042-.093l.872-.769a.753.753,0,0,0,0-1.129l-.872-.769a.123.123,0,0,1-.042-.093,2.856,2.856,0,0,0-2.853-2.853.753.753,0,0,0,0,1.505,1.349,1.349,0,0,1,1.348,1.348,1.63,1.63,0,0,0,.551,1.221l.232.2-.232.2A1.63,1.63,0,0,0,432.622,375.789Z" transform="translate(-387.318 -335.754)"/>
        <path id="Trazado_1214373" data-name="Trazado 1214373" d="M89.432,238.959h.774a.753.753,0,1,0,0-1.505h-.774a.753.753,0,0,0,0,1.505Z" transform="translate(-79.78 -216.434)"/>
        <path id="Trazado_1214374" data-name="Trazado 1214374" d="M137.593,238.207a.753.753,0,0,0,.753.753h4.788a.753.753,0,0,0,0-1.505h-4.788A.753.753,0,0,0,137.593,238.207Z" transform="translate(-123.785 -216.434)"/>
        <path id="Trazado_1214375" data-name="Trazado 1214375" d="M234.055,238.959a.753.753,0,1,0,0-1.505h-6.795a.753.753,0,0,0,0,1.505Z" transform="translate(-203.777 -216.434)"/>
        <path id="Trazado_1214376" data-name="Trazado 1214376" d="M335.422,238.207a.753.753,0,0,0,.753.753h2.781a.753.753,0,1,0,0-1.505h-2.781A.753.753,0,0,0,335.422,238.207Z" transform="translate(-301.761 -216.434)"/>
        <path id="Trazado_1214377" data-name="Trazado 1214377" d="M409.876,237.454h-4.788a.753.753,0,1,0,0,1.505h4.788a.753.753,0,1,0,0-1.505Z" transform="translate(-363.76 -216.434)"/>
        <path id="Trazado_1214378" data-name="Trazado 1214378" d="M88.679,275.264a.753.753,0,0,0,.753.753h3.784a.753.753,0,0,0,0-1.505H89.432a.753.753,0,0,0-.753.753Z" transform="translate(-79.78 -249.772)"/>
        <path id="Trazado_1214379" data-name="Trazado 1214379" d="M175.893,275.264a.753.753,0,0,0-.753-.753h-6.795a.753.753,0,0,0,0,1.505h6.795A.753.753,0,0,0,175.893,275.264Z" transform="translate(-150.775 -249.772)"/>
        <path id="Trazado_1214380" data-name="Trazado 1214380" d="M280.793,275.264a.753.753,0,0,0-.753-.753H277.26a.753.753,0,1,0,0,1.505h2.781A.753.753,0,0,0,280.793,275.264Z" transform="translate(-248.759 -249.772)"/>
        <path id="Trazado_1214381" data-name="Trazado 1214381" d="M350.962,274.511h-4.788a.753.753,0,0,0,0,1.505h4.788a.753.753,0,0,0,0-1.505Z" transform="translate(-310.758 -249.772)"/>
        <path id="Trazado_1214382" data-name="Trazado 1214382" d="M436.866,274.511h-1.777a.753.753,0,1,0,0,1.505h1.777a.753.753,0,0,0,0-1.505Z" transform="translate(-390.749 -249.772)"/>
        <path id="Trazado_1214383" data-name="Trazado 1214383" d="M49.432,313.074h6.795a.753.753,0,0,0,0-1.505H49.432a.753.753,0,0,0,0,1.505Z" transform="translate(-43.794 -283.112)"/>
        <path id="Trazado_1214384" data-name="Trazado 1214384" d="M161.879,312.322a.753.753,0,0,0-.753-.753h-2.781a.753.753,0,1,0,0,1.505h2.781A.753.753,0,0,0,161.879,312.322Z" transform="translate(-141.778 -283.112)"/>
        <path id="Trazado_1214385" data-name="Trazado 1214385" d="M227.261,313.074h6.795a.753.753,0,1,0,0-1.505h-6.795a.753.753,0,0,0,0,1.505Z" transform="translate(-203.777 -283.112)"/>
        <path id="Trazado_1214386" data-name="Trazado 1214386" d="M336.175,313.074h2.781a.753.753,0,0,0,0-1.505h-2.781a.753.753,0,0,0,0,1.505Z" transform="translate(-301.761 -283.112)"/>
        <path id="Trazado_1214387" data-name="Trazado 1214387" d="M405.089,313.074h4.788a.753.753,0,0,0,0-1.505h-4.788a.753.753,0,1,0,0,1.505Z" transform="translate(-363.76 -283.112)"/>
        <path id="Trazado_1214388" data-name="Trazado 1214388" d="M49.432,350.13h1.777a.753.753,0,0,0,0-1.505H49.432a.753.753,0,0,0,0,1.505Z" transform="translate(-43.794 -316.449)"/>
        <path id="Trazado_1214389" data-name="Trazado 1214389" d="M113.886,349.378a.753.753,0,0,0-.753-.753h-4.788a.753.753,0,0,0,0,1.505h4.788A.753.753,0,0,0,113.886,349.378Z" transform="translate(-96.796 -316.449)"/>
        <path id="Trazado_1214390" data-name="Trazado 1214390" d="M205.812,349.378a.753.753,0,0,0-.753-.753h-7.8a.753.753,0,0,0,0,1.505h7.8A.753.753,0,0,0,205.812,349.378Z" transform="translate(-176.788 -316.449)"/>
        <path id="Trazado_1214391" data-name="Trazado 1214391" d="M317.952,350.13a.753.753,0,0,0,0-1.505h-1.777a.753.753,0,0,0,0,1.505Z" transform="translate(-283.768 -316.449)"/>
        <path id="Trazado_1214392" data-name="Trazado 1214392" d="M383.64,349.378a.753.753,0,0,0-.753-.753h-7.8a.753.753,0,0,0,0,1.505h7.8A.753.753,0,0,0,383.64,349.378Z" transform="translate(-336.77 -316.449)"/>
        <path id="Trazado_1214393" data-name="Trazado 1214393" d="M49.432,387.187h6.795a.753.753,0,0,0,0-1.505H49.432a.753.753,0,0,0,0,1.505Z" transform="translate(-43.794 -349.787)"/>
        <path id="Trazado_1214394" data-name="Trazado 1214394" d="M164.137,387.187a.753.753,0,0,0,0-1.505h-5.791a.753.753,0,0,0,0,1.505Z" transform="translate(-141.778 -349.787)"/>
        <path id="Trazado_1214395" data-name="Trazado 1214395" d="M257.26,387.187h3.784a.753.753,0,0,0,0-1.505H257.26a.753.753,0,0,0,0,1.505Z" transform="translate(-230.766 -349.787)"/>
        <path id="Trazado_1214396" data-name="Trazado 1214396" d="M342.969,385.682h-6.795a.753.753,0,0,0,0,1.505h6.795a.753.753,0,1,0,0-1.505Z" transform="translate(-301.761 -349.787)"/>
        <path id="Trazado_1214397" data-name="Trazado 1214397" d="M49.432,424.244h9.805a.753.753,0,1,0,0-1.505H49.432a.753.753,0,1,0,0,1.505Z" transform="translate(-43.794 -383.125)"/>
        <path id="Trazado_1214398" data-name="Trazado 1214398" d="M188.346,424.244h4.788a.753.753,0,1,0,0-1.505h-4.788a.753.753,0,1,0,0,1.505Z" transform="translate(-168.767 -383.125)"/>
        <path id="Trazado_1214399" data-name="Trazado 1214399" d="M277.26,424.244h2.781a.753.753,0,1,0,0-1.505H277.26a.753.753,0,1,0,0,1.505Z" transform="translate(-248.759 -383.125)"/>
        <path id="Trazado_1214400" data-name="Trazado 1214400" d="M351.966,422.739h-5.791a.753.753,0,1,0,0,1.505h5.791a.753.753,0,1,0,0-1.505Z" transform="translate(-310.758 -383.125)"/>
      </g>
    </g>
  </g>
</svg>
