<svg xmlns="http://www.w3.org/2000/svg" xmlns:xlink="http://www.w3.org/1999/xlink" width="108" height="108" viewBox="0 0 108 108">
  <defs>
    <filter id="Trazado_904820" x="0" y="0" width="108" height="108" filterUnits="userSpaceOnUse">
      <feOffset dy="3" input="SourceAlpha"/>
      <feGaussianBlur stdDeviation="3" result="blur"/>
      <feFlood flood-opacity="0.161"/>
      <feComposite operator="in" in2="blur"/>
      <feComposite in="SourceGraphic"/>
    </filter>
  </defs>
  <g id="Grupo_1226152" data-name="Grupo 1226152" transform="translate(-620 -6598)">
    <g id="Grupo_1225539" data-name="Grupo 1225539" transform="translate(629 6604)">
      <g id="Grupo_1173585" data-name="Grupo 1173585" transform="translate(0 0)">
        <g id="Grupo_1173428" data-name="Grupo 1173428">
          <g id="Grupo_1171958" data-name="Grupo 1171958">
            <g id="Grupo_1167341" data-name="Grupo 1167341">
              <g id="Grupo_1166792" data-name="Grupo 1166792">
                <g transform="matrix(1, 0, 0, 1, -9, -6)" filter="url(#Trazado_904820)">
                  <g id="Trazado_904820-2" data-name="Trazado 904820" transform="translate(9 6)" fill="#e5fdfa">
                    <path d="M 44.99999618530273 88.50002288818359 C 39.12687301635742 88.50002288818359 33.43022155761719 87.35009765625 28.06829643249512 85.08218383789062 C 22.88852119445801 82.89133453369141 18.23629570007324 79.75460815429688 14.24084663391113 75.7591552734375 C 10.24540901184082 71.76371002197266 7.108683586120605 67.11148071289062 4.917821407318115 61.93170928955078 C 2.649921178817749 56.56978225708008 1.499996185302734 50.87313079833984 1.499996185302734 45.00000762939453 C 1.499996185302734 39.12688446044922 2.649921178817749 33.43023300170898 4.917821407318115 28.06830787658691 C 7.108683586120605 22.8885326385498 10.24540901184082 18.23630714416504 14.24084663391113 14.24085807800293 C 18.23629570007324 10.24542045593262 22.88852119445801 7.108695030212402 28.06829643249512 4.917832851409912 C 33.43022155761719 2.649932622909546 39.12687301635742 1.500007629394531 44.99999618530273 1.500007629394531 C 50.87311935424805 1.500007629394531 56.56977081298828 2.649932622909546 61.93169784545898 4.917832851409912 C 67.11147308349609 7.108695030212402 71.76369476318359 10.24542045593262 75.75914764404297 14.24085807800293 C 79.75458526611328 18.23630714416504 82.89131164550781 22.8885326385498 85.08216857910156 28.06830787658691 C 87.35007476806641 33.43023300170898 88.5 39.12688446044922 88.5 45.00000762939453 C 88.5 50.87313079833984 87.35007476806641 56.56978225708008 85.08216857910156 61.93170928955078 C 82.89131164550781 67.11148071289062 79.75458526611328 71.76371002197266 75.75914764404297 75.7591552734375 C 71.76369476318359 79.75460815429688 67.11147308349609 82.89133453369141 61.93169784545898 85.08218383789062 C 56.56977081298828 87.35009765625 50.87311935424805 88.50002288818359 44.99999618530273 88.50002288818359 Z" stroke="none"/>
                    <path d="M 44.99999618530273 2.999992370605469 C 39.32870864868164 2.999992370605469 33.82865142822266 4.110054016113281 28.65262603759766 6.299339294433594 C 23.65165710449219 8.414566040039062 19.15968322753906 11.44333648681641 15.301513671875 15.30150604248047 C 11.44333648681641 19.15967559814453 8.414566040039062 23.65164947509766 6.299339294433594 28.65262222290039 C 4.110054016113281 33.82866287231445 2.999992370605469 39.32872009277344 2.999992370605469 45.00000762939453 C 2.999992370605469 50.67129516601562 4.110054016113281 56.17133712768555 6.299339294433594 61.34738159179688 C 8.414566040039062 66.34835052490234 11.44333648681641 70.84030914306641 15.301513671875 74.69849395751953 C 19.15968322753906 78.55666351318359 23.65165710449219 81.58543395996094 28.65262603759766 83.70066833496094 C 33.82865142822266 85.88995361328125 39.32870864868164 87.00000762939453 44.99999618530273 87.00000762939453 C 50.67128372192383 87.00000762939453 56.17134094238281 85.88995361328125 61.34736633300781 83.70066833496094 C 66.34834289550781 81.58543395996094 70.84030914306641 78.55666351318359 74.69847869873047 74.69849395751953 C 78.55665588378906 70.84030914306641 81.58542633056641 66.34835052490234 83.70065307617188 61.34738159179688 C 85.88993835449219 56.17133712768555 87 50.67129516601562 87 45.00000762939453 C 87 39.32872009277344 85.88993835449219 33.82866287231445 83.70065307617188 28.65262222290039 C 81.58542633056641 23.65164947509766 78.55665588378906 19.15967559814453 74.69847869873047 15.30150604248047 C 70.84030914306641 11.44333648681641 66.34834289550781 8.414566040039062 61.34736633300781 6.299339294433594 C 56.17134094238281 4.110054016113281 50.67128372192383 2.999992370605469 44.99999618530273 2.999992370605469 M 44.99999618530273 -7.62939453125e-06 C 69.85281372070312 -7.62939453125e-06 90 20.14717864990234 90 45.00000762939453 C 90 69.85280609130859 69.85281372070312 90.00000762939453 44.99999618530273 90.00000762939453 C 20.14717864990234 90.00000762939453 -7.62939453125e-06 69.85280609130859 -7.62939453125e-06 45.00000762939453 C -7.62939453125e-06 20.14717864990234 20.14717864990234 -7.62939453125e-06 44.99999618530273 -7.62939453125e-06 Z" stroke="none" fill="#098576"/>
                  </g>
                </g>
              </g>
            </g>
          </g>
        </g>
      </g>
    </g>
    <g id="diseno-ux" transform="translate(646.917 6622)">
      <rect id="Rectángulo_422068" data-name="Rectángulo 422068" width="42.062" height="47.178" transform="translate(11.037 6.643)" fill="#90caf9"/>
      <path id="Trazado_1214401" data-name="Trazado 1214401" d="M126.064,178.332l-10.918,4.349v-25.45a3.685,3.685,0,0,0-3.68-3.68H104.28v37.68h9.928a3.668,3.668,0,0,0,.939-2.453v-3.718l10.918,4.349h20.278V178.332Z" transform="translate(-93.244 -137.41)" fill="#64b5f6"/>
      <rect id="Rectángulo_422069" data-name="Rectángulo 422069" width="35.752" height="12.619" transform="translate(14.191 9.832)" fill="#fdcc15"/>
      <rect id="Rectángulo_422070" data-name="Rectángulo 422070" width="15.773" height="9.464" transform="translate(14.191 25.605)" fill="#9ccc65"/>
      <path id="Trazado_1214402" data-name="Trazado 1214402" d="M142,157.231v2.629H134.29v-6.309h4.032A3.684,3.684,0,0,1,142,157.231Z" transform="translate(-120.099 -137.41)" fill="#f5b21b"/>
      <rect id="Rectángulo_422071" data-name="Rectángulo 422071" width="7.712" height="9.464" transform="translate(14.191 25.605)" fill="#7cb342"/>
      <rect id="Rectángulo_422072" data-name="Rectángulo 422072" width="15.773" height="9.464" transform="translate(34.171 25.605)" fill="#c45e9a"/>
      <g id="Grupo_1226149" data-name="Grupo 1226149" transform="translate(0.872 0.789)">
        <rect id="Rectángulo_422073" data-name="Rectángulo 422073" width="42.062" height="5.854" transform="translate(10.165)" fill="#b0bec5"/>
        <path id="Trazado_1214403" data-name="Trazado 1214403" d="M7.585,423.314a1.577,1.577,0,0,0,1.577,1.577H24.935a1.577,1.577,0,0,0,1.577-1.577v-7.676H7.585Z" transform="translate(-7.585 -372.735)" fill="#b0bec5"/>
        <path id="Trazado_1214404" data-name="Trazado 1214404" d="M26.513,175.135a1.577,1.577,0,0,0-1.577-1.577H9.162a1.577,1.577,0,0,0-1.577,1.577v4.627H26.513v-4.627Z" transform="translate(-7.585 -156.102)" fill="#b0bec5"/>
      </g>
      <rect id="Rectángulo_422074" data-name="Rectángulo 422074" width="18.928" height="19.243" transform="translate(0.872 24.448)" fill="#1bb9db"/>
      <circle id="Elipse_12988" data-name="Elipse 12988" cx="1.577" cy="1.577" r="1.577" transform="translate(8.934 46.741)" fill="#fff"/>
      <g id="Grupo_1226150" data-name="Grupo 1226150" transform="translate(5.972 27.279)">
        <circle id="Elipse_12989" data-name="Elipse 12989" cx="3.155" cy="3.155" r="3.155" transform="translate(1.358)" fill="#ffe0b2"/>
        <path id="Trazado_1214405" data-name="Trazado 1214405" d="M56.1,329.626v-5.564a4.539,4.539,0,0,1,4.539-4.539h0a4.539,4.539,0,0,1,4.539,4.539v5.564Z" transform="translate(-56.101 -313.213)" fill="#ffe0b2"/>
      </g>
      <path id="Trazado_1214406" data-name="Trazado 1214406" d="M315.354,409.3l3.12,3.435-3.12,3.435h20.663V409.3Z" transform="translate(-282.13 -366.277)" fill="#f44336"/>
      <path id="Trazado_1214407" data-name="Trazado 1214407" d="M233.326,423.436l5.468,2.178v-4.357Z" transform="translate(-208.725 -376.976)" fill="#616161"/>
      <path id="Trazado_1214408" data-name="Trazado 1214408" d="M291.618,412.738,288.5,409.3l-3.155,1.257v4.357l3.155,1.257Z" transform="translate(-255.275 -366.277)" fill="#ffe0b2"/>
      <rect id="Rectángulo_422075" data-name="Rectángulo 422075" width="18.928" height="2.103" transform="translate(0.872 24.448)" fill="#077fa6"/>
      <rect id="Rectángulo_422076" data-name="Rectángulo 422076" width="26.744" height="1.577" transform="translate(23.935 2.927)"/>
      <path id="Trazado_1214409" data-name="Trazado 1214409" d="M79.141,441.878a2.366,2.366,0,1,0-2.366-2.366A2.369,2.369,0,0,0,79.141,441.878Zm0-3.155a.789.789,0,1,1-.789.789A.789.789,0,0,1,79.141,438.723Z" transform="translate(-68.63 -391.194)"/>
      <path id="Trazado_1214410" data-name="Trazado 1214410" d="M316.853,236.078v11.041H334.2V236.078Zm15.773,9.464h-14.2v-7.887h14.2Z" transform="translate(-283.471 -211.262)"/>
      <path id="Trazado_1214411" data-name="Trazado 1214411" d="M53.887,43.814h0V0H10.248V17.456h-7.8A2.369,2.369,0,0,0,.083,19.821V51.368a2.369,2.369,0,0,0,2.366,2.366H18.222a2.369,2.369,0,0,0,2.366-2.366V35.858H30.753V24.816H20.588V23.239H50.732V9.043H13.4v8.412H11.825V7.431H52.31V42.237H33.073l-10.6,4.224,10.6,4.224H52.309v3.137h1.577V49.107H35.006l2.4-2.646-2.4-2.646H53.887ZM19.011,51.368a.79.79,0,0,1-.789.789H2.449a.789.789,0,0,1-.789-.789V44.48h17.35v6.888Zm-8.5-16.991a3.755,3.755,0,0,1,3.751,3.75V42.9H6.76V38.127A3.755,3.755,0,0,1,10.511,34.377ZM8.118,30.433A2.366,2.366,0,1,1,10.484,32.8,2.369,2.369,0,0,1,8.118,30.433ZM19.011,42.9H15.838V38.127a5.332,5.332,0,0,0-2.8-4.69,3.943,3.943,0,1,0-5.082.018,5.332,5.332,0,0,0-2.771,4.673V42.9H1.66V25.237h17.35V42.9ZM29.175,26.394V34.28H20.588V26.394Zm-14.2-15.773H49.154V21.662H20.588v-1.84a2.369,2.369,0,0,0-2.366-2.366H14.98V10.621Zm3.243,8.412a.79.79,0,0,1,.789.789V23.66H1.66V19.822a.789.789,0,0,1,.789-.789H18.222ZM29.281,47.476l-2.548-1.015,2.548-1.015Zm6-1.015-2.27,2.5-2.15-.857V44.817l2.15-.856ZM52.309,5.854H11.825V1.577H52.309Z"/>
      <rect id="Rectángulo_422077" data-name="Rectángulo 422077" width="8.412" height="1.577" transform="translate(7.882 20.558)"/>
      <rect id="Rectángulo_422078" data-name="Rectángulo 422078" width="1.577" height="1.577" transform="translate(4.727 20.558)"/>
      <g id="Grupo_1226151" data-name="Grupo 1226151" transform="translate(13.613 2.927)">
        <path id="Trazado_1214412" data-name="Trazado 1214412" d="M136.679,29.419H135.1V27.842h1.577Zm-3.155,0h-1.577V27.842h1.577Zm-3.155,0h-1.577V27.842h1.577Z" transform="translate(-128.792 -27.842)" fill="#fff"/>
        <rect id="Rectángulo_422079" data-name="Rectángulo 422079" width="10.34" height="1.577" transform="translate(23.467 9.411)" fill="#fff"/>
        <path id="Trazado_1214413" data-name="Trazado 1214413" d="M319.7,148.626h-1.577v-1.577H319.7Zm-3.155,0h-12.2v-1.577h12.2Z" transform="translate(-285.895 -134.518)" fill="#fff"/>
        <path id="Trazado_1214414" data-name="Trazado 1214414" d="M283.895,178.636H270.645v-1.577h13.249Zm-14.827,0h-1.577v-1.577h1.577Zm-3.155,0h-1.577v-1.577h1.577Z" transform="translate(-250.088 -161.373)" fill="#fff"/>
        <path id="Trazado_1214415" data-name="Trazado 1214415" d="M357.737,358.7H356.16v-1.577h1.577Zm-3.155,0h-1.577v-1.577h1.577Zm-3.155,0h-1.577v-1.577h1.577Zm-3.155,0H346.7v-1.577h1.577Z" transform="translate(-323.79 -322.506)" fill="#fff"/>
      </g>
    </g>
  </g>
</svg>
