<svg xmlns="http://www.w3.org/2000/svg" xmlns:xlink="http://www.w3.org/1999/xlink" width="118" height="118" viewBox="0 0 118 118">
  <defs>
    <filter id="Trazado_982547" x="0" y="0" width="118" height="118" filterUnits="userSpaceOnUse">
      <feOffset dy="3" input="SourceAlpha"/>
      <feGaussianBlur stdDeviation="3" result="blur"/>
      <feFlood flood-opacity="0.161"/>
      <feComposite operator="in" in2="blur"/>
      <feComposite in="SourceGraphic"/>
    </filter>
  </defs>
  <g id="Grupo_1226156" data-name="Grupo 1226156" transform="translate(-740.638 -8118.363)">
    <g id="Grupo_1226155" data-name="Grupo 1226155">
      <g id="Grupo_1225607" data-name="Grupo 1225607" transform="translate(749.638 8124.363)">
        <g id="Grupo_1174813" data-name="Grupo 1174813">
          <g id="Grupo_1201680" data-name="Grupo 1201680">
            <g id="Grupo_1201330" data-name="Grupo 1201330">
              <g id="Grupo_1172010" data-name="Grupo 1172010">
                <g id="Grupo_1171046" data-name="Grupo 1171046">
                  <g id="Grupo_1148525" data-name="Grupo 1148525">
                    <g transform="matrix(1, 0, 0, 1, -9, -6)" filter="url(#Trazado_982547)">
                      <g id="Trazado_982547-2" data-name="Trazado 982547" transform="translate(9 6)" fill="#fdf4ce">
                        <path d="M 50 98.5 C 43.45188522338867 98.5 37.10042953491211 97.21787261962891 31.12207221984863 94.68923950195312 C 25.34691429138184 92.24655914306641 20.15997123718262 88.74931335449219 15.70532894134521 84.29468536376953 C 11.2506856918335 79.84004211425781 7.753442764282227 74.65309906005859 5.310757160186768 68.8779296875 C 2.782128572463989 62.89957046508789 1.5 56.54811477661133 1.5 50 C 1.5 43.45188522338867 2.782128572463989 37.10042953491211 5.310757160186768 31.12207221984863 C 7.753442764282227 25.34691429138184 11.2506856918335 20.15997123718262 15.70532894134521 15.70532894134521 C 20.15997123718262 11.2506856918335 25.34691429138184 7.753442764282227 31.12207221984863 5.310757160186768 C 37.10042953491211 2.782128572463989 43.45188522338867 1.5 50 1.5 C 56.54811477661133 1.5 62.89957046508789 2.782128572463989 68.8779296875 5.310757160186768 C 74.65309906005859 7.753442764282227 79.84004211425781 11.2506856918335 84.29468536376953 15.70532894134521 C 88.74931335449219 20.15997123718262 92.24655914306641 25.34691429138184 94.68923950195312 31.12207221984863 C 97.21787261962891 37.10042953491211 98.5 43.45188522338867 98.5 50 C 98.5 56.54811477661133 97.21787261962891 62.89957046508789 94.68923950195312 68.8779296875 C 92.24655914306641 74.65309906005859 88.74931335449219 79.84004211425781 84.29468536376953 84.29468536376953 C 79.84004211425781 88.74931335449219 74.65309906005859 92.24655914306641 68.8779296875 94.68923950195312 C 62.89957046508789 97.21787261962891 56.54811477661133 98.5 50 98.5 Z" stroke="none"/>
                        <path d="M 50 3 C 43.65372467041016 3 37.49886322021484 4.242263793945312 31.70639801025391 6.6922607421875 C 26.11003112792969 9.059326171875 21.08335113525391 12.44861602783203 16.76598358154297 16.76598358154297 C 12.44861602783203 21.08335113525391 9.059326171875 26.11003112792969 6.6922607421875 31.70639801025391 C 4.242263793945312 37.49886322021484 3 43.65372467041016 3 50 C 3 56.34627532958984 4.242263793945312 62.50113677978516 6.6922607421875 68.29360198974609 C 9.059326171875 73.88996887207031 12.44861602783203 78.91666412353516 16.76598358154297 83.23401641845703 C 21.08335113525391 87.55138397216797 26.11003112792969 90.940673828125 31.70639801025391 93.3077392578125 C 37.49886322021484 95.75773620605469 43.65372467041016 97 50 97 C 56.34627532958984 97 62.50113677978516 95.75773620605469 68.29360198974609 93.3077392578125 C 73.88996887207031 90.940673828125 78.91666412353516 87.55138397216797 83.23401641845703 83.23401641845703 C 87.55138397216797 78.91666412353516 90.940673828125 73.88996887207031 93.3077392578125 68.29360198974609 C 95.75773620605469 62.50113677978516 97 56.34627532958984 97 50 C 97 43.65372467041016 95.75773620605469 37.49886322021484 93.3077392578125 31.70639801025391 C 90.940673828125 26.11003112792969 87.55138397216797 21.08335113525391 83.23401641845703 16.76598358154297 C 78.91666412353516 12.44861602783203 73.88996887207031 9.059326171875 68.29360198974609 6.6922607421875 C 62.50113677978516 4.242263793945312 56.34627532958984 3 50 3 M 50 0 C 77.61424255371094 0 100 22.38577270507812 100 50 C 100 77.61424255371094 77.61424255371094 100 50 100 C 22.38577270507812 100 0 77.61424255371094 0 50 C 0 22.38577270507812 22.38577270507812 0 50 0 Z" stroke="none" fill="#866d08"/>
                      </g>
                    </g>
                  </g>
                </g>
              </g>
            </g>
          </g>
        </g>
      </g>
    </g>
    <path id="ibm" d="M0,0V2.046H14.55V0ZM16.612,0V2.046H37.346A7.894,7.894,0,0,0,32.423,0Zm24.8,0V2.046H53.958L53.213,0ZM62.951,0l-.745,2.046h12.43V0ZM0,3.978V6.024H14.55V3.978Zm16.612,0V6.024H39.752a5.376,5.376,0,0,0-.742-2.043h-22.4Zm24.8,0V6.024H55.333l-.689-2.043H41.414Zm20.048,0-.689,2.043H74.637V3.981ZM4.181,7.957v2.049h6.3V7.957h-6.3Zm16.612,0v2.049h6.3V7.957h-6.3Zm12.43,0v2.049h6.3a6.971,6.971,0,0,0,.4-2.049h-6.7Zm12.372,0v2.049H56.767l-.745-2.049H45.6Zm14.495,0-.748,2.049H70.57V7.957H60.09ZM4.181,11.938v2.046h6.3V11.938h-6.3Zm16.612,0v2.046H36.888a6.9,6.9,0,0,0,1.775-2.046Zm24.8,0v2.046h6.3V12.845l.4,1.139H63.839l.429-1.139v1.139h6.3V11.938H58.741l-.628,1.733-.631-1.733ZM4.181,15.917v2.046h6.3V15.917Zm16.612,0v2.046h17.87a6.948,6.948,0,0,0-1.775-2.046Zm24.8,0v2.046h6.3V15.917Zm7.446,0,.762,2.046h8.655l.724-2.046Zm11.227,0v2.046h6.3V15.917ZM4.181,19.895v2.046h6.3V19.895Zm16.612,0v2.046h6.3V19.895Zm12.43,0v2.046h6.7a6.951,6.951,0,0,0-.4-2.046h-6.3Zm12.372,0v2.046h6.3V19.895Zm8.877,0,.739,2.046h5.8l.745-2.046Zm9.8,0v2.046h6.3V19.895ZM.114,23.873v2.049h14.55V23.873Zm16.5,0v2.049h22.4a5.4,5.4,0,0,0,.742-2.049H16.612Zm24.916,0v2.049H51.9V23.873Zm14.378,0,.759,2.049h2.952l.712-2.049Zm8.363,0v2.049H74.751V23.873ZM.114,27.855V29.9h14.55V27.855Zm16.5,0V29.9H32.423a7.9,7.9,0,0,0,4.923-2.043Zm24.916,0V29.9H51.9V27.855Zm15.817,0,.73,2.04.126,0,.742-2.043Zm6.923,0V29.9H74.751V27.855Z" transform="translate(762.625 8159.413)" fill="#1f70c1"/>
  </g>
</svg>
