<svg xmlns="http://www.w3.org/2000/svg" xmlns:xlink="http://www.w3.org/1999/xlink" width="103" height="103" viewBox="0 0 103 103">
  <defs>
    <filter id="Trazado_978624" x="0" y="0" width="103" height="103" filterUnits="userSpaceOnUse">
      <feOffset dy="3" input="SourceAlpha"/>
      <feGaussianBlur stdDeviation="3" result="blur"/>
      <feFlood flood-opacity="0.161"/>
      <feComposite operator="in" in2="blur"/>
      <feComposite in="SourceGraphic"/>
    </filter>
  </defs>
  <g id="Grupo_1226141" data-name="Grupo 1226141" transform="translate(-171 -1142)">
    <g id="Grupo_1225355" data-name="Grupo 1225355" transform="translate(180 1148)">
      <g id="Grupo_1176881" data-name="Grupo 1176881">
        <g id="Grupo_1175148" data-name="Grupo 1175148">
          <g id="Grupo_1173798" data-name="Grupo 1173798">
            <g id="Grupo_1171925" data-name="Grupo 1171925">
              <g id="Grupo_1164524" data-name="Grupo 1164524">
                <g id="Grupo_1144123" data-name="Grupo 1144123">
                  <g transform="matrix(1, 0, 0, 1, -9, -6)" filter="url(#Trazado_978624)">
                    <g id="Trazado_978624-2" data-name="Trazado 978624" transform="translate(9 6)" fill="#e5ebfb">
                      <path d="M 42.5 83.5 C 36.96437835693359 83.5 31.59512901306152 82.41617584228516 26.54141235351562 80.27863311767578 C 21.65934181213379 78.21369171142578 17.27447128295898 75.25723266601562 13.50862312316895 71.49137878417969 C 9.742764472961426 67.72553253173828 6.786305904388428 63.34066009521484 4.721364498138428 58.45858764648438 C 2.583823442459106 53.40486907958984 1.5 48.03562164306641 1.5 42.5 C 1.5 36.96437835693359 2.583823442459106 31.59512901306152 4.721364498138428 26.54141235351562 C 6.786305904388428 21.65934181213379 9.742764472961426 17.27447128295898 13.50862312316895 13.50862312316895 C 17.27447128295898 9.742764472961426 21.65934181213379 6.786305904388428 26.54141235351562 4.721364498138428 C 31.59512901306152 2.583823442459106 36.96437835693359 1.5 42.5 1.5 C 48.03562164306641 1.5 53.40486907958984 2.583823442459106 58.45858764648438 4.721364498138428 C 63.34066009521484 6.786305904388428 67.72553253173828 9.742764472961426 71.49137878417969 13.50862312316895 C 75.25723266601562 17.27447128295898 78.21369171142578 21.65934181213379 80.27863311767578 26.54141235351562 C 82.41617584228516 31.59512901306152 83.5 36.96437835693359 83.5 42.5 C 83.5 48.03562164306641 82.41617584228516 53.40486907958984 80.27863311767578 58.45858764648438 C 78.21369171142578 63.34066009521484 75.25723266601562 67.72553253173828 71.49137878417969 71.49137878417969 C 67.72553253173828 75.25723266601562 63.34066009521484 78.21369171142578 58.45858764648438 80.27863311767578 C 53.40486907958984 82.41617584228516 48.03562164306641 83.5 42.5 83.5 Z" stroke="none"/>
                      <path d="M 42.5 3 C 37.16621398925781 3 31.99356079101562 4.043960571289062 27.125732421875 6.102882385253906 C 22.42246627807617 8.092185974121094 18.19785308837891 10.94070434570312 14.56928253173828 14.56928253173828 C 10.94070434570312 18.19785308837891 8.092185974121094 22.42246627807617 6.102882385253906 27.125732421875 C 4.043960571289062 31.99356079101562 3 37.16621398925781 3 42.5 C 3 47.83378601074219 4.043960571289062 53.00643920898438 6.102882385253906 57.87425231933594 C 8.092185974121094 62.57753372192383 10.94070434570312 66.80213165283203 14.56928253173828 70.43071746826172 C 18.19786834716797 74.05929565429688 22.42246627807617 76.90781402587891 27.125732421875 78.89711761474609 C 31.99356079101562 80.95603942871094 37.16621398925781 82 42.5 82 C 47.83378601074219 82 53.00642395019531 80.95603942871094 57.87425231933594 78.89711761474609 C 62.57753372192383 76.90781402587891 66.80213165283203 74.05929565429688 70.43071746826172 70.43071746826172 C 74.05929565429688 66.80213165283203 76.90781402587891 62.57753372192383 78.89711761474609 57.87425231933594 C 80.95603942871094 53.00642395019531 82 47.83378601074219 82 42.5 C 82 37.16621398925781 80.95603942871094 31.99356079101562 78.89711761474609 27.125732421875 C 76.90781402587891 22.42246627807617 74.05929565429688 18.19786834716797 70.43071746826172 14.56928253173828 C 66.80213165283203 10.94070434570312 62.57753372192383 8.092185974121094 57.87425231933594 6.102882385253906 C 53.00643920898438 4.043960571289062 47.83378601074219 3 42.5 3 M 42.5 0 C 65.97209167480469 0 85 19.02789306640625 85 42.5 C 85 65.97209167480469 65.97209167480469 85 42.5 85 C 19.02789306640625 85 0 65.97209167480469 0 42.5 C 0 19.02789306640625 19.02789306640625 0 42.5 0 Z" stroke="none" fill="#0b47db"/>
                    </g>
                  </g>
                </g>
              </g>
            </g>
          </g>
        </g>
      </g>
    </g>
    <g id="desarrollador-de-software_1_" data-name="desarrollador-de-software (1)" transform="translate(194.206 1134.857)">
      <g id="Grupo_1226133" data-name="Grupo 1226133" transform="translate(1.135 36.855)">
        <path id="Trazado_1214323" data-name="Trazado 1214323" d="M12.084,91.9A2.112,2.112,0,0,0,10,94.1v30.078a2.062,2.062,0,0,0,2.084,1.968h40.84a2.062,2.062,0,0,0,2.084-1.968v-15.5H53.115a1.555,1.555,0,0,1-1.554-1.556V106.01a1.686,1.686,0,0,0-2.5-1.443l-.96.555a1.554,1.554,0,0,1-2.124-.57l-1.79-3.1a1.556,1.556,0,0,1,.569-2.124l.96-.554a1.706,1.706,0,0,0,0-2.886l-.959-.554a1.556,1.556,0,0,1-.57-2.124l.756-1.31H12.084Z" transform="translate(-10 -91.901)" fill="#fff"/>
      </g>
      <g id="Grupo_1226134" data-name="Grupo 1226134" transform="translate(1.135 65.326)">
        <path id="Trazado_1214324" data-name="Trazado 1214324" d="M55.008,342.8V346.6a2.063,2.063,0,0,1-2.085,1.968H12.083A2.063,2.063,0,0,1,10,346.6V342.8Z" transform="translate(-10 -342.795)" fill="#ced3dd"/>
      </g>
      <g id="Grupo_1226138" data-name="Grupo 1226138" transform="translate(14.382 71.1)">
        <g id="Grupo_1226135" data-name="Grupo 1226135" transform="translate(1.327 0)">
          <path id="Trazado_1214325" data-name="Trazado 1214325" d="M152.186,399.694l-.7-6.011h-9.093l-.7,6.011a3.264,3.264,0,0,1-3.247,2.894c-.055,0,.056,0,0,0h16.987c-.056,0,.055,0,0,0A3.264,3.264,0,0,1,152.186,399.694Z" transform="translate(-138.43 -393.683)" fill="#868eaf"/>
        </g>
        <g id="Grupo_1226136" data-name="Grupo 1226136" transform="translate(0 8.908)">
          <path id="Trazado_1214326" data-name="Trazado 1214326" d="M128.082,472.183h-1.343" transform="translate(-126.739 -472.183)" fill="#7ba8bd"/>
        </g>
        <g id="Grupo_1226137" data-name="Grupo 1226137" transform="translate(18.329 8.908)">
          <path id="Trazado_1214327" data-name="Trazado 1214327" d="M289.606,472.183h-1.343" transform="translate(-288.263 -472.183)" fill="#7ba8bd"/>
        </g>
      </g>
      <g id="Grupo_1226139" data-name="Grupo 1226139" transform="translate(35.114 30.944)">
        <path id="Trazado_1214328" data-name="Trazado 1214328" d="M310.215,49.154l.959.554a1.705,1.705,0,0,1,0,2.886l-.96.554a1.555,1.555,0,0,0-.569,2.124l1.79,3.1a1.555,1.555,0,0,0,2.124.57l.96-.555a1.686,1.686,0,0,1,2.5,1.443v1.109a1.555,1.555,0,0,0,1.555,1.555h3.579a1.555,1.555,0,0,0,1.555-1.555V59.829a1.686,1.686,0,0,1,2.5-1.443l.96.555a1.555,1.555,0,0,0,2.124-.57l1.79-3.1a1.555,1.555,0,0,0-.57-2.124l-.959-.554a1.705,1.705,0,0,1,0-2.886l.959-.554a1.555,1.555,0,0,0,.57-2.124l-1.79-3.1a1.555,1.555,0,0,0-2.124-.569l-.96.554a1.686,1.686,0,0,1-2.5-1.443V41.364a1.555,1.555,0,0,0-1.555-1.555h-3.579a1.555,1.555,0,0,0-1.555,1.555v1.109a1.686,1.686,0,0,1-2.5,1.443l-.96-.554a1.555,1.555,0,0,0-2.124.569l-1.79,3.1A1.555,1.555,0,0,0,310.215,49.154Zm10.147-1.595a3.592,3.592,0,1,1-3.592,3.592A3.592,3.592,0,0,1,320.362,47.559Z" transform="translate(-309.436 -39.809)" fill="#ced3dd"/>
      </g>
      <g id="Grupo_1226140" data-name="Grupo 1226140" transform="translate(0 29.809)">
        <path id="Trazado_1214329" data-name="Trazado 1214329" d="M59.385,126.491a1.135,1.135,0,0,0-1.6.04l-3.226,3.39a1.135,1.135,0,0,0,0,1.564l3.226,3.39a1.135,1.135,0,0,0,1.644-1.565L56.944,130.7l2.481-2.607A1.135,1.135,0,0,0,59.385,126.491Z" transform="translate(-48.087 -115.243)"/>
        <path id="Trazado_1214330" data-name="Trazado 1214330" d="M195.355,134.915a1.146,1.146,0,0,0,1.6-.04l3.226-3.39a1.135,1.135,0,0,0,0-1.564l-3.226-3.39a1.135,1.135,0,1,0-1.644,1.564L197.8,130.7l-2.481,2.607A1.135,1.135,0,0,0,195.355,134.915Z" transform="translate(-172.874 -115.243)"/>
        <path id="Trazado_1214331" data-name="Trazado 1214331" d="M121.561,135.057a1.146,1.146,0,0,0,1.561-.371l4.176-6.779a1.135,1.135,0,1,0-1.932-1.19L121.19,133.5A1.135,1.135,0,0,0,121.561,135.057Z" transform="translate(-107.288 -115.242)"/>
        <path id="Trazado_1214332" data-name="Trazado 1214332" d="M74.788,231.017H55.377a1.135,1.135,0,0,0,0,2.27H74.788a1.135,1.135,0,0,0,0-2.27Z" transform="translate(-48.087 -208.185)"/>
        <path id="Trazado_1214333" data-name="Trazado 1214333" d="M55.377,281.762a1.135,1.135,0,0,0,0,2.27H69.26a1.135,1.135,0,1,0,0-2.27Z" transform="translate(-48.087 -253.171)"/>
        <path id="Trazado_1214334" data-name="Trazado 1214334" d="M230.243,282.9a1.135,1.135,0,0,0,1.135,1.135h9.694a1.135,1.135,0,1,0,0-2.27h-9.694A1.135,1.135,0,0,0,230.243,282.9Z" transform="translate(-204.116 -253.171)"/>
        <path id="Trazado_1214335" data-name="Trazado 1214335" d="M166.158,83.495a1.134,1.134,0,1,0,.5-1.429A1.143,1.143,0,0,0,166.158,83.495Z" transform="translate(-147.228 -76.015)"/>
        <path id="Trazado_1214336" data-name="Trazado 1214336" d="M270.318,232.822a1.134,1.134,0,1,0,.313-1.573A1.148,1.148,0,0,0,270.318,232.822Z" transform="translate(-239.478 -208.225)"/>
        <path id="Trazado_1214337" data-name="Trazado 1214337" d="M56.755,43.3l-.959-.554a.573.573,0,0,1,0-.921l.959-.554A2.693,2.693,0,0,0,57.74,37.6l-1.79-3.1a2.718,2.718,0,0,0-3.674-.984l-.96.554a.558.558,0,0,1-.8-.46V32.5a2.693,2.693,0,0,0-2.69-2.69H44.25a2.693,2.693,0,0,0-2.69,2.69v1.109a.558.558,0,0,1-.8.46l-.96-.554a2.718,2.718,0,0,0-3.674.984l-.706,1.222H25.058a1.135,1.135,0,1,0,0,2.27h9.094a2.717,2.717,0,0,0,1.172,3.282l.959.554a.573.573,0,0,1,0,.92l-.962.555a2.694,2.694,0,0,0-.983,3.674l1.789,3.1a2.719,2.719,0,0,0,3.675.986l.96-.555a.559.559,0,0,1,.8.46v1.109a2.714,2.714,0,0,0,2.65,2.69l.8.049v9.38H2.27V39.055a.978.978,0,0,1,.949-1.065h11.65a1.135,1.135,0,1,0,0-2.27H3.218A3.243,3.243,0,0,0,0,39.055V69.132H0a3.2,3.2,0,0,0,3.218,3.1H18.4l-.553,4.747a2.128,2.128,0,0,1-2.115,1.888h0a.4.4,0,0,0-.047,0l-1.3,0a1.135,1.135,0,0,0,0,2.27H34.054a1.135,1.135,0,1,0,0-2.27l-1.3,0h-.049a2.128,2.128,0,0,1-2.115-1.888v0l-.553-4.744h14.02a3.205,3.205,0,0,0,3.219-3.1V54.762h.552a2.693,2.693,0,0,0,2.69-2.69V50.963a.559.559,0,0,1,.8-.46l.961.555a2.718,2.718,0,0,0,3.674-.985l1.79-3.1A2.693,2.693,0,0,0,56.755,43.3ZM45.008,66.46v2.672a.931.931,0,0,1-.949.833H3.219a.931.931,0,0,1-.949-.833V66.46ZM28.337,77.24a4.394,4.394,0,0,0,.522,1.633H19.577a4.383,4.383,0,0,0,.521-1.631l.583-5.007h7.072Zm27.437-31.4-1.79,3.1a.422.422,0,0,1-.573.155l-.961-.555a2.843,2.843,0,0,0-4.2,2.425v1.109a.421.421,0,0,1-.42.42H44.25a.424.424,0,0,1-.42-.421V50.964a2.843,2.843,0,0,0-4.2-2.426l-.96.555a.424.424,0,0,1-.573-.154l-1.79-3.1a.421.421,0,0,1,.153-.574l.961-.554a2.857,2.857,0,0,0,0-4.851l-.959-.554a.428.428,0,0,1-.155-.574l1.79-3.1a.422.422,0,0,1,.574-.153l.96.554a2.843,2.843,0,0,0,4.2-2.425V32.5a.421.421,0,0,1,.42-.42h3.579a.421.421,0,0,1,.42.42v1.109a2.843,2.843,0,0,0,4.2,2.425l.961-.554a.422.422,0,0,1,.574.154l1.79,3.1a.421.421,0,0,1-.155.574l-.958.554a2.858,2.858,0,0,0,0,4.852l.959.554a.421.421,0,0,1,.154.574Z" transform="translate(0 -29.809)"/>
        <path id="Trazado_1214338" data-name="Trazado 1214338" d="M368.79,98.108a4.726,4.726,0,1,0,4.727,4.726A4.732,4.732,0,0,0,368.79,98.108Zm0,7.183a2.457,2.457,0,1,1,0-4.914,2.488,2.488,0,0,1,2.458,2.457A2.46,2.46,0,0,1,368.79,105.291Z" transform="translate(-322.751 -90.358)"/>
      </g>
    </g>
  </g>
</svg>
