<svg xmlns="http://www.w3.org/2000/svg" xmlns:xlink="http://www.w3.org/1999/xlink" width="108" height="108" viewBox="0 0 108 108">
  <defs>
    <filter id="Trazado_904820" x="0" y="0" width="108" height="108" filterUnits="userSpaceOnUse">
      <feOffset dy="3" input="SourceAlpha"/>
      <feGaussianBlur stdDeviation="3" result="blur"/>
      <feFlood flood-opacity="0.161"/>
      <feComposite operator="in" in2="blur"/>
      <feComposite in="SourceGraphic"/>
    </filter>
  </defs>
  <g id="Grupo_1226144" data-name="Grupo 1226144" transform="translate(-620 -1886)">
    <g id="Grupo_1225356" data-name="Grupo 1225356" transform="translate(629 1892)">
      <g id="Grupo_1173585" data-name="Grupo 1173585" transform="translate(0 0)">
        <g id="Grupo_1173428" data-name="Grupo 1173428">
          <g id="Grupo_1171958" data-name="Grupo 1171958">
            <g id="Grupo_1167341" data-name="Grupo 1167341">
              <g id="Grupo_1166792" data-name="Grupo 1166792">
                <g transform="matrix(1, 0, 0, 1, -9, -6)" filter="url(#Trazado_904820)">
                  <g id="Trazado_904820-2" data-name="Trazado 904820" transform="translate(9 6)" fill="#e5fdfa">
                    <path d="M 44.99999618530273 88.50002288818359 C 39.12687301635742 88.50002288818359 33.43022155761719 87.35009765625 28.06829643249512 85.08218383789062 C 22.88852119445801 82.89133453369141 18.23629570007324 79.75460815429688 14.24084663391113 75.7591552734375 C 10.24540901184082 71.76371002197266 7.108683586120605 67.11148071289062 4.917821407318115 61.93170928955078 C 2.649921178817749 56.56978225708008 1.499996185302734 50.87313079833984 1.499996185302734 45.00000762939453 C 1.499996185302734 39.12688446044922 2.649921178817749 33.43023300170898 4.917821407318115 28.06830787658691 C 7.108683586120605 22.8885326385498 10.24540901184082 18.23630714416504 14.24084663391113 14.24085807800293 C 18.23629570007324 10.24542045593262 22.88852119445801 7.108695030212402 28.06829643249512 4.917832851409912 C 33.43022155761719 2.649932622909546 39.12687301635742 1.500007629394531 44.99999618530273 1.500007629394531 C 50.87311935424805 1.500007629394531 56.56977081298828 2.649932622909546 61.93169784545898 4.917832851409912 C 67.11147308349609 7.108695030212402 71.76369476318359 10.24542045593262 75.75914764404297 14.24085807800293 C 79.75458526611328 18.23630714416504 82.89131164550781 22.8885326385498 85.08216857910156 28.06830787658691 C 87.35007476806641 33.43023300170898 88.5 39.12688446044922 88.5 45.00000762939453 C 88.5 50.87313079833984 87.35007476806641 56.56978225708008 85.08216857910156 61.93170928955078 C 82.89131164550781 67.11148071289062 79.75458526611328 71.76371002197266 75.75914764404297 75.7591552734375 C 71.76369476318359 79.75460815429688 67.11147308349609 82.89133453369141 61.93169784545898 85.08218383789062 C 56.56977081298828 87.35009765625 50.87311935424805 88.50002288818359 44.99999618530273 88.50002288818359 Z" stroke="none"/>
                    <path d="M 44.99999618530273 2.999992370605469 C 39.32870864868164 2.999992370605469 33.82865142822266 4.110054016113281 28.65262603759766 6.299339294433594 C 23.65165710449219 8.414566040039062 19.15968322753906 11.44333648681641 15.301513671875 15.30150604248047 C 11.44333648681641 19.15967559814453 8.414566040039062 23.65164947509766 6.299339294433594 28.65262222290039 C 4.110054016113281 33.82866287231445 2.999992370605469 39.32872009277344 2.999992370605469 45.00000762939453 C 2.999992370605469 50.67129516601562 4.110054016113281 56.17133712768555 6.299339294433594 61.34738159179688 C 8.414566040039062 66.34835052490234 11.44333648681641 70.84030914306641 15.301513671875 74.69849395751953 C 19.15968322753906 78.55666351318359 23.65165710449219 81.58543395996094 28.65262603759766 83.70066833496094 C 33.82865142822266 85.88995361328125 39.32870864868164 87.00000762939453 44.99999618530273 87.00000762939453 C 50.67128372192383 87.00000762939453 56.17134094238281 85.88995361328125 61.34736633300781 83.70066833496094 C 66.34834289550781 81.58543395996094 70.84030914306641 78.55666351318359 74.69847869873047 74.69849395751953 C 78.55665588378906 70.84030914306641 81.58542633056641 66.34835052490234 83.70065307617188 61.34738159179688 C 85.88993835449219 56.17133712768555 87 50.67129516601562 87 45.00000762939453 C 87 39.32872009277344 85.88993835449219 33.82866287231445 83.70065307617188 28.65262222290039 C 81.58542633056641 23.65164947509766 78.55665588378906 19.15967559814453 74.69847869873047 15.30150604248047 C 70.84030914306641 11.44333648681641 66.34834289550781 8.414566040039062 61.34736633300781 6.299339294433594 C 56.17134094238281 4.110054016113281 50.67128372192383 2.999992370605469 44.99999618530273 2.999992370605469 M 44.99999618530273 -7.62939453125e-06 C 69.85281372070312 -7.62939453125e-06 90 20.14717864990234 90 45.00000762939453 C 90 69.85280609130859 69.85281372070312 90.00000762939453 44.99999618530273 90.00000762939453 C 20.14717864990234 90.00000762939453 -7.62939453125e-06 69.85280609130859 -7.62939453125e-06 45.00000762939453 C -7.62939453125e-06 20.14717864990234 20.14717864990234 -7.62939453125e-06 44.99999618530273 -7.62939453125e-06 Z" stroke="none" fill="#098576"/>
                  </g>
                </g>
              </g>
            </g>
          </g>
        </g>
      </g>
    </g>
    <g id="clasificacion" transform="translate(627.806 1908.558)">
      <path id="Trazado_1214339" data-name="Trazado 1214339" d="M226.006,266.244h1.147a2.295,2.295,0,1,1,0,4.59H212.717a2.815,2.815,0,0,1-1.712-.587,7.273,7.273,0,0,0-4.339-1.3V254.349c3.924-4.484,8.9-4.9,8.549-11.605a2.028,2.028,0,0,1,3.961-.707,15.324,15.324,0,0,1-.074,10.438h10.52a2.295,2.295,0,0,1,0,4.59h-.777a2.295,2.295,0,0,1,0,4.59h-.763a2.295,2.295,0,1,1,0,4.59h-2.078Z" transform="translate(-166.532 -211.059)" fill="#ffcebf"/>
      <path id="Trazado_1214340" data-name="Trazado 1214340" d="M218.036,242.748c.331,6.36-4.134,7.063-7.944,10.951a2.12,2.12,0,0,0-.605,1.482v13.764a7.263,7.263,0,0,1,4.338,1.305,2.821,2.821,0,0,0,1.712.586h-2.819a2.821,2.821,0,0,1-1.712-.586,7.265,7.265,0,0,0-4.338-1.305V254.353c3.924-4.483,8.9-4.9,8.549-11.6a2.03,2.03,0,0,1,3.229-1.739,1.9,1.9,0,0,1,.207.176A2.011,2.011,0,0,0,218.036,242.748Z" transform="translate(-166.533 -211.063)" fill="#ffb09e"/>
      <path id="Trazado_1214341" data-name="Trazado 1214341" d="M79.086,7.506H26.448A2.126,2.126,0,0,0,24.311,9.62V22.828a2.126,2.126,0,0,0,2.137,2.114H48.389l4.378,6.642,4.378-6.642H79.086a2.126,2.126,0,0,0,2.137-2.114V9.62A2.126,2.126,0,0,0,79.086,7.506Z" transform="translate(-6.574 -6.584)" fill="#eaf6ff"/>
      <g id="Grupo_1226142" data-name="Grupo 1226142" transform="translate(21.749 5.38)">
        <path id="Trazado_1214342" data-name="Trazado 1214342" d="M62.059,44.147,62.984,46a.615.615,0,0,0,.464.333l2.068.3a.607.607,0,0,1,.341,1.039l-1.5,1.443a.605.605,0,0,0-.177.539l.353,2.037a.614.614,0,0,1-.893.642l-1.85-.962a.622.622,0,0,0-.573,0l-1.85.962a.614.614,0,0,1-.893-.642l.353-2.037a.6.6,0,0,0-.177-.539l-1.5-1.443a.607.607,0,0,1,.341-1.039l2.068-.3A.615.615,0,0,0,60.03,46l.925-1.854a.618.618,0,0,1,1.1,0Z" transform="translate(-56.971 -43.807)" fill="#ffde5c"/>
        <path id="Trazado_1214343" data-name="Trazado 1214343" d="M143.1,44.147,144.03,46a.615.615,0,0,0,.464.333l2.068.3a.607.607,0,0,1,.341,1.039l-1.5,1.443a.605.605,0,0,0-.177.539l.353,2.037a.614.614,0,0,1-.893.642l-1.85-.962a.622.622,0,0,0-.573,0l-1.85.962a.614.614,0,0,1-.893-.642l.353-2.037a.6.6,0,0,0-.177-.539l-1.5-1.443a.607.607,0,0,1,.341-1.039l2.068-.3a.615.615,0,0,0,.464-.333L142,44.147a.619.619,0,0,1,1.1,0Z" transform="translate(-128.062 -43.807)" fill="#ffde5c"/>
        <path id="Trazado_1214344" data-name="Trazado 1214344" d="M224.151,44.147,225.076,46a.615.615,0,0,0,.464.333l2.068.3a.607.607,0,0,1,.341,1.039l-1.5,1.443a.6.6,0,0,0-.177.539l.353,2.037a.614.614,0,0,1-.893.642l-1.85-.962a.622.622,0,0,0-.573,0l-1.85.962a.614.614,0,0,1-.893-.642l.353-2.037a.6.6,0,0,0-.177-.539l-1.5-1.443a.607.607,0,0,1,.341-1.039l2.068-.3a.615.615,0,0,0,.464-.333l.925-1.854a.619.619,0,0,1,1.1,0Z" transform="translate(-199.155 -43.807)" fill="#ffde5c"/>
        <path id="Trazado_1214345" data-name="Trazado 1214345" d="M305.2,44.147,306.122,46a.615.615,0,0,0,.464.333l2.068.3A.607.607,0,0,1,309,47.669l-1.5,1.443a.6.6,0,0,0-.177.539l.353,2.037a.614.614,0,0,1-.893.642l-1.85-.962a.622.622,0,0,0-.573,0l-1.85.962a.614.614,0,0,1-.893-.642l.353-2.037a.6.6,0,0,0-.177-.539l-1.5-1.443a.607.607,0,0,1,.341-1.039l2.068-.3a.615.615,0,0,0,.464-.333l.925-1.854a.619.619,0,0,1,1.1,0Z" transform="translate(-270.246 -43.807)" fill="#ffde5c"/>
        <path id="Trazado_1214346" data-name="Trazado 1214346" d="M386.244,44.147,387.169,46a.615.615,0,0,0,.464.333l2.068.3a.607.607,0,0,1,.341,1.039l-1.5,1.443a.6.6,0,0,0-.177.539l.353,2.037a.614.614,0,0,1-.893.642l-1.85-.962a.622.622,0,0,0-.573,0l-1.85.962a.614.614,0,0,1-.893-.642l.353-2.037a.6.6,0,0,0-.177-.539l-1.5-1.443a.607.607,0,0,1,.341-1.039l2.068-.3a.615.615,0,0,0,.464-.333l.925-1.854a.619.619,0,0,1,1.1,0Z" transform="translate(-341.339 -43.807)" fill="#ffde5c"/>
      </g>
      <path id="Trazado_1214347" data-name="Trazado 1214347" d="M170.979,337.153h4.383v18.365h-4.383Z" transform="translate(-135.228 -295.743)" fill="#f5fcff"/>
      <path id="Trazado_1214348" data-name="Trazado 1214348" d="M170.98,337.156H173.8V355.52H170.98Z" transform="translate(-135.228 -295.746)" fill="#d8ecfe"/>
      <path id="Trazado_1214349" data-name="Trazado 1214349" d="M99.734,318.462h8.751v22.849H99.734Z" transform="translate(-72.733 -279.348)" fill="#8cbdf9"/>
      <path id="Trazado_1214350" data-name="Trazado 1214350" d="M99.731,318.463h2.819v22.849H99.731Z" transform="translate(-72.73 -279.349)" fill="#73a2da"/>
      <g id="Grupo_1226143" data-name="Grupo 1226143" transform="translate(16.817)">
        <path id="Trazado_1214351" data-name="Trazado 1214351" d="M60.286,37.8a1.534,1.534,0,0,0-.838.4,1.534,1.534,0,0,0-.838-.4L56.7,37.526l-.853-1.709a1.54,1.54,0,0,0-2.753,0l-.853,1.709-1.911.275c-1.591.261-1.713,1.643-.849,2.614l1.376,1.327-.324,1.871c-.166,1.839.813,2,2.226,1.617l1.711-.89,1.711.89a1.559,1.559,0,0,0,2.226-1.617l-.324-1.871,1.364-1.315,1.364,1.315-.325,1.871a1.559,1.559,0,0,0,2.226,1.617l1.712-.89,1.711.89c1.4.632,2.409-.166,2.226-1.617l-.325-1.871L69.4,40.425l1.364,1.315-.324,1.871a1.559,1.559,0,0,0,2.226,1.617l1.711-.89,1.711.89c1.39.6,2.526-.043,2.226-1.617l-.324-1.871,1.365-1.315,1.364,1.315L80.4,43.612a1.559,1.559,0,0,0,2.226,1.617l1.712-.89,1.711.89c1.537.571,2.4-.1,2.226-1.617l-.325-1.871,1.365-1.315,1.364,1.315-.324,1.871a1.559,1.559,0,0,0,2.226,1.617l1.711-.89,1.711.89c1.409.663,2.453-.074,2.226-1.617L97.9,41.741l1.377-1.327a1.44,1.44,0,0,0-.85-2.614l-1.911-.275-.853-1.709a1.441,1.441,0,0,0-2.753,0l-.853,1.709-1.911.275a1.534,1.534,0,0,0-.838.4,1.534,1.534,0,0,0-.838-.4l-1.911-.275-.853-1.709a1.446,1.446,0,0,0-2.753,0L82.1,37.526l-1.911.275a1.534,1.534,0,0,0-.838.4,1.534,1.534,0,0,0-.838-.4l-1.911-.275-.853-1.709a1.432,1.432,0,0,0-2.753,0l-.853,1.709L70.24,37.8a1.535,1.535,0,0,0-.838.4,1.533,1.533,0,0,0-.838-.4l-1.91-.275L65.8,35.817c-.634-1.378-2.06-1.387-2.753,0L62.2,37.526Zm-3.6,2.73a1.524,1.524,0,0,0-.445,1.36l.246,1.42-1.3-.678a1.544,1.544,0,0,0-1.423,0l-1.3.678.246-1.42a1.524,1.524,0,0,0-.445-1.36l-1.034-1,1.438-.207a1.537,1.537,0,0,0,1.157-.834l.653-1.308.653,1.308a1.536,1.536,0,0,0,1.157.834l1.439.207Zm35.793-1.2a1.536,1.536,0,0,0,1.157-.834l.653-1.308.653,1.308a1.536,1.536,0,0,0,1.157.833l1.438.207-1.034,1a1.524,1.524,0,0,0-.445,1.36l.246,1.42L95,42.632a1.544,1.544,0,0,0-1.423,0l-1.3.678.246-1.42a1.524,1.524,0,0,0-.445-1.36l-1.034-1Zm-9.954,0a1.537,1.537,0,0,0,1.157-.834l.653-1.308.653,1.308a1.536,1.536,0,0,0,1.157.833l1.438.207-1.034,1A1.525,1.525,0,0,0,86.1,41.89l.246,1.42-1.3-.678a1.544,1.544,0,0,0-1.423,0l-1.3.678.247-1.421a1.525,1.525,0,0,0-.445-1.359l-1.034-1Zm-9.954,0a1.536,1.536,0,0,0,1.157-.834l.653-1.308.653,1.308a1.536,1.536,0,0,0,1.157.834l1.439.207-1.034,1a1.524,1.524,0,0,0-.445,1.36l.246,1.42-1.3-.678a1.544,1.544,0,0,0-1.423,0l-1.3.678.246-1.42a1.524,1.524,0,0,0-.445-1.36l-1.034-1Zm-8.8-.834.653-1.308.653,1.308a1.536,1.536,0,0,0,1.157.833l1.438.207-1.034,1a1.525,1.525,0,0,0-.445,1.359l.246,1.42-1.3-.678a1.544,1.544,0,0,0-1.423,0l-1.3.678.247-1.421a1.525,1.525,0,0,0-.445-1.359l-1.034-1,1.438-.207A1.536,1.536,0,0,0,63.773,38.493Z" transform="translate(-45.003 -30.508)"/>
        <path id="Trazado_1214352" data-name="Trazado 1214352" d="M45.424,25.507a.921.921,0,0,0,1.538,0l4.1-6.228h9.389a.921.921,0,1,0,0-1.842H50.571a.922.922,0,0,0-.769.414l-3.608,5.475-3.608-5.475a.922.922,0,0,0-.769-.414H19.875a1.206,1.206,0,0,1-1.215-1.193V3.035a1.206,1.206,0,0,1,1.215-1.193H33.767a.921.921,0,1,0,0-1.842H19.875a3.05,3.05,0,0,0-3.058,3.035V16.244a3.05,3.05,0,0,0,3.058,3.035H41.32Z" transform="translate(-16.817 0)"/>
        <path id="Trazado_1214353" data-name="Trazado 1214353" d="M219.885,0h-34.14a.921.921,0,1,0,0,1.842h34.14A1.206,1.206,0,0,1,221.1,3.035V16.244a1.206,1.206,0,0,1-1.215,1.193h-7.45a.921.921,0,0,0,0,1.842h7.45a3.05,3.05,0,0,0,3.058-3.035V3.035A3.05,3.05,0,0,0,219.885,0Z" transform="translate(-164.189)"/>
        <path id="Trazado_1214354" data-name="Trazado 1214354" d="M132.459,248.191a3.22,3.22,0,0,0-3.216-3.216h-9.232a16.545,16.545,0,0,0-.333-9.786,2.949,2.949,0,0,0-5.762,1.024c.211,4.058-1.676,5.466-4.288,7.415-.781.583-1.627,1.214-2.47,1.966a.921.921,0,0,0-.872-.625h-3.462v-1.374a.921.921,0,0,0-.921-.921H93.152a.921.921,0,0,0-.921.921v11.224a.921.921,0,0,0,1.842,0v-10.3h6.909v21.007H94.073v-6.1a.921.921,0,1,0-1.842,0v7.019a.921.921,0,0,0,.921.921H101.9a.921.921,0,0,0,.921-.921v-1.267h3.462a.921.921,0,0,0,.921-.921v-.891a5.348,5.348,0,0,1,2.857,1.035,3.757,3.757,0,0,0,2.272.777h14.436A3.24,3.24,0,0,0,129.4,260.1a3.311,3.311,0,0,0,.876-4.664,3.309,3.309,0,0,0,.768-4.583,3.215,3.215,0,0,0,1.418-2.665Zm-27.094,15.142h-2.541V246.811h2.541v16.523Zm23.878-13.769h-2.855a.921.921,0,1,0,0,1.842h2.078a1.374,1.374,0,0,1,0,2.748h-2.078a.921.921,0,1,0,0,1.842H127.7a1.374,1.374,0,1,1,0,2.747h-2.078a.921.921,0,0,0,0,1.842h1.148a1.374,1.374,0,0,1,0,2.747H112.336a1.9,1.9,0,0,1-1.151-.4,7.406,7.406,0,0,0-3.978-1.427V248.122a23.973,23.973,0,0,1,3.522-3.018c2.719-2.029,5.288-3.946,5.026-8.987a1.107,1.107,0,0,1,2.16-.391,14.37,14.37,0,0,1-.051,9.834.921.921,0,0,0,.858,1.256h10.52a1.374,1.374,0,1,1,0,2.747Z" transform="translate(-82.969 -204.48)"/>
      </g>
      <path id="Trazado_1214355" data-name="Trazado 1214355" d="M127.829,355.431a1.057,1.057,0,1,1,1.057-1.057A1.057,1.057,0,0,1,127.829,355.431Z" transform="translate(-96.45 -309.922)"/>
    </g>
  </g>
</svg>
