<svg xmlns="http://www.w3.org/2000/svg" xmlns:xlink="http://www.w3.org/1999/xlink" width="610" height="298" viewBox="0 0 610 298">
  <defs>
    <clipPath id="clip-path">
      <rect id="Rectángulo_422036" data-name="Rectángulo 422036" width="610" height="298" transform="translate(810 3616)" fill="#fff" stroke="#707070" stroke-width="1"/>
    </clipPath>
  </defs>
  <g id="Grupo_1226022" data-name="Grupo 1226022" transform="translate(-810 -3616)">
    <rect id="Rectángulo_422051" data-name="Rectángulo 422051" width="516" height="139" rx="22" transform="translate(857 3735)" fill="#fef9e5"/>
    <g id="Enmascarar_grupo_1208486" data-name="Enmascarar grupo 1208486" clip-path="url(#clip-path)">
      <g id="Grupo_1226021" data-name="Grupo 1226021" transform="translate(7644.4 -974.689)">
        <g id="Plant" transform="translate(-6742.308 4677.717)">
          <g id="Grupo_1225953" data-name="Grupo 1225953" transform="translate(220.2 90.648)">
            <path id="Trazado_1213858" data-name="Trazado 1213858" d="M2577.259,2230.181h-9.3c-4.194-24.847-10.643-49.219-23.393-71.759-4.995-8.841-10.748-19.768-3.477-27.766a10.958,10.958,0,0,1,5.69-3.414c5.321-1.148,10.242,2.424,13.2,6.112,6.375,7.914,9.031,17.471,10.769,26.912,2.2,11.949,3.1,24.067,3.994,36.153q1.249,16.881,2.508,33.761Z" transform="translate(-2537.644 -2110.688)" fill="#19322d"/>
            <g id="Grupo_1225952" data-name="Grupo 1225952" transform="translate(43.175)">
              <path id="Trazado_1213859" data-name="Trazado 1213859" d="M3000.376,1997.516c-1.739,19.747-14.12,37.85-23.108,56.4a171.868,171.868,0,0,0-13.087,37.565h-16.1c-.042-.59-.074-1.18-.116-1.77a302.682,302.682,0,0,1,3.741-69.683c2.139-12.56,5.142-25.237,12.1-36.67,2.624-4.31,6.154-8.672,11.591-10.516,7.387-2.5,16.133.759,20.464,6.08s5.079,12.139,4.51,18.609Z" transform="translate(-2947.382 -1971.983)" fill="#3d5a54"/>
              <path id="Trazado_1213860" data-name="Trazado 1213860" d="M3021.265,2102.886h-.021a.361.361,0,0,1-.348-.39,232.4,232.4,0,0,1,14.289-69.335c1.781-4.8,3.751-9.652,5.648-14.352,4.5-11.1,9.157-22.56,11.591-34.193a.366.366,0,0,1,.717.148c-2.445,11.7-7.113,23.2-11.634,34.32-1.907,4.689-3.867,9.536-5.647,14.331a231.565,231.565,0,0,0-14.236,69.114.356.356,0,0,1-.369.348Z" transform="translate(-3013.149 -1983.023)"/>
            </g>
          </g>
          <g id="Grupo_1225955" data-name="Grupo 1225955" transform="translate(348.939 0)">
            <path id="Trazado_1213861" data-name="Trazado 1213861" d="M4043.958,1600.608a62.716,62.716,0,0,0-23.582,5.437l-7.176-5.616a54.468,54.468,0,0,1,28.619-10.474,15.107,15.107,0,0,1,6.733.769c2.2.9,4.246,2.877,4.415,4.984.316,3.867-4.942,4.742-9.02,4.91Z" transform="translate(-3986.457 -1539.504)" fill="#19322d"/>
            <path id="Trazado_1213862" data-name="Trazado 1213862" d="M3813.263,1177.256l-4.763-3.73c7.808-14.394,14.267-29.452,16.765-46.09.98-6.523,2.413-14.426,9.336-15.606a7.152,7.152,0,0,1,4.278.527c3.182,1.549,4.268,5.342,4.31,8.419.095,6.6-2.371,12.56-5.269,18.082a219.1,219.1,0,0,1-12.434,20.1q-6.117,9.136-12.234,18.282Z" transform="translate(-3803.326 -1111.716)" fill="#19322d"/>
            <g id="Grupo_1225954" data-name="Grupo 1225954" transform="translate(0 17.491)">
              <path id="Trazado_1213863" data-name="Trazado 1213863" d="M3823.793,1300.964c-8.8,9.41-22.391,13.72-34.415,19.61a111.056,111.056,0,0,0-21.738,13.983l-8.24-6.449c.221-.316.432-.632.654-.959a197.062,197.062,0,0,1,29.821-34.162c6.122-5.574,12.739-10.853,20.885-13.92,3.066-1.159,6.617-1.981,10.147-.738a12.8,12.8,0,0,1,8.04,11.306c.095,4.457-2.265,8.251-5.142,11.328Z" transform="translate(-3759.4 -1277.709)" fill="#3d5a54"/>
              <path id="Trazado_1213864" data-name="Trazado 1213864" d="M3792.25,1376.689a.371.371,0,0,1-.242-.095.368.368,0,0,1-.042-.516,151.088,151.088,0,0,1,35.11-29.789c2.834-1.749,5.785-3.446,8.641-5.079,6.744-3.867,13.709-7.871,19.609-12.845a.366.366,0,1,1,.474.559c-5.943,5.016-12.95,9.03-19.715,12.919-2.855,1.633-5.8,3.33-8.619,5.068a150.35,150.35,0,0,0-34.941,29.641.371.371,0,0,1-.274.126Z" transform="translate(-3788.456 -1322.95)"/>
            </g>
          </g>
          <g id="Grupo_1225957" data-name="Grupo 1225957" transform="translate(335.623 155.087)">
            <path id="Trazado_1213865" data-name="Trazado 1213865" d="M4108.392,2887.444a68.729,68.729,0,0,0-11.665,12.644H4085.2a56.77,56.77,0,0,1,14.457-20.147,16,16,0,0,1,6.123-3.762c2.424-.7,5.426-.369,6.943,1.275,2.793,3.024-1.033,7.187-4.331,10Z" transform="translate(-4037.553 -2845.032)" fill="#19322d"/>
            <path id="Trazado_1213866" data-name="Trazado 1213866" d="M3655.4,2642.6c0,1.623-.021,3.235-.031,4.857H3646.6a129.143,129.143,0,0,0-9.821-32.645c-2.94-6.354-6.291-14.172-.843-19.272a7.545,7.545,0,0,1,4.1-2.033c3.72-.5,6.9,2.234,8.736,4.942,3.941,5.785,5.237,12.5,5.9,19.083a233.956,233.956,0,0,1,.737,25.057Z" transform="translate(-3633.027 -2592.397)" fill="#19322d"/>
            <g id="Grupo_1225956" data-name="Grupo 1225956" transform="translate(24.37)">
              <path id="Trazado_1213867" data-name="Trazado 1213867" d="M3900.4,2601.118c-1.148,13.109-9.115,25.163-15.226,37.449H3864.3a208.527,208.527,0,0,1,2.561-21.938c1.475-8.662,3.541-17.4,8.335-25.279,1.8-2.971,4.236-5.985,7.987-7.25,5.09-1.718,11.117.516,14.109,4.183s3.5,8.367,3.108,12.824Z" transform="translate(-3864.3 -2583.511)" fill="#3d5a54"/>
              <path id="Trazado_1213868" data-name="Trazado 1213868" d="M3945.957,2645.746h-.084a.359.359,0,0,1-.274-.442,164,164,0,0,1,6.09-20.442c1.222-3.309,2.582-6.66,3.9-9.895,3.1-7.639,6.312-15.542,7.987-23.551a.366.366,0,0,1,.717.147c-1.686,8.072-4.91,16.006-8.019,23.677-1.306,3.235-2.666,6.575-3.888,9.873a163.556,163.556,0,0,0-6.059,20.347.371.371,0,0,1-.358.285Z" transform="translate(-3937.021 -2590.321)"/>
            </g>
          </g>
          <g id="Grupo_1225958" data-name="Grupo 1225958" transform="translate(0 116.491)">
            <path id="Trazado_1213869" data-name="Trazado 1213869" d="M471.555,2924.553H456.086a28.954,28.954,0,0,1-7.2-10.232c-1.328-3.33-1.623-7.692,1.159-9.947a5.717,5.717,0,0,1,3.783-1.191,6.58,6.58,0,0,1,1.286.137,8.5,8.5,0,0,1,2.476.9,17.88,17.88,0,0,1,5.543,5.69,95.776,95.776,0,0,1,8.409,14.657Z" transform="translate(-447.91 -2830.903)" fill="#19322d"/>
            <path id="Trazado_1213870" data-name="Trazado 1213870" d="M513.078,2276.906q-.047,17.007-1.338,33.983H471.4a132.314,132.314,0,0,1-12.961-15.732c-.327-.453-.643-.917-.959-1.38q-1.423-2.071-2.74-4.257c-3.541-5.943-6.2-12.465-5.753-19.272.095-1.56.7-3.456,2.234-3.7a3.539,3.539,0,0,1,2.065.516c8.988,4.468,14.742,13.393,20.063,21.907-4.9-13.361-9.821-26.849-11.749-40.948-.991-7.229-1.138-14.794,1.5-21.591a9.352,9.352,0,0,1,3.382-4.668h0a4.754,4.754,0,0,1,1.412-.58c2.129-.474,4.278.675,6.027,1.981,7.06,5.311,11.138,13.7,13.835,22.107a195.051,195.051,0,0,0,7.25,19.494c-.58-10.938-3.235-29.462-1.412-40.252.875-5.163,2.476-7.618,6.544-7.239,2.729.253,6.617,20.664,7.671,23.192,4.773,11.412,5.29,24.1,5.258,36.459Z" transform="translate(-448.833 -2217.238)" fill="#3d5a54"/>
            <path id="Trazado_1213871" data-name="Trazado 1213871" d="M491.755,2732.762a.4.4,0,0,1-.274-.116c-13.119-13.993-24.615-26.954-32.56-43.729a.372.372,0,1,1,.674-.316c7.9,16.68,19.357,29.588,32.434,43.539a.366.366,0,0,1-.021.517.38.38,0,0,1-.253.095Z" transform="translate(-457.731 -2638.742)"/>
            <path id="Trazado_1213872" data-name="Trazado 1213872" d="M644.706,2342.883a.353.353,0,0,1-.285-.137c-9-10.727-16.059-24.025-21.6-40.674-4.763-14.3-7.829-29.114-11.085-45.6a.37.37,0,1,1,.727-.137c5.69,28.893,12.139,61.643,32.518,85.942a.376.376,0,0,1-.042.516.418.418,0,0,1-.232.084Z" transform="translate(-594.466 -2251.94)"/>
          </g>
          <g id="Grupo_1225960" data-name="Grupo 1225960" transform="translate(287.191 140.486)">
            <g id="Grupo_1225959" data-name="Grupo 1225959">
              <path id="Trazado_1213873" data-name="Trazado 1213873" d="M3208.836,2482.333a168.949,168.949,0,0,1-13.54,19.62c-3.362,4.194-6.934,8.24-10.063,12.655H3173.4c.664-2.74,1.338-5.311,1.823-7.45a235.781,235.781,0,0,1,7.935-27.5c4.889-13.772,12.128-28.208,23.551-33.572,2.413-1.138,5.216-1.76,7.229-.189a8.049,8.049,0,0,1,2.318,3.751c3.541,10.263-1.591,22.845-7.418,32.676Z" transform="translate(-3173.4 -2444.952)" fill="#19322d"/>
              <path id="Trazado_1213874" data-name="Trazado 1213874" d="M3219.012,2519.8a.219.219,0,0,1-.137-.032.373.373,0,0,1-.2-.485c13.962-33.761,35.215-68.418,35.437-68.766a.367.367,0,0,1,.622.39c-.211.348-21.444,34.952-35.385,68.661A.389.389,0,0,1,3219.012,2519.8Z" transform="translate(-3213.88 -2449.772)"/>
            </g>
            <path id="Trazado_1213875" data-name="Trazado 1213875" d="M3477.242,2880.505l-2.181,9.473H3456.5a30.2,30.2,0,0,1,.084-4.478c.19-6.891.875-14.278,6.417-18.735a8.489,8.489,0,0,1,12.687,1.285C3478.644,2871.917,3478,2876.448,3477.242,2880.505Z" transform="translate(-3426.632 -2820.322)" fill="#3d5a54"/>
          </g>
        </g>
        <g id="Woman" transform="translate(-6693.785 4644.978)">
          <g id="Grupo_1225961" data-name="Grupo 1225961" transform="translate(90.631 204.315)">
            <path id="Trazado_1213876" data-name="Trazado 1213876" d="M2307.542,2838.865h-55.984l-4.2-28.377v-.105a.755.755,0,0,1-.031-.147h0l-.421-2.835,5.743.084,42.844.622h0c1.876,2.244,6.439,10,12.065,30.758Z" transform="translate(-2196.49 -2800.298)" fill="#523434"/>
            <path id="Trazado_1213877" data-name="Trazado 1213877" d="M1828.162,2830.008H1768.5a124.255,124.255,0,0,1,3.456-12.571,82.227,82.227,0,0,1,9.041-19.115h0c.179-.274.358-.548.548-.822h42.971l.126,1.138.316,2.782.021.221Z" transform="translate(-1768.5 -2791.441)" fill="#523434"/>
            <path id="Trazado_1213878" data-name="Trazado 1213878" d="M1893.76,2740.854s45.036,4.225,84.161-.854l.232,7.808s-55.3,5.89-85.952-1.76l1.56-5.205Z" transform="translate(-1879.166 -2740)" fill="#523434"/>
            <path id="Trazado_1213879" data-name="Trazado 1213879" d="M2346.955,2860.525h0a.36.36,0,0,1-.358-.379l.622-28.587a.365.365,0,0,1,.369-.359h0a.36.36,0,0,1,.358.38v.137l-.622,28.451A.364.364,0,0,1,2346.955,2860.525Z" transform="translate(-2285.681 -2821.59)"/>
            <path id="Trazado_1213880" data-name="Trazado 1213880" d="M2247.869,2860.525a.374.374,0,0,1-.369-.369v-28.587a.369.369,0,1,1,.738,0v28.587A.374.374,0,0,1,2247.869,2860.525Z" transform="translate(-2197.027 -2821.59)"/>
            <path id="Trazado_1213881" data-name="Trazado 1213881" d="M2584.862,2851.847a.37.37,0,0,1-.3-.147,84,84,0,0,1-10.39-19.083,107.335,107.335,0,0,1-3.677-10.611v-.021h0v-.116a.373.373,0,0,1,.369-.369.347.347,0,0,1,.358.285v.031a101.5,101.5,0,0,0,3.646,10.516,83.129,83.129,0,0,0,10.295,18.914.362.362,0,0,1-.074.517.35.35,0,0,1-.221.074Z" transform="translate(-2485.991 -2812.912)"/>
            <path id="Trazado_1213882" data-name="Trazado 1213882" d="M1877.45,2852.116a.333.333,0,0,1-.232-.084.358.358,0,0,1-.053-.516c.242-.306.474-.59.685-.864,9.4-12.139,15.838-27.871,16.133-28.609a.379.379,0,0,1,.348-.242.405.405,0,0,1,.369.369c0,.2,0,.095-.032.137-.274.675-6.754,16.543-16.238,28.788-.211.274-.443.569-.685.875a.354.354,0,0,1-.285.137Z" transform="translate(-1865.638 -2813.181)"/>
            <path id="Trazado_1213883" data-name="Trazado 1213883" d="M1930.157,2798.746c-9.568,0-16.986-.411-22.486-.917-13.256-1.212-18.461-3.171-18.672-3.256a.367.367,0,1,1,.263-.685c.063.021,5.385,2.012,18.546,3.214,12.16,1.106,33.7,1.749,67.228-1.475a.365.365,0,0,1,.074.727c-18.461,1.781-33.308,2.381-44.952,2.381Z" transform="translate(-1876.09 -2788.187)"/>
          </g>
          <g id="Woman-2" data-name="Woman" transform="translate(0 0)">
            <g id="Grupo_1225971" data-name="Grupo 1225971" transform="translate(25.226)">
              <path id="Trazado_1213884" data-name="Trazado 1213884" d="M1935.129,902.266c-11.781,14-89.693-3.383-89.693-3.846s-7.692-11.391,1.37-21.854-3.783-15.384-.759-27.239,11.022-12.307,9.81-23.087,4.594-18.451,11.011-19.8c10.474-2.2,18.82-10.495,25.985-.885a20.388,20.388,0,0,1,1.18,1.76,7.459,7.459,0,0,1,1.665-1.465c2.055-1.391,6.111-3.014,12.676-1.159,10.189,2.887,6.259,14.541,10.948,19.273s4.911,13.625,2.982,19.1,9.852,12.95,7.25,29.177,17.365,16.006,5.585,30Z" transform="translate(-1769.199 -801.015)" fill="#523434"/>
              <g id="Grupo_1225970" data-name="Grupo 1225970" transform="translate(0 5.431)">
                <g id="character_8" transform="translate(89.354)">
                  <g id="Grupo_1225968" data-name="Grupo 1225968">
                    <g id="Grupo_1225962" data-name="Grupo 1225962" transform="translate(3.815 31.258)">
                      <path id="Trazado_1213885" data-name="Trazado 1213885" d="M2045.494,1194.047c-.011-1.349-1.37-44.847-1.37-44.847l25.974,18.746c-.19,2.866.063,26.5.063,26.5l5.9,2.982s-22.012,30.147-42.539,3.214C2026.59,1202.181,2045.494,1194.047,2045.494,1194.047Z" transform="translate(-2031.995 -1149.2)" fill="#fab09d"/>
                      <path id="Trazado_1213886" data-name="Trazado 1213886" d="M2167.146,1344.984c4.384-.569,8.6-3.34,10.9-10.685-2.023.01-16.765-3.572-25.342-4.5.01.811.074,1.907.147,3.182A12.771,12.771,0,0,0,2167.146,1344.984Z" transform="translate(-2139.981 -1310.77)" fill="#c9785e"/>
                    </g>
                    <g id="Grupo_1225967" data-name="Grupo 1225967">
                      <path id="Trazado_1213887" data-name="Trazado 1213887" d="M2100.381,912.5c9.874,1.075,16.891-3.814,20.147-14.215,3.161-10.116,2.466-28.345,2.466-28.345.2-9.3-7.618-14.763-17.545-14.973l-4.13-2.4c-9.937-.211-18.219,7.229-18.419,16.533l2.666,21.549c2.476,20.073,12.613,21.612,14.826,21.854Z" transform="translate(-2073.72 -852.558)" fill="#fab09d"/>
                      <g id="Grupo_1225963" data-name="Grupo 1225963" transform="translate(20.254 29.847)">
                        <ellipse id="Elipse_12960" data-name="Elipse 12960" cx="1.401" cy="2.097" rx="1.401" ry="2.097" transform="translate(0 0.05) rotate(-0.9)"/>
                        <ellipse id="Elipse_12961" data-name="Elipse 12961" cx="1.401" cy="2.097" rx="1.401" ry="2.097" transform="translate(17.163 0.044) rotate(-0.9)"/>
                      </g>
                      <g id="Grupo_1225964" data-name="Grupo 1225964" transform="translate(0 26.164)">
                        <path id="Trazado_1213888" data-name="Trazado 1213888" d="M2006.345,1104.333c-.358-.221-5.964-6.923-9.589-1.1-2.013,3.33-2.192,18.609,12.613,15.079,0-.411,1.633-11.169-3.024-13.994Z" transform="translate(-1995.786 -1100.862)" fill="#fab09d"/>
                        <path id="Trazado_1213889" data-name="Trazado 1213889" d="M2026.9,1140.414a.355.355,0,0,1-.274-.126l-7.208-8.251a.366.366,0,1,1,.548-.485l7.208,8.25a.366.366,0,0,1-.032.516.372.372,0,0,1-.242.095Z" transform="translate(-2016.848 -1128.208)"/>
                      </g>
                      <g id="Grupo_1225965" data-name="Grupo 1225965" transform="translate(46.004 26.164)">
                        <path id="Trazado_1213890" data-name="Trazado 1213890" d="M2435.668,1104.333c.358-.221,5.964-6.923,9.589-1.1,2.013,3.33,2.192,18.609-12.613,15.079,0-.411-1.634-11.169,3.024-13.994Z" transform="translate(-2432.366 -1100.862)" fill="#fab09d"/>
                        <path id="Trazado_1213891" data-name="Trazado 1213891" d="M2465.364,1140.383a.372.372,0,0,1-.242-.095.358.358,0,0,1-.032-.516l7.208-8.251a.366.366,0,0,1,.548.485l-7.208,8.251a.37.37,0,0,1-.274.126Z" transform="translate(-2461.557 -1128.177)"/>
                      </g>
                      <g id="Grupo_1225966" data-name="Grupo 1225966" transform="translate(14.09 24.499)">
                        <path id="Trazado_1213892" data-name="Trazado 1213892" d="M2140.048,1086.51c-1.917.148-3.751.053-5.616.148-1.833.126-3.5.274-4.931,1.623a3.479,3.479,0,0,1,1.865-2.424c2.539-1.359,6.322-.864,8.682.653Z" transform="translate(-2129.5 -1085.062)"/>
                        <path id="Trazado_1213893" data-name="Trazado 1213893" d="M2317.2,1086.51c2.361-1.517,6.143-2.013,8.683-.653a3.48,3.48,0,0,1,1.865,2.424c-1.433-1.349-3.1-1.5-4.931-1.623-1.865-.105-3.7,0-5.616-.148Z" transform="translate(-2297.421 -1085.062)"/>
                      </g>
                      <path id="Trazado_1213894" data-name="Trazado 1213894" d="M2224.061,1307.3a25.03,25.03,0,0,1-13.161,0S2218.076,1317.943,2224.061,1307.3Z" transform="translate(-2188.233 -1259.383)" fill="#fff"/>
                    </g>
                  </g>
                </g>
                <g id="Grupo_1225969" data-name="Grupo 1225969" transform="translate(0 78.675)">
                  <path id="Trazado_1213895" data-name="Trazado 1213895" d="M2718.5,1970.6s29.82,37.049,32.486,72.37c-.116.938-9.7,10.168-14.447,10.158-14.741-.042-36.343-57.776-36.343-57.776S2703.361,1979.483,2718.5,1970.6Z" transform="translate(-2536.62 -1931.465)" fill="#fab09d"/>
                  <path id="Trazado_1213896" data-name="Trazado 1213896" d="M2705.447,1815.964c-6.385-11.865-31.886-56.764-31.886-56.764-13.488,11.233-13.561,43.74-13.561,43.74s8.8,34.362,14.5,39.241Z" transform="translate(-2500.656 -1742.34)" fill="#e39a50"/>
                  <path id="Trazado_1213897" data-name="Trazado 1213897" d="M2950.5,2167.438h0c7.482,5.132,17.039.527,22.655-8.556l27.47-50.01L2985.3,2100l-36.417,42c-6.723,8.5-5.975,20.231,1.623,25.448Z" transform="translate(-2754.989 -2047.229)" fill="#fab09d"/>
                  <path id="Trazado_1213898" data-name="Trazado 1213898" d="M1182.257,1930.5h0c-8.493,3.182-16.249-4.267-19.5-14.436L1147.8,1859.6l13.477-8.7,24.773,46.575C1190.529,1907.348,1190.887,1927.274,1182.257,1930.5Z" transform="translate(-1147.8 -1824.378)" fill="#fab09d"/>
                  <path id="Trazado_1213899" data-name="Trazado 1213899" d="M1356.611,1813.5s-39.125,35.626-46.511,70.262c-.01.938,10.411,15.11,15.037,14.046,21.475-4.974,45.458-58.334,45.458-58.334A38.4,38.4,0,0,0,1356.611,1813.5Z" transform="translate(-1292.998 -1790.919)" fill="#fab09d"/>
                  <path id="Trazado_1213900" data-name="Trazado 1213900" d="M1499.31,1721.7s-13.3,9.673-35.11,41.032l24.383,32.455,19.252-26.554S1512.8,1732.933,1499.31,1721.7Z" transform="translate(-1430.86 -1708.792)" fill="#e39a50"/>
                  <path id="Trazado_1213901" data-name="Trazado 1213901" d="M1825.987,1599.242a41.2,41.2,0,0,0-3.393,4.689,17.567,17.567,0,0,1-31.38-3.52,8.349,8.349,0,0,1-.3-1.212l-28.335,10.484a13.317,13.317,0,0,0-8.514,14.668l15.964,95.91c23.35,3.677,56.248,3.024,84.161-.854,0,0,1.465-29.336,10.442-94.8a13.3,13.3,0,0,0-8.588-14.3L1826,1599.253Z" transform="translate(-1690.025 -1599.2)" fill="#e39a50"/>
                </g>
                <path id="Trazado_1213902" data-name="Trazado 1213902" d="M2723.252,2065.287h-.042a.376.376,0,0,1-.327-.411l5.753-48.366a.371.371,0,0,1,.738.084l-5.754,48.366A.366.366,0,0,1,2723.252,2065.287Z" transform="translate(-2556.911 -1893.568)"/>
                <path id="Trazado_1213903" data-name="Trazado 1213903" d="M1788.958,2054.469a.354.354,0,0,1-.358-.305l-6.238-37.481a.368.368,0,0,1,.727-.116l6.238,37.481a.369.369,0,0,1-.306.421Z" transform="translate(-1715.492 -1893.635)"/>
                <path id="Trazado_1213904" data-name="Trazado 1213904" d="M3040.35,2345.892a.375.375,0,0,1-.284-.611l8.735-10.074a.366.366,0,0,1,.559.474l-8.736,10.073a.372.372,0,0,1-.274.127Z" transform="translate(-2840.596 -2178.862)"/>
                <path id="Trazado_1213905" data-name="Trazado 1213905" d="M1446.929,2170.979a.361.361,0,0,1-.327-.2l-7.155-14.036a.368.368,0,0,1,.653-.337l7.155,14.035a.368.368,0,0,1-.158.5A.332.332,0,0,1,1446.929,2170.979Z" transform="translate(-1408.679 -2018.838)"/>
              </g>
              <path id="Trazado_1213906" data-name="Trazado 1213906" d="M2255.245,1157.693a6.785,6.785,0,0,1-1.191-.116.37.37,0,0,1,.137-.727,4.907,4.907,0,0,0,1.833.032,1.4,1.4,0,0,0,1.107-1.633l-1.633-9.157a.37.37,0,1,1,.727-.137l1.633,9.157a2.146,2.146,0,0,1-1.707,2.5,5.2,5.2,0,0,1-.917.084Z" transform="translate(-2137.217 -1109.339)"/>
              <path id="Trazado_1213907" data-name="Trazado 1213907" d="M2117.845,856.934c-1.085,3.951.875,8.788-2.013,11.7a.76.76,0,0,1-.253.19c-.359.126-.632-.337-.748-.706a29.165,29.165,0,0,0-4-8.293,6.7,6.7,0,0,0-1.812-1.918c-1.4-.885-3.214-.769-4.721-1.465a6.329,6.329,0,0,1-3.035-3.477,18.139,18.139,0,0,1-.98-4.373,7.417,7.417,0,0,1-3.351,6.628,16.018,16.018,0,0,1-7.576,2.434,74.5,74.5,0,0,0-7.977.917,3.058,3.058,0,0,0-.959.337,3.109,3.109,0,0,0-1,1.149c-1.56,2.582-1.992,5.216-2.508,8.1-1.18-2.055-1.38-5.058-1.7-7.376a35.805,35.805,0,0,1-.305-9.663,15.4,15.4,0,0,1,3.888-8.7,15.9,15.9,0,0,1,9.589-4.331,47.2,47.2,0,0,1,10.7.3c.537.053,1.064.116,1.6.169a20.4,20.4,0,0,1,1.18,1.76,7.46,7.46,0,0,1,1.665-1.465l2.708.284a25.235,25.235,0,0,1,9.62,2.592c1.5.632-1.212.032-.126,1.233a7.921,7.921,0,0,1,1.265,1.981,17.4,17.4,0,0,1,.864,12.012Z" transform="translate(-1977.025 -833.996)" fill="#523434"/>
            </g>
            <g id="Grupo_1226005" data-name="Grupo 1226005" transform="translate(0 107.141)">
              <rect id="Rectángulo_422037" data-name="Rectángulo 422037" width="103.128" height="135.741" fill="#e0d9d9"/>
              <g id="Grupo_1226004" data-name="Grupo 1226004" transform="translate(5.081 6.797)">
                <g id="Grupo_1225984" data-name="Grupo 1225984" transform="translate(1.863)">
                  <circle id="Elipse_12962" data-name="Elipse 12962" cx="25.131" cy="25.131" r="25.131" transform="translate(0.369 0.369)" fill="#fff"/>
                  <g id="Grupo_1225983" data-name="Grupo 1225983" transform="translate(4.689 6.878)">
                    <g id="Woman-3" data-name="Woman">
                      <g id="Woman-4" data-name="Woman">
                        <g id="Grupo_1225981" data-name="Grupo 1225981">
                          <path id="Trazado_1213908" data-name="Trazado 1213908" d="M1127.054,1973.2c-2.982,3.541-22.708-.854-22.708-.969a4.682,4.682,0,0,1,.348-5.532c2.287-2.645-.959-3.9-.19-6.891s2.792-3.119,2.487-5.838,1.159-4.668,2.782-5.016c2.655-.558,4.763-2.655,6.575-.221.095.137.2.284.295.443a1.873,1.873,0,0,1,.421-.369,3.743,3.743,0,0,1,3.2-.3c2.582.727,1.581,3.678,2.771,4.879s1.243,3.446.759,4.837,2.5,3.277,1.833,7.387,4.394,4.046,1.412,7.6Z" transform="translate(-1094.642 -1947.578)" fill="#523434"/>
                          <g id="Grupo_1225980" data-name="Grupo 1225980" transform="translate(0 0.981)">
                            <g id="character_8-2" data-name="character_8" transform="translate(12.906)">
                              <g id="Grupo_1225978" data-name="Grupo 1225978">
                                <g id="Grupo_1225972" data-name="Grupo 1225972" transform="translate(0.973 7.915)">
                                  <path id="Trazado_1213909" data-name="Trazado 1213909" d="M1153.923,2043.349c0-.337-.348-11.349-.348-11.349l6.575,4.742c-.042.727.021,6.712.021,6.712l1.169.559s-5.247,7.829-10.442,1.012C1149.139,2045.414,1153.923,2043.349,1153.923,2043.349Z" transform="translate(-1150.51 -2032)" fill="#fab09d"/>
                                  <path id="Trazado_1213910" data-name="Trazado 1213910" d="M1187.6,2083.614c-1.254.379-5.016,1.654-6.4-2.413.516,0,4.225-.169,6.4-.4Z" transform="translate(-1177.966 -2075.658)" fill="#c9785e"/>
                                </g>
                                <g id="Grupo_1225977" data-name="Grupo 1225977">
                                  <path id="Trazado_1213911" data-name="Trazado 1213911" d="M1167.726,1972.064c2.5.274,4.278-.969,5.1-3.593a27.864,27.864,0,0,0,.622-7.176c.053-2.35-1.928-3.741-4.447-3.793l-1.043-.611a4.439,4.439,0,0,0-4.657,4.183l.674,5.458C1164.6,1971.611,1167.167,1972,1167.726,1972.064Z" transform="translate(-1160.979 -1956.89)" fill="#fab09d"/>
                                  <g id="Grupo_1225973" data-name="Grupo 1225973" transform="translate(4.881 7.388)">
                                    <path id="Trazado_1213912" data-name="Trazado 1213912" d="M1187.6,2027.538c0,.295.168.527.358.527s.348-.242.348-.538-.169-.527-.358-.527S1187.6,2027.242,1187.6,2027.538Z" transform="translate(-1187.6 -2027)" fill="#31231d"/>
                                    <path id="Trazado_1213913" data-name="Trazado 1213913" d="M1228.8,2027.538c0,.295.169.527.358.527s.348-.242.348-.538-.169-.527-.358-.527S1228.8,2027.242,1228.8,2027.538Z" transform="translate(-1224.459 -2027)" fill="#31231d"/>
                                  </g>
                                  <g id="Grupo_1225974" data-name="Grupo 1225974" transform="translate(0 6.628)">
                                    <path id="Trazado_1213914" data-name="Trazado 1213914" d="M1143.945,2020.668c-.095-.052-1.507-1.749-2.424-.274-.506.843-.558,4.71,3.193,3.815C1144.715,2024.1,1145.125,2021.385,1143.945,2020.668Z" transform="translate(-1141.277 -2019.793)" fill="#fab09d"/>
                                    <path id="Trazado_1213915" data-name="Trazado 1213915" d="M1147.671,2028.5a.26.26,0,0,1-.2-.095l-1.823-2.086a.261.261,0,1,1,.39-.348l1.823,2.086a.265.265,0,0,1-.021.369.28.28,0,0,1-.169.063Z" transform="translate(-1145.129 -2025.241)"/>
                                  </g>
                                  <g id="Grupo_1225975" data-name="Grupo 1225975" transform="translate(11.64 6.628)">
                                    <path id="Trazado_1213916" data-name="Trazado 1213916" d="M1252.581,2020.668c.095-.052,1.507-1.749,2.423-.274.506.843.558,4.71-3.193,3.815C1251.812,2024.1,1251.4,2021.385,1252.581,2020.668Z" transform="translate(-1251.743 -2019.793)" fill="#fab09d"/>
                                    <path id="Trazado_1213917" data-name="Trazado 1213917" d="M1258.738,2028.588a.239.239,0,0,1-.168-.063.265.265,0,0,1-.021-.369l1.823-2.086a.261.261,0,0,1,.39.348l-1.823,2.086a.26.26,0,0,1-.2.095Z" transform="translate(-1257.773 -2025.331)"/>
                                  </g>
                                  <g id="Grupo_1225976" data-name="Grupo 1225976" transform="translate(3.592 5.789)">
                                    <path id="Trazado_1213918" data-name="Trazado 1213918" d="M1178.039,2012.358a5.523,5.523,0,0,1-1.412.211,2.748,2.748,0,0,0-1.254.242.844.844,0,0,1,.422-.738,1.879,1.879,0,0,1,2.245.284Z" transform="translate(-1175.37 -2011.824)"/>
                                    <path id="Trazado_1213919" data-name="Trazado 1213919" d="M1222.9,2012.358a1.883,1.883,0,0,1,2.245-.284.844.844,0,0,1,.422.738,2.638,2.638,0,0,0-1.254-.242,5.523,5.523,0,0,1-1.412-.211Z" transform="translate(-1217.892 -2011.824)"/>
                                  </g>
                                  <path id="Trazado_1213920" data-name="Trazado 1213920" d="M1197.714,2070.516a6.691,6.691,0,0,1-3.414-.116S1196.228,2073.14,1197.714,2070.516Z" transform="translate(-1188.713 -2058.439)" fill="#fff"/>
                                </g>
                              </g>
                            </g>
                            <g id="Grupo_1225979" data-name="Grupo 1225979" transform="translate(0 19.927)">
                              <path id="Trazado_1213921" data-name="Trazado 1213921" d="M1327.4,2244.715a25.027,25.027,0,0,1-6.386,5.11c-.074-.169-.148-.327-.211-.485a.039.039,0,0,0-.01-.032c-.738-1.728-1.191-2.95-1.191-2.95a10.324,10.324,0,0,1,2.033-4.036l.011-.01h0a9.656,9.656,0,0,1,2.582-2.213,47.366,47.366,0,0,1,3.172,4.636Z" transform="translate(-1287.904 -2230.184)" fill="#fab09d"/>
                              <path id="Trazado_1213922" data-name="Trazado 1213922" d="M1318.494,2196.332c-.074.084-.148.169-.221.242a25.044,25.044,0,0,1-6.385,5.111l-.285.158h-.01c-.253.137-.516.274-.78.411-.8-2.466-1.412-4.879-1.412-4.879s.021-8.229,3.435-11.075h0v.011h0v.042c.411.717,3.33,5.87,5.616,9.937Z" transform="translate(-1278.779 -2182.053)" fill="#3d5a54"/>
                              <path id="Trazado_1213923" data-name="Trazado 1213923" d="M1031.947,2206.675s-.7,1.559-1.833,3.656h0c-.422.79-.917,1.654-1.444,2.539a25.456,25.456,0,0,1-6.27-6.122,56.849,56.849,0,0,1,6.006-6.649c.021.021.042.031.063.052a9.723,9.723,0,0,1,3.477,6.522Z" transform="translate(-1022.021 -2194.4)" fill="#fab09d"/>
                              <path id="Trazado_1213924" data-name="Trazado 1213924" d="M1028.568,2188.786l-1.475,2.034h0l-1.18,1.623h0l-.474-.316a25.449,25.449,0,0,1-6.27-6.122c-.126-.169-.242-.348-.369-.527,4.668-6.4,7.5-8.5,7.6-8.577h0c3.414,2.845,2.16,11.875,2.16,11.875Z" transform="translate(-1018.8 -2173.644)" fill="#3d5a54"/>
                              <path id="Trazado_1213925" data-name="Trazado 1213925" d="M1108.016,2152.417c-.284,2.044-.527,3.941-.759,5.711-.337,2.624-.611,4.953-.843,6.986-.032.232-.053.463-.074.7-.253.137-.516.274-.78.411a25.063,25.063,0,0,1-11.222,2.635h-.095a25.047,25.047,0,0,1-11.991-3.088l-.432-2.592h0l-.2-1.233-.79-4.731-.811-4.847a2.892,2.892,0,0,1-.042-.6,3.359,3.359,0,0,1,1.159-2.5h0a3.13,3.13,0,0,1,1.043-.611l.506-.19,4.268-1.581h.032c0-.01,2.36-.885,2.36-.885h0a1.537,1.537,0,0,0,.074.306,4.547,4.547,0,0,0,.864,1.475,4.474,4.474,0,0,0,4.7,1.264h0a4.311,4.311,0,0,0,2.371-1.855c.116-.19.232-.358.337-.506h0c.3-.411.506-.664.527-.685h0l2.287.843.063.021,5.258,1.939a3.507,3.507,0,0,1,.948.537,3.226,3.226,0,0,1,.8.927h0v.01h0v.063a3.325,3.325,0,0,1,.379,2.076Z" transform="translate(-1073.528 -2146)" fill="#3d5a54"/>
                            </g>
                            <path id="Trazado_1213926" data-name="Trazado 1213926" d="M1328.064,2260.983a.261.261,0,0,1-.264-.263v-.042l1.022-8.577.527.063-1.022,8.588a.255.255,0,0,1-.263.232Z" transform="translate(-1295.24 -2220.993)"/>
                            <path id="Trazado_1213927" data-name="Trazado 1213927" d="M1087.261,2258.858a.27.27,0,0,1-.263-.221l-1.423-8.556a.267.267,0,1,1,.527-.084l1.423,8.556a.271.271,0,0,1-.221.306Z" transform="translate(-1078.536 -2218.911)"/>
                          </g>
                          <path id="Trazado_1213928" data-name="Trazado 1213928" d="M1204.827,2030.731a1.08,1.08,0,0,1-.264-.021.717.717,0,0,1-.569-.833l.411-2.318a.263.263,0,1,1,.516.095l-.411,2.318a.184.184,0,0,0,.147.221,1.279,1.279,0,0,0,.4,0,.251.251,0,0,1,.306.211.258.258,0,0,1-.211.306,1.844,1.844,0,0,1-.337.031Z" transform="translate(-1184.469 -2018.937)"/>
                          <path id="Trazado_1213929" data-name="Trazado 1213929" d="M1172.258,1957.93c-.274,1,.221,2.223-.506,2.961-.021.021-.042.042-.063.042-.095.031-.158-.084-.19-.179a7.285,7.285,0,0,0-1.011-2.1,1.659,1.659,0,0,0-.453-.485,9.2,9.2,0,0,0-1.191-.369,1.6,1.6,0,0,1-.769-.885,4.33,4.33,0,0,1-.242-1.106,1.864,1.864,0,0,1-.853,1.675,4.081,4.081,0,0,1-1.918.611,18.516,18.516,0,0,0-2.023.232.946.946,0,0,0-.242.084.73.73,0,0,0-.253.285,5.618,5.618,0,0,0-.632,2.055,5.546,5.546,0,0,1-.432-1.865,8.642,8.642,0,0,1-.074-2.444,3.937,3.937,0,0,1,.98-2.2,4,4,0,0,1,2.424-1.1,11.655,11.655,0,0,1,2.708.074c.137.01.274.032.4.042.095.137.2.284.3.443a1.872,1.872,0,0,1,.422-.369c.232.021.453.053.685.074a7.388,7.388,0,0,1,.969.137,9.315,9.315,0,0,1,1.465.516c.379.158-.306,0-.031.316a2.081,2.081,0,0,1,.316.5,4.4,4.4,0,0,1,.221,3.045Z" transform="translate(-1146.326 -1952.512)" fill="#523434"/>
                        </g>
                      </g>
                    </g>
                    <path id="Trazado_1213930" data-name="Trazado 1213930" d="M1169,2145.9l4.373,8.293,4.5-8.282Z" transform="translate(-1153.173 -2125.002)" fill="#fab09d"/>
                    <path id="Trazado_1213931" data-name="Trazado 1213931" d="M1157.117,2145.911l2.424.516-.169.8s-4.563,10.031-4.679,9.884-6.681-.938-6.828-1.307-2.065-9.23-2.065-9.23l2.445-.674v2.656l3.319,5.637,1.886,1.075,1.454-2.16,2.223-7.208Z" transform="translate(-1132.418 -2125.002)" fill="#3d5a54"/>
                    <path id="Trazado_1213932" data-name="Trazado 1213932" d="M1146.9,2157.737a.259.259,0,0,1-.242-.169l-3.414-8.641a.26.26,0,0,1,.485-.189l3.319,8.409,3.182-.948a.349.349,0,0,1,.148,0l3.077.948,3.519-8.556a.267.267,0,1,1,.5.2l-3.614,8.777a.255.255,0,0,1-.316.148l-3.235-.991-3.33.991c-.021,0-.053.01-.074.01Z" transform="translate(-1130.114 -2127.261)"/>
                    <path id="Trazado_1213933" data-name="Trazado 1213933" d="M1208.88,2237.19a.274.274,0,0,1-.263-.253l-.516-14.562a.264.264,0,1,1,.527-.021l.516,14.562a.268.268,0,0,1-.253.274h0Z" transform="translate(-1188.153 -2193.173)"/>
                    <g id="Grupo_1225982" data-name="Grupo 1225982" transform="translate(21.928 33.437)">
                      <path id="Trazado_1213934" data-name="Trazado 1213934" d="M1227.88,2266.86a.98.98,0,1,1,.98-.98A.985.985,0,0,1,1227.88,2266.86Zm0-1.433a.453.453,0,1,0,.453.453A.45.45,0,0,0,1227.88,2265.427Z" transform="translate(-1226.9 -2264.9)"/>
                      <path id="Trazado_1213935" data-name="Trazado 1213935" d="M1231.58,2315.46a.98.98,0,1,1,.98-.98A.985.985,0,0,1,1231.58,2315.46Zm0-1.443a.453.453,0,1,0,.453.453A.45.45,0,0,0,1231.58,2314.017Z" transform="translate(-1230.21 -2308.379)"/>
                    </g>
                  </g>
                  <path id="Trazado_1213936" data-name="Trazado 1213936" d="M999.8,1933.3a25.508,25.508,0,1,1,18.029-7.471A25.339,25.339,0,0,1,999.8,1933.3Zm0-50.263a24.762,24.762,0,1,0,24.763,24.762A24.788,24.788,0,0,0,999.8,1883.038Z" transform="translate(-974.3 -1882.3)"/>
                </g>
                <g id="Grupo_1225988" data-name="Grupo 1225988" transform="translate(56.783)">
                  <g id="Grupo_1225985" data-name="Grupo 1225985" transform="translate(0.369 1.275)">
                    <rect id="Rectángulo_422038" data-name="Rectángulo 422038" width="16.438" height="5.595" fill="#ba492f"/>
                    <rect id="Rectángulo_422039" data-name="Rectángulo 422039" width="32.423" height="5.595" transform="translate(0 10.411)" fill="#3d5a54"/>
                    <rect id="Rectángulo_422040" data-name="Rectángulo 422040" width="28.788" height="5.595" transform="translate(0 20.822)" fill="#fff"/>
                    <rect id="Rectángulo_422041" data-name="Rectángulo 422041" width="22.118" height="5.595" transform="translate(0 31.243)" fill="#e39a50"/>
                    <rect id="Rectángulo_422042" data-name="Rectángulo 422042" width="28.788" height="5.595" transform="translate(0 41.654)" fill="#ba492f"/>
                  </g>
                  <g id="Grupo_1225987" data-name="Grupo 1225987">
                    <g id="Grupo_1225986" data-name="Grupo 1225986" transform="translate(0 0.906)">
                      <path id="Trazado_1213937" data-name="Trazado 1213937" d="M1512.307,1897.233h-16.438a.373.373,0,0,1-.369-.369v-5.6a.373.373,0,0,1,.369-.369h16.438a.373.373,0,0,1,.369.369v5.6A.373.373,0,0,1,1512.307,1897.233Zm-16.069-.738h15.7v-4.858h-15.7Z" transform="translate(-1495.5 -1890.9)" fill="#fff"/>
                      <path id="Trazado_1213938" data-name="Trazado 1213938" d="M1528.292,1996.033h-32.423a.373.373,0,0,1-.369-.369v-5.6a.373.373,0,0,1,.369-.369h32.423a.373.373,0,0,1,.369.369v5.6A.373.373,0,0,1,1528.292,1996.033Zm-32.054-.738h31.685v-4.858h-31.685Z" transform="translate(-1495.5 -1979.29)" fill="#fff"/>
                      <path id="Trazado_1213939" data-name="Trazado 1213939" d="M1524.657,2094.833h-28.788a.373.373,0,0,1-.369-.369v-5.6a.373.373,0,0,1,.369-.369h28.788a.373.373,0,0,1,.369.369v5.6A.373.373,0,0,1,1524.657,2094.833Zm-28.419-.738h28.05v-4.857h-28.05Z" transform="translate(-1495.5 -2067.679)" fill="#fff"/>
                      <path id="Trazado_1213940" data-name="Trazado 1213940" d="M1517.987,2193.733h-22.118a.373.373,0,0,1-.369-.369v-5.6a.373.373,0,0,1,.369-.369h22.118a.373.373,0,0,1,.369.369v5.6A.373.373,0,0,1,1517.987,2193.733Zm-21.749-.738h21.38v-4.858h-21.38Z" transform="translate(-1495.5 -2156.157)" fill="#fff"/>
                      <path id="Trazado_1213941" data-name="Trazado 1213941" d="M1524.657,2292.533h-28.788a.373.373,0,0,1-.369-.369v-5.6a.373.373,0,0,1,.369-.369h28.788a.373.373,0,0,1,.369.369v5.6A.373.373,0,0,1,1524.657,2292.533Zm-28.419-.738h28.05v-4.857h-28.05Z" transform="translate(-1495.5 -2244.546)" fill="#fff"/>
                    </g>
                    <path id="Trazado_1213942" data-name="Trazado 1213942" d="M1529.451,1933.3h-33.582a.373.373,0,0,1-.369-.369v-50.263a.369.369,0,0,1,.738,0v49.894h33.213a.369.369,0,0,1,0,.738Z" transform="translate(-1495.5 -1882.3)" fill="#fff"/>
                  </g>
                </g>
                <g id="Grupo_1225997" data-name="Grupo 1225997" transform="translate(0 53.01)">
                  <g id="Grupo_1225990" data-name="Grupo 1225990" transform="translate(0.002 0)">
                    <circle id="Elipse_12963" data-name="Elipse 12963" cx="5.406" cy="5.406" r="5.406" transform="translate(0 7.645) rotate(-45)" fill="#3d5a54"/>
                    <g id="Grupo_1225989" data-name="Grupo 1225989" transform="translate(4.031 4.028)">
                      <rect id="Rectángulo_422043" data-name="Rectángulo 422043" width="1.064" height="7.218" rx="0.532" transform="translate(3.077)" fill="#fff"/>
                      <rect id="Rectángulo_422044" data-name="Rectángulo 422044" width="1.064" height="7.218" rx="0.532" transform="translate(7.218 3.077) rotate(90)" fill="#fff"/>
                    </g>
                  </g>
                  <g id="Grupo_1225992" data-name="Grupo 1225992" transform="translate(2.231 44.028)">
                    <circle id="Elipse_12964" data-name="Elipse 12964" cx="5.406" cy="5.406" r="5.406" fill="#3d5a54"/>
                    <g id="Grupo_1225991" data-name="Grupo 1225991" transform="translate(1.802 1.791)">
                      <rect id="Rectángulo_422045" data-name="Rectángulo 422045" width="1.064" height="7.218" rx="0.532" transform="translate(3.077)" fill="#fff"/>
                      <rect id="Rectángulo_422046" data-name="Rectángulo 422046" width="1.064" height="7.218" rx="0.532" transform="translate(7.218 3.077) rotate(90)" fill="#fff"/>
                    </g>
                  </g>
                  <g id="Grupo_1225994" data-name="Grupo 1225994" transform="translate(2.231 57.958)">
                    <circle id="Elipse_12965" data-name="Elipse 12965" cx="5.406" cy="5.406" r="5.406" fill="#3d5a54"/>
                    <g id="Grupo_1225993" data-name="Grupo 1225993" transform="translate(1.791 1.802)">
                      <rect id="Rectángulo_422047" data-name="Rectángulo 422047" width="1.064" height="7.218" rx="0.532" transform="translate(3.087)" fill="#fff"/>
                      <rect id="Rectángulo_422048" data-name="Rectángulo 422048" width="1.064" height="7.218" rx="0.532" transform="translate(7.218 3.066) rotate(90)" fill="#fff"/>
                    </g>
                  </g>
                  <g id="Grupo_1225995" data-name="Grupo 1225995" transform="translate(0 13.928)">
                    <circle id="Elipse_12966" data-name="Elipse 12966" cx="5.406" cy="5.406" r="5.406" transform="translate(0 7.645) rotate(-45)" fill="#ba492f"/>
                    <rect id="Rectángulo_422049" data-name="Rectángulo 422049" width="1.064" height="7.218" rx="0.532" transform="translate(11.251 7.107) rotate(90)" fill="#fff"/>
                  </g>
                  <g id="Grupo_1225996" data-name="Grupo 1225996" transform="translate(2.231 30.098)">
                    <circle id="Elipse_12967" data-name="Elipse 12967" cx="5.406" cy="5.406" r="5.406" fill="#ba492f"/>
                    <rect id="Rectángulo_422050" data-name="Rectángulo 422050" width="1.064" height="7.218" rx="0.532" transform="translate(9.02 4.868) rotate(90)" fill="#fff"/>
                  </g>
                </g>
                <g id="Grupo_1226003" data-name="Grupo 1226003" transform="translate(16.857 57.175)">
                  <g id="Grupo_1225998" data-name="Grupo 1225998">
                    <path id="Trazado_1213943" data-name="Trazado 1213943" d="M1176.536,2425.638h-59.567a.369.369,0,0,1,0-.738h59.567a.369.369,0,0,1,0,.738Z" transform="translate(-1116.6 -2424.9)" fill="#fff"/>
                    <path id="Trazado_1213944" data-name="Trazado 1213944" d="M1190.477,2455.138h-73.508a.369.369,0,1,1,0-.738h73.508a.369.369,0,1,1,0,.738Z" transform="translate(-1116.6 -2451.291)" fill="#fff"/>
                    <path id="Trazado_1213945" data-name="Trazado 1213945" d="M1187.2,2484.538h-70.231a.369.369,0,1,1,0-.738H1187.2a.369.369,0,0,1,0,.738Z" transform="translate(-1116.6 -2477.594)" fill="#fff"/>
                  </g>
                  <g id="Grupo_1225999" data-name="Grupo 1225999" transform="translate(0 13.93)">
                    <path id="Trazado_1213946" data-name="Trazado 1213946" d="M1176.536,2557.838h-59.567a.369.369,0,1,1,0-.738h59.567a.369.369,0,0,1,0,.738Z" transform="translate(-1116.6 -2557.1)" fill="#fff"/>
                    <path id="Trazado_1213947" data-name="Trazado 1213947" d="M1190.477,2587.338h-73.508a.369.369,0,1,1,0-.738h73.508a.369.369,0,0,1,0,.738Z" transform="translate(-1116.6 -2583.491)" fill="#fff"/>
                    <path id="Trazado_1213948" data-name="Trazado 1213948" d="M1187.2,2616.738h-70.231a.369.369,0,1,1,0-.738H1187.2a.369.369,0,0,1,0,.738Z" transform="translate(-1116.6 -2609.794)" fill="#fff"/>
                  </g>
                  <g id="Grupo_1226000" data-name="Grupo 1226000" transform="translate(0 27.86)">
                    <path id="Trazado_1213949" data-name="Trazado 1213949" d="M1176.536,2690.038h-59.567a.369.369,0,1,1,0-.737h59.567a.369.369,0,1,1,0,.737Z" transform="translate(-1116.6 -2689.301)" fill="#fff"/>
                    <path id="Trazado_1213950" data-name="Trazado 1213950" d="M1190.477,2719.538h-73.508a.369.369,0,1,1,0-.738h73.508a.369.369,0,1,1,0,.738Z" transform="translate(-1116.6 -2715.692)" fill="#fff"/>
                    <path id="Trazado_1213951" data-name="Trazado 1213951" d="M1187.2,2749.038h-70.231a.369.369,0,1,1,0-.738H1187.2a.369.369,0,0,1,0,.738Z" transform="translate(-1116.6 -2742.083)" fill="#fff"/>
                  </g>
                  <g id="Grupo_1226001" data-name="Grupo 1226001" transform="translate(0 41.791)">
                    <path id="Trazado_1213952" data-name="Trazado 1213952" d="M1176.536,2822.238h-59.567a.369.369,0,0,1,0-.738h59.567a.369.369,0,0,1,0,.738Z" transform="translate(-1116.6 -2821.5)" fill="#fff"/>
                    <path id="Trazado_1213953" data-name="Trazado 1213953" d="M1190.477,2851.738h-73.508a.369.369,0,1,1,0-.738h73.508a.369.369,0,1,1,0,.738Z" transform="translate(-1116.6 -2847.891)" fill="#fff"/>
                    <path id="Trazado_1213954" data-name="Trazado 1213954" d="M1187.2,2881.238h-70.231a.369.369,0,1,1,0-.738H1187.2a.369.369,0,0,1,0,.738Z" transform="translate(-1116.6 -2874.283)" fill="#fff"/>
                  </g>
                  <g id="Grupo_1226002" data-name="Grupo 1226002" transform="translate(0 55.721)">
                    <path id="Trazado_1213955" data-name="Trazado 1213955" d="M1176.536,2954.438h-59.567a.369.369,0,1,1,0-.738h59.567a.369.369,0,1,1,0,.738Z" transform="translate(-1116.6 -2953.7)" fill="#fff"/>
                    <path id="Trazado_1213956" data-name="Trazado 1213956" d="M1190.477,2983.938h-73.508a.369.369,0,1,1,0-.738h73.508a.369.369,0,1,1,0,.738Z" transform="translate(-1116.6 -2980.092)" fill="#fff"/>
                    <path id="Trazado_1213957" data-name="Trazado 1213957" d="M1187.2,3013.438h-70.231a.369.369,0,1,1,0-.737H1187.2a.369.369,0,0,1,0,.737Z" transform="translate(-1116.6 -3006.483)" fill="#fff"/>
                  </g>
                </g>
              </g>
            </g>
            <g id="Hand" transform="translate(17.439 99.951)">
              <g id="Grupo_1226007" data-name="Grupo 1226007">
                <path id="Trazado_1213958" data-name="Trazado 1213958" d="M1283.405,1756.76a62.612,62.612,0,0,0,1.117-6.343.713.713,0,0,0-.474-.811c-2.666-.5-4.478,4.415-5.648,7.155Z" transform="translate(-1256.851 -1749.57)" fill="#fab09d"/>
                <g id="Grupo_1226006" data-name="Grupo 1226006" transform="translate(0 3.512)">
                  <path id="Trazado_1213959" data-name="Trazado 1213959" d="M1073.9,1787.076c.147-3.54,4.183-2.581,4.763-1.728,2.213-3.8,5.669-.653,5.553-.2,2.9-3.351,5.016-.569,5.437-.19,2.634-3.361,5.3-2,5.153-.137-.243,3.014-.39,9.136-1.591,11.886-.337.79-2.013,2.539-3.372.6-.358.674-1.57,5.058-4.11.727-.063.011-2.866,6.638-5.311.084-.211-.032-2.329,3.214-4-.685s-2.634-7.26-2.508-10.348Z" transform="translate(-1073.894 -1782.903)" fill="#fab09d"/>
                  <path id="Trazado_1213960" data-name="Trazado 1213960" d="M1220.359,1811.987a.364.364,0,0,1-.369-.358l-.19-12.35a.381.381,0,0,1,.358-.379.374.374,0,0,1,.379.358l.19,12.349a.381.381,0,0,1-.359.38h0Z" transform="translate(-1204.426 -1797.215)"/>
                  <path id="Trazado_1213961" data-name="Trazado 1213961" d="M1170.068,1814.3a.366.366,0,0,1-.369-.327l-1.517-12.877a.371.371,0,0,1,.738-.084l1.517,12.877a.368.368,0,0,1-.327.411Z" transform="translate(-1158.245 -1798.807)"/>
                  <path id="Trazado_1213962" data-name="Trazado 1213962" d="M1117.707,1816.088a.366.366,0,0,1-.369-.327c-.516-4.573-1.444-12.055-1.718-12.645a.383.383,0,0,1,.179-.5.371.371,0,0,1,.485.179c.411.875,1.56,10.885,1.781,12.876a.376.376,0,0,1-.327.411h-.032Z" transform="translate(-1111.195 -1800.514)"/>
                </g>
              </g>
            </g>
            <g id="Grupo_1226010" data-name="Grupo 1226010" transform="translate(255.202 98.145)">
              <g id="Grupo_1226008" data-name="Grupo 1226008">
                <path id="Trazado_1213963" data-name="Trazado 1213963" d="M3349.426,1753.043c13.435-19.2,11.938-19.831,11.2-20.537-2.234-1.5-14.931,18.05-14.931,18.05l-6.712,8.166s-1.391-1.77-1.285-2.2c3.056-11.644.727-13.551-.316-13.846a.455.455,0,0,0-.548.306c-.7,2.3-4.542,15.005-5.1,17.2-3.288,10.453.158,13.635.158,13.635s14.183,6.4,14.067,6.217c5.911-4.5,12.486-13.024,15.532-18C3361.607,1761.884,3350.416,1752.116,3349.426,1753.043Z" transform="translate(-3330.312 -1732.425)" fill="#fab09d"/>
                <path id="Trazado_1213964" data-name="Trazado 1213964" d="M3399.582,1969.72a.227.227,0,0,1-.116-.021.369.369,0,0,1-.232-.464c1.6-4.931-2.15-11.127-2.192-11.191a.366.366,0,0,1,.126-.506.372.372,0,0,1,.506.116c.158.263,3.973,6.554,2.266,11.8a.37.37,0,0,1-.348.253Z" transform="translate(-3389.963 -1933.769)"/>
                <path id="Trazado_1213965" data-name="Trazado 1213965" d="M3448.969,2181.438a.369.369,0,0,1,0-.738h2.824a.369.369,0,0,1,0,.738Z" transform="translate(-3436.136 -2133.464)"/>
              </g>
              <g id="Hand-2" data-name="Hand" transform="translate(13.47 17.291)">
                <g id="Grupo_1226009" data-name="Grupo 1226009">
                  <path id="Trazado_1213966" data-name="Trazado 1213966" d="M3479.671,1910.088c-1.707,2.318-4.394,4.225-7.892,6.08s-3.15-1.749-3.33-1.844c-5.627,3.351-3.793-3.119-3.835-3.172-4.394,1.676-2.708-2.234-2.571-2.929l7.365-8.9c.527-.032,3.709-.822,3.856,3.319.179-.4,4.552-.685,3.93,3.393.917-.285,4.436,1.391,2.466,4.057Z" transform="translate(-3461.247 -1898.952)" fill="#fab09d"/>
                  <path id="Trazado_1213967" data-name="Trazado 1213967" d="M3466.97,1990.179a1.75,1.75,0,0,1-.822-.19,2.493,2.493,0,0,1-1.075-1.981c-1.528.822-2.635.969-3.361.453-.769-.548-1-1.77-.675-3.646-1.149.348-1.949.3-2.434-.148-.8-.748-.358-2.255-.126-3.066.042-.148.084-.274.094-.348a.37.37,0,0,1,.727.137c-.021.105-.063.242-.116.411-.179.611-.548,1.876-.084,2.308.327.306,1.138.232,2.276-.2a.377.377,0,0,1,.411.105c.126.137.095.274.053.485-.5,2.392-.032,3.13.295,3.361.527.379,1.57.116,3.024-.748a.356.356,0,0,1,.369,0c.19.105.211.295.253.6.053.464.158,1.338.706,1.633.422.221,1.117.095,2.013-.38,3.773-2,6.238-3.9,7.766-5.974a.369.369,0,0,1,.59.443c-1.623,2.2-4.089,4.109-8.008,6.185a4.2,4.2,0,0,1-1.886.58Z" transform="translate(-3458.145 -1972.057)"/>
                  <path id="Trazado_1213968" data-name="Trazado 1213968" d="M3462.587,1906.16a.369.369,0,0,1-.284-.6l7.365-8.9a.367.367,0,0,1,.569.464l-7.365,8.9A.388.388,0,0,1,3462.587,1906.16Z" transform="translate(-3461.791 -1896.521)"/>
                  <path id="Trazado_1213969" data-name="Trazado 1213969" d="M3486.958,1937.33a.364.364,0,0,1-.264-.622l8.651-8.514a.365.365,0,1,1,.516.516l-8.651,8.514a.365.365,0,0,1-.263.105Z" transform="translate(-3483.591 -1924.761)"/>
                  <path id="Trazado_1213970" data-name="Trazado 1213970" d="M3523.324,1969.254a.366.366,0,0,1-.264-.105.357.357,0,0,1,0-.516c1.338-1.328,8.03-7.966,8.852-8.367a.37.37,0,1,1,.326.664c-.558.285-5.606,5.195-8.651,8.229a.366.366,0,0,1-.263.106Z" transform="translate(-3516.122 -1953.513)"/>
                </g>
              </g>
            </g>
          </g>
        </g>
        <g id="Stars" transform="translate(-6505.6 4609.582)">
          <path id="Trazado_1213971" data-name="Trazado 1213971" d="M2719.01,467.829l154.613-2.729,1.033,44.214-155.867,1.791L2694.3,523.5l19.41-27.091Z" transform="translate(-2694.3 -465.1)" fill="#e0d9d9"/>
          <g id="Grupo_1226011" data-name="Grupo 1226011" transform="translate(29.947 12.297)">
            <path id="Trazado_1213972" data-name="Trazado 1213972" d="M2989.838,599.45l-6.86,3.741,1.2-7.724L2978.5,590.1l7.713-1.243,3.351-7.06,3.572,6.955,7.745,1-5.511,5.543,1.443,7.682Z" transform="translate(-2978.5 -581.8)" fill="#e39a50"/>
            <path id="Trazado_1213973" data-name="Trazado 1213973" d="M3269.228,599.45l-6.86,3.741,1.212-7.724-5.68-5.363,7.713-1.243,3.351-7.06,3.562,6.955,7.745,1-5.511,5.543,1.444,7.682Z" transform="translate(-3228.459 -581.8)" fill="#e39a50"/>
            <path id="Trazado_1213974" data-name="Trazado 1213974" d="M3548.538,599.45l-6.86,3.741,1.2-7.724L3537.2,590.1l7.713-1.243,3.351-7.06,3.562,6.955,7.755,1-5.511,5.543,1.433,7.682Z" transform="translate(-3478.329 -581.8)" fill="#e39a50"/>
            <path id="Trazado_1213975" data-name="Trazado 1213975" d="M3827.838,599.45l-6.859,3.741,1.2-7.724-5.68-5.363,7.724-1.243,3.34-7.06,3.572,6.955,7.745,1-5.511,5.543,1.443,7.682Z" transform="translate(-3728.198 -581.8)" fill="#fff"/>
            <path id="Trazado_1213976" data-name="Trazado 1213976" d="M4107.238,599.45l-6.859,3.741,1.2-7.724-5.68-5.363,7.713-1.243,3.351-7.06,3.562,6.955,7.755,1-5.511,5.543,1.433,7.682Z" transform="translate(-3978.157 -581.8)" fill="#fff"/>
          </g>
        </g>
        <g id="Effects" transform="translate(-6694.554 4613.44)">
          <path id="Trazado_1213977" data-name="Trazado 1213977" d="M1597.926,550.648l-5.248-45.848-19.979,6.08Z" transform="translate(-1501.932 -504.476)" fill="#e39a50"/>
          <path id="Trazado_1213978" data-name="Trazado 1213978" d="M1217.953,568.232a.377.377,0,0,1-.253-.095l-59-53.54a.363.363,0,0,1-.116-.306.356.356,0,0,1,.169-.285l18.862-12.223a.364.364,0,0,1,.506.105c.105.158,10.4,16.2,20.442,32.233,5.9,9.42,10.558,17.007,13.846,22.529,6.3,10.6,6.038,11.054,5.848,11.38a.369.369,0,0,1-.263.179h-.053Zm-.348-.453Zm-58.05-53.413,57.639,52.307c-.622-1.338-2.16-4.194-5.806-10.305-3.33-5.574-7.966-13.119-13.8-22.423-9.157-14.6-18.419-29.051-19.884-31.338l-18.156,11.76Z" transform="translate(-1131.453 -501.723)"/>
          <path id="Trazado_1213979" data-name="Trazado 1213979" d="M983.575,863.894,907.043,823.8,901.1,855.57Z" transform="translate(-901.1 -789.862)" fill="#ba492f"/>
          <path id="Trazado_1213980" data-name="Trazado 1213980" d="M994.059,1313.276a.422.422,0,0,1-.158-.032.341.341,0,0,1-.19-.211l-6.5-18.43a.371.371,0,0,1,.032-.316.367.367,0,0,1,.274-.169l73.034-7.239a.385.385,0,0,1,.4.284.377.377,0,0,1-.221.432l-66.521,25.669a.288.288,0,0,1-.137.021Zm-6-18.482,6.217,17.629,63.634-24.552Z" transform="translate(-978.116 -1204.145)"/>
        </g>
        <g id="Emoji" transform="translate(-6475.696 4676.777)">
          <g id="Grupo_1226014" data-name="Grupo 1226014" transform="translate(0 0)">
            <circle id="Elipse_12968" data-name="Elipse 12968" cx="26.29" cy="26.29" r="26.29" fill="#ba492f"/>
            <g id="Grupo_1226013" data-name="Grupo 1226013" transform="translate(13.361 17.776)">
              <g id="Grupo_1226012" data-name="Grupo 1226012">
                <circle id="Elipse_12969" data-name="Elipse 12969" cx="3.193" cy="3.193" r="3.193" fill="#fff"/>
                <circle id="Elipse_12970" data-name="Elipse 12970" cx="3.193" cy="3.193" r="3.193" transform="translate(19.473)" fill="#fff"/>
              </g>
              <path id="Trazado_1213981" data-name="Trazado 1213981" d="M3132.032,1440.512a.411.411,0,0,1-.3-.137.369.369,0,0,1,.063-.516,20.35,20.35,0,0,1,6.522-3.182,13.572,13.572,0,0,1,13.425,3.2.365.365,0,1,1-.5.537,12.646,12.646,0,0,0-12.729-3.024,19.885,19.885,0,0,0-6.26,3.045A.358.358,0,0,1,3132.032,1440.512Z" transform="translate(-3128.84 -1418.753)" fill="#fff"/>
            </g>
          </g>
          <g id="Grupo_1226017" data-name="Grupo 1226017" transform="translate(88.85 93.961)">
            <circle id="Elipse_12971" data-name="Elipse 12971" cx="26.29" cy="26.29" r="26.29" fill="#ccc0c0"/>
            <g id="Grupo_1226016" data-name="Grupo 1226016" transform="translate(12.778 15.036)">
              <g id="Grupo_1226015" data-name="Grupo 1226015" transform="translate(0 0)">
                <circle id="Elipse_12972" data-name="Elipse 12972" cx="3.193" cy="3.193" r="3.193" transform="translate(0 6.303) rotate(-80.8)" fill="#fff"/>
                <circle id="Elipse_12973" data-name="Elipse 12973" cx="3.193" cy="3.193" r="3.193" transform="translate(19.517 6.22) rotate(-76.7)" fill="#fff"/>
              </g>
              <path id="Trazado_1213982" data-name="Trazado 1213982" d="M3994.731,2342.738h-19.462a.369.369,0,1,1,0-.738h19.462a.369.369,0,1,1,0,.738Z" transform="translate(-3971.494 -2320.419)" fill="#fff"/>
            </g>
          </g>
          <g id="Grupo_1226020" data-name="Grupo 1226020" transform="translate(68.829 30.358)">
            <circle id="Elipse_12974" data-name="Elipse 12974" cx="26.29" cy="26.29" r="26.29" fill="#e39a50"/>
            <g id="Grupo_1226019" data-name="Grupo 1226019" transform="translate(13.361 17.776)">
              <path id="Trazado_1213983" data-name="Trazado 1213983" d="M3794.286,1728.479A13.288,13.288,0,0,1,3785,1724.7a.365.365,0,0,1,.5-.537,12.67,12.67,0,0,0,12.7,3.035,19.635,19.635,0,0,0,6.28-3.056.368.368,0,1,1,.453.579,20.343,20.343,0,0,1-6.522,3.182,15.531,15.531,0,0,1-4.141.579Z" transform="translate(-3782.063 -1706.73)" fill="#fff"/>
              <g id="Grupo_1226018" data-name="Grupo 1226018">
                <circle id="Elipse_12975" data-name="Elipse 12975" cx="3.193" cy="3.193" r="3.193" fill="#fff"/>
                <circle id="Elipse_12976" data-name="Elipse 12976" cx="3.193" cy="3.193" r="3.193" transform="translate(19.473)" fill="#fff"/>
              </g>
            </g>
          </g>
        </g>
        <g id="Line" transform="translate(-6749.4 4887.491)">
          <path id="Trazado_1213984" data-name="Trazado 1213984" d="M799.455,3103.238H380.969a.369.369,0,0,1,0-.738H799.445a.369.369,0,0,1,0,.738Z" transform="translate(-380.6 -3102.5)"/>
        </g>
      </g>
    </g>
  </g>
</svg>
