<svg xmlns="http://www.w3.org/2000/svg" xmlns:xlink="http://www.w3.org/1999/xlink" width="106.16" height="106.16" viewBox="0 0 106.16 106.16">
  <defs>
    <filter id="Trazado_982547" x="0" y="0" width="106.16" height="106.16" filterUnits="userSpaceOnUse">
      <feOffset dy="3" input="SourceAlpha"/>
      <feGaussianBlur stdDeviation="3" result="blur"/>
      <feFlood flood-opacity="0.161"/>
      <feComposite operator="in" in2="blur"/>
      <feComposite in="SourceGraphic"/>
    </filter>
  </defs>
  <g id="Grupo_1226083" data-name="Grupo 1226083" transform="translate(-182.84 -6792.684)">
    <g id="Grupo_1224856" data-name="Grupo 1224856" transform="translate(-8.16 5069.684)">
      <g id="Grupo_1206130" data-name="Grupo 1206130" transform="translate(0 -59)">
        <g id="Grupo_1203672" data-name="Grupo 1203672" transform="translate(0.08 -4797.878)">
          <g id="Grupo_1203344" data-name="Grupo 1203344" transform="translate(-81.08 5174.875)">
            <g id="Grupo_1177900" data-name="Grupo 1177900" transform="translate(281 1411.003)">
              <g id="Grupo_1172010" data-name="Grupo 1172010" transform="translate(0)">
                <g id="Grupo_1171046" data-name="Grupo 1171046">
                  <g id="Grupo_1148525" data-name="Grupo 1148525">
                    <g transform="matrix(1, 0, 0, 1, -9, -6)" filter="url(#Trazado_982547)">
                      <g id="Trazado_982547-2" data-name="Trazado 982547" transform="translate(9 6)" fill="#e5ebfb">
                        <path d="M 44.0802001953125 86.660400390625 C 38.33124923706055 86.660400390625 32.75506210327148 85.53479766845703 27.50652503967285 83.31484985351562 C 22.43628692626953 81.17032623291016 17.88242530822754 78.09992218017578 13.97144985198975 74.18894958496094 C 10.06047534942627 70.27797698974609 6.99007511138916 65.72411346435547 4.845550060272217 60.65387344360352 C 2.625600099563599 55.40533828735352 1.500000238418579 49.82915115356445 1.500000238418579 44.0802001953125 C 1.500000238418579 38.33124923706055 2.625600099563599 32.75506210327148 4.845550060272217 27.50652503967285 C 6.99007511138916 22.43628692626953 10.06047534942627 17.88242530822754 13.97144985198975 13.97144985198975 C 17.88242530822754 10.06047534942627 22.43628692626953 6.99007511138916 27.50652503967285 4.845550060272217 C 32.75506210327148 2.625600099563599 38.33124923706055 1.500000238418579 44.0802001953125 1.500000238418579 C 49.82915115356445 1.500000238418579 55.40533828735352 2.625600099563599 60.65387344360352 4.845550060272217 C 65.72411346435547 6.99007511138916 70.27797698974609 10.06047534942627 74.18894958496094 13.97144985198975 C 78.09992218017578 17.88242530822754 81.17032623291016 22.43628692626953 83.31484985351562 27.50652503967285 C 85.53479766845703 32.75506210327148 86.660400390625 38.33124923706055 86.660400390625 44.0802001953125 C 86.660400390625 49.82915115356445 85.53479766845703 55.40533828735352 83.31484985351562 60.65387344360352 C 81.17032623291016 65.72411346435547 78.09992218017578 70.27797698974609 74.18894958496094 74.18894958496094 C 70.27797698974609 78.09992218017578 65.72411346435547 81.17032623291016 60.65387344360352 83.31484985351562 C 55.40533828735352 85.53479766845703 49.82915115356445 86.660400390625 44.0802001953125 86.660400390625 Z" stroke="none"/>
                        <path d="M 44.0802001953125 3 C 38.53308486938477 3 33.15349960327148 4.085746765136719 28.09085845947266 6.227058410644531 C 23.19941711425781 8.29595947265625 18.80581665039062 11.25841522216797 15.03211212158203 15.03211212158203 C 11.25841522216797 18.80581665039062 8.29595947265625 23.19941711425781 6.227058410644531 28.09085845947266 C 4.085746765136719 33.15349960327148 3 38.53308486938477 3 44.0802001953125 C 3 49.62731552124023 4.085746765136719 55.00691604614258 6.227058410644531 60.06954193115234 C 8.29595947265625 64.96098327636719 11.25841522216797 69.35458374023438 15.03211212158203 73.12828826904297 C 18.80581665039062 76.90198516845703 23.19941711425781 79.86444091796875 28.09085845947266 81.93334197998047 C 33.15349960327148 84.07466125488281 38.53308486938477 85.160400390625 44.0802001953125 85.160400390625 C 49.62731552124023 85.160400390625 55.00691604614258 84.07466125488281 60.06954193115234 81.93334197998047 C 64.96099853515625 79.86444091796875 69.35458374023438 76.90198516845703 73.12828826904297 73.12828826904297 C 76.90198516845703 69.35458374023438 79.86444091796875 64.96099853515625 81.93334197998047 60.06954193115234 C 84.07466125488281 55.00691604614258 85.160400390625 49.62731552124023 85.160400390625 44.0802001953125 C 85.160400390625 38.53308486938477 84.07466125488281 33.15349960327148 81.93334197998047 28.09085845947266 C 79.86444091796875 23.19941711425781 76.90198516845703 18.80581665039062 73.12828826904297 15.03211212158203 C 69.35458374023438 11.25841522216797 64.96098327636719 8.29595947265625 60.06954193115234 6.227058410644531 C 55.00691604614258 4.085746765136719 49.62731552124023 3 44.0802001953125 3 M 44.0802001953125 0 C 68.42502593994141 0 88.160400390625 19.73538970947266 88.160400390625 44.0802001953125 C 88.160400390625 68.42502593994141 68.42502593994141 88.160400390625 44.0802001953125 88.160400390625 C 19.73538970947266 88.160400390625 0 68.42502593994141 0 44.0802001953125 C 0 19.73538970947266 19.73538970947266 0 44.0802001953125 0 Z" stroke="none" fill="#0b47db"/>
                      </g>
                    </g>
                  </g>
                </g>
              </g>
            </g>
          </g>
        </g>
      </g>
    </g>
    <g id="agregar-usuario_2_" data-name="agregar-usuario (2)" transform="translate(204.612 6814.78)">
      <path id="Trazado_1214168" data-name="Trazado 1214168" d="M55.492,31.533A23.959,23.959,0,1,1,31.533,7.574,23.959,23.959,0,0,1,55.492,31.533Zm0,0" transform="translate(-6.647 -6.648)" fill="#e1ebf0"/>
      <path id="Trazado_1214169" data-name="Trazado 1214169" d="M81.969,48.371a23.953,23.953,0,0,1-33.6,33.6,23.955,23.955,0,1,0,33.6-33.6Zm0,0" transform="translate(-42.456 -42.455)" fill="#b4d2d7"/>
      <path id="Trazado_1214170" data-name="Trazado 1214170" d="M147.184,69.924a9.115,9.115,0,1,1-9.115-9.115A9.115,9.115,0,0,1,147.184,69.924Zm0,0" transform="translate(-113.183 -53.372)" fill="#fed2a4"/>
      <path id="Trazado_1214171" data-name="Trazado 1214171" d="M92.809,242.668H82.027A10.782,10.782,0,0,0,71.246,253.45v2.1a23.953,23.953,0,0,0,32.345,0v-2.1a10.781,10.781,0,0,0-10.782-10.782Zm0,0" transform="translate(-62.532 -212.991)" fill="#fed2a4"/>
      <path id="Trazado_1214172" data-name="Trazado 1214172" d="M83.076,296.085a23.843,23.843,0,0,1-11.83-3.127v1.186a23.953,23.953,0,0,0,32.345,0v-2.1a10.727,10.727,0,0,0-1.454-5.4,23.919,23.919,0,0,1-19.061,9.448Zm0,0" transform="translate(-62.533 -251.583)" fill="#ffbd86"/>
      <path id="Trazado_1214173" data-name="Trazado 1214173" d="M327.154,262.288a12.35,12.35,0,1,1-12.35-12.35A12.35,12.35,0,0,1,327.154,262.288Zm0,0" transform="translate(-265.465 -219.372)" fill="#7af4ab"/>
      <path id="Trazado_1214174" data-name="Trazado 1214174" d="M344.152,274.223a12.35,12.35,0,0,1-17.413,17.413,12.35,12.35,0,1,0,17.413-17.413Zm0,0" transform="translate(-286.78 -240.687)" fill="#6ad394"/>
      <path id="Trazado_1214175" data-name="Trazado 1214175" d="M356.907,295h-5.681v-5.681h-3.705V295H341.84v3.705h5.681v5.681h3.705V298.71h5.681Zm0,0" transform="translate(-300.034 -253.941)" fill="#e1ebf0"/>
      <path id="Trazado_1214176" data-name="Trazado 1214176" d="M141.465,63.276a10.041,10.041,0,1,0-10.041,10.041A10.052,10.052,0,0,0,141.465,63.276Zm-18.23,0a8.189,8.189,0,1,1,8.189,8.188A8.2,8.2,0,0,1,123.235,63.276Zm0,0" transform="translate(-106.538 -46.724)"/>
      <path id="Trazado_1214177" data-name="Trazado 1214177" d="M59.86,34.817a.926.926,0,0,0-1.468,1.131,11.315,11.315,0,0,1,2.37,6.968,11.419,11.419,0,1,1-5.432-9.728.926.926,0,0,0,.973-1.576,13.249,13.249,0,0,0-6.965-1.972h-.025A24.887,24.887,0,0,0,8.741,5.948a.926.926,0,0,0,1.2,1.409A23.04,23.04,0,0,1,47.4,29.783a13.254,13.254,0,0,0-7.578,3.892,11.734,11.734,0,0,0-9.541-4.923H19.5A11.721,11.721,0,0,0,7.79,40.3,23.011,23.011,0,0,1,7,10.374.926.926,0,0,0,5.561,9.207,24.889,24.889,0,0,0,36.649,46.819a13.277,13.277,0,0,0,25.967-3.9,13.155,13.155,0,0,0-2.755-8.1Zm-34.974,13.1A22.936,22.936,0,0,1,9.64,42.134V40.459A9.866,9.866,0,0,1,19.5,30.6H30.277a9.877,9.877,0,0,1,8.3,4.546,13.275,13.275,0,0,0-2.362,9.791,23.01,23.01,0,0,1-11.33,2.978Zm0,0" transform="translate(0)"/>
      <path id="Trazado_1214178" data-name="Trazado 1214178" d="M345.5,282.676a.926.926,0,0,0-.926-.926h-3.705a.926.926,0,0,0-.926.926v4.755h-4.755a.926.926,0,0,0-.926.926v3.705a.926.926,0,0,0,.926.926h4.755v4.755a.926.926,0,0,0,.926.926h3.705a.926.926,0,0,0,.926-.926v-4.755h4.755a.926.926,0,0,0,.926-.926v-3.705a.926.926,0,0,0-.926-.926H345.5Zm3.829,6.607v1.853h-4.755a.926.926,0,0,0-.926.926v4.755H341.8v-4.755a.926.926,0,0,0-.926-.926h-4.755v-1.853h4.755a.926.926,0,0,0,.926-.926V283.6h1.853v4.755a.926.926,0,0,0,.926.926Zm0,0" transform="translate(-293.386 -247.293)"/>
    </g>
  </g>
</svg>
