<svg xmlns="http://www.w3.org/2000/svg" xmlns:xlink="http://www.w3.org/1999/xlink" width="106.16" height="106.16" viewBox="0 0 106.16 106.16">
  <defs>
    <filter id="Trazado_982547" x="0" y="0" width="106.16" height="106.16" filterUnits="userSpaceOnUse">
      <feOffset dy="3" input="SourceAlpha"/>
      <feGaussianBlur stdDeviation="3" result="blur"/>
      <feFlood flood-opacity="0.161"/>
      <feComposite operator="in" in2="blur"/>
      <feComposite in="SourceGraphic"/>
    </filter>
  </defs>
  <g id="Grupo_1226085" data-name="Grupo 1226085" transform="translate(-497.5 -6792.684)">
    <g id="Grupo_1224857" data-name="Grupo 1224857" transform="translate(306.5 5069.684)">
      <g id="Grupo_1206130" data-name="Grupo 1206130" transform="translate(0 -59)">
        <g id="Grupo_1203672" data-name="Grupo 1203672" transform="translate(0.08 -4797.878)">
          <g id="Grupo_1203344" data-name="Grupo 1203344" transform="translate(-81.08 5174.875)">
            <g id="Grupo_1177900" data-name="Grupo 1177900" transform="translate(281 1411.003)">
              <g id="Grupo_1172010" data-name="Grupo 1172010" transform="translate(0)">
                <g id="Grupo_1171046" data-name="Grupo 1171046">
                  <g id="Grupo_1148525" data-name="Grupo 1148525">
                    <g transform="matrix(1, 0, 0, 1, -9, -6)" filter="url(#Trazado_982547)">
                      <g id="Trazado_982547-2" data-name="Trazado 982547" transform="translate(9 6)" fill="#e5ebfb">
                        <path d="M 44.0802001953125 86.660400390625 C 38.33124923706055 86.660400390625 32.75506210327148 85.53479766845703 27.50652503967285 83.31484985351562 C 22.43628692626953 81.17032623291016 17.88242530822754 78.09992218017578 13.97144985198975 74.18894958496094 C 10.06047534942627 70.27797698974609 6.99007511138916 65.72411346435547 4.845550060272217 60.65387344360352 C 2.625600099563599 55.40533828735352 1.500000238418579 49.82915115356445 1.500000238418579 44.0802001953125 C 1.500000238418579 38.33124923706055 2.625600099563599 32.75506210327148 4.845550060272217 27.50652503967285 C 6.99007511138916 22.43628692626953 10.06047534942627 17.88242530822754 13.97144985198975 13.97144985198975 C 17.88242530822754 10.06047534942627 22.43628692626953 6.99007511138916 27.50652503967285 4.845550060272217 C 32.75506210327148 2.625600099563599 38.33124923706055 1.500000238418579 44.0802001953125 1.500000238418579 C 49.82915115356445 1.500000238418579 55.40533828735352 2.625600099563599 60.65387344360352 4.845550060272217 C 65.72411346435547 6.99007511138916 70.27797698974609 10.06047534942627 74.18894958496094 13.97144985198975 C 78.09992218017578 17.88242530822754 81.17032623291016 22.43628692626953 83.31484985351562 27.50652503967285 C 85.53479766845703 32.75506210327148 86.660400390625 38.33124923706055 86.660400390625 44.0802001953125 C 86.660400390625 49.82915115356445 85.53479766845703 55.40533828735352 83.31484985351562 60.65387344360352 C 81.17032623291016 65.72411346435547 78.09992218017578 70.27797698974609 74.18894958496094 74.18894958496094 C 70.27797698974609 78.09992218017578 65.72411346435547 81.17032623291016 60.65387344360352 83.31484985351562 C 55.40533828735352 85.53479766845703 49.82915115356445 86.660400390625 44.0802001953125 86.660400390625 Z" stroke="none"/>
                        <path d="M 44.0802001953125 3 C 38.53308486938477 3 33.15349960327148 4.085746765136719 28.09085845947266 6.227058410644531 C 23.19941711425781 8.29595947265625 18.80581665039062 11.25841522216797 15.03211212158203 15.03211212158203 C 11.25841522216797 18.80581665039062 8.29595947265625 23.19941711425781 6.227058410644531 28.09085845947266 C 4.085746765136719 33.15349960327148 3 38.53308486938477 3 44.0802001953125 C 3 49.62731552124023 4.085746765136719 55.00691604614258 6.227058410644531 60.06954193115234 C 8.29595947265625 64.96098327636719 11.25841522216797 69.35458374023438 15.03211212158203 73.12828826904297 C 18.80581665039062 76.90198516845703 23.19941711425781 79.86444091796875 28.09085845947266 81.93334197998047 C 33.15349960327148 84.07466125488281 38.53308486938477 85.160400390625 44.0802001953125 85.160400390625 C 49.62731552124023 85.160400390625 55.00691604614258 84.07466125488281 60.06954193115234 81.93334197998047 C 64.96099853515625 79.86444091796875 69.35458374023438 76.90198516845703 73.12828826904297 73.12828826904297 C 76.90198516845703 69.35458374023438 79.86444091796875 64.96099853515625 81.93334197998047 60.06954193115234 C 84.07466125488281 55.00691604614258 85.160400390625 49.62731552124023 85.160400390625 44.0802001953125 C 85.160400390625 38.53308486938477 84.07466125488281 33.15349960327148 81.93334197998047 28.09085845947266 C 79.86444091796875 23.19941711425781 76.90198516845703 18.80581665039062 73.12828826904297 15.03211212158203 C 69.35458374023438 11.25841522216797 64.96098327636719 8.29595947265625 60.06954193115234 6.227058410644531 C 55.00691604614258 4.085746765136719 49.62731552124023 3 44.0802001953125 3 M 44.0802001953125 0 C 68.42502593994141 0 88.160400390625 19.73538970947266 88.160400390625 44.0802001953125 C 88.160400390625 68.42502593994141 68.42502593994141 88.160400390625 44.0802001953125 88.160400390625 C 19.73538970947266 88.160400390625 0 68.42502593994141 0 44.0802001953125 C 0 19.73538970947266 19.73538970947266 0 44.0802001953125 0 Z" stroke="none" fill="#0b47db"/>
                      </g>
                    </g>
                  </g>
                </g>
              </g>
            </g>
          </g>
        </g>
      </g>
    </g>
    <g id="falla" transform="translate(525.503 6815.441)">
      <path id="Trazado_1214179" data-name="Trazado 1214179" d="M2,2H39.969V53.776H2Z" transform="translate(-0.137 -0.137)" fill="#e2e7f6"/>
      <path id="Trazado_1214180" data-name="Trazado 1214180" d="M2,2V51.187H35.655a1.726,1.726,0,0,0,1.726-1.726V2Z" transform="translate(-0.137 -0.137)" fill="#f2f2f2"/>
      <g id="Grupo_1226084" data-name="Grupo 1226084" transform="translate(16.533 32.066)">
        <path id="Trazado_1214181" data-name="Trazado 1214181" d="M19,41H35.741v1.726H19Z" transform="translate(-19 -37.548)" fill="#c8cded"/>
        <path id="Trazado_1214182" data-name="Trazado 1214182" d="M19,37H34.665v1.726H19Z" transform="translate(-19 -37)" fill="#c8cded"/>
        <path id="Trazado_1214183" data-name="Trazado 1214183" d="M19,55H39.71v1.726H19Z" transform="translate(-19 -39.467)" fill="#c8cded"/>
        <path id="Trazado_1214184" data-name="Trazado 1214184" d="M19,51H39.71v1.726H19Z" transform="translate(-19 -38.919)" fill="#c8cded"/>
      </g>
      <path id="Trazado_1214185" data-name="Trazado 1214185" d="M6,48h8.629v8.629H6Z" transform="translate(-0.685 -6.442)" fill="#b52f28"/>
      <path id="Trazado_1214186" data-name="Trazado 1214186" d="M33.436,18.944V15.492l-2-.5a9.394,9.394,0,0,0-1.127-2.718l1.061-1.768L28.93,8.065,27.162,9.126A9.394,9.394,0,0,0,24.444,8l-.5-2H20.492l-.5,2a9.394,9.394,0,0,0-2.718,1.127L15.506,8.065l-2.441,2.441,1.061,1.768A9.394,9.394,0,0,0,13,14.993l-2,.5v3.452l2,.5a9.394,9.394,0,0,0,1.127,2.718L13.065,23.93l2.441,2.441,1.768-1.061a9.394,9.394,0,0,0,2.718,1.127l.5,2h3.452l.5-2a9.394,9.394,0,0,0,2.718-1.127l1.768,1.061,2.441-2.441L30.31,22.162a9.394,9.394,0,0,0,1.127-2.718Z" transform="translate(-1.371 -0.685)" fill="#939393"/>
      <circle id="Elipse_12981" data-name="Elipse 12981" cx="5.178" cy="5.178" r="5.178" transform="translate(15.67 11.355)" fill="#f2f2f2"/>
      <circle id="Elipse_12982" data-name="Elipse 12982" cx="11.218" cy="11.218" r="11.218" transform="translate(31.203 19.985)" fill="#f4a93c"/>
      <path id="Trazado_1214187" data-name="Trazado 1214187" d="M55.851,32.495a11.176,11.176,0,0,0-3.771-8.37,11.2,11.2,0,0,0-12.3,18.466,11.2,11.2,0,0,0,16.076-10.1Z" transform="translate(-4.8 -3.018)" fill="#f6b940"/>
      <circle id="Elipse_12983" data-name="Elipse 12983" cx="1.726" cy="1.726" r="1.726" transform="translate(40.695 35.517)" fill="#474747"/>
      <path id="Trazado_1214188" data-name="Trazado 1214188" d="M47.756,35.636l-.649-5.191A13.792,13.792,0,0,1,47,28.726a1.726,1.726,0,0,1,3.452,0,13.792,13.792,0,0,1-.107,1.719L49.7,35.636a.978.978,0,0,1-1.94,0Z" transform="translate(-6.305 -3.564)" fill="#474747"/>
      <path id="Trazado_1214189" data-name="Trazado 1214189" d="M6,34h8.629v8.629H6Z" transform="translate(-0.685 -4.523)" fill="#b52f28"/>
      <path id="Trazado_1214190" data-name="Trazado 1214190" d="M12.9,40.041V34H6v6.9h6.041A.863.863,0,0,0,12.9,40.041Z" transform="translate(-0.685 -4.523)" fill="#d23f34"/>
      <path id="Trazado_1214191" data-name="Trazado 1214191" d="M12.9,54.041V48H6v6.9h6.041A.863.863,0,0,0,12.9,54.041Z" transform="translate(-0.685 -6.442)" fill="#d23f34"/>
      <path id="Trazado_1214192" data-name="Trazado 1214192" d="M12.965,37.513l-1.22-1.22-1.116,1.116L9.513,36.293l-1.22,1.22,1.116,1.116L8.293,39.745l1.22,1.22,1.116-1.116,1.116,1.116,1.22-1.22-1.116-1.116Z" transform="translate(-1 -4.837)" fill="#f2f2f2"/>
      <path id="Trazado_1214193" data-name="Trazado 1214193" d="M11.745,50.293l-1.116,1.116L9.513,50.293l-1.22,1.22,1.116,1.116L8.293,53.745l1.22,1.22,1.116-1.116,1.116,1.116,1.22-1.22-1.116-1.116,1.116-1.116Z" transform="translate(-1 -6.756)" fill="#f2f2f2"/>
      <path id="Trazado_1214194" data-name="Trazado 1214194" d="M19.518,28.509a.863.863,0,0,0,.837.653h3.452a.863.863,0,0,0,.837-.653L25.02,27a10.283,10.283,0,0,0,2-.828l1.332.8a.863.863,0,0,0,1.054-.13l2.44-2.44a.863.863,0,0,0,.13-1.054l-.8-1.333a10.269,10.269,0,0,0,.828-2l1.506-.377a.863.863,0,0,0,.654-.837V15.355a.863.863,0,0,0-.654-.837L32,14.141a10.269,10.269,0,0,0-.828-2l.8-1.333a.863.863,0,0,0-.13-1.054L29.4,7.319a.863.863,0,0,0-1.054-.13l-1.332.8a10.391,10.391,0,0,0-2-.83l-.376-1.5A.863.863,0,0,0,23.807,5H20.355a.863.863,0,0,0-.837.653l-.376,1.5a10.391,10.391,0,0,0-2,.828l-1.332-.8a.863.863,0,0,0-1.054.13l-2.44,2.44a.863.863,0,0,0-.13,1.054l.8,1.333a10.269,10.269,0,0,0-.828,2l-1.506.377a.863.863,0,0,0-.654.84v3.452a.863.863,0,0,0,.654.837l1.506.377a10.269,10.269,0,0,0,.828,2l-.8,1.333a.863.863,0,0,0,.13,1.054l2.44,2.44a.863.863,0,0,0,1.054.13l1.332-.8a10.283,10.283,0,0,0,2,.828Zm-2.825-4.076-1.19.714-1.489-1.488.715-1.19a.863.863,0,0,0,0-.895A8.537,8.537,0,0,1,13.7,19.1a.863.863,0,0,0-.63-.635l-1.349-.337v-2.1l1.345-.337a.863.863,0,0,0,.63-.635,8.537,8.537,0,0,1,1.024-2.47.863.863,0,0,0,0-.895l-.715-1.19L15.5,9.015l1.19.714a.863.863,0,0,0,.894,0A8.576,8.576,0,0,1,20.054,8.7a.863.863,0,0,0,.635-.63l.34-1.349h2.1l.337,1.345a.863.863,0,0,0,.635.63,8.576,8.576,0,0,1,2.471,1.024.863.863,0,0,0,.894,0l1.19-.714L30.148,10.5l-.715,1.19a.863.863,0,0,0,0,.895,8.537,8.537,0,0,1,1.024,2.47.863.863,0,0,0,.63.635l1.345.337v2.1l-1.345.337a.863.863,0,0,0-.63.635,8.537,8.537,0,0,1-1.024,2.47.863.863,0,0,0,0,.895l.715,1.19-1.489,1.488-1.19-.714a.863.863,0,0,0-.894,0,8.581,8.581,0,0,1-2.47,1.024.863.863,0,0,0-.636.629l-.337,1.353h-2.1l-.337-1.346a.863.863,0,0,0-.636-.629,8.581,8.581,0,0,1-2.47-1.024.863.863,0,0,0-.894,0Z" transform="translate(-1.234 -0.548)"/>
      <path id="Trazado_1214195" data-name="Trazado 1214195" d="M29.081,18.041a6.041,6.041,0,1,0-6.041,6.041A6.041,6.041,0,0,0,29.081,18.041Zm-10.355,0a4.315,4.315,0,1,1,4.315,4.315,4.315,4.315,0,0,1-4.315-4.315Z" transform="translate(-2.193 -1.508)"/>
      <path id="Trazado_1214196" data-name="Trazado 1214196" d="M42.421,19.122a11.981,11.981,0,0,0-1.726.138V1.863A.863.863,0,0,0,39.832,1H1.863A.863.863,0,0,0,1,1.863V53.639a.863.863,0,0,0,.863.863H39.832a.863.863,0,0,0,.863-.863V43.146a12.074,12.074,0,1,0,1.726-24.024ZM38.969,52.776H2.726V2.726H38.969v16.9A12.1,12.1,0,0,0,30.34,31.2c0,.292.023.576.044.863H16.533v1.726H30.626a11.982,11.982,0,0,0,.524,1.726H16.533v1.726H31.974a12.123,12.123,0,0,0,6.995,5.531Zm3.452-11.218A10.355,10.355,0,1,1,52.776,31.2,10.355,10.355,0,0,1,42.421,41.558Z"/>
      <path id="Trazado_1214197" data-name="Trazado 1214197" d="M48.589,40a2.589,2.589,0,1,0,2.589,2.589A2.589,2.589,0,0,0,48.589,40Zm0,3.452a.863.863,0,1,1,.863-.863A.863.863,0,0,1,48.589,43.452Z" transform="translate(-6.168 -5.345)"/>
      <path id="Trazado_1214198" data-name="Trazado 1214198" d="M48.589,26A2.589,2.589,0,0,0,46,28.589a14.6,14.6,0,0,0,.114,1.826l.649,5.191a1.841,1.841,0,0,0,3.652,0l.649-5.191a14.625,14.625,0,0,0,.114-1.827A2.589,2.589,0,0,0,48.589,26Zm.763,4.2L48.7,35.391a.118.118,0,0,1-.228,0L47.826,30.2a13.009,13.009,0,0,1-.1-1.612.863.863,0,0,1,1.726,0,13.012,13.012,0,0,1-.1,1.613Z" transform="translate(-6.168 -3.427)"/>
      <path id="Trazado_1214199" data-name="Trazado 1214199" d="M14.492,33H5.863A.863.863,0,0,0,5,33.863v8.629a.863.863,0,0,0,.863.863h8.629a.863.863,0,0,0,.863-.863V33.863A.863.863,0,0,0,14.492,33Zm-.863,8.629h-6.9v-6.9h6.9Z" transform="translate(-0.548 -4.386)"/>
      <path id="Trazado_1214200" data-name="Trazado 1214200" d="M9.513,40.965l1.116-1.116,1.116,1.116,1.22-1.22-1.116-1.116,1.116-1.116-1.22-1.22-1.116,1.116L9.513,36.293l-1.22,1.22,1.116,1.116L8.293,39.745Z" transform="translate(-1 -4.837)"/>
      <path id="Trazado_1214201" data-name="Trazado 1214201" d="M14.492,47H5.863A.863.863,0,0,0,5,47.863v8.629a.863.863,0,0,0,.863.863h8.629a.863.863,0,0,0,.863-.863V47.863A.863.863,0,0,0,14.492,47Zm-.863,8.629h-6.9v-6.9h6.9Z" transform="translate(-0.548 -6.305)"/>
      <path id="Trazado_1214202" data-name="Trazado 1214202" d="M9.513,54.965l1.116-1.116,1.116,1.116,1.22-1.22-1.116-1.116,1.116-1.116-1.22-1.22-1.116,1.116L9.513,50.293l-1.22,1.22,1.116,1.116L8.293,53.745Z" transform="translate(-1 -6.756)"/>
      <path id="Trazado_1214203" data-name="Trazado 1214203" d="M19,55H39.71v1.726H19Z" transform="translate(-2.467 -7.401)"/>
      <path id="Trazado_1214204" data-name="Trazado 1214204" d="M19,51H39.71v1.726H19Z" transform="translate(-2.467 -6.853)"/>
    </g>
  </g>
</svg>
