<svg xmlns="http://www.w3.org/2000/svg" xmlns:xlink="http://www.w3.org/1999/xlink" width="106.16" height="106.16" viewBox="0 0 106.16 106.16">
  <defs>
    <filter id="Trazado_982547" x="0" y="0" width="106.16" height="106.16" filterUnits="userSpaceOnUse">
      <feOffset dy="3" input="SourceAlpha"/>
      <feGaussianBlur stdDeviation="3" result="blur"/>
      <feFlood flood-opacity="0.161"/>
      <feComposite operator="in" in2="blur"/>
      <feComposite in="SourceGraphic"/>
    </filter>
  </defs>
  <g id="Grupo_1226088" data-name="Grupo 1226088" transform="translate(-810.75 -6792.684)">
    <g id="Grupo_1224858" data-name="Grupo 1224858" transform="translate(619.75 5069.684)">
      <g id="Grupo_1206130" data-name="Grupo 1206130" transform="translate(0 -59)">
        <g id="Grupo_1203672" data-name="Grupo 1203672" transform="translate(0.08 -4797.878)">
          <g id="Grupo_1203344" data-name="Grupo 1203344" transform="translate(-81.08 5174.875)">
            <g id="Grupo_1177900" data-name="Grupo 1177900" transform="translate(281 1411.003)">
              <g id="Grupo_1172010" data-name="Grupo 1172010" transform="translate(0)">
                <g id="Grupo_1171046" data-name="Grupo 1171046">
                  <g id="Grupo_1148525" data-name="Grupo 1148525">
                    <g transform="matrix(1, 0, 0, 1, -9, -6)" filter="url(#Trazado_982547)">
                      <g id="Trazado_982547-2" data-name="Trazado 982547" transform="translate(9 6)" fill="#e5ebfb">
                        <path d="M 44.0802001953125 86.660400390625 C 38.33124923706055 86.660400390625 32.75506210327148 85.53479766845703 27.50652503967285 83.31484985351562 C 22.43628692626953 81.17032623291016 17.88242530822754 78.09992218017578 13.97144985198975 74.18894958496094 C 10.06047534942627 70.27797698974609 6.99007511138916 65.72411346435547 4.845550060272217 60.65387344360352 C 2.625600099563599 55.40533828735352 1.500000238418579 49.82915115356445 1.500000238418579 44.0802001953125 C 1.500000238418579 38.33124923706055 2.625600099563599 32.75506210327148 4.845550060272217 27.50652503967285 C 6.99007511138916 22.43628692626953 10.06047534942627 17.88242530822754 13.97144985198975 13.97144985198975 C 17.88242530822754 10.06047534942627 22.43628692626953 6.99007511138916 27.50652503967285 4.845550060272217 C 32.75506210327148 2.625600099563599 38.33124923706055 1.500000238418579 44.0802001953125 1.500000238418579 C 49.82915115356445 1.500000238418579 55.40533828735352 2.625600099563599 60.65387344360352 4.845550060272217 C 65.72411346435547 6.99007511138916 70.27797698974609 10.06047534942627 74.18894958496094 13.97144985198975 C 78.09992218017578 17.88242530822754 81.17032623291016 22.43628692626953 83.31484985351562 27.50652503967285 C 85.53479766845703 32.75506210327148 86.660400390625 38.33124923706055 86.660400390625 44.0802001953125 C 86.660400390625 49.82915115356445 85.53479766845703 55.40533828735352 83.31484985351562 60.65387344360352 C 81.17032623291016 65.72411346435547 78.09992218017578 70.27797698974609 74.18894958496094 74.18894958496094 C 70.27797698974609 78.09992218017578 65.72411346435547 81.17032623291016 60.65387344360352 83.31484985351562 C 55.40533828735352 85.53479766845703 49.82915115356445 86.660400390625 44.0802001953125 86.660400390625 Z" stroke="none"/>
                        <path d="M 44.0802001953125 3 C 38.53308486938477 3 33.15349960327148 4.085746765136719 28.09085845947266 6.227058410644531 C 23.19941711425781 8.29595947265625 18.80581665039062 11.25841522216797 15.03211212158203 15.03211212158203 C 11.25841522216797 18.80581665039062 8.29595947265625 23.19941711425781 6.227058410644531 28.09085845947266 C 4.085746765136719 33.15349960327148 3 38.53308486938477 3 44.0802001953125 C 3 49.62731552124023 4.085746765136719 55.00691604614258 6.227058410644531 60.06954193115234 C 8.29595947265625 64.96098327636719 11.25841522216797 69.35458374023438 15.03211212158203 73.12828826904297 C 18.80581665039062 76.90198516845703 23.19941711425781 79.86444091796875 28.09085845947266 81.93334197998047 C 33.15349960327148 84.07466125488281 38.53308486938477 85.160400390625 44.0802001953125 85.160400390625 C 49.62731552124023 85.160400390625 55.00691604614258 84.07466125488281 60.06954193115234 81.93334197998047 C 64.96099853515625 79.86444091796875 69.35458374023438 76.90198516845703 73.12828826904297 73.12828826904297 C 76.90198516845703 69.35458374023438 79.86444091796875 64.96099853515625 81.93334197998047 60.06954193115234 C 84.07466125488281 55.00691604614258 85.160400390625 49.62731552124023 85.160400390625 44.0802001953125 C 85.160400390625 38.53308486938477 84.07466125488281 33.15349960327148 81.93334197998047 28.09085845947266 C 79.86444091796875 23.19941711425781 76.90198516845703 18.80581665039062 73.12828826904297 15.03211212158203 C 69.35458374023438 11.25841522216797 64.96098327636719 8.29595947265625 60.06954193115234 6.227058410644531 C 55.00691604614258 4.085746765136719 49.62731552124023 3 44.0802001953125 3 M 44.0802001953125 0 C 68.42502593994141 0 88.160400390625 19.73538970947266 88.160400390625 44.0802001953125 C 88.160400390625 68.42502593994141 68.42502593994141 88.160400390625 44.0802001953125 88.160400390625 C 19.73538970947266 88.160400390625 0 68.42502593994141 0 44.0802001953125 C 0 19.73538970947266 19.73538970947266 0 44.0802001953125 0 Z" stroke="none" fill="#0b47db"/>
                      </g>
                    </g>
                  </g>
                </g>
              </g>
            </g>
          </g>
        </g>
      </g>
    </g>
    <g id="revolucion" transform="translate(823.265 6800.543)">
      <g id="Grupo_1226087" data-name="Grupo 1226087" transform="translate(12.49 20.337)">
        <path id="Trazado_1214205" data-name="Trazado 1214205" d="M90.606,278.459a6.218,6.218,0,0,0-4.395,10.61,1.845,1.845,0,0,1,0,2.609L82.24,295.65a1.845,1.845,0,0,1-2.609,0,6.218,6.218,0,0,0-10.61,4.395,1.845,1.845,0,0,1-1.845,1.845H61.559a1.845,1.845,0,0,1-1.845-1.845A6.215,6.215,0,0,0,49.1,295.65a1.845,1.845,0,0,1-2.609,0l-3.972-3.972a1.845,1.845,0,0,1,0-2.609,6.218,6.218,0,0,0-4.395-10.61,1.845,1.845,0,0,1-1.845-1.845v-2.138a.64.64,0,0,1,.637-.639l13.1-.03a.638.638,0,0,1,.639.611,13.724,13.724,0,0,0,27.421,0,.639.639,0,0,1,.638-.611h13.1a.64.64,0,0,1,.639.639v2.169a1.844,1.844,0,0,1-1.844,1.845ZM72.259,274.5a.639.639,0,0,0-.636-.694H57.112a.639.639,0,0,0-.636.694,7.922,7.922,0,0,0,15.784,0Z" transform="translate(-36.284 -249.647)" fill="#fdcd56" fill-rule="evenodd"/>
        <g id="Grupo_1226086" data-name="Grupo 1226086" transform="translate(16.724 0)">
          <path id="Trazado_1214206" data-name="Trazado 1214206" d="M200.871,140.344l-.954-5.217.954-4.873,8.307-2.25a.383.383,0,0,1,.484.37v1.88l8.307-2.25a.383.383,0,0,1,.483.37v11.97Z" transform="translate(-195.732 -122.463)" fill="#cad0d7" fill-rule="evenodd"/>
          <path id="Trazado_1214207" data-name="Trazado 1214207" d="M167.172,102.615l0-17.286a.6.6,0,0,1,.6-.6h3.949a.6.6,0,0,1,.6.6l0,17.286Z" transform="translate(-167.167 -84.733)" fill="#e4e8eb" fill-rule="evenodd"/>
          <path id="Trazado_1214208" data-name="Trazado 1214208" d="M167.168,87.685h5.138V85.328a.6.6,0,0,0-.6-.6h-3.949a.6.6,0,0,0-.6.6Z" transform="translate(-167.167 -84.733)" fill="#cad0d7" fill-rule="evenodd"/>
        </g>
      </g>
      <path id="Trazado_1214209" data-name="Trazado 1214209" d="M48.406,32.416h1.3a.384.384,0,0,0,.384-.383V30.3a.384.384,0,0,0-.384-.384h-1.3a.385.385,0,0,0-.384.384v1.737A.385.385,0,0,0,48.406,32.416Zm-3.034,0h1.3a.385.385,0,0,0,.384-.383V30.3a.385.385,0,0,0-.384-.384h-1.3a.384.384,0,0,0-.383.384v1.737A.384.384,0,0,0,45.372,32.416Zm-5.756,0h1.3a.384.384,0,0,0,.383-.383V30.3a.384.384,0,0,0-.383-.384h-1.3a.385.385,0,0,0-.384.384v1.737A.384.384,0,0,0,39.616,32.416Zm-3.034,0h1.3a.384.384,0,0,0,.384-.383V30.3a.384.384,0,0,0-.384-.384h-1.3a.385.385,0,0,0-.384.384v1.737A.385.385,0,0,0,36.582,32.416Zm-1.334-3.538,7-1.9v1.212a.894.894,0,0,0,1.128.863l7.662-2.076V37.389H35.248Zm-1.789,8.511V24.248H30.112l0,13.141ZM30.111,21.3v1.163h3.348V21.3Zm5.137-.3v6.027l7.662-2.076a.9.9,0,0,1,1.129.863v1.212L51.7,24.949a.894.894,0,0,1,1.128.863V38.284a.894.894,0,0,1-.894.894H29.219a.894.894,0,0,1-.894-.894l0-17.286a1.487,1.487,0,0,1,1.487-1.49h3.949A1.49,1.49,0,0,1,35.248,21ZM71.864,37.657a.9.9,0,0,1,0,1.265l-2.593,2.592a.894.894,0,0,1-1.264,0l-2.593-2.592a.894.894,0,1,1,1.265-1.265l1.058,1.058A27.194,27.194,0,0,0,14.576,31.9c-.043.141-.085.283-.127.425a.894.894,0,1,1-1.718-.5q.066-.227.135-.453a28.982,28.982,0,0,1,56.664,7.352l1.07-1.07a.9.9,0,0,1,1.265,0Zm-24.32,7.8H33.6a7.028,7.028,0,0,0,13.942,0Zm.952-1.789a.9.9,0,0,1,.895.894,8.817,8.817,0,1,1-17.633,0,.894.894,0,0,1,.895-.894Zm20.793.262a.894.894,0,0,0-.632-.262H54.3a.9.9,0,0,0-.894.894,12.829,12.829,0,1,1-25.659,0,.894.894,0,0,0-.894-.894h0L16.7,43.7a.894.894,0,0,0,0,1.789h0l9.276-.027a14.619,14.619,0,0,0,29.182,0h12.6v1.914a.95.95,0,0,1-.949.95,7.113,7.113,0,0,0-5.028,12.138.952.952,0,0,1,0,1.344l-3.971,3.971a.951.951,0,0,1-1.344,0A7.113,7.113,0,0,0,44.333,70.8a.951.951,0,0,1-.951.95H37.766a.951.951,0,0,1-.95-.95,7.11,7.11,0,0,0-12.138-5.028.951.951,0,0,1-1.344,0L19.363,61.8a.95.95,0,0,1,0-1.344,7.113,7.113,0,0,0-5.027-12.138.951.951,0,0,1-.951-.95V37.4l1.065,1.065A.894.894,0,1,0,15.716,37.2L13.124,34.61a.9.9,0,0,0-1.265,0L9.267,37.2a.894.894,0,1,0,1.265,1.265L11.6,37.4v9.967a2.742,2.742,0,0,0,2.739,2.739A5.324,5.324,0,0,1,18.1,59.192a2.743,2.743,0,0,0,0,3.874l3.971,3.971a2.742,2.742,0,0,0,3.874,0A5.321,5.321,0,0,1,35.027,70.8a2.742,2.742,0,0,0,2.739,2.739h5.616A2.742,2.742,0,0,0,46.121,70.8,5.324,5.324,0,0,1,55.2,67.037a2.743,2.743,0,0,0,3.875,0l3.971-3.971a2.74,2.74,0,0,0,0-3.874,5.324,5.324,0,0,1,3.763-9.084,2.742,2.742,0,0,0,2.739-2.739V44.561a.9.9,0,0,0-.263-.633Z" transform="translate(0 0)" fill-rule="evenodd"/>
    </g>
  </g>
</svg>
