<svg xmlns="http://www.w3.org/2000/svg" xmlns:xlink="http://www.w3.org/1999/xlink" width="106.16" height="106.16" viewBox="0 0 106.16 106.16">
  <defs>
    <filter id="Trazado_982547" x="0" y="0" width="106.16" height="106.16" filterUnits="userSpaceOnUse">
      <feOffset dy="3" input="SourceAlpha"/>
      <feGaussianBlur stdDeviation="3" result="blur"/>
      <feFlood flood-opacity="0.161"/>
      <feComposite operator="in" in2="blur"/>
      <feComposite in="SourceGraphic"/>
    </filter>
  </defs>
  <g id="Grupo_1226089" data-name="Grupo 1226089" transform="translate(-1127.84 -6792.684)">
    <g id="Grupo_1224859" data-name="Grupo 1224859" transform="translate(936.84 5069.684)">
      <g id="Grupo_1206130" data-name="Grupo 1206130" transform="translate(0 -59)">
        <g id="Grupo_1203672" data-name="Grupo 1203672" transform="translate(0.08 -4797.878)">
          <g id="Grupo_1203344" data-name="Grupo 1203344" transform="translate(-81.08 5174.875)">
            <g id="Grupo_1177900" data-name="Grupo 1177900" transform="translate(281 1411.003)">
              <g id="Grupo_1172010" data-name="Grupo 1172010" transform="translate(0)">
                <g id="Grupo_1171046" data-name="Grupo 1171046">
                  <g id="Grupo_1148525" data-name="Grupo 1148525">
                    <g transform="matrix(1, 0, 0, 1, -9, -6)" filter="url(#Trazado_982547)">
                      <g id="Trazado_982547-2" data-name="Trazado 982547" transform="translate(9 6)" fill="#e5ebfb">
                        <path d="M 44.0802001953125 86.660400390625 C 38.33124923706055 86.660400390625 32.75506210327148 85.53479766845703 27.50652503967285 83.31484985351562 C 22.43628692626953 81.17032623291016 17.88242530822754 78.09992218017578 13.97144985198975 74.18894958496094 C 10.06047534942627 70.27797698974609 6.99007511138916 65.72411346435547 4.845550060272217 60.65387344360352 C 2.625600099563599 55.40533828735352 1.500000238418579 49.82915115356445 1.500000238418579 44.0802001953125 C 1.500000238418579 38.33124923706055 2.625600099563599 32.75506210327148 4.845550060272217 27.50652503967285 C 6.99007511138916 22.43628692626953 10.06047534942627 17.88242530822754 13.97144985198975 13.97144985198975 C 17.88242530822754 10.06047534942627 22.43628692626953 6.99007511138916 27.50652503967285 4.845550060272217 C 32.75506210327148 2.625600099563599 38.33124923706055 1.500000238418579 44.0802001953125 1.500000238418579 C 49.82915115356445 1.500000238418579 55.40533828735352 2.625600099563599 60.65387344360352 4.845550060272217 C 65.72411346435547 6.99007511138916 70.27797698974609 10.06047534942627 74.18894958496094 13.97144985198975 C 78.09992218017578 17.88242530822754 81.17032623291016 22.43628692626953 83.31484985351562 27.50652503967285 C 85.53479766845703 32.75506210327148 86.660400390625 38.33124923706055 86.660400390625 44.0802001953125 C 86.660400390625 49.82915115356445 85.53479766845703 55.40533828735352 83.31484985351562 60.65387344360352 C 81.17032623291016 65.72411346435547 78.09992218017578 70.27797698974609 74.18894958496094 74.18894958496094 C 70.27797698974609 78.09992218017578 65.72411346435547 81.17032623291016 60.65387344360352 83.31484985351562 C 55.40533828735352 85.53479766845703 49.82915115356445 86.660400390625 44.0802001953125 86.660400390625 Z" stroke="none"/>
                        <path d="M 44.0802001953125 3 C 38.53308486938477 3 33.15349960327148 4.085746765136719 28.09085845947266 6.227058410644531 C 23.19941711425781 8.29595947265625 18.80581665039062 11.25841522216797 15.03211212158203 15.03211212158203 C 11.25841522216797 18.80581665039062 8.29595947265625 23.19941711425781 6.227058410644531 28.09085845947266 C 4.085746765136719 33.15349960327148 3 38.53308486938477 3 44.0802001953125 C 3 49.62731552124023 4.085746765136719 55.00691604614258 6.227058410644531 60.06954193115234 C 8.29595947265625 64.96098327636719 11.25841522216797 69.35458374023438 15.03211212158203 73.12828826904297 C 18.80581665039062 76.90198516845703 23.19941711425781 79.86444091796875 28.09085845947266 81.93334197998047 C 33.15349960327148 84.07466125488281 38.53308486938477 85.160400390625 44.0802001953125 85.160400390625 C 49.62731552124023 85.160400390625 55.00691604614258 84.07466125488281 60.06954193115234 81.93334197998047 C 64.96099853515625 79.86444091796875 69.35458374023438 76.90198516845703 73.12828826904297 73.12828826904297 C 76.90198516845703 69.35458374023438 79.86444091796875 64.96099853515625 81.93334197998047 60.06954193115234 C 84.07466125488281 55.00691604614258 85.160400390625 49.62731552124023 85.160400390625 44.0802001953125 C 85.160400390625 38.53308486938477 84.07466125488281 33.15349960327148 81.93334197998047 28.09085845947266 C 79.86444091796875 23.19941711425781 76.90198516845703 18.80581665039062 73.12828826904297 15.03211212158203 C 69.35458374023438 11.25841522216797 64.96098327636719 8.29595947265625 60.06954193115234 6.227058410644531 C 55.00691604614258 4.085746765136719 49.62731552124023 3 44.0802001953125 3 M 44.0802001953125 0 C 68.42502593994141 0 88.160400390625 19.73538970947266 88.160400390625 44.0802001953125 C 88.160400390625 68.42502593994141 68.42502593994141 88.160400390625 44.0802001953125 88.160400390625 C 19.73538970947266 88.160400390625 0 68.42502593994141 0 44.0802001953125 C 0 19.73538970947266 19.73538970947266 0 44.0802001953125 0 Z" stroke="none" fill="#0b47db"/>
                      </g>
                    </g>
                  </g>
                </g>
              </g>
            </g>
          </g>
        </g>
      </g>
    </g>
    <g id="_6._Signature" data-name="6. Signature" transform="translate(1157.5 6818.5)">
      <rect id="Rectángulo_422067" data-name="Rectángulo 422067" width="34" height="49" rx="16" transform="translate(1.5 1.5)" fill="#f6f6f6"/>
      <path id="Trazado_1214210" data-name="Trazado 1214210" d="M41.407,465.591H9.591A1.591,1.591,0,0,1,8,464v2.386a1.591,1.591,0,0,0,1.591,1.591H41.407A1.591,1.591,0,0,0,43,466.386V464A1.591,1.591,0,0,1,41.407,465.591Z" transform="translate(-7.205 -417.867)" fill="#dcdcdc"/>
      <path id="Trazado_1214211" data-name="Trazado 1214211" d="M34.2,50.905H2.386A2.386,2.386,0,0,1,0,48.519V2.386A2.386,2.386,0,0,1,2.386,0H34.2a2.386,2.386,0,0,1,2.386,2.386v10.34a.8.8,0,0,1-1.591,0V2.386a.8.8,0,0,0-.8-.8H2.386a.8.8,0,0,0-.8.8V48.519a.8.8,0,0,0,.8.8H34.2a.8.8,0,0,0,.8-.8V42.156a.8.8,0,0,1,1.591,0v6.363A2.386,2.386,0,0,1,34.2,50.905Z" transform="translate(0 0)"/>
      <path id="Trazado_1214212" data-name="Trazado 1214212" d="M352.8,190.271a.8.8,0,0,1-.8-.8V168.8a.8.8,0,0,1,1.591,0v20.68A.8.8,0,0,1,352.8,190.271Z" transform="translate(-317.003 -151.297)"/>
      <path id="Trazado_1214213" data-name="Trazado 1214213" d="M74.248,193.591H48.8a.8.8,0,1,1,0-1.591H74.248a.8.8,0,1,1,0,1.591Z" transform="translate(-43.228 -172.911)"/>
      <path id="Trazado_1214214" data-name="Trazado 1214214" d="M74.248,233.591H48.8a.8.8,0,1,1,0-1.591H74.248a.8.8,0,1,1,0,1.591Z" transform="translate(-43.228 -208.934)"/>
      <path id="Trazado_1214215" data-name="Trazado 1214215" d="M74.248,273.591H48.8a.8.8,0,1,1,0-1.591H74.248a.8.8,0,1,1,0,1.591Z" transform="translate(-43.228 -244.957)"/>
      <path id="Trazado_1214216" data-name="Trazado 1214216" d="M74.248,313.591H48.8a.8.8,0,0,1,0-1.591H74.248a.8.8,0,0,1,0,1.591Z" transform="translate(-43.228 -280.98)"/>
      <path id="Trazado_1214217" data-name="Trazado 1214217" d="M74.248,353.591H48.8a.8.8,0,0,1,0-1.591H74.248a.8.8,0,0,1,0,1.591Z" transform="translate(-43.228 -317.003)"/>
      <path id="Trazado_1214218" data-name="Trazado 1214218" d="M464,256h3.977v13.522H464Z" transform="translate(-417.867 -230.547)" fill="#a8edfd"/>
      <path id="Trazado_1214219" data-name="Trazado 1214219" d="M464,368h3.977v2.386H464Z" transform="translate(-417.867 -331.412)" fill="#8bd4de"/>
      <path id="Trazado_1214220" data-name="Trazado 1214220" d="M460.772,263.113H456.8a.8.8,0,0,1-.8-.8V248.8a.8.8,0,0,1,.8-.8h3.977a.8.8,0,0,1,.8.8v13.522A.8.8,0,0,1,460.772,263.113Zm-3.182-1.591h2.386V249.591h-2.386Z" transform="translate(-410.662 -223.343)"/>
      <path id="Trazado_1214221" data-name="Trazado 1214221" d="M212.282,242.754c-4.393,9.413-4.272,9.177-4.282,9.177a3.372,3.372,0,0,0,3.829-1.266l1.844-2.635a7.675,7.675,0,0,1,6.258-3.258,2.386,2.386,0,0,1,0,4.772h-3.182a3.977,3.977,0,0,0-3.977,3.977H220.4a2.716,2.716,0,0,1,1.919.795,2.716,2.716,0,0,0,1.92.8h5.393a2.728,2.728,0,0,0,1.215-.286l2.608-1.3v-10.34h-.932a5.432,5.432,0,0,1-3.841-1.591A5.432,5.432,0,0,0,224.84,240h-8.232a4.772,4.772,0,0,0-4.325,2.754Z" transform="translate(-187.32 -216.138)" fill="#e0c3aa"/>
      <path id="Trazado_1214222" data-name="Trazado 1214222" d="M200.533,245.481a.8.8,0,0,1-.469-1.094l4.282-9.177a5.589,5.589,0,0,1,5.046-3.21h8.232a6.186,6.186,0,0,1,4.4,1.823,4.6,4.6,0,0,0,3.281,1.358h.929a.8.8,0,0,1,.8.8v4.772a.8.8,0,0,1-1.591,0v-3.977h-.136a6.186,6.186,0,0,1-4.4-1.823,4.6,4.6,0,0,0-3.281-1.358h-8.232a3.992,3.992,0,0,0-3.6,2.295l-3.83,8.214a2.591,2.591,0,0,0,2.006-1.094l1.845-2.636a8.442,8.442,0,0,1,6.909-3.6,3.182,3.182,0,0,1,3.182,3.182.8.8,0,1,1-1.591,0,1.591,1.591,0,0,0-1.591-1.591,6.844,6.844,0,0,0-5.6,2.918l-1.846,2.636A4.193,4.193,0,0,1,200.533,245.481Z" transform="translate(-180.105 -208.933)"/>
      <path id="Trazado_1214223" data-name="Trazado 1214223" d="M0,0H4.772V23.862H0Z" transform="matrix(0.857, 0.516, -0.516, 0.857, 33.442, 18.742)" fill="#6fc3e2"/>
      <path id="Trazado_1214224" data-name="Trazado 1214224" d="M209.091,204.759,205,202.3a.8.8,0,0,1-.271-1.094l12.3-20.443a.8.8,0,0,1,1.094-.271l4.089,2.461a.8.8,0,0,1,.271,1.094l-12.307,20.443A.8.8,0,0,1,209.091,204.759Zm-2.585-3.413,2.721,1.641L220.711,183.9l-2.726-1.64Z" transform="translate(-184.272 -162.442)"/>
      <path id="Trazado_1214225" data-name="Trazado 1214225" d="M208.856,394.01l-.416,5.32,4.5-2.859Z" transform="translate(-187.716 -354.836)" fill="#a6806f"/>
      <path id="Trazado_1214226" data-name="Trazado 1214226" d="M200.438,392.067l.417-5.319a.8.8,0,0,1,1.2-.619l4.089,2.461a.8.8,0,0,1,.016,1.353l-4.506,2.858a.8.8,0,0,1-1.219-.734Zm1.9-3.912-.192,2.451,2.075-1.311Z" transform="translate(-180.507 -347.636)"/>
      <path id="Trazado_1214227" data-name="Trazado 1214227" d="M265.545,312a2.386,2.386,0,0,1-2.386,2.386h-3.182A3.977,3.977,0,0,0,256,318.363h7.625a2.716,2.716,0,0,1,1.919.795,2.716,2.716,0,0,0,1.92.8h5.393a2.728,2.728,0,0,0,1.215-.286l2.608-1.3V312.8" transform="translate(-230.547 -280.98)" fill="#e0c3aa"/>
      <path id="Trazado_1214228" data-name="Trazado 1214228" d="M272.857,353.591h-5.393a2.716,2.716,0,0,1-1.919-.795,2.717,2.717,0,0,0-1.92-.8H256.8a3.963,3.963,0,0,0-.8,2.386h7.625a2.716,2.716,0,0,1,1.919.795,2.716,2.716,0,0,0,1.92.8h5.393a2.728,2.728,0,0,0,1.215-.286l2.608-1.3V352l-2.608,1.3A2.728,2.728,0,0,1,272.857,353.591Z" transform="translate(-230.547 -317.003)" fill="#d0a37f"/>
      <path id="Trazado_1214229" data-name="Trazado 1214229" d="M265.653,313.545H260.26a3.488,3.488,0,0,1-2.486-1.028,1.9,1.9,0,0,0-1.354-.563H248.8a.8.8,0,0,1-.8-.8,4.777,4.777,0,0,1,4.772-4.772h3.182a1.591,1.591,0,0,0,1.591-1.591.8.8,0,1,1,1.591,0,3.182,3.182,0,0,1-3.182,3.182h-3.182a3.188,3.188,0,0,0-3.082,2.386h6.729a3.488,3.488,0,0,1,2.486,1.028,1.9,1.9,0,0,0,1.355.563h5.393a1.938,1.938,0,0,0,.859-.2l2.168-1.088v-5.077a.8.8,0,1,1,1.591,0v5.568a.8.8,0,0,1-.439.712l-2.609,1.3A3.523,3.523,0,0,1,265.653,313.545Z" transform="translate(-223.343 -273.775)"/>
      <path id="Trazado_1214230" data-name="Trazado 1214230" d="M340.465,163.382a2.386,2.386,0,0,0-3.275.814l-.82,1.363,4.089,2.461.82-1.363A2.386,2.386,0,0,0,340.465,163.382Z" transform="translate(-302.927 -146.83)" fill="#5f79a5"/>
      <path id="Trazado_1214231" data-name="Trazado 1214231" d="M332.841,161.492l-4.089-2.461a.8.8,0,0,1-.271-1.094l.82-1.363a3.182,3.182,0,0,1,5.452,3.281l-.82,1.363A.8.8,0,0,1,332.841,161.492Zm-2.585-3.413,2.726,1.641.411-.681a1.594,1.594,0,1,0-2.73-1.644Z" transform="translate(-295.718 -139.619)"/>
      <path id="Trazado_1214232" data-name="Trazado 1214232" d="M112.8,443.169a.8.8,0,0,1-.635-1.273l.659-.879a2.575,2.575,0,0,1,4.122,0,2.585,2.585,0,0,1,3.446.561h10.7a.8.8,0,1,1,0,1.591H119.963a.8.8,0,0,1-.712-.439.981.981,0,0,0-1.758,0,.8.8,0,0,1-1.424,0l-.3-.607a.982.982,0,0,0-1.669-.146l-.659.879A.8.8,0,0,1,112.8,443.169Z" transform="translate(-100.873 -396.241)"/>
      <path id="Trazado_1214233" data-name="Trazado 1214233" d="M56,56H81.453v6.363H56Z" transform="translate(-50.432 -50.432)" fill="#ead590"/>
      <path id="Trazado_1214234" data-name="Trazado 1214234" d="M56,96H81.453v2.386H56Z" transform="translate(-50.432 -86.455)" fill="#f1cb66"/>
      <path id="Trazado_1214235" data-name="Trazado 1214235" d="M74.248,55.954H48.8a.8.8,0,0,1-.8-.8V48.8a.8.8,0,0,1,.8-.8H74.248a.8.8,0,0,1,.8.8v6.363A.8.8,0,0,1,74.248,55.954ZM49.591,54.363H73.453V49.591H49.591Z" transform="translate(-43.228 -43.228)"/>
      <path id="Trazado_1214236" data-name="Trazado 1214236" d="M59.931,153.591H48.8a.8.8,0,0,1,0-1.591H59.931a.8.8,0,0,1,0,1.591Z" transform="translate(-43.228 -136.887)"/>
    </g>
  </g>
</svg>
