<svg xmlns="http://www.w3.org/2000/svg" xmlns:xlink="http://www.w3.org/1999/xlink" width="118" height="118" viewBox="0 0 118 118">
  <defs>
    <filter id="Trazado_982547" x="0" y="0" width="118" height="118" filterUnits="userSpaceOnUse">
      <feOffset dy="3" input="SourceAlpha"/>
      <feGaussianBlur stdDeviation="3" result="blur"/>
      <feFlood flood-opacity="0.161"/>
      <feComposite operator="in" in2="blur"/>
      <feComposite in="SourceGraphic"/>
    </filter>
  </defs>
  <g id="Grupo_1225721" data-name="Grupo 1225721" transform="translate(-320.888 -1303.926)">
    <g id="Grupo_1224853" data-name="Grupo 1224853" transform="translate(329.888 1309.926)">
      <g id="Grupo_1174813" data-name="Grupo 1174813">
        <g id="Grupo_1201680" data-name="Grupo 1201680">
          <g id="Grupo_1201330" data-name="Grupo 1201330">
            <g id="Grupo_1172010" data-name="Grupo 1172010">
              <g id="Grupo_1171046" data-name="Grupo 1171046">
                <g id="Grupo_1148525" data-name="Grupo 1148525">
                  <g transform="matrix(1, 0, 0, 1, -9, -6)" filter="url(#Trazado_982547)">
                    <g id="Trazado_982547-2" data-name="Trazado 982547" transform="translate(9 6)" fill="#fdf4ce">
                      <path d="M 50 98.5 C 43.45188522338867 98.5 37.10042953491211 97.21787261962891 31.12207221984863 94.68923950195312 C 25.34691429138184 92.24655914306641 20.15997123718262 88.74931335449219 15.70532894134521 84.29468536376953 C 11.2506856918335 79.84004211425781 7.753442764282227 74.65309906005859 5.310757160186768 68.8779296875 C 2.782128572463989 62.89957046508789 1.5 56.54811477661133 1.5 50 C 1.5 43.45188522338867 2.782128572463989 37.10042953491211 5.310757160186768 31.12207221984863 C 7.753442764282227 25.34691429138184 11.2506856918335 20.15997123718262 15.70532894134521 15.70532894134521 C 20.15997123718262 11.2506856918335 25.34691429138184 7.753442764282227 31.12207221984863 5.310757160186768 C 37.10042953491211 2.782128572463989 43.45188522338867 1.5 50 1.5 C 56.54811477661133 1.5 62.89957046508789 2.782128572463989 68.8779296875 5.310757160186768 C 74.65309906005859 7.753442764282227 79.84004211425781 11.2506856918335 84.29468536376953 15.70532894134521 C 88.74931335449219 20.15997123718262 92.24655914306641 25.34691429138184 94.68923950195312 31.12207221984863 C 97.21787261962891 37.10042953491211 98.5 43.45188522338867 98.5 50 C 98.5 56.54811477661133 97.21787261962891 62.89957046508789 94.68923950195312 68.8779296875 C 92.24655914306641 74.65309906005859 88.74931335449219 79.84004211425781 84.29468536376953 84.29468536376953 C 79.84004211425781 88.74931335449219 74.65309906005859 92.24655914306641 68.8779296875 94.68923950195312 C 62.89957046508789 97.21787261962891 56.54811477661133 98.5 50 98.5 Z" stroke="none"/>
                      <path d="M 50 3 C 43.65372467041016 3 37.49886322021484 4.242263793945312 31.70639801025391 6.6922607421875 C 26.11003112792969 9.059326171875 21.08335113525391 12.44861602783203 16.76598358154297 16.76598358154297 C 12.44861602783203 21.08335113525391 9.059326171875 26.11003112792969 6.6922607421875 31.70639801025391 C 4.242263793945312 37.49886322021484 3 43.65372467041016 3 50 C 3 56.34627532958984 4.242263793945312 62.50113677978516 6.6922607421875 68.29360198974609 C 9.059326171875 73.88996887207031 12.44861602783203 78.91666412353516 16.76598358154297 83.23401641845703 C 21.08335113525391 87.55138397216797 26.11003112792969 90.940673828125 31.70639801025391 93.3077392578125 C 37.49886322021484 95.75773620605469 43.65372467041016 97 50 97 C 56.34627532958984 97 62.50113677978516 95.75773620605469 68.29360198974609 93.3077392578125 C 73.88996887207031 90.940673828125 78.91666412353516 87.55138397216797 83.23401641845703 83.23401641845703 C 87.55138397216797 78.91666412353516 90.940673828125 73.88996887207031 93.3077392578125 68.29360198974609 C 95.75773620605469 62.50113677978516 97 56.34627532958984 97 50 C 97 43.65372467041016 95.75773620605469 37.49886322021484 93.3077392578125 31.70639801025391 C 90.940673828125 26.11003112792969 87.55138397216797 21.08335113525391 83.23401641845703 16.76598358154297 C 78.91666412353516 12.44861602783203 73.88996887207031 9.059326171875 68.29360198974609 6.6922607421875 C 62.50113677978516 4.242263793945312 56.34627532958984 3 50 3 M 50 0 C 77.61424255371094 0 100 22.38577270507812 100 50 C 100 77.61424255371094 77.61424255371094 100 50 100 C 22.38577270507812 100 0 77.61424255371094 0 50 C 0 22.38577270507812 22.38577270507812 0 50 0 Z" stroke="none" fill="#866d08"/>
                    </g>
                  </g>
                </g>
              </g>
            </g>
          </g>
        </g>
      </g>
    </g>
    <g id="customer_3322964" transform="translate(346.306 1326.343)">
      <g id="Grupo_1225719" data-name="Grupo 1225719" transform="translate(2.051 2.051)">
        <g id="Grupo_1225701" data-name="Grupo 1225701" transform="translate(42.042 35.735)">
          <path id="Trazado_1213607" data-name="Trazado 1213607" d="M47.255,50.715H42V44.7a8.418,8.418,0,0,1,5.1-7.736L49.357,36l.116.221a3.393,3.393,0,0,0,6.075,0L55.664,36l2.26.967a8.418,8.418,0,0,1,5.1,7.736v6.012H47.255Z" transform="translate(-42 -36)" fill="#b4dd7f"/>
        </g>
        <g id="Grupo_1225702" data-name="Grupo 1225702" transform="translate(42.042 12.613)">
          <path id="Trazado_1213608" data-name="Trazado 1213608" d="M56.715,22.408H47.255A1.054,1.054,0,0,0,46.2,23.459v5.255a6.3,6.3,0,0,0,3.8,5.791l-.652,2.617-2.26.967a8.489,8.489,0,0,0-2.407,1.566A5.555,5.555,0,0,1,42,34.895V23.459A9.46,9.46,0,0,1,51.459,14h2.1a9.46,9.46,0,0,1,9.459,9.459V34.895a5.555,5.555,0,0,1-2.691,4.761,8.49,8.49,0,0,0-2.407-1.566l-2.26-.967-.652-2.617a6.3,6.3,0,0,0,3.8-5.791V23.459a1.054,1.054,0,0,0-1.051-1.051Z" transform="translate(-42 -14)" fill="#656d78"/>
        </g>
        <g id="Grupo_1225703" data-name="Grupo 1225703" transform="translate(0 12.613)">
          <path id="Trazado_1213609" data-name="Trazado 1213609" d="M4.1,24.51a2.108,2.108,0,0,0-2.1,2.1V23.459A9.46,9.46,0,0,1,11.459,14h2.1a9.46,9.46,0,0,1,9.459,9.459v4.393a6.262,6.262,0,0,1-1.062,3.5l-.547.83a2.878,2.878,0,0,0-.494,1.619,2.935,2.935,0,0,0,.862,2.081l.494.494a2.537,2.537,0,0,1,0,3.595l-.883.883a8.487,8.487,0,0,0-3.468-2.764l-1.209-.515-.095-.042a2.123,2.123,0,0,1-1.209-1.419l-.4-1.608a6.339,6.339,0,0,0,3.8-5.791v-4.2a2.108,2.108,0,0,0-2.1-2.1H8.306a2.108,2.108,0,0,0-2.1,2.1Z" transform="translate(-2 -14)" fill="#fcd770"/>
        </g>
        <g id="Grupo_1225704" data-name="Grupo 1225704" transform="translate(0 36.187)">
          <path id="Trazado_1213610" data-name="Trazado 1213610" d="M6.1,37.45a4.029,4.029,0,0,0,2,.62,1.409,1.409,0,0,0,.21.011,10.553,10.553,0,0,0,4.2,8.408,10.4,10.4,0,0,0,3.09-3.71c.084-.158.158-.326.231-.494a10.359,10.359,0,0,0,.883-4.2V36.43l1.209.515a8.487,8.487,0,0,1,3.468,2.764,8.357,8.357,0,0,1,1.629,4.971v6.012H2V44.681A8.378,8.378,0,0,1,6.1,37.46Z" transform="translate(-2 -36.43)" fill="#ff826e"/>
        </g>
        <g id="Grupo_1225705" data-name="Grupo 1225705" transform="translate(7.189 42.042)">
          <path id="Trazado_1213611" data-name="Trazado 1213611" d="M15.483,42c-.074.168-.147.336-.231.494a10.4,10.4,0,0,1-3.09,3.71A10.435,10.435,0,0,1,8.84,42Z" transform="translate(-8.84 -42)" fill="#ffeaa7"/>
        </g>
        <g id="Grupo_1225706" data-name="Grupo 1225706" transform="translate(49.399 33.118)">
          <path id="Trazado_1213612" data-name="Trazado 1213612" d="M49.652,33.51a6.333,6.333,0,0,0,5,0l.652,2.617-.116.221a3.393,3.393,0,0,1-6.075,0L49,36.127Z" transform="translate(-49 -33.51)" fill="#f0d0b4"/>
        </g>
        <g id="Grupo_1225707" data-name="Grupo 1225707" transform="translate(46.246 21.021)">
          <path id="Trazado_1213613" data-name="Trazado 1213613" d="M49.8,34.1A6.3,6.3,0,0,1,46,28.306V23.051A1.054,1.054,0,0,1,47.051,22h10.51a1.054,1.054,0,0,1,1.051,1.051v5.255a6.3,6.3,0,0,1-3.8,5.791,6.333,6.333,0,0,1-5,0Z" transform="translate(-46 -22)" fill="#f0d0b4"/>
        </g>
        <g id="Grupo_1225708" data-name="Grupo 1225708" transform="translate(6.306 33.118)">
          <path id="Trazado_1213614" data-name="Trazado 1213614" d="M8,38.229h2.1a2.117,2.117,0,0,0,2.1-2.1,2.108,2.108,0,0,0-2.1-2.1v-.357a6.351,6.351,0,0,0,2.1.357l2.5-.515.4,1.608a2.123,2.123,0,0,0,1.209,1.419l.095.042v1.65a10.359,10.359,0,0,1-.883,4.2H8.883A10.359,10.359,0,0,1,8,38.229Z" transform="translate(-8 -33.51)" fill="#f0d0b4"/>
        </g>
        <g id="Grupo_1225709" data-name="Grupo 1225709" transform="translate(4.204 21.021)">
          <path id="Trazado_1213615" data-name="Trazado 1213615" d="M6.357,30.408A6.351,6.351,0,0,1,6,28.306V24.1A2.108,2.108,0,0,1,8.1,22H16.51a2.108,2.108,0,0,1,2.1,2.1v4.2a6.339,6.339,0,0,1-3.8,5.791l-2.5.515a6.3,6.3,0,0,1-5.949-4.2Z" transform="translate(-6 -22)" fill="#f0d0b4"/>
        </g>
        <g id="Grupo_1225710" data-name="Grupo 1225710" transform="translate(0 23.123)">
          <path id="Trazado_1213616" data-name="Trazado 1213616" d="M6.2,28.2a6.351,6.351,0,0,0,.357,2.1H4.1A2.108,2.108,0,0,1,2,28.2V26.1A2.108,2.108,0,0,1,4.1,24H6.2Z" transform="translate(-2 -24)" fill="#aab2bd"/>
        </g>
        <g id="Grupo_1225711" data-name="Grupo 1225711" transform="translate(4.204 33.633)">
          <path id="Trazado_1213617" data-name="Trazado 1213617" d="M10.2,34a2.108,2.108,0,0,1,2.1,2.1,2.117,2.117,0,0,1-2.1,2.1H8.1a1.409,1.409,0,0,1-.21-.011A2.108,2.108,0,0,1,6,36.1,2.117,2.117,0,0,1,8.1,34Z" transform="translate(-6 -34)" fill="#aab2bd"/>
        </g>
        <g id="Grupo_1225712" data-name="Grupo 1225712" transform="translate(25.225 42.042)">
          <path id="Trazado_1213618" data-name="Trazado 1213618" d="M38.613,43.051v10.51a1.054,1.054,0,0,1-1.051,1.051H27.051A1.054,1.054,0,0,1,26,53.561V43.051A1.054,1.054,0,0,1,27.051,42h10.51A1.054,1.054,0,0,1,38.613,43.051Z" transform="translate(-26 -42)" fill="#e6e9ed"/>
        </g>
        <g id="Grupo_1225713" data-name="Grupo 1225713" transform="translate(25.225 25.225)">
          <path id="Trazado_1213619" data-name="Trazado 1213619" d="M38.613,27.051v10.51a1.054,1.054,0,0,1-1.051,1.051H27.051A1.054,1.054,0,0,1,26,37.561V27.051A1.054,1.054,0,0,1,27.051,26h10.51A1.054,1.054,0,0,1,38.613,27.051Z" transform="translate(-26 -26)" fill="#e6e9ed"/>
        </g>
        <g id="Grupo_1225714" data-name="Grupo 1225714" transform="translate(25.225 8.408)">
          <path id="Trazado_1213620" data-name="Trazado 1213620" d="M38.613,11.051v10.51a1.054,1.054,0,0,1-1.051,1.051H27.051A1.054,1.054,0,0,1,26,21.561V11.051A1.054,1.054,0,0,1,27.051,10h10.51A1.054,1.054,0,0,1,38.613,11.051Z" transform="translate(-26 -10)" fill="#e6e9ed"/>
        </g>
        <g id="Grupo_1225715" data-name="Grupo 1225715" transform="translate(50.45)">
          <ellipse id="Elipse_12946" data-name="Elipse 12946" cx="2.5" cy="2" rx="2.5" ry="2" transform="translate(-0.336 0.114)" fill="#ff826e"/>
        </g>
        <g id="Grupo_1225716" data-name="Grupo 1225716" transform="translate(29.429)">
          <ellipse id="Elipse_12947" data-name="Elipse 12947" cx="2.5" cy="2" rx="2.5" ry="2" transform="translate(-0.316 0.114)" fill="#ff826e"/>
        </g>
        <g id="Grupo_1225717" data-name="Grupo 1225717" transform="translate(29.429 58.858)">
          <ellipse id="Elipse_12948" data-name="Elipse 12948" cx="2.5" cy="2" rx="2.5" ry="2" transform="translate(-0.316 0.255)" fill="#ff826e"/>
        </g>
        <g id="Grupo_1225718" data-name="Grupo 1225718" transform="translate(8.408 58.858)">
          <circle id="Elipse_12949" data-name="Elipse 12949" cx="2" cy="2" r="2" transform="translate(-0.295 0.255)" fill="#ff826e"/>
        </g>
      </g>
      <g id="Grupo_1225720" data-name="Grupo 1225720" transform="translate(1 1)">
        <path id="Trazado_1213621" data-name="Trazado 1213621" d="M29,13h6.306v2.1H29Z" transform="translate(0.429 -0.387)"/>
        <path id="Trazado_1213622" data-name="Trazado 1213622" d="M29,17h6.306v2.1H29Z" transform="translate(0.429 -0.183)"/>
        <path id="Trazado_1213623" data-name="Trazado 1213623" d="M29,29h6.306v2.1H29Z" transform="translate(0.429 0.429)"/>
        <path id="Trazado_1213624" data-name="Trazado 1213624" d="M29,33h6.306v2.1H29Z" transform="translate(0.429 0.633)"/>
        <path id="Trazado_1213625" data-name="Trazado 1213625" d="M29,45h6.306v2.1H29Z" transform="translate(0.429 1.246)"/>
        <path id="Trazado_1213626" data-name="Trazado 1213626" d="M29,49h6.306v2.1H29Z" transform="translate(0.429 1.45)"/>
        <path id="Trazado_1213627" data-name="Trazado 1213627" d="M66.165,35.555V24.123a10.522,10.522,0,0,0-10.51-10.51v-6.5A3.145,3.145,0,1,0,51.644,3.1h-15.1a3.145,3.145,0,1,0-4.011,4.011v2.3h-4.2a2.1,2.1,0,0,0-2.1,2.1v10.51a2.1,2.1,0,0,0,2.1,2.1h4.2v2.1h-4.2a2.1,2.1,0,0,0-2.1,2.1v10.51a2.1,2.1,0,0,0,2.1,2.1h4.2v2.1h-4.2a2.1,2.1,0,0,0-2.1,2.1v10.51a2.1,2.1,0,0,0,2.1,2.1h4.2v2.3a3.15,3.15,0,0,0-1.909,1.909h-15.1a3.15,3.15,0,0,0-1.909-1.909v-6.5h10.51V46.484a9.415,9.415,0,0,0-1.342-4.818l.291-.29a3.589,3.589,0,0,0,0-5.075l-.5-.5a1.879,1.879,0,0,1-.234-2.372l.55-.826a7.325,7.325,0,0,0,1.236-4.081v-4.4a10.522,10.522,0,0,0-10.51-10.51h-2.1A10.522,10.522,0,0,0,1,24.123v5.255a3.149,3.149,0,0,0,2.1,2.96v3.347a5.212,5.212,0,0,0,1.362,3.5A9.505,9.505,0,0,0,1,46.484v7.068H11.51v6.5a3.145,3.145,0,1,0,4.011,4.011h15.1a3.145,3.145,0,1,0,4.011-4.011v-2.3h4.2a2.1,2.1,0,0,0,2.1-2.1V45.144a2.1,2.1,0,0,0-2.1-2.1h-4.2v-2.1h4.2a2.1,2.1,0,0,0,2.1-2.1V28.327a2.1,2.1,0,0,0-2.1-2.1h-4.2v-2.1h4.2a2.1,2.1,0,0,0,2.1-2.1V11.51a2.1,2.1,0,0,0-2.1-2.1h-4.2v-2.3A3.151,3.151,0,0,0,36.542,5.2h15.1a3.146,3.146,0,0,0,1.908,1.909v6.5a10.522,10.522,0,0,0-10.51,10.51V35.555a6.629,6.629,0,0,0,2.195,4.895,9.433,9.433,0,0,0-2.195,6.034v7.068H66.165V46.484A9.433,9.433,0,0,0,63.97,40.45a6.629,6.629,0,0,0,2.195-4.895ZM11.51,15.715h2.1a8.418,8.418,0,0,1,8.408,8.408v4.4a5.234,5.234,0,0,1-.883,2.916l-.55.825a3.982,3.982,0,0,0,.5,5.026l.5.5a1.487,1.487,0,0,1,0,2.1l-.083.083A9.421,9.421,0,0,0,18.39,37.79l-1.3-.559a1.056,1.056,0,0,1-.605-.711l-.2-.8a7.358,7.358,0,0,0,3.638-6.338V26.225h-2.1v3.153a5.255,5.255,0,1,1-10.51,0v-4.2a1.052,1.052,0,0,1,1.051-1.051H9.408v-2.1H8.357a3.149,3.149,0,0,0-2.96,2.1H4.153a3.118,3.118,0,0,0-1.051.193v-.193a8.418,8.418,0,0,1,8.408-8.408ZM5.384,36.735a3.162,3.162,0,0,1-.18-1.051V32.531h.72a7.389,7.389,0,0,0,1.624,2.217A3.158,3.158,0,0,0,5.384,36.735Zm6.127,1.051a1.052,1.052,0,0,1-1.051,1.051h-2.1a1.051,1.051,0,1,1,0-2.1h2.1A1.052,1.052,0,0,1,11.51,37.787Zm4.2,2.1a9.41,9.41,0,0,1-.556,3.153H9.964a9.488,9.488,0,0,1-.494-2.1h.989a3.157,3.157,0,0,0,3.153-3.153,3.106,3.106,0,0,0-.21-1.1,7.289,7.289,0,0,0,.911-.168l.128.514a3.164,3.164,0,0,0,1.273,1.82ZM14.1,45.144a9.442,9.442,0,0,1-1.539,1.8,9.442,9.442,0,0,1-1.539-1.8ZM4.153,26.225H5.2v3.153a7.384,7.384,0,0,0,.084,1.051H4.153A1.052,1.052,0,0,1,3.1,29.378v-2.1A1.052,1.052,0,0,1,4.153,26.225ZM3.1,46.484a7.383,7.383,0,0,1,3.13-6,5.155,5.155,0,0,0,1.131.357,11.617,11.617,0,0,0,4.568,8.3l.631.473.632-.473a11.622,11.622,0,0,0,4.624-9.249v-.035a7.339,7.339,0,0,1,4.2,6.631V51.45H19.1l.8-4-2.061-.413-.883,4.411H8.168l-.883-4.41-2.06.412.8,4H3.1Zm9.459,17.579a1.051,1.051,0,1,1,1.051-1.051A1.052,1.052,0,0,1,12.561,64.063Zm21.021,0a1.051,1.051,0,1,1,1.051-1.051A1.052,1.052,0,0,1,33.582,64.063Zm5.256-8.408H28.327V45.144h10.51Zm0-16.817H28.327V28.327h10.51Zm0-16.817H28.327V11.51h10.51ZM54.6,3.1a1.051,1.051,0,1,1-1.051,1.051A1.052,1.052,0,0,1,54.6,3.1ZM33.582,5.2a1.051,1.051,0,1,1,1.051-1.051A1.052,1.052,0,0,1,33.582,5.2ZM64.063,51.45H61.141l.8-4-2.061-.413L59,51.45H50.21l-.882-4.41-2.061.413.8,4H45.144V46.484A7.351,7.351,0,0,1,49.6,39.72l1.414-.605a4.439,4.439,0,0,0,7.174,0l1.414.605a7.349,7.349,0,0,1,4.459,6.762Zm-4.2-27.327v5.255a5.255,5.255,0,1,1-10.51,0V24.123ZM54.6,36.735a7.362,7.362,0,0,0,1.753-.22l.281,1.124a2.324,2.324,0,0,1-4.066,0l.281-1.123a7.346,7.346,0,0,0,1.752.22Zm9.459-1.18A4.521,4.521,0,0,1,62.452,39a9.465,9.465,0,0,0-2.021-1.207l-1.782-.764-.328-1.311a7.353,7.353,0,0,0,3.639-6.337V24.123a2.1,2.1,0,0,0-2.1-2.1v-2.1h-2.1v2.1h-2.1v-2.1h-2.1v2.1h-2.1v-2.1h-2.1v2.1a2.1,2.1,0,0,0-2.1,2.1v5.255a7.356,7.356,0,0,0,3.639,6.338l-.328,1.311-1.782.764A9.422,9.422,0,0,0,46.754,39a4.528,4.528,0,0,1-1.61-3.442V24.123a8.418,8.418,0,0,1,8.408-8.408h2.1a8.418,8.418,0,0,1,8.408,8.408Z" transform="translate(-1 -1)"/>
        <path id="Trazado_1213628" data-name="Trazado 1213628" d="M52.2,31.176a4.427,4.427,0,0,0,3.982-2.462l.11-.222-1.88-.941-.11.223a2.35,2.35,0,0,1-4.2,0l-.11-.222-1.88.941.11.221A4.427,4.427,0,0,0,52.2,31.176Z" transform="translate(1.404 0.355)"/>
        <path id="Trazado_1213629" data-name="Trazado 1213629" d="M8.216,28.714a4.452,4.452,0,0,0,7.965,0l.11-.222-1.88-.941-.11.223a2.35,2.35,0,0,1-4.2,0l-.11-.222-1.88.941Z" transform="translate(-0.637 0.355)"/>
        <path id="Trazado_1213630" data-name="Trazado 1213630" d="M0,0H2.1V2.972H0Z" transform="translate(9.763 21.763) rotate(-45)"/>
        <path id="Trazado_1213631" data-name="Trazado 1213631" d="M0,0H2.1V2.972H0Z" transform="translate(15.019 21.764) rotate(-45)"/>
      </g>
    </g>
  </g>
</svg>
