<svg xmlns="http://www.w3.org/2000/svg" xmlns:xlink="http://www.w3.org/1999/xlink" width="118" height="118" viewBox="0 0 118 118">
  <defs>
    <filter id="Trazado_982547" x="0" y="0" width="118" height="118" filterUnits="userSpaceOnUse">
      <feOffset dy="3" input="SourceAlpha"/>
      <feGaussianBlur stdDeviation="3" result="blur"/>
      <feFlood flood-opacity="0.161"/>
      <feComposite operator="in" in2="blur"/>
      <feComposite in="SourceGraphic"/>
    </filter>
  </defs>
  <g id="Grupo_1225728" data-name="Grupo 1225728" transform="translate(-740.638 -1303.926)">
    <g id="Grupo_1224854" data-name="Grupo 1224854" transform="translate(749.638 1309.926)">
      <g id="Grupo_1174813" data-name="Grupo 1174813">
        <g id="Grupo_1201680" data-name="Grupo 1201680">
          <g id="Grupo_1201330" data-name="Grupo 1201330">
            <g id="Grupo_1172010" data-name="Grupo 1172010">
              <g id="Grupo_1171046" data-name="Grupo 1171046">
                <g id="Grupo_1148525" data-name="Grupo 1148525">
                  <g transform="matrix(1, 0, 0, 1, -9, -6)" filter="url(#Trazado_982547)">
                    <g id="Trazado_982547-2" data-name="Trazado 982547" transform="translate(9 6)" fill="#fdf4ce">
                      <path d="M 50 98.5 C 43.45188522338867 98.5 37.10042953491211 97.21787261962891 31.12207221984863 94.68923950195312 C 25.34691429138184 92.24655914306641 20.15997123718262 88.74931335449219 15.70532894134521 84.29468536376953 C 11.2506856918335 79.84004211425781 7.753442764282227 74.65309906005859 5.310757160186768 68.8779296875 C 2.782128572463989 62.89957046508789 1.5 56.54811477661133 1.5 50 C 1.5 43.45188522338867 2.782128572463989 37.10042953491211 5.310757160186768 31.12207221984863 C 7.753442764282227 25.34691429138184 11.2506856918335 20.15997123718262 15.70532894134521 15.70532894134521 C 20.15997123718262 11.2506856918335 25.34691429138184 7.753442764282227 31.12207221984863 5.310757160186768 C 37.10042953491211 2.782128572463989 43.45188522338867 1.5 50 1.5 C 56.54811477661133 1.5 62.89957046508789 2.782128572463989 68.8779296875 5.310757160186768 C 74.65309906005859 7.753442764282227 79.84004211425781 11.2506856918335 84.29468536376953 15.70532894134521 C 88.74931335449219 20.15997123718262 92.24655914306641 25.34691429138184 94.68923950195312 31.12207221984863 C 97.21787261962891 37.10042953491211 98.5 43.45188522338867 98.5 50 C 98.5 56.54811477661133 97.21787261962891 62.89957046508789 94.68923950195312 68.8779296875 C 92.24655914306641 74.65309906005859 88.74931335449219 79.84004211425781 84.29468536376953 84.29468536376953 C 79.84004211425781 88.74931335449219 74.65309906005859 92.24655914306641 68.8779296875 94.68923950195312 C 62.89957046508789 97.21787261962891 56.54811477661133 98.5 50 98.5 Z" stroke="none"/>
                      <path d="M 50 3 C 43.65372467041016 3 37.49886322021484 4.242263793945312 31.70639801025391 6.6922607421875 C 26.11003112792969 9.059326171875 21.08335113525391 12.44861602783203 16.76598358154297 16.76598358154297 C 12.44861602783203 21.08335113525391 9.059326171875 26.11003112792969 6.6922607421875 31.70639801025391 C 4.242263793945312 37.49886322021484 3 43.65372467041016 3 50 C 3 56.34627532958984 4.242263793945312 62.50113677978516 6.6922607421875 68.29360198974609 C 9.059326171875 73.88996887207031 12.44861602783203 78.91666412353516 16.76598358154297 83.23401641845703 C 21.08335113525391 87.55138397216797 26.11003112792969 90.940673828125 31.70639801025391 93.3077392578125 C 37.49886322021484 95.75773620605469 43.65372467041016 97 50 97 C 56.34627532958984 97 62.50113677978516 95.75773620605469 68.29360198974609 93.3077392578125 C 73.88996887207031 90.940673828125 78.91666412353516 87.55138397216797 83.23401641845703 83.23401641845703 C 87.55138397216797 78.91666412353516 90.940673828125 73.88996887207031 93.3077392578125 68.29360198974609 C 95.75773620605469 62.50113677978516 97 56.34627532958984 97 50 C 97 43.65372467041016 95.75773620605469 37.49886322021484 93.3077392578125 31.70639801025391 C 90.940673828125 26.11003112792969 87.55138397216797 21.08335113525391 83.23401641845703 16.76598358154297 C 78.91666412353516 12.44861602783203 73.88996887207031 9.059326171875 68.29360198974609 6.6922607421875 C 62.50113677978516 4.242263793945312 56.34627532958984 3 50 3 M 50 0 C 77.61424255371094 0 100 22.38577270507812 100 50 C 100 77.61424255371094 77.61424255371094 100 50 100 C 22.38577270507812 100 0 77.61424255371094 0 50 C 0 22.38577270507812 22.38577270507812 0 50 0 Z" stroke="none" fill="#866d08"/>
                    </g>
                  </g>
                </g>
              </g>
            </g>
          </g>
        </g>
      </g>
    </g>
    <g id="dialogue_8234425" transform="translate(762.305 1322.327)">
      <path id="Trazado_1213632" data-name="Trazado 1213632" d="M266.094,251.86l-7.1,1.763a8.028,8.028,0,0,0-2.2.908l-2.582,1.549a5.1,5.1,0,0,0-2.477,4.374v7.859h27.73v-7.859a5.1,5.1,0,0,0-2.477-4.374l-3.613-2.167Z" transform="translate(-214.101 -214.304)" fill="#a2dbff"/>
      <path id="Trazado_1213633" data-name="Trazado 1213633" d="M362.812,256.079l-2.582-1.549a8.028,8.028,0,0,0-2.2-.908l-7.1-1.763-2.458.61,7.454,1.85,3.613,2.167a5.1,5.1,0,0,1,2.477,4.374v7.45h3.271v-7.859A5.1,5.1,0,0,0,362.812,256.079Z" transform="translate(-298.938 -214.303)" fill="#64caff"/>
      <path id="Trazado_1213634" data-name="Trazado 1213634" d="M277.974,256.079l-2.582-1.549a8.028,8.028,0,0,0-2.2-.908l-7.1-1.763-7.1,1.763a8.025,8.025,0,0,0-2.2.908l-2.582,1.549a5.1,5.1,0,0,0-2.477,4.374v7.859h28.713v-7.859A5.1,5.1,0,0,0,277.974,256.079Z" transform="translate(-214.101 -214.303)" fill="none" stroke="#000" stroke-linecap="round" stroke-linejoin="round" stroke-miterlimit="10" stroke-width="2"/>
      <path id="Trazado_1213635" data-name="Trazado 1213635" d="M347.653,272.383h-6.788l1.822-15.881h3.145Z" transform="translate(-292.265 -218.375)" fill="#ff7bba"/>
      <path id="Trazado_1213636" data-name="Trazado 1213636" d="M347.653,272.383h-6.788l1.667-14.059.155-1.822h3.145l.152,1.791Z" transform="translate(-292.265 -218.375)" fill="none" stroke="#000" stroke-linecap="round" stroke-linejoin="round" stroke-miterlimit="10" stroke-width="2"/>
      <rect id="Rectángulo_422032" data-name="Rectángulo 422032" width="4.6" height="6.094" transform="translate(49.694 31.462)" fill="#ffcfc0"/>
      <path id="Trazado_1213637" data-name="Trazado 1213637" d="M354.357,208.409h-4.6v-6.094h4.6v6.094Z" transform="translate(-300.063 -170.853)" fill="none" stroke="#000" stroke-linecap="round" stroke-linejoin="round" stroke-miterlimit="10" stroke-width="2"/>
      <path id="Trazado_1213638" data-name="Trazado 1213638" d="M297.354,52.58l1.237-2.569-.355-3.021-1.218-2.676-2.381-1s-2.408-.054-2.49,0a17.812,17.812,0,0,1-1.272-1.894l-2.49-2.787-2.652.244L281.891,39.9,280.1,41.153l-.653.737-.578.688h0c-.131.235-.253.476-.365.724l-.05.112a6.484,6.484,0,0,0,1.84,7.619l2.433,1.993,12.639,1.132,1.337-.958c.173-.124.337-.256.5-.394Z" transform="translate(-237.055 -27.304)" fill="#5844a0"/>
      <path id="Trazado_1213639" data-name="Trazado 1213639" d="M306.026,39.116l-.5-1.8a2.733,2.733,0,0,0-3.327-1.919,2.733,2.733,0,0,1-3.273-1.749l-.158-.455a3.766,3.766,0,0,0-2.94-2.5,10.865,10.865,0,0,0-1.686-.134,9.628,9.628,0,0,0-8.435,4.938,9.626,9.626,0,0,1,6.839-2.823,10.866,10.866,0,0,1,1.686.134,3.765,3.765,0,0,1,2.94,2.5l.158.455a2.733,2.733,0,0,0,3.273,1.749,2.733,2.733,0,0,1,3.327,1.919l.5,1.8a6.492,6.492,0,0,1-.389,4.495A6.5,6.5,0,0,0,306.026,39.116Z" transform="translate(-243.896 -20.223)" fill="#483887"/>
      <path id="Trazado_1213640" data-name="Trazado 1213640" d="M282.728,45.946,280.3,43.953a6.484,6.484,0,0,1-1.84-7.619l.05-.112a9.625,9.625,0,0,1,8.8-5.662,10.865,10.865,0,0,1,1.686.134,3.765,3.765,0,0,1,2.94,2.5l.158.455a2.733,2.733,0,0,0,3.273,1.749h0a2.733,2.733,0,0,1,3.327,1.919l.5,1.8a6.5,6.5,0,0,1-2.48,7l-1.337.958Z" transform="translate(-237.054 -20.224)" fill="none" stroke="#000" stroke-linecap="round" stroke-linejoin="round" stroke-miterlimit="10" stroke-width="2"/>
      <path id="Trazado_1213641" data-name="Trazado 1213641" d="M323.4,120.92h0a6.32,6.32,0,0,1-6.32-6.32v-5.537a.783.783,0,0,1,.8-.783,10.834,10.834,0,0,0,6.459-1.556.776.776,0,0,1,1.041.145,4.656,4.656,0,0,0,3.58,1.376.786.786,0,0,1,.761.783V114.6A6.32,6.32,0,0,1,323.4,120.92Z" transform="translate(-271.404 -86.899)" fill="#ffe0cf"/>
      <path id="Trazado_1213642" data-name="Trazado 1213642" d="M328.955,108.245a4.656,4.656,0,0,1-3.58-1.376.776.776,0,0,0-1.041-.145,10.834,10.834,0,0,1-6.459,1.556.783.783,0,0,0-.8.783v2.431a.783.783,0,0,1,.8-.783,10.834,10.834,0,0,0,6.459-1.556.776.776,0,0,1,1.041.145,4.656,4.656,0,0,0,3.58,1.376.785.785,0,0,1,.761.783v-2.431A.785.785,0,0,0,328.955,108.245Z" transform="translate(-271.403 -86.898)" fill="#ffcfc0"/>
      <path id="Trazado_1213643" data-name="Trazado 1213643" d="M323.4,120.92h0a6.32,6.32,0,0,1-6.32-6.32v-5.537a.783.783,0,0,1,.8-.783,10.834,10.834,0,0,0,6.459-1.556.776.776,0,0,1,1.041.145,4.656,4.656,0,0,0,3.58,1.376.786.786,0,0,1,.761.783V114.6A6.32,6.32,0,0,1,323.4,120.92Z" transform="translate(-271.404 -86.899)" fill="none" stroke="#000" stroke-linecap="round" stroke-linejoin="round" stroke-miterlimit="10" stroke-width="2"/>
      <path id="Trazado_1213644" data-name="Trazado 1213644" d="M304.237,242.071l-1.852,2.3a2.226,2.226,0,0,1-2.6.651l-4.206-1.788a.568.568,0,0,1-.086-1l1.293-.835a4.343,4.343,0,0,1,3.639-.5Z" transform="translate(-252.243 -204.515)" fill="#f4f8f9"/>
      <path id="Trazado_1213645" data-name="Trazado 1213645" d="M304.237,242.071l-1.852,2.3a2.226,2.226,0,0,1-2.6.651l-4.206-1.788a.568.568,0,0,1-.086-1l1.293-.835a4.343,4.343,0,0,1,3.639-.5Z" transform="translate(-252.243 -204.515)" fill="none" stroke="#000" stroke-linecap="round" stroke-linejoin="round" stroke-miterlimit="10" stroke-width="2"/>
      <path id="Trazado_1213646" data-name="Trazado 1213646" d="M368.458,242.071l1.852,2.3a2.226,2.226,0,0,0,2.6.651l4.206-1.788a.568.568,0,0,0,.086-1l-1.293-.835a4.343,4.343,0,0,0-3.639-.5Z" transform="translate(-316.464 -204.515)" fill="#f4f8f9"/>
      <path id="Trazado_1213647" data-name="Trazado 1213647" d="M368.458,242.071l1.852,2.3a2.226,2.226,0,0,0,2.6.651l4.206-1.788a.568.568,0,0,0,.086-1l-1.293-.835a4.343,4.343,0,0,0-3.639-.5Z" transform="translate(-316.464 -204.515)" fill="none" stroke="#000" stroke-linecap="round" stroke-linejoin="round" stroke-miterlimit="10" stroke-width="2"/>
      <line id="Línea_1529" data-name="Línea 1529" x2="2.977" transform="translate(53.152 47.943)" fill="none" stroke="#000" stroke-linecap="round" stroke-linejoin="round" stroke-miterlimit="10" stroke-width="2"/>
      <path id="Trazado_1213648" data-name="Trazado 1213648" d="M223.956,389.763H186.068a.689.689,0,0,1-.689-.689v-2.766a.689.689,0,0,1,.689-.689h37.888a.689.689,0,0,1,.689.689v2.766A.689.689,0,0,1,223.956,389.763Z" transform="translate(-155.904 -331.612)" fill="#b98080"/>
      <path id="Trazado_1213649" data-name="Trazado 1213649" d="M483.514,385.619H481.34a.689.689,0,0,1,.689.689v2.766a.689.689,0,0,1-.689.689h2.174a.689.689,0,0,0,.689-.689v-2.766A.689.689,0,0,0,483.514,385.619Z" transform="translate(-415.462 -331.611)" fill="#ae6c6c"/>
      <path id="Trazado_1213650" data-name="Trazado 1213650" d="M223.956,389.763H186.068a.689.689,0,0,1-.689-.689v-2.766a.689.689,0,0,1,.689-.689h37.888a.689.689,0,0,1,.689.689v2.766A.689.689,0,0,1,223.956,389.763Z" transform="translate(-155.904 -331.612)" fill="none" stroke="#000" stroke-linecap="round" stroke-linejoin="round" stroke-miterlimit="10" stroke-width="2"/>
      <rect id="Rectángulo_422033" data-name="Rectángulo 422033" width="33.279" height="10.507" transform="translate(32.469 58.151)" fill="#ae6c6c"/>
      <path id="Trazado_1213651" data-name="Trazado 1213651" d="M209.714,419.3v1.948h28.1a2.978,2.978,0,0,1,2.978,2.978v5.581h2.2V419.3Z" transform="translate(-177.245 -361.151)" fill="#9b5e5e"/>
      <path id="Trazado_1213652" data-name="Trazado 1213652" d="M235.35,429.809h7.643V419.3H209.714v10.507h22.069" transform="translate(-177.245 -361.151)" fill="none" stroke="#000" stroke-linecap="round" stroke-linejoin="round" stroke-miterlimit="10" stroke-width="2"/>
      <path id="Trazado_1213653" data-name="Trazado 1213653" d="M33.34,340.967l-7.1,1.763a8.028,8.028,0,0,0-2.2.908l-2.582,1.549a5.1,5.1,0,0,0-2.477,4.374v11.549h27.73V349.56a5.1,5.1,0,0,0-2.477-4.374l-3.613-2.167Z" transform="translate(-9.975 -292.451)" fill="#ff7bba"/>
      <path id="Trazado_1213654" data-name="Trazado 1213654" d="M130.058,345.187l-2.582-1.549a8.029,8.029,0,0,0-2.2-.908l-7.1-1.763-2.458.61,7.454,1.851,3.613,2.167a5.1,5.1,0,0,1,2.477,4.374v11.14h3.271V349.56A5.1,5.1,0,0,0,130.058,345.187Z" transform="translate(-94.813 -292.451)" fill="#ff5cab"/>
      <path id="Trazado_1213655" data-name="Trazado 1213655" d="M18.984,356.631v4.478H47.7V349.56a5.1,5.1,0,0,0-2.477-4.374l-2.582-1.549a8.03,8.03,0,0,0-2.2-.908l-7.1-1.763-7.1,1.763a8.027,8.027,0,0,0-2.2.908l-2.582,1.549a5.1,5.1,0,0,0-2.477,4.374v3.5" transform="translate(-9.975 -292.451)" fill="none" stroke="#000" stroke-linecap="round" stroke-linejoin="round" stroke-miterlimit="10" stroke-width="2"/>
      <path id="Trazado_1213656" data-name="Trazado 1213656" d="M47.867,172.908a85,85,0,0,0,1.476-15.588,9.29,9.29,0,0,1,9.278-9.24h0a9.29,9.29,0,0,1,9.278,9.24,85,85,0,0,0,1.476,15.588,2.945,2.945,0,0,1-3.392,3.471l-5.01-.867a13.8,13.8,0,0,0-4.7,0l-5.01.867A2.945,2.945,0,0,1,47.867,172.908Z" transform="translate(-35.255 -123.289)" fill="#ffab56"/>
      <g id="Grupo_1225722" data-name="Grupo 1225722" transform="translate(22.013 24.791)">
        <path id="Trazado_1213657" data-name="Trazado 1213657" d="M136.818,172.908a84.988,84.988,0,0,1-1.476-15.588,9.29,9.29,0,0,0-9.278-9.24h0a9.333,9.333,0,0,0-1.352.1,9.3,9.3,0,0,1,7.926,9.14,85,85,0,0,0,1.476,15.588,2.944,2.944,0,0,1-1.751,3.288l1.063.184A2.945,2.945,0,0,0,136.818,172.908Z" transform="translate(-124.712 -148.08)" fill="#ff982a"/>
      </g>
      <path id="Trazado_1213658" data-name="Trazado 1213658" d="M47.867,172.908a85,85,0,0,0,1.476-15.588,9.29,9.29,0,0,1,9.278-9.24h0a9.29,9.29,0,0,1,9.278,9.24,85,85,0,0,0,1.476,15.588,2.945,2.945,0,0,1-3.392,3.471l-5.01-.867a13.8,13.8,0,0,0-4.7,0l-5.01.867A2.945,2.945,0,0,1,47.867,172.908Z" transform="translate(-35.255 -123.289)" fill="none" stroke="#000" stroke-linecap="round" stroke-linejoin="round" stroke-miterlimit="10" stroke-width="2"/>
      <path id="Trazado_1213659" data-name="Trazado 1213659" d="M75.6,415.04H55.986l2.116-9.692a3.669,3.669,0,0,1,3.584-2.886H69.9a3.668,3.668,0,0,1,3.584,2.886Z" transform="translate(-42.426 -346.382)" fill="#887ac5"/>
      <path id="Trazado_1213660" data-name="Trazado 1213660" d="M155.138,405.347a3.669,3.669,0,0,0-3.584-2.886H149.1a3.669,3.669,0,0,1,3.584,2.886l2.116,9.692h2.458Z" transform="translate(-124.083 -346.381)" fill="#7361ba"/>
      <path id="Trazado_1213661" data-name="Trazado 1213661" d="M75.6,415.04H55.986l2.116-9.692a3.669,3.669,0,0,1,3.584-2.886H69.9a3.668,3.668,0,0,1,3.584,2.886Z" transform="translate(-42.426 -346.382)" fill="none" stroke="#000" stroke-linecap="round" stroke-linejoin="round" stroke-miterlimit="10" stroke-width="2"/>
      <line id="Línea_1530" data-name="Línea 1530" x2="4.658" transform="translate(21.036 62.369)" fill="none" stroke="#000" stroke-linecap="round" stroke-linejoin="round" stroke-miterlimit="10" stroke-width="2"/>
      <g id="Grupo_1225727" data-name="Grupo 1225727" transform="translate(7.61 7.5)">
        <path id="Trazado_1213662" data-name="Trazado 1213662" d="M8.837,7.5H34.2a1.227,1.227,0,0,1,1.227,1.227v7.922A1.227,1.227,0,0,1,34.2,17.876H29.529a2.062,2.062,0,0,0-1.66.838l-1,1.356a2.062,2.062,0,0,1-3.319,0l-1-1.356a2.062,2.062,0,0,0-1.66-.838H8.837A1.227,1.227,0,0,1,7.61,16.649V8.727A1.227,1.227,0,0,1,8.837,7.5Z" transform="translate(-7.61 -7.5)" fill="#9ff497"/>
        <g id="Grupo_1225723" data-name="Grupo 1225723" transform="translate(23.457 0)">
          <path id="Trazado_1213663" data-name="Trazado 1213663" d="M201.457,17.876h-3.136a1.227,1.227,0,0,0,1.227-1.227V8.727A1.227,1.227,0,0,0,198.321,7.5h3.136a1.227,1.227,0,0,1,1.227,1.227v7.922A1.227,1.227,0,0,1,201.457,17.876Z" transform="translate(-198.321 -7.5)" fill="#6ce79a"/>
        </g>
        <path id="Trazado_1213664" data-name="Trazado 1213664" d="M14.29,17.876H8.837A1.227,1.227,0,0,1,7.61,16.649V8.727A1.227,1.227,0,0,1,8.837,7.5H34.2a1.227,1.227,0,0,1,1.227,1.227v7.922A1.227,1.227,0,0,1,34.2,17.876H29.529a2.062,2.062,0,0,0-1.66.838l-1,1.356a2.062,2.062,0,0,1-3.319,0l-1.618-2.195H17.857" transform="translate(-7.61 -7.5)" fill="none" stroke="#000" stroke-linecap="round" stroke-linejoin="round" stroke-miterlimit="10" stroke-width="2"/>
        <g id="Grupo_1225726" data-name="Grupo 1225726" transform="translate(4.181 3.622)">
          <g id="Grupo_1225724" data-name="Grupo 1225724">
            <line id="Línea_1531" data-name="Línea 1531" x2="2.275" fill="none" stroke="#000" stroke-linecap="round" stroke-linejoin="round" stroke-miterlimit="10" stroke-width="2"/>
            <line id="Línea_1532" data-name="Línea 1532" x2="2.275" transform="translate(5.728)" fill="none" stroke="#000" stroke-linecap="round" stroke-linejoin="round" stroke-miterlimit="10" stroke-width="2"/>
            <line id="Línea_1533" data-name="Línea 1533" x2="2.275" transform="translate(11.456)" fill="none" stroke="#000" stroke-linecap="round" stroke-linejoin="round" stroke-miterlimit="10" stroke-width="2"/>
            <line id="Línea_1534" data-name="Línea 1534" x2="2.275" transform="translate(17.184)" fill="none" stroke="#000" stroke-linecap="round" stroke-linejoin="round" stroke-miterlimit="10" stroke-width="2"/>
          </g>
          <g id="Grupo_1225725" data-name="Grupo 1225725" transform="translate(0 3.133)">
            <line id="Línea_1535" data-name="Línea 1535" x2="2.275" fill="none" stroke="#000" stroke-linecap="round" stroke-linejoin="round" stroke-miterlimit="10" stroke-width="2"/>
            <line id="Línea_1536" data-name="Línea 1536" x2="2.275" transform="translate(5.728)" fill="none" stroke="#000" stroke-linecap="round" stroke-linejoin="round" stroke-miterlimit="10" stroke-width="2"/>
            <line id="Línea_1537" data-name="Línea 1537" x2="2.275" transform="translate(11.456)" fill="none" stroke="#000" stroke-linecap="round" stroke-linejoin="round" stroke-miterlimit="10" stroke-width="2"/>
            <line id="Línea_1538" data-name="Línea 1538" x2="2.275" transform="translate(17.184)" fill="none" stroke="#000" stroke-linecap="round" stroke-linejoin="round" stroke-miterlimit="10" stroke-width="2"/>
          </g>
        </g>
      </g>
    </g>
  </g>
</svg>
