<svg xmlns="http://www.w3.org/2000/svg" xmlns:xlink="http://www.w3.org/1999/xlink" width="118" height="118" viewBox="0 0 118 118">
  <defs>
    <filter id="Trazado_982547" x="0" y="0" width="118" height="118" filterUnits="userSpaceOnUse">
      <feOffset dy="3" input="SourceAlpha"/>
      <feGaussianBlur stdDeviation="3" result="blur"/>
      <feFlood flood-opacity="0.161"/>
      <feComposite operator="in" in2="blur"/>
      <feComposite in="SourceGraphic"/>
    </filter>
  </defs>
  <g id="Grupo_1225730" data-name="Grupo 1225730" transform="translate(-1160.888 -1303.926)">
    <g id="Grupo_1224855" data-name="Grupo 1224855" transform="translate(1169.888 1309.926)">
      <g id="Grupo_1174813" data-name="Grupo 1174813">
        <g id="Grupo_1201680" data-name="Grupo 1201680">
          <g id="Grupo_1201330" data-name="Grupo 1201330">
            <g id="Grupo_1172010" data-name="Grupo 1172010">
              <g id="Grupo_1171046" data-name="Grupo 1171046">
                <g id="Grupo_1148525" data-name="Grupo 1148525">
                  <g transform="matrix(1, 0, 0, 1, -9, -6)" filter="url(#Trazado_982547)">
                    <g id="Trazado_982547-2" data-name="Trazado 982547" transform="translate(9 6)" fill="#fdf4ce">
                      <path d="M 50 98.5 C 43.45188522338867 98.5 37.10042953491211 97.21787261962891 31.12207221984863 94.68923950195312 C 25.34691429138184 92.24655914306641 20.15997123718262 88.74931335449219 15.70532894134521 84.29468536376953 C 11.2506856918335 79.84004211425781 7.753442764282227 74.65309906005859 5.310757160186768 68.8779296875 C 2.782128572463989 62.89957046508789 1.5 56.54811477661133 1.5 50 C 1.5 43.45188522338867 2.782128572463989 37.10042953491211 5.310757160186768 31.12207221984863 C 7.753442764282227 25.34691429138184 11.2506856918335 20.15997123718262 15.70532894134521 15.70532894134521 C 20.15997123718262 11.2506856918335 25.34691429138184 7.753442764282227 31.12207221984863 5.310757160186768 C 37.10042953491211 2.782128572463989 43.45188522338867 1.5 50 1.5 C 56.54811477661133 1.5 62.89957046508789 2.782128572463989 68.8779296875 5.310757160186768 C 74.65309906005859 7.753442764282227 79.84004211425781 11.2506856918335 84.29468536376953 15.70532894134521 C 88.74931335449219 20.15997123718262 92.24655914306641 25.34691429138184 94.68923950195312 31.12207221984863 C 97.21787261962891 37.10042953491211 98.5 43.45188522338867 98.5 50 C 98.5 56.54811477661133 97.21787261962891 62.89957046508789 94.68923950195312 68.8779296875 C 92.24655914306641 74.65309906005859 88.74931335449219 79.84004211425781 84.29468536376953 84.29468536376953 C 79.84004211425781 88.74931335449219 74.65309906005859 92.24655914306641 68.8779296875 94.68923950195312 C 62.89957046508789 97.21787261962891 56.54811477661133 98.5 50 98.5 Z" stroke="none"/>
                      <path d="M 50 3 C 43.65372467041016 3 37.49886322021484 4.242263793945312 31.70639801025391 6.6922607421875 C 26.11003112792969 9.059326171875 21.08335113525391 12.44861602783203 16.76598358154297 16.76598358154297 C 12.44861602783203 21.08335113525391 9.059326171875 26.11003112792969 6.6922607421875 31.70639801025391 C 4.242263793945312 37.49886322021484 3 43.65372467041016 3 50 C 3 56.34627532958984 4.242263793945312 62.50113677978516 6.6922607421875 68.29360198974609 C 9.059326171875 73.88996887207031 12.44861602783203 78.91666412353516 16.76598358154297 83.23401641845703 C 21.08335113525391 87.55138397216797 26.11003112792969 90.940673828125 31.70639801025391 93.3077392578125 C 37.49886322021484 95.75773620605469 43.65372467041016 97 50 97 C 56.34627532958984 97 62.50113677978516 95.75773620605469 68.29360198974609 93.3077392578125 C 73.88996887207031 90.940673828125 78.91666412353516 87.55138397216797 83.23401641845703 83.23401641845703 C 87.55138397216797 78.91666412353516 90.940673828125 73.88996887207031 93.3077392578125 68.29360198974609 C 95.75773620605469 62.50113677978516 97 56.34627532958984 97 50 C 97 43.65372467041016 95.75773620605469 37.49886322021484 93.3077392578125 31.70639801025391 C 90.940673828125 26.11003112792969 87.55138397216797 21.08335113525391 83.23401641845703 16.76598358154297 C 78.91666412353516 12.44861602783203 73.88996887207031 9.059326171875 68.29360198974609 6.6922607421875 C 62.50113677978516 4.242263793945312 56.34627532958984 3 50 3 M 50 0 C 77.61424255371094 0 100 22.38577270507812 100 50 C 100 77.61424255371094 77.61424255371094 100 50 100 C 22.38577270507812 100 0 77.61424255371094 0 50 C 0 22.38577270507812 22.38577270507812 0 50 0 Z" stroke="none" fill="#866d08"/>
                    </g>
                  </g>
                </g>
              </g>
            </g>
          </g>
        </g>
      </g>
    </g>
    <g id="interview_2083437" transform="translate(1188 1328)">
      <path id="Trazado_1213665" data-name="Trazado 1213665" d="M22,5H6A4,4,0,0,0,2,9V21a4,4,0,0,0,4,4h4l7,4V25h5a4,4,0,0,0,4-4V9A4,4,0,0,0,22,5Z" fill="#e6e9ed"/>
      <path id="Trazado_1213666" data-name="Trazado 1213666" d="M22,18v2a1,1,0,0,1-1,1H17a1,1,0,0,1-1-1V18a1,1,0,0,1,1-1h4A1,1,0,0,1,22,18Z" fill="#b4dd7f"/>
      <path id="Trazado_1213667" data-name="Trazado 1213667" d="M12,18v2a1,1,0,0,1-1,1H7a1,1,0,0,1-1-1V18a1,1,0,0,1,1-1h4A1,1,0,0,1,12,18Z" fill="#b4dd7f"/>
      <path id="Trazado_1213668" data-name="Trazado 1213668" d="M37.38,32.69l-1.8.84h-.01L36,36.12a8.11,8.11,0,0,1-4,7,8.246,8.246,0,0,1-2.79,1.01L26,44.67V49H41l1.57-12.57L39,40Z" fill="#e6e9ed"/>
      <path id="Trazado_1213669" data-name="Trazado 1213669" d="M56.23,35.31l-5.61-2.62L49,40l-3.57-3.57L47,49H62V44.37A9.989,9.989,0,0,0,56.23,35.31Z" fill="#e6e9ed"/>
      <path id="Trazado_1213670" data-name="Trazado 1213670" d="M14,55,7,62a4.985,4.985,0,0,1-5-5l7-7Z" fill="#aab2bd"/>
      <path id="Trazado_1213671" data-name="Trazado 1213671" d="M17.879,40.464h4.243v7.071H17.879Z" transform="translate(-25.255 27.029) rotate(-45)" fill="#aab2bd"/>
      <path id="Trazado_1213672" data-name="Trazado 1213672" d="M16,43l5,5,2,2-7,7-2-2L9,50,7,48l7-7Z" fill="#ffeaa7"/>
      <path id="Trazado_1213673" data-name="Trazado 1213673" d="M35.57,33.53,36,36.12a8.11,8.11,0,0,1-4,7,8.246,8.246,0,0,1-2.79,1.01L26,44.67,24,45l-5-5,.87-5.21a8.116,8.116,0,0,1,15.7-1.26Z" fill="#838f9b"/>
      <path id="Trazado_1213674" data-name="Trazado 1213674" d="M45.43,36.43,47,49H41l1.57-12.57L44,35Z" fill="#ff826e"/>
      <path id="Trazado_1213675" data-name="Trazado 1213675" d="M50.62,32.69,49,40l-3.57-3.57L44,35l3.84-3.84a2.879,2.879,0,0,0,.89.65Z" fill="#ff826e"/>
      <path id="Trazado_1213676" data-name="Trazado 1213676" d="M44,35l-1.43,1.43L39,40l-1.62-7.31,1.89-.88a2.879,2.879,0,0,0,.89-.65Z" fill="#ff826e"/>
      <path id="Trazado_1213677" data-name="Trazado 1213677" d="M35,17a3,3,0,0,0-3,3V14a12,12,0,1,1,24,0v6a3,3,0,0,0-3-3H52V15H49a5,5,0,0,1-5-5,5,5,0,0,1-5,5H36v2Z" fill="#fcd770"/>
      <g id="Grupo_1225729" data-name="Grupo 1225729">
        <path id="Trazado_1213678" data-name="Trazado 1213678" d="M47.84,31.16,44,35l-3.84-3.84A2.952,2.952,0,0,0,41,29.09V27.37A12.233,12.233,0,0,0,44,29a12.233,12.233,0,0,0,3-1.63v1.72A2.952,2.952,0,0,0,47.84,31.16Z" fill="#f0d0b4"/>
        <path id="Trazado_1213679" data-name="Trazado 1213679" d="M56,20a3,3,0,0,1-3,3H50.67A12.138,12.138,0,0,0,52,17.46V17h1a3,3,0,0,1,3,3Z" fill="#f0d0b4"/>
        <path id="Trazado_1213680" data-name="Trazado 1213680" d="M52,17v.46A12.33,12.33,0,0,1,44,29a12.233,12.233,0,0,1-3-1.63,12.382,12.382,0,0,1-2.8-2.89A10.435,10.435,0,0,1,37.33,23,12.138,12.138,0,0,1,36,17.46V15h3a5,5,0,0,0,5-5,5,5,0,0,0,5,5h3Z" fill="#f0d0b4"/>
        <path id="Trazado_1213681" data-name="Trazado 1213681" d="M36,17.46A12.138,12.138,0,0,0,37.33,23H35a3,3,0,0,1,0-6h1Z" fill="#f0d0b4"/>
      </g>
      <path id="Trazado_1213682" data-name="Trazado 1213682" d="M56.652,34.4l-7.5-3.5A2.006,2.006,0,0,1,48,29.09V27.847A13.467,13.467,0,0,0,51.261,24H53a4,4,0,0,0,4-4V14a13,13,0,0,0-26,0v6a4,4,0,0,0,4,4h1.739A13.467,13.467,0,0,0,40,27.847V29.09A2.008,2.008,0,0,1,38.846,30.9L36.1,32.186a9.113,9.113,0,0,0-17.213,2.436l-.816,4.9L16,41.586l-2-2L5.586,48l2,2L1,56.586V57a6.006,6.006,0,0,0,6,6h.414L14,56.414l2,2L24.414,50l-2-2,2.066-2.066.52-.087V50H63V44.368A11.042,11.042,0,0,0,56.652,34.4Zm-7.178-1.142-1.055,4.747L45.414,35l2.5-2.5a4.009,4.009,0,0,0,.39.218ZM37,36.121c0-.224-.018-.443-.034-.663L38.419,42l2.8-2.8-1.1,8.8H33V43.672a9.088,9.088,0,0,0,4-7.551Zm6.521.772L44,36.414l.479.479L45.867,48H42.132ZM53,22h-.817a13.254,13.254,0,0,0,.8-4H53a2,2,0,0,1,0,4ZM44,3A11.013,11.013,0,0,1,55,14v2.556A3.959,3.959,0,0,0,53,16V14H49a4,4,0,0,1-4-4H43a4,4,0,0,1-4,4H35v2a3.959,3.959,0,0,0-2,.556V14A11.013,11.013,0,0,1,44,3ZM35,22a2,2,0,0,1,0-4h.021a13.193,13.193,0,0,0,.8,4Zm2-4.544V16h2a6,6,0,0,0,5-2.687A6,6,0,0,0,49,16h2v1.456a11.385,11.385,0,0,1-7,10.469A11.384,11.384,0,0,1,37,17.456Zm6.649,12.481.351.131.351-.132a13.159,13.159,0,0,0,1.655-.763,3.984,3.984,0,0,0,.524,1.883L44,33.586l-2.53-2.53a3.977,3.977,0,0,0,.524-1.883,13.025,13.025,0,0,0,1.655.764Zm-3.958,2.777a4.024,4.024,0,0,0,.391-.218l2.5,2.5-3.005,3.005-1.055-4.747ZM20.855,34.95a7.121,7.121,0,1,1,8.195,8.194l-4.707.784-4.272-4.271ZM6.605,60.98A4.006,4.006,0,0,1,3.02,57.394L9,51.414,12.586,55ZM16,55.586,8.414,48,14,42.414,21.586,50ZM17.414,43,19,41.414,22.586,45,21,46.586ZM27,45.514l2.379-.4A9.188,9.188,0,0,0,31,44.692V48H27ZM61,48H57V42H55v6H47.883l-1.1-8.8,2.8,2.8,1.749-7.871,4.476,2.089A9.034,9.034,0,0,1,61,44.368Z"/>
      <path id="Trazado_1213683" data-name="Trazado 1213683" d="M12.707,46.707h2v2h-2Z" transform="translate(-29.719 23.665) rotate(-45)"/>
      <path id="Trazado_1213684" data-name="Trazado 1213684" d="M15.536,49.535h2v2h-2Z" transform="translate(-30.891 26.494) rotate(-45)"/>
      <path id="Trazado_1213685" data-name="Trazado 1213685" d="M5,8H19v2H5Z"/>
      <path id="Trazado_1213686" data-name="Trazado 1213686" d="M21,16H17a2,2,0,0,0-2,2v2a2,2,0,0,0,2,2h4a2,2,0,0,0,2-2V18A2,2,0,0,0,21,16Zm0,4H17V18h4Z"/>
      <path id="Trazado_1213687" data-name="Trazado 1213687" d="M7,22h4a2,2,0,0,0,2-2V18a2,2,0,0,0-2-2H7a2,2,0,0,0-2,2v2A2,2,0,0,0,7,22Zm0-4h4v2H7V18Z"/>
      <path id="Trazado_1213688" data-name="Trazado 1213688" d="M5,12H7v2H5Z"/>
      <path id="Trazado_1213689" data-name="Trazado 1213689" d="M9,12H23v2H9Z"/>
      <path id="Trazado_1213690" data-name="Trazado 1213690" d="M21,8h2v2H21Z"/>
      <path id="Trazado_1213691" data-name="Trazado 1213691" d="M6,26H9.734L18,30.724V26h4a5.006,5.006,0,0,0,5-5V9a5.006,5.006,0,0,0-5-5H6A5.006,5.006,0,0,0,1,9V21A5.006,5.006,0,0,0,6,26ZM3,9A3,3,0,0,1,6,6H22a3,3,0,0,1,3,3V21a3,3,0,0,1-3,3H16v3.276L10.266,24H6a3,3,0,0,1-3-3Z"/>
    </g>
  </g>
</svg>
