<svg xmlns="http://www.w3.org/2000/svg" xmlns:xlink="http://www.w3.org/1999/xlink" width="505" height="298" viewBox="0 0 505 298">
  <defs>
    <clipPath id="clip-path">
      <rect id="Rect치ngulo_422034" data-name="Rect치ngulo 422034" width="505" height="298" transform="translate(915 1687)" fill="#fff" stroke="#707070" stroke-width="1"/>
    </clipPath>
    <clipPath id="clip-path-2">
      <ellipse id="Elipse_12951" data-name="Elipse 12951" cx="93.138" cy="94.009" rx="93.138" ry="94.009"/>
    </clipPath>
  </defs>
  <g id="Grupo_1225932" data-name="Grupo 1225932" transform="translate(-915 -1687)">
    <rect id="Rect치ngulo_422035" data-name="Rect치ngulo 422035" width="424" height="141" rx="7" transform="translate(996 1735)" fill="#f6ecfe"/>
    <g id="Enmascarar_grupo_1208485" data-name="Enmascarar grupo 1208485" clip-path="url(#clip-path)">
      <g id="OBJECTS" transform="translate(878.29 1632.428)">
        <g id="Grupo_1225732" data-name="Grupo 1225732" transform="translate(66.331 342.243)">
          <path id="Trazado_1213693" data-name="Trazado 1213693" d="M484.162,452.085H78.466a5.011,5.011,0,0,1-5-5h0a5.011,5.011,0,0,1,5-5h405.7a5.011,5.011,0,0,1,5,5h0A5.012,5.012,0,0,1,484.162,452.085Z" transform="translate(-73.47 -442.092)" fill="#bbf"/>
        </g>
        <g id="Grupo_1225768" data-name="Grupo 1225768" transform="translate(71.086 68.212)">
          <g id="Grupo_1225765" data-name="Grupo 1225765" transform="translate(0)">
            <g id="Grupo_1225733" data-name="Grupo 1225733" clip-path="url(#clip-path-2)">
              <ellipse id="Elipse_12950" data-name="Elipse 12950" cx="93.138" cy="94.009" rx="93.138" ry="94.009" fill="#ffa9a9"/>
            </g>
            <g id="Grupo_1225762" data-name="Grupo 1225762" clip-path="url(#clip-path-2)">
              <g id="Grupo_1225734" data-name="Grupo 1225734" transform="translate(42.651 34.667)">
                <path id="Trazado_1213694" data-name="Trazado 1213694" d="M174.3,117.132c-5.2-1.014-10.2,3.2-12.256,8.091s-2.014,10.353-2.634,15.619-2.194,10.867-6.416,14.074c-2.13,1.618-4.744,2.469-6.98,3.937a15.241,15.241,0,0,0-6.132,16.419c1.774,6.286,7.683,12.184,5.362,18.29a22.982,22.982,0,0,1-3.09,4.79,22.391,22.391,0,0,0-3.473,17.607H241.028c1.322-8.706-6.109-17.253-7.25-25.984-1.486-11.365,9.042-23,4.277-33.426-2.279-4.985-5.861-3.451-7.484-8.687-1.7-5.49,13.119-11.245,4.885-25.312-5.329-9.1-18.221-6.232-25.709-6.887C197.716,114.611,186.157,119.445,174.3,117.132Z" transform="translate(-138.149 -115.511)" fill="#472a1c"/>
              </g>
              <g id="Grupo_1225735" data-name="Grupo 1225735" transform="translate(21.76 146.595)">
                <path id="Trazado_1213695" data-name="Trazado 1213695" d="M125.029,384.5H235.257a53.341,53.341,0,0,1-1.567-15.351c1-15.464,11.416-29.192,16.249-43.577,1.975-5.878,3.017-11.866,2.1-18.126-2.477-16.954-18.554-28.016-34.185-33.329a112.553,112.553,0,0,0-75.972,1.456,50.911,50.911,0,0,0-31.69,39.609c-3.643,22.66,11.955,35.18,14.316,55.7A95.576,95.576,0,0,1,125.029,384.5Z" transform="translate(-109.645 -268.222)" fill="#383138"/>
              </g>
              <g id="Grupo_1225736" data-name="Grupo 1225736" transform="translate(123.666 169.529)">
                <path id="Trazado_1213696" data-name="Trazado 1213696" d="M299.843,392.86a84.9,84.9,0,0,0,14.267-36.282c-5.847-13.559-13.809-30.65-21.754-42.992-2.782-4.321-5.795-8.667-10.008-11.457s-9.925-3.709-14.161-.958c-3.148,2.045-4.961,5.684-6.5,9.2a149.727,149.727,0,0,0-11.472,82.487Z" transform="translate(-248.683 -299.513)" fill="#383138"/>
              </g>
              <g id="Grupo_1225737" data-name="Grupo 1225737" transform="translate(-8.342 158.024)">
                <path id="Trazado_1213697" data-name="Trazado 1213697" d="M87.955,388.668h41.525c1.121-5.819,2.282-11.487,3.212-16.736,4.563-25.724,13.427-51.06,11.78-77.243-.163-2.585-.481-5.314-1.892-7.337a8.971,8.971,0,0,0-6.615-3.428c-10.752-1.181-20.2,7.527-28.316,15.705L92.694,314.706c-11.457,11.55-28.629,25.8-23.023,42.07A103.3,103.3,0,0,0,87.955,388.668Z" transform="translate(-68.576 -283.815)" fill="#383138"/>
              </g>
              <g id="Grupo_1225738" data-name="Grupo 1225738" transform="translate(68.53 119.719)">
                <path id="Trazado_1213698" data-name="Trazado 1213698" d="M226.976,263.018c-10.441-5.951-16.513-19.258-14.359-31.465h-20.87c.272,8.5-4.594,14.535-9.08,21.633-2.338,3.7-5.125,7.543-9.209,8.763,5.9,8.242,16.109,12.363,25.965,12.624S220.685,270.937,226.976,263.018Z" transform="translate(-173.458 -231.553)" fill="#f3725f"/>
              </g>
              <g id="Grupo_1225739" data-name="Grupo 1225739" transform="translate(68.53 119.719)">
                <path id="Trazado_1213699" data-name="Trazado 1213699" d="M226.976,263.018c-10.441-5.951-16.513-19.258-14.359-31.465h-20.87c.272,8.5-4.594,14.535-9.08,21.633-2.338,3.7-5.125,7.543-9.209,8.763,5.9,8.242,16.109,12.363,25.965,12.624S220.685,270.937,226.976,263.018Z" transform="translate(-173.458 -231.553)" fill="#f3725f"/>
              </g>
              <g id="Grupo_1225740" data-name="Grupo 1225740" transform="translate(82.701 119.719)">
                <path id="Trazado_1213700" data-name="Trazado 1213700" d="M192.792,245.385c7.712,6.3,19.665-5.6,21.606-13.831H196.91C197.079,236.832,195.266,241.161,192.792,245.385Z" transform="translate(-192.792 -231.554)" fill="#362f36"/>
              </g>
              <g id="Grupo_1225741" data-name="Grupo 1225741" transform="translate(68.53 119.719)">
                <path id="Trazado_1213701" data-name="Trazado 1213701" d="M212.617,231.554h-.344a1.747,1.747,0,0,1-.023.207c-1.921,10.649-16.581,23.371-26.181,16.164-1.1,1.724-2.262,3.459-3.4,5.262-2.338,3.7-5.125,7.543-9.209,8.763,5.9,8.242,16.109,12.363,25.965,12.624s21.262-3.636,27.553-11.555C216.535,257.067,210.463,243.76,212.617,231.554Z" transform="translate(-173.458 -231.554)" fill="#362f36"/>
              </g>
              <g id="Grupo_1225742" data-name="Grupo 1225742" transform="translate(68.53 136.614)">
                <path id="Trazado_1213702" data-name="Trazado 1213702" d="M215.19,256.033A31.831,31.831,0,0,1,206,259.573a23.531,23.531,0,0,1-20.271-4.969c-1,1.552-2.042,3.118-3.067,4.738-2.338,3.7-5.125,7.543-9.209,8.763,1.044,9.046,19.831,44.088,29.687,44.349s17.54-35.361,23.831-43.281A29.289,29.289,0,0,1,215.19,256.033Z" transform="translate(-173.457 -254.604)" fill="#383138"/>
              </g>
              <g id="Grupo_1225743" data-name="Grupo 1225743" transform="translate(115.607 81.179)">
                <path id="Trazado_1213703" data-name="Trazado 1213703" d="M237.689,188.2c-.056,5.155,3.822,9.382,8.66,9.442s8.806-4.071,8.862-9.226-3.822-9.382-8.66-9.442S237.744,183.042,237.689,188.2Z" transform="translate(-237.688 -178.97)" fill="#f3725f"/>
              </g>
              <g id="Grupo_1225744" data-name="Grupo 1225744" transform="translate(73.401 44.301)">
                <path id="Trazado_1213704" data-name="Trazado 1213704" d="M225.562,189.525c-.015.263-.034.526-.058.789-.012.133-.024.268-.038.4-.01.083-.016.166-.028.248-.028.253-.059.5-.1.751l-.033.224c-.056.363-.119.726-.191,1.083q-.113.572-.252,1.134c-.032.133-.067.265-.1.4-.02.08-.043.159-.065.239-.085.318-.179.631-.279.944-.237.756-.512,1.5-.819,2.219-.073.174-.15.347-.226.519a24.865,24.865,0,0,1-2.525,4.351q-.32.436-.652.855c-.12.152-.243.3-.365.448-.206.244-.414.483-.629.719q-.784.867-1.645,1.646-.4.363-.818.707a22.638,22.638,0,0,1-3.638,2.456,21.718,21.718,0,0,1-3.02,1.355c-.228.083-.458.161-.688.234-.164.053-.328.1-.494.152-.089.028-.18.055-.27.08s-.168.046-.252.067c-.268.073-.536.141-.807.2a21.323,21.323,0,0,1-4.978.526c-.375-.005-.745-.02-1.115-.043a21.684,21.684,0,0,1-11.286-4.087,24.744,24.744,0,0,1-10.087-20.39l.062-5.732.184-16.859.056-5.273.079-7.277c.005-.4.018-.8.041-1.192.011-.195.024-.391.04-.586.011-.156.024-.308.042-.462s.031-.31.051-.463a.905.905,0,0,1,.013-.111c.01-.095.022-.189.037-.284.013-.114.029-.224.046-.337.008-.069.019-.137.029-.205q.037-.247.082-.495c.023-.139.049-.278.077-.416.014-.082.029-.163.048-.245.063-.322.135-.639.213-.956.041-.178.087-.358.136-.534s.088-.325.135-.489.094-.318.141-.476c0,0,0-.01.005-.014.049-.159.1-.315.152-.473s.108-.317.163-.475.114-.314.172-.47c.119-.317.246-.63.377-.94.026-.059.052-.117.078-.177.111-.255.224-.509.343-.759.028-.058.056-.116.084-.174q.187-.387.386-.767l.063-.12A22.594,22.594,0,0,1,203.5,128.656c9.62.119,17.827,6.669,21.038,15.749a25.379,25.379,0,0,1,1.448,8.768l-.38,35.141Q225.6,188.92,225.562,189.525Z" transform="translate(-180.103 -128.655)" fill="#f3725f"/>
              </g>
              <g id="Grupo_1225745" data-name="Grupo 1225745" transform="translate(61.028 79.855)">
                <path id="Trazado_1213705" data-name="Trazado 1213705" d="M163.223,186.391c-.056,5.155,3.822,9.382,8.66,9.442s8.806-4.071,8.862-9.226-3.822-9.382-8.66-9.442S163.278,181.236,163.223,186.391Z" transform="translate(-163.222 -177.164)" fill="#f3725f"/>
              </g>
              <g id="Grupo_1225746" data-name="Grupo 1225746" transform="translate(63.886 87.137)">
                <path id="Trazado_1213706" data-name="Trazado 1213706" d="M174.844,195.644a.508.508,0,0,1-.368-.157l-7.213-7.524a.51.51,0,0,1,.737-.706l7.213,7.524a.51.51,0,0,1-.369.863Z" transform="translate(-167.121 -187.099)" fill="#472a1c"/>
              </g>
              <g id="Grupo_1225747" data-name="Grupo 1225747" transform="translate(120.146 85.053)">
                <path id="Trazado_1213707" data-name="Trazado 1213707" d="M251.6,192.8a.508.508,0,0,1-.368-.157l-7.213-7.524a.51.51,0,1,1,.737-.706l7.213,7.524a.51.51,0,0,1-.369.863Z" transform="translate(-243.881 -184.256)" fill="#472a1c"/>
              </g>
              <g id="Grupo_1225748" data-name="Grupo 1225748" transform="translate(96.205 91.325)">
                <path id="Trazado_1213708" data-name="Trazado 1213708" d="M212.706,203.115a.5.5,0,0,1-.412-.776l2.448-3.619h-2.78a.5.5,0,0,1-.5-.472l-.248-4.911a.5.5,0,1,1,.993-.051l.224,4.439h3.244a.5.5,0,0,1,.412.776l-2.974,4.394A.494.494,0,0,1,212.706,203.115Z" transform="translate(-211.217 -192.813)" fill="#472a1c"/>
              </g>
              <g id="Grupo_1225751" data-name="Grupo 1225751" transform="translate(77.78 86.815)">
                <g id="Grupo_1225749" data-name="Grupo 1225749" transform="translate(0 0.001)">
                  <path id="Trazado_1213709" data-name="Trazado 1213709" d="M186.079,190.026c.043,1.307,2.3,2.345,5.437,2.674a21.419,21.419,0,0,0,2.96.1,20.657,20.657,0,0,0,3.426-.4c2.853-.583,4.812-1.721,4.771-2.958-.037-1.153-1.8-2.095-4.366-2.526a20.235,20.235,0,0,0-4.03-.241,20.721,20.721,0,0,0-3.649.441C187.9,187.711,186.038,188.821,186.079,190.026Z" transform="translate(-186.078 -186.662)" fill="#fff"/>
                </g>
                <g id="Grupo_1225750" data-name="Grupo 1225750" transform="translate(3.832)">
                  <path id="Trazado_1213710" data-name="Trazado 1213710" d="M191.306,189.428a4.187,4.187,0,0,0,1.606,3.272,21.419,21.419,0,0,0,2.96.1,20.655,20.655,0,0,0,3.426-.4,4.15,4.15,0,0,0,1.267-2.974,4.1,4.1,0,0,0-.862-2.511,20.234,20.234,0,0,0-4.03-.241,20.721,20.721,0,0,0-3.649.441A4.107,4.107,0,0,0,191.306,189.428Z" transform="translate(-191.306 -186.661)" fill="#362f36"/>
                </g>
              </g>
              <g id="Grupo_1225754" data-name="Grupo 1225754" transform="translate(99.545 85.945)">
                <g id="Grupo_1225752" data-name="Grupo 1225752" transform="translate(0 0.001)">
                  <path id="Trazado_1213711" data-name="Trazado 1213711" d="M215.775,188.838c.043,1.307,2.3,2.345,5.437,2.674a21.418,21.418,0,0,0,2.96.1,20.733,20.733,0,0,0,3.426-.4c2.853-.583,4.812-1.721,4.771-2.958-.037-1.153-1.8-2.095-4.366-2.526a20.236,20.236,0,0,0-4.03-.241,20.721,20.721,0,0,0-3.649.441C217.592,186.523,215.734,187.634,215.775,188.838Z" transform="translate(-215.774 -185.475)" fill="#fff"/>
                </g>
                <g id="Grupo_1225753" data-name="Grupo 1225753" transform="translate(3.831 0)">
                  <path id="Trazado_1213712" data-name="Trazado 1213712" d="M221,188.241a4.187,4.187,0,0,0,1.606,3.272,21.423,21.423,0,0,0,2.96.1,20.733,20.733,0,0,0,3.426-.4,4.151,4.151,0,0,0,1.267-2.974,4.1,4.1,0,0,0-.862-2.512,20.233,20.233,0,0,0-4.03-.241,20.721,20.721,0,0,0-3.649.441A4.1,4.1,0,0,0,221,188.241Z" transform="translate(-221.001 -185.474)" fill="#362f36"/>
                </g>
              </g>
              <g id="Grupo_1225755" data-name="Grupo 1225755" transform="translate(90.339 100.749)">
                <path id="Trazado_1213713" data-name="Trazado 1213713" d="M212.234,211.052a10.948,10.948,0,0,1-8.933-4.6.5.5,0,1,1,.819-.564,10.032,10.032,0,0,0,10.823,3.77.5.5,0,1,1,.292.951A10.233,10.233,0,0,1,212.234,211.052Z" transform="translate(-203.213 -205.672)" fill="#472a1c"/>
              </g>
              <g id="Grupo_1225756" data-name="Grupo 1225756" transform="translate(70.715 50.837)">
                <path id="Trazado_1213714" data-name="Trazado 1213714" d="M185.457,158.478a31.7,31.7,0,0,0,2.222-11.8c.032-3.266-.46-6.826-2.8-9.105a20.358,20.358,0,0,0-7.583,11.286c-1,3.666-1.643,21.67,1.11,24.877C181.863,177.764,184.4,161.034,185.457,158.478Z" transform="translate(-176.438 -137.572)" fill="#472a1c"/>
              </g>
              <g id="Grupo_1225757" data-name="Grupo 1225757" transform="translate(72.133 39.932)">
                <path id="Trazado_1213715" data-name="Trazado 1213715" d="M178.735,140.015c-1.195,5.123,1.242,10.733,5.458,13.879a18.337,18.337,0,0,0,15.038,2.738c4.207-1,8-3.222,11.718-5.435s7.485-4.47,11.674-5.542,8.935-.8,12.434,1.737c-.306-5.6-.707-11.766-4.721-15.678a23.258,23.258,0,0,0-7.576-4.555,60.119,60.119,0,0,0-19.942-4.412,22.943,22.943,0,0,0-17.764,5.534,20.761,20.761,0,0,0-5.268,5.473C178.473,135.936,177.965,137.587,178.735,140.015Z" transform="translate(-178.373 -122.694)" fill="#472a1c"/>
              </g>
              <g id="Grupo_1225758" data-name="Grupo 1225758" transform="translate(95.665 42.472)">
                <path id="Trazado_1213716" data-name="Trazado 1213716" d="M213.8,153.667c2.48-1.629,5.1-3.307,8.051-3.566s6.311,1.435,6.835,4.356c.519,2.89-1.785,5.53-2.128,8.446a7.749,7.749,0,0,0,3.3,6.928A11.81,11.81,0,0,0,237.5,171.8a16.448,16.448,0,0,0,14.269-11.016,26.22,26.22,0,0,1-7.525-11.52c-1.6-4.678-1.735-9.738-3.139-14.476a11.9,11.9,0,0,0-2.3-4.595,10.5,10.5,0,0,0-3.829-2.581,21.39,21.39,0,0,0-13.389-.712,15.553,15.553,0,0,0-7.117,3.575,14.484,14.484,0,0,0-3.976,9.85C210.32,143.946,213.05,150.117,213.8,153.667Z" transform="translate(-210.48 -126.16)" fill="#472a1c"/>
              </g>
              <g id="Grupo_1225759" data-name="Grupo 1225759" transform="translate(64.635 95.604)">
                <path id="Trazado_1213717" data-name="Trazado 1213717" d="M171.862,225.406c-2.441,0-3.719-6.73-3.719-13.378s1.277-13.378,3.719-13.378,3.719,6.73,3.719,13.378S174.3,225.406,171.862,225.406Zm0-25.755c-1.109,0-2.72,4.822-2.72,12.379s1.611,12.379,2.72,12.379,2.72-4.822,2.72-12.379S172.971,199.651,171.862,199.651Z" transform="translate(-168.143 -198.651)" fill="#fff"/>
              </g>
              <g id="Grupo_1225760" data-name="Grupo 1225760" transform="translate(120.809 95.381)">
                <path id="Trazado_1213718" data-name="Trazado 1213718" d="M248.5,225.1c-2.441,0-3.719-6.73-3.719-13.378s1.277-13.378,3.719-13.378,3.719,6.73,3.719,13.378S250.946,225.1,248.5,225.1Zm0-25.755c-1.109,0-2.72,4.822-2.72,12.379S247.4,224.1,248.5,224.1s2.72-4.822,2.72-12.379S249.614,199.348,248.5,199.348Z" transform="translate(-244.786 -198.348)" fill="#fff"/>
              </g>
              <g id="Grupo_1225761" data-name="Grupo 1225761" transform="translate(75.253 46.656)">
                <path id="Trazado_1213719" data-name="Trazado 1213719" d="M201.839,155.64a28.083,28.083,0,0,1-10.693-2.214,14.239,14.239,0,0,1-7.455-8.225,15.08,15.08,0,0,1,.264-11.759.333.333,0,1,1,.6.289,14.414,14.414,0,0,0-.24,11.236,13.574,13.574,0,0,0,7.09,7.845,25.225,25.225,0,0,0,17.748.989c5.869-1.956,10.05-6.736,14.166-11.882a.217.217,0,0,1,.025-.028c.735-.735,1.453-1.494,2.148-2.229,2.861-3.024,5.563-5.88,9.62-7.5a4.395,4.395,0,0,1,4.689,1.073.35.35,0,0,1,.042.051c1.249,1.873,1.228,4.545-.056,7.329a.333.333,0,1,1-.6-.279c1.179-2.555,1.224-4.977.125-6.653a3.725,3.725,0,0,0-3.947-.9c-3.921,1.568-6.574,4.373-9.384,7.342-.694.734-1.412,1.492-2.148,2.23-4.011,5.013-8.433,10.073-14.465,12.083A23.719,23.719,0,0,1,201.839,155.64Z" transform="translate(-182.63 -131.868)" fill="#9b5c43"/>
              </g>
            </g>
            <g id="Grupo_1225763" data-name="Grupo 1225763" clip-path="url(#clip-path-2)">
              <path id="Trazado_1213720" data-name="Trazado 1213720" d="M281.326,222.948a1,1,0,0,1-.993-.9,29.578,29.578,0,0,0-5.852-14.876c-.369-.488-.769-.984-1.154-1.464-1.585-1.971-3.223-4.008-3.835-6.581-1.078-4.524,1.5-9.028,3.529-12.022.262-.388.531-.775.8-1.165,1.966-2.848,4-5.794,4.338-9.083a12.6,12.6,0,0,0-3.36-9.278,30.9,30.9,0,0,0-8.443-6.338l-.139-.077a10.847,10.847,0,0,1-3.562-2.7,7.683,7.683,0,0,1-.789-7.161,19.547,19.547,0,0,1,3.663-5.767,1,1,0,1,1,1.541,1.272,17.679,17.679,0,0,0-3.32,5.161,5.761,5.761,0,0,0,.49,5.279,9.243,9.243,0,0,0,2.95,2.175l.139.078a32.723,32.723,0,0,1,8.98,6.777,14.593,14.593,0,0,1,3.835,10.788c-.391,3.8-2.572,6.958-4.682,10.014-.265.385-.531.768-.79,1.151-1.973,2.908-4.124,6.722-3.239,10.436.509,2.134,1.936,3.911,3.449,5.792.4.491.8,1,1.19,1.51a31.58,31.58,0,0,1,6.248,15.881,1,1,0,0,1-.893,1.1A.955.955,0,0,1,281.326,222.948Z" transform="translate(-128.398 -88.764)" fill="#472a1c"/>
            </g>
            <g id="Grupo_1225764" data-name="Grupo 1225764" clip-path="url(#clip-path-2)">
              <path id="Trazado_1213721" data-name="Trazado 1213721" d="M127.521,218.173a1,1,0,0,1-.99-.873,18.629,18.629,0,0,1,5.972-16.018c.146-.13.295-.26.444-.39a6.206,6.206,0,0,0,1.7-1.912,4.432,4.432,0,0,0,.215-2.35,25.217,25.217,0,0,0-2.675-7.668c-1.527-3.245-3.105-6.6-2.849-10.317.419-6.07,5.616-10.454,10.34-12.532,1.519-.668,3.1-1.2,4.637-1.715a32.786,32.786,0,0,0,6.753-2.83c3.163-1.926,5.787-5.688,4.685-9.15a1,1,0,1,1,1.9-.606,8.3,8.3,0,0,1-.838,6.608,13.308,13.308,0,0,1-4.711,4.855,34.768,34.768,0,0,1-7.156,3.018c-1.49.5-3.031,1.017-4.467,1.65-4.189,1.843-8.793,5.66-9.151,10.841-.221,3.2,1.181,6.175,2.664,9.329a27.11,27.11,0,0,1,2.853,8.29,6.29,6.29,0,0,1-.38,3.4,7.871,7.871,0,0,1-2.211,2.6c-.141.123-.283.246-.421.37a16.6,16.6,0,0,0-5.323,14.276,1,1,0,0,1-.865,1.117A1.1,1.1,0,0,1,127.521,218.173Z" transform="translate(-92.357 -90.353)" fill="#472a1c"/>
            </g>
          </g>
          <g id="Grupo_1225766" data-name="Grupo 1225766" transform="translate(79.883 78.454)">
            <path id="Trazado_1213722" data-name="Trazado 1213722" d="M200.7,178.764a1,1,0,0,1-.377-.074,16.5,16.5,0,0,0-6.253-1.439h-.023a10.941,10.941,0,0,0-3.758.672,1,1,0,0,1-.688-1.876,12.926,12.926,0,0,1,4.442-.794h.028a18.385,18.385,0,0,1,7.008,1.587,1,1,0,0,1-.378,1.924Z" transform="translate(-188.948 -175.253)" fill="#472a1c"/>
          </g>
          <g id="Grupo_1225767" data-name="Grupo 1225767" transform="translate(99.492 77.245)">
            <path id="Trazado_1213723" data-name="Trazado 1213723" d="M216.7,178.2a1,1,0,0,1-.644-1.765,12.785,12.785,0,0,1,7.237-2.785,20.465,20.465,0,0,1,7.521.977,1,1,0,0,1-.578,1.912,18.555,18.555,0,0,0-6.793-.9,10.781,10.781,0,0,0-6.1,2.323A.986.986,0,0,1,216.7,178.2Z" transform="translate(-215.702 -173.604)" fill="#472a1c"/>
          </g>
        </g>
        <g id="Grupo_1225769" data-name="Grupo 1225769" transform="translate(143.151 214.689)">
          <path id="Trazado_1213724" data-name="Trazado 1213724" d="M204.206,297.167q-.377,0-.752-.021a19.049,19.049,0,0,1-5.3-1.16,30.74,30.74,0,0,1-19.876-27.921l.6,0a30.127,30.127,0,0,0,19.479,27.365,18.472,18.472,0,0,0,5.133,1.127c5.556.31,11.35-3.017,14.758-8.482,2.782-4.461,4.143-10.281,4.043-17.3l.6-.009c.1,7.131-1.289,13.06-4.133,17.62C215.383,293.786,209.742,297.167,204.206,297.167Z" transform="translate(-178.28 -268.061)" fill="#f5f5f3"/>
        </g>
        <g id="Grupo_1225774" data-name="Grupo 1225774" transform="translate(226.63 86.766)">
          <g id="Grupo_1225770" data-name="Grupo 1225770" transform="translate(2.709)">
            <path id="Trazado_1213725" data-name="Trazado 1213725" d="M422.227,127.839H302.185a6.312,6.312,0,0,1-6.312-6.312V102.186a8.66,8.66,0,0,1,8.66-8.66H420.516a9,9,0,0,1,9,9v18.03A7.285,7.285,0,0,1,422.227,127.839Z" transform="translate(-295.873 -93.526)" fill="#a595fa"/>
          </g>
          <g id="Grupo_1225771" data-name="Grupo 1225771" transform="translate(0 27.992)">
            <path id="Trazado_1213726" data-name="Trazado 1213726" d="M311.14,131.718l-18.963,21.671,41.537-17.157Z" transform="translate(-292.177 -131.718)" fill="#a595fa"/>
          </g>
          <g id="Grupo_1225772" data-name="Grupo 1225772" transform="translate(14.448 10.836)">
            <path id="Trazado_1213727" data-name="Trazado 1213727" d="M420.246,110.117H312.792a.9.9,0,0,1,0-1.806H420.246a.9.9,0,0,1,0,1.806Z" transform="translate(-311.889 -108.311)" fill="#fff8f3"/>
          </g>
          <g id="Grupo_1225773" data-name="Grupo 1225773" transform="translate(13.545 21.672)">
            <path id="Trazado_1213728" data-name="Trazado 1213728" d="M361.224,124.9H311.56a.9.9,0,0,1,0-1.806h49.664a.9.9,0,0,1,0,1.806Z" transform="translate(-310.657 -123.095)" fill="#fff8f3"/>
          </g>
        </g>
        <g id="Grupo_1225775" data-name="Grupo 1225775" transform="translate(77.819 255.304)">
          <path id="Trazado_1213729" data-name="Trazado 1213729" d="M119.622,384.434h0a30.569,30.569,0,0,1-30.479-30.479h0a30.569,30.569,0,0,1,30.479-30.479h0A30.569,30.569,0,0,1,150.1,353.955h0A30.569,30.569,0,0,1,119.622,384.434Z" transform="translate(-89.143 -323.476)" fill="#a595fa"/>
        </g>
        <g id="Grupo_1225776" data-name="Grupo 1225776" transform="translate(101.287 275.987)">
          <path id="Trazado_1213730" data-name="Trazado 1213730" d="M121.59,374.038l-.213-11.171-.214-11.171,9.782,5.4,9.782,5.4-9.568,5.771Z" transform="translate(-121.163 -351.695)" fill="#fff8f3"/>
        </g>
        <g id="Grupo_1225791" data-name="Grupo 1225791" transform="translate(450.285 199.384)">
          <g id="Grupo_1225778" data-name="Grupo 1225778" transform="translate(0.779)">
            <g id="Grupo_1225777" data-name="Grupo 1225777">
              <path id="Trazado_1213731" data-name="Trazado 1213731" d="M641.343,325.3c12.66-.893.91-16.331,7.854-21.35,6.863-4.961,20.995-4.736,15.706-17.27-1.708-4.047-5.2-5.731-4.488-10.487.854-5.7,7.4-9.059,9.789-14.047,5.04-10.529-6.513-18.742-15.809-13.171a18.583,18.583,0,0,0-7.827,10.658c-.907,4.189,1.969,8.064-1.082,11.984-4.785,6.148-15.288-.055-20.9,6.546-6.424,7.562,5.929,14.286,2,21.633-2.363,4.413-10.848,5.026-14.959,7.211A25.876,25.876,0,0,0,600.383,318.8c-6.6,14.172,3.917,32.331,20.526,31.524a22.144,22.144,0,0,0,16.334-8.681C641.5,336.158,640.83,329.743,641.343,325.3Z" transform="translate(-598.389 -247.18)" fill="#a595fa"/>
            </g>
          </g>
          <g id="Grupo_1225780" data-name="Grupo 1225780" transform="translate(33.758 8.976)">
            <g id="Grupo_1225779" data-name="Grupo 1225779">
              <path id="Trazado_1213732" data-name="Trazado 1213732" d="M673.015,259.76a.324.324,0,0,0-.617-.148l-22.96,48.232L643.416,320.5a.324.324,0,1,0,.586.279l28.983-60.883A.324.324,0,0,0,673.015,259.76Z" transform="translate(-643.384 -259.427)" fill="#503c6f"/>
            </g>
          </g>
          <g id="Grupo_1225782" data-name="Grupo 1225782" transform="translate(45.303 40.922)">
            <g id="Grupo_1225781" data-name="Grupo 1225781">
              <path id="Trazado_1213733" data-name="Trazado 1213733" d="M674.733,303.345a.324.324,0,0,0-.421-.317l-14.947,4.682a.324.324,0,1,0,.194.619l14.947-4.682A.326.326,0,0,0,674.733,303.345Z" transform="translate(-659.137 -303.013)" fill="#503c6f"/>
            </g>
          </g>
          <g id="Grupo_1225784" data-name="Grupo 1225784" transform="translate(54.888 8.83)">
            <g id="Grupo_1225783" data-name="Grupo 1225783">
              <path id="Trazado_1213734" data-name="Trazado 1213734" d="M676.23,269.046a.34.34,0,0,0-.018-.117l-3.367-9.485a.325.325,0,1,0-.612.217l3.367,9.485a.325.325,0,0,0,.63-.1Z" transform="translate(-672.214 -259.228)" fill="#503c6f"/>
            </g>
          </g>
          <g id="Grupo_1225786" data-name="Grupo 1225786" transform="translate(35.993 40.798)">
            <g id="Grupo_1225785" data-name="Grupo 1225785">
              <path id="Trazado_1213735" data-name="Trazado 1213735" d="M652.013,317.164a.316.316,0,0,0-.017-.109l-4.972-14.008a.3.3,0,1,0-.573.2l4.972,14.008a.3.3,0,0,0,.59-.094Z" transform="translate(-646.434 -302.844)" fill="#503c6f"/>
            </g>
          </g>
          <g id="Grupo_1225787" data-name="Grupo 1225787" transform="translate(0 77.835)">
            <path id="Trazado_1213736" data-name="Trazado 1213736" d="M597.66,418.21a.333.333,0,0,1-.333-.328,113.648,113.648,0,0,1,2.784-23.669c2.695-12.1,8.616-28.993,21.527-40.751a.333.333,0,1,1,.448.493c-12.782,11.641-18.652,28.4-21.326,40.4a112.935,112.935,0,0,0-2.768,23.513.333.333,0,0,1-.328.338Z" transform="translate(-597.326 -353.376)" fill="#503c6f"/>
          </g>
          <g id="Grupo_1225788" data-name="Grupo 1225788" transform="translate(27.607 71.747)">
            <path id="Trazado_1213737" data-name="Trazado 1213737" d="M635.326,349.7a.333.333,0,0,1-.2-.6,21.988,21.988,0,0,0,3.967-3.905.333.333,0,0,1,.523.412,22.626,22.626,0,0,1-4.088,4.023A.33.33,0,0,1,635.326,349.7Z" transform="translate(-634.992 -345.07)" fill="#503c6f"/>
          </g>
          <g id="Grupo_1225789" data-name="Grupo 1225789" transform="translate(17.74 58.072)">
            <path id="Trazado_1213738" data-name="Trazado 1213738" d="M621.9,353.28a.332.332,0,0,1-.333-.331c-.065-8.7-.051-17.519.041-26.208a.32.32,0,0,1,.336-.329.334.334,0,0,1,.33.336c-.092,8.685-.106,17.5-.041,26.2a.333.333,0,0,1-.331.336Z" transform="translate(-621.531 -326.413)" fill="#503c6f"/>
          </g>
          <g id="Grupo_1225790" data-name="Grupo 1225790" transform="translate(14.655 68.175)">
            <path id="Trazado_1213739" data-name="Trazado 1213739" d="M617.654,361.624a.333.333,0,0,1-.194-.6A234.166,234.166,0,0,1,652.2,340.229a.333.333,0,1,1,.289.6,233.526,233.526,0,0,0-34.641,20.733A.327.327,0,0,1,617.654,361.624Z" transform="translate(-617.321 -340.196)" fill="#503c6f"/>
          </g>
        </g>
        <g id="Grupo_1225810" data-name="Grupo 1225810" transform="translate(470.444 246.543)">
          <g id="Grupo_1225793" data-name="Grupo 1225793" transform="translate(29.505 44.031)">
            <g id="Grupo_1225792" data-name="Grupo 1225792">
              <path id="Trazado_1213740" data-name="Trazado 1213740" d="M666.521,373c6.783-1.886,22.968-2.806,27.844,3.466-6.271,3.212-24.622,3.885-29.278-3.178C665.83,372.874,666.069,373.3,666.521,373Z" transform="translate(-665.087 -371.597)" fill="#503c6f"/>
            </g>
          </g>
          <g id="Grupo_1225795" data-name="Grupo 1225795" transform="translate(40.053 21.72)">
            <g id="Grupo_1225794" data-name="Grupo 1225794">
              <path id="Trazado_1213741" data-name="Trazado 1213741" d="M680.3,352.556c3.64-4.546,14.055-12.989,20.36-11.139-2.655,5.188-14.642,14.514-21.183,12.026C679.777,352.805,680.145,352.976,680.3,352.556Z" transform="translate(-679.479 -341.156)" fill="#503c6f"/>
            </g>
          </g>
          <g id="Grupo_1225797" data-name="Grupo 1225797" transform="translate(37.171 9.374)">
            <g id="Grupo_1225796" data-name="Grupo 1225796">
              <path id="Trazado_1213742" data-name="Trazado 1213742" d="M678.956,347.518c2.3-5.351,4.844-18.515.243-23.206-3.328,4.784-5.912,19.75-.638,24.35C678.984,348.1,678.66,347.855,678.956,347.518Z" transform="translate(-675.547 -324.312)" fill="#503c6f"/>
            </g>
          </g>
          <g id="Grupo_1225799" data-name="Grupo 1225799" transform="translate(47.165)">
            <g id="Grupo_1225798" data-name="Grupo 1225798">
              <path id="Trazado_1213743" data-name="Trazado 1213743" d="M689.289,333.158c-.145-5.822,2.38-18.989,8.394-21.636,1.312,5.677-1.848,20.533-8.451,22.844C689.049,333.687,689.44,333.582,689.289,333.158Z" transform="translate(-689.182 -311.522)" fill="#503c6f"/>
            </g>
          </g>
          <g id="Grupo_1225801" data-name="Grupo 1225801" transform="translate(24.279 15.79)">
            <g id="Grupo_1225800" data-name="Grupo 1225800">
              <path id="Trazado_1213744" data-name="Trazado 1213744" d="M663.674,360.926c1.918-6.775,2.917-22.954-3.331-27.861-3.243,6.255-4,24.6,3.036,29.293C663.8,361.618,663.37,361.377,663.674,360.926Z" transform="translate(-657.957 -333.065)" fill="#503c6f"/>
            </g>
          </g>
          <g id="Grupo_1225803" data-name="Grupo 1225803" transform="translate(17.496 55.414)">
            <g id="Grupo_1225802" data-name="Grupo 1225802">
              <path id="Trazado_1213745" data-name="Trazado 1213745" d="M650.136,388.532c6.783-1.886,22.968-2.806,27.844,3.466-6.27,3.212-24.622,3.885-29.278-3.177C649.445,388.405,649.684,388.833,650.136,388.532Z" transform="translate(-648.702 -387.128)" fill="#503c6f"/>
            </g>
          </g>
          <g id="Grupo_1225805" data-name="Grupo 1225805" transform="translate(13.397 27.892)">
            <g id="Grupo_1225804" data-name="Grupo 1225804">
              <path id="Trazado_1213746" data-name="Trazado 1213746" d="M648.828,377.438c1.919-6.774,2.917-22.954-3.331-27.861-3.242,6.255-4,24.6,3.036,29.293C648.951,378.13,648.524,377.889,648.828,377.438Z" transform="translate(-643.11 -349.577)" fill="#503c6f"/>
            </g>
          </g>
          <g id="Grupo_1225807" data-name="Grupo 1225807" transform="translate(5.227 65.291)">
            <g id="Grupo_1225806" data-name="Grupo 1225806">
              <path id="Trazado_1213747" data-name="Trazado 1213747" d="M633.4,402.006c6.783-1.886,22.968-2.806,27.844,3.466-6.271,3.212-24.622,3.885-29.278-3.178C632.706,401.88,632.944,402.308,633.4,402.006Z" transform="translate(-631.963 -400.603)" fill="#503c6f"/>
            </g>
          </g>
          <g id="Grupo_1225809" data-name="Grupo 1225809" transform="translate(0 37.05)">
            <g id="Grupo_1225808" data-name="Grupo 1225808">
              <path id="Trazado_1213748" data-name="Trazado 1213748" d="M630.549,389.933c1.919-6.775,2.917-22.954-3.331-27.861-3.242,6.256-4,24.6,3.036,29.293C630.672,390.625,630.245,390.383,630.549,389.933Z" transform="translate(-624.831 -362.072)" fill="#503c6f"/>
            </g>
          </g>
        </g>
        <g id="Grupo_1225811" data-name="Grupo 1225811" transform="translate(452.184 260.179)">
          <path id="Trazado_1213749" data-name="Trazado 1213749" d="M600.418,414.194a.5.5,0,0,1-.489-.607c3.875-17.659,13.092-24,22.851-30.7,4.74-3.259,9.641-6.628,14.154-11.449,2.579-2.756,5.485-5.415,8.3-7.987,5.271-4.823,10.721-9.812,14.424-15.766l.514-.823c2.616-4.181,7.485-11.965,7.4-16.222a.5.5,0,0,1,1-.018c.086,4.554-4.885,12.5-7.556,16.771l-.512.821c-3.776,6.071-9.278,11.105-14.6,15.974-2.8,2.559-5.688,5.205-8.241,7.933-4.587,4.9-9.533,8.3-14.317,11.59-9.591,6.594-18.65,12.822-22.44,30.1A.5.5,0,0,1,600.418,414.194Z" transform="translate(-599.917 -330.127)" fill="#503c6f"/>
        </g>
        <g id="Grupo_1225812" data-name="Grupo 1225812" transform="translate(146.898 273.334)">
          <path id="Trazado_1213750" data-name="Trazado 1213750" d="M199.137,412.021l-15.385-52.749a8.7,8.7,0,0,1,8.229-11.2h83.682a8.584,8.584,0,0,1,7.93,5.384l18.46,45.3a8.7,8.7,0,0,1-8.04,12.054C264.827,410.426,196.913,409.76,199.137,412.021Z" transform="translate(-183.393 -348.075)" fill="#503c6f"/>
        </g>
        <g id="Grupo_1225813" data-name="Grupo 1225813" transform="translate(153.855 276.83)">
          <path id="Trazado_1213751" data-name="Trazado 1213751" d="M207.162,409.8a.5.5,0,0,1-.356-.15.632.632,0,0,1-.19-.438l-13.4-45.928a8.148,8.148,0,0,1,1.308-7.232,7.907,7.907,0,0,1,6.373-3.2h73.222a7.985,7.985,0,0,1,7.4,5.022l16.153,39.639a8.2,8.2,0,0,1-.816,7.736,7.962,7.962,0,0,1-6.688,3.5c-70.391-.937-81.066.2-82.529.683a.5.5,0,0,1-.23.3A.494.494,0,0,1,207.162,409.8ZM200.9,353.845a6.918,6.918,0,0,0-5.574,2.8A7.157,7.157,0,0,0,194.179,363l13.26,45.465c1.818-.5,8.228-1.009,32.142-1.069,17.107-.046,36.961.163,50.6.345a6.9,6.9,0,0,0,5.85-3.064,7.206,7.206,0,0,0,.716-6.8L280.6,358.245a6.991,6.991,0,0,0-6.477-4.4H200.9Z" transform="translate(-192.884 -352.845)" fill="#a595fa"/>
        </g>
        <g id="Grupo_1225814" data-name="Grupo 1225814" transform="translate(162.642 330.619)">
          <path id="Trazado_1213752" data-name="Trazado 1213752" d="M341.032,437.8H210.6a5.738,5.738,0,0,1-5.721-5.721v-.12a5.738,5.738,0,0,1,5.721-5.721H341.032a5.738,5.738,0,0,1,5.721,5.721v.12A5.738,5.738,0,0,1,341.032,437.8Z" transform="translate(-204.874 -426.233)" fill="#a595fa"/>
        </g>
        <g id="Grupo_1225818" data-name="Grupo 1225818" transform="translate(46.74 246.689)">
          <g id="Grupo_1225815" data-name="Grupo 1225815">
            <path id="Trazado_1213753" data-name="Trazado 1213753" d="M56.066,316.385a4.663,4.663,0,1,1-4.663-4.663A4.663,4.663,0,0,1,56.066,316.385Z" transform="translate(-46.74 -311.722)" fill="#d9d9fc"/>
          </g>
          <g id="Grupo_1225816" data-name="Grupo 1225816" transform="translate(15.321)">
            <path id="Trazado_1213754" data-name="Trazado 1213754" d="M76.969,316.385a4.663,4.663,0,1,1-4.663-4.663A4.663,4.663,0,0,1,76.969,316.385Z" transform="translate(-67.643 -311.722)" fill="#d9d9fc"/>
          </g>
          <g id="Grupo_1225817" data-name="Grupo 1225817" transform="translate(30.641)">
            <path id="Trazado_1213755" data-name="Trazado 1213755" d="M97.872,316.385a4.663,4.663,0,1,1-4.663-4.663A4.663,4.663,0,0,1,97.872,316.385Z" transform="translate(-88.546 -311.722)" fill="#d9d9fc"/>
          </g>
        </g>
        <g id="Grupo_1225822" data-name="Grupo 1225822" transform="translate(425.085 112.138)">
          <g id="Grupo_1225819" data-name="Grupo 1225819">
            <path id="Trazado_1213756" data-name="Trazado 1213756" d="M572.27,132.806a4.663,4.663,0,1,1-4.663-4.663A4.663,4.663,0,0,1,572.27,132.806Z" transform="translate(-562.944 -128.143)" fill="#a595fa"/>
          </g>
          <g id="Grupo_1225820" data-name="Grupo 1225820" transform="translate(15.32)">
            <path id="Trazado_1213757" data-name="Trazado 1213757" d="M593.172,132.806a4.663,4.663,0,1,1-4.663-4.663A4.663,4.663,0,0,1,593.172,132.806Z" transform="translate(-583.846 -128.143)" fill="#a595fa"/>
          </g>
          <g id="Grupo_1225821" data-name="Grupo 1225821" transform="translate(30.64)">
            <path id="Trazado_1213758" data-name="Trazado 1213758" d="M614.075,132.806a4.663,4.663,0,1,1-4.663-4.663A4.663,4.663,0,0,1,614.075,132.806Z" transform="translate(-604.749 -128.143)" fill="#a595fa"/>
          </g>
        </g>
        <g id="Grupo_1225826" data-name="Grupo 1225826" transform="translate(323.172 71.505)">
          <g id="Grupo_1225823" data-name="Grupo 1225823" transform="translate(0 0)">
            <path id="Trazado_1213759" data-name="Trazado 1213759" d="M433.222,77.368a4.663,4.663,0,1,1-4.663-4.663A4.663,4.663,0,0,1,433.222,77.368Z" transform="translate(-423.896 -72.705)" fill="#d9d9fc"/>
          </g>
          <g id="Grupo_1225824" data-name="Grupo 1225824" transform="translate(15.321 0)">
            <path id="Trazado_1213760" data-name="Trazado 1213760" d="M454.125,77.368a4.663,4.663,0,1,1-4.663-4.663A4.663,4.663,0,0,1,454.125,77.368Z" transform="translate(-444.799 -72.705)" fill="#d9d9fc"/>
          </g>
          <g id="Grupo_1225825" data-name="Grupo 1225825" transform="translate(30.64 0)">
            <path id="Trazado_1213761" data-name="Trazado 1213761" d="M475.027,77.368a4.663,4.663,0,1,1-4.663-4.663A4.663,4.663,0,0,1,475.027,77.368Z" transform="translate(-465.701 -72.705)" fill="#d9d9fc"/>
          </g>
        </g>
        <g id="Grupo_1225827" data-name="Grupo 1225827" transform="translate(237.912 168.09)" opacity="0.38">
          <path id="Trazado_1213762" data-name="Trazado 1213762" d="M381.877,324.381H319.189a11.62,11.62,0,0,1-11.619-11.619V216.1a11.62,11.62,0,0,1,11.619-11.619h62.688A11.62,11.62,0,0,1,393.5,216.1v96.659A11.62,11.62,0,0,1,381.877,324.381Z" transform="translate(-307.57 -204.483)" fill="#fff8f3"/>
        </g>
        <g id="Grupo_1225828" data-name="Grupo 1225828" transform="translate(237.912 190.276)">
          <path id="Trazado_1213763" data-name="Trazado 1213763" d="M332.42,275.7c-8.367,5.835-16.636,11.865-24.85,18v26.283c0,6.9,4.841,12.486,10.812,12.486h64.3c5.971,0,10.812-5.591,10.812-12.486V234.753C373.229,248.582,352.573,261.642,332.42,275.7Z" transform="translate(-307.57 -234.753)" fill="#fff8f3"/>
        </g>
        <g id="Grupo_1225829" data-name="Grupo 1225829" transform="translate(259.495 143.556)">
          <circle id="Elipse_12955" data-name="Elipse 12955" cx="23.231" cy="23.231" r="23.231" transform="matrix(0.997, -0.083, 0.083, 0.997, 0, 3.833)" fill="#a595fa"/>
        </g>
        <g id="Grupo_1225832" data-name="Grupo 1225832" transform="translate(270.383 155.703)">
          <g id="Grupo_1225830" data-name="Grupo 1225830" transform="translate(4.733 0)">
            <circle id="Elipse_12956" data-name="Elipse 12956" cx="6.36" cy="6.36" r="6.36" transform="translate(0 8.994) rotate(-45)" fill="#fff8f3"/>
          </g>
          <g id="Grupo_1225831" data-name="Grupo 1225831" transform="translate(0 13.874)">
            <path id="Trazado_1213764" data-name="Trazado 1213764" d="M379.035,215.683a14.642,14.642,0,0,0-27.163,0Z" transform="translate(-351.872 -206.512)" fill="#fff8f3"/>
          </g>
        </g>
        <g id="Grupo_1225837" data-name="Grupo 1225837" transform="translate(245.405 200.063)">
          <g id="Grupo_1225833" data-name="Grupo 1225833" transform="translate(0.5)">
            <path id="Trazado_1213765" data-name="Trazado 1213765" d="M368.765,251.436H320.14a1.67,1.67,0,0,1-1.665-1.665h0a1.67,1.67,0,0,1,1.665-1.665h48.625a1.67,1.67,0,0,1,1.665,1.665h0A1.67,1.67,0,0,1,368.765,251.436Z" transform="translate(-318.475 -248.106)" fill="#a595fa"/>
          </g>
          <g id="Grupo_1225834" data-name="Grupo 1225834" transform="translate(0 8.159)">
            <path id="Trazado_1213766" data-name="Trazado 1213766" d="M385.569,260.238H318.293a.5.5,0,1,1,0-1h67.276a.5.5,0,0,1,0,1Z" transform="translate(-317.793 -259.238)" fill="#a595fa"/>
          </g>
          <g id="Grupo_1225835" data-name="Grupo 1225835" transform="translate(0 12.822)">
            <path id="Trazado_1213767" data-name="Trazado 1213767" d="M385.569,266.6H318.293a.5.5,0,1,1,0-1h67.276a.5.5,0,0,1,0,1Z" transform="translate(-317.793 -265.6)" fill="#a595fa"/>
          </g>
          <g id="Grupo_1225836" data-name="Grupo 1225836" transform="translate(0 17.485)">
            <path id="Trazado_1213768" data-name="Trazado 1213768" d="M385.569,272.962H318.293a.5.5,0,0,1,0-1h67.276a.5.5,0,0,1,0,1Z" transform="translate(-317.793 -271.962)" fill="#a595fa"/>
          </g>
        </g>
        <g id="Grupo_1225842" data-name="Grupo 1225842" transform="translate(245.405 227.706)">
          <g id="Grupo_1225838" data-name="Grupo 1225838" transform="translate(0.5)">
            <path id="Trazado_1213769" data-name="Trazado 1213769" d="M368.765,289.152H320.14a1.67,1.67,0,0,1-1.665-1.665h0a1.67,1.67,0,0,1,1.665-1.665h48.625a1.67,1.67,0,0,1,1.665,1.665h0A1.67,1.67,0,0,1,368.765,289.152Z" transform="translate(-318.475 -285.822)" fill="#a595fa"/>
          </g>
          <g id="Grupo_1225839" data-name="Grupo 1225839" transform="translate(0 8.159)">
            <path id="Trazado_1213770" data-name="Trazado 1213770" d="M385.569,297.954H318.293a.5.5,0,0,1,0-1h67.276a.5.5,0,0,1,0,1Z" transform="translate(-317.793 -296.954)" fill="#a595fa"/>
          </g>
          <g id="Grupo_1225840" data-name="Grupo 1225840" transform="translate(0 12.822)">
            <path id="Trazado_1213771" data-name="Trazado 1213771" d="M385.569,304.316H318.293a.5.5,0,1,1,0-1h67.276a.5.5,0,0,1,0,1Z" transform="translate(-317.793 -303.316)" fill="#a595fa"/>
          </g>
          <g id="Grupo_1225841" data-name="Grupo 1225841" transform="translate(0 17.484)">
            <path id="Trazado_1213772" data-name="Trazado 1213772" d="M385.569,310.677H318.293a.5.5,0,0,1,0-1h67.276a.5.5,0,0,1,0,1Z" transform="translate(-317.793 -309.677)" fill="#a595fa"/>
          </g>
        </g>
        <g id="Grupo_1225847" data-name="Grupo 1225847" transform="translate(245.738 252.685)">
          <g id="Grupo_1225843" data-name="Grupo 1225843" transform="translate(0.5)">
            <path id="Trazado_1213773" data-name="Trazado 1213773" d="M369.219,323.232H320.594a1.67,1.67,0,0,1-1.665-1.665h0a1.67,1.67,0,0,1,1.665-1.665h48.625a1.67,1.67,0,0,1,1.665,1.665h0A1.67,1.67,0,0,1,369.219,323.232Z" transform="translate(-318.929 -319.902)" fill="#a595fa"/>
          </g>
          <g id="Grupo_1225844" data-name="Grupo 1225844" transform="translate(0 8.159)">
            <path id="Trazado_1213774" data-name="Trazado 1213774" d="M386.023,332.034H318.747a.5.5,0,1,1,0-1h67.276a.5.5,0,1,1,0,1Z" transform="translate(-318.247 -331.034)" fill="#a595fa"/>
          </g>
          <g id="Grupo_1225845" data-name="Grupo 1225845" transform="translate(0 12.822)">
            <path id="Trazado_1213775" data-name="Trazado 1213775" d="M386.023,338.4H318.747a.5.5,0,1,1,0-1h67.276a.5.5,0,1,1,0,1Z" transform="translate(-318.247 -337.396)" fill="#a595fa"/>
          </g>
          <g id="Grupo_1225846" data-name="Grupo 1225846" transform="translate(0 17.484)">
            <path id="Trazado_1213776" data-name="Trazado 1213776" d="M386.023,344.757H318.747a.5.5,0,1,1,0-1h67.276a.5.5,0,1,1,0,1Z" transform="translate(-318.247 -343.757)" fill="#a595fa"/>
          </g>
        </g>
        <g id="Grupo_1225848" data-name="Grupo 1225848" transform="translate(198.612 293.983)">
          <path id="Trazado_1213777" data-name="Trazado 1213777" d="M265.607,399.561h0A11.691,11.691,0,0,1,253.95,387.9h0a11.691,11.691,0,0,1,11.657-11.657h0A11.691,11.691,0,0,1,277.263,387.9h0A11.691,11.691,0,0,1,265.607,399.561Z" transform="translate(-253.95 -376.248)" fill="#a595fa"/>
        </g>
        <g id="Grupo_1225849" data-name="Grupo 1225849" transform="translate(201.222 302.309)">
          <path id="Trazado_1213778" data-name="Trazado 1213778" d="M272.583,387.691l-12.02-.084a4.093,4.093,0,0,0-2.842,5.28h4.84v-3.037h8.023v3.12h4.84A4.093,4.093,0,0,0,272.583,387.691Z" transform="translate(-257.511 -387.608)" fill="#fff8f3"/>
        </g>
        <g id="Grupo_1225850" data-name="Grupo 1225850" transform="translate(190.063 303.308)">
          <path id="Trazado_1213779" data-name="Trazado 1213779" d="M244.617,393.634h0a2.338,2.338,0,0,1-2.331-2.331h0a2.338,2.338,0,0,1,2.331-2.331h0a2.338,2.338,0,0,1,2.331,2.331h0A2.338,2.338,0,0,1,244.617,393.634Z" transform="translate(-242.286 -388.971)" fill="#a595fa"/>
        </g>
        <g id="Grupo_1225851" data-name="Grupo 1225851" transform="translate(226.033 303.308)">
          <path id="Trazado_1213780" data-name="Trazado 1213780" d="M293.693,393.634h0a2.338,2.338,0,0,1-2.331-2.331h0a2.338,2.338,0,0,1,2.331-2.331h0a2.338,2.338,0,0,1,2.331,2.331h0A2.338,2.338,0,0,1,293.693,393.634Z" transform="translate(-291.362 -388.971)" fill="#a595fa"/>
        </g>
        <g id="Grupo_1225852" data-name="Grupo 1225852" transform="translate(234.649 303.829)">
          <path id="Trazado_1213781" data-name="Trazado 1213781" d="M304.928,393.3a1.81,1.81,0,1,1,1.81-1.81A1.812,1.812,0,0,1,304.928,393.3Zm0-2.776a.966.966,0,1,0,.966.966A.967.967,0,0,0,304.928,390.526Z" transform="translate(-303.118 -389.682)" fill="#a595fa"/>
        </g>
        <g id="Grupo_1225853" data-name="Grupo 1225853" transform="translate(182.591 303.829)">
          <path id="Trazado_1213782" data-name="Trazado 1213782" d="M233.9,393.3a1.81,1.81,0,1,1,1.81-1.81A1.812,1.812,0,0,1,233.9,393.3Zm0-2.776a.966.966,0,1,0,.966.966A.967.967,0,0,0,233.9,390.526Z" transform="translate(-232.091 -389.682)" fill="#a595fa"/>
        </g>
        <g id="Grupo_1225931" data-name="Grupo 1225931" transform="translate(294.93 136.348)">
          <g id="Grupo_1225929" data-name="Grupo 1225929">
            <g id="Grupo_1225854" data-name="Grupo 1225854" transform="translate(48.825)">
              <path id="Trazado_1213783" data-name="Trazado 1213783" d="M504.715,168.135c-.617,1.508-.815,3.177-1.815,4.515-1.773,2.372-5.548,2.934-8.68,2.293s-5.905-2.212-8.87-3.313-6.468-1.706-9.326-.4c-2.43,1.109-4.069,3.459-6.715,4.067-3.1.712-6.179-1.247-9.378-1.327a7.94,7.94,0,0,0-7.782,5.743c-.734,3.179.961,6.593,3.851,8.594a15.055,15.055,0,0,0,10.422,2.172c5.893-.8,11.519-4.422,17.3-3.132,3.259.727,5.822,2.906,8.838,4.217a17.654,17.654,0,0,0,11.137.891,14.419,14.419,0,0,1,3.238-.659c2.3-.037,4.3,1.423,6.574,1.69,3.348.393,6.318-1.809,9.582-2.576,6.9-1.621,13.832,3.3,20.944,2.749,4.564-.356,8.646-2.943,13.222-3.141,6.839-.3,12.87,4.763,19.711,4.5a12,12,0,0,0,9.478-5.107,9.3,9.3,0,0,0,.17-9.81c-2.375-3.948-7.444-6.088-12.424-6.876a16.874,16.874,0,0,0-5.925-.062,50.916,50.916,0,0,0-5.987,2.107c-4.21,1.4-9.224,1.179-12.919-1.091-2.093-1.286-3.66-3.125-5.547-4.64s-4.354-2.756-6.872-2.4c-2.032.284-4.436,1.475-5.864.166a5.089,5.089,0,0,1-1.027-2.505c-1.486-4.81-8.039-3.62-12.134-3.11C512.5,162.362,506.892,162.81,504.715,168.135Z" transform="translate(-451.979 -161.175)" fill="#383138"/>
            </g>
            <g id="Grupo_1225905" data-name="Grupo 1225905" transform="translate(0 3.352)">
              <g id="Grupo_1225902" data-name="Grupo 1225902">
                <g id="Grupo_1225889" data-name="Grupo 1225889">
                  <g id="Grupo_1225855" data-name="Grupo 1225855" transform="translate(38.838 31.905)">
                    <path id="Trazado_1213784" data-name="Trazado 1213784" d="M503.489,242.609,471.469,256.3l-.982.42a5.376,5.376,0,0,1-6.74-2.207L438.6,211.964a1.78,1.78,0,0,1,2.89-2.058l32,37.673-7.722-1.787L494.7,226.417A9.251,9.251,0,0,1,505,241.791,9.851,9.851,0,0,1,503.489,242.609Z" transform="translate(-438.354 -209.278)" fill="#ff8772"/>
                  </g>
                  <g id="Grupo_1225879" data-name="Grupo 1225879">
                    <g id="Grupo_1225859" data-name="Grupo 1225859" transform="translate(0 141.721)">
                      <g id="Grupo_1225856" data-name="Grupo 1225856">
                        <path id="Trazado_1213785" data-name="Trazado 1213785" d="M416.835,361.867a9.685,9.685,0,0,1-10.095,3.02c-2.471-.73-4.5-2.367-6.766-3.555a19.963,19.963,0,0,0-14.61-1.461l23.522,21.587,14.758-13.717Z" transform="translate(-385.364 -359.108)" fill="#ae4e3e"/>
                      </g>
                      <g id="Grupo_1225857" data-name="Grupo 1225857">
                        <path id="Trazado_1213786" data-name="Trazado 1213786" d="M416.835,361.867a9.685,9.685,0,0,1-10.095,3.02c-2.471-.73-4.5-2.367-6.766-3.555a19.963,19.963,0,0,0-14.61-1.461l23.522,21.587,14.758-13.717Z" transform="translate(-385.364 -359.108)" fill="#383138"/>
                      </g>
                      <g id="Grupo_1225858" data-name="Grupo 1225858" transform="translate(13.411 1.656)">
                        <path id="Trazado_1213787" data-name="Trazado 1213787" d="M421.722,362.47a9.685,9.685,0,0,1-10.095,3.02c-2.471-.73-4.5-2.367-6.766-3.555-.391-.205-.792-.391-1.2-.568a30.88,30.88,0,0,1,1.676,8.514,43.83,43.83,0,0,1,.067,4.5l2.5,2.29c4.173-2.038,8.889-2.1,13.5-1.7l7.128-6.625Z" transform="translate(-403.662 -361.368)" fill="#ff8772"/>
                      </g>
                    </g>
                    <g id="Grupo_1225869" data-name="Grupo 1225869" transform="translate(92.567)">
                      <g id="Grupo_1225868" data-name="Grupo 1225868">
                        <g id="Grupo_1225867" data-name="Grupo 1225867">
                          <g id="Grupo_1225860" data-name="Grupo 1225860" transform="translate(6.249 81.477)">
                            <path id="Trazado_1213788" data-name="Trazado 1213788" d="M527.621,279.237a297.882,297.882,0,0,1-7.436,44.684h46.948c2.112-7.747.235-16.856-4.31-23.708-2.512-3.787-5.9-7.049-8.517-10.78s-4.461-8.222-3.372-12.521Z" transform="translate(-520.185 -276.913)" fill="#ae4e3e"/>
                          </g>
                          <g id="Grupo_1225861" data-name="Grupo 1225861" transform="translate(6.249 93.289)">
                            <path id="Trazado_1213789" data-name="Trazado 1213789" d="M562.822,304.518c-2.512-3.787-5.9-7.049-8.517-10.78q-.233-.333-.458-.674-3.953.042-7.906.012-1.707-.014-3.415-.046h-15.9a298.426,298.426,0,0,1-6.437,35.2h46.948C569.245,320.478,567.368,311.369,562.822,304.518Z" transform="translate(-520.186 -293.029)" fill="#383138"/>
                          </g>
                          <g id="Grupo_1225862" data-name="Grupo 1225862" transform="translate(0 37.63)">
                            <path id="Trazado_1213790" data-name="Trazado 1213790" d="M556.4,239.4c2.584-9.415-3.179-17.777-12.187-20.812-.463-.158-.928-.3-1.395-.433-12.977-3.7-29.021,2.268-30.984,17.19-.754,5.736,1.077,11.2,2.54,16.664,1.833,6.841.632,14.165,4.279,20.527,3.776,6.586,10.153,7.834,17.163,7.587,8.19-.289,13.932-2.9,15.3-11.34.648-4,.025-8.105.374-12.12C552.02,250.561,554.8,245.236,556.4,239.4Z" transform="translate(-511.66 -217.089)" fill="#ffc585"/>
                          </g>
                          <g id="Grupo_1225863" data-name="Grupo 1225863" transform="translate(14.916 29.347)">
                            <path id="Trazado_1213791" data-name="Trazado 1213791" d="M549.078,215.406a9.338,9.338,0,0,1-4.579-9.618h-6.656c.087,2.6-1.465,4.443-2.9,6.613a5.8,5.8,0,0,1-2.937,2.679,10.651,10.651,0,0,0,8.281,3.859C543.434,219.018,547.071,217.827,549.078,215.406Z" transform="translate(-532.01 -205.788)" fill="#ff8772"/>
                          </g>
                          <g id="Grupo_1225864" data-name="Grupo 1225864" transform="translate(17.57 29.346)">
                            <path id="Trazado_1213792" data-name="Trazado 1213792" d="M535.632,212.819c.1-.139.191-.279.283-.419,1.431-2.169,2.982-4.016,2.9-6.613h6.656c-.035.19-.059.382-.08.573C543.77,209.995,539.8,212.085,535.632,212.819Z" transform="translate(-535.632 -205.787)" fill="#383138"/>
                          </g>
                          <g id="Grupo_1225865" data-name="Grupo 1225865" transform="translate(14.701)">
                            <path id="Trazado_1213793" data-name="Trazado 1213793" d="M540.472,195.953h0a8.781,8.781,0,0,1-8.755-8.756V174.5a8.781,8.781,0,0,1,8.755-8.756h0a8.782,8.782,0,0,1,8.756,8.756V187.2A8.782,8.782,0,0,1,540.472,195.953Z" transform="translate(-531.717 -165.748)" fill="#ff8772"/>
                          </g>
                          <g id="Grupo_1225866" data-name="Grupo 1225866" transform="translate(30.55 14.838)">
                            <path id="Trazado_1213794" data-name="Trazado 1213794" d="M560.084,189.364a3.371,3.371,0,1,1-3.372-3.372A3.372,3.372,0,0,1,560.084,189.364Z" transform="translate(-553.341 -185.992)" fill="#ff8772"/>
                          </g>
                        </g>
                      </g>
                    </g>
                    <g id="Grupo_1225871" data-name="Grupo 1225871" transform="translate(53.556 120.172)">
                      <g id="Grupo_1225870" data-name="Grupo 1225870">
                        <path id="Trazado_1213795" data-name="Trazado 1213795" d="M476.184,400.457c-5.91-.42-11.824-.764-17.75-.866L469,337.06a8.822,8.822,0,0,1,8.7-7.352h62.613a8.823,8.823,0,0,1,0,17.646H485.16Z" transform="translate(-458.434 -329.708)" fill="#383138"/>
                      </g>
                    </g>
                    <g id="Grupo_1225873" data-name="Grupo 1225873" transform="translate(27.424 103.361)">
                      <g id="Grupo_1225872" data-name="Grupo 1225872">
                        <path id="Trazado_1213796" data-name="Trazado 1213796" d="M422.781,343.417l47.76-34.815a9.721,9.721,0,0,1,8.253-1.485L535.1,322.485a8.767,8.767,0,0,1,6.37,10.92,9.393,9.393,0,0,1-11.523,6.036l-51.786-14.134L434.769,356.94C430.669,352.525,426.883,347.836,422.781,343.417Z" transform="translate(-422.781 -306.772)" fill="#383138"/>
                      </g>
                    </g>
                    <g id="Grupo_1225877" data-name="Grupo 1225877" transform="translate(37.379 189.017)">
                      <g id="Grupo_1225874" data-name="Grupo 1225874" transform="translate(0 0)">
                        <path id="Trazado_1213797" data-name="Trazado 1213797" d="M458.1,424.342A8.984,8.984,0,0,1,453.554,433c-2.087,1.165-4.491,1.45-6.746,2.181a18.519,18.519,0,0,0-10.445,8.74l29.572-1.594.478-18.684Z" transform="translate(-436.363 -423.638)" fill="#ae4e3e"/>
                      </g>
                      <g id="Grupo_1225875" data-name="Grupo 1225875" transform="translate(0 0)">
                        <path id="Trazado_1213798" data-name="Trazado 1213798" d="M458.1,424.342A8.984,8.984,0,0,1,453.554,433c-2.087,1.165-4.491,1.45-6.746,2.181a18.519,18.519,0,0,0-10.445,8.74l29.572-1.594.478-18.684Z" transform="translate(-436.363 -423.638)" fill="#383138"/>
                      </g>
                      <g id="Grupo_1225876" data-name="Grupo 1225876" transform="translate(13.402)">
                        <path id="Trazado_1213799" data-name="Trazado 1213799" d="M471.123,430.407l.173-6.769-8.313.7A8.984,8.984,0,0,1,458.437,433a15.7,15.7,0,0,1-3.789,1.379,19.9,19.9,0,0,1,9.769,8.292l2.052-.111A18.806,18.806,0,0,1,471.123,430.407Z" transform="translate(-454.648 -423.638)" fill="#ff8772"/>
                      </g>
                    </g>
                    <g id="Grupo_1225878" data-name="Grupo 1225878" transform="translate(43.721 201.778)">
                      <path id="Trazado_1213800" data-name="Trazado 1213800" d="M445.313,445.1a.3.3,0,0,1-.2-.515c1.807-1.7,4.561-2.85,8.421-3.528a.3.3,0,1,1,.1.586c-3.742.657-6.4,1.761-8.116,3.376A.3.3,0,0,1,445.313,445.1Z" transform="translate(-445.016 -441.049)" fill="#f5f5f3"/>
                    </g>
                  </g>
                  <g id="Grupo_1225880" data-name="Grupo 1225880" transform="translate(100.375 47.642)">
                    <path id="Trazado_1213801" data-name="Trazado 1213801" d="M567.745,238.284l6.417,34.137.191,1.02A5.452,5.452,0,0,1,570.4,279.7l-45.26,11.963a2.252,2.252,0,0,1-1.489-4.236l42.788-18.993-3.76,7.277-12.62-32.361a9.238,9.238,0,0,1,17.213-6.713A9.885,9.885,0,0,1,567.745,238.284Z" transform="translate(-522.312 -230.749)" fill="#ff8772"/>
                  </g>
                  <g id="Grupo_1225884" data-name="Grupo 1225884" transform="translate(88.813 103.389)">
                    <g id="Grupo_1225882" data-name="Grupo 1225882">
                      <g id="Grupo_1225881" data-name="Grupo 1225881">
                        <path id="Trazado_1213802" data-name="Trazado 1213802" d="M509.6,307.829c-.074,1.022,5.053,1.694,5.053,1.694s-8.7,5.221-8.082,6.409a.332.332,0,0,0,.106.115q.52-.023,1.039-.025a33.663,33.663,0,0,0,6.044-3.195s-1.3.97-2.677,2.16a13.86,13.86,0,0,1,3.7-.167c.172-.157.27-.248.27-.248s-.093.092-.25.25a29.222,29.222,0,0,1,5.4,1.059c2.312-2.209,5.635-5.644,5.635-5.644l-5.161-3.147S509.724,306.1,509.6,307.829Z" transform="translate(-506.538 -306.809)" fill="#ff8772"/>
                      </g>
                    </g>
                    <g id="Grupo_1225883" data-name="Grupo 1225883" transform="translate(3.888 4.012)">
                      <path id="Trazado_1213803" data-name="Trazado 1213803" d="M515.331,317.989a1.69,1.69,0,0,0,1.277,1.608,3.581,3.581,0,0,0,2.211-.181,7.337,7.337,0,0,0,3.794-3.093,2.816,2.816,0,0,0,.186-3.122,3.325,3.325,0,0,0-2.627-.917c-2.3-.029-6.708.434-8.048,2.6C510.974,316.753,513.6,320.03,515.331,317.989Z" transform="translate(-511.842 -312.283)" fill="#ff8772"/>
                    </g>
                  </g>
                  <g id="Grupo_1225888" data-name="Grupo 1225888" transform="translate(35.252 22.198)">
                    <g id="Grupo_1225886" data-name="Grupo 1225886" transform="translate(2.061)">
                      <g id="Grupo_1225885" data-name="Grupo 1225885">
                        <path id="Trazado_1213804" data-name="Trazado 1213804" d="M444.065,199.107c-.946-.1-1.725,4.623-1.725,4.623s-4.581-8.205-5.7-7.671a.3.3,0,0,0-.11.095c0,.321,0,.642-.009.962A31.18,31.18,0,0,0,439.3,202.8s-.861-1.236-1.922-2.543a12.805,12.805,0,0,1,.043,3.428c.14.164.222.257.222.257s-.082-.089-.224-.239a26.989,26.989,0,0,1-1.146,4.961c1.979,2.205,5.066,5.383,5.066,5.383l2.941-2.374S445.661,199.275,444.065,199.107Z" transform="translate(-436.273 -196.034)" fill="#ff8772"/>
                      </g>
                    </g>
                    <g id="Grupo_1225887" data-name="Grupo 1225887" transform="translate(0 3.637)">
                      <path id="Trazado_1213805" data-name="Trazado 1213805" d="M435.114,204.161a1.569,1.569,0,0,0-1.53,1.133,3.309,3.309,0,0,0,.1,2.051,6.8,6.8,0,0,0,2.754,3.6,2.62,2.62,0,0,0,2.891.267,3.071,3.071,0,0,0,.93-2.4c.1-2.124-.2-6.218-2.173-7.524C436.392,200.168,433.273,202.5,435.114,204.161Z" transform="translate(-433.461 -200.995)" fill="#ff8772"/>
                    </g>
                  </g>
                </g>
                <g id="Grupo_1225892" data-name="Grupo 1225892" transform="translate(116.448 15.549)">
                  <g id="Grupo_1225890" data-name="Grupo 1225890" transform="translate(0 0)">
                    <path id="Trazado_1213806" data-name="Trazado 1213806" d="M544.243,187.92c0,.256.282.488.747.66a4.6,4.6,0,0,0,1,.238,7.546,7.546,0,0,0,.967.062c.232,0,.458-.009.675-.029.155-.015.306-.033.449-.056.937-.152,1.588-.484,1.588-.874,0-.36-.565-.675-1.4-.839-.143-.03-.295-.051-.452-.068a7.178,7.178,0,0,0-.863-.051,6.856,6.856,0,0,0-1.2.1,4.3,4.3,0,0,0-.922.262C544.466,187.486,544.243,187.694,544.243,187.92Z" transform="translate(-544.243 -186.963)" fill="#fff"/>
                  </g>
                  <g id="Grupo_1225891" data-name="Grupo 1225891" transform="translate(0.505)">
                    <path id="Trazado_1213807" data-name="Trazado 1213807" d="M544.933,187.76a1.39,1.39,0,0,0,.241.821,4.6,4.6,0,0,0,1,.238,7.547,7.547,0,0,0,.967.062c.232,0,.458-.009.675-.029a1.4,1.4,0,0,0,.458-.978,1.382,1.382,0,0,0-.27-.86,7.184,7.184,0,0,0-.863-.051,6.856,6.856,0,0,0-1.2.1,4.3,4.3,0,0,0-.922.262A1.42,1.42,0,0,0,544.933,187.76Z" transform="translate(-544.932 -186.963)" fill="#362f36"/>
                  </g>
                </g>
                <g id="Grupo_1225893" data-name="Grupo 1225893" transform="translate(117.436 13.351)">
                  <path id="Trazado_1213808" data-name="Trazado 1213808" d="M546.206,185.237l2.478.084a.639.639,0,0,0,.658-.615h0a.639.639,0,0,0-.615-.658l-2.478-.084a.639.639,0,0,0-.658.615h0A.639.639,0,0,0,546.206,185.237Z" transform="translate(-545.591 -183.964)" fill="#362f36"/>
                </g>
                <g id="Grupo_1225896" data-name="Grupo 1225896" transform="translate(108.021 15.745)">
                  <g id="Grupo_1225894" data-name="Grupo 1225894" transform="translate(0 0.001)">
                    <path id="Trazado_1213809" data-name="Trazado 1213809" d="M532.745,188.191c0,.208.188.4.509.559a4.271,4.271,0,0,0,1.241.336,7.212,7.212,0,0,0,1.821.015c.092-.009.182-.021.268-.036.94-.152,1.591-.485,1.591-.874,0-.363-.565-.675-1.4-.838-.128-.023-.259-.048-.4-.062a6.853,6.853,0,0,0-.916-.059,7.089,7.089,0,0,0-1.2.1,3.575,3.575,0,0,0-1.065.333C532.911,187.813,532.745,187.995,532.745,188.191Z" transform="translate(-532.745 -187.231)" fill="#fff"/>
                  </g>
                  <g id="Grupo_1225895" data-name="Grupo 1225895" transform="translate(0.371)">
                    <path id="Trazado_1213810" data-name="Trazado 1213810" d="M533.252,188.087a1.437,1.437,0,0,0,.137.663,4.271,4.271,0,0,0,1.241.336,7.215,7.215,0,0,0,1.821.015,1.459,1.459,0,0,0,.059-1.812,6.852,6.852,0,0,0-.916-.059,7.086,7.086,0,0,0-1.2.1,3.574,3.574,0,0,0-1.065.333A1.328,1.328,0,0,0,533.252,188.087Z" transform="translate(-533.251 -187.23)" fill="#362f36"/>
                  </g>
                </g>
                <g id="Grupo_1225897" data-name="Grupo 1225897" transform="translate(108.413 13.549)">
                  <path id="Trazado_1213811" data-name="Trazado 1213811" d="M533.895,185.507l2.478.084a.639.639,0,0,0,.658-.615h0a.639.639,0,0,0-.615-.658l-2.478-.084a.639.639,0,0,0-.658.615h0A.639.639,0,0,0,533.895,185.507Z" transform="translate(-533.28 -184.234)" fill="#362f36"/>
                </g>
                <g id="Grupo_1225898" data-name="Grupo 1225898" transform="translate(113.018 17.402)">
                  <path id="Trazado_1213812" data-name="Trazado 1213812" d="M540.8,194.25a.149.149,0,0,1-.138-.092l-1.091-2.677a.149.149,0,0,1,.2-.191l1.861.886-.09-2.531a.149.149,0,0,1,.143-.154.153.153,0,0,1,.154.143l.1,2.776a.148.148,0,0,1-.067.13.15.15,0,0,1-.146.01l-1.736-.827.946,2.322a.149.149,0,0,1-.081.193A.158.158,0,0,1,540.8,194.25Z" transform="translate(-539.563 -189.491)" fill="#472a1c"/>
                </g>
                <g id="Grupo_1225899" data-name="Grupo 1225899" transform="translate(125.214 16.905)">
                  <path id="Trazado_1213813" data-name="Trazado 1213813" d="M556.352,191.293a.149.149,0,0,1-.092-.266l2.776-2.181a.149.149,0,1,1,.184.234l-2.776,2.181A.145.145,0,0,1,556.352,191.293Z" transform="translate(-556.203 -188.813)" fill="#472a1c"/>
                </g>
                <g id="Grupo_1225900" data-name="Grupo 1225900" transform="translate(124.074 20.029)">
                  <path id="Trazado_1213814" data-name="Trazado 1213814" d="M556.63,197.042h0a1.989,1.989,0,0,0,1.983-1.983h0a1.989,1.989,0,0,0-1.983-1.983h0a1.989,1.989,0,0,0-1.983,1.983h0A1.989,1.989,0,0,0,556.63,197.042Z" transform="translate(-554.647 -193.075)" fill="#eaae4e"/>
                </g>
                <g id="Grupo_1225901" data-name="Grupo 1225901" transform="translate(104.98 19.841)">
                  <path id="Trazado_1213815" data-name="Trazado 1213815" d="M530.579,196.785h0a1.989,1.989,0,0,0,1.983-1.983h0a1.989,1.989,0,0,0-1.983-1.983h0A1.99,1.99,0,0,0,528.6,194.8h0A1.99,1.99,0,0,0,530.579,196.785Z" transform="translate(-528.596 -192.818)" fill="#eaae4e"/>
                </g>
              </g>
              <g id="Grupo_1225903" data-name="Grupo 1225903" transform="translate(39.834 113.333)">
                <path id="Trazado_1213816" data-name="Trazado 1213816" d="M440.027,352.457l-.315-.505c2.333-1.458,4.746-2.965,7.118-4.745q5.35-4.012,10.4-7.727,5.049-3.733,10.42-7.741c.952-.672,1.887-1.329,2.814-1.98,4.088-2.872,7.949-5.586,12.057-8.726l.048-.03a4.647,4.647,0,0,1,1.621-.627l.073.009c3.514.879,7.148,1.787,10.532,2.856l-.179.567c-3.354-1.06-6.963-1.963-10.455-2.836a6.105,6.105,0,0,0-1.3.549c-4.108,3.141-7.968,5.852-12.053,8.723q-1.392.977-2.806,1.975-5.351,4.014-10.417,7.738-5.04,3.725-10.4,7.725C444.795,349.478,442.371,350.992,440.027,352.457Z" transform="translate(-439.712 -320.376)" fill="#f5f5f3"/>
              </g>
              <g id="Grupo_1225904" data-name="Grupo 1225904" transform="translate(114.028 121.316)">
                <path id="Trazado_1213817" data-name="Trazado 1213817" d="M559.863,336.785c-2.461-.612-4.943-1.312-7.343-1.988-3.775-1.064-7.678-2.164-11.579-2.945l.117-.583c3.924.785,7.838,1.888,11.624,2.955,2.4.676,4.873,1.374,7.326,1.983Z" transform="translate(-540.941 -331.268)" fill="#f5f5f3"/>
              </g>
            </g>
            <g id="Grupo_1225906" data-name="Grupo 1225906" transform="translate(80.198 133.656)">
              <path id="Trazado_1213818" data-name="Trazado 1213818" d="M558.4,360.183H503.11a8.351,8.351,0,0,1-8.326-8.326h0a8.351,8.351,0,0,1,8.326-8.326H558.4a8.351,8.351,0,0,1,8.326,8.326h0A8.351,8.351,0,0,1,558.4,360.183Z" transform="translate(-494.784 -343.531)" fill="#ffa9a9"/>
            </g>
            <g id="Grupo_1225907" data-name="Grupo 1225907" transform="translate(36.909 38.679)" opacity="0.54">
              <path id="Trazado_1213819" data-name="Trazado 1213819" d="M496.773,223.652c-4.731-2.02-9.84,1.821-13.2,5.718s-7.06,8.538-12.2,8.6c-5.8.07-9.761-5.7-12.242-10.938s-5.3-11.284-10.9-12.786A10.173,10.173,0,0,0,437.4,218.6a11.606,11.606,0,0,0-.1,11.86c2.485,4.265,7.31,6.694,10.049,10.8,2.12,3.178,2.8,7.063,3.974,10.7,1.538,4.779,4.1,9.394,8.125,12.393s9.695,4.093,14.187,1.851c3.851-1.922,6.228-5.821,9.193-8.94s7.578-5.639,11.448-3.757c-.859,0,.537-.649.5-1.508q-.356-8.815-.35-17.64C494.432,230.65,494.836,226.813,496.773,223.652Z" transform="translate(-435.721 -213.948)" fill="#ffc585"/>
            </g>
            <g id="Grupo_1225908" data-name="Grupo 1225908" transform="translate(104.896 46.798)" opacity="0.54">
              <path id="Trazado_1213820" data-name="Trazado 1213820" d="M545.964,235.1c-.857,5.753,2.367,11.2,4.792,16.49s3.964,12.012.3,16.529c-3.482,4.292-9.882,4.448-14.827,6.915a14.048,14.048,0,0,0-7.309,8.369,10.744,10.744,0,0,0,2.565,10.57c2.34,2.254,5.652,3.134,8.837,3.772,3.539.708,7.255,1.212,10.715.183,6.178-1.837,10.263-8.142,16.469-9.879,2.916-.816,6.13-.559,8.855-1.881,5.368-2.606,6.323-10.07,4.545-15.765s-5.465-10.691-6.918-16.478c-1.042-4.149-.886-8.522-1.862-12.686-1.385-5.911-6.017-13.367-12.012-15.627C553.8,223.227,546.947,228.489,545.964,235.1Z" transform="translate(-528.481 -225.025)" fill="#ffc585"/>
            </g>
            <g id="Grupo_1225909" data-name="Grupo 1225909" transform="translate(104.723 37.413)">
              <path id="Trazado_1213821" data-name="Trazado 1213821" d="M545.906,212.544c-3.623,1.231-9.549,1.871-12.683-.324a12.907,12.907,0,0,1-4.56,5.618c-.2.137-.426.311-.419.553a.719.719,0,0,0,.257.443,22.811,22.811,0,0,0,3.521,3.155,11.381,11.381,0,0,0,16.756-4.836C547.442,215.753,547.244,213.945,545.906,212.544Z" transform="translate(-528.245 -212.22)" fill="#ffc585"/>
            </g>
            <g id="Grupo_1225910" data-name="Grupo 1225910" transform="translate(121.561 28.99)">
              <path id="Trazado_1213822" data-name="Trazado 1213822" d="M554.938,216.743h-.086a3.442,3.442,0,0,1-3.355-1.966c-1.218-2.761,1.9-6.674,2.88-7.807h0a18.623,18.623,0,0,1,10.056-5.957,8.777,8.777,0,0,1,4.565.045,5.113,5.113,0,0,1,3.63,4.194c.141,1.335-.249,3.354-2.915,5.394a19.591,19.591,0,0,1-4.363,2.523,35.076,35.076,0,0,1-3.737,1.247c-.449.13-.9.262-1.343.4a13.859,13.859,0,0,0-1.44.641A9.811,9.811,0,0,1,554.938,216.743Zm.271-3.377h0Zm2.186-3.778a13.3,13.3,0,0,0-1.962,3.019c.5-.192,1.216-.536,1.657-.749a15.42,15.42,0,0,1,2-.859c.468-.145.937-.282,1.406-.419a31.475,31.475,0,0,0,3.317-1.1,15.567,15.567,0,0,0,3.473-2.009c1.064-.815,1.406-1.464,1.37-1.8a1.258,1.258,0,0,0-.89-.814,4.856,4.856,0,0,0-2.484.059,14.607,14.607,0,0,0-7.883,4.671Z" transform="translate(-551.219 -200.727)" fill="#ffc585"/>
            </g>
            <g id="Grupo_1225911" data-name="Grupo 1225911" transform="translate(120.836 36.013)">
              <path id="Trazado_1213823" data-name="Trazado 1213823" d="M571.27,222.441c-.182,0-.366-.005-.55-.016a19.556,19.556,0,0,1-4.06-.793c-.47-.128-.914-.248-1.358-.354a21.086,21.086,0,0,0-12.353.833,2,2,0,0,1-1.439-3.728,24.8,24.8,0,0,1,5.688-1.442,2,2,0,0,1,.386-3.361,33.745,33.745,0,0,1,11.665-3.2c3.549-.314,6.039.427,7.616,2.265a5.858,5.858,0,0,1,.226,7.21A7.171,7.171,0,0,1,571.27,222.441ZM560.5,216.725a24.786,24.786,0,0,1,5.727.665c.506.12,1,.255,1.481.386a16.314,16.314,0,0,0,3.242.66,3.534,3.534,0,0,0,2.95-.989,1.886,1.886,0,0,0-.069-2.2c-.667-.777-2.09-1.074-4.232-.886a29.756,29.756,0,0,0-9.289,2.364Z" transform="translate(-550.229 -210.31)" fill="#ffc585"/>
            </g>
            <g id="Grupo_1225912" data-name="Grupo 1225912" transform="translate(115.861 38.007)">
              <path id="Trazado_1213824" data-name="Trazado 1213824" d="M549.122,213.03a4.541,4.541,0,0,0,.976,6.95,16.988,16.988,0,0,0-6.445,16.048,13.907,13.907,0,0,0,9.875-14.015,13.924,13.924,0,0,0,8.18,7.717c2.235.777,4.723,1,6.65,2.375a18.656,18.656,0,0,0-11.425-12.034" transform="translate(-543.441 -213.03)" fill="#ffc585"/>
            </g>
            <g id="Grupo_1225913" data-name="Grupo 1225913" transform="translate(115.529 37.673)">
              <path id="Trazado_1213825" data-name="Trazado 1213825" d="M543.532,236.239a.329.329,0,0,1-.18-.053.332.332,0,0,1-.149-.226,17.368,17.368,0,0,1,6.19-16.072,4.726,4.726,0,0,1-1.876-3.229,4.619,4.619,0,0,1,1.254-3.992.333.333,0,1,1,.462.481,4.209,4.209,0,0,0,.9,6.415.332.332,0,0,1,.044.561A16.681,16.681,0,0,0,543.8,235.48a13.519,13.519,0,0,0,9.272-13.564.333.333,0,0,1,.64-.152,13.594,13.594,0,0,0,7.982,7.53c.709.246,1.463.441,2.191.63a16.518,16.518,0,0,1,3.748,1.3A18.354,18.354,0,0,0,556.7,220.263a.333.333,0,1,1,.223-.627,19,19,0,0,1,11.632,12.253.333.333,0,0,1-.512.367,12.665,12.665,0,0,0-4.322-1.687c-.742-.191-1.508-.39-2.243-.645a14.3,14.3,0,0,1-7.716-6.53,14.244,14.244,0,0,1-10.142,12.834A.312.312,0,0,1,543.532,236.239Z" transform="translate(-542.988 -212.575)" fill="#472a1c"/>
            </g>
            <g id="Grupo_1225914" data-name="Grupo 1225914" transform="translate(113.586 26.414)">
              <path id="Trazado_1213826" data-name="Trazado 1213826" d="M540.338,197.27l4.182-.057a1.993,1.993,0,0,1-1.655,1.537A2.107,2.107,0,0,1,540.338,197.27Z" transform="translate(-540.338 -197.213)" fill="#383138"/>
            </g>
            <g id="Grupo_1225915" data-name="Grupo 1225915" transform="translate(101.901 16.287)">
              <path id="Trazado_1213827" data-name="Trazado 1213827" d="M532.48,191a8.67,8.67,0,0,1-4.05-1.157,7.934,7.934,0,0,1-4.028-5.414.333.333,0,0,1,.221-.384,13.527,13.527,0,0,1,10.9,1.17h0a2.79,2.79,0,0,1,1.377,2.1,2.725,2.725,0,0,1-.814,2.312A4.847,4.847,0,0,1,534,190.8,5.727,5.727,0,0,1,532.48,191Zm-7.359-6.414a7.273,7.273,0,0,0,3.63,4.673,7.016,7.016,0,0,0,5.073.9,4.228,4.228,0,0,0,1.8-1.014,2.066,2.066,0,0,0,.616-1.752,2.129,2.129,0,0,0-1.051-1.6h0A12.874,12.874,0,0,0,525.12,184.586Z" transform="translate(-524.395 -183.396)" fill="#ffefe9"/>
            </g>
            <g id="Grupo_1225916" data-name="Grupo 1225916" transform="translate(115.332 16.179)">
              <path id="Trazado_1213828" data-name="Trazado 1213828" d="M547.159,190.853a5.755,5.755,0,0,1-1.519-.2,4.844,4.844,0,0,1-2.085-1.176,2.728,2.728,0,0,1-.815-2.312,2.79,2.79,0,0,1,1.377-2.1h0a13.527,13.527,0,0,1,10.9-1.17.333.333,0,0,1,.221.384,7.933,7.933,0,0,1-4.028,5.414A8.678,8.678,0,0,1,547.159,190.853Zm-2.706-5.208a2.128,2.128,0,0,0-1.05,1.6,2.067,2.067,0,0,0,.616,1.752,4.244,4.244,0,0,0,1.8,1.014,7.018,7.018,0,0,0,5.073-.9,7.277,7.277,0,0,0,3.629-4.673,12.869,12.869,0,0,0-10.066,1.2Z" transform="translate(-542.72 -183.249)" fill="#ffefe9"/>
            </g>
            <g id="Grupo_1225917" data-name="Grupo 1225917" transform="translate(101.901 16.92)">
              <path id="Trazado_1213829" data-name="Trazado 1213829" d="M529.752,187.093a.337.337,0,0,1-.132-.027L524.6,184.9a.333.333,0,1,1,.264-.611l5.024,2.167a.332.332,0,0,1-.132.638Z" transform="translate(-524.394 -184.26)" fill="#ffefe9"/>
            </g>
            <g id="Grupo_1225918" data-name="Grupo 1225918" transform="translate(112.527 18.063)">
              <path id="Trazado_1213830" data-name="Trazado 1213830" d="M542.866,186.485h-3.641a.333.333,0,1,1,0-.666h3.641a.333.333,0,0,1,0,.666Z" transform="translate(-538.893 -185.819)" fill="#ffefe9"/>
            </g>
            <g id="Grupo_1225919" data-name="Grupo 1225919" transform="translate(105.212 2.958)">
              <path id="Trazado_1213831" data-name="Trazado 1213831" d="M536.139,173.4a8.752,8.752,0,0,1-6.989,3.773A10.4,10.4,0,0,1,531.1,168.6c1.119-1.42,4.422-4.5,6.318-2.982C539.487,167.271,537.224,171.881,536.139,173.4Z" transform="translate(-528.912 -165.211)" fill="#383138"/>
            </g>
            <g id="Grupo_1225920" data-name="Grupo 1225920" transform="translate(113.871 2.07)">
              <path id="Trazado_1213832" data-name="Trazado 1213832" d="M543.566,173.216a12.433,12.433,0,0,0,9.353,4.247,10.311,10.311,0,0,0-2.613-9.648c-1.5-1.6-5.918-5.06-8.454-3.355C539.085,166.318,542.113,171.506,543.566,173.216Z" transform="translate(-540.727 -163.999)" fill="#383138"/>
            </g>
            <g id="Grupo_1225921" data-name="Grupo 1225921" transform="translate(126.825 90.573)">
              <path id="Trazado_1213833" data-name="Trazado 1213833" d="M560.392,307c-8.56,18.313,12.316,28.369,27.8,27.138,3.6-.286,7.721-.1,9.078-3.441,0,0,.7-31.156.43-41.5-.222-8.66-12.7-2.082-13.757-1.674C573.75,291.467,565.2,296.719,560.392,307Z" transform="translate(-558.401 -284.75)" fill="#ffa9a9"/>
            </g>
            <g id="Grupo_1225922" data-name="Grupo 1225922" transform="translate(119.676 149.245)">
              <path id="Trazado_1213834" data-name="Trazado 1213834" d="M549.646,425.745a1,1,0,0,1-1-1V365.8a1,1,0,1,1,2,0v58.947A1,1,0,0,1,549.646,425.745Z" transform="translate(-548.647 -364.8)" fill="#383138"/>
            </g>
            <g id="Grupo_1225923" data-name="Grupo 1225923" transform="translate(100.793 197.8)">
              <path id="Trazado_1213835" data-name="Trazado 1213835" d="M577.735,445.337a.9.9,0,0,1-.9-.9c0-6.39-4.145-11.588-9.241-11.588h-43.81a.9.9,0,1,1,0-1.8h43.81c6.089,0,11.042,6.006,11.042,13.389A.9.9,0,0,1,577.735,445.337Z" transform="translate(-522.883 -431.048)" fill="#383138"/>
            </g>
            <g id="Grupo_1225924" data-name="Grupo 1225924" transform="translate(79.243 197.731)">
              <path id="Trazado_1213836" data-name="Trazado 1213836" d="M494.45,445.379a.969.969,0,0,1-.969-.969c0-7.42,5.7-13.457,12.706-13.457h50.707a.969.969,0,0,1,0,1.938H506.188c-5.938,0-10.769,5.168-10.769,11.52A.968.968,0,0,1,494.45,445.379Z" transform="translate(-493.481 -430.953)" fill="#383138"/>
            </g>
            <g id="Grupo_1225925" data-name="Grupo 1225925" transform="translate(75.217 207.192)">
              <circle id="Elipse_12957" data-name="Elipse 12957" cx="5.495" cy="5.495" r="5.495" fill="#383138"/>
            </g>
            <g id="Grupo_1225926" data-name="Grupo 1225926" transform="translate(149.151 206.693)">
              <circle id="Elipse_12958" data-name="Elipse 12958" cx="5.495" cy="5.495" r="5.495" fill="#383138"/>
            </g>
            <g id="Grupo_1225927" data-name="Grupo 1225927" transform="translate(115.181 207.192)">
              <circle id="Elipse_12959" data-name="Elipse 12959" cx="5.495" cy="5.495" r="5.495" fill="#383138"/>
            </g>
            <g id="Grupo_1225928" data-name="Grupo 1225928" transform="translate(133.346 91.661)">
              <path id="Trazado_1213837" data-name="Trazado 1213837" d="M571.7,327.861a.333.333,0,0,1-.252-.115c-4.332-5-5.383-12.852-2.614-19.547,2.455-5.938,7.746-11.03,14.517-13.968.9-.39,1.845-.762,2.761-1.121,3.918-1.537,7.969-3.126,9.851-6.7a.333.333,0,0,1,.589.311c-2,3.791-6.167,5.426-10.2,7.007-.911.358-1.853.727-2.739,1.112-6.614,2.871-11.778,7.832-14.167,13.612-2.674,6.468-1.669,14.046,2.5,18.856a.333.333,0,0,1-.034.47A.321.321,0,0,1,571.7,327.861Z" transform="translate(-567.297 -286.234)" fill="#472a1c"/>
            </g>
          </g>
          <g id="Grupo_1225930" data-name="Grupo 1225930" transform="translate(3.819 146.237)">
            <path id="Trazado_1213838" data-name="Trazado 1213838" d="M397.791,362.6a22.66,22.66,0,0,0-7.217-1.31v-.6a22.824,22.824,0,0,1,7.438,1.354Z" transform="translate(-390.574 -360.696)" fill="#f5f5f3"/>
          </g>
        </g>
      </g>
    </g>
  </g>
</svg>
