<svg xmlns="http://www.w3.org/2000/svg" xmlns:xlink="http://www.w3.org/1999/xlink" width="106.16" height="106.16" viewBox="0 0 106.16 106.16">
  <defs>
    <filter id="Trazado_982547" x="0" y="0" width="106.16" height="106.16" filterUnits="userSpaceOnUse">
      <feOffset dy="3" input="SourceAlpha"/>
      <feGaussianBlur stdDeviation="3" result="blur"/>
      <feFlood flood-opacity="0.161"/>
      <feComposite operator="in" in2="blur"/>
      <feComposite in="SourceGraphic"/>
    </filter>
  </defs>
  <g id="Grupo_1225950" data-name="Grupo 1225950" transform="translate(-820.5 -3461.464)">
    <g id="Grupo_1224852" data-name="Grupo 1224852" transform="translate(629.5 1738.464)">
      <g id="Grupo_1206130" data-name="Grupo 1206130" transform="translate(0 -59)">
        <g id="Grupo_1203672" data-name="Grupo 1203672" transform="translate(0.08 -4797.878)">
          <g id="Grupo_1203344" data-name="Grupo 1203344" transform="translate(-81.08 5174.875)">
            <g id="Grupo_1177900" data-name="Grupo 1177900" transform="translate(281 1411.003)">
              <g id="Grupo_1172010" data-name="Grupo 1172010" transform="translate(0)">
                <g id="Grupo_1171046" data-name="Grupo 1171046">
                  <g id="Grupo_1148525" data-name="Grupo 1148525">
                    <g transform="matrix(1, 0, 0, 1, -9, -6)" filter="url(#Trazado_982547)">
                      <g id="Trazado_982547-2" data-name="Trazado 982547" transform="translate(9 6)" fill="#e5ebfb">
                        <path d="M 44.0802001953125 86.660400390625 C 38.33124923706055 86.660400390625 32.75506210327148 85.53479766845703 27.50652503967285 83.31484985351562 C 22.43628692626953 81.17032623291016 17.88242530822754 78.09992218017578 13.97144985198975 74.18894958496094 C 10.06047534942627 70.27797698974609 6.99007511138916 65.72411346435547 4.845550060272217 60.65387344360352 C 2.625600099563599 55.40533828735352 1.500000238418579 49.82915115356445 1.500000238418579 44.0802001953125 C 1.500000238418579 38.33124923706055 2.625600099563599 32.75506210327148 4.845550060272217 27.50652503967285 C 6.99007511138916 22.43628692626953 10.06047534942627 17.88242530822754 13.97144985198975 13.97144985198975 C 17.88242530822754 10.06047534942627 22.43628692626953 6.99007511138916 27.50652503967285 4.845550060272217 C 32.75506210327148 2.625600099563599 38.33124923706055 1.500000238418579 44.0802001953125 1.500000238418579 C 49.82915115356445 1.500000238418579 55.40533828735352 2.625600099563599 60.65387344360352 4.845550060272217 C 65.72411346435547 6.99007511138916 70.27797698974609 10.06047534942627 74.18894958496094 13.97144985198975 C 78.09992218017578 17.88242530822754 81.17032623291016 22.43628692626953 83.31484985351562 27.50652503967285 C 85.53479766845703 32.75506210327148 86.660400390625 38.33124923706055 86.660400390625 44.0802001953125 C 86.660400390625 49.82915115356445 85.53479766845703 55.40533828735352 83.31484985351562 60.65387344360352 C 81.17032623291016 65.72411346435547 78.09992218017578 70.27797698974609 74.18894958496094 74.18894958496094 C 70.27797698974609 78.09992218017578 65.72411346435547 81.17032623291016 60.65387344360352 83.31484985351562 C 55.40533828735352 85.53479766845703 49.82915115356445 86.660400390625 44.0802001953125 86.660400390625 Z" stroke="none"/>
                        <path d="M 44.0802001953125 3 C 38.53308486938477 3 33.15349960327148 4.085746765136719 28.09085845947266 6.227058410644531 C 23.19941711425781 8.29595947265625 18.80581665039062 11.25841522216797 15.03211212158203 15.03211212158203 C 11.25841522216797 18.80581665039062 8.29595947265625 23.19941711425781 6.227058410644531 28.09085845947266 C 4.085746765136719 33.15349960327148 3 38.53308486938477 3 44.0802001953125 C 3 49.62731552124023 4.085746765136719 55.00691604614258 6.227058410644531 60.06954193115234 C 8.29595947265625 64.96098327636719 11.25841522216797 69.35458374023438 15.03211212158203 73.12828826904297 C 18.80581665039062 76.90198516845703 23.19941711425781 79.86444091796875 28.09085845947266 81.93334197998047 C 33.15349960327148 84.07466125488281 38.53308486938477 85.160400390625 44.0802001953125 85.160400390625 C 49.62731552124023 85.160400390625 55.00691604614258 84.07466125488281 60.06954193115234 81.93334197998047 C 64.96099853515625 79.86444091796875 69.35458374023438 76.90198516845703 73.12828826904297 73.12828826904297 C 76.90198516845703 69.35458374023438 79.86444091796875 64.96099853515625 81.93334197998047 60.06954193115234 C 84.07466125488281 55.00691604614258 85.160400390625 49.62731552124023 85.160400390625 44.0802001953125 C 85.160400390625 38.53308486938477 84.07466125488281 33.15349960327148 81.93334197998047 28.09085845947266 C 79.86444091796875 23.19941711425781 76.90198516845703 18.80581665039062 73.12828826904297 15.03211212158203 C 69.35458374023438 11.25841522216797 64.96098327636719 8.29595947265625 60.06954193115234 6.227058410644531 C 55.00691604614258 4.085746765136719 49.62731552124023 3 44.0802001953125 3 M 44.0802001953125 0 C 68.42502593994141 0 88.160400390625 19.73538970947266 88.160400390625 44.0802001953125 C 88.160400390625 68.42502593994141 68.42502593994141 88.160400390625 44.0802001953125 88.160400390625 C 19.73538970947266 88.160400390625 0 68.42502593994141 0 44.0802001953125 C 0 19.73538970947266 19.73538970947266 0 44.0802001953125 0 Z" stroke="none" fill="#0b47db"/>
                      </g>
                    </g>
                  </g>
                </g>
              </g>
            </g>
          </g>
        </g>
      </g>
    </g>
    <g id="signo-de-interrogacion" transform="translate(841.325 3426.647)">
      <g id="Grupo_1225948" data-name="Grupo 1225948" transform="translate(0.944 61.304)">
        <g id="Grupo_1225937" data-name="Grupo 1225937" transform="translate(0 9.862)">
          <g id="Grupo_1225934" data-name="Grupo 1225934">
            <g id="Grupo_1225933" data-name="Grupo 1225933">
              <path id="Trazado_1213839" data-name="Trazado 1213839" d="M26.65,174.236a3.355,3.355,0,0,1-4.417-1.734l-.569-1.3a7.82,7.82,0,0,1,1.81-8.831,5.509,5.509,0,1,0-9.067-2.557,5.6,5.6,0,0,0,.26.729,3.355,3.355,0,1,1-6.151,2.683,12.219,12.219,0,1,1,19.537,4.05,1.1,1.1,0,0,0-.239,1.244l.569,1.3A3.355,3.355,0,0,1,26.65,174.236Z" transform="translate(-7.498 -146.119)" fill="#ffd15b"/>
            </g>
            <path id="Trazado_1213840" data-name="Trazado 1213840" d="M158.5,397.091a3.355,3.355,0,0,1-4.417-1.734l-.011-.025a3.355,3.355,0,1,1,6.151-2.683l.011.025A3.355,3.355,0,0,1,158.5,397.091Z" transform="translate(-135.361 -359.824)" fill="#ffd15b"/>
          </g>
          <g id="Grupo_1225936" data-name="Grupo 1225936" transform="translate(0.001 0.504)">
            <g id="Grupo_1225935" data-name="Grupo 1225935">
              <path id="Trazado_1213841" data-name="Trazado 1213841" d="M10.668,163.923a12.244,12.244,0,0,0,.572,1.6,3.352,3.352,0,0,0,2.919,2.011,3.356,3.356,0,0,1-5.638-.825,12.221,12.221,0,0,1,7.074-16.386q.322-.116.648-.211a12.274,12.274,0,0,0-5.575,13.807Z" transform="translate(-7.503 -150.116)" fill="#ffc344"/>
              <path id="Trazado_1213842" data-name="Trazado 1213842" d="M105.728,199.472a7.822,7.822,0,0,0-1.81,8.832l.569,1.3a3.354,3.354,0,0,0,2.921,2.01,3.356,3.356,0,0,1-5.638-.825l-.569-1.3a7.82,7.82,0,0,1,1.81-8.832,5.51,5.51,0,0,0-4.51-9.486,5.506,5.506,0,0,1,7.228,8.3Z" transform="translate(-87.034 -184.916)" fill="#ffc344"/>
            </g>
            <path id="Trazado_1213843" data-name="Trazado 1213843" d="M159.728,396.177a3.356,3.356,0,0,1-5.638-.825l-.011-.026a3.356,3.356,0,0,1,3.232-4.693,3.358,3.358,0,0,0-.514,3.508l.011.026A3.354,3.354,0,0,0,159.728,396.177Z" transform="translate(-135.364 -360.324)" fill="#ffc344"/>
          </g>
        </g>
        <g id="Grupo_1225942" data-name="Grupo 1225942" transform="translate(38.487 8.685)">
          <g id="Grupo_1225939" data-name="Grupo 1225939" transform="translate(0)">
            <g id="Grupo_1225938" data-name="Grupo 1225938">
              <path id="Trazado_1213844" data-name="Trazado 1213844" d="M320.365,165.75a3.355,3.355,0,0,1-2.372-4.109l.368-1.375a7.82,7.82,0,0,1,6.921-5.777,5.509,5.509,0,1,0-5.5-7.651,5.612,5.612,0,0,0-.251.732,3.355,3.355,0,0,1-6.482-1.737A12.219,12.219,0,1,1,325.8,161.179a1.1,1.1,0,0,0-.962.824l-.368,1.375A3.355,3.355,0,0,1,320.365,165.75Z" transform="translate(-312.937 -136.784)" fill="#6fd7a3"/>
            </g>
            <path id="Trazado_1213845" data-name="Trazado 1213845" d="M334.122,397.247a3.355,3.355,0,0,1-2.372-4.109l.007-.027a3.355,3.355,0,0,1,6.482,1.737l-.007.027A3.355,3.355,0,0,1,334.122,397.247Z" transform="translate(-329.278 -358.638)" fill="#6fd7a3"/>
          </g>
          <g id="Grupo_1225941" data-name="Grupo 1225941" transform="translate(0 0)">
            <g id="Grupo_1225940" data-name="Grupo 1225940">
              <path id="Trazado_1213846" data-name="Trazado 1213846" d="M316.469,144.991a12.225,12.225,0,0,0-.553,1.611,3.353,3.353,0,0,0,1.029,3.392,3.356,3.356,0,0,1-3.894-4.16,12.222,12.222,0,0,1,15.747-8.4q.324.11.639.239A12.274,12.274,0,0,0,316.469,144.991Z" transform="translate(-312.935 -136.786)" fill="#3ec3a4"/>
              <path id="Trazado_1213847" data-name="Trazado 1213847" d="M362.412,207.108a7.822,7.822,0,0,0-6.922,5.778l-.368,1.374a3.354,3.354,0,0,0,1.031,3.392,3.356,3.356,0,0,1-3.894-4.16l.368-1.374a7.82,7.82,0,0,1,6.922-5.778,5.51,5.51,0,0,0,2.387-10.228,5.494,5.494,0,0,1,5.464,6.52A5.536,5.536,0,0,1,362.412,207.108Z" transform="translate(-347.203 -188.637)" fill="#3ec3a4"/>
            </g>
            <path id="Trazado_1213848" data-name="Trazado 1213848" d="M335.648,397.293a3.356,3.356,0,0,1-3.894-4.16l.007-.027a3.356,3.356,0,0,1,5.452-1.655,3.358,3.358,0,0,0-2.589,2.422l-.007.027A3.354,3.354,0,0,0,335.648,397.293Z" transform="translate(-329.282 -358.634)" fill="#3ec3a4"/>
          </g>
        </g>
        <g id="Grupo_1225947" data-name="Grupo 1225947" transform="translate(19.099 0)">
          <g id="Grupo_1225944" data-name="Grupo 1225944" transform="translate(0 0)">
            <g id="Grupo_1225943" data-name="Grupo 1225943">
              <path id="Trazado_1213849" data-name="Trazado 1213849" d="M172.787,101.05a3.767,3.767,0,0,1-3.767-3.767v-1.6a8.78,8.78,0,0,1,5.826-8.276,6.185,6.185,0,1,0-8.184-6.7,6.305,6.305,0,0,0-.06.867,3.767,3.767,0,0,1-7.534,0,13.718,13.718,0,1,1,18.289,12.937,1.234,1.234,0,0,0-.8,1.173v1.6A3.767,3.767,0,0,1,172.787,101.05Z" transform="translate(-159.069 -67.858)" fill="#0573ce"/>
            </g>
            <path id="Trazado_1213850" data-name="Trazado 1213850" d="M241.81,367.758a3.767,3.767,0,0,1-3.767-3.767v-.031a3.767,3.767,0,1,1,7.534,0v.031A3.767,3.767,0,0,1,241.81,367.758Z" transform="translate(-228.092 -323.357)" fill="#0573ce"/>
          </g>
          <g id="Grupo_1225946" data-name="Grupo 1225946" transform="translate(0)">
            <g id="Grupo_1225945" data-name="Grupo 1225945">
              <path id="Trazado_1213851" data-name="Trazado 1213851" d="M162.533,79.666a13.732,13.732,0,0,0-.132,1.908,3.764,3.764,0,0,0,2.1,3.379,3.768,3.768,0,0,1-5.432-3.379,13.721,13.721,0,0,1,14.635-13.689q.384.025.762.073A13.781,13.781,0,0,0,162.533,79.666Z" transform="translate(-159.071 -67.856)" fill="#0067c5"/>
              <path id="Trazado_1213852" data-name="Trazado 1213852" d="M247.206,139.67a8.782,8.782,0,0,0-5.827,8.277v1.6a3.766,3.766,0,0,0,2.1,3.379,3.768,3.768,0,0,1-5.432-3.379v-1.6a8.78,8.78,0,0,1,5.827-8.277,6.186,6.186,0,0,0-.384-11.786,6.168,6.168,0,0,1,7.82,5.483A6.216,6.216,0,0,1,247.206,139.67Z" transform="translate(-228.098 -120.119)" fill="#0067c5"/>
            </g>
            <path id="Trazado_1213853" data-name="Trazado 1213853" d="M243.481,367.365a3.768,3.768,0,0,1-5.432-3.379v-.032a3.768,3.768,0,0,1,5.432-3.379,3.77,3.77,0,0,0-2.1,3.379v.032A3.766,3.766,0,0,0,243.481,367.365Z" transform="translate(-228.097 -323.352)" fill="#0067c5"/>
          </g>
        </g>
      </g>
      <g id="Grupo_1225949" data-name="Grupo 1225949" transform="translate(0 60.36)">
        <path id="Trazado_1213854" data-name="Trazado 1213854" d="M154.527,385.705a4.3,4.3,0,0,0-7.884,3.437l.011.026a4.3,4.3,0,0,0,7.884-3.437Zm-1.687,2.625a2.41,2.41,0,0,1-4.452.084l-.011-.026a2.41,2.41,0,0,1,4.418-1.928l.011.026A2.394,2.394,0,0,1,152.84,388.331Z" transform="translate(-127.85 -342.452)"/>
        <path id="Trazado_1213855" data-name="Trazado 1213855" d="M61.972,74.444a.945.945,0,1,0-1.528,1.113,11.264,11.264,0,0,1-8.221,17.885,2.048,2.048,0,0,0-1.8,1.522l-.368,1.374A2.41,2.41,0,1,1,45.4,95.091l.368-1.376a6.874,6.874,0,0,1,6.081-5.079,6.45,6.45,0,1,0-3.5-12.131,14.643,14.643,0,0,0,.041-2.57,14.493,14.493,0,0,0-.4-2.474,11.282,11.282,0,0,1,7,.069,11.133,11.133,0,0,1,2.517,1.226.945.945,0,1,0,1.035-1.581A13.017,13.017,0,0,0,55.6,69.741a13.173,13.173,0,0,0-8.188-.078,14.663,14.663,0,0,0-27.96,2.167A13.157,13.157,0,0,0,1.1,88.646,4.3,4.3,0,0,0,9.04,88.5a4.271,4.271,0,0,0-.061-3.29,4.738,4.738,0,0,1-.216-.605,4.564,4.564,0,1,1,7.511,2.119,8.764,8.764,0,0,0-2.029,9.9l.569,1.3A4.3,4.3,0,1,0,22.7,94.489l-.569-1.306a.163.163,0,0,1,.017-.176,13.115,13.115,0,0,0,1.107-1.171A.945.945,0,1,0,21.8,90.626a11.164,11.164,0,0,1-.945,1,2.044,2.044,0,0,0-.46,2.312l.569,1.306a2.41,2.41,0,1,1-4.418,1.926l-.569-1.3A6.871,6.871,0,0,1,17.565,88.1a6.454,6.454,0,1,0-10.621-2.99,6.662,6.662,0,0,0,.3.85A2.41,2.41,0,0,1,2.829,87.89,11.266,11.266,0,0,1,19.148,73.84c-.032.394-.049.789-.049,1.183a4.717,4.717,0,0,0,4.712,4.712h.013a11.323,11.323,0,0,1-.022,7.348.945.945,0,1,0,1.787.617,13.214,13.214,0,0,0,.1-8.355,4.718,4.718,0,0,0,2.837-4.322,5.369,5.369,0,0,1,.051-.737,5.24,5.24,0,1,1,6.933,5.679,9.726,9.726,0,0,0-6.456,9.167v1.6a4.712,4.712,0,1,0,9.424,0v-1.6a.293.293,0,0,1,.174-.282,14.7,14.7,0,0,0,9.1-9.447,4.617,4.617,0,0,1,5.086-1.518,4.564,4.564,0,0,1-1.13,8.867,8.767,8.767,0,0,0-7.759,6.474L43.574,94.6a4.3,4.3,0,0,0,3.041,5.267,4.323,4.323,0,0,0,1.121.149,4.305,4.305,0,0,0,4.146-3.19l.367-1.373a.163.163,0,0,1,.123-.128,13.153,13.153,0,0,0,9.6-20.882ZM38.017,87.068a2.18,2.18,0,0,0-1.434,2.064v1.6a2.822,2.822,0,1,1-5.644,0v-1.6a7.833,7.833,0,0,1,5.2-7.385,7.131,7.131,0,0,0-1.888-13.837q-.237-.016-.472-.016A7.16,7.16,0,0,0,26.7,74.025a7.236,7.236,0,0,0-.069,1,2.822,2.822,0,0,1-5.644,0A12.773,12.773,0,1,1,38.017,87.068Z" transform="translate(0 -60.36)"/>
        <path id="Trazado_1213856" data-name="Trazado 1213856" d="M329.558,383.263a4.3,4.3,0,0,0-5.266,3.038l-.008.029a4.3,4.3,0,1,0,8.308,2.224l.007-.025a4.3,4.3,0,0,0-3.041-5.267Zm1.215,4.779-.007.025a2.41,2.41,0,0,1-4.657-1.245l.008-.029a2.41,2.41,0,1,1,4.656,1.249Z" transform="translate(-283.294 -342.446)"/>
        <path id="Trazado_1213857" data-name="Trazado 1213857" d="M235.256,352.694a4.717,4.717,0,0,0-4.712,4.712v.031a4.712,4.712,0,1,0,9.424,0v-.031A4.717,4.717,0,0,0,235.256,352.694Zm2.822,4.743a2.822,2.822,0,1,1-5.644,0v-.031a2.822,2.822,0,1,1,5.644,0Z" transform="translate(-201.494 -315.858)"/>
      </g>
    </g>
  </g>
</svg>
