<svg xmlns="http://www.w3.org/2000/svg" xmlns:xlink="http://www.w3.org/1999/xlink" width="113" height="113" viewBox="0 0 113 113">
  <defs>
    <filter id="Trazado_982547" x="0" y="0" width="113" height="113" filterUnits="userSpaceOnUse">
      <feOffset dy="3" input="SourceAlpha"/>
      <feGaussianBlur stdDeviation="3" result="blur"/>
      <feFlood flood-opacity="0.161"/>
      <feComposite operator="in" in2="blur"/>
      <feComposite in="SourceGraphic"/>
    </filter>
  </defs>
  <g id="Grupo_1226094" data-name="Grupo 1226094" transform="translate(-271.425 -3584.981)">
    <g id="Grupo_1225350" data-name="Grupo 1225350" transform="translate(-0.575 -393.641)">
      <g id="Grupo_1208121" data-name="Grupo 1208121" transform="translate(0 -1922.377)">
        <g id="Grupo_1202432" data-name="Grupo 1202432" transform="translate(0 1255.486)">
          <g id="Grupo_1202055" data-name="Grupo 1202055" transform="translate(0 3240.511)">
            <g id="Grupo_1177900" data-name="Grupo 1177900" transform="translate(281 1411.003)">
              <g id="Grupo_1172010" data-name="Grupo 1172010" transform="translate(0)">
                <g id="Grupo_1171046" data-name="Grupo 1171046">
                  <g id="Grupo_1148525" data-name="Grupo 1148525">
                    <g transform="matrix(1, 0, 0, 1, -9, -6)" filter="url(#Trazado_982547)">
                      <g id="Trazado_982547-2" data-name="Trazado 982547" transform="translate(9 6)" fill="#e5fdfa">
                        <path d="M 47.5 93.5 C 41.28937149047852 93.5 35.26533508300781 92.28397369384766 29.59518623352051 89.88570404052734 C 24.11771965026855 87.56893157958984 19.19813346862793 84.25196075439453 14.97309303283691 80.02691650390625 C 10.74804019927979 75.80186462402344 7.431066513061523 70.88229370117188 5.114293098449707 65.40481567382812 C 2.716026782989502 59.73468017578125 1.5 53.71062850952148 1.5 47.5 C 1.5 41.28937149047852 2.716026782989502 35.26533508300781 5.114293098449707 29.59518623352051 C 7.431066513061523 24.11771965026855 10.74804019927979 19.19813346862793 14.97309303283691 14.97309303283691 C 19.19813346862793 10.74804019927979 24.11771965026855 7.431066513061523 29.59518623352051 5.114293098449707 C 35.26533508300781 2.716026782989502 41.28937149047852 1.5 47.5 1.5 C 53.71062850952148 1.5 59.73468017578125 2.716026782989502 65.40481567382812 5.114293098449707 C 70.88229370117188 7.431066513061523 75.80186462402344 10.74804019927979 80.02691650390625 14.97309303283691 C 84.25196075439453 19.19813346862793 87.56893157958984 24.11771965026855 89.88570404052734 29.59518623352051 C 92.28397369384766 35.26533508300781 93.5 41.28937149047852 93.5 47.5 C 93.5 53.71062850952148 92.28397369384766 59.73468017578125 89.88570404052734 65.40481567382812 C 87.56893157958984 70.88229370117188 84.25196075439453 75.80186462402344 80.02691650390625 80.02691650390625 C 75.80186462402344 84.25196075439453 70.88229370117188 87.56893157958984 65.40481567382812 89.88570404052734 C 59.73468017578125 92.28397369384766 53.71062850952148 93.5 47.5 93.5 Z" stroke="none"/>
                        <path d="M 47.5 3 C 41.49121475219727 3 35.66376876831055 4.176155090332031 30.17950439453125 6.495796203613281 C 24.88084411621094 8.736953735351562 20.12152099609375 11.94598388671875 16.03375244140625 16.03375244140625 C 11.94598388671875 20.12152099609375 8.736953735351562 24.88084411621094 6.495796203613281 30.17950439453125 C 4.176155090332031 35.66376876831055 3 41.49121475219727 3 47.5 C 3 53.50878524780273 4.176155090332031 59.33623123168945 6.495796203613281 64.82049560546875 C 8.736953735351562 70.11915588378906 11.94598388671875 74.87847900390625 16.03375244140625 78.96624755859375 C 20.12152099609375 83.05401611328125 24.88084411621094 86.26304626464844 30.17950439453125 88.50419616699219 C 35.66376876831055 90.82384490966797 41.49121475219727 92 47.5 92 C 53.50878524780273 92 59.33623123168945 90.82384490966797 64.82049560546875 88.50419616699219 C 70.11915588378906 86.26304626464844 74.87847900390625 83.05401611328125 78.96624755859375 78.96624755859375 C 83.05401611328125 74.87847900390625 86.26304626464844 70.11915588378906 88.50419616699219 64.82049560546875 C 90.82384490966797 59.33623123168945 92 53.50878524780273 92 47.5 C 92 41.49121475219727 90.82384490966797 35.66376876831055 88.50419616699219 30.17950439453125 C 86.26304626464844 24.88084411621094 83.05401611328125 20.12152099609375 78.96624755859375 16.03375244140625 C 74.87847900390625 11.94598388671875 70.11915588378906 8.736953735351562 64.82049560546875 6.495796203613281 C 59.33623123168945 4.176155090332031 53.50878524780273 3 47.5 3 M 47.5 0 C 73.7335205078125 0 95 21.2664794921875 95 47.5 C 95 73.7335205078125 73.7335205078125 95 47.5 95 C 21.2664794921875 95 0 73.7335205078125 0 47.5 C 0 21.2664794921875 21.2664794921875 0 47.5 0 Z" stroke="none" fill="#098576"/>
                      </g>
                    </g>
                  </g>
                </g>
              </g>
            </g>
          </g>
        </g>
      </g>
    </g>
    <g id="hablar" transform="translate(296.916 3607.805)">
      <path id="Trazado_1214250" data-name="Trazado 1214250" d="M292.587,310.844h-6.133l-6.644,1.38a4.645,4.645,0,0,0-3.69,4.234l-.435,6.424a1.074,1.074,0,0,0,1.071,1.146h25.527a1.074,1.074,0,0,0,1.071-1.146l-.435-6.424a4.645,4.645,0,0,0-3.69-4.234Z" transform="translate(-242.294 -273.241)" fill="#6bdae8"/>
      <path id="Trazado_1214251" data-name="Trazado 1214251" d="M381.619,322.883l-.435-6.424a4.645,4.645,0,0,0-3.69-4.234l-6.644-1.38h-6.133l8.766,2.557c3.09.971,3.549,2.155,3.69,4.234l.433,6.393h2.942A1.074,1.074,0,0,0,381.619,322.883Z" transform="translate(-320.558 -273.241)" fill="#00c8de"/>
      <path id="Trazado_1214252" data-name="Trazado 1214252" d="M370.851,280.513v-4.174h-6.133v4.174a3.067,3.067,0,0,0,6.133,0Z" transform="translate(-320.557 -242.91)" fill="#fff3de"/>
      <path id="Trazado_1214253" data-name="Trazado 1214253" d="M345,170.611h-1.435v-.727a5.368,5.368,0,0,0-1.818-4.078,5.9,5.9,0,0,0-7.88,0,5.367,5.367,0,0,0-1.818,4.078v.59h-1.435v3.169a1.042,1.042,0,0,0,1.042,1.042h.394a5.357,5.357,0,0,0,1.816,3.957,5.9,5.9,0,0,0,7.88,0,5.357,5.357,0,0,0,1.816-3.957h.394A1.042,1.042,0,0,0,345,173.644Z" transform="translate(-290.58 -144.421)" fill="#fff3de"/>
      <path id="Trazado_1214254" data-name="Trazado 1214254" d="M386.507,176.435v-.727a5.368,5.368,0,0,0-1.818-4.078,6.541,6.541,0,0,0-.994-.708,3.3,3.3,0,0,1,.22,1.186v8.81a5.32,5.32,0,0,1-1.791,3.549,6.132,6.132,0,0,1-2.657,1.36,6.1,6.1,0,0,0,1.282.149,6.035,6.035,0,0,0,3.94-1.51,5.357,5.357,0,0,0,1.816-3.957h.394a1.042,1.042,0,0,0,1.042-1.042v-3.033h-1.434Z" transform="translate(-333.523 -150.245)" fill="#ffe5c2"/>
      <path id="Trazado_1214255" data-name="Trazado 1214255" d="M24.352,311.1H18.233l-6.628,1.377A4.634,4.634,0,0,0,7.924,316.7l-.374,5.531a1.894,1.894,0,0,0,1.889,2.021H33.146a1.894,1.894,0,0,0,1.889-2.021L34.66,316.7a4.634,4.634,0,0,0-3.681-4.224Z" transform="translate(-6.592 -273.468)" fill="#cc98e8"/>
      <path id="Trazado_1214256" data-name="Trazado 1214256" d="M112.7,322.234l-.374-5.531a4.634,4.634,0,0,0-3.681-4.224l-6.628-1.377H95.894l8.648,2.4c2.959.818,3.541,2.15,3.681,4.224l.374,5.531a1.881,1.881,0,0,1-.211,1h2.42a1.894,1.894,0,0,0,1.889-2.021Z" transform="translate(-84.253 -273.468)" fill="#bf80e2"/>
      <path id="Trazado_1214257" data-name="Trazado 1214257" d="M102.013,280.842v-4.164H95.894v4.164a3.059,3.059,0,0,0,6.119,0Z" transform="translate(-84.253 -243.208)" fill="#fff3de"/>
      <path id="Trazado_1214258" data-name="Trazado 1214258" d="M74.721,163.729h-1.5v-.758a5.6,5.6,0,0,0-1.895-4.251,6.146,6.146,0,0,0-8.214,0,5.6,5.6,0,0,0-1.895,4.251v.615h-1.5v2.893a1.5,1.5,0,0,0,1.5,1.5,5.584,5.584,0,0,0,1.893,4.124,6.475,6.475,0,0,0,4.107,1.884,6.474,6.474,0,0,0,4.107-1.884,5.584,5.584,0,0,0,1.893-4.124,1.5,1.5,0,0,0,1.5-1.5v-2.75Z" transform="translate(-52.461 -138.136)" fill="#fff3de"/>
      <path id="Trazado_1214259" data-name="Trazado 1214259" d="M122.074,177.544v-.758a5.639,5.639,0,0,0-1.551-3.924v8.929a5.584,5.584,0,0,1-1.893,4.124,7.145,7.145,0,0,1-3.332,1.808,4.68,4.68,0,0,0,.774.076,6.474,6.474,0,0,0,4.107-1.883,5.584,5.584,0,0,0,1.893-4.124,1.5,1.5,0,0,0,1.5-1.5v-2.75Z" transform="translate(-101.31 -151.952)" fill="#ffe5c2"/>
      <path id="Trazado_1214260" data-name="Trazado 1214260" d="M202.714,304.748V286.82a3,3,0,0,0-3-3H188.541a3,3,0,0,0-3,3v17.928Z" transform="translate(-163.051 -249.482)" fill="#ffa812"/>
      <path id="Trazado_1214261" data-name="Trazado 1214261" d="M292.668,283.815h-1.38a7.876,7.876,0,0,1,.373,2.4v18.533h4.011V286.82A3,3,0,0,0,292.668,283.815Z" transform="translate(-256.011 -249.482)" fill="#ff9a00"/>
      <path id="Trazado_1214262" data-name="Trazado 1214262" d="M199.566,372.77c0,2.653,3.736,6.516,6.827,6.532,3.091-.016,6.827-3.841,6.827-6.532l-3.307-.522a.969.969,0,0,1-.818-.958v-2.965h-5.4v2.943a.969.969,0,0,1-.812.957Z" transform="translate(-175.384 -323.769)" fill="#fff3de"/>
      <path id="Trazado_1214263" data-name="Trazado 1214263" d="M174.019,409.475a4.428,4.428,0,0,0-3.727-4.073l-2.081-.329a7.348,7.348,0,0,1-13.653,0l-2.081.329a4.428,4.428,0,0,0-3.727,4.073l-.381,5.6a1.894,1.894,0,0,0,1.889,2.022h22.254a1.894,1.894,0,0,0,1.889-2.022Z" transform="translate(-130.375 -356.072)" fill="#ff646f"/>
      <path id="Trazado_1214264" data-name="Trazado 1214264" d="M311.893,415.079l-.381-5.6a4.428,4.428,0,0,0-3.727-4.073l-2.081-.329a7.391,7.391,0,0,1-.926,1.646,4.428,4.428,0,0,1,2.746,3.8l.448,6.582H310A1.893,1.893,0,0,0,311.893,415.079Z" transform="translate(-267.868 -356.072)" fill="#ff4755"/>
      <path id="Trazado_1214265" data-name="Trazado 1214265" d="M211.089,285.253a5.092,5.092,0,0,0,1.726,3.761c.879.757,2.114,2.171,3.745,2.189,1.631-.018,2.866-1.432,3.745-2.189a5.092,5.092,0,0,0,1.726-3.761l.008-7.237H211.028Z" transform="translate(-185.46 -244.385)" fill="#fff3de"/>
      <path id="Trazado_1214266" data-name="Trazado 1214266" d="M202.713,247.825a4.889,4.889,0,0,1-4-2.978s-7.205,5.768-13.177,2.978v-1.456a7.884,7.884,0,0,1,7.884-7.884h1.41a7.884,7.884,0,0,1,7.884,7.884v1.456Z" transform="translate(-163.051 -209.636)" fill="#ffc265"/>
      <path id="Trazado_1214267" data-name="Trazado 1214267" d="M10.387,7.5H20.436a2.841,2.841,0,0,1,2.841,2.841v2.068a2.841,2.841,0,0,1-2.841,2.841l-.018,3.105a.413.413,0,0,1-.738.254L17.026,15.25H10.387a2.841,2.841,0,0,1-2.841-2.841V10.341A2.841,2.841,0,0,1,10.387,7.5Z" transform="translate(-6.593 -6.593)" fill="#d5f3f7"/>
      <path id="Trazado_1214268" data-name="Trazado 1214268" d="M88.473,7.5H84.946A2.357,2.357,0,0,1,87.3,9.856v3.037a2.357,2.357,0,0,1-2.357,2.356h.117l2.654,3.359a.413.413,0,0,0,.738-.254l.018-3.105a2.841,2.841,0,0,0,2.841-2.841V10.341A2.841,2.841,0,0,0,88.473,7.5Z" transform="translate(-74.63 -6.593)" fill="#a7e8f1"/>
      <path id="Trazado_1214269" data-name="Trazado 1214269" d="M387.3,7.5H377.255a2.841,2.841,0,0,0-2.841,2.841v2.068a2.841,2.841,0,0,0,2.841,2.841l.018,3.105a.413.413,0,0,0,.738.254l2.654-3.359H387.3a2.841,2.841,0,0,0,2.841-2.841V10.341A2.841,2.841,0,0,0,387.3,7.5Z" transform="translate(-329.081 -6.593)" fill="#d5f3f7"/>
      <path id="Trazado_1214270" data-name="Trazado 1214270" d="M397.917,74.67a.413.413,0,0,0,.738.254l2.654-3.359H397.9Z" transform="translate(-349.725 -62.908)" fill="#a7e8f1"/>
      <path id="Trazado_1214271" data-name="Trazado 1214271" d="M460.415,7.5h-2.829a1.689,1.689,0,0,1,1.689,1.689v4.371a1.689,1.689,0,0,1-1.689,1.689h2.829a2.841,2.841,0,0,0,2.841-2.841V10.341A2.841,2.841,0,0,0,460.415,7.5Z" transform="translate(-402.192 -6.593)" fill="#a7e8f1"/>
      <path id="Trazado_1214272" data-name="Trazado 1214272" d="M203.87,54.069H193.821a2.841,2.841,0,0,0-2.841,2.841v2.068a2.841,2.841,0,0,0,2.841,2.841h3.469l.843,2.967a.741.741,0,0,0,1.425,0l.843-2.967h3.469a2.841,2.841,0,0,0,2.841-2.841V56.91A2.841,2.841,0,0,0,203.87,54.069Z" transform="translate(-167.837 -47.528)" fill="#d5f3f7"/>
      <path id="Trazado_1214273" data-name="Trazado 1214273" d="M243.141,118.136l.843,2.967a.741.741,0,0,0,1.425,0l.843-2.967h-3.111Z" transform="translate(-213.688 -103.845)" fill="#a7e8f1"/>
      <path id="Trazado_1214274" data-name="Trazado 1214274" d="M276.2,54.069h-2.935a1.765,1.765,0,0,1,1.765,1.765v4.22a1.765,1.765,0,0,1-1.765,1.765H276.2a2.841,2.841,0,0,0,2.841-2.841V56.91A2.841,2.841,0,0,0,276.2,54.069Z" transform="translate(-240.171 -47.528)" fill="#a7e8f1"/>
      <path id="Trazado_1214275" data-name="Trazado 1214275" d="M242.666,238.485h-1.41a7.922,7.922,0,0,0-1.3.109,7.888,7.888,0,0,1,6.454,6.361c.091-.069.14-.108.14-.108a4.889,4.889,0,0,0,4,2.978v-1.456A7.884,7.884,0,0,0,242.666,238.485Z" transform="translate(-210.887 -209.636)" fill="#ffa812"/>
      <path id="Trazado_1214276" data-name="Trazado 1214276" d="M74.721,161.7a6.282,6.282,0,0,1-2.571-1.664,2.091,2.091,0,0,0-2.585-.439c-2.218,1.253-6.279,2.964-9.838,1.3v-2.188a5.163,5.163,0,0,1,5.163-5.163h3.07a3.116,3.116,0,0,1,1.886.636,3.117,3.117,0,0,0,1.815.635,3.133,3.133,0,0,1,3.061,3.132Z" transform="translate(-52.461 -134.973)" fill="#e29a74"/>
      <path id="Trazado_1214277" data-name="Trazado 1214277" d="M158.494,164.057v4.824a2.151,2.151,0,0,1,.475.393,6.283,6.283,0,0,0,2.571,1.664v-3.75A3.132,3.132,0,0,0,158.494,164.057Z" transform="translate(-139.281 -144.211)" fill="#dd8858"/>
      <path id="Trazado_1214278" data-name="Trazado 1214278" d="M340.276,153.549h-4.941a4.722,4.722,0,0,0-4.722,4.722V161.8s1.706-.022,2.319.586a.2.2,0,0,0,.345-.146v-3.752a1.533,1.533,0,0,1,1.533-1.533h.643c1.078,0,1.128.9,2.351.9s1.274-.9,2.351-.9h.643a1.533,1.533,0,0,1,1.533,1.533v3.752a.2.2,0,0,0,.345.146c.614-.607,2.319-.586,2.319-.586v-3.534a4.722,4.722,0,0,0-4.722-4.722Z" transform="translate(-290.579 -134.974)" fill="#e29a74"/>
      <path id="Trazado_1214279" data-name="Trazado 1214279" d="M391.851,153.549h-2.527a3.274,3.274,0,0,1,3.223,3.287v.134a1.533,1.533,0,0,1,1.362,1.523v3.752a.2.2,0,0,0,.345.146c.614-.608,2.319-.586,2.319-.586v-3.534A4.722,4.722,0,0,0,391.851,153.549Z" transform="translate(-342.154 -134.974)" fill="#d97f4a"/>
      <path id="Trazado_1214280" data-name="Trazado 1214280" d="M61.777,175.164a.907.907,0,1,0-1.81.122l.189,2.8a.166.166,0,0,1-.166.178H56.923v-2.907a.907.907,0,1,0-1.815,0v2.907H42.956a5.312,5.312,0,0,0-2.386-1.339v-9.266l2.835-.589a3.973,3.973,0,0,0,7.645,0l5.7,1.185a3.75,3.75,0,0,1,2.969,3.407.907.907,0,0,0,.9.846l.062,0a.907.907,0,0,0,.844-.966,5.57,5.57,0,0,0-4.41-5.061l-5.921-1.23v-1.521c.191-.135.377-.28.558-.435a6.2,6.2,0,0,0,2.06-3.787,1.953,1.953,0,0,0,1.508-1.9c0-.425,0,1.828,0-5.926a5.636,5.636,0,0,0-5.629-5.629H44.75a5.636,5.636,0,0,0-5.622,5.629V157.6a1.953,1.953,0,0,0,1.508,1.9,6.206,6.206,0,0,0,2.06,3.787c.181.156.367.3.558.435v1.521l-2.683.558v-.689a8.8,8.8,0,0,0-8.791-8.791h-1.41a8.8,8.8,0,0,0-8.791,8.791v.767l-2.91-.6v-1.6c.279-.208.544-.425.794-.641a6.439,6.439,0,0,0,2.153-4.06,2.408,2.408,0,0,0,1.552-2.248v-5.366a4.064,4.064,0,0,0-3.947-4.039c-1.412-.032-1.61-1.271-3.721-1.271h-3.07a6.077,6.077,0,0,0-6.07,6.07v4.606a2.408,2.408,0,0,0,1.552,2.248,6.44,6.44,0,0,0,2.153,4.06c.213.184.436.368.67.547v1.7L4.828,166.5a5.559,5.559,0,0,0-4.4,5.051l-.374,5.531a2.8,2.8,0,0,0,2.794,2.99h15a5.381,5.381,0,0,0-.377,1.647l-.381,5.6a2.8,2.8,0,0,0,2.794,2.991H42.136a2.8,2.8,0,0,0,2.794-2.991l-.381-5.6a5.377,5.377,0,0,0-.377-1.647H59.99a1.982,1.982,0,0,0,1.976-2.115Zm-38.385-7.292a9.208,9.208,0,0,0,1.321.272l.01,1.125a6,6,0,0,0,2.041,4.429c.179.155.367.332.636.577v1.605a.062.062,0,0,1-.052.061l-3.955.647Zm10.862,4.452c-.842.725-1.919,1.949-3.153,1.969-1.232-.02-2.313-1.246-3.153-1.969a4.178,4.178,0,0,1-1.411-3.081l-.009-1.02a14.728,14.728,0,0,0,5.143-1.261,22.4,22.4,0,0,0,3.66-2.01,5.118,5.118,0,0,0,.339.465l0,3.823A4.185,4.185,0,0,1,34.254,172.324Zm-6.611,5.408a1.87,1.87,0,0,0,1.572-1.852v-.265a4.15,4.15,0,0,0,1.877.492h.02a4.075,4.075,0,0,0,1.692-.4v.2a1.868,1.868,0,0,0,1.584,1.854l2.074.327a6.43,6.43,0,0,1-10.908-.008Zm7.028-1.768a.062.062,0,0,1-.053-.061v-1.461c.28-.25.613-.564.82-.743a6,6,0,0,0,2.041-4.429c0-.006,0-.012,0-.019l0-2.4a6.541,6.541,0,0,0,1.273.474v9.288l-4.085-.645Zm6.272-24.286a3.819,3.819,0,0,1,3.815-3.815H49.7a3.819,3.819,0,0,1,3.815,3.815v2.676a5.626,5.626,0,0,0-.85.164V151.9a2.443,2.443,0,0,0-2.441-2.441h-.643c-1.346,0-1.633.9-2.351.9s-1.008-.9-2.351-.9h-.643a2.443,2.443,0,0,0-2.441,2.441v2.618a5.631,5.631,0,0,0-.85-.164Zm1.436,6.948a.907.907,0,0,0-.907-.888h-.394a.135.135,0,0,1-.135-.135V156.19a1.8,1.8,0,0,1,.774.253,1.111,1.111,0,0,0,1.891-.791V151.9a.627.627,0,0,1,.626-.626h.643c.564,0,.88.9,2.351.9s1.778-.9,2.351-.9h.643a.627.627,0,0,1,.626.626v3.752a1.112,1.112,0,0,0,1.891.791,1.781,1.781,0,0,1,.774-.251V157.6a.135.135,0,0,1-.135.135h-.394a.907.907,0,0,0-.907.888,4.449,4.449,0,0,1-1.5,3.289,5,5,0,0,1-6.7,0,4.45,4.45,0,0,1-1.5-3.289Zm7.008,6.028v1.329a2.159,2.159,0,1,1-4.319,0v-1.329A6.579,6.579,0,0,0,49.386,164.655Zm-25.994.46a6.985,6.985,0,0,1,6.977-6.977h1.41a6.985,6.985,0,0,1,6.977,6.977v.312a3.646,3.646,0,0,1-2.243-2.151.908.908,0,0,0-1.417-.392,20.152,20.152,0,0,1-4.179,2.427c-2.877,1.227-5.4,1.447-7.524.657Zm-15.219-13a4.26,4.26,0,0,1,4.255-4.255H15.5c1.4,0,1.62,1.223,3.68,1.27a2.239,2.239,0,0,1,2.174,2.225v2.309a4.913,4.913,0,0,1-.99-.83,2.987,2.987,0,0,0-3.7-.621c-1.876,1.06-5.385,2.6-8.485,1.485Zm1.5,6.083a.907.907,0,0,0-.907-.888.59.59,0,0,1-.59-.59v-1.131c1.976.526,5.145.593,9.377-1.8a1.183,1.183,0,0,1,1.465.257,7.155,7.155,0,0,0,2.337,1.674v1a.59.59,0,0,1-.59.59.907.907,0,0,0-.907.888,4.676,4.676,0,0,1-1.578,3.456c-2.515,2.165-4.393,2.27-7.03,0A4.676,4.676,0,0,1,9.67,158.2Zm7.183,6.517v1.3a2.152,2.152,0,1,1-4.3,0v-1.348A5.452,5.452,0,0,0,16.853,164.719ZM1.863,177.209l.374-5.531a3.739,3.739,0,0,1,2.96-3.4l5.688-1.182a3.966,3.966,0,0,0,7.63,0l3.062.636v9.156a5.315,5.315,0,0,0-2.516,1.371H6.839v-2.9a.907.907,0,0,0-1.815,0v2.9H2.847a.986.986,0,0,1-.984-1.053ZM42.136,188.5H40.759v-2.158a.907.907,0,0,0-1.815,0V188.5h-15.8v-2.158a.907.907,0,0,0-1.815,0V188.5H19.882a.986.986,0,0,1-.984-1.053l.381-5.6a3.5,3.5,0,0,1,2.964-3.239l1.4-.221a8.251,8.251,0,0,0,14.732,0l1.4.221a3.5,3.5,0,0,1,2.964,3.239l.381,5.6a.985.985,0,0,1-.984,1.053Z" transform="translate(0 -128.382)"/>
      <path id="Trazado_1214281" data-name="Trazado 1214281" d="M3.794,9.565h1.06a.907.907,0,1,0,0-1.815H3.794A1.936,1.936,0,0,1,1.861,5.816V3.748A1.936,1.936,0,0,1,3.794,1.815H13.843a1.936,1.936,0,0,1,1.934,1.934V5.816A1.936,1.936,0,0,1,13.843,7.75a.907.907,0,0,0-.907.9l-.01,1.7L11.145,8.095a.907.907,0,0,0-.712-.345H8.482a.907.907,0,0,0,0,1.815H9.994l2.381,3.014a1.321,1.321,0,0,0,2.357-.811l.013-2.313a3.755,3.755,0,0,0,2.846-3.638V3.748A3.752,3.752,0,0,0,13.843,0H3.794A3.753,3.753,0,0,0,.046,3.748V5.816A3.753,3.753,0,0,0,3.794,9.565Z" transform="translate(0 0)"/>
      <path id="Trazado_1214282" data-name="Trazado 1214282" d="M380.711,0H370.662a3.753,3.753,0,0,0-3.748,3.748V5.816a3.755,3.755,0,0,0,2.846,3.638l.013,2.313a1.321,1.321,0,0,0,2.357.811l2.381-3.014h6.2a3.752,3.752,0,0,0,3.748-3.748V3.748A3.752,3.752,0,0,0,380.711,0Zm1.934,5.816a1.936,1.936,0,0,1-1.934,1.934h-6.639a.907.907,0,0,0-.712.345l-1.781,2.254-.01-1.7a.907.907,0,0,0-.907-.9,1.936,1.936,0,0,1-1.934-1.934V3.748a1.936,1.936,0,0,1,1.934-1.934h10.049a1.936,1.936,0,0,1,1.934,1.934V5.816Z" transform="translate(-322.488)"/>
      <path id="Trazado_1214283" data-name="Trazado 1214283" d="M187.228,56.135h2.784l.656,2.307a1.648,1.648,0,0,0,3.171,0l.656-2.307h2.784a3.753,3.753,0,0,0,3.748-3.748V50.318a3.753,3.753,0,0,0-3.748-3.748H187.228a3.753,3.753,0,0,0-3.748,3.748v2.068A3.752,3.752,0,0,0,187.228,56.135Zm-1.934-5.816a1.936,1.936,0,0,1,1.934-1.934h10.049a1.936,1.936,0,0,1,1.934,1.934v2.068a1.936,1.936,0,0,1-1.934,1.934h-3.469a.907.907,0,0,0-.873.659l-.683,2.4-.683-2.4a.907.907,0,0,0-.873-.659h-3.469a1.936,1.936,0,0,1-1.934-1.934Z" transform="translate(-161.244 -40.936)"/>
    </g>
  </g>
</svg>
