<svg xmlns="http://www.w3.org/2000/svg" xmlns:xlink="http://www.w3.org/1999/xlink" width="113" height="113" viewBox="0 0 113 113">
  <defs>
    <filter id="Trazado_982547" x="0" y="0" width="113" height="113" filterUnits="userSpaceOnUse">
      <feOffset dy="3" input="SourceAlpha"/>
      <feGaussianBlur stdDeviation="3" result="blur"/>
      <feFlood flood-opacity="0.161"/>
      <feComposite operator="in" in2="blur"/>
      <feComposite in="SourceGraphic"/>
    </filter>
  </defs>
  <g id="Grupo_1226122" data-name="Grupo 1226122" transform="translate(-585 -3585)">
    <g id="Grupo_1225351" data-name="Grupo 1225351" transform="translate(-1 -393.91)">
      <g id="Grupo_1208122" data-name="Grupo 1208122" transform="translate(0 -1922.377)">
        <g id="Grupo_1202433" data-name="Grupo 1202433" transform="translate(-0.56 1255.773)">
          <g id="Grupo_1202054" data-name="Grupo 1202054" transform="translate(0 3240.511)">
            <g id="Grupo_1177897" data-name="Grupo 1177897" transform="translate(595.561 1411.003)">
              <g id="Grupo_1172010" data-name="Grupo 1172010" transform="translate(0)">
                <g id="Grupo_1171046" data-name="Grupo 1171046">
                  <g id="Grupo_1148525" data-name="Grupo 1148525">
                    <g transform="matrix(1, 0, 0, 1, -9, -6)" filter="url(#Trazado_982547)">
                      <g id="Trazado_982547-2" data-name="Trazado 982547" transform="translate(9 6)" fill="#e5fdfa">
                        <path d="M 47.5 93.5 C 41.28937149047852 93.5 35.26533508300781 92.28397369384766 29.59518623352051 89.88570404052734 C 24.11771965026855 87.56893157958984 19.19813346862793 84.25196075439453 14.97309303283691 80.02691650390625 C 10.74804019927979 75.80186462402344 7.431066513061523 70.88229370117188 5.114293098449707 65.40481567382812 C 2.716026782989502 59.73468017578125 1.5 53.71062850952148 1.5 47.5 C 1.5 41.28937149047852 2.716026782989502 35.26533508300781 5.114293098449707 29.59518623352051 C 7.431066513061523 24.11771965026855 10.74804019927979 19.19813346862793 14.97309303283691 14.97309303283691 C 19.19813346862793 10.74804019927979 24.11771965026855 7.431066513061523 29.59518623352051 5.114293098449707 C 35.26533508300781 2.716026782989502 41.28937149047852 1.5 47.5 1.5 C 53.71062850952148 1.5 59.73468017578125 2.716026782989502 65.40481567382812 5.114293098449707 C 70.88229370117188 7.431066513061523 75.80186462402344 10.74804019927979 80.02691650390625 14.97309303283691 C 84.25196075439453 19.19813346862793 87.56893157958984 24.11771965026855 89.88570404052734 29.59518623352051 C 92.28397369384766 35.26533508300781 93.5 41.28937149047852 93.5 47.5 C 93.5 53.71062850952148 92.28397369384766 59.73468017578125 89.88570404052734 65.40481567382812 C 87.56893157958984 70.88229370117188 84.25196075439453 75.80186462402344 80.02691650390625 80.02691650390625 C 75.80186462402344 84.25196075439453 70.88229370117188 87.56893157958984 65.40481567382812 89.88570404052734 C 59.73468017578125 92.28397369384766 53.71062850952148 93.5 47.5 93.5 Z" stroke="none"/>
                        <path d="M 47.5 3 C 41.49121475219727 3 35.66376876831055 4.176155090332031 30.17950439453125 6.495796203613281 C 24.88084411621094 8.736953735351562 20.12152099609375 11.94598388671875 16.03375244140625 16.03375244140625 C 11.94598388671875 20.12152099609375 8.736953735351562 24.88084411621094 6.495796203613281 30.17950439453125 C 4.176155090332031 35.66376876831055 3 41.49121475219727 3 47.5 C 3 53.50878524780273 4.176155090332031 59.33623123168945 6.495796203613281 64.82049560546875 C 8.736953735351562 70.11915588378906 11.94598388671875 74.87847900390625 16.03375244140625 78.96624755859375 C 20.12152099609375 83.05401611328125 24.88084411621094 86.26304626464844 30.17950439453125 88.50419616699219 C 35.66376876831055 90.82384490966797 41.49121475219727 92 47.5 92 C 53.50878524780273 92 59.33623123168945 90.82384490966797 64.82049560546875 88.50419616699219 C 70.11915588378906 86.26304626464844 74.87847900390625 83.05401611328125 78.96624755859375 78.96624755859375 C 83.05401611328125 74.87847900390625 86.26304626464844 70.11915588378906 88.50419616699219 64.82049560546875 C 90.82384490966797 59.33623123168945 92 53.50878524780273 92 47.5 C 92 41.49121475219727 90.82384490966797 35.66376876831055 88.50419616699219 30.17950439453125 C 86.26304626464844 24.88084411621094 83.05401611328125 20.12152099609375 78.96624755859375 16.03375244140625 C 74.87847900390625 11.94598388671875 70.11915588378906 8.736953735351562 64.82049560546875 6.495796203613281 C 59.33623123168945 4.176155090332031 53.50878524780273 3 47.5 3 M 47.5 0 C 73.7335205078125 0 95 21.2664794921875 95 47.5 C 95 73.7335205078125 73.7335205078125 95 47.5 95 C 21.2664794921875 95 0 73.7335205078125 0 47.5 C 0 21.2664794921875 21.2664794921875 0 47.5 0 Z" stroke="none" fill="#098576"/>
                      </g>
                    </g>
                  </g>
                </g>
              </g>
            </g>
          </g>
        </g>
      </g>
    </g>
    <g id="mision-cumplida" transform="translate(601.852 3598.759)">
      <g id="Grupo_1226125" data-name="Grupo 1226125" transform="translate(9.215 9.116)">
        <g id="Grupo_1226123" data-name="Grupo 1226123">
          <path id="Trazado_1214284" data-name="Trazado 1214284" d="M48.342,20.262a21.951,21.951,0,0,1,6.427,2.665l4.177-1.855,4.923,4.923-1.854,4.175A21.949,21.949,0,0,1,64.679,36.6l4.261,1.64V45.2l-4.262,1.64a21.95,21.95,0,0,1-2.665,6.427l1.855,4.177-4.923,4.923-4.175-1.854a21.945,21.945,0,0,1-6.429,2.665L46.7,67.439H39.74L38.1,63.177a21.952,21.952,0,0,1-6.427-2.665L27.5,62.367l-4.923-4.923,1.854-4.175a21.95,21.95,0,0,1-2.665-6.429L17.5,45.2V38.239l4.262-1.64a21.949,21.949,0,0,1,2.665-6.428l-1.854-4.176L27.5,21.072l4.177,1.855A21.954,21.954,0,0,1,38.1,20.262L39.74,16H46.7Z" transform="translate(-17.501 -16)" fill="#ffe177" fill-rule="evenodd"/>
          <path id="Trazado_1214285" data-name="Trazado 1214285" d="M95.6,60.512l-4.177,1.855-.643-.643L94.7,59.985Q95.147,60.26,95.6,60.512Zm16.67-40.25a21.95,21.95,0,0,1,6.427,2.665l-1.187.527a28.953,28.953,0,0,0-7.331-3.192L108.543,16h2.091ZM118.7,60.513a21.945,21.945,0,0,1-6.429,2.665l-1.64,4.261h-2.091l1.64-4.261a28.943,28.943,0,0,0,7.333-3.192Zm-27.918-38.8.643-.643L95.6,22.927q-.458.253-.9.527Zm30.646,0,1.448-.643,4.923,4.923-1.855,4.175a21.949,21.949,0,0,1,2.665,6.429l4.261,1.64V45.2l-4.262,1.64a21.95,21.95,0,0,1-2.665,6.427l1.855,4.177-4.923,4.923-1.448-.643,4.279-4.28-1.855-4.177a21.95,21.95,0,0,0,2.665-6.427l4.262-1.64V38.239l-4.261-1.64a21.949,21.949,0,0,0-2.665-6.429l1.854-4.175Z" transform="translate(-81.434 -16)" fill="#ffd064" fill-rule="evenodd"/>
          <circle id="Elipse_12984" data-name="Elipse 12984" cx="13.638" cy="13.638" r="13.638" transform="translate(9.313 15.573) rotate(-13.3)" fill="#eceff1"/>
          <path id="Trazado_1214286" data-name="Trazado 1214286" d="M125.821,110.68a13.638,13.638,0,0,0,0,27.276q.548,0,1.085-.043a13.638,13.638,0,0,1,0-27.19Q126.369,110.681,125.821,110.68Z" transform="translate(-100.101 -98.598)" fill="#d1d1d6" fill-rule="evenodd"/>
        </g>
        <g id="Grupo_1226124" data-name="Grupo 1226124" transform="translate(25.356 25.776)">
          <circle id="Elipse_12985" data-name="Elipse 12985" cx="16.002" cy="16.002" r="16.002" transform="translate(0 3.47)" fill="#fe646f"/>
          <path id="Trazado_1214287" data-name="Trazado 1214287" d="M337.253,245.192a16,16,0,1,1,0,32c-.214,0-.426-.005-.638-.014a16,16,0,0,0,0-31.977C336.827,245.2,337.039,245.192,337.253,245.192Z" transform="translate(-321.251 -241.722)" fill="#fd4755" fill-rule="evenodd"/>
          <circle id="Elipse_12986" data-name="Elipse 12986" cx="10.283" cy="10.283" r="10.283" transform="translate(5.719 9.189)" fill="#eceff1"/>
          <path id="Trazado_1214288" data-name="Trazado 1214288" d="M271.312,290.011c.214,0,.427.007.638.02a10.283,10.283,0,0,0,0,20.526c-.211.013-.424.02-.638.02a10.283,10.283,0,1,1,0-20.566Z" transform="translate(-255.31 -280.822)" fill="#d1d1d6" fill-rule="evenodd"/>
          <circle id="Elipse_12987" data-name="Elipse 12987" cx="4.564" cy="4.564" r="4.564" transform="translate(10.057 16.995) rotate(-22.514)" fill="#fe646f"/>
          <path id="Trazado_1214289" data-name="Trazado 1214289" d="M310.412,334.829a4.588,4.588,0,0,1,.638.045,4.564,4.564,0,0,0,0,9.039,4.564,4.564,0,1,1-.638-9.083Z" transform="translate(-294.41 -319.921)" fill="#fd4755" fill-rule="evenodd"/>
          <path id="Trazado_1214290" data-name="Trazado 1214290" d="M412.758,224.108l-5.719,5.719a.373.373,0,0,1-.351.1l-4.486-.967a.376.376,0,0,1-.294-.294l-.967-4.486a.373.373,0,0,1,.1-.351l5.719-5.719a.383.383,0,0,1,.645.19l.863,4a.376.376,0,0,0,.294.294l4,.863a.383.383,0,0,1,.19.645Z" transform="translate(-377.36 -218.001)" fill="#e3a76f" fill-rule="evenodd"/>
          <path id="Trazado_1214291" data-name="Trazado 1214291" d="M418.976,261.248l-5.719,5.719a.373.373,0,0,1-.351.1l-4.486-.967a.376.376,0,0,1-.294-.294l-.067-.309,4.463.962a.373.373,0,0,0,.351-.1l5.719-5.719a.407.407,0,0,0,.054-.067l.139.03a.383.383,0,0,1,.19.645Z" transform="translate(-383.578 -255.141)" fill="#c48958" fill-rule="evenodd"/>
        </g>
      </g>
      <path id="Trazado_1214292" data-name="Trazado 1214292" d="M68.227,41.092l-2.557-.551-4.645,4.645,2.556.551ZM38.46,8.109a1.021,1.021,0,0,1,.716.627L40.626,12.5a22.922,22.922,0,0,1,5.734,2.378l3.692-1.64a1.021,1.021,0,0,1,1.137.211l4.922,4.922a1.021,1.021,0,0,1,.211,1.136L54.684,23.2a22.917,22.917,0,0,1,2.378,5.737l3.767,1.449a1.022,1.022,0,0,1,.654.953V32.9a1.021,1.021,0,1,1-2.042,0v-.856l-3.606-1.389a1.017,1.017,0,0,1-.627-.716,20.882,20.882,0,0,0-2.542-6.13,1.022,1.022,0,0,1-.064-.95l1.571-3.535-3.932-3.931-3.536,1.57a1.022,1.022,0,0,1-.95-.064,20.877,20.877,0,0,0-6.129-2.54,1.017,1.017,0,0,1-.716-.627l-1.39-3.608H31.963l-1.389,3.608a1.023,1.023,0,0,1-.716.627,20.882,20.882,0,0,0-6.128,2.54,1.022,1.022,0,0,1-.95.064l-3.536-1.57-3.932,3.931,1.571,3.536a1.024,1.024,0,0,1-.064.95,20.86,20.86,0,0,0-2.54,6.129,1.024,1.024,0,0,1-.627.716l-3.608,1.389V37.6l3.607,1.388a1.022,1.022,0,0,1,.627.716,20.871,20.871,0,0,0,2.542,6.13,1.023,1.023,0,0,1,.064.95L15.312,50.32l3.932,3.931,3.536-1.57a1.022,1.022,0,0,1,.95.064,20.882,20.882,0,0,0,6.128,2.54,1.021,1.021,0,0,1,.716.627l1.433,3.721a1.021,1.021,0,0,1-.469,1.928h-.277a1.019,1.019,0,0,1-.952-.654l-1.451-3.768a22.9,22.9,0,0,1-5.734-2.377L19.431,56.4A1.018,1.018,0,0,1,18.3,56.19l-4.923-4.922a1.021,1.021,0,0,1-.21-1.136l1.64-3.691A22.882,22.882,0,0,1,12.423,40.7l-3.767-1.45A1.019,1.019,0,0,1,8,38.3V31.341a1.02,1.02,0,0,1,.653-.953l3.767-1.45A22.883,22.883,0,0,1,14.8,23.2l-1.64-3.692a1.021,1.021,0,0,1,.21-1.136L18.3,13.452a1.019,1.019,0,0,1,1.135-.211l3.693,1.64A22.907,22.907,0,0,1,28.858,12.5l1.451-3.767a1.019,1.019,0,0,1,.716-.627H38.46Zm26.9,46.242A14.975,14.975,0,1,1,56.9,40.857a1.053,1.053,0,0,0,.022.216l.946,4.388-.227.228a11.308,11.308,0,1,0,1.441,1.446l.231-.231,4.387.946a1,1,0,0,0,.2.022,15.011,15.011,0,0,1,1.47,6.478ZM56.186,47.14a9.277,9.277,0,1,0,1.439,1.448L55,51.213a5.595,5.595,0,1,1-1.437-1.45ZM53.515,52.7l-2.393,2.393a1.021,1.021,0,0,1-1.445-1.443l2.4-2.4A3.544,3.544,0,1,0,53.515,52.7Zm5.516-11.512,4.645-4.645.551,2.557-4.645,4.645ZM71,41.211l-5.433,5.433a17.022,17.022,0,1,1-7.427-7.45l5.422-5.422a1.021,1.021,0,0,1,1.72.507l.667,3.1.318-.318a1.021,1.021,0,0,1,1.444,1.443l-.318.318,3.1.668A1.02,1.02,0,0,1,71,41.211ZM34.061,40.023,41.437,30.9a1.021,1.021,0,1,0-1.588-1.284l-6.663,8.237-3.623-3.623a1.021,1.021,0,0,0-1.443,1.443L32.545,40.1a1.023,1.023,0,0,0,.722.3h.054A1.022,1.022,0,0,0,34.061,40.023ZM31.8,47.093A12.618,12.618,0,1,1,47.357,34.635a1.02,1.02,0,0,0,1.02,1.006h.015A1.019,1.019,0,0,0,49.4,34.606a14.658,14.658,0,1,0-26.112,9.362,14.732,14.732,0,0,0,8.039,5.111,1.011,1.011,0,0,0,.238.028,1.021,1.021,0,0,0,.236-2.014Z" fill="#242222" fill-rule="evenodd"/>
    </g>
  </g>
</svg>
