<svg xmlns="http://www.w3.org/2000/svg" xmlns:xlink="http://www.w3.org/1999/xlink" width="113" height="113" viewBox="0 0 113 113">
  <defs>
    <filter id="Trazado_982547" x="0" y="0" width="113" height="113" filterUnits="userSpaceOnUse">
      <feOffset dy="3" input="SourceAlpha"/>
      <feGaussianBlur stdDeviation="3" result="blur"/>
      <feFlood flood-opacity="0.161"/>
      <feComposite operator="in" in2="blur"/>
      <feComposite in="SourceGraphic"/>
    </filter>
  </defs>
  <g id="Grupo_1226131" data-name="Grupo 1226131" transform="translate(-900.425 -3585.269)">
    <g id="Grupo_1225352" data-name="Grupo 1225352" transform="translate(-0.575 -393.641)">
      <g id="Grupo_1208123" data-name="Grupo 1208123" transform="translate(0 -1922.377)">
        <g id="Grupo_1202434" data-name="Grupo 1202434" transform="translate(-0.56 1255.773)">
          <g id="Grupo_1202053" data-name="Grupo 1202053" transform="translate(0 3240.511)">
            <g id="Grupo_1177898" data-name="Grupo 1177898" transform="translate(910.561 1411.003)">
              <g id="Grupo_1172010" data-name="Grupo 1172010" transform="translate(0)">
                <g id="Grupo_1171046" data-name="Grupo 1171046">
                  <g id="Grupo_1148525" data-name="Grupo 1148525">
                    <g transform="matrix(1, 0, 0, 1, -9, -6)" filter="url(#Trazado_982547)">
                      <g id="Trazado_982547-2" data-name="Trazado 982547" transform="translate(9 6)" fill="#e5fdfa">
                        <path d="M 47.5 93.5 C 41.28937149047852 93.5 35.26533508300781 92.28397369384766 29.59518623352051 89.88570404052734 C 24.11771965026855 87.56893157958984 19.19813346862793 84.25196075439453 14.97309303283691 80.02691650390625 C 10.74804019927979 75.80186462402344 7.431066513061523 70.88229370117188 5.114293098449707 65.40481567382812 C 2.716026782989502 59.73468017578125 1.5 53.71062850952148 1.5 47.5 C 1.5 41.28937149047852 2.716026782989502 35.26533508300781 5.114293098449707 29.59518623352051 C 7.431066513061523 24.11771965026855 10.74804019927979 19.19813346862793 14.97309303283691 14.97309303283691 C 19.19813346862793 10.74804019927979 24.11771965026855 7.431066513061523 29.59518623352051 5.114293098449707 C 35.26533508300781 2.716026782989502 41.28937149047852 1.5 47.5 1.5 C 53.71062850952148 1.5 59.73468017578125 2.716026782989502 65.40481567382812 5.114293098449707 C 70.88229370117188 7.431066513061523 75.80186462402344 10.74804019927979 80.02691650390625 14.97309303283691 C 84.25196075439453 19.19813346862793 87.56893157958984 24.11771965026855 89.88570404052734 29.59518623352051 C 92.28397369384766 35.26533508300781 93.5 41.28937149047852 93.5 47.5 C 93.5 53.71062850952148 92.28397369384766 59.73468017578125 89.88570404052734 65.40481567382812 C 87.56893157958984 70.88229370117188 84.25196075439453 75.80186462402344 80.02691650390625 80.02691650390625 C 75.80186462402344 84.25196075439453 70.88229370117188 87.56893157958984 65.40481567382812 89.88570404052734 C 59.73468017578125 92.28397369384766 53.71062850952148 93.5 47.5 93.5 Z" stroke="none"/>
                        <path d="M 47.5 3 C 41.49121475219727 3 35.66376876831055 4.176155090332031 30.17950439453125 6.495796203613281 C 24.88084411621094 8.736953735351562 20.12152099609375 11.94598388671875 16.03375244140625 16.03375244140625 C 11.94598388671875 20.12152099609375 8.736953735351562 24.88084411621094 6.495796203613281 30.17950439453125 C 4.176155090332031 35.66376876831055 3 41.49121475219727 3 47.5 C 3 53.50878524780273 4.176155090332031 59.33623123168945 6.495796203613281 64.82049560546875 C 8.736953735351562 70.11915588378906 11.94598388671875 74.87847900390625 16.03375244140625 78.96624755859375 C 20.12152099609375 83.05401611328125 24.88084411621094 86.26304626464844 30.17950439453125 88.50419616699219 C 35.66376876831055 90.82384490966797 41.49121475219727 92 47.5 92 C 53.50878524780273 92 59.33623123168945 90.82384490966797 64.82049560546875 88.50419616699219 C 70.11915588378906 86.26304626464844 74.87847900390625 83.05401611328125 78.96624755859375 78.96624755859375 C 83.05401611328125 74.87847900390625 86.26304626464844 70.11915588378906 88.50419616699219 64.82049560546875 C 90.82384490966797 59.33623123168945 92 53.50878524780273 92 47.5 C 92 41.49121475219727 90.82384490966797 35.66376876831055 88.50419616699219 30.17950439453125 C 86.26304626464844 24.88084411621094 83.05401611328125 20.12152099609375 78.96624755859375 16.03375244140625 C 74.87847900390625 11.94598388671875 70.11915588378906 8.736953735351562 64.82049560546875 6.495796203613281 C 59.33623123168945 4.176155090332031 53.50878524780273 3 47.5 3 M 47.5 0 C 73.7335205078125 0 95 21.2664794921875 95 47.5 C 95 73.7335205078125 73.7335205078125 95 47.5 95 C 21.2664794921875 95 0 73.7335205078125 0 47.5 C 0 21.2664794921875 21.2664794921875 0 47.5 0 Z" stroke="none" fill="#098576"/>
                      </g>
                    </g>
                  </g>
                </g>
              </g>
            </g>
          </g>
        </g>
      </g>
    </g>
    <g id="trabajo-en-equipo_2_" data-name="trabajo-en-equipo (2)" transform="translate(924.773 3606.329)">
      <g id="Grupo_1226130" data-name="Grupo 1226130" transform="translate(0.942 0.942)">
        <path id="Trazado_1214293" data-name="Trazado 1214293" d="M176.867,92.289c0,2.847-2.36,6.243-5.206,6.243l-1.631,4.614-6.688,1.874c0-2.846-1.324-4.239-4.171-4.239h-.1c-3.406-5.364-.87-17.029,4.759-19.353h6.2l1.894,4.231c2.845,0,4.943,3.78,4.943,6.628Z" transform="translate(-138.689 -72.145)" fill="#91d4f2"/>
        <path id="Trazado_1214294" data-name="Trazado 1214294" d="M94.888,100.783c-2.776.031-4,1.425-4,4.238l-6.762-1.874V87.312a5.881,5.881,0,0,1,5.88-5.882h9.637c-3.232,4.715-4.844,11.916-4.759,19.353Z" transform="translate(-74.506 -72.145)" fill="#59c2e8"/>
        <path id="Trazado_1214295" data-name="Trazado 1214295" d="M278.76,87.315V103.15l-4.127,1.926c0,2.847-3.884,5.364-6.731,5.364s-6.977-2.255-6.977-5.1l-3.881-2.187v-5.7a5.155,5.155,0,0,0,0-10.31v-5.7h15.835A5.881,5.881,0,0,1,278.76,87.315Z" transform="translate(-225.703 -72.148)" fill="#fd7a6e"/>
        <path id="Trazado_1214296" data-name="Trazado 1214296" d="M232.2,254.34v15.836a5.881,5.881,0,0,1-5.881,5.881H210.484l-1.717-4.043c-2.847,0-4.971-3.969-4.971-6.815s2.333-7.05,5.18-7.05l1.508-3.809h5.7a5.155,5.155,0,0,0,10.31,0h5.7Z" transform="translate(-179.142 -223.338)" fill="#928cd9"/>
        <path id="Trazado_1214297" data-name="Trazado 1214297" d="M164.865,229.321a5.155,5.155,0,0,0,5.154,5.153v5.7h-3c-7.711-4.088-12.022-18.086-7.909-26.871a5.155,5.155,0,0,1,5.206,5.153h5.7v5.7A5.156,5.156,0,0,0,164.865,229.321Z" transform="translate(-138.679 -187.46)" fill="#73da8c"/>
        <path id="Trazado_1214298" data-name="Trazado 1214298" d="M102.845,240.181H90.01a5.881,5.881,0,0,1-5.88-5.882V218.463h5.7a5.154,5.154,0,0,1,5.1-5.153C94.481,223.143,97.054,233.9,102.845,240.181Z" transform="translate(-74.506 -187.461)" fill="#29ce69"/>
        <g id="Grupo_1226126" data-name="Grupo 1226126" transform="translate(0 11.131)">
          <path id="Trazado_1214299" data-name="Trazado 1214299" d="M76.759,106.665H73.317a2.747,2.747,0,0,1-.325,3.205c-4.323-1.312-5.641-12.08.359-13.74a3.964,3.964,0,0,1,3.394,1.954l2.5,4.246A2.877,2.877,0,0,1,76.759,106.665Z" transform="translate(-61.531 -96.13)" fill="#fed2a4"/>
          <path id="Trazado_1214300" data-name="Trazado 1214300" d="M48.855,109.87a2.712,2.712,0,0,1-3.244.715,6.2,6.2,0,0,1-3.37-3.92c-.394-1.11-2.346-10.535,4.587-10.535h2.386C45.214,99.482,45.922,107.175,48.855,109.87Z" transform="translate(-37.395 -96.13)" fill="#ffbd86"/>
          <path id="Trazado_1214301" data-name="Trazado 1214301" d="M10.035,102.91a2.535,2.535,0,0,1,2.535,2.535v6.505a2.535,2.535,0,0,1-5.071,0v-6.505A2.535,2.535,0,0,1,10.035,102.91Z" transform="translate(-7.5 -102.058)" fill="#f85647"/>
        </g>
        <g id="Grupo_1226127" data-name="Grupo 1226127" transform="translate(44.311 36.572)">
          <path id="Trazado_1214302" data-name="Trazado 1214302" d="M404.489,312.879c-4.543-.423-8.783-6.866-4.813-10.007a2.79,2.79,0,0,1,3.569-3.92,6.2,6.2,0,0,1,3.37,3.92C406.953,303.823,408.435,310.88,404.489,312.879Z" transform="translate(-393.352 -298.69)" fill="#db9e82"/>
          <path id="Trazado_1214303" data-name="Trazado 1214303" d="M371.446,342a5.365,5.365,0,0,1-2.46.527h-2.362a3.964,3.964,0,0,1-3.417-1.954l-2.5-4.246a2.877,2.877,0,0,1,2.48-4.334h3.443C364.913,335.669,368.125,340.247,371.446,342Z" transform="translate(-360.31 -327.808)" fill="#c8866a"/>
          <path id="Trazado_1214304" data-name="Trazado 1214304" d="M466.66,328.5a2.535,2.535,0,0,1-2.535-2.535v-6.505a2.535,2.535,0,1,1,5.071,0v6.505A2.535,2.535,0,0,1,466.66,328.5Z" transform="translate(-451.086 -314.629)" fill="#c5cff1"/>
        </g>
        <g id="Grupo_1226128" data-name="Grupo 1226128" transform="translate(36.572)">
          <path id="Trazado_1214305" data-name="Trazado 1214305" d="M359.985,47.013v2.362a3.964,3.964,0,0,1-1.954,3.417l-2.154,1.266c-4.694-1.624-5.151-9.891-1.478-12.159,2.745.178,5.586,1.307,5.586,5.113Z" transform="translate(-345.268 -37.58)" fill="#ffddcf"/>
          <path id="Trazado_1214306" data-name="Trazado 1214306" d="M309.3,53.874l-2.092,1.23a2.877,2.877,0,0,1-4.334-2.48V49.181a2.79,2.79,0,0,1-3.92-3.569,6.2,6.2,0,0,1,3.92-3.37,15.285,15.285,0,0,1,4.948-.526C306.218,44.446,306.343,50.761,309.3,53.874Z" transform="translate(-298.69 -37.395)" fill="#ffcbbe"/>
          <path id="Trazado_1214307" data-name="Trazado 1214307" d="M328.5,10.035a2.535,2.535,0,0,1-2.535,2.535h-6.505a2.535,2.535,0,0,1,0-5.071h6.505A2.535,2.535,0,0,1,328.5,10.035Z" transform="translate(-314.629 -7.5)" fill="#29ce69"/>
        </g>
        <g id="Grupo_1226129" data-name="Grupo 1226129" transform="translate(11.131 44.311)">
          <path id="Trazado_1214308" data-name="Trazado 1214308" d="M130.458,370.2a6.2,6.2,0,0,1-3.92,3.37,11.731,11.731,0,0,1-1.978.407c-5.1-.931-7.705-8.589-3.866-12.381l1.51-.888a2.877,2.877,0,0,1,4.334,2.48v3.443A2.79,2.79,0,0,1,130.458,370.2Z" transform="translate(-116.003 -360.31)" fill="#ffddcf"/>
          <path id="Trazado_1214309" data-name="Trazado 1214309" d="M104.687,382.951c-3.1.413-8.557.283-8.557-4.994V375.6a3.964,3.964,0,0,1,1.954-3.417l2.737-1.608c-1.8,3.92.6,10.326,3.866,12.381Z" transform="translate(-96.13 -369.281)" fill="#ffcbbe"/>
          <path id="Trazado_1214310" data-name="Trazado 1214310" d="M102.91,466.66a2.536,2.536,0,0,1,2.535-2.535h6.505a2.535,2.535,0,0,1,0,5.071h-6.505A2.535,2.535,0,0,1,102.91,466.66Z" transform="translate(-102.058 -451.086)" fill="#59c2e8"/>
        </g>
      </g>
      <path id="Trazado_1214311" data-name="Trazado 1214311" d="M60.827,38.861a3.461,3.461,0,0,0-2.2.788A6.852,6.852,0,0,0,54.941,36.7v-20.6a6.764,6.764,0,0,0-1.768-4.58V10.375A5.572,5.572,0,0,0,51.31,5.927,3.476,3.476,0,0,0,48.844,0H42.339a3.475,3.475,0,0,0-2.689,5.679,6.9,6.9,0,0,0-2.922,3.607H26.756a.942.942,0,1,0,0,1.884h4.586v4.761a.942.942,0,0,0,.942.942,4.213,4.213,0,0,1,0,8.426.942.942,0,0,0-.942.942V31H27.448A6.1,6.1,0,0,0,15.4,31H11.508V27.531a3.749,3.749,0,0,0,1.529-1.011,3.7,3.7,0,0,0,.978-2.969H16.17A3.818,3.818,0,0,0,19.462,17.8l-2.5-4.246a4.916,4.916,0,0,0-2.337-2.037,4.928,4.928,0,0,1,1.817-.345H22.36a.942.942,0,0,0,0-1.884H16.447a6.75,6.75,0,0,0-4.663,1.845H10.375a5.572,5.572,0,0,0-4.448,1.864A3.476,3.476,0,0,0,0,15.46v6.505a3.475,3.475,0,0,0,5.679,2.69,6.662,6.662,0,0,0,3.945,3.006V47.78a6.808,6.808,0,0,0,1.507,4.275v1.874a5.572,5.572,0,0,0,1.864,4.448A3.476,3.476,0,0,0,15.46,64.3h6.505a3.475,3.475,0,0,0,2.689-5.679A6.6,6.6,0,0,0,27.674,54.6H38.746a.942.942,0,0,0,0-1.884h-5.52V47.957a.942.942,0,0,0-.942-.942,4.212,4.212,0,1,1,0-8.424.942.942,0,0,0,.942-.942V32.886h3.892a6.1,6.1,0,0,0,12.048,0h3.892v3.809a3.788,3.788,0,0,0-2.768,4.059H48.134a3.818,3.818,0,0,0-3.292,5.753l2.5,4.246a4.905,4.905,0,0,0,1.914,1.833,4.93,4.93,0,0,1-1.133.133H43.141a.942.942,0,0,0,0,1.884h4.977a6.82,6.82,0,0,0,4.175-1.43h1.635a5.572,5.572,0,0,0,4.448-1.864A3.476,3.476,0,0,0,64.3,48.844V42.339a3.481,3.481,0,0,0-3.477-3.477ZM42.339,1.884h6.505a1.594,1.594,0,0,1,0,3.187H42.339a1.594,1.594,0,0,1,0-3.187Zm-.844,4.967a3.469,3.469,0,0,0,.845.1h6.505a3.5,3.5,0,0,0,.57-.047,3.573,3.573,0,0,1,1.875,3.468v2.363a3.032,3.032,0,0,1-1.49,2.6l-4.246,2.5a1.935,1.935,0,0,1-2.915-1.668V12.727a.942.942,0,0,0-1.4-.821,1.814,1.814,0,0,1-2.173-.257,1.781,1.781,0,0,1-.423-2.11A5.322,5.322,0,0,1,41.494,6.851ZM3.477,23.559a1.6,1.6,0,0,1-1.594-1.594V15.46a1.594,1.594,0,1,1,3.187,0v6.505A1.6,1.6,0,0,1,3.477,23.559Zm3.373-.749a3.471,3.471,0,0,0,.1-.845V15.46a3.483,3.483,0,0,0-.048-.57,3.573,3.573,0,0,1,3.468-1.875h2.363a3.032,3.032,0,0,1,2.6,1.49l2.5,4.246a1.934,1.934,0,0,1-1.668,2.915H12.727a.942.942,0,0,0-.821,1.4,1.814,1.814,0,0,1-.257,2.173,1.781,1.781,0,0,1-2.11.423A5.319,5.319,0,0,1,6.851,22.81ZM21.966,62.42H15.46a1.594,1.594,0,1,1,0-3.187h6.505a1.594,1.594,0,1,1,0,3.187Zm3.7-7.656a5.32,5.32,0,0,1-2.856,2.69,3.469,3.469,0,0,0-.845-.1H15.46a3.5,3.5,0,0,0-.57.047,3.573,3.573,0,0,1-1.875-3.468V51.566a3.033,3.033,0,0,1,1.49-2.6l4.246-2.5a1.935,1.935,0,0,1,2.915,1.668v3.443a.942.942,0,0,0,1.4.821,1.813,1.813,0,0,1,2.173.257A1.781,1.781,0,0,1,25.667,54.764Zm5.675-17.985a6.1,6.1,0,0,0,0,12.047v3.893H27.5a3.758,3.758,0,0,0-.985-1.452,3.7,3.7,0,0,0-2.969-.978V48.134A3.818,3.818,0,0,0,17.8,44.842l-4.246,2.5a4.905,4.905,0,0,0-1.824,1.9,4.938,4.938,0,0,1-.219-1.453V32.886H16.27a.942.942,0,0,0,.942-.942,4.212,4.212,0,0,1,8.424,0,.942.942,0,0,0,.942.942h4.763v3.893ZM48.3,31a.942.942,0,0,0-.942.942,4.213,4.213,0,0,1-8.426,0A.942.942,0,0,0,37.987,31H33.225V27.11a6.1,6.1,0,0,0,0-12.048V11.17h3.451a3.785,3.785,0,0,0,4.078,2.845V16.17a3.818,3.818,0,0,0,5.753,3.292l4.246-2.5a4.918,4.918,0,0,0,2.06-2.395,4.945,4.945,0,0,1,.244,1.536V31H48.3Zm5.633,20.287H51.566a3.032,3.032,0,0,1-2.6-1.49l-2.5-4.246a1.934,1.934,0,0,1,1.668-2.915h3.443a.942.942,0,0,0,.821-1.4,1.814,1.814,0,0,1,.257-2.173,1.781,1.781,0,0,1,2.11-.423,5.32,5.32,0,0,1,2.689,2.856,3.471,3.471,0,0,0-.1.845v6.505a3.483,3.483,0,0,0,.048.57,3.574,3.574,0,0,1-3.468,1.875Zm8.491-2.445a1.594,1.594,0,0,1-3.187,0V42.339a1.594,1.594,0,0,1,3.187,0Z" transform="translate(0 0)"/>
    </g>
  </g>
</svg>
