<svg xmlns="http://www.w3.org/2000/svg" xmlns:xlink="http://www.w3.org/1999/xlink" width="113" height="113" viewBox="0 0 113 113">
  <defs>
    <filter id="Trazado_982547" x="0" y="0" width="113" height="113" filterUnits="userSpaceOnUse">
      <feOffset dy="3" input="SourceAlpha"/>
      <feGaussianBlur stdDeviation="3" result="blur"/>
      <feFlood flood-opacity="0.161"/>
      <feComposite operator="in" in2="blur"/>
      <feComposite in="SourceGraphic"/>
    </filter>
  </defs>
  <g id="Grupo_1226132" data-name="Grupo 1226132" transform="translate(-1215.425 -3584.981)">
    <g id="Grupo_1225353" data-name="Grupo 1225353" transform="translate(-0.575 -393.641)">
      <g id="Grupo_1208124" data-name="Grupo 1208124" transform="translate(0 -1922.377)">
        <g id="Grupo_1202435" data-name="Grupo 1202435" transform="translate(-0.56 1255.486)">
          <g id="Grupo_1202052" data-name="Grupo 1202052" transform="translate(1225.561 4651.514)">
            <g id="Grupo_1172010" data-name="Grupo 1172010" transform="translate(0)">
              <g id="Grupo_1171046" data-name="Grupo 1171046">
                <g id="Grupo_1148525" data-name="Grupo 1148525">
                  <g transform="matrix(1, 0, 0, 1, -9, -6)" filter="url(#Trazado_982547)">
                    <g id="Trazado_982547-2" data-name="Trazado 982547" transform="translate(9 6)" fill="#e5fdfa">
                      <path d="M 47.5 93.5 C 41.28937149047852 93.5 35.26533508300781 92.28397369384766 29.59518623352051 89.88570404052734 C 24.11771965026855 87.56893157958984 19.19813346862793 84.25196075439453 14.97309303283691 80.02691650390625 C 10.74804019927979 75.80186462402344 7.431066513061523 70.88229370117188 5.114293098449707 65.40481567382812 C 2.716026782989502 59.73468017578125 1.5 53.71062850952148 1.5 47.5 C 1.5 41.28937149047852 2.716026782989502 35.26533508300781 5.114293098449707 29.59518623352051 C 7.431066513061523 24.11771965026855 10.74804019927979 19.19813346862793 14.97309303283691 14.97309303283691 C 19.19813346862793 10.74804019927979 24.11771965026855 7.431066513061523 29.59518623352051 5.114293098449707 C 35.26533508300781 2.716026782989502 41.28937149047852 1.5 47.5 1.5 C 53.71062850952148 1.5 59.73468017578125 2.716026782989502 65.40481567382812 5.114293098449707 C 70.88229370117188 7.431066513061523 75.80186462402344 10.74804019927979 80.02691650390625 14.97309303283691 C 84.25196075439453 19.19813346862793 87.56893157958984 24.11771965026855 89.88570404052734 29.59518623352051 C 92.28397369384766 35.26533508300781 93.5 41.28937149047852 93.5 47.5 C 93.5 53.71062850952148 92.28397369384766 59.73468017578125 89.88570404052734 65.40481567382812 C 87.56893157958984 70.88229370117188 84.25196075439453 75.80186462402344 80.02691650390625 80.02691650390625 C 75.80186462402344 84.25196075439453 70.88229370117188 87.56893157958984 65.40481567382812 89.88570404052734 C 59.73468017578125 92.28397369384766 53.71062850952148 93.5 47.5 93.5 Z" stroke="none"/>
                      <path d="M 47.5 3 C 41.49121475219727 3 35.66376876831055 4.176155090332031 30.17950439453125 6.495796203613281 C 24.88084411621094 8.736953735351562 20.12152099609375 11.94598388671875 16.03375244140625 16.03375244140625 C 11.94598388671875 20.12152099609375 8.736953735351562 24.88084411621094 6.495796203613281 30.17950439453125 C 4.176155090332031 35.66376876831055 3 41.49121475219727 3 47.5 C 3 53.50878524780273 4.176155090332031 59.33623123168945 6.495796203613281 64.82049560546875 C 8.736953735351562 70.11915588378906 11.94598388671875 74.87847900390625 16.03375244140625 78.96624755859375 C 20.12152099609375 83.05401611328125 24.88084411621094 86.26304626464844 30.17950439453125 88.50419616699219 C 35.66376876831055 90.82384490966797 41.49121475219727 92 47.5 92 C 53.50878524780273 92 59.33623123168945 90.82384490966797 64.82049560546875 88.50419616699219 C 70.11915588378906 86.26304626464844 74.87847900390625 83.05401611328125 78.96624755859375 78.96624755859375 C 83.05401611328125 74.87847900390625 86.26304626464844 70.11915588378906 88.50419616699219 64.82049560546875 C 90.82384490966797 59.33623123168945 92 53.50878524780273 92 47.5 C 92 41.49121475219727 90.82384490966797 35.66376876831055 88.50419616699219 30.17950439453125 C 86.26304626464844 24.88084411621094 83.05401611328125 20.12152099609375 78.96624755859375 16.03375244140625 C 74.87847900390625 11.94598388671875 70.11915588378906 8.736953735351562 64.82049560546875 6.495796203613281 C 59.33623123168945 4.176155090332031 53.50878524780273 3 47.5 3 M 47.5 0 C 73.7335205078125 0 95 21.2664794921875 95 47.5 C 95 73.7335205078125 73.7335205078125 95 47.5 95 C 21.2664794921875 95 0 73.7335205078125 0 47.5 C 0 21.2664794921875 21.2664794921875 0 47.5 0 Z" stroke="none" fill="#098576"/>
                    </g>
                  </g>
                </g>
              </g>
            </g>
          </g>
        </g>
      </g>
    </g>
    <g id="objetivo_2_" data-name="objetivo (2)" transform="translate(1241.425 3604.59)">
      <path id="Trazado_1214312" data-name="Trazado 1214312" d="M45.928,458.95h-12.9V454.4a2.4,2.4,0,0,1,2.4-2.4H43.53a2.4,2.4,0,0,1,2.4,2.4Zm0,0" transform="translate(-28.651 -392.16)" fill="#a7c7d3"/>
      <path id="Trazado_1214313" data-name="Trazado 1214313" d="M143.4,419.938H130.5v-10.5a2.4,2.4,0,0,1,2.4-2.4H141a2.4,2.4,0,0,1,2.4,2.4Zm0,0" transform="translate(-113.22 -353.148)" fill="#89b4c9"/>
      <path id="Trazado_1214314" data-name="Trazado 1214314" d="M240.877,378.028h-12.9v-16.9a2.4,2.4,0,0,1,2.4-2.4h8.109a2.4,2.4,0,0,1,2.4,2.4Zm0,0" transform="translate(-197.791 -311.239)" fill="#6c96b3"/>
      <path id="Trazado_1214315" data-name="Trazado 1214315" d="M338.354,314.458h-12.9v-26.6a2.4,2.4,0,0,1,2.4-2.4h8.108a2.4,2.4,0,0,1,2.4,2.4Zm0,0" transform="translate(-282.364 -247.669)" fill="#618aaa"/>
      <path id="Trazado_1214316" data-name="Trazado 1214316" d="M351.906,27.021h12.98a.436.436,0,0,0,.288-.764L361.8,23.289a.436.436,0,0,1,0-.655l3.372-2.969a.436.436,0,0,0-.288-.763h-12.98Zm0,0" transform="translate(-305.318 -16.4)" fill="#fdb659"/>
      <path id="Trazado_1214317" data-name="Trazado 1214317" d="M235.9,108.93l-14.061,7.636c-1.255.681-1.6,1.879-2.035,3.421l-2.8,9.887,6.852-2.808,2.66-8.04,7.076-4.3a5.178,5.178,0,0,0,2.3-5.8Zm0,0" transform="translate(-188.282 -94.509)" fill="#83d9ff"/>
      <path id="Trazado_1214318" data-name="Trazado 1214318" d="M235.9,108.93l-1.622.881a5.177,5.177,0,0,1-2.393,3.432l-6.447,3.917a2,2,0,0,0-.86,1.081l-.921,2.783a10.435,10.435,0,0,1-5.95,6.378l-.7,2.473,6.852-2.808,2.66-8.039,7.076-4.3a5.179,5.179,0,0,0,2.3-5.8Zm0,0" transform="translate(-188.282 -94.509)" fill="#5fc9ed"/>
      <path id="Trazado_1214319" data-name="Trazado 1214319" d="M223.864,245.926l4.05,4.785c.671.888,1.255,1.513,1.134,2.491l-.947,7.654h-2.471l-.646-6.581a1.1,1.1,0,0,0-.659-.9l-7.312-4.64Zm0,0" transform="translate(-188.282 -213.368)" fill="#38627c"/>
      <path id="Trazado_1214320" data-name="Trazado 1214320" d="M182.707,248.734l-.4,7.255a3.188,3.188,0,0,1-.176,1.456l-4.663,9.81h2.621l7.011-9.313a3.79,3.79,0,0,0,.6-1.721l1.859-10.3Zm0,0" transform="translate(-153.978 -213.368)" fill="#4f7693"/>
      <path id="Trazado_1214321" data-name="Trazado 1214321" d="M232.562,113.1l1.15,2.244a2.146,2.146,0,0,1-.932,2.889l-.889.455a2.146,2.146,0,0,1-2.888-.932l-1.15-2.244a2.146,2.146,0,0,1,.932-2.889l.889-.455A2.146,2.146,0,0,1,232.562,113.1Zm0,0" transform="translate(-197.483 -97.114)" fill="#fecbaa"/>
      <path id="Trazado_1214322" data-name="Trazado 1214322" d="M60.513,9.112l-2.9-2.551,2.9-2.55a1.43,1.43,0,0,0-.945-2.5H47.582V.993a.993.993,0,1,0-1.987,0v13.4l-8.159,4.43a3.143,3.143,0,0,0-.323-1.044l-1.15-2.244a3.143,3.143,0,0,0-4.225-1.363l-.889.455a3.139,3.139,0,0,0-1.363,4.226l1.15,2.245a3.12,3.12,0,0,0,1.132,1.229,8.7,8.7,0,0,0-1.2,2.882l-.214.758a.993.993,0,0,0,.686,1.226.978.978,0,0,0,.27.038.994.994,0,0,0,.956-.723l.214-.757c.435-1.535.7-2.358,1.554-2.82l1.526-.829.188-.1c.063-.032.121-.068.18-.1l10.877-5.906A4.2,4.2,0,0,1,44.8,19.37l-7.073,4.3-.024.014-2.2,1.337a.993.993,0,0,0,.949,1.743l-1.67,5.049-1.221.5-3.32,1.361.957-3.382a.994.994,0,1,0-1.912-.541L27.774,35.1a.954.954,0,0,0-.036.216l-.4,7.267a3.325,3.325,0,0,1-.081,1.072l-4.394,9.243H19.675a3.4,3.4,0,0,0-3.392,3.391v2.868a3.365,3.365,0,0,0-1.4-.306H6.77a3.4,3.4,0,0,0-3.391,3.391V65.8H.993a.993.993,0,1,0,0,1.987H59.567a.993.993,0,1,0,0-1.987H56.984V40.19A3.4,3.4,0,0,0,53.592,36.8h-6.01V19.467a6.2,6.2,0,0,0,1-5.31.994.994,0,0,0-1-.729V11.615H59.568a1.43,1.43,0,0,0,.945-2.5ZM31.184,17.067a1.144,1.144,0,0,1,.571-.672l.889-.455a1.152,1.152,0,0,1,1.551.5l1.15,2.245a1.154,1.154,0,0,1-.383,1.481l-.324.175-.683.35a1.154,1.154,0,0,1-1.551-.5l-1.15-2.244a1.145,1.145,0,0,1-.071-.879Zm-2,36.132a3.372,3.372,0,0,0-1.091-.291l1.091-1.449Zm4.717-8a3.744,3.744,0,0,0,.716-1.78c.027-.128.517-2.806.517-2.806s.464.289.512.31a.105.105,0,0,1,.061.087l.54,5.494H32.922Zm5.875-5.483-.839,6.783h-.692l-.559-5.683a2.093,2.093,0,0,0-1.17-1.68l-1-.633.666-3.689s2.8,3.331,2.869,3.416c.58.755.779,1.057.725,1.487ZM29.048,44.519a5.386,5.386,0,0,0,.278-1.844l.361-6.628,4.595-1.883-.835,4.626c0,.012-.005.025-.007.038l-.691,3.825a3.785,3.785,0,0,1-.416,1.323l-6.713,8.917h-.553ZM5.365,62.238a1.406,1.406,0,0,1,1.4-1.4h8.108a1.406,1.406,0,0,1,1.405,1.4V65.8H5.365Zm12.9,0V56.285a1.406,1.406,0,0,1,1.405-1.4h8.108a1.406,1.406,0,0,1,1.4,1.4V65.8H18.27V62.238ZM55,40.19V65.8H44.079V59.84a.994.994,0,0,0-1.987,0V65.8H31.174V49.889a1.406,1.406,0,0,1,1.4-1.4h8.108a1.406,1.406,0,0,1,1.4,1.4v4.98a.993.993,0,1,0,1.987,0V40.19a1.406,1.406,0,0,1,1.405-1.4h8.108A1.407,1.407,0,0,1,55,40.19ZM45.484,36.8a3.4,3.4,0,0,0-3.391,3.391V46.8a3.363,3.363,0,0,0-1.152-.3l.81-6.553a3.837,3.837,0,0,0-1.122-2.943c-.067-.087-3.928-4.672-3.928-4.672l2.369-7.162,6.525-3.964V36.8Zm2.1-27.171V3.5h10.51L55.828,5.489a1.429,1.429,0,0,0,0,2.146l2.264,1.993H47.582Zm0,0"/>
    </g>
  </g>
</svg>
