<svg xmlns="http://www.w3.org/2000/svg" xmlns:xlink="http://www.w3.org/1999/xlink" width="190" height="224" viewBox="0 0 190 224">
  <defs>
    <clipPath id="clip-path">
      <rect id="Rectángulo_422081" data-name="Rectángulo 422081" width="190" height="224" transform="translate(1230 4108)" fill="#fff" stroke="#707070" stroke-width="1"/>
    </clipPath>
  </defs>
  <g id="Enmascarar_grupo_1208490" data-name="Enmascarar grupo 1208490" transform="translate(-1230 -4108)" clip-path="url(#clip-path)">
    <g id="Grupo_1226203" data-name="Grupo 1226203" transform="translate(961.145 3855.362)">
      <g id="Grupo_1226201" data-name="Grupo 1226201" transform="translate(329.465 257.235)">
        <g id="Grupo_1226189" data-name="Grupo 1226189" transform="translate(0 66.981)">
          <g id="Grupo_1226187" data-name="Grupo 1226187">
            <g id="Grupo_1226185" data-name="Grupo 1226185" transform="translate(3.368)">
              <path id="Trazado_1214432" data-name="Trazado 1214432" d="M443.9,387.485s3.465-14.292-15.158-20.788-17.324-3.465-11.693-43.742l-28.151-2.6s-.866,36.38-9.1,38.545-30.605-7.8-42.3,16.025-7.651,83.731-7.651,83.731l85.9,11.983S443.472,413.9,443.9,387.485Z" transform="translate(-329.183 -320.355)" fill="#ffafa4"/>
              <path id="Trazado_1214433" data-name="Trazado 1214433" d="M379.032,357.974c-.172-.037-.345-.069-.517-.107,6.628-6.373,7.37-37.511,7.37-37.511l28.151,2.6c-1.686,12.067-2.984,20.245-3.474,25.957C404.994,352.453,393.4,358.42,379.032,357.974Z" transform="translate(-326.165 -320.355)" fill="#ea8d83"/>
              <path id="Trazado_1214434" data-name="Trazado 1214434" d="M337.071,387.662c8.744,10.508,17.85,20.765,27.037,30.887,14.93,16.449,30.533,32.265,46.645,47.55l-80.894-11.285s-2.973-44.085,3.562-71.658Q335.222,385.427,337.071,387.662Z" transform="translate(-329.183 -316.513)" fill="#ea8d83"/>
            </g>
            <g id="Grupo_1226186" data-name="Grupo 1226186" transform="translate(0 36.3)">
              <path id="Trazado_1214435" data-name="Trazado 1214435" d="M418.4,469.267s27.429-59.766,28.006-79.689-24.813-29.4-24.813-29.4-3.573,17.841-29.678,13.49c-20.235-3.372-16.188-18.886-16.188-18.886s-23.445-2.738-35.573,11.121c-3.659,4.182-9.494,16.143-11.535,29.6-.406,2.676,11.627,4.152,11.627,4.152l-7.475,48.17-6.765,21.732Z" transform="translate(-326.009 -354.562)" fill="#cefcf7"/>
              <path id="Trazado_1214436" data-name="Trazado 1214436" d="M366.762,436.3c20.814-6.762,37.989-18.666,53.023-34.451,8.21-8.62,15.706-17.834,23.009-27.206a24.206,24.206,0,0,1,3.613,13.711c-.577,19.922-28.006,79.689-28.006,79.689l-92.393.289s.232-10.321,1.012-24.5C340.523,442.658,353.909,440.471,366.762,436.3Z" transform="translate(-326.009 -353.334)" fill="#002838" opacity="0.1"/>
            </g>
          </g>
          <g id="Grupo_1226188" data-name="Grupo 1226188" transform="translate(27.026 42.983)">
            <path id="Trazado_1214437" data-name="Trazado 1214437" d="M446.468,409s4.452,54.907-3.265,57.578-73.9-6.827-73.9-6.827-17.214,18.995-2.968-2.078c0,0-20.776,20.182-3.858-1.187,0,0-22.853,13.653-2.671-2.968,0,0-19.86,5.276,2.671-4.156,12.762-5.342,56.985-8.607,56.985-8.607L415.6,409.3l30.57-10.685Z" transform="translate(-351.477 -358.551)" fill="#ffafa4"/>
            <path id="Trazado_1214438" data-name="Trazado 1214438" d="M416.078,443.072c13.059,1.484,30.228,6.691,30.228,6.691s9.014-85.976-26.074-88.9c0,0-16.912,21.541-12.84,37.9C410.252,410.24,411.181,442.515,416.078,443.072Z" transform="translate(-348.095 -360.86)" fill="#cefcf7"/>
          </g>
        </g>
        <g id="Grupo_1226200" data-name="Grupo 1226200" transform="translate(37.131)">
          <g id="Grupo_1226192" data-name="Grupo 1226192">
            <g id="Grupo_1226190" data-name="Grupo 1226190" transform="translate(1.04 15.804)">
              <path id="Trazado_1214439" data-name="Trazado 1214439" d="M418.607,324.1s9.924-29.376-4.764-41.683-37.449-19.584-45.785,14.159c-5.7,23.088-12.439,50.416,5.823,57.959S411.858,344.344,418.607,324.1Z" transform="translate(-361.979 -272.128)" fill="#ffafa4"/>
              <path id="Trazado_1214440" data-name="Trazado 1214440" d="M410.608,327.836s4.134-15.987,7.994-15.712,6.615,3.584,4.686,9.647S409.782,337.758,410.608,327.836Z" transform="translate(-359.007 -269.681)" fill="#ffafa4"/>
            </g>
            <g id="Grupo_1226191" data-name="Grupo 1226191">
              <path id="Trazado_1214441" data-name="Trazado 1214441" d="M436.638,290.336c-.632-4.642-5.042-6.28-7.466-6.209,6.637-26.651-36.933-20.036-46.266-18.431-9.5,1.633-7.57-8.461-7.57-8.461-7.422,4.9-2.821,13.359-2.821,13.359-4.453-2.523-3.859-8.609-3.859-8.609a19.969,19.969,0,0,0,.3,23.6l-2.821-2.226c3.55,15.762,41.734,9.383,45.039,8.8-.219.114-.439.222-.658.335-5.869,15.4,4.448,19.282,4.448,19.282l-3.5,12.24c-3.346,10.274-8.691,23.1-14.255,21.9-9.167-1.982.991-9.662-10.653-13.131-8.077-2.406-21.307-4.955-21.554,8.672s-3.221-6.937-3.221-6.937-3.469,19.077,4.212,22.793,35.677,8.176,42.366-8.424a155.511,155.511,0,0,0,5.722-18.453,78.983,78.983,0,0,0,2.734-7.544c2.117-6.616,4.5-6.616,4.5-6.616,1.323-.265,2.911,1.323,2.911,1.323S438.226,301.981,436.638,290.336Z" transform="translate(-361 -257.235)" fill="#01334c"/>
              <path id="Trazado_1214442" data-name="Trazado 1214442" d="M435.116,289.93c-.632-4.642-5.042-6.28-7.466-6.209,3.343-13.423-6.052-18.406-17.393-19.842,1.314,10.55.167,21.382-5.6,28.617,2.567-.328,4.383-.636,5-.744-.219.114-.439.222-.658.335-5.869,15.4,4.448,19.281,4.448,19.281l-3.5,12.24c-3.346,10.274-8.691,23.1-14.255,21.9-.193-.041-.366-.09-.543-.137-.818,6-3.693,11.581-9.241,14.934l-.021.012c8.844-.471,17.591-3.491,20.954-11.836a155.528,155.528,0,0,0,5.722-18.453,79,79,0,0,0,2.734-7.544c2.117-6.616,4.5-6.616,4.5-6.616,1.323-.265,2.911,1.323,2.911,1.323S436.7,301.575,435.116,289.93Z" transform="translate(-359.478 -256.829)" fill="#002838"/>
            </g>
          </g>
          <g id="Grupo_1226199" data-name="Grupo 1226199" transform="translate(6.729 41.695)">
            <g id="Grupo_1226193" data-name="Grupo 1226193">
              <path id="Trazado_1214443" data-name="Trazado 1214443" d="M381.5,303.13l-2.493-1.012c-.341-.135-.693-.278-1.062-.4-.352-.156-.746-.237-1.1-.386-.386-.073-.742-.242-1.121-.3-.185-.045-.374-.075-.553-.138l-.558-.077c-.363-.118-.744-.06-1.115-.146-.376-.024-.758-.007-1.144-.054-.384.019-.773.04-1.162.032s-.761.073-1.13.083a8.524,8.524,0,0,0-1.038.072c-.314.038-.612.048-.859.065-.5.028-.82.012-.82.012a5.041,5.041,0,0,1,.365-.724c.132-.218.291-.492.5-.78a4.486,4.486,0,0,1,.805-.874,7.705,7.705,0,0,1,1.129-.877,12.775,12.775,0,0,1,1.478-.706,10.066,10.066,0,0,1,1.768-.369,7.85,7.85,0,0,1,1.9.073l.937.2c.3.1.59.224.879.337a3.676,3.676,0,0,1,.816.411c.256.155.51.3.742.475a8.11,8.11,0,0,1,1.186,1.116,7,7,0,0,1,.829,1.163,6.271,6.271,0,0,1,.744,1.987A3.356,3.356,0,0,1,381.5,303.13Z" transform="translate(-367.341 -296.527)" fill="#01334c"/>
            </g>
            <g id="Grupo_1226194" data-name="Grupo 1226194" transform="translate(20.464 0.216)">
              <path id="Trazado_1214444" data-name="Trazado 1214444" d="M386.625,301.7a8.622,8.622,0,0,1,2.235-2.569,11.047,11.047,0,0,1,3.057-1.746,9.775,9.775,0,0,1,2-.531,9.568,9.568,0,0,1,2.222-.1,8.646,8.646,0,0,1,2.252.5A7.483,7.483,0,0,1,401.8,299.8a8.3,8.3,0,0,1,.888,1.519,8.4,8.4,0,0,1,.436,1.372,6.624,6.624,0,0,1,.157,1.082,7.073,7.073,0,0,1,.006.953s-.294-.219-.718-.6c-.2-.2-.495-.4-.774-.653s-.629-.49-.957-.767a11.671,11.671,0,0,0-2.331-1.351c-.208-.089-.429-.151-.636-.239-.226-.046-.435-.129-.662-.176a9.441,9.441,0,0,0-1.394-.212,26.3,26.3,0,0,0-6,.49l-2.274.354C386.978,301.657,386.625,301.7,386.625,301.7Z" transform="translate(-386.625 -296.73)" fill="#01334c"/>
            </g>
            <g id="Grupo_1226195" data-name="Grupo 1226195" transform="translate(48.744 19.373)">
              <path id="Trazado_1214445" data-name="Trazado 1214445" d="M413.275,329.414a5.37,5.37,0,0,0,1.063-.711,1.961,1.961,0,0,0,.64-.908c.006-.082.049-.154.03-.233a.992.992,0,0,0-.018-.225l-.065-.223-.124-.221a4.366,4.366,0,0,0-.324-.423l-.412-.4-.21-.2.047-.336c.1-.741.226-1.46.388-2.18s.32-1.439.537-2.147a19.646,19.646,0,0,1,1.672-4.18,5.766,5.766,0,0,1,1.62-1.888,1.953,1.953,0,0,1,1.557-.3,4.243,4.243,0,0,1,.551.187,2.446,2.446,0,0,1,.61.351,3.144,3.144,0,0,1,.833.974,3.953,3.953,0,0,1,.389,1.132,5.489,5.489,0,0,1-.038,2.245,7.662,7.662,0,0,0-.572-2.053,2.743,2.743,0,0,0-1.205-1.4,1.875,1.875,0,0,0-.354-.144,3.149,3.149,0,0,0-.5-.1.788.788,0,0,0-.489.223,4.623,4.623,0,0,0-1.048,1.5,16.207,16.207,0,0,0-.827,1.9c-.242.659-.491,1.323-.706,2-.439,1.352-.855,2.734-1.253,4.1l-.163-.54.448.571a4.587,4.587,0,0,1,.344.684l.119.38c.019.139.029.28.038.417a1.826,1.826,0,0,1-.051.419,1.42,1.42,0,0,1-.152.385,1.544,1.544,0,0,1-.224.326,1.8,1.8,0,0,1-.267.264,2.567,2.567,0,0,1-.6.377A4.149,4.149,0,0,1,413.275,329.414Z" transform="translate(-413.275 -314.783)" fill="#ff8973"/>
            </g>
            <g id="Grupo_1226196" data-name="Grupo 1226196" transform="translate(3.068 9.079)">
              <path id="Trazado_1214446" data-name="Trazado 1214446" d="M381.532,305.082c-1.023,1.79-1.962,3.593-2.863,5.411s-1.763,3.645-2.562,5.5c-.389.931-.813,1.846-1.174,2.789s-.756,1.87-1.1,2.818c-.369.939-.673,1.9-1.033,2.847-.341.952-.624,1.922-.972,2.875l-.606-.91c3.037.549,6.066,1.163,9.07,1.961-3.107-.029-6.19-.24-9.264-.517l-.8-.072.191-.838a49.409,49.409,0,0,1,1.694-5.967c.336-.979.7-1.952,1.11-2.9.193-.481.407-.952.623-1.422s.413-.95.657-1.407c.472-.922.947-1.841,1.463-2.739s1.06-1.777,1.646-2.631,1.187-1.695,1.838-2.5A22.7,22.7,0,0,1,381.532,305.082Z" transform="translate(-370.232 -305.082)" fill="#ff8973"/>
            </g>
            <g id="Grupo_1226197" data-name="Grupo 1226197" transform="translate(1.573 7.887)">
              <path id="Trazado_1214447" data-name="Trazado 1214447" d="M368.838,309.631a4.692,4.692,0,0,1-.007-.659,6.834,6.834,0,0,1,.307-1.724,5.956,5.956,0,0,1,.471-1.113,4.547,4.547,0,0,1,.858-1.127,3.363,3.363,0,0,1,.623-.486,2.652,2.652,0,0,1,.749-.363,3.806,3.806,0,0,1,1.672-.177l.105.007.052,0,.027,0,.089.019.168.042.335.084a4.489,4.489,0,0,1,.806.34,3.546,3.546,0,0,1,1.191,1.134,3.8,3.8,0,0,1,.558,1.334,4.756,4.756,0,0,1,.136,1.215,6.213,6.213,0,0,1-.247,1.74,4.418,4.418,0,0,1-.224.621s-.024-.24-.086-.642a13.642,13.642,0,0,0-.331-1.6,6.991,6.991,0,0,0-.352-.965,3.791,3.791,0,0,0-.558-.886,3.318,3.318,0,0,0-.367-.355c-.145-.083-.291-.189-.429-.259a3.614,3.614,0,0,0-.464-.174l-.337-.077-.169-.039-.011,0H373.4l.064.013h-.051l-.068,0a2.739,2.739,0,0,0-1.049.068,2.563,2.563,0,0,0-.936.45,6.069,6.069,0,0,0-1.412,1.575c-.358.557-.63,1.065-.817,1.427S368.838,309.631,368.838,309.631Z" transform="translate(-368.823 -303.959)" fill="#01334c"/>
            </g>
            <g id="Grupo_1226198" data-name="Grupo 1226198" transform="translate(22.948 10.113)">
              <path id="Trazado_1214448" data-name="Trazado 1214448" d="M388.981,311.729a4.774,4.774,0,0,1-.009-.659,6.837,6.837,0,0,1,.307-1.724,5.958,5.958,0,0,1,.471-1.113,4.547,4.547,0,0,1,.858-1.127,3.359,3.359,0,0,1,.623-.486,2.652,2.652,0,0,1,.749-.363,3.806,3.806,0,0,1,1.672-.177l.105.007.052,0,.027,0,.089.019.168.042.335.084a4.485,4.485,0,0,1,.806.34,3.545,3.545,0,0,1,1.191,1.134,3.8,3.8,0,0,1,.558,1.334,4.759,4.759,0,0,1,.136,1.215,6.214,6.214,0,0,1-.247,1.74,4.422,4.422,0,0,1-.224.621s-.024-.24-.086-.642a13.651,13.651,0,0,0-.331-1.6,6.989,6.989,0,0,0-.352-.965,3.79,3.79,0,0,0-.558-.886,3.318,3.318,0,0,0-.367-.355c-.145-.083-.291-.188-.429-.259a3.607,3.607,0,0,0-.464-.174l-.337-.077-.169-.039-.011,0h-.005l.064.013h-.051l-.068,0a2.719,2.719,0,0,0-1.05.068,2.562,2.562,0,0,0-.936.45,6.069,6.069,0,0,0-1.412,1.575c-.358.557-.63,1.065-.817,1.427S388.981,311.729,388.981,311.729Z" transform="translate(-388.966 -306.057)" fill="#01334c"/>
            </g>
            <path id="Trazado_1214449" data-name="Trazado 1214449" d="M368.769,334.029l20.155-.756S381.366,341.335,368.769,334.029Z" transform="translate(-367.254 -294.279)" fill="#fff"/>
          </g>
        </g>
      </g>
      <g id="Grupo_1226202" data-name="Grupo 1226202" transform="translate(269.519 411.668)">
        <path id="Trazado_1214450" data-name="Trazado 1214450" d="M309.887,460.726a2.487,2.487,0,0,0,2.487,2.487h94.517a2.487,2.487,0,0,0,2.487-2.487h0a2.487,2.487,0,0,0-2.487-2.487H312.374a2.488,2.488,0,0,0-2.487,2.487Z" transform="translate(-267.05 -399.373)" fill="#002838"/>
        <path id="Trazado_1214451" data-name="Trazado 1214451" d="M269.519,462.462a4.145,4.145,0,0,0,4.145,4.146h82.08a4.146,4.146,0,0,0,4.146-4.146v-55.55a4.146,4.146,0,0,0-4.146-4.146h-82.08a4.145,4.145,0,0,0-4.145,4.146Z" transform="translate(-269.519 -402.766)" fill="#01334c"/>
        <path id="Trazado_1214452" data-name="Trazado 1214452" d="M349.219,462.462v-55.55a4.146,4.146,0,0,0-4.146-4.146h6.051a4.146,4.146,0,0,1,4.146,4.146v55.55a4.145,4.145,0,0,1-4.146,4.145h-6.051A4.145,4.145,0,0,0,349.219,462.462Z" transform="translate(-264.897 -402.766)" fill="#002838"/>
      </g>
    </g>
  </g>
</svg>
