<svg xmlns="http://www.w3.org/2000/svg" xmlns:xlink="http://www.w3.org/1999/xlink" width="108" height="108" viewBox="0 0 108 108">
  <defs>
    <filter id="Trazado_904820" x="0" y="0" width="108" height="108" filterUnits="userSpaceOnUse">
      <feOffset dy="3" input="SourceAlpha"/>
      <feGaussianBlur stdDeviation="3" result="blur"/>
      <feFlood flood-opacity="0.161"/>
      <feComposite operator="in" in2="blur"/>
      <feComposite in="SourceGraphic"/>
    </filter>
  </defs>
  <g id="Grupo_1226093" data-name="Grupo 1226093" transform="translate(-195 -498)">
    <g id="Grupo_1224979" data-name="Grupo 1224979" transform="translate(204 504)">
      <g id="Grupo_1173585" data-name="Grupo 1173585" transform="translate(0 0)">
        <g id="Grupo_1173428" data-name="Grupo 1173428">
          <g id="Grupo_1171958" data-name="Grupo 1171958">
            <g id="Grupo_1167341" data-name="Grupo 1167341">
              <g id="Grupo_1166792" data-name="Grupo 1166792">
                <g transform="matrix(1, 0, 0, 1, -9, -6)" filter="url(#Trazado_904820)">
                  <g id="Trazado_904820-2" data-name="Trazado 904820" transform="translate(9 6)" fill="#e5fdfa">
                    <path d="M 44.99999618530273 88.50003051757812 C 39.12687301635742 88.50003051757812 33.43022155761719 87.35010528564453 28.06829643249512 85.08219146728516 C 22.88852119445801 82.89134216308594 18.23629570007324 79.75461578369141 14.24084663391113 75.75916290283203 C 10.24540901184082 71.76371765136719 7.108683586120605 67.11148834228516 4.917821407318115 61.93171691894531 C 2.649921178817749 56.56978988647461 1.499996185302734 50.87313842773438 1.499996185302734 45.00001525878906 C 1.499996185302734 39.12689208984375 2.649921178817749 33.43024063110352 4.917821407318115 28.06830215454102 C 7.108683586120605 22.88852691650391 10.24540901184082 18.23631477355957 14.24084663391113 14.24086570739746 C 18.23629570007324 10.24541568756104 22.88852119445801 7.10869026184082 28.06829643249512 4.917827606201172 C 33.43022155761719 2.649927854537964 39.12687301635742 1.50000274181366 44.99999618530273 1.50000274181366 C 50.87311935424805 1.50000274181366 56.56977081298828 2.649927854537964 61.93169784545898 4.917827606201172 C 67.11147308349609 7.10869026184082 71.76369476318359 10.24541568756104 75.75914764404297 14.24086570739746 C 79.75458526611328 18.23631477355957 82.89131164550781 22.88852691650391 85.08216857910156 28.06830215454102 C 87.35007476806641 33.43024063110352 88.5 39.12689208984375 88.5 45.00001525878906 C 88.5 50.87313842773438 87.35007476806641 56.56978988647461 85.08216857910156 61.93171691894531 C 82.89131164550781 67.11148834228516 79.75458526611328 71.76371765136719 75.75914764404297 75.75916290283203 C 71.76369476318359 79.75461578369141 67.11147308349609 82.89134216308594 61.93169784545898 85.08219146728516 C 56.56977081298828 87.35010528564453 50.87311935424805 88.50003051757812 44.99999618530273 88.50003051757812 Z" stroke="none"/>
                    <path d="M 44.99999618530273 3 C 39.32870864868164 3 33.82865142822266 4.110061645507812 28.65262603759766 6.299346923828125 C 23.65165710449219 8.414573669433594 19.15968322753906 11.44334411621094 15.301513671875 15.301513671875 C 11.44333648681641 19.15968322753906 8.414566040039062 23.65165710449219 6.299339294433594 28.65262985229492 C 4.110054016113281 33.82867050170898 2.999992370605469 39.32872772216797 2.999992370605469 45.00001525878906 C 2.999992370605469 50.67130279541016 4.110054016113281 56.17136001586914 6.299339294433594 61.34738922119141 C 8.414566040039062 66.34837341308594 11.44333648681641 70.84033203125 15.301513671875 74.69850158691406 C 19.15968322753906 78.55668640136719 23.65165710449219 81.58545684814453 28.65262603759766 83.70068359375 C 33.82865142822266 85.88996887207031 39.32870864868164 87.00003051757812 44.99999618530273 87.00003051757812 C 50.67128372192383 87.00003051757812 56.17134094238281 85.88996887207031 61.34736633300781 83.70068359375 C 66.34834289550781 81.58545684814453 70.84030914306641 78.55668640136719 74.69847869873047 74.69850158691406 C 78.55665588378906 70.84033203125 81.58542633056641 66.34837341308594 83.70065307617188 61.34738922119141 C 85.88993835449219 56.17136001586914 87 50.67130279541016 87 45.00001525878906 C 87 39.32872772216797 85.88993835449219 33.82867050170898 83.70065307617188 28.65262985229492 C 81.58542633056641 23.65165710449219 78.55665588378906 19.15968322753906 74.69847869873047 15.301513671875 C 70.84030914306641 11.44334411621094 66.34834289550781 8.414573669433594 61.34736633300781 6.299346923828125 C 56.17134094238281 4.110061645507812 50.67128372192383 3 44.99999618530273 3 M 44.99999618530273 0 C 69.85281372070312 0 90 20.14718627929688 90 45.00001525878906 C 90 69.85282897949219 69.85281372070312 90.00003051757812 44.99999618530273 90.00003051757812 C 20.14717864990234 90.00003051757812 -7.62939453125e-06 69.85282897949219 -7.62939453125e-06 45.00001525878906 C -7.62939453125e-06 20.14718627929688 20.14717864990234 0 44.99999618530273 0 Z" stroke="none" fill="#098576"/>
                  </g>
                </g>
              </g>
            </g>
          </g>
        </g>
      </g>
    </g>
    <g id="proceso-de-trabajo" transform="translate(214.46 514.459)">
      <g id="Grupo_1226091" data-name="Grupo 1226091" transform="translate(1.079 1.079)">
        <path id="Trazado_1214237" data-name="Trazado 1214237" d="M60.688,10.766h0a30.7,30.7,0,0,0-30.54,27.6l8.1-.379A22.745,22.745,0,0,1,60.688,18.76l-.036.013v3.1l7.835-6.33L60.652,8v2.779" transform="translate(-27.16 -8)" fill="#ffe27a"/>
        <path id="Trazado_1214238" data-name="Trazado 1214238" d="M110.838,75.292l5.9-4.768a22.715,22.715,0,0,0-28.578,20.89l.276-.013a22.745,22.745,0,0,1,22.437-19.225l-.036.013Z" transform="translate(-77.345 -61.417)" fill="#f9cf58"/>
        <path id="Trazado_1214239" data-name="Trazado 1214239" d="M173.279,156.793l-2.567-.386a11.978,11.978,0,0,0-1.888-4.556l1.543-2.089a.919.919,0,0,0-.089-1.2l-1.329-1.329a.919.919,0,0,0-1.2-.089l-2.089,1.543a11.977,11.977,0,0,0-4.555-1.888l-.386-2.567a.918.918,0,0,0-.908-.782h-1.879a.918.918,0,0,0-.908.782l-.386,2.567a11.976,11.976,0,0,0-4.555,1.888L150,147.15a.918.918,0,0,0-1.2.089l-1.329,1.329a.919.919,0,0,0-.089,1.2l1.543,2.089a11.977,11.977,0,0,0-1.888,4.556l-2.567.386a.918.918,0,0,0-.782.908v1.879a.919.919,0,0,0,.782.908l2.567.386a11.977,11.977,0,0,0,1.888,4.556l-1.543,2.089a.919.919,0,0,0,.089,1.2l1.329,1.329a.918.918,0,0,0,1.2.089l2.089-1.543a11.976,11.976,0,0,0,4.555,1.888l.386,2.567a.919.919,0,0,0,.908.782h1.879a.918.918,0,0,0,.908-.782l.386-2.567a11.975,11.975,0,0,0,4.555-1.888l2.089,1.543a.918.918,0,0,0,1.2-.089l1.329-1.329a.919.919,0,0,0,.089-1.2l-1.543-2.089a11.977,11.977,0,0,0,1.888-4.556l2.567-.386a.918.918,0,0,0,.782-.908V157.7A.918.918,0,0,0,173.279,156.793Zm-14.4,7.926a6.078,6.078,0,1,1,6.078-6.078A6.078,6.078,0,0,1,158.876,164.719Z" transform="translate(-125.384 -125.18)" fill="#ff4755"/>
        <path id="Trazado_1214240" data-name="Trazado 1214240" d="M10.8,205.535c0,.01,0,.021,0,.031a30.7,30.7,0,0,0,27.6,30.541l-.476-8.12a22.706,22.706,0,0,1-19.13-22.421c0-.01,0-.021,0-.031h3.084l-6.33-7.835L8,205.535h2.779" transform="translate(-8 -172.105)" fill="#8bcaff"/>
        <path id="Trazado_1214241" data-name="Trazado 1214241" d="M205.535,298.1h.063a22.706,22.706,0,0,0,22.42-19.124l8.127-.552a30.7,30.7,0,0,1-30.547,27.67h-.063v2.767l-7.835-7.545,7.835-6.33v3.1Z" transform="translate(-172.105 -241.935)" fill="#98db7c"/>
        <path id="Trazado_1214242" data-name="Trazado 1214242" d="M223.341,266.214a6.1,6.1,0,0,0-.122-1.214,6.079,6.079,0,0,1-11.913,0,6.078,6.078,0,1,0,12.034,1.214Z" transform="translate(-183.77 -230.324)" fill="#fc2b3a"/>
        <path id="Trazado_1214243" data-name="Trazado 1214243" d="M217.224,303.663a30.833,30.833,0,0,1-6.084-.6l6.021,5.8v-2.767h.063a30.7,30.7,0,0,0,30.547-27.67l-.418.434A30.7,30.7,0,0,1,217.224,303.663Z" transform="translate(-183.732 -241.936)" fill="#82d361"/>
        <path id="Trazado_1214244" data-name="Trazado 1214244" d="M53.344,283.462a30.71,30.71,0,0,1-24.517-27.694h-.094c0,.01,0,.021,0,.031a30.7,30.7,0,0,0,27.6,30.54Z" transform="translate(-25.936 -222.338)" fill="#6cc4ff"/>
        <path id="Trazado_1214245" data-name="Trazado 1214245" d="M306.332,60.18c0-.01,0-.021,0-.031A30.7,30.7,0,0,0,278.664,29.6l4.808,4.63-4.315,3.487a22.706,22.706,0,0,1,19.182,22.429c0,.01,0,.021,0,.031h-3.146l6.33,7.835,7.545-7.835Z" transform="translate(-242.145 -26.687)" fill="#ffba57"/>
        <g id="Grupo_1226090" data-name="Grupo 1226090" transform="translate(37.012 9.108)">
          <path id="Trazado_1214246" data-name="Trazado 1214246" d="M284.7,75.5l-2.382,1.924a22.708,22.708,0,0,1,19.149,21.221q.032-.606.033-1.22A22.71,22.71,0,0,0,284.7,75.5Z" transform="translate(-282.316 -75.501)" fill="#ffac3e"/>
        </g>
      </g>
      <g id="Grupo_1226092" data-name="Grupo 1226092" transform="translate(0 0)">
        <path id="Trazado_1214247" data-name="Trazado 1214247" d="M210.675,203.347A7.108,7.108,0,0,0,204,212.891a1.014,1.014,0,1,0,1.9-.7,5.076,5.076,0,1,1,2.154,2.608,1.014,1.014,0,0,0-1.047,1.737,7.1,7.1,0,1,0,3.662-13.193Z" transform="translate(-176.104 -175.911)"/>
        <path id="Trazado_1214248" data-name="Trazado 1214248" d="M166.754,149.088l-1.88-.283a12.917,12.917,0,0,0-1.5-3.626l1.13-1.53a1.923,1.923,0,0,0-.188-2.517l-1.331-1.331a1.923,1.923,0,0,0-2.517-.188l-1.53,1.13a12.911,12.911,0,0,0-3.626-1.5l-.283-1.88a1.923,1.923,0,0,0-1.913-1.647H151.23a1.923,1.923,0,0,0-1.913,1.647l-.283,1.88a12.912,12.912,0,0,0-3.626,1.5l-1.53-1.13a1.923,1.923,0,0,0-2.517.188l-1.331,1.331a1.922,1.922,0,0,0-.188,2.517l1.13,1.53a12.9,12.9,0,0,0-1.5,3.626l-1.88.283A1.922,1.922,0,0,0,135.943,151v1.883a1.922,1.922,0,0,0,1.647,1.913l1.88.283a12.912,12.912,0,0,0,1.5,3.626l-1.13,1.53a1.922,1.922,0,0,0,.188,2.517l1.331,1.331a1.923,1.923,0,0,0,2.517.188l1.53-1.13a12.911,12.911,0,0,0,3.626,1.5l.283,1.88a1.923,1.923,0,0,0,1.913,1.647h1.883a1.923,1.923,0,0,0,1.913-1.647l.283-1.88a12.911,12.911,0,0,0,3.626-1.5l1.53,1.13a1.923,1.923,0,0,0,2.517-.188l1.331-1.331a1.923,1.923,0,0,0,.188-2.517l-1.13-1.53a12.908,12.908,0,0,0,1.5-3.626l1.88-.283a1.922,1.922,0,0,0,1.647-1.913V151a1.922,1.922,0,0,0-1.646-1.913Zm-.381,3.715-2.492.375a1.014,1.014,0,0,0-.846.816,10.932,10.932,0,0,1-1.732,4.179,1.014,1.014,0,0,0,.022,1.175l1.5,2.028-1.217,1.217-2.028-1.5a1.015,1.015,0,0,0-1.175-.021,10.932,10.932,0,0,1-4.179,1.732,1.014,1.014,0,0,0-.816.846l-.375,2.492h-1.721l-.375-2.492a1.014,1.014,0,0,0-.816-.846,10.932,10.932,0,0,1-4.179-1.732,1.013,1.013,0,0,0-1.175.022l-2.028,1.5-1.217-1.217,1.5-2.028a1.014,1.014,0,0,0,.021-1.175,10.93,10.93,0,0,1-1.732-4.179,1.014,1.014,0,0,0-.846-.816l-2.492-.375v-1.721l2.492-.375a1.014,1.014,0,0,0,.846-.816,10.931,10.931,0,0,1,1.732-4.179,1.014,1.014,0,0,0-.021-1.175l-1.5-2.028,1.217-1.217,2.028,1.5a1.014,1.014,0,0,0,1.175.022,10.934,10.934,0,0,1,4.179-1.732,1.014,1.014,0,0,0,.816-.846l.375-2.492h1.721l.375,2.492a1.014,1.014,0,0,0,.816.846,10.93,10.93,0,0,1,4.179,1.732,1.014,1.014,0,0,0,1.175-.021l2.028-1.5,1.217,1.217-1.5,2.028a1.014,1.014,0,0,0-.022,1.175,10.931,10.931,0,0,1,1.732,4.179,1.014,1.014,0,0,0,.846.816l2.492.375Z" transform="translate(-117.601 -117.402)"/>
        <path id="Trazado_1214249" data-name="Trazado 1214249" d="M69,34.175a1.014,1.014,0,0,0-.933-.617H66.326a31.77,31.77,0,0,0-28.268-30.6L35.274.281a1.021,1.021,0,0,0-1.717.73V2.785A31.545,31.545,0,0,0,16.284,8.557a1.014,1.014,0,1,0,1.169,1.657A29.549,29.549,0,0,1,34.571,4.8a1.014,1.014,0,0,0,1.014-1.014V3.4l5.305,5.11-5.306,4.287v-1a1.014,1.014,0,0,0-1.014-1.014A23.768,23.768,0,0,0,11.533,28.711L9.36,26.021a1.02,1.02,0,0,0-1.519-.066L5.46,28.428A29.705,29.705,0,0,1,14.4,12.681a1.014,1.014,0,1,0-1.375-1.49A31.707,31.707,0,0,0,3,30.982L.281,33.806a1.021,1.021,0,0,0,.73,1.717h1.8a31.772,31.772,0,0,0,28.2,30.589L33.8,68.8a1.02,1.02,0,0,0,1.717-.73V66.3A31.526,31.526,0,0,0,53.073,60.37a1.014,1.014,0,0,0-1.182-1.648,29.537,29.537,0,0,1-17.332,5.561h-.051A1.014,1.014,0,0,0,33.494,65.3v.388l-5.305-5.11,5.305-4.287v1A1.014,1.014,0,0,0,34.5,58.3h.069A23.768,23.768,0,0,0,57.592,40.429l2.126,2.631a1.02,1.02,0,0,0,1.519.066l2.46-2.555a29.723,29.723,0,0,1-8.774,15.657,1.014,1.014,0,0,0,1.388,1.478,31.726,31.726,0,0,0,9.837-19.681L68.8,35.275a1.013,1.013,0,0,0,.2-1.1ZM26.02,59.72a1.02,1.02,0,0,0-.066,1.519l2.506,2.413A29.751,29.751,0,0,1,4.828,34.544v-.035A1.014,1.014,0,0,0,3.815,33.5H3.4L8.5,28.19,12.791,33.5h-.967a1.011,1.011,0,0,0-1.014,1.01v.035A23.768,23.768,0,0,0,28.688,57.565Zm22.729-8.71a21.722,21.722,0,0,1-13.228,5.242V54.166a1.021,1.021,0,0,0-1.651-.789l-3.16,2.553A21.739,21.739,0,0,1,12.86,35.523h2.054a1.021,1.021,0,0,0,.789-1.651L13.17,30.737A21.739,21.739,0,0,1,33.556,12.831v2.084a1.021,1.021,0,0,0,1.651.789l3.172-2.563a21.739,21.739,0,0,1,17.9,20.417H54.164a1.021,1.021,0,0,0-.789,1.651l2.583,3.2a21.744,21.744,0,0,1-7.209,12.6ZM60.574,40.892l-4.287-5.306h1.03a1.011,1.011,0,0,0,1.014-1.01v-.035A23.769,23.769,0,0,0,40.406,11.5l2.652-2.143a1.02,1.02,0,0,0,.066-1.519L40.6,5.413A29.75,29.75,0,0,1,64.313,34.537v.035a1.014,1.014,0,0,0,1.014,1.014h.357Z" transform="translate(0 0)"/>
      </g>
    </g>
  </g>
</svg>
