<svg xmlns="http://www.w3.org/2000/svg" xmlns:xlink="http://www.w3.org/1999/xlink" width="210" height="236" viewBox="0 0 210 236">
  <defs>
    <clipPath id="clip-path">
      <rect id="Rectángulo_422080" data-name="Rectángulo 422080" width="210" height="236" transform="translate(1210 1457)" fill="#fff" stroke="#707070" stroke-width="1"/>
    </clipPath>
  </defs>
  <g id="Enmascarar_grupo_1208489" data-name="Enmascarar grupo 1208489" transform="translate(-1210 -1457)" clip-path="url(#clip-path)">
    <g id="Grupo_1226229" data-name="Grupo 1226229" transform="translate(1215.244 1464)">
      <g id="Grupo_1226228" data-name="Grupo 1226228" transform="translate(0 0)">
        <g id="Grupo_1226226" data-name="Grupo 1226226" transform="translate(18.081)">
          <g id="Grupo_1226209" data-name="Grupo 1226209" transform="translate(0 30.497)">
            <g id="Grupo_1226205" data-name="Grupo 1226205" transform="translate(73.958 41.465)">
              <path id="Trazado_1214454" data-name="Trazado 1214454" d="M124.927,327.506s-9.931,37.414,3.233,48.5,27.945-6.236,32.8,22.172-85.684,16.4-100.928-4.62S72.5,370.694,83.815,372.772s10.855-9.931,12.01-26.791S124.927,327.506,124.927,327.506Z" transform="translate(-55.557 -327.506)" fill="#ea8d83"/>
              <path id="Trazado_1214455" data-name="Trazado 1214455" d="M116.8,362.47A82.338,82.338,0,0,1,87.284,369.5c2.641-4.534,2.741-13.1,3.454-23.516,1.155-16.86,29.1-18.476,29.1-18.476S114.56,347.4,116.8,362.47Z" transform="translate(-50.469 -327.506)" fill="#d36a62" opacity="0.5"/>
            </g>
            <g id="Grupo_1226208" data-name="Grupo 1226208">
              <g id="Grupo_1226206" data-name="Grupo 1226206">
                <path id="Trazado_1214456" data-name="Trazado 1214456" d="M155.91,313.562c4.99-34.474,5-3.313,5-3.313,4.324-37.808,4.525-.4,4.525-.4,5.932-42.635,4.525,1.106,4.525,1.106,9.05-34.591,3.645,1.7,3.645,1.7l-.453,5.443c21.319-24.04-.453,7.711-.453,7.711s-.218.594-.614,1.655c-1.043,19.27-2.322,44.939-2.322,44.939l4.262.275c11.8.045,33.138.685,49.094,4.291-1.6,10.4-2.928,20.892-2.679,31.291a212,212,0,0,1-28.508-3.229c-29.415-4.939-47.4-5.693-50.835-13.825C136.677,388.7,151.246,345.784,155.91,313.562Z" transform="translate(-140.269 -291.182)" fill="#ea8d83"/>
                <path id="Trazado_1214457" data-name="Trazado 1214457" d="M140.858,363.469a170.937,170.937,0,0,1,23.288,3.269c-1.6,10.4-2.929,20.9-2.68,31.3A165.775,165.775,0,0,1,144.1,396.5C140.317,386.092,139.554,374.475,140.858,363.469Z" transform="translate(-81.3 -280.952)" fill="#d36a62" opacity="0.5"/>
              </g>
              <g id="Grupo_1226207" data-name="Grupo 1226207" transform="translate(61.354 83.688)">
                <path id="Trazado_1214458" data-name="Trazado 1214458" d="M145.372,373.041s-15.591,24.892-45.359,21.319C77.333,391.639,85.5,366.237,85.5,366.237s-13.155-2.721-14.515-1.361c-6.8,6.8-24.04,51.256-13.608,67.132s12.7,45.359,12.7,45.359l57.606-4.99s45.853-48.976,46.266-76.658C174.4,365.33,145.372,373.041,145.372,373.041Z" transform="translate(-54.1 -364.495)" fill="#fd8"/>
                <path id="Trazado_1214459" data-name="Trazado 1214459" d="M101.051,423.706c16.148-1.36,35.309-1.943,49.281-11.114,7.053-4.63,11.987-10.8,16.5-17.825,2.065-3.217,4.121-6.534,6.448-9.6a37,37,0,0,1,.611,7.625c-.413,27.68-46.266,76.658-46.266,76.658l-57.606,4.99s-2.268-29.484-12.7-45.359a22.578,22.578,0,0,1-3.216-8.991C69.351,424.892,87.342,424.86,101.051,423.706Z" transform="translate(-54.038 -361.57)" fill="#f9cb64"/>
              </g>
              <path id="Trazado_1214460" data-name="Trazado 1214460" d="M57.359,463.648s-19.2,5.1,2.582-4.017c12.339-5.165,55.091-8.322,55.091-8.322l-.519-4.24c-3.579-19.366-10.472-65.166,3.068-71.224,17.237-7.711,24.494,2.721,25.4,47.627.8,39.622,5.127,58.05-15.052,53.117-20.112-.993-61.39-6.915-61.39-6.915s-16.642,18.363-2.87-2.009c0,0-20.086,19.512-3.73-1.147C59.942,466.518,37.847,479.716,57.359,463.648Z" transform="translate(42.755 -279.529)" fill="#ea8d83"/>
            </g>
          </g>
          <g id="Grupo_1226225" data-name="Grupo 1226225" transform="translate(60.415)">
            <g id="Grupo_1226211" data-name="Grupo 1226211" transform="translate(0)">
              <path id="Trazado_1214461" data-name="Trazado 1214461" d="M146.613,327.084s5.774-27.484-15.012-36.26-41.11,3.926-45.961,29.562S90.7,371.22,108.5,369.579C141.07,366.577,146.613,327.084,146.613,327.084Z" transform="translate(-61.16 -261.126)" fill="#ea8d83"/>
              <g id="Grupo_1226210" data-name="Grupo 1226210">
                <path id="Trazado_1214462" data-name="Trazado 1214462" d="M75.626,295.317c-4.619-7.852-8.776-4.388-8.776-4.388s1.848-5.081,10.162-1.616a21.154,21.154,0,0,0,6.2,1.583c-7.315-2.8-14.6-8.646-12.894-16.6,0,0,2.541,7.852,6.929,7.622s17.091-17.553,27.022-8.545,16.628-9.469,34.644,3.7a30.075,30.075,0,0,1,8.339,8.787c-.045-.1-.082-.2-.13-.306a23.918,23.918,0,0,0-2.831-4.418,13.347,13.347,0,0,0-.965-1.113c-.346-.364-.664-.76-1.046-1.115-.776-.693-1.5-1.5-2.373-2.159L138.62,275.7c-.443-.349-.953-.681-1.435-1.03l-1.441-1.018c-.5-.306-.985-.65-1.5-.934a22.377,22.377,0,0,0-3.2-1.549,16.8,16.8,0,0,0-3.417-.865,15.565,15.565,0,0,0-7.134.96c-1.24.382-2.512.839-3.918,1.163a11.09,11.09,0,0,1-4.484.208,10.127,10.127,0,0,1-4.121-1.759c-.324-.209-.524-.4-.791-.594l-.41-.313-.352-.257c-.477-.326-.913-.721-1.412-.994a13.729,13.729,0,0,0-6.2-2.032,17.722,17.722,0,0,0-5.992.626,21.9,21.9,0,0,0-4.824,2.041,21.511,21.511,0,0,0-1.862,1.2,14.95,14.95,0,0,0-1.5,1.159c-.455.356-.8.727-1.124,1.033a7.2,7.2,0,0,0-.786.83l-.622.727.491-.821a7.4,7.4,0,0,1,.64-.958,11.15,11.15,0,0,1,.986-1.232,15.82,15.82,0,0,1,1.366-1.4,17.663,17.663,0,0,1,1.782-1.484,20.273,20.273,0,0,1,4.905-2.71,17.834,17.834,0,0,1,6.64-1.226,15.154,15.154,0,0,1,7.415,1.983,20.058,20.058,0,0,1,1.707,1.1l.425.289.358.249c.251.171.537.4.76.525a8.246,8.246,0,0,0,3,1.181c2.1.384,4.443-.519,7.016-1.372a18.449,18.449,0,0,1,8.432-.975,19.192,19.192,0,0,1,7.6,3.026c.559.338,1.068.726,1.6,1.082.574.421.981.766,1.465,1.154.465.385.929.731,1.379,1.135l1.325,1.233a32.663,32.663,0,0,1,2.374,2.483c.368.412.676.87,1.006,1.289a14.712,14.712,0,0,1,.917,1.278,21.8,21.8,0,0,1,2.508,5.005,16.834,16.834,0,0,1,.793,3.862,16.211,16.211,0,0,1,1.838-2.06,15.442,15.442,0,0,1,1.769-1.42l.962-.6,1.007-.516a15.6,15.6,0,0,1,2.1-.8,16.1,16.1,0,0,1,2.173-.513,20.566,20.566,0,0,1,2.205-.211,18.609,18.609,0,0,1,2.2.009c.732.025,1.453.152,2.176.223.717.121,1.43.253,2.14.392.7.177,1.406.339,2.1.529l2.056.669-2.116-.405-2.121-.324-2.128-.187c-.71,0-1.419-.06-2.123-.018a20.754,20.754,0,0,0-2.1.142,19.487,19.487,0,0,0-2.064.338,18.959,18.959,0,0,0-1.987.591,14.179,14.179,0,0,0-1.883.823l-.888.51-.839.581a15.987,15.987,0,0,0-1.544,1.328c-.11.108-.21.225-.316.337a9.777,9.777,0,0,1,1.446-.584c.388-.094.774-.216,1.164-.281l1.172-.154a17.277,17.277,0,0,1,2.332.015,19.377,19.377,0,0,1,2.251.268c.773.1,1.49.3,2.233.461.726.215,1.46.4,2.169.669l1.063.395,1.035.467a18.312,18.312,0,0,1,1.976,1.11,10.6,10.6,0,0,1,.933.639,13.108,13.108,0,0,1,3.724,4.138,9.069,9.069,0,0,0-1.436-1.672,13.946,13.946,0,0,0-1.7-1.385,10.47,10.47,0,0,0-.917-.594,10.076,10.076,0,0,0-.953-.53,17.429,17.429,0,0,0-1.987-.884l-1.018-.377-1.042-.309c-.692-.211-1.409-.341-2.113-.5-.715-.1-1.435-.272-2.136-.323l-1.1-.115c-.366-.034-.708-.023-1.062-.038a15.959,15.959,0,0,0-2.1.087l-.479.078a13.5,13.5,0,0,1,12.5,6.792c11.317,18.014-2.541,29.331-8.315,36.26,0,0-4.157-6.467-8.083.923s0,10.624-9.931,12.01c0,0,5.311-.693,3.926-7.622s0-12.01,2.772-14.781c0,0-4.359-8.4-3.638-16.314-.041.09-.077.176-.12.268a17.165,17.165,0,0,1-1.982,3.3,12.429,12.429,0,0,1-3.422,3.146,11.1,11.1,0,0,1-2.381,1.057,10.358,10.358,0,0,1-2.7.4,12.391,12.391,0,0,1-2.79-.259c-.939-.2-1.778-.47-2.637-.678a31.692,31.692,0,0,0-5.235-.928,12.418,12.418,0,0,0-5.061.47,12.807,12.807,0,0,0-4.25,2.544c-.64.541-1.258,1.107-1.877,1.658a8.712,8.712,0,0,1-2.1,1.552,7.819,7.819,0,0,1-4.7.566,14.71,14.71,0,0,1-3.694-1.129,21.722,21.722,0,0,1-2.6-1.366,18.973,18.973,0,0,1-2.086-1.45,24.579,24.579,0,0,0,2.251,1.138,26.522,26.522,0,0,0,2.673,1.043,15.782,15.782,0,0,0,3.569.748,7.01,7.01,0,0,0,3.964-.733,7.318,7.318,0,0,0,1.7-1.436c.583-.592,1.194-1.193,1.852-1.785a13.913,13.913,0,0,1,4.724-3,12.559,12.559,0,0,1,3.769-.652c-8.722-1.58-7.269,2.095-12.728,5.6-5.832,3.749-12.7-7.852-19.4-1.155s-12.471,3.927-16.4-2.079c0,0,6.929,4.62,10.393-.231s2.772-8.776,9.931-8.083c0,0-7.852-2.079-12.24,2.079s-6.236,4.618-9.469-.693a4.742,4.742,0,0,0,7.16-.693c1.712-2.055,2.636-4.447,4.3-6.2A7.947,7.947,0,0,1,75.626,295.317Zm68.961,8.871c-.03.082-.063.169-.095.255l.074-.146C144.573,304.259,144.579,304.223,144.587,304.187Z" transform="translate(-66.85 -264.465)" fill="#01334c"/>
                <path id="Trazado_1214463" data-name="Trazado 1214463" d="M67.712,316.647c.413.16.855.322,1.331.479a15.78,15.78,0,0,0,3.569.748,7.01,7.01,0,0,0,3.964-.733,7.317,7.317,0,0,0,1.7-1.436c.583-.592,1.194-1.193,1.852-1.785a13.913,13.913,0,0,1,4.724-3,12.559,12.559,0,0,1,3.769-.652c-8.722-1.58-7.269,2.095-12.728,5.6-1.705,1.1-3.5.877-5.355.188a23.728,23.728,0,0,0,7.562-3.249c2.654-1.786,5.074-4.872,5.15-8.181.072-3.124-.586-6.447,3.531-7.273a8.541,8.541,0,0,0,3.955-1.662c7.3-5.916,8.672-14.271,8.241-23.068a27.242,27.242,0,0,1,7.4,3.982,30.075,30.075,0,0,1,8.339,8.787c-.045-.1-.082-.2-.13-.306a23.918,23.918,0,0,0-2.831-4.418,13.335,13.335,0,0,0-.965-1.113c-.346-.364-.664-.76-1.046-1.115-.776-.693-1.5-1.5-2.373-2.159l-1.282-1.049c-.443-.349-.953-.681-1.435-1.03l-1.441-1.018c-.5-.306-.985-.65-1.5-.934a22.357,22.357,0,0,0-2.842-1.393q-.115-1.551-.284-3.113a23.069,23.069,0,0,1,4.5,2.257c.559.338,1.068.726,1.6,1.082.574.421.981.766,1.465,1.154.465.385.929.731,1.379,1.135l1.325,1.233a32.648,32.648,0,0,1,2.374,2.483c.368.412.676.87,1.006,1.289a14.715,14.715,0,0,1,.917,1.278,21.8,21.8,0,0,1,2.508,5.006,16.834,16.834,0,0,1,.793,3.862,16.213,16.213,0,0,1,1.838-2.06,15.441,15.441,0,0,1,1.769-1.42l.962-.6,1.007-.516a15.6,15.6,0,0,1,2.1-.8,16.11,16.11,0,0,1,2.173-.513,20.567,20.567,0,0,1,2.205-.211,18.6,18.6,0,0,1,2.2.009c.732.025,1.453.152,2.176.223.717.121,1.43.253,2.14.392.7.177,1.406.339,2.1.529l2.056.669-2.116-.405-2.121-.324-2.128-.187c-.71,0-1.419-.061-2.123-.018a20.754,20.754,0,0,0-2.1.142,19.488,19.488,0,0,0-2.064.338,18.952,18.952,0,0,0-1.987.591,14.188,14.188,0,0,0-1.883.823l-.888.51-.839.581a16,16,0,0,0-1.544,1.328c-.11.108-.21.225-.316.337a9.779,9.779,0,0,1,1.446-.584c.388-.094.774-.216,1.164-.281l1.172-.154a17.277,17.277,0,0,1,2.332.015,19.383,19.383,0,0,1,2.251.268c.773.1,1.49.3,2.233.461.726.215,1.46.4,2.169.669l1.063.395,1.035.467a18.317,18.317,0,0,1,1.976,1.11,10.608,10.608,0,0,1,.933.639,13.107,13.107,0,0,1,3.724,4.138,9.068,9.068,0,0,0-1.436-1.672,13.945,13.945,0,0,0-1.7-1.385,10.48,10.48,0,0,0-.917-.594,10.086,10.086,0,0,0-.953-.53,17.433,17.433,0,0,0-1.987-.884l-1.018-.377-1.042-.309c-.692-.211-1.409-.341-2.113-.5-.715-.1-1.435-.272-2.136-.323l-1.1-.115c-.366-.034-.708-.023-1.062-.038a15.959,15.959,0,0,0-2.1.087l-.479.078a13.5,13.5,0,0,1,12.5,6.792c11.317,18.014-2.541,29.331-8.315,36.26,0,0-4.157-6.467-8.083.923s0,10.624-9.931,12.01c0,0,5.311-.693,3.926-7.622s0-12.01,2.772-14.781c0,0-4.359-8.4-3.638-16.314-.041.09-.076.176-.12.268a17.164,17.164,0,0,1-1.982,3.3,12.429,12.429,0,0,1-3.422,3.146,11.1,11.1,0,0,1-2.381,1.057,10.358,10.358,0,0,1-2.7.4,12.393,12.393,0,0,1-2.79-.259c-.939-.2-1.778-.47-2.637-.678a31.685,31.685,0,0,0-5.235-.928,12.418,12.418,0,0,0-5.061.47,12.807,12.807,0,0,0-4.25,2.544c-.64.541-1.258,1.107-1.877,1.657a8.71,8.71,0,0,1-2.1,1.552,7.818,7.818,0,0,1-4.7.566,14.706,14.706,0,0,1-3.694-1.129,20.218,20.218,0,0,1-1.947-.985C67.139,316.735,67.426,316.695,67.712,316.647Z" transform="translate(-34.325 -264.001)" fill="#002838"/>
                <path id="Trazado_1214464" data-name="Trazado 1214464" d="M91.913,299.263c-.03.082-.063.169-.095.255l.074-.146C91.9,299.335,91.9,299.3,91.913,299.263Z" transform="translate(-14.176 -259.541)" fill="#002838"/>
              </g>
            </g>
            <g id="Grupo_1226224" data-name="Grupo 1226224" transform="translate(14.55 50.544)">
              <g id="Grupo_1226214" data-name="Grupo 1226214" transform="translate(21.705 7.56)">
                <g id="Grupo_1226212" data-name="Grupo 1226212" transform="translate(0)">
                  <path id="Trazado_1214465" data-name="Trazado 1214465" d="M129.39,315.366c-1.21,3.536-2.288,7.064-3.526,10.505-.326.853-.621,1.716-.97,2.551s-.708,1.663-1.1,2.463a16.506,16.506,0,0,1-1.323,2.257,6.247,6.247,0,0,1-.789.949,3.63,3.63,0,0,1-.895.663l-1.336.765,1.26.606c2.611,1.257,5.241,2.478,7.986,3.49-2.337-1.76-4.787-3.31-7.258-4.825l-.076,1.371a4.923,4.923,0,0,0,1.4-.872,7.749,7.749,0,0,0,1.065-1.114,10,10,0,0,0,.846-1.219c.261-.414.487-.84.713-1.267a23.153,23.153,0,0,0,1.155-2.615c.338-.885.654-1.773.913-2.678a48.556,48.556,0,0,0,1.291-5.466A41.608,41.608,0,0,0,129.39,315.366Z" transform="translate(-119.454 -315.366)" fill="#d36a62"/>
                </g>
                <g id="Grupo_1226213" data-name="Grupo 1226213" transform="translate(1.245 29.523)">
                  <path id="Trazado_1214466" data-name="Trazado 1214466" d="M110,341.229a6.02,6.02,0,0,0,.6.7,11.178,11.178,0,0,0,1.868,1.555,11.711,11.711,0,0,0,1.406.84,13.93,13.93,0,0,0,1.685.736,12.657,12.657,0,0,0,1.905.53,13.6,13.6,0,0,0,2.032.273,15.929,15.929,0,0,0,2.05-.034,17.23,17.23,0,0,0,1.954-.32,16.24,16.24,0,0,0,1.754-.552,9.026,9.026,0,0,0,1.485-.685,7.5,7.5,0,0,0,1.186-.688c.336-.233.618-.452.849-.628.461-.356.71-.571.71-.571s-.329.084-.88.252c-.274.087-.607.186-.976.318s-.81.214-1.268.346c-.47.1-.949.289-1.489.356s-1.088.205-1.663.281c-.581.043-1.175.119-1.78.143a15.118,15.118,0,0,1-1.832-.027,11.981,11.981,0,0,1-1.824-.185c-.6-.076-1.186-.21-1.756-.333-.559-.153-1.112-.29-1.626-.454-.508-.18-1-.329-1.442-.511-.892-.341-1.626-.68-2.141-.928S110,341.229,110,341.229Z" transform="translate(-110 -341.229)" fill="#d36a62"/>
                </g>
              </g>
              <g id="Grupo_1226221" data-name="Grupo 1226221" transform="translate(0)">
                <g id="Grupo_1226219" data-name="Grupo 1226219" transform="translate(0)">
                  <g id="Grupo_1226216" data-name="Grupo 1226216" transform="translate(32.125 2.772)">
                    <ellipse id="Elipse_12991" data-name="Elipse 12991" cx="12.125" cy="13.049" rx="12.125" ry="13.049" transform="translate(0.67 0.286)" fill="#fff"/>
                    <g id="Grupo_1226215" data-name="Grupo 1226215">
                      <path id="Trazado_1214467" data-name="Trazado 1214467" d="M122.2,324.682c-.87,17.383-24.71,16.739-25.562-.268-.39-7.8,6.42-13.65,13.836-13.22,6.959.4,11.4,6.971,11.723,13.4.024.489-1.29.207-1.309-.185-.381-7.622-6.2-14.53-14.775-11.993-4.774,1.412-7.4,6.263-8.092,10.839-1.239,8.181,6.4,15.786,14.7,13.331,5.3-1.568,7.91-7.183,8.163-12.261C120.9,323.962,122.222,324.216,122.2,324.682Z" transform="translate(-96.622 -311.171)" fill="#00d7cf"/>
                    </g>
                  </g>
                  <path id="Trazado_1214468" data-name="Trazado 1214468" d="M123.523,323.2s-2.079-5.774-5.081-.693" transform="translate(-90.727 -307.092)" fill="none" stroke="#00d7cf" stroke-miterlimit="10" stroke-width="1.589"/>
                  <line id="Línea_1578" data-name="Línea 1578" x1="14.551" y2="0.925" transform="translate(57.046 17.491)" fill="none" stroke="#00d7cf" stroke-miterlimit="10" stroke-width="1.589"/>
                  <line id="Línea_1579" data-name="Línea 1579" x2="8.921" y2="1.245" transform="translate(0 11.717)" fill="none" stroke="#00d7cf" stroke-miterlimit="10" stroke-width="1.589"/>
                  <g id="Grupo_1226218" data-name="Grupo 1226218" transform="translate(3.025)">
                    <ellipse id="Elipse_12992" data-name="Elipse 12992" cx="12.125" cy="13.049" rx="12.125" ry="13.049" transform="translate(0.67 0.286)" fill="#fff"/>
                    <g id="Grupo_1226217" data-name="Grupo 1226217" transform="translate(0)">
                      <path id="Trazado_1214469" data-name="Trazado 1214469" d="M147.693,322.254c-.87,17.383-24.71,16.739-25.562-.268-.39-7.8,6.42-13.65,13.836-13.22,6.957.4,11.4,6.971,11.723,13.4.024.489-1.29.207-1.309-.185-.381-7.622-6.2-14.53-14.775-11.993-4.775,1.412-7.4,6.263-8.092,10.839-1.239,8.18,6.4,15.786,14.7,13.331,5.3-1.568,7.91-7.184,8.164-12.261C146.4,321.533,147.715,321.788,147.693,322.254Z" transform="translate(-122.115 -308.743)" fill="#00d7cf"/>
                    </g>
                  </g>
                </g>
                <g id="Grupo_1226220" data-name="Grupo 1226220" transform="translate(12.84 13.531)">
                  <path id="Trazado_1214470" data-name="Trazado 1214470" d="M112.878,326.272c-.185,2.058.309,3.785,1.1,3.857s1.59-1.539,1.776-3.6-.308-3.785-1.1-3.857S113.065,324.213,112.878,326.272Z" transform="translate(-89.447 -320.303)" fill="#01334c"/>
                  <path id="Trazado_1214471" data-name="Trazado 1214471" d="M133.371,324.2c-.186,2.058.308,3.785,1.1,3.857s1.59-1.539,1.776-3.6-.308-3.785-1.1-3.857S133.556,322.138,133.371,324.2Z" transform="translate(-133.332 -320.597)" fill="#01334c"/>
                </g>
              </g>
              <g id="Grupo_1226223" data-name="Grupo 1226223" transform="translate(64.392 13.749)">
                <path id="Trazado_1214472" data-name="Trazado 1214472" d="M82.206,325.223s7.548-10.567,9.977.923c3.76,17.784-20.287,17.342-12.868,10.393C83.26,332.845,82.206,325.223,82.206,325.223Z" transform="translate(-77.885 -320.788)" fill="#ea8d83"/>
                <g id="Grupo_1226222" data-name="Grupo 1226222" transform="translate(3.738 3.674)">
                  <path id="Trazado_1214473" data-name="Trazado 1214473" d="M88.634,328.925a9.653,9.653,0,0,0-.6-2.155,5.768,5.768,0,0,0-1.255-1.992,2.641,2.641,0,0,0-1.186-.693,1.886,1.886,0,0,0-.757-.058,1.826,1.826,0,0,0-.723.178,3.663,3.663,0,0,0-1.172.769,7.659,7.659,0,0,0-.76.862,8.157,8.157,0,0,0-.681,1.032,10.926,10.926,0,0,0-.5,1.074,14.4,14.4,0,0,0-.679,2.224,20.768,20.768,0,0,0-.32,2.266,16.19,16.19,0,0,0-.022,2.3l.019.4.292.208c.24.17.5.385.742.588a8.949,8.949,0,0,1,.7.638,2.6,2.6,0,0,1,.807,1.285c.019.143-.09.3-.316.465a2.758,2.758,0,0,1-.834.37,15.031,15.031,0,0,1-2,.408,8.75,8.75,0,0,0,2.1.2,3.512,3.512,0,0,0,1.123-.216,1.587,1.587,0,0,0,.573-.358,1.373,1.373,0,0,0,.392-.677,2.188,2.188,0,0,0-.184-1.369,5.621,5.621,0,0,0-.608-1,9.4,9.4,0,0,0-1.522-1.608l.313.606c.009-.662.095-1.381.161-2.07a18.889,18.889,0,0,1,.345-2.054,15.054,15.054,0,0,1,.554-1.966,10.47,10.47,0,0,1,.849-1.75,6.157,6.157,0,0,1,.621-.829c.153-.114.39-.421.592-.5a1.049,1.049,0,0,1,.637-.163,1.7,1.7,0,0,1,.739.283,6.211,6.211,0,0,1,1.392,1.457A17.916,17.916,0,0,1,88.634,328.925Z" transform="translate(-79.393 -324.007)" fill="#d36a62"/>
                </g>
              </g>
            </g>
          </g>
        </g>
        <g id="Grupo_1226227" data-name="Grupo 1226227" transform="translate(0 160.326)">
          <path id="Trazado_1214474" data-name="Trazado 1214474" d="M91.555,463.065a2.676,2.676,0,0,0,2.676,2.676H195.9a2.676,2.676,0,0,0,2.676-2.676h0a2.676,2.676,0,0,0-2.676-2.676H94.231a2.676,2.676,0,0,0-2.676,2.676Z" transform="translate(-42.047 -397.066)" fill="#002838"/>
          <path id="Trazado_1214475" data-name="Trazado 1214475" d="M143.946,469.131a4.459,4.459,0,0,0,4.46,4.459H236.7a4.458,4.458,0,0,0,4.459-4.459l-3.427-59.756a4.46,4.46,0,0,0-4.46-4.46H144.978a4.46,4.46,0,0,0-4.46,4.46Z" transform="translate(-140.518 -404.916)" fill="#01334c"/>
          <path id="Trazado_1214476" data-name="Trazado 1214476" d="M148.4,469.131l-3.427-59.756a4.46,4.46,0,0,0-4.46-4.46h6.509a4.46,4.46,0,0,1,4.46,4.46l3.427,59.756a4.458,4.458,0,0,1-4.459,4.459h-6.509A4.459,4.459,0,0,0,148.4,469.131Z" transform="translate(-54.27 -404.916)" fill="#002838"/>
        </g>
      </g>
    </g>
  </g>
</svg>
