<svg xmlns="http://www.w3.org/2000/svg" xmlns:xlink="http://www.w3.org/1999/xlink" width="108" height="108" viewBox="0 0 108 108">
  <defs>
    <filter id="Trazado_904820" x="0" y="0" width="108" height="108" filterUnits="userSpaceOnUse">
      <feOffset dy="3" input="SourceAlpha"/>
      <feGaussianBlur stdDeviation="3" result="blur"/>
      <feFlood flood-opacity="0.161"/>
      <feComposite operator="in" in2="blur"/>
      <feComposite in="SourceGraphic"/>
    </filter>
  </defs>
  <g id="Grupo_1227807" data-name="Grupo 1227807" transform="translate(-619.667 -332.17)">
    <g id="Grupo_1225753" data-name="Grupo 1225753" transform="translate(0 15.17)">
      <g id="Grupo_1225396" data-name="Grupo 1225396" transform="translate(0.16)">
        <g id="Grupo_1221187" data-name="Grupo 1221187" transform="translate(-0.32)">
          <g id="Grupo_1220471" data-name="Grupo 1220471" transform="translate(628.827 323)">
            <g id="Grupo_1219977" data-name="Grupo 1219977" transform="translate(0 0)">
              <g id="Grupo_1219603" data-name="Grupo 1219603">
                <g id="Grupo_1202655" data-name="Grupo 1202655" transform="translate(0)">
                  <g id="Grupo_1173585" data-name="Grupo 1173585">
                    <g id="Grupo_1173428" data-name="Grupo 1173428">
                      <g id="Grupo_1171958" data-name="Grupo 1171958">
                        <g id="Grupo_1167341" data-name="Grupo 1167341">
                          <g id="Grupo_1166792" data-name="Grupo 1166792">
                            <g transform="matrix(1, 0, 0, 1, -9, -6)" filter="url(#Trazado_904820)">
                              <g id="Trazado_904820-2" data-name="Trazado 904820" transform="translate(9 6)" fill="#fef9e5">
                                <path d="M 44.99999618530273 88.49999237060547 C 39.12687301635742 88.49999237060547 33.43022155761719 87.35006713867188 28.06829643249512 85.08216857910156 C 22.88852119445801 82.89130401611328 18.23629570007324 79.75457763671875 14.24084663391113 75.75914001464844 C 10.24540901184082 71.76369476318359 7.108683586120605 67.11146545410156 4.917821407318115 61.93169403076172 C 2.649921178817749 56.56976699829102 1.499996185302734 50.87311553955078 1.499996185302734 44.99999237060547 C 1.499996185302734 39.12686920166016 2.649921178817749 33.43021774291992 4.917821407318115 28.06829261779785 C 7.108683586120605 22.88851737976074 10.24540901184082 18.23630523681641 14.24084663391113 14.24085521697998 C 18.23629570007324 10.24540519714355 22.88852119445801 7.108692169189453 28.06829643249512 4.917829990386963 C 33.43022155761719 2.649929761886597 39.12687301635742 1.500004887580872 44.99999618530273 1.500004887580872 C 50.87311935424805 1.500004887580872 56.56977081298828 2.649929761886597 61.93169784545898 4.917829990386963 C 67.11147308349609 7.108692169189453 71.76369476318359 10.24540519714355 75.75914764404297 14.24085521697998 C 79.75458526611328 18.23630523681641 82.89131164550781 22.88851737976074 85.08216857910156 28.06829261779785 C 87.35007476806641 33.43021774291992 88.5 39.12686920166016 88.5 44.99999237060547 C 88.5 50.87311553955078 87.35007476806641 56.56976699829102 85.08216857910156 61.93169403076172 C 82.89131164550781 67.11146545410156 79.75458526611328 71.76369476318359 75.75914764404297 75.75914001464844 C 71.76369476318359 79.75457763671875 67.11147308349609 82.89130401611328 61.93169784545898 85.08216857910156 C 56.56977081298828 87.35006713867188 50.87311935424805 88.49999237060547 44.99999618530273 88.49999237060547 Z" stroke="none"/>
                                <path d="M 44.99999618530273 2.999992370605469 C 39.32870864868164 2.999992370605469 33.82865142822266 4.11004638671875 28.65262603759766 6.299331665039062 C 23.65165710449219 8.414566040039062 19.15968322753906 11.44333648681641 15.301513671875 15.30150604248047 C 11.44333648681641 19.15967559814453 8.414566040039062 23.65164947509766 6.299339294433594 28.65262222290039 C 4.110054016113281 33.82864761352539 2.999992370605469 39.32870483398438 2.999992370605469 44.99999237060547 C 2.999992370605469 50.67127990722656 4.110054016113281 56.17132186889648 6.299339294433594 61.34736633300781 C 8.414566040039062 66.34833526611328 11.44333648681641 70.84029388427734 15.301513671875 74.69846343994141 C 19.15968322753906 78.55663299560547 23.65165710449219 81.58540344238281 28.65262603759766 83.70063781738281 C 33.82865142822266 85.88992309570312 39.32870864868164 86.99997711181641 44.99999618530273 86.99997711181641 C 50.67128372192383 86.99997711181641 56.17134094238281 85.88992309570312 61.34736633300781 83.70063781738281 C 66.34834289550781 81.58540344238281 70.84030914306641 78.55663299560547 74.69847869873047 74.69846343994141 C 78.55665588378906 70.84029388427734 81.58542633056641 66.34833526611328 83.70065307617188 61.34736633300781 C 85.88993835449219 56.17132186889648 87 50.67127990722656 87 44.99999237060547 C 87 39.32870483398438 85.88993835449219 33.82864761352539 83.70065307617188 28.65262222290039 C 81.58542633056641 23.65164947509766 78.55665588378906 19.15967559814453 74.69847869873047 15.30150604248047 C 70.84030914306641 11.44333648681641 66.34834289550781 8.414566040039062 61.34736633300781 6.299331665039062 C 56.17134094238281 4.11004638671875 50.67128372192383 2.999992370605469 44.99999618530273 2.999992370605469 M 44.99999618530273 -7.62939453125e-06 C 69.85281372070312 -7.62939453125e-06 90 20.14717864990234 90 44.99999237060547 C 90 69.85279083251953 69.85281372070312 89.99997711181641 44.99999618530273 89.99997711181641 C 20.14717864990234 89.99997711181641 -7.62939453125e-06 69.85279083251953 -7.62939453125e-06 44.99999237060547 C -7.62939453125e-06 20.14717864990234 20.14717864990234 -7.62939453125e-06 44.99999618530273 -7.62939453125e-06 Z" stroke="none" fill="#866d08"/>
                              </g>
                            </g>
                          </g>
                        </g>
                      </g>
                    </g>
                  </g>
                </g>
              </g>
            </g>
          </g>
        </g>
      </g>
    </g>
    <g id="ingeniero-de-software_1_" data-name="ingeniero-de-software (1)" transform="translate(647.659 338.148)">
      <g id="Grupo_1227806" data-name="Grupo 1227806" transform="translate(0 13.87)">
        <g id="Grupo_1227772" data-name="Grupo 1227772" transform="translate(9.896 0.888)">
          <path id="Trazado_1215950" data-name="Trazado 1215950" d="M102.913,27.431c-3.977,1.042-5.793,4.159-5.059,8.672l.72,4.429H124.99l.643-4.429c1.938-13.395-19-17.763-22.719-8.672Z" transform="translate(-97.695 -22.639)" fill="#554e56" fill-rule="evenodd"/>
        </g>
        <g id="Grupo_1227773" data-name="Grupo 1227773" transform="translate(6.617 18.781)">
          <path id="Trazado_1215951" data-name="Trazado 1215951" d="M68.848,199.286c-5.3,0-4.393,7.475,1.184,7.057a7.1,7.1,0,0,0-.548-7.057Z" transform="translate(-65.325 -199.286)" fill="#f6a96c" fill-rule="evenodd"/>
        </g>
        <g id="Grupo_1227774" data-name="Grupo 1227774" transform="translate(35.401 18.781)">
          <path id="Trazado_1215952" data-name="Trazado 1215952" d="M351.288,199.286c-2.043,2.287-2.486,4.689-.548,7.057,5.577.418,6.48-7.057,1.184-7.057Z" transform="translate(-349.499 -199.286)" fill="#f6a96c" fill-rule="evenodd"/>
        </g>
        <g id="Grupo_1227775" data-name="Grupo 1227775" transform="translate(18.418 0.888)">
          <path id="Trazado_1215953" data-name="Trazado 1215953" d="M181.836,23.875c7.021-.509,15.82,4.159,15.046,12.757-.02.219-.047.445-.078.671l-.467,3.225h4.271l.643-4.429c1.6-11.06-12.391-15.965-19.415-12.224Z" transform="translate(-181.836 -22.634)" fill="#433f43" fill-rule="evenodd"/>
        </g>
        <g id="Grupo_1227776" data-name="Grupo 1227776" transform="translate(10.776 14.713)">
          <path id="Trazado_1215954" data-name="Trazado 1215954" d="M119.55,159.125l-7.322.013c-3.213,0-3.9.4-5.847,4.054v4a9.56,9.56,0,0,0,.548,3.059,14.841,14.841,0,0,0,2.107,3.953l10.352,2.776,10.754-2.776a14.845,14.845,0,0,0,2.107-3.953,9.559,9.559,0,0,0,.548-3.059v-4c-1.951-3.65-2.716-4.051-5.925-4.054Z" transform="translate(-106.381 -159.125)" fill="#fed2a4" fill-rule="evenodd"/>
        </g>
        <g id="Grupo_1227777" data-name="Grupo 1227777" transform="translate(28.662 14.723)">
          <path id="Trazado_1215955" data-name="Trazado 1215955" d="M282.965,159.225c6.378.017,6.983,6.26,5.333,11.111-.335.982-.812,2.641-1.407,3.957-.091.2-.186.395-.281.577l2.036-.526.193-.051a14.842,14.842,0,0,0,2.107-3.953,9.56,9.56,0,0,0,.548-3.059v-4c-1.951-3.65-2.716-4.051-5.925-4.055Z" transform="translate(-282.965 -159.225)" fill="#ffbd86" fill-rule="evenodd"/>
        </g>
        <g id="Grupo_1227778" data-name="Grupo 1227778" transform="translate(9.008 0)">
          <path id="Trazado_1215956" data-name="Trazado 1215956" d="M117.112,33.538a.887.887,0,0,1-.782-.469c-1.862-3.483-2.375-3.583-5.144-3.586l-7.322-.013-7.318.013c-2.794,0-3.222.136-5.067,3.586a.887.887,0,0,1-1.658-.276l-.72-4.429h0c-.785-4.825,1.141-8.283,5.292-9.554a8.5,8.5,0,0,1,5.617-4.429,15.793,15.793,0,0,1,8.351.105,15.418,15.418,0,0,1,7.737,4.727,11.289,11.289,0,0,1,2.534,9.135l-.643,4.429a.887.887,0,0,1-.725.746A.876.876,0,0,1,117.112,33.538ZM90.852,28.08l.326,2.006c1.363-1.99,2.552-2.373,5.365-2.376l7.321-.013,7.325.013c2.806,0,4.047.4,5.4,2.337l.283-1.951c.97-6.708-4.232-10.6-8.982-11.9-4.706-1.283-10.353-.429-12.039,3.688a.887.887,0,0,1-.6.522c-4.484,1.175-4.872,4.82-4.409,7.672Z" transform="translate(-88.929 -13.87)"/>
        </g>
        <g id="Grupo_1227779" data-name="Grupo 1227779" transform="translate(20.94 20.249)">
          <path id="Trazado_1215957" data-name="Trazado 1215957" d="M207.618,216.077a.887.887,0,0,1-.385-1.687,5.538,5.538,0,0,1,5.081,0,.887.887,0,1,1-.77,1.6,3.767,3.767,0,0,0-3.542,0A.883.883,0,0,1,207.618,216.077Z" transform="translate(-206.731 -213.773)"/>
        </g>
        <g id="Grupo_1227780" data-name="Grupo 1227780" transform="translate(35.756 17.894)">
          <path id="Trazado_1215958" data-name="Trazado 1215958" d="M354.33,199.375q-.251,0-.508-.019a.887.887,0,0,1,.133-1.769,3.34,3.34,0,0,0,3.278-1.425,2.7,2.7,0,0,0,.2-2.7,2.486,2.486,0,0,0-2.364-1.156h-.636a.887.887,0,1,1,0-1.774h.636a4.2,4.2,0,0,1,3.922,2.082,4.489,4.489,0,0,1-.271,4.515A5.049,5.049,0,0,1,354.33,199.375Z" transform="translate(-353.002 -190.528)"/>
        </g>
        <g id="Grupo_1227781" data-name="Grupo 1227781" transform="translate(5.734 17.894)">
          <path id="Trazado_1215959" data-name="Trazado 1215959" d="M61.755,199.375a5.047,5.047,0,0,1-4.392-2.25,4.49,4.49,0,0,1-.271-4.516,4.2,4.2,0,0,1,3.92-2.082h.636a.887.887,0,0,1,0,1.774h-.636a2.484,2.484,0,0,0-2.362,1.156,2.7,2.7,0,0,0,.2,2.705,3.339,3.339,0,0,0,3.276,1.424.887.887,0,0,1,.133,1.769Q62.006,199.375,61.755,199.375Z" transform="translate(-56.607 -190.528)"/>
        </g>
        <g id="Grupo_1227782" data-name="Grupo 1227782" transform="translate(9.889 17.894)">
          <path id="Trazado_1215960" data-name="Trazado 1215960" d="M122.271,203.313a.887.887,0,0,1-.714-1.412,11.6,11.6,0,0,0,2.483-6.488v-4a.887.887,0,1,1,1.774,0v4a13.188,13.188,0,0,1-2.827,7.538A.886.886,0,0,1,122.271,203.313Zm-21.1,0a.886.886,0,0,1-.716-.362,13.19,13.19,0,0,1-2.827-7.538v-4a.887.887,0,0,1,1.774,0v4a11.6,11.6,0,0,0,2.483,6.488.887.887,0,0,1-.714,1.412Z" transform="translate(-97.624 -190.529)"/>
        </g>
        <g id="Grupo_1227783" data-name="Grupo 1227783" transform="translate(26.139 18.781)">
          <path id="Trazado_1215961" data-name="Trazado 1215961" d="M259.969,199.286a1.913,1.913,0,0,0-1.911,1.906v2.074a1.913,1.913,0,0,0,1.911,1.906h1.758a1.913,1.913,0,0,0,1.911-1.906v-2.074a1.913,1.913,0,0,0-1.911-1.906Z" transform="translate(-258.058 -199.286)" fill="#99e6fc" fill-rule="evenodd"/>
        </g>
        <g id="Grupo_1227784" data-name="Grupo 1227784" transform="translate(16.247 18.781)">
          <path id="Trazado_1215962" data-name="Trazado 1215962" d="M162.312,199.286a1.913,1.913,0,0,0-1.911,1.906v2.074a1.913,1.913,0,0,0,1.911,1.906h1.759a1.913,1.913,0,0,0,1.911-1.906v-2.074a1.913,1.913,0,0,0-1.911-1.906Z" transform="translate(-160.401 -199.286)" fill="#99e6fc" fill-rule="evenodd"/>
        </g>
        <g id="Grupo_1227785" data-name="Grupo 1227785" transform="translate(0.887 40.986)">
          <path id="Trazado_1215963" data-name="Trazado 1215963" d="M14.185,419.389c-4.542,1.6-5.428,5.151-5.428,8.851v5.434a.707.707,0,0,0,.707.7h7.372l3.52-6.935L16.7,418.505Z" transform="translate(-8.757 -418.505)" fill="#99e6fc" fill-rule="evenodd"/>
        </g>
        <g id="Grupo_1227786" data-name="Grupo 1227786" transform="translate(34.956 40.986)">
          <path id="Trazado_1215964" data-name="Trazado 1215964" d="M349.276,418.505l-4.177,9.171,4.048,6.7h7.369a.707.707,0,0,0,.707-.7V428.24c0-3.7-.886-7.256-5.428-8.851Z" transform="translate(-345.099 -418.505)" fill="#99e6fc" fill-rule="evenodd"/>
        </g>
        <g id="Grupo_1227787" data-name="Grupo 1227787" transform="translate(8.834 29.791)">
          <path id="Trazado_1215965" data-name="Trazado 1215965" d="M112.919,307.979H89.009a1.8,1.8,0,0,0-1.792,1.791v20.414h30.3V309.77a1.8,1.8,0,0,0-1.792-1.791Z" transform="translate(-87.217 -307.979)" fill="#7a6d79" fill-rule="evenodd"/>
        </g>
        <g id="Grupo_1227788" data-name="Grupo 1227788" transform="translate(6.301 51.996)">
          <path id="Trazado_1215966" data-name="Trazado 1215966" d="M95.041,527.2H63.076a.868.868,0,0,0-.866.863V529.4a2.669,2.669,0,0,0,2.665,2.658H94.912a2.669,2.669,0,0,0,2.665-2.658v-1.339a.869.869,0,0,0-.869-.863Z" transform="translate(-62.21 -527.198)" fill="#554e56" fill-rule="evenodd"/>
        </g>
        <g id="Grupo_1227789" data-name="Grupo 1227789" transform="translate(33.924 29.791)">
          <path id="Trazado_1215967" data-name="Trazado 1215967" d="M336.707,319.176v11.01h3.416V309.772a1.8,1.8,0,0,0-1.792-1.791h-3.416a1.8,1.8,0,0,1,1.792,1.791v9.4Z" transform="translate(-334.915 -307.981)" fill="#685e68" fill-rule="evenodd"/>
        </g>
        <g id="Grupo_1227790" data-name="Grupo 1227790" transform="translate(35.588 51.996)">
          <path id="Trazado_1215968" data-name="Trazado 1215968" d="M354.886,527.2h-1.745a.868.868,0,0,1,.866.863V529.4a2.669,2.669,0,0,1-2.665,2.658h3.416a2.669,2.669,0,0,0,2.665-2.658v-1.339a.869.869,0,0,0-.869-.863Z" transform="translate(-351.342 -527.198)" fill="#433f43" fill-rule="evenodd"/>
        </g>
        <g id="Grupo_1227791" data-name="Grupo 1227791" transform="translate(39.132 40.986)">
          <path id="Trazado_1215969" data-name="Trazado 1215969" d="M386.332,418.505v2.753c3.825,1.72,5.073,3.134,5.073,6.193v6.925h2.168a.707.707,0,0,0,.707-.7V428.24c0-3.7-.886-7.256-5.428-8.851Z" transform="translate(-386.332 -418.505)" fill="#62dbfb" fill-rule="evenodd"/>
        </g>
        <g id="Grupo_1227792" data-name="Grupo 1227792" transform="translate(16.63 33.218)">
          <path id="Trazado_1215970" data-name="Trazado 1215970" d="M169.74,343.427a6.309,6.309,0,0,0-2.57,1.484l-.9-.523a.581.581,0,0,0-.791.212l-1.217,2.1a.575.575,0,0,0,.213.786l.9.519a6.445,6.445,0,0,0,0,2.962l-.9.519a.575.575,0,0,0-.213.786l1.217,2.1a.583.583,0,0,0,.791.209l.9-.519a6.3,6.3,0,0,0,2.57,1.481v1.039a.577.577,0,0,0,.575.577h2.438a.577.577,0,0,0,.575-.577v-1.039a6.3,6.3,0,0,0,2.57-1.481l.906.519a.58.58,0,0,0,.788-.209l1.217-2.1a.575.575,0,0,0-.213-.786l-.9-.519a6.445,6.445,0,0,0,0-2.962l.9-.519a.575.575,0,0,0,.213-.786l-1.217-2.1a.578.578,0,0,0-.788-.212l-.906.523a6.308,6.308,0,0,0-2.57-1.484v-1.039a.574.574,0,0,0-.575-.573h-2.438a.574.574,0,0,0-.575.573v1.039Zm1.8,3.336a2.729,2.729,0,1,1-2.739,2.729,2.734,2.734,0,0,1,2.739-2.729Z" transform="translate(-164.181 -341.815)" fill="#e5e1e5" fill-rule="evenodd"/>
        </g>
        <g id="Grupo_1227793" data-name="Grupo 1227793" transform="translate(20.359 37.279)">
          <path id="Trazado_1215971" data-name="Trazado 1215971" d="M204.616,389.14a3.616,3.616,0,1,1,3.623-3.616A3.625,3.625,0,0,1,204.616,389.14Zm0-5.458a1.842,1.842,0,1,0,1.849,1.842A1.849,1.849,0,0,0,204.616,383.682Z" transform="translate(-200.99 -381.908)"/>
        </g>
        <g id="Grupo_1227794" data-name="Grupo 1227794" transform="translate(15.742 32.331)">
          <path id="Trazado_1215972" data-name="Trazado 1215972" d="M164.875,350.185h-2.438a1.465,1.465,0,0,1-1.462-1.464v-.408a7.249,7.249,0,0,1-1.786-1.029l-.358.206a1.472,1.472,0,0,1-2-.532l-1.219-2.107a1.462,1.462,0,0,1,.541-2l.353-.2a7.292,7.292,0,0,1,0-2.053l-.356-.206a1.462,1.462,0,0,1-.536-2l1.216-2.1a1.469,1.469,0,0,1,2-.538l.361.209a7.258,7.258,0,0,1,1.785-1.031v-.408a1.463,1.463,0,0,1,1.462-1.46h2.438a1.463,1.463,0,0,1,1.462,1.46v.408a7.256,7.256,0,0,1,1.785,1.032l.361-.208a1.465,1.465,0,0,1,2,.539l1.216,2.1a1.461,1.461,0,0,1-.541,2l-.353.2a7.3,7.3,0,0,1,0,2.053l.356.206a1.461,1.461,0,0,1,.536,2l-1.216,2.1a1.467,1.467,0,0,1-2,.533l-.358-.206a7.247,7.247,0,0,1-1.787,1.03v.408A1.464,1.464,0,0,1,164.875,350.185Zm-2.126-1.774h1.814v-.729a.887.887,0,0,1,.637-.851,5.446,5.446,0,0,0,2.209-1.272.887.887,0,0,1,1.052-.127l.641.367.9-1.565-.631-.365a.887.887,0,0,1-.42-.971,5.558,5.558,0,0,0,0-2.556.887.887,0,0,1,.42-.971l.631-.365-.906-1.567-.638.368a.887.887,0,0,1-1.054-.125,5.451,5.451,0,0,0-2.209-1.276.887.887,0,0,1-.637-.851v-.725h-1.814v.725a.887.887,0,0,1-.637.851,5.45,5.45,0,0,0-2.209,1.276.887.887,0,0,1-1.056.125l-.636-.368-.907,1.568.631.365a.887.887,0,0,1,.42.971,5.557,5.557,0,0,0,0,2.556.887.887,0,0,1-.42.971l-.631.364.906,1.566.639-.367a.887.887,0,0,1,1.053.126,5.446,5.446,0,0,0,2.209,1.272.887.887,0,0,1,.637.851v.729Zm6.616-2.461h0Zm.911-1.56h0Zm-13.238,0h0Zm13.126-.425h0Zm-13.018,0h0Zm13.018-4.681h0Zm-13.016,0h0Zm13.127-.425h0Zm-13.242,0h0Zm12.338-1.565h0Zm-.424-.111h0Zm-10.58,0v0Z" transform="translate(-155.415 -333.057)"/>
        </g>
        <g id="Grupo_1227795" data-name="Grupo 1227795" transform="translate(7.947 28.904)">
          <path id="Trazado_1215973" data-name="Trazado 1215973" d="M109.644,323.2h-30.3a.887.887,0,0,1-.887-.887V301.9a2.682,2.682,0,0,1,2.679-2.678H91.987a.887.887,0,1,1,0,1.774H81.138a.917.917,0,0,0-.905.9v19.527h28.524V301.9a.906.906,0,0,0-.905-.9H96.12a.887.887,0,1,1,0-1.774h11.732a2.682,2.682,0,0,1,2.679,2.678v20.414A.887.887,0,0,1,109.644,323.2Z" transform="translate(-78.459 -299.222)"/>
        </g>
        <g id="Grupo_1227796" data-name="Grupo 1227796" transform="translate(5.414 51.109)">
          <path id="Trazado_1215974" data-name="Trazado 1215974" d="M87.042,525.078a.887.887,0,1,1,0-1.774,1.776,1.776,0,0,0,1.778-1.771v-1.316H55.227v1.316A1.776,1.776,0,0,0,57,523.3a.887.887,0,1,1,0,1.774,3.552,3.552,0,0,1-3.552-3.545v-1.339a1.754,1.754,0,0,1,1.753-1.75H88.838a1.755,1.755,0,0,1,1.756,1.75v1.339A3.552,3.552,0,0,1,87.042,525.078Z" transform="translate(-53.453 -518.444)"/>
        </g>
        <g id="Grupo_1227797" data-name="Grupo 1227797" transform="translate(15.36 17.894)">
          <path id="Trazado_1215975" data-name="Trazado 1215975" d="M156.2,198.188h-1.759a2.8,2.8,0,0,1-2.8-2.793v-2.074a2.8,2.8,0,0,1,2.8-2.793H156.2a2.8,2.8,0,0,1,2.8,2.793V195.4A2.8,2.8,0,0,1,156.2,198.188Zm-1.759-5.886a1.023,1.023,0,0,0-1.024,1.019V195.4a1.022,1.022,0,0,0,1.024,1.019H156.2a1.022,1.022,0,0,0,1.024-1.019v-2.074A1.022,1.022,0,0,0,156.2,192.3Z" transform="translate(-151.644 -190.528)"/>
        </g>
        <g id="Grupo_1227798" data-name="Grupo 1227798" transform="translate(25.252 17.894)">
          <path id="Trazado_1215976" data-name="Trazado 1215976" d="M253.857,198.188H252.1a2.8,2.8,0,0,1-2.8-2.793v-2.074a2.8,2.8,0,0,1,2.8-2.793h1.759a2.8,2.8,0,0,1,2.8,2.793V195.4A2.8,2.8,0,0,1,253.857,198.188ZM252.1,192.3a1.023,1.023,0,0,0-1.024,1.019V195.4a1.022,1.022,0,0,0,1.024,1.019h1.759a1.022,1.022,0,0,0,1.024-1.019v-2.074a1.023,1.023,0,0,0-1.024-1.019Z" transform="translate(-249.301 -190.528)"/>
        </g>
        <g id="Grupo_1227799" data-name="Grupo 1227799" transform="translate(0 40.099)">
          <path id="Trazado_1215977" data-name="Trazado 1215977" d="M46.373,427.391H1.594A1.593,1.593,0,0,1,0,425.8v-5.434c0-3.251.624-7.792,6.021-9.688l2.52-.884a.887.887,0,0,1,.587,1.674l-2.519.884c-3.389,1.19-4.834,3.587-4.834,8.014v5.249H46.192v-5.249c0-4.427-1.446-6.824-4.835-8.014l-2.519-.884a.887.887,0,0,1,.587-1.674l2.519.884c5.4,1.9,6.021,6.437,6.021,9.688V425.8A1.593,1.593,0,0,1,46.373,427.391Z" transform="translate(0 -409.746)"/>
        </g>
        <g id="Grupo_1227800" data-name="Grupo 1227800" transform="translate(34.678 26.239)">
          <path id="Trazado_1215978" data-name="Trazado 1215978" d="M365.607,278.1a11.191,11.191,0,0,1-16.026,15.037L346.465,293l-4.106-.192,1.576-3.788,1.2-2.874a11.2,11.2,0,0,1,20.474-8.038Z" transform="translate(-342.36 -272.913)" fill="#e5e1e5" fill-rule="evenodd"/>
        </g>
        <g id="Grupo_1227801" data-name="Grupo 1227801" transform="translate(46.9 26.239)">
          <path id="Trazado_1215979" data-name="Trazado 1215979" d="M471.222,278.141a11.18,11.18,0,0,1-7.9,17.048,11.177,11.177,0,1,0-.3-22.168,11.185,11.185,0,0,1,8.2,5.12Z" transform="translate(-463.021 -272.913)" fill="#d7d0d6" fill-rule="evenodd"/>
        </g>
        <g id="Grupo_1227802" data-name="Grupo 1227802" transform="translate(33.791 25.357)">
          <path id="Trazado_1215980" data-name="Trazado 1215980" d="M348.271,288.336a12.082,12.082,0,0,1-6.86-2.142l-6.962-.325a.887.887,0,0,1-.777-1.227l2.673-6.423a12.092,12.092,0,1,1,21.575,5.319.887.887,0,1,1-1.414-1.072,10.3,10.3,0,1,0-18.371-4.31.887.887,0,0,1-.053.5l-2.287,5.494,5.957.278a.888.888,0,0,1,.477.166,10.3,10.3,0,0,0,11.571.351.887.887,0,0,1,.948,1.5A12.109,12.109,0,0,1,348.271,288.336Z" transform="translate(-333.603 -264.21)"/>
        </g>
        <g id="Grupo_1227803" data-name="Grupo 1227803" transform="translate(41.069 33.96)">
          <path id="Trazado_1215981" data-name="Trazado 1215981" d="M408.072,356.76a.887.887,0,0,1-.768-.442l-1.731-2.982a.887.887,0,0,1,.008-.9l1.731-2.864a.887.887,0,0,1,1.518.918l-1.459,2.414,1.467,2.527a.887.887,0,0,1-.766,1.332Z" transform="translate(-405.453 -349.14)"/>
        </g>
        <g id="Grupo_1227804" data-name="Grupo 1227804" transform="translate(46.226 33.65)">
          <path id="Trazado_1215982" data-name="Trazado 1215982" d="M457.252,354.314a.888.888,0,0,1-.824-1.216l2.58-6.463a.887.887,0,0,1,1.648.658l-2.58,6.463A.888.888,0,0,1,457.252,354.314Z" transform="translate(-456.365 -346.077)"/>
        </g>
        <g id="Grupo_1227805" data-name="Grupo 1227805" transform="translate(52.503 33.96)">
          <path id="Trazado_1215983" data-name="Trazado 1215983" d="M519.219,356.759a.887.887,0,0,1-.766-1.333l1.468-2.527-1.459-2.414a.887.887,0,1,1,1.518-.918l1.732,2.864a.887.887,0,0,1,.008.9l-1.732,2.982A.887.887,0,0,1,519.219,356.759Z" transform="translate(-518.333 -349.139)"/>
        </g>
      </g>
    </g>
  </g>
</svg>
