<svg xmlns="http://www.w3.org/2000/svg" xmlns:xlink="http://www.w3.org/1999/xlink" width="113" height="113" viewBox="0 0 113 113">
  <defs>
    <filter id="Trazado_982547" x="0" y="0" width="113" height="113" filterUnits="userSpaceOnUse">
      <feOffset dy="3" input="SourceAlpha"/>
      <feGaussianBlur stdDeviation="3" result="blur"/>
      <feFlood flood-opacity="0.161"/>
      <feComposite operator="in" in2="blur"/>
      <feComposite in="SourceGraphic"/>
    </filter>
  </defs>
  <g id="Grupo_1228081" data-name="Grupo 1228081" transform="translate(-585 -5633.198)">
    <g id="Grupo_1227503" data-name="Grupo 1227503" transform="translate(0 2048.198)">
      <g id="Grupo_1225351" data-name="Grupo 1225351" transform="translate(-1 -393.91)">
        <g id="Grupo_1208122" data-name="Grupo 1208122" transform="translate(0 -1922.377)">
          <g id="Grupo_1202433" data-name="Grupo 1202433" transform="translate(-0.56 1255.773)">
            <g id="Grupo_1202054" data-name="Grupo 1202054" transform="translate(0 3240.511)">
              <g id="Grupo_1177897" data-name="Grupo 1177897" transform="translate(595.561 1411.003)">
                <g id="Grupo_1172010" data-name="Grupo 1172010" transform="translate(0)">
                  <g id="Grupo_1171046" data-name="Grupo 1171046">
                    <g id="Grupo_1148525" data-name="Grupo 1148525">
                      <g transform="matrix(1, 0, 0, 1, -9, -6)" filter="url(#Trazado_982547)">
                        <g id="Trazado_982547-2" data-name="Trazado 982547" transform="translate(9 6)" fill="#e5fdfa">
                          <path d="M 47.5 93.5 C 41.28937149047852 93.5 35.26533508300781 92.28397369384766 29.59518623352051 89.88570404052734 C 24.11771965026855 87.56893157958984 19.19813346862793 84.25196075439453 14.97309303283691 80.02691650390625 C 10.74804019927979 75.80186462402344 7.431066513061523 70.88229370117188 5.114293098449707 65.40481567382812 C 2.716026782989502 59.73468017578125 1.5 53.71062850952148 1.5 47.5 C 1.5 41.28937149047852 2.716026782989502 35.26533508300781 5.114293098449707 29.59518623352051 C 7.431066513061523 24.11771965026855 10.74804019927979 19.19813346862793 14.97309303283691 14.97309303283691 C 19.19813346862793 10.74804019927979 24.11771965026855 7.431066513061523 29.59518623352051 5.114293098449707 C 35.26533508300781 2.716026782989502 41.28937149047852 1.5 47.5 1.5 C 53.71062850952148 1.5 59.73468017578125 2.716026782989502 65.40481567382812 5.114293098449707 C 70.88229370117188 7.431066513061523 75.80186462402344 10.74804019927979 80.02691650390625 14.97309303283691 C 84.25196075439453 19.19813346862793 87.56893157958984 24.11771965026855 89.88570404052734 29.59518623352051 C 92.28397369384766 35.26533508300781 93.5 41.28937149047852 93.5 47.5 C 93.5 53.71062850952148 92.28397369384766 59.73468017578125 89.88570404052734 65.40481567382812 C 87.56893157958984 70.88229370117188 84.25196075439453 75.80186462402344 80.02691650390625 80.02691650390625 C 75.80186462402344 84.25196075439453 70.88229370117188 87.56893157958984 65.40481567382812 89.88570404052734 C 59.73468017578125 92.28397369384766 53.71062850952148 93.5 47.5 93.5 Z" stroke="none"/>
                          <path d="M 47.5 3 C 41.49121475219727 3 35.66376876831055 4.176155090332031 30.17950439453125 6.495796203613281 C 24.88084411621094 8.736953735351562 20.12152099609375 11.94598388671875 16.03375244140625 16.03375244140625 C 11.94598388671875 20.12152099609375 8.736953735351562 24.88084411621094 6.495796203613281 30.17950439453125 C 4.176155090332031 35.66376876831055 3 41.49121475219727 3 47.5 C 3 53.50878524780273 4.176155090332031 59.33623123168945 6.495796203613281 64.82049560546875 C 8.736953735351562 70.11915588378906 11.94598388671875 74.87847900390625 16.03375244140625 78.96624755859375 C 20.12152099609375 83.05401611328125 24.88084411621094 86.26304626464844 30.17950439453125 88.50419616699219 C 35.66376876831055 90.82384490966797 41.49121475219727 92 47.5 92 C 53.50878524780273 92 59.33623123168945 90.82384490966797 64.82049560546875 88.50419616699219 C 70.11915588378906 86.26304626464844 74.87847900390625 83.05401611328125 78.96624755859375 78.96624755859375 C 83.05401611328125 74.87847900390625 86.26304626464844 70.11915588378906 88.50419616699219 64.82049560546875 C 90.82384490966797 59.33623123168945 92 53.50878524780273 92 47.5 C 92 41.49121475219727 90.82384490966797 35.66376876831055 88.50419616699219 30.17950439453125 C 86.26304626464844 24.88084411621094 83.05401611328125 20.12152099609375 78.96624755859375 16.03375244140625 C 74.87847900390625 11.94598388671875 70.11915588378906 8.736953735351562 64.82049560546875 6.495796203613281 C 59.33623123168945 4.176155090332031 53.50878524780273 3 47.5 3 M 47.5 0 C 73.7335205078125 0 95 21.2664794921875 95 47.5 C 95 73.7335205078125 73.7335205078125 95 47.5 95 C 21.2664794921875 95 0 73.7335205078125 0 47.5 C 0 21.2664794921875 21.2664794921875 0 47.5 0 Z" stroke="none" fill="#098576"/>
                        </g>
                      </g>
                    </g>
                  </g>
                </g>
              </g>
            </g>
          </g>
        </g>
      </g>
    </g>
    <g id="analisis_1_" data-name="analisis (1)" transform="translate(613.184 5651.575)">
      <g id="Grupo_1228079" data-name="Grupo 1228079" transform="translate(0.859 7.417)">
        <g id="Grupo_1228077" data-name="Grupo 1228077" transform="translate(0 0)">
          <path id="Trazado_1216896" data-name="Trazado 1216896" d="M7.5,49.186V84.619A1.571,1.571,0,0,0,9.071,86.19h46.3a1.571,1.571,0,0,0,1.571-1.571V49.186a1.571,1.571,0,0,0-1.571-1.571H9.071A1.571,1.571,0,0,0,7.5,49.186Z" transform="translate(-7.5 -43.772)" fill="#ebeef2"/>
          <path id="Trazado_1216897" data-name="Trazado 1216897" d="M403.533,47.616h-2.844a1.571,1.571,0,0,1,1.571,1.571V84.62a1.571,1.571,0,0,1-1.571,1.571h2.844A1.571,1.571,0,0,0,405.1,84.62V49.187A1.571,1.571,0,0,0,403.533,47.616Z" transform="translate(-355.663 -43.773)" fill="#d1d6de"/>
          <g id="Grupo_1228076" data-name="Grupo 1228076" transform="translate(10.892 8.761)">
            <g id="Grupo_1228072" data-name="Grupo 1228072" transform="translate(0 11.013)">
              <circle id="Elipse_13270" data-name="Elipse 13270" cx="2.004" cy="2.004" r="2.004" fill="#5c9cee"/>
            </g>
            <g id="Grupo_1228073" data-name="Grupo 1228073" transform="translate(7.883 6.537)">
              <circle id="Elipse_13271" data-name="Elipse 13271" cx="2.004" cy="2.004" r="2.004" fill="#f2df33"/>
            </g>
            <g id="Grupo_1228074" data-name="Grupo 1228074" transform="translate(15.766 11.013)">
              <circle id="Elipse_13272" data-name="Elipse 13272" cx="2.004" cy="2.004" r="2.004" fill="#ed5575"/>
            </g>
            <g id="Grupo_1228075" data-name="Grupo 1228075" transform="translate(23.648)">
              <circle id="Elipse_13273" data-name="Elipse 13273" cx="2.004" cy="2.004" r="2.004" fill="#9fd479"/>
            </g>
          </g>
          <path id="Trazado_1216898" data-name="Trazado 1216898" d="M80.428,387.214v-2.749h32.738v2.749a1.094,1.094,0,0,1-1.094,1.094H81.522A1.094,1.094,0,0,1,80.428,387.214Z" transform="translate(-72.077 -342.047)" fill="#f2df33"/>
          <path id="Trazado_1216899" data-name="Trazado 1216899" d="M333.6,384.465v2.749a1.094,1.094,0,0,1-1.094,1.094h2.777a1.094,1.094,0,0,0,1.094-1.094v-2.749Z" transform="translate(-295.289 -342.047)" fill="#fcab29"/>
          <path id="Trazado_1216900" data-name="Trazado 1216900" d="M189.243,17.9V15.353a1.3,1.3,0,0,1,1.3-1.3h5.224a1.3,1.3,0,0,1,1.3,1.3V17.9h-7.816Z" transform="translate(-168.431 -14.057)" fill="#f2df33"/>
          <path id="Trazado_1216901" data-name="Trazado 1216901" d="M224.553,14.058h-2.8a1.3,1.3,0,0,1,1.3,1.3V17.9h2.8V15.354A1.3,1.3,0,0,0,224.553,14.058Z" transform="translate(-197.22 -14.058)" fill="#fcab29"/>
          <rect id="Rectángulo_422361" data-name="Rectángulo 422361" width="3.484" height="7.589" transform="translate(11.154 29.891)" fill="#48cfb7"/>
          <rect id="Rectángulo_422362" data-name="Rectángulo 422362" width="3.484" height="11.978" transform="translate(19.037 25.502)" fill="#48cfb7"/>
          <rect id="Rectángulo_422363" data-name="Rectángulo 422363" width="3.484" height="7.589" transform="translate(26.92 29.891)" fill="#48cfb7"/>
          <rect id="Rectángulo_422364" data-name="Rectángulo 422364" width="3.484" height="15.401" transform="translate(34.802 22.079)" fill="#48cfb7"/>
        </g>
        <g id="Grupo_1228078" data-name="Grupo 1228078" transform="translate(33.841 15.791)">
          <path id="Trazado_1216902" data-name="Trazado 1216902" d="M409.456,293.467l6.394,11.074a2.406,2.406,0,0,0,3.287.881h0a2.406,2.406,0,0,0,.881-3.287l-6.394-11.074Z" transform="translate(-397.267 -275.131)" fill="#ed5575"/>
          <path id="Trazado_1216903" data-name="Trazado 1216903" d="M413.624,291.06l-4.168,2.406,2.492,4.317a13.1,13.1,0,0,0,4.168-2.406Z" transform="translate(-397.267 -275.13)" fill="#cc3a60"/>
          <circle id="Elipse_13274" data-name="Elipse 13274" cx="10.367" cy="10.367" r="10.367" fill="#f2df33"/>
          <circle id="Elipse_13275" data-name="Elipse 13275" cx="7.296" cy="7.296" r="7.296" transform="translate(3.071 3.071)" fill="#5c9cee"/>
        </g>
      </g>
      <g id="Grupo_1228080" data-name="Grupo 1228080" transform="translate(0 6.558)">
        <path id="Trazado_1216904" data-name="Trazado 1216904" d="M121.629,88.787a2.866,2.866,0,1,0-2.287-1.144l-4.7,6.573a2.855,2.855,0,0,0-2.84.625l-3.135-1.779a2.863,2.863,0,1,0-5.6,0L99.93,94.842a2.859,2.859,0,1,0,.85,1.493l3.135-1.779a2.856,2.856,0,0,0,3.9,0l3.135,1.779a2.863,2.863,0,1,0,5.086-1.118l4.7-6.573A2.854,2.854,0,0,0,121.629,88.787Zm0-4.008a1.145,1.145,0,1,1-1.145,1.145A1.146,1.146,0,0,1,121.629,84.779Zm-23.648,13.3a1.145,1.145,0,1,1,1.145-1.145A1.146,1.146,0,0,1,97.981,98.082Zm7.883-4.476a1.145,1.145,0,1,1,1.145-1.145A1.146,1.146,0,0,1,105.863,93.606Zm7.883,4.476a1.145,1.145,0,1,1,1.145-1.145A1.146,1.146,0,0,1,113.746,98.082Z" transform="translate(-84.226 -74.3)"/>
        <path id="Trazado_1216905" data-name="Trazado 1216905" d="M47.959,78.691H2.429a.713.713,0,0,1-.712-.712V42.545a.713.713,0,0,1,.712-.712H6.478a.859.859,0,0,0,0-1.718H2.429A2.432,2.432,0,0,0,0,42.545V77.979a2.432,2.432,0,0,0,2.429,2.429H8.351V82.3A1.955,1.955,0,0,0,10.3,84.251h8.6l-4.047,7.9a.859.859,0,1,0,1.529.783l4.448-8.684h9.5l4.448,8.684a.859.859,0,1,0,1.529-.783l-4.047-7.9h8.6A1.955,1.955,0,0,0,42.807,82.3v-1.89h5.152a.859.859,0,0,0,0-1.718ZM41.089,82.3a.235.235,0,0,1-.235.235H10.3a.235.235,0,0,1-.235-.235v-1.89h31.02Z" transform="translate(0 -36.273)"/>
        <path id="Trazado_1216906" data-name="Trazado 1216906" d="M79.93,12.119h38.815a.713.713,0,0,1,.712.712V21a.859.859,0,1,0,1.718,0V12.83a2.432,2.432,0,0,0-2.429-2.429H100.362V8.713a2.157,2.157,0,0,0-2.155-2.155H92.983a2.157,2.157,0,0,0-2.155,2.155V10.4H79.93a.859.859,0,1,0,0,1.718ZM92.546,8.713a.438.438,0,0,1,.437-.437h5.224a.438.438,0,0,1,.437.437V10.4h-6.1V8.713Z" transform="translate(-70.016 -6.558)"/>
        <path id="Trazado_1216907" data-name="Trazado 1216907" d="M98.261,267.576a.859.859,0,0,0-.859.859v7.589a.859.859,0,0,0,.859.859h3.484a.859.859,0,0,0,.859-.859v-7.589a.859.859,0,0,0-.859-.859Zm2.626,7.589H99.12v-5.871h1.767Z" transform="translate(-86.248 -237.685)"/>
        <path id="Trazado_1216908" data-name="Trazado 1216908" d="M167.1,229.248a.859.859,0,0,0-.859.859v11.978a.859.859,0,0,0,.859.859h3.484a.859.859,0,0,0,.859-.859V230.107a.859.859,0,0,0-.859-.859Zm2.626,11.978h-1.767V230.966h1.767Z" transform="translate(-147.2 -203.746)"/>
        <path id="Trazado_1216909" data-name="Trazado 1216909" d="M235.932,267.576a.859.859,0,0,0-.859.859v7.589a.859.859,0,0,0,.859.859h3.484a.859.859,0,0,0,.859-.859v-7.589a.859.859,0,0,0-.859-.859Zm2.626,7.589h-1.767v-5.871h1.767Z" transform="translate(-208.153 -237.685)"/>
        <path id="Trazado_1216910" data-name="Trazado 1216910" d="M304.768,311.832a.859.859,0,0,0-.859.859v2.521a.859.859,0,0,0,.859.859h3.484a.859.859,0,1,0,0-1.718h-2.625v-1.662A.859.859,0,0,0,304.768,311.832Z" transform="translate(-269.107 -276.873)"/>
        <path id="Trazado_1216911" data-name="Trazado 1216911" d="M319.884,171.906l-4.927-8.534a11.231,11.231,0,1,0-11.106,3.169,11.286,11.286,0,0,0,2.924.387,11.085,11.085,0,0,0,2.528-.292l4.926,8.535a3.265,3.265,0,1,0,5.655-3.265ZM304.3,164.882a9.508,9.508,0,1,1,7.215-.95A9.446,9.446,0,0,1,304.3,164.882Zm13.535,10a1.549,1.549,0,0,1-2.113-.566l-4.74-8.211a11.274,11.274,0,0,0,2.678-1.548l4.741,8.212a1.546,1.546,0,0,1-.566,2.113Z" transform="translate(-261.69 -128.681)"/>
        <path id="Trazado_1216912" data-name="Trazado 1216912" d="M338.245,181.819a8.128,8.128,0,0,0-.407-5.888.859.859,0,1,0-1.554.732,6.433,6.433,0,1,1-1.939-2.4.859.859,0,1,0,1.036-1.37,8.156,8.156,0,1,0,2.863,8.922Z" transform="translate(-285.392 -152.383)"/>
      </g>
    </g>
  </g>
</svg>
