<svg xmlns="http://www.w3.org/2000/svg" xmlns:xlink="http://www.w3.org/1999/xlink" width="113" height="113" viewBox="0 0 113 113">
  <defs>
    <filter id="Trazado_982547" x="0" y="0" width="113" height="113" filterUnits="userSpaceOnUse">
      <feOffset dy="3" input="SourceAlpha"/>
      <feGaussianBlur stdDeviation="3" result="blur"/>
      <feFlood flood-opacity="0.161"/>
      <feComposite operator="in" in2="blur"/>
      <feComposite in="SourceGraphic"/>
    </filter>
  </defs>
  <g id="Grupo_1228083" data-name="Grupo 1228083" transform="translate(-1216 -5633.18)">
    <g id="Grupo_1227505" data-name="Grupo 1227505" transform="translate(0.575 2048.198)">
      <g id="Grupo_1225353" data-name="Grupo 1225353" transform="translate(-0.575 -393.641)">
        <g id="Grupo_1208124" data-name="Grupo 1208124" transform="translate(0 -1922.377)">
          <g id="Grupo_1202435" data-name="Grupo 1202435" transform="translate(-0.56 1255.486)">
            <g id="Grupo_1202052" data-name="Grupo 1202052" transform="translate(1225.561 4651.514)">
              <g id="Grupo_1172010" data-name="Grupo 1172010" transform="translate(0)">
                <g id="Grupo_1171046" data-name="Grupo 1171046">
                  <g id="Grupo_1148525" data-name="Grupo 1148525">
                    <g transform="matrix(1, 0, 0, 1, -9, -6)" filter="url(#Trazado_982547)">
                      <g id="Trazado_982547-2" data-name="Trazado 982547" transform="translate(9 6)" fill="#e5fdfa">
                        <path d="M 47.5 93.5 C 41.28937149047852 93.5 35.26533508300781 92.28397369384766 29.59518623352051 89.88570404052734 C 24.11771965026855 87.56893157958984 19.19813346862793 84.25196075439453 14.97309303283691 80.02691650390625 C 10.74804019927979 75.80186462402344 7.431066513061523 70.88229370117188 5.114293098449707 65.40481567382812 C 2.716026782989502 59.73468017578125 1.5 53.71062850952148 1.5 47.5 C 1.5 41.28937149047852 2.716026782989502 35.26533508300781 5.114293098449707 29.59518623352051 C 7.431066513061523 24.11771965026855 10.74804019927979 19.19813346862793 14.97309303283691 14.97309303283691 C 19.19813346862793 10.74804019927979 24.11771965026855 7.431066513061523 29.59518623352051 5.114293098449707 C 35.26533508300781 2.716026782989502 41.28937149047852 1.5 47.5 1.5 C 53.71062850952148 1.5 59.73468017578125 2.716026782989502 65.40481567382812 5.114293098449707 C 70.88229370117188 7.431066513061523 75.80186462402344 10.74804019927979 80.02691650390625 14.97309303283691 C 84.25196075439453 19.19813346862793 87.56893157958984 24.11771965026855 89.88570404052734 29.59518623352051 C 92.28397369384766 35.26533508300781 93.5 41.28937149047852 93.5 47.5 C 93.5 53.71062850952148 92.28397369384766 59.73468017578125 89.88570404052734 65.40481567382812 C 87.56893157958984 70.88229370117188 84.25196075439453 75.80186462402344 80.02691650390625 80.02691650390625 C 75.80186462402344 84.25196075439453 70.88229370117188 87.56893157958984 65.40481567382812 89.88570404052734 C 59.73468017578125 92.28397369384766 53.71062850952148 93.5 47.5 93.5 Z" stroke="none"/>
                        <path d="M 47.5 3 C 41.49121475219727 3 35.66376876831055 4.176155090332031 30.17950439453125 6.495796203613281 C 24.88084411621094 8.736953735351562 20.12152099609375 11.94598388671875 16.03375244140625 16.03375244140625 C 11.94598388671875 20.12152099609375 8.736953735351562 24.88084411621094 6.495796203613281 30.17950439453125 C 4.176155090332031 35.66376876831055 3 41.49121475219727 3 47.5 C 3 53.50878524780273 4.176155090332031 59.33623123168945 6.495796203613281 64.82049560546875 C 8.736953735351562 70.11915588378906 11.94598388671875 74.87847900390625 16.03375244140625 78.96624755859375 C 20.12152099609375 83.05401611328125 24.88084411621094 86.26304626464844 30.17950439453125 88.50419616699219 C 35.66376876831055 90.82384490966797 41.49121475219727 92 47.5 92 C 53.50878524780273 92 59.33623123168945 90.82384490966797 64.82049560546875 88.50419616699219 C 70.11915588378906 86.26304626464844 74.87847900390625 83.05401611328125 78.96624755859375 78.96624755859375 C 83.05401611328125 74.87847900390625 86.26304626464844 70.11915588378906 88.50419616699219 64.82049560546875 C 90.82384490966797 59.33623123168945 92 53.50878524780273 92 47.5 C 92 41.49121475219727 90.82384490966797 35.66376876831055 88.50419616699219 30.17950439453125 C 86.26304626464844 24.88084411621094 83.05401611328125 20.12152099609375 78.96624755859375 16.03375244140625 C 74.87847900390625 11.94598388671875 70.11915588378906 8.736953735351562 64.82049560546875 6.495796203613281 C 59.33623123168945 4.176155090332031 53.50878524780273 3 47.5 3 M 47.5 0 C 73.7335205078125 0 95 21.2664794921875 95 47.5 C 95 73.7335205078125 73.7335205078125 95 47.5 95 C 21.2664794921875 95 0 73.7335205078125 0 47.5 C 0 21.2664794921875 21.2664794921875 0 47.5 0 Z" stroke="none" fill="#098576"/>
                      </g>
                    </g>
                  </g>
                </g>
              </g>
            </g>
          </g>
        </g>
      </g>
    </g>
    <g id="grupo-de-chat" transform="translate(1242.221 5655.913)">
      <path id="Trazado_1216923" data-name="Trazado 1216923" d="M67.252,37.353A29.863,29.863,0,0,1,38.934,67.175q-.766.038-1.543.038a29.86,29.86,0,1,1,29.86-29.86Z" transform="translate(-6.612 -6.592)" fill="#f4f4f5"/>
      <path id="Trazado_1216924" data-name="Trazado 1216924" d="M38.934,75.1q-.766.038-1.543.038A29.864,29.864,0,0,1,29.4,16.5C24.617,26.3,15.294,52.713,38.934,75.1Z" transform="translate(-6.612 -14.519)" fill="#dedde0"/>
      <path id="Trazado_1216925" data-name="Trazado 1216925" d="M411.729,89.118v.912a1.8,1.8,0,0,1-1.58,1.788,1.684,1.684,0,0,1-.222.014h-9.062a1.8,1.8,0,0,1-1.8-1.8v-.912a6.334,6.334,0,0,1,12.668,0Z" transform="translate(-351.089 -72.833)" fill="#ace094"/>
      <path id="Trazado_1216926" data-name="Trazado 1216926" d="M410.148,92.821a1.685,1.685,0,0,1-.222.014h-9.062a1.8,1.8,0,0,1-1.8-1.8v-.912a6.337,6.337,0,0,1,5.017-6.2A21.224,21.224,0,0,0,410.148,92.821Z" transform="translate(-351.089 -73.836)" fill="#8dd470"/>
      <path id="Trazado_1216927" data-name="Trazado 1216927" d="M411.73,13.828a6.334,6.334,0,0,1-6.062,6.327L403.3,18.531l-2.34-.18a6.333,6.333,0,1,1,10.765-4.523Z" transform="translate(-351.09 -6.592)" fill="#ffddcf"/>
      <path id="Trazado_1216928" data-name="Trazado 1216928" d="M405.666,20.911c-.09,0-.181.006-.273.006a6.334,6.334,0,0,1-1.144-12.564C403.7,9.632,401.961,14.667,405.666,20.911Z" transform="translate(-351.088 -7.348)" fill="#ffcbbe"/>
      <path id="Trazado_1216929" data-name="Trazado 1216929" d="M411.729,435.476v.912a1.8,1.8,0,0,1-1.435,1.765,1.854,1.854,0,0,1-.368.037h-9.062a1.8,1.8,0,0,1-1.8-1.8v-.912a6.334,6.334,0,0,1,12.668,0Z" transform="translate(-351.089 -377.569)" fill="#a57cd2"/>
      <path id="Trazado_1216930" data-name="Trazado 1216930" d="M410.293,439.086a1.854,1.854,0,0,1-.368.037h-9.062a1.8,1.8,0,0,1-1.8-1.8v-.912a6.334,6.334,0,0,1,5.065-6.206A21.476,21.476,0,0,0,410.293,439.086Z" transform="translate(-351.088 -378.502)" fill="#8c5ac5"/>
      <path id="Trazado_1216931" data-name="Trazado 1216931" d="M411.729,360.178a6.334,6.334,0,0,1-5.97,6.323l-2.169-1.389-2.626-.409a6.334,6.334,0,1,1,10.765-4.525Z" transform="translate(-351.089 -311.318)" fill="#ffddcf"/>
      <path id="Trazado_1216932" data-name="Trazado 1216932" d="M405.758,367.353q-.18.011-.364.011a6.335,6.335,0,0,1-1.215-12.551C403.563,356.336,402.085,361.287,405.758,367.353Z" transform="translate(-351.089 -312.172)" fill="#ffcbbe"/>
      <path id="Trazado_1216933" data-name="Trazado 1216933" d="M20.2,435.476v.912a1.8,1.8,0,0,1-1.8,1.8H9.334a1.8,1.8,0,0,1-1.8-1.8v-.912a6.334,6.334,0,0,1,12.668,0Z" transform="translate(-6.612 -377.569)" fill="#b4e9f1"/>
      <path id="Trazado_1216934" data-name="Trazado 1216934" d="M18.742,439.125a1.817,1.817,0,0,1-.346.034H9.334a1.8,1.8,0,0,1-1.8-1.8v-.912a6.335,6.335,0,0,1,5.041-6.2A21.483,21.483,0,0,0,18.742,439.125Z" transform="translate(-6.612 -378.537)" fill="#81d8e7"/>
      <path id="Trazado_1216935" data-name="Trazado 1216935" d="M20.2,360.178A6.333,6.333,0,0,1,14.2,366.5l-2.3-1.755H9.479a6.334,6.334,0,1,1,10.72-4.569Z" transform="translate(-6.612 -311.318)" fill="#ffddcf"/>
      <path id="Trazado_1216936" data-name="Trazado 1216936" d="M14.2,367.4c-.112.007-.225.01-.339.01a6.334,6.334,0,0,1-1.245-12.545C12,356.393,10.533,361.34,14.2,367.4Z" transform="translate(-6.612 -312.216)" fill="#ffcbbe"/>
      <path id="Trazado_1216937" data-name="Trazado 1216937" d="M20.2,89.118v.912a1.8,1.8,0,0,1-1.6,1.791,1.579,1.579,0,0,1-.2.012H9.334a1.8,1.8,0,0,1-1.8-1.8v-.912a6.334,6.334,0,1,1,12.668,0Z" transform="translate(-6.612 -72.833)" fill="#ffb25a"/>
      <path id="Trazado_1216938" data-name="Trazado 1216938" d="M18.6,92.867a1.58,1.58,0,0,1-.2.012H9.334a1.8,1.8,0,0,1-1.8-1.8v-.912a6.337,6.337,0,0,1,4.992-6.191A21.243,21.243,0,0,0,18.6,92.867Z" transform="translate(-6.612 -73.88)" fill="#ff9c20"/>
      <path id="Trazado_1216939" data-name="Trazado 1216939" d="M20.2,13.828a6.332,6.332,0,0,1-6.086,6.327l-2.294-1.46-2.384-.343h0A6.334,6.334,0,1,1,20.2,13.828Z" transform="translate(-6.612 -6.592)" fill="#ffddcf"/>
      <path id="Trazado_1216940" data-name="Trazado 1216940" d="M14.113,20.955c-.082,0-.165.006-.248.006A6.334,6.334,0,0,1,12.691,8.4C12.135,9.691,10.412,14.722,14.113,20.955Z" transform="translate(-6.612 -7.392)" fill="#ffcbbe"/>
      <path id="Trazado_1216941" data-name="Trazado 1216941" d="M222.908,193.631a5.43,5.43,0,0,1-5.43,5.43h-.927a.883.883,0,0,0-.883.883v3.275a.9.9,0,0,1-1.538.637l-4.532-4.532a.9.9,0,0,0-.637-.263h-7.771a5.429,5.429,0,1,1,0-10.858h16.288A5.429,5.429,0,0,1,222.908,193.631Z" transform="translate(-172.221 -165.584)" fill="#ffb25a"/>
      <path id="Trazado_1216942" data-name="Trazado 1216942" d="M212.929,196.6a8.269,8.269,0,0,1-1.445,4.684l-1.887-1.887a.9.9,0,0,0-.637-.263h-7.771a5.429,5.429,0,0,1-.32-10.848h3.745A8.313,8.313,0,0,1,212.929,196.6Z" transform="translate(-172.221 -165.655)" fill="#ff9c20"/>
      <path id="Trazado_1216943" data-name="Trazado 1216943" d="M109.968,223.743a5.43,5.43,0,0,1-5.43,5.43H96.767a.9.9,0,0,0-.637.263L91.6,233.967a.9.9,0,0,1-1.538-.637v-3.275a.883.883,0,0,0-.883-.883h-.927a5.43,5.43,0,0,1,0-10.859h16.288A5.429,5.429,0,0,1,109.968,223.743Z" transform="translate(-72.854 -192.076)" fill="#ace094"/>
      <path id="Trazado_1216944" data-name="Trazado 1216944" d="M97.166,229.172h-.4a.9.9,0,0,0-.637.263L91.6,233.967a.9.9,0,0,1-1.538-.637v-3.275a.883.883,0,0,0-.883-.883h-.927a5.43,5.43,0,0,1,0-10.859h6.863C94.139,220.544,93.526,224.758,97.166,229.172Z" transform="translate(-72.854 -192.076)" fill="#8dd470"/>
      <path id="Trazado_1216945" data-name="Trazado 1216945" d="M61.541,7.239A7.234,7.234,0,0,0,47.456,4.914,30.563,30.563,0,0,0,40.83,1.685a.9.9,0,1,0-.588,1.7,28.78,28.78,0,0,1,6.84,3.44,7.2,7.2,0,0,0,1.58,4.931,7.172,7.172,0,0,0-1.593,4.527V17.2a2.707,2.707,0,0,0,2.7,2.7H57.63a29.006,29.006,0,0,1-.281,22.4,7.222,7.222,0,0,0-7.38.769.9.9,0,1,0,1.081,1.443,5.433,5.433,0,1,1-2.008,3,.9.9,0,1,0-1.747-.443,7.218,7.218,0,0,0,1.369,6.312c-.1.125-.2.252-.287.382a28.934,28.934,0,0,1-35.193,0c-.091-.13-.186-.258-.287-.383A7.23,7.23,0,0,0,4.21,42.3a29,29,0,0,1-.282-22.4h7.856a2.707,2.707,0,0,0,2.7-2.7v-.912A7.182,7.182,0,0,0,12.9,11.76a7.2,7.2,0,0,0,1.58-4.93A28.936,28.936,0,0,1,36.3,2.332a.9.9,0,0,0,.342-1.77A30.749,30.749,0,0,0,14.1,4.913,7.233,7.233,0,1,0,1.61,11.76,7.18,7.18,0,0,0,.018,16.288V17.2a2.709,2.709,0,0,0,2.01,2.613,30.808,30.808,0,0,0,.64,23.457A7.222,7.222,0,0,0,1.61,53.383,7.18,7.18,0,0,0,.018,57.911v.912a2.707,2.707,0,0,0,2.7,2.7h9.063a2.707,2.707,0,0,0,2.7-2.7,12.062,12.062,0,0,0-.083-2.01,30.767,30.767,0,0,0,32.748,0,11.968,11.968,0,0,0-.083,2.01,2.707,2.707,0,0,0,2.7,2.7h9.063a2.707,2.707,0,0,0,2.7-2.7v-.912a7.18,7.18,0,0,0-1.592-4.528A7.222,7.222,0,0,0,58.891,43.27a30.809,30.809,0,0,0,.641-23.457,2.709,2.709,0,0,0,2.01-2.613v-.912a7.18,7.18,0,0,0-1.592-4.528,7.2,7.2,0,0,0,1.592-4.521ZM7.253,1.806A5.433,5.433,0,1,1,1.82,7.239,5.439,5.439,0,0,1,7.253,1.806ZM1.82,16.288a5.391,5.391,0,0,1,1.091-3.265,7.217,7.217,0,0,0,8.683,0,5.392,5.392,0,0,1,1.091,3.265V17.2a.9.9,0,0,1-.9.9H2.722a.9.9,0,0,1-.9-.9v-.912ZM7.253,43.43A5.433,5.433,0,1,1,1.82,48.862,5.439,5.439,0,0,1,7.253,43.43Zm5.433,15.393a.9.9,0,0,1-.9.9H2.722a.9.9,0,0,1-.9-.9v-.912a5.39,5.39,0,0,1,1.09-3.265,7.217,7.217,0,0,0,8.684,0,5.391,5.391,0,0,1,1.091,3.264Zm47.053,0a.9.9,0,0,1-.9.9H49.774a.9.9,0,0,1-.9-.9v-.912a5.388,5.388,0,0,1,1.091-3.265,7.217,7.217,0,0,0,8.684,0,5.39,5.39,0,0,1,1.091,3.265ZM54.306,1.806a5.433,5.433,0,1,1-5.433,5.433A5.439,5.439,0,0,1,54.306,1.806ZM59.738,17.2a.9.9,0,0,1-.9.9H49.774a.9.9,0,0,1-.9-.9v-.912a5.386,5.386,0,0,1,1.09-3.265,7.217,7.217,0,0,0,8.684,0,5.391,5.391,0,0,1,1.091,3.265V17.2Z" transform="translate(0 0)"/>
      <path id="Trazado_1216946" data-name="Trazado 1216946" d="M97.951,195.209a.9.9,0,0,0,0,1.8,6.335,6.335,0,0,0,5.478-3.186l4.1,4.1a1.8,1.8,0,0,0,3.077-1.274v-3.257h.909a6.33,6.33,0,1,0,0-12.661H95.226a6.315,6.315,0,0,0-5.72,3.618H81.653a6.331,6.331,0,0,0,0,12.662h.909v3.257a1.8,1.8,0,0,0,3.077,1.274l4.531-4.531h3.576a.9.9,0,0,0,0-1.8H90.17a1.815,1.815,0,0,0-1.274.527l-4.532,4.531v-3.273a1.787,1.787,0,0,0-1.785-1.785h-.927a4.528,4.528,0,0,1,0-9.057H97.94a4.528,4.528,0,0,1,.01,9.057Zm-.01-10.859H91.6a4.5,4.5,0,0,1,3.625-1.816h16.287a4.528,4.528,0,1,1,0,9.055h-.927a1.787,1.787,0,0,0-1.785,1.785v3.273l-4.668-4.653A6.329,6.329,0,0,0,97.94,184.35Z" transform="translate(-66.256 -159.01)"/>
    </g>
  </g>
</svg>
