<svg xmlns="http://www.w3.org/2000/svg" xmlns:xlink="http://www.w3.org/1999/xlink" width="647.704" height="385" viewBox="0 0 647.704 385">
  <defs>
    <filter id="Trazado_1218247" x="92.704" y="0" width="555" height="385" filterUnits="userSpaceOnUse">
      <feOffset dy="3" input="SourceAlpha"/>
      <feGaussianBlur stdDeviation="3" result="blur"/>
      <feFlood flood-opacity="0.161"/>
      <feComposite operator="in" in2="blur"/>
      <feComposite in="SourceGraphic"/>
    </filter>
    <filter id="Trazado_1218249" x="402.704" y="277" width="170" height="83" filterUnits="userSpaceOnUse">
      <feOffset dy="3" input="SourceAlpha"/>
      <feGaussianBlur stdDeviation="3" result="blur-2"/>
      <feFlood flood-opacity="0.161"/>
      <feComposite operator="in" in2="blur-2"/>
      <feComposite in="SourceGraphic"/>
    </filter>
    <filter id="Trazado_1218253" x="129.704" y="52" width="171" height="83" filterUnits="userSpaceOnUse">
      <feOffset dy="3" input="SourceAlpha"/>
      <feGaussianBlur stdDeviation="3" result="blur-3"/>
      <feFlood flood-opacity="0.161"/>
      <feComposite operator="in" in2="blur-3"/>
      <feComposite in="SourceGraphic"/>
    </filter>
    <filter id="Trazado_1218255" x="164.704" y="120" width="167" height="83" filterUnits="userSpaceOnUse">
      <feOffset dy="3" input="SourceAlpha"/>
      <feGaussianBlur stdDeviation="3" result="blur-4"/>
      <feFlood flood-opacity="0.161"/>
      <feComposite operator="in" in2="blur-4"/>
      <feComposite in="SourceGraphic"/>
    </filter>
    <filter id="Trazado_1218257" x="164.704" y="192" width="167" height="83" filterUnits="userSpaceOnUse">
      <feOffset dy="3" input="SourceAlpha"/>
      <feGaussianBlur stdDeviation="3" result="blur-5"/>
      <feFlood flood-opacity="0.161"/>
      <feComposite operator="in" in2="blur-5"/>
      <feComposite in="SourceGraphic"/>
    </filter>
    <filter id="Trazado_1218259" x="129.704" y="259" width="163" height="83" filterUnits="userSpaceOnUse">
      <feOffset dy="3" input="SourceAlpha"/>
      <feGaussianBlur stdDeviation="3" result="blur-6"/>
      <feFlood flood-opacity="0.161"/>
      <feComposite operator="in" in2="blur-6"/>
      <feComposite in="SourceGraphic"/>
    </filter>
  </defs>
  <g id="Grupo_1228665" data-name="Grupo 1228665" transform="translate(-226.296 -6542.243)">
    <g transform="matrix(1, 0, 0, 1, 226.3, 6542.24)" filter="url(#Trazado_1218247)">
      <path id="Trazado_1218247-2" data-name="Trazado 1218247" d="M0,0H537V367H0Z" transform="translate(101.7 6)" fill="#b6fbf3"/>
    </g>
    <path id="Trazado_1218248" data-name="Trazado 1218248" d="M24.655,16.531a6.571,6.571,0,0,1-3.094.656,4.989,4.989,0,0,1-3.828-1.539A5.679,5.679,0,0,1,16.3,11.609a5.952,5.952,0,0,1,1.617-4.344,5.489,5.489,0,0,1,4.1-1.656,6.576,6.576,0,0,1,2.641.461v1.4A5.355,5.355,0,0,0,22,6.8,4.076,4.076,0,0,0,18.87,8.086a4.856,4.856,0,0,0-1.2,3.445,4.621,4.621,0,0,0,1.121,3.262,3.815,3.815,0,0,0,2.941,1.215,5.518,5.518,0,0,0,2.922-.75ZM28.048,17H26.766V5.156h1.281ZM31.3,6.969a.812.812,0,0,1-.586-.234.791.791,0,0,1-.242-.594A.821.821,0,0,1,31.3,5.3a.827.827,0,0,1,.6.238.835.835,0,0,1,0,1.184A.82.82,0,0,1,31.3,6.969ZM31.924,17H30.643V9h1.281Zm9.025-3.68H35.3a2.992,2.992,0,0,0,.719,2.063,2.478,2.478,0,0,0,1.891.727,3.931,3.931,0,0,0,2.484-.891v1.2a4.643,4.643,0,0,1-2.789.766,3.381,3.381,0,0,1-2.664-1.09,4.461,4.461,0,0,1-.969-3.066,4.375,4.375,0,0,1,1.059-3.043A3.394,3.394,0,0,1,37.66,8.813a3.008,3.008,0,0,1,2.43,1.016,4.234,4.234,0,0,1,.859,2.82Zm-1.312-1.086a2.607,2.607,0,0,0-.535-1.727,1.823,1.823,0,0,0-1.465-.617,2.07,2.07,0,0,0-1.539.648,2.943,2.943,0,0,0-.781,1.7ZM49.529,17H48.248V12.438q0-2.547-1.859-2.547a2.017,2.017,0,0,0-1.59.723,2.679,2.679,0,0,0-.629,1.824V17H42.888V9H44.17v1.328H44.2a2.887,2.887,0,0,1,2.625-1.516,2.448,2.448,0,0,1,2.008.848,3.776,3.776,0,0,1,.7,2.449Zm6.127-.078a2.47,2.47,0,0,1-1.2.25q-2.1,0-2.1-2.344V10.094H50.984V9h1.375V7.047l1.281-.414V9h2.016v1.094H53.64V14.6a1.869,1.869,0,0,0,.273,1.148,1.091,1.091,0,0,0,.906.344,1.347,1.347,0,0,0,.836-.266Zm8.142-3.6H58.149a2.992,2.992,0,0,0,.719,2.063,2.478,2.478,0,0,0,1.891.727,3.931,3.931,0,0,0,2.484-.891v1.2a4.643,4.643,0,0,1-2.789.766A3.381,3.381,0,0,1,57.79,16.1a4.461,4.461,0,0,1-.969-3.066A4.375,4.375,0,0,1,57.88,9.988a3.394,3.394,0,0,1,2.629-1.176,3.008,3.008,0,0,1,2.43,1.016,4.234,4.234,0,0,1,.859,2.82Zm-1.312-1.086a2.607,2.607,0,0,0-.535-1.727,1.823,1.823,0,0,0-1.465-.617,2.07,2.07,0,0,0-1.539.648,2.943,2.943,0,0,0-.781,1.7Z" transform="translate(210 6740.024)" fill="#212429"/>
    <g transform="matrix(1, 0, 0, 1, 226.3, 6542.24)" filter="url(#Trazado_1218249)">
      <path id="Trazado_1218249-2" data-name="Trazado 1218249" d="M76,0c41.974,0,76,14.551,76,32.5S117.974,65,76,65,0,50.449,0,32.5,34.026,0,76,0Z" transform="translate(411.7 283)" fill="#f6c810"/>
    </g>
    <path id="Trazado_1218250" data-name="Trazado 1218250" d="M19.871,5.8,15.722,17H14.277L10.215,5.8h1.461l3.1,8.883a5.274,5.274,0,0,1,.227.992h.031a4.866,4.866,0,0,1,.258-1.008L18.457,5.8Zm6.853,7.523H21.076a2.992,2.992,0,0,0,.719,2.063,2.478,2.478,0,0,0,1.891.727,3.931,3.931,0,0,0,2.484-.891v1.2a4.643,4.643,0,0,1-2.789.766,3.381,3.381,0,0,1-2.664-1.09,4.461,4.461,0,0,1-.969-3.066,4.375,4.375,0,0,1,1.059-3.043,3.394,3.394,0,0,1,2.629-1.176,3.008,3.008,0,0,1,2.43,1.016,4.234,4.234,0,0,1,.859,2.82Zm-1.312-1.086a2.607,2.607,0,0,0-.535-1.727,1.823,1.823,0,0,0-1.465-.617,2.07,2.07,0,0,0-1.539.648,2.943,2.943,0,0,0-.781,1.7ZM32.835,10.3a1.567,1.567,0,0,0-.969-.258,1.635,1.635,0,0,0-1.371.773,3.576,3.576,0,0,0-.551,2.109V17H28.663V9h1.281v1.648h.031a2.793,2.793,0,0,1,.836-1.316,1.906,1.906,0,0,1,1.258-.473,2.092,2.092,0,0,1,.766.109Zm2.048-3.328a.812.812,0,0,1-.586-.234.791.791,0,0,1-.242-.594.821.821,0,0,1,.828-.836.827.827,0,0,1,.6.238.835.835,0,0,1,0,1.184A.82.82,0,0,1,34.883,6.969ZM35.508,17H34.227V9h1.281ZM42.057,6.281a1.707,1.707,0,0,0-.852-.211q-1.344,0-1.344,1.7V9h1.875v1.094H39.862V17H38.588V10.094H37.221V9h1.367V7.7a2.7,2.7,0,0,1,.727-1.988,2.453,2.453,0,0,1,1.813-.73,2.511,2.511,0,0,1,.93.141Zm1.713.688a.812.812,0,0,1-.586-.234.791.791,0,0,1-.242-.594.821.821,0,0,1,.828-.836.827.827,0,0,1,.6.238.835.835,0,0,1,0,1.184A.82.82,0,0,1,43.769,6.969ZM44.394,17H43.113V9h1.281Zm8.048-.367a4.163,4.163,0,0,1-2.187.555,3.622,3.622,0,0,1-2.762-1.113,4.035,4.035,0,0,1-1.051-2.887,4.435,4.435,0,0,1,1.133-3.176,3.963,3.963,0,0,1,3.023-1.2,4.209,4.209,0,0,1,1.859.391v1.313a3.258,3.258,0,0,0-1.906-.625,2.576,2.576,0,0,0-2.012.879,3.335,3.335,0,0,0-.785,2.309,3.176,3.176,0,0,0,.738,2.219,2.545,2.545,0,0,0,1.98.813,3.211,3.211,0,0,0,1.969-.7ZM60.109,17H58.827V15.75H58.8a2.682,2.682,0,0,1-2.461,1.438,2.63,2.63,0,0,1-1.871-.633,2.192,2.192,0,0,1-.676-1.68q0-2.242,2.641-2.609l2.4-.336q0-2.039-1.648-2.039a3.938,3.938,0,0,0-2.609.984V9.563a4.958,4.958,0,0,1,2.719-.75q2.82,0,2.82,2.984Zm-1.281-4.047-1.93.266a3.133,3.133,0,0,0-1.344.441,1.273,1.273,0,0,0-.453,1.121,1.221,1.221,0,0,0,.418.957,1.615,1.615,0,0,0,1.113.371,2.056,2.056,0,0,0,1.574-.668,2.387,2.387,0,0,0,.621-1.691ZM66.7,10.3a1.567,1.567,0,0,0-.969-.258,1.635,1.635,0,0,0-1.371.773,3.576,3.576,0,0,0-.551,2.109V17H62.524V9h1.281v1.648h.031a2.793,2.793,0,0,1,.836-1.316,1.906,1.906,0,0,1,1.258-.473,2.092,2.092,0,0,1,.766.109ZM83.832,17H82.551V12.406a3.466,3.466,0,0,0-.41-1.922,1.555,1.555,0,0,0-1.379-.594,1.708,1.708,0,0,0-1.395.75,2.869,2.869,0,0,0-.574,1.8V17H77.512V12.25q0-2.359-1.82-2.359A1.686,1.686,0,0,0,74.3,10.6a2.923,2.923,0,0,0-.547,1.84V17H72.473V9h1.281v1.266h.031A2.718,2.718,0,0,1,76.27,8.813a2.311,2.311,0,0,1,2.266,1.656,2.855,2.855,0,0,1,2.656-1.656q2.641,0,2.641,3.258Zm8.853-3.68H87.037a2.992,2.992,0,0,0,.719,2.063,2.478,2.478,0,0,0,1.891.727,3.931,3.931,0,0,0,2.484-.891v1.2a4.643,4.643,0,0,1-2.789.766,3.381,3.381,0,0,1-2.664-1.09,4.461,4.461,0,0,1-.969-3.066,4.375,4.375,0,0,1,1.059-3.043A3.394,3.394,0,0,1,89.4,8.813a3.008,3.008,0,0,1,2.43,1.016,4.234,4.234,0,0,1,.859,2.82Zm-1.312-1.086a2.607,2.607,0,0,0-.535-1.727,1.823,1.823,0,0,0-1.465-.617,2.07,2.07,0,0,0-1.539.648,2.943,2.943,0,0,0-.781,1.7Zm-.2-7.312L89.123,7.484h-.992l1.742-2.562Zm7.166,12a2.47,2.47,0,0,1-1.2.25q-2.1,0-2.1-2.344V10.094H93.663V9h1.375V7.047l1.281-.414V9h2.016v1.094H96.32V14.6a1.869,1.869,0,0,0,.273,1.148,1.091,1.091,0,0,0,.906.344,1.347,1.347,0,0,0,.836-.266Zm5.056.266a3.711,3.711,0,0,1-2.832-1.121A4.153,4.153,0,0,1,99.5,13.094a4.326,4.326,0,0,1,1.1-3.148,3.96,3.96,0,0,1,2.977-1.133,3.588,3.588,0,0,1,2.793,1.1,4.368,4.368,0,0,1,1,3.055,4.3,4.3,0,0,1-1.082,3.066A3.791,3.791,0,0,1,103.392,17.188Zm.094-7.3a2.437,2.437,0,0,0-1.953.84,3.449,3.449,0,0,0-.719,2.316,3.262,3.262,0,0,0,.727,2.242,2.469,2.469,0,0,0,1.945.82,2.342,2.342,0,0,0,1.91-.8,3.492,3.492,0,0,0,.668-2.289A3.552,3.552,0,0,0,105.4,10.7,2.332,2.332,0,0,0,103.485,9.891ZM116.253,17h-1.281V15.641h-.031a2.958,2.958,0,0,1-2.75,1.547,2.988,2.988,0,0,1-2.41-1.074,4.407,4.407,0,0,1-.9-2.926,4.794,4.794,0,0,1,1-3.18,3.3,3.3,0,0,1,2.664-1.2,2.564,2.564,0,0,1,2.4,1.3h.031V5.156h1.281Zm-1.281-3.617V12.2a2.289,2.289,0,0,0-.641-1.641,2.149,2.149,0,0,0-1.625-.672,2.212,2.212,0,0,0-1.844.859,3.766,3.766,0,0,0-.672,2.375,3.387,3.387,0,0,0,.645,2.184,2.107,2.107,0,0,0,1.73.8,2.188,2.188,0,0,0,1.738-.773A2.882,2.882,0,0,0,114.971,13.383Zm7.22,3.8a3.711,3.711,0,0,1-2.832-1.121,4.153,4.153,0,0,1-1.059-2.973,4.326,4.326,0,0,1,1.1-3.148,3.96,3.96,0,0,1,2.977-1.133,3.588,3.588,0,0,1,2.793,1.1,4.368,4.368,0,0,1,1,3.055,4.3,4.3,0,0,1-1.082,3.066A3.791,3.791,0,0,1,122.192,17.188Zm.094-7.3a2.437,2.437,0,0,0-1.953.84,3.449,3.449,0,0,0-.719,2.316,3.262,3.262,0,0,0,.727,2.242,2.469,2.469,0,0,0,1.945.82,2.342,2.342,0,0,0,1.91-.8,3.492,3.492,0,0,0,.668-2.289A3.552,3.552,0,0,0,124.2,10.7,2.332,2.332,0,0,0,122.285,9.891ZM47.362,35H46.081V33.641H46.05a2.958,2.958,0,0,1-2.75,1.547,2.988,2.988,0,0,1-2.41-1.074,4.407,4.407,0,0,1-.9-2.926,4.794,4.794,0,0,1,1-3.18,3.3,3.3,0,0,1,2.664-1.2,2.564,2.564,0,0,1,2.4,1.3h.031V23.156h1.281Zm-1.281-3.617V30.2a2.289,2.289,0,0,0-.641-1.641,2.149,2.149,0,0,0-1.625-.672,2.212,2.212,0,0,0-1.844.859,3.766,3.766,0,0,0-.672,2.375,3.387,3.387,0,0,0,.645,2.184,2.107,2.107,0,0,0,1.73.8,2.188,2.188,0,0,0,1.738-.773A2.882,2.882,0,0,0,46.081,31.383Zm10.306-.062H50.739a2.992,2.992,0,0,0,.719,2.063,2.478,2.478,0,0,0,1.891.727,3.931,3.931,0,0,0,2.484-.891v1.2a4.643,4.643,0,0,1-2.789.766A3.381,3.381,0,0,1,50.38,34.1a4.461,4.461,0,0,1-.969-3.066,4.375,4.375,0,0,1,1.059-3.043A3.394,3.394,0,0,1,53.1,26.813a3.008,3.008,0,0,1,2.43,1.016,4.234,4.234,0,0,1,.859,2.82Zm-1.312-1.086a2.607,2.607,0,0,0-.535-1.727,1.823,1.823,0,0,0-1.465-.617,2.07,2.07,0,0,0-1.539.648,2.943,2.943,0,0,0-.781,1.7Zm8.949,3.609h-.031V38.68H62.711V27h1.281v1.406h.031a3.03,3.03,0,0,1,2.766-1.594A2.93,2.93,0,0,1,69.2,27.887a4.449,4.449,0,0,1,.867,2.879,4.959,4.959,0,0,1-.977,3.215,3.251,3.251,0,0,1-2.672,1.207A2.676,2.676,0,0,1,64.023,33.844Zm-.031-3.227v1.117a2.379,2.379,0,0,0,.645,1.684,2.3,2.3,0,0,0,3.461-.2,4.086,4.086,0,0,0,.66-2.477,3.225,3.225,0,0,0-.617-2.094,2.043,2.043,0,0,0-1.672-.758,2.27,2.27,0,0,0-1.8.777A2.854,2.854,0,0,0,63.992,30.617ZM77.845,35H76.564V33.75h-.031a2.682,2.682,0,0,1-2.461,1.438,2.63,2.63,0,0,1-1.871-.633,2.192,2.192,0,0,1-.676-1.68q0-2.242,2.641-2.609l2.4-.336q0-2.039-1.648-2.039a3.938,3.938,0,0,0-2.609.984V27.563a4.958,4.958,0,0,1,2.719-.75q2.82,0,2.82,2.984Zm-1.281-4.047-1.93.266a3.133,3.133,0,0,0-1.344.441,1.273,1.273,0,0,0-.453,1.121,1.221,1.221,0,0,0,.418.957,1.615,1.615,0,0,0,1.113.371,2.056,2.056,0,0,0,1.574-.668,2.387,2.387,0,0,0,.621-1.691Zm10.525,3.406q0,4.406-4.219,4.406a5.664,5.664,0,0,1-2.594-.562V36.922a5.327,5.327,0,0,0,2.578.75q2.953,0,2.953-3.141v-.875h-.031a3.237,3.237,0,0,1-5.152.465,4.263,4.263,0,0,1-.91-2.863,4.981,4.981,0,0,1,.98-3.242,3.275,3.275,0,0,1,2.684-1.2,2.608,2.608,0,0,1,2.4,1.3h.031V27h1.281Zm-1.281-2.977V30.2a2.289,2.289,0,0,0-.645-1.633,2.122,2.122,0,0,0-1.605-.68,2.225,2.225,0,0,0-1.859.863,3.853,3.853,0,0,0-.672,2.418,3.308,3.308,0,0,0,.645,2.137,2.082,2.082,0,0,0,1.707.8,2.23,2.23,0,0,0,1.754-.766A2.854,2.854,0,0,0,85.808,31.383Zm7.22,3.8A3.711,3.711,0,0,1,90.2,34.066a4.153,4.153,0,0,1-1.059-2.973,4.326,4.326,0,0,1,1.1-3.148,3.96,3.96,0,0,1,2.977-1.133,3.588,3.588,0,0,1,2.793,1.1,4.368,4.368,0,0,1,1,3.055,4.3,4.3,0,0,1-1.082,3.066A3.791,3.791,0,0,1,93.028,35.188Zm.094-7.3a2.437,2.437,0,0,0-1.953.84,3.449,3.449,0,0,0-.719,2.316,3.262,3.262,0,0,0,.727,2.242,2.469,2.469,0,0,0,1.945.82,2.342,2.342,0,0,0,1.91-.8,3.492,3.492,0,0,0,.668-2.289,3.552,3.552,0,0,0-.668-2.312A2.332,2.332,0,0,0,93.122,27.891Z" transform="translate(647 6842.243)" fill="#212429"/>
    <path id="Trazado_1218251" data-name="Trazado 1218251" d="M9.265,16.008,2.547,12.633v-.461L9.265,8.406V9.578L4.25,12.359v.031l5.016,2.453Zm10.947,0-6.719-3.375v-.461l6.719-3.766V9.578L15.2,12.359v.031l5.016,2.453Zm4.056-9.039a.812.812,0,0,1-.586-.234.791.791,0,0,1-.242-.594.821.821,0,0,1,.828-.836.827.827,0,0,1,.6.238.835.835,0,0,1,0,1.184A.82.82,0,0,1,24.269,6.969ZM24.894,17H23.612V9h1.281Zm9.236,0H32.848V12.438q0-2.547-1.859-2.547a2.017,2.017,0,0,0-1.59.723,2.679,2.679,0,0,0-.629,1.824V17H27.489V9H28.77v1.328H28.8a2.887,2.887,0,0,1,2.625-1.516,2.448,2.448,0,0,1,2.008.848,3.776,3.776,0,0,1,.7,2.449ZM42,16.633a4.163,4.163,0,0,1-2.187.555,3.622,3.622,0,0,1-2.762-1.113A4.035,4.035,0,0,1,36,13.188a4.435,4.435,0,0,1,1.133-3.176,3.963,3.963,0,0,1,3.023-1.2,4.209,4.209,0,0,1,1.859.391v1.313a3.258,3.258,0,0,0-1.906-.625,2.576,2.576,0,0,0-2.012.879,3.335,3.335,0,0,0-.785,2.309,3.176,3.176,0,0,0,.738,2.219,2.545,2.545,0,0,0,1.98.813,3.211,3.211,0,0,0,1.969-.7Zm3.22.367H43.938V5.156h1.281Zm9.064,0H53V15.734H52.97A2.631,2.631,0,0,1,50.5,17.188q-2.859,0-2.859-3.406V9h1.273v4.578q0,2.531,1.938,2.531a1.96,1.96,0,0,0,1.543-.691A2.645,2.645,0,0,0,53,13.609V9h1.281Zm8.955-8-3.68,9.281q-.984,2.484-2.766,2.484a2.931,2.931,0,0,1-.836-.1V19.516a2.375,2.375,0,0,0,.758.141A1.57,1.57,0,0,0,58.167,18.5l.641-1.516L55.683,9H57.1l2.164,6.156q.039.117.164.609h.047q.039-.187.156-.594L61.909,9Zm7.806,4.32H65.4a2.992,2.992,0,0,0,.719,2.063A2.478,2.478,0,0,0,68,16.109a3.931,3.931,0,0,0,2.484-.891v1.2a4.643,4.643,0,0,1-2.789.766,3.381,3.381,0,0,1-2.664-1.09,4.461,4.461,0,0,1-.969-3.066,4.375,4.375,0,0,1,1.059-3.043,3.394,3.394,0,0,1,2.629-1.176,3.008,3.008,0,0,1,2.43,1.016,4.234,4.234,0,0,1,.859,2.82Zm-1.312-1.086a2.607,2.607,0,0,0-.535-1.727,1.823,1.823,0,0,0-1.465-.617,2.07,2.07,0,0,0-1.539.648,2.943,2.943,0,0,0-.781,1.7Zm10.8.4-6.719,3.375V14.844l5.031-2.437v-.047L73.811,9.578V8.406l6.719,3.766Zm10.947,0-6.719,3.375V14.844l5.031-2.437v-.047L84.758,9.578V8.406l6.719,3.766Z" transform="matrix(0.995, 0.105, -0.105, 0.995, 530.303, 6820.385)" fill="#212429"/>
    <g id="Trazado_1215938" data-name="Trazado 1215938" transform="translate(627 6673.243)" fill="#e5fdfa" stroke-linecap="round">
      <path d="M 206.2439117431641 94.25 L 0.75 94.25 L 0.75 0.75 L 171.6256103515625 0.75 L 185.4498138427734 16.76592063903809 L 185.4586334228516 16.77613067626953 L 185.4678192138672 16.78602600097656 L 205.7943725585938 38.69099044799805 L 206.2439117431641 94.25 Z" stroke="none"/>
      <path d="M 1.5 1.5 L 1.5 93.5 L 205.4878234863281 93.5 L 205.0467681884766 38.98792266845703 L 184.882080078125 17.25599670410156 L 171.2822418212891 1.5 L 1.5 1.5 M 0 0 L 171.968994140625 0 L 186.017578125 16.27588653564453 L 206.5420074462891 38.3940544128418 L 207 95 L 0 95 L 0 0 Z" stroke="none" fill="#098576"/>
    </g>
    <path id="Trazado_1218252" data-name="Trazado 1218252" d="M13.933,17H8.121V5.8H9.433V15.813h4.5Zm7.275,0H19.927V15.75H19.9a2.682,2.682,0,0,1-2.461,1.438,2.63,2.63,0,0,1-1.871-.633,2.192,2.192,0,0,1-.676-1.68q0-2.242,2.641-2.609l2.4-.336q0-2.039-1.648-2.039a3.938,3.938,0,0,0-2.609.984V9.563a4.958,4.958,0,0,1,2.719-.75q2.82,0,2.82,2.984Zm-1.281-4.047L18,13.219a3.133,3.133,0,0,0-1.344.441,1.273,1.273,0,0,0-.453,1.121,1.221,1.221,0,0,0,.418.957,1.615,1.615,0,0,0,1.113.371,2.056,2.056,0,0,0,1.574-.668,2.387,2.387,0,0,0,.621-1.691ZM34.3,9,31.11,17H29.852L26.821,9h1.406l2.031,5.813a5.217,5.217,0,0,1,.281,1.117h.031a5.283,5.283,0,0,1,.25-1.086L32.946,9ZM42.1,13.32H36.455a2.992,2.992,0,0,0,.719,2.063,2.478,2.478,0,0,0,1.891.727,3.931,3.931,0,0,0,2.484-.891v1.2a4.643,4.643,0,0,1-2.789.766A3.381,3.381,0,0,1,36.1,16.1a4.461,4.461,0,0,1-.969-3.066,4.375,4.375,0,0,1,1.059-3.043,3.394,3.394,0,0,1,2.629-1.176,3.008,3.008,0,0,1,2.43,1.016,4.234,4.234,0,0,1,.859,2.82Zm-1.312-1.086a2.607,2.607,0,0,0-.535-1.727,1.823,1.823,0,0,0-1.465-.617,2.07,2.07,0,0,0-1.539.648,2.943,2.943,0,0,0-.781,1.7ZM48.215,10.3a1.567,1.567,0,0,0-.969-.258,1.635,1.635,0,0,0-1.371.773,3.576,3.576,0,0,0-.551,2.109V17H44.043V9h1.281v1.648h.031a2.794,2.794,0,0,1,.836-1.316,1.906,1.906,0,0,1,1.258-.473,2.092,2.092,0,0,1,.766.109Zm2.048-3.328a.812.812,0,0,1-.586-.234.791.791,0,0,1-.242-.594.821.821,0,0,1,.828-.836.827.827,0,0,1,.6.238.835.835,0,0,1,0,1.184A.82.82,0,0,1,50.263,6.969ZM50.888,17H49.607V9h1.281ZM57.437,6.281a1.707,1.707,0,0,0-.852-.211q-1.344,0-1.344,1.7V9h1.875v1.094H55.241V17H53.968V10.094H52.6V9h1.367V7.7a2.7,2.7,0,0,1,.727-1.988,2.453,2.453,0,0,1,1.813-.73,2.511,2.511,0,0,1,.93.141Zm1.713.688a.812.812,0,0,1-.586-.234.791.791,0,0,1-.242-.594.821.821,0,0,1,.828-.836.827.827,0,0,1,.6.238.835.835,0,0,1,0,1.184A.82.82,0,0,1,59.149,6.969ZM59.774,17H58.493V9h1.281Zm8.048-.367a4.163,4.163,0,0,1-2.187.555,3.622,3.622,0,0,1-2.762-1.113,4.035,4.035,0,0,1-1.051-2.887,4.435,4.435,0,0,1,1.133-3.176,3.963,3.963,0,0,1,3.023-1.2,4.209,4.209,0,0,1,1.859.391v1.313a3.258,3.258,0,0,0-1.906-.625,2.576,2.576,0,0,0-2.012.879,3.335,3.335,0,0,0-.785,2.309,3.176,3.176,0,0,0,.738,2.219,2.545,2.545,0,0,0,1.98.813,3.211,3.211,0,0,0,1.969-.7ZM75.488,17H74.207V15.75h-.031a2.682,2.682,0,0,1-2.461,1.438,2.63,2.63,0,0,1-1.871-.633,2.192,2.192,0,0,1-.676-1.68q0-2.242,2.641-2.609l2.4-.336q0-2.039-1.648-2.039a3.938,3.938,0,0,0-2.609.984V9.563a4.958,4.958,0,0,1,2.719-.75q2.82,0,2.82,2.984Zm-1.281-4.047-1.93.266a3.133,3.133,0,0,0-1.344.441,1.273,1.273,0,0,0-.453,1.121,1.221,1.221,0,0,0,.418.957,1.615,1.615,0,0,0,1.113.371,2.056,2.056,0,0,0,1.574-.668,2.387,2.387,0,0,0,.621-1.691Zm9.15,3.68a4.163,4.163,0,0,1-2.187.555,3.622,3.622,0,0,1-2.762-1.113,4.035,4.035,0,0,1-1.051-2.887,4.435,4.435,0,0,1,1.133-3.176,3.963,3.963,0,0,1,3.023-1.2,4.209,4.209,0,0,1,1.859.391v1.313a3.258,3.258,0,0,0-1.906-.625,2.576,2.576,0,0,0-2.012.879,3.335,3.335,0,0,0-.785,2.309,3.176,3.176,0,0,0,.738,2.219,2.545,2.545,0,0,0,1.98.813,3.211,3.211,0,0,0,1.969-.7Zm2.6-9.664a.812.812,0,0,1-.586-.234.791.791,0,0,1-.242-.594.821.821,0,0,1,.828-.836.827.827,0,0,1,.6.238.835.835,0,0,1,0,1.184A.82.82,0,0,1,85.952,6.969ZM86.577,17H85.3V9h1.281Zm5.939.188a3.711,3.711,0,0,1-2.832-1.121,4.153,4.153,0,0,1-1.059-2.973,4.326,4.326,0,0,1,1.1-3.148A3.96,3.96,0,0,1,92.7,8.813a3.588,3.588,0,0,1,2.793,1.1,4.368,4.368,0,0,1,1,3.055,4.3,4.3,0,0,1-1.082,3.066A3.791,3.791,0,0,1,92.517,17.188Zm.094-7.3a2.437,2.437,0,0,0-1.953.84,3.449,3.449,0,0,0-.719,2.316,3.262,3.262,0,0,0,.727,2.242,2.469,2.469,0,0,0,1.945.82,2.342,2.342,0,0,0,1.91-.8,3.492,3.492,0,0,0,.668-2.289A3.552,3.552,0,0,0,94.52,10.7,2.332,2.332,0,0,0,92.61,9.891Zm1.875-4.969L92.438,7.484h-.992l1.742-2.562ZM105.19,17h-1.281V12.438q0-2.547-1.859-2.547a2.017,2.017,0,0,0-1.59.723,2.679,2.679,0,0,0-.629,1.824V17H98.549V9h1.281v1.328h.031a2.887,2.887,0,0,1,2.625-1.516,2.448,2.448,0,0,1,2.008.848,3.776,3.776,0,0,1,.7,2.449Zm13.23-3.68h-5.648a2.992,2.992,0,0,0,.719,2.063,2.478,2.478,0,0,0,1.891.727,3.931,3.931,0,0,0,2.484-.891v1.2a4.643,4.643,0,0,1-2.789.766,3.381,3.381,0,0,1-2.664-1.09,4.461,4.461,0,0,1-.969-3.066A4.375,4.375,0,0,1,112.5,9.988a3.394,3.394,0,0,1,2.629-1.176,3.008,3.008,0,0,1,2.43,1.016,4.234,4.234,0,0,1,.859,2.82Zm-1.312-1.086a2.607,2.607,0,0,0-.535-1.727,1.823,1.823,0,0,0-1.465-.617,2.07,2.07,0,0,0-1.539.648,2.943,2.943,0,0,0-.781,1.7Zm2.767,4.477V15.336a3.792,3.792,0,0,0,2.3.773q1.688,0,1.688-1.125a.976.976,0,0,0-.145-.543,1.44,1.44,0,0,0-.391-.395,3.007,3.007,0,0,0-.578-.309q-.332-.137-.715-.285a9.207,9.207,0,0,1-.934-.426,2.82,2.82,0,0,1-.672-.484,1.8,1.8,0,0,1-.406-.613,2.17,2.17,0,0,1-.137-.8,1.912,1.912,0,0,1,.258-1,2.286,2.286,0,0,1,.688-.727,3.206,3.206,0,0,1,.98-.441,4.349,4.349,0,0,1,1.137-.148,4.59,4.59,0,0,1,1.859.359v1.3a3.624,3.624,0,0,0-2.031-.578,2.374,2.374,0,0,0-.648.082,1.587,1.587,0,0,0-.5.23,1.065,1.065,0,0,0-.32.355.936.936,0,0,0-.113.457,1.1,1.1,0,0,0,.113.523,1.152,1.152,0,0,0,.332.375,2.538,2.538,0,0,0,.531.3q.313.133.711.289a9.9,9.9,0,0,1,.953.418,3.269,3.269,0,0,1,.719.484,1.893,1.893,0,0,1,.457.621,2,2,0,0,1,.16.836,1.971,1.971,0,0,1-.262,1.031,2.243,2.243,0,0,1-.7.727,3.2,3.2,0,0,1-1.008.43,4.976,4.976,0,0,1-1.2.141A4.539,4.539,0,0,1,119.874,16.711ZM138,17h-1.281V15.734h-.031a2.631,2.631,0,0,1-2.469,1.453q-2.859,0-2.859-3.406V9h1.273v4.578q0,2.531,1.938,2.531a1.96,1.96,0,0,0,1.543-.691,2.645,2.645,0,0,0,.605-1.809V9H138Zm9.228,0H145.95V12.438q0-2.547-1.859-2.547a2.017,2.017,0,0,0-1.59.723,2.679,2.679,0,0,0-.629,1.824V17H140.59V9h1.281v1.328h.031a2.887,2.887,0,0,1,2.625-1.516,2.448,2.448,0,0,1,2.008.848,3.776,3.776,0,0,1,.7,2.449ZM14.565,33.844h-.031V38.68H13.252V27h1.281v1.406h.031a3.03,3.03,0,0,1,2.766-1.594,2.93,2.93,0,0,1,2.414,1.074,4.449,4.449,0,0,1,.867,2.879,4.959,4.959,0,0,1-.977,3.215,3.251,3.251,0,0,1-2.672,1.207A2.676,2.676,0,0,1,14.565,33.844Zm-.031-3.227v1.117a2.379,2.379,0,0,0,.645,1.684,2.3,2.3,0,0,0,3.461-.2,4.086,4.086,0,0,0,.66-2.477,3.225,3.225,0,0,0-.617-2.094,2.043,2.043,0,0,0-1.672-.758,2.27,2.27,0,0,0-1.8.777A2.854,2.854,0,0,0,14.533,30.617ZM28.386,35H27.105V33.75h-.031a2.682,2.682,0,0,1-2.461,1.438,2.63,2.63,0,0,1-1.871-.633,2.192,2.192,0,0,1-.676-1.68q0-2.242,2.641-2.609l2.4-.336q0-2.039-1.648-2.039a3.938,3.938,0,0,0-2.609.984V27.563a4.958,4.958,0,0,1,2.719-.75q2.82,0,2.82,2.984Zm-1.281-4.047-1.93.266a3.133,3.133,0,0,0-1.344.441,1.273,1.273,0,0,0-.453,1.121,1.221,1.221,0,0,0,.418.957,1.615,1.615,0,0,0,1.113.371,2.056,2.056,0,0,0,1.574-.668,2.387,2.387,0,0,0,.621-1.691Zm3.213,3.758V33.336a3.792,3.792,0,0,0,2.3.773q1.688,0,1.688-1.125a.976.976,0,0,0-.145-.543,1.44,1.44,0,0,0-.391-.395,3.007,3.007,0,0,0-.578-.309q-.332-.137-.715-.285a9.207,9.207,0,0,1-.934-.426,2.82,2.82,0,0,1-.672-.484,1.8,1.8,0,0,1-.406-.613,2.17,2.17,0,0,1-.137-.8,1.912,1.912,0,0,1,.258-1,2.286,2.286,0,0,1,.688-.727,3.206,3.206,0,0,1,.98-.441,4.349,4.349,0,0,1,1.137-.148,4.59,4.59,0,0,1,1.859.359v1.3a3.624,3.624,0,0,0-2.031-.578,2.374,2.374,0,0,0-.648.082,1.587,1.587,0,0,0-.5.23,1.065,1.065,0,0,0-.32.355.936.936,0,0,0-.113.457,1.1,1.1,0,0,0,.113.523,1.152,1.152,0,0,0,.332.375,2.538,2.538,0,0,0,.531.3q.312.133.711.289a9.894,9.894,0,0,1,.953.418,3.269,3.269,0,0,1,.719.484,1.893,1.893,0,0,1,.457.621,2,2,0,0,1,.16.836,1.971,1.971,0,0,1-.262,1.031,2.243,2.243,0,0,1-.7.727,3.2,3.2,0,0,1-1.008.43,4.976,4.976,0,0,1-1.2.141A4.539,4.539,0,0,1,30.318,34.711Zm10.619.477A3.711,3.711,0,0,1,38.1,34.066a4.153,4.153,0,0,1-1.059-2.973,4.326,4.326,0,0,1,1.1-3.148,3.96,3.96,0,0,1,2.977-1.133,3.588,3.588,0,0,1,2.793,1.1,4.368,4.368,0,0,1,1,3.055,4.3,4.3,0,0,1-1.082,3.066A3.791,3.791,0,0,1,40.937,35.188Zm.094-7.3a2.437,2.437,0,0,0-1.953.84,3.449,3.449,0,0,0-.719,2.316,3.262,3.262,0,0,0,.727,2.242,2.469,2.469,0,0,0,1.945.82,2.342,2.342,0,0,0,1.91-.8,3.492,3.492,0,0,0,.668-2.289A3.552,3.552,0,0,0,42.94,28.7,2.332,2.332,0,0,0,41.03,27.891ZM57.994,35H56.713V30.438q0-2.547-1.859-2.547a2.017,2.017,0,0,0-1.59.723,2.679,2.679,0,0,0-.629,1.824V35H51.354V27h1.281v1.328h.031a2.887,2.887,0,0,1,2.625-1.516,2.448,2.448,0,0,1,2.008.848,3.776,3.776,0,0,1,.7,2.449Zm8.845-3.68H61.191a2.992,2.992,0,0,0,.719,2.063,2.478,2.478,0,0,0,1.891.727,3.931,3.931,0,0,0,2.484-.891v1.2a4.643,4.643,0,0,1-2.789.766,3.381,3.381,0,0,1-2.664-1.09,4.461,4.461,0,0,1-.969-3.066,4.375,4.375,0,0,1,1.059-3.043,3.394,3.394,0,0,1,2.629-1.176,3.008,3.008,0,0,1,2.43,1.016,4.234,4.234,0,0,1,.859,2.82Zm-1.312-1.086a2.607,2.607,0,0,0-.535-1.727,1.823,1.823,0,0,0-1.465-.617,2.07,2.07,0,0,0-1.539.648,2.943,2.943,0,0,0-.781,1.7Zm8.7,4.4a4.163,4.163,0,0,1-2.187.555,3.622,3.622,0,0,1-2.762-1.113,4.035,4.035,0,0,1-1.051-2.887,4.435,4.435,0,0,1,1.133-3.176,3.963,3.963,0,0,1,3.023-1.2,4.209,4.209,0,0,1,1.859.391v1.313a3.258,3.258,0,0,0-1.906-.625,2.576,2.576,0,0,0-2.012.879,3.335,3.335,0,0,0-.785,2.309,3.176,3.176,0,0,0,.738,2.219,2.545,2.545,0,0,0,1.98.813,3.211,3.211,0,0,0,1.969-.7ZM82.6,31.32H76.952a2.992,2.992,0,0,0,.719,2.063,2.478,2.478,0,0,0,1.891.727,3.931,3.931,0,0,0,2.484-.891v1.2a4.643,4.643,0,0,1-2.789.766,3.381,3.381,0,0,1-2.664-1.09,4.461,4.461,0,0,1-.969-3.066,4.375,4.375,0,0,1,1.059-3.043,3.394,3.394,0,0,1,2.629-1.176,3.008,3.008,0,0,1,2.43,1.016,4.234,4.234,0,0,1,.859,2.82Zm-1.312-1.086a2.607,2.607,0,0,0-.535-1.727,1.823,1.823,0,0,0-1.465-.617,2.07,2.07,0,0,0-1.539.648,2.943,2.943,0,0,0-.781,1.7Zm2.767,4.477V33.336a3.792,3.792,0,0,0,2.3.773q1.688,0,1.688-1.125a.976.976,0,0,0-.145-.543,1.44,1.44,0,0,0-.391-.395,3.007,3.007,0,0,0-.578-.309q-.332-.137-.715-.285a9.207,9.207,0,0,1-.934-.426,2.82,2.82,0,0,1-.672-.484,1.8,1.8,0,0,1-.406-.613,2.17,2.17,0,0,1-.137-.8,1.912,1.912,0,0,1,.258-1,2.286,2.286,0,0,1,.688-.727,3.206,3.206,0,0,1,.98-.441,4.349,4.349,0,0,1,1.137-.148,4.59,4.59,0,0,1,1.859.359v1.3a3.624,3.624,0,0,0-2.031-.578,2.374,2.374,0,0,0-.648.082,1.587,1.587,0,0,0-.5.23,1.065,1.065,0,0,0-.32.355.936.936,0,0,0-.113.457,1.1,1.1,0,0,0,.113.523,1.152,1.152,0,0,0,.332.375,2.538,2.538,0,0,0,.531.3q.313.133.711.289a9.9,9.9,0,0,1,.953.418,3.269,3.269,0,0,1,.719.484,1.893,1.893,0,0,1,.457.621,2,2,0,0,1,.16.836,1.971,1.971,0,0,1-.262,1.031,2.243,2.243,0,0,1-.7.727,3.2,3.2,0,0,1-1.008.43,4.976,4.976,0,0,1-1.2.141A4.539,4.539,0,0,1,84.055,34.711Zm13,.289H95.776V33.75h-.031a2.682,2.682,0,0,1-2.461,1.438,2.63,2.63,0,0,1-1.871-.633,2.192,2.192,0,0,1-.676-1.68q0-2.242,2.641-2.609l2.4-.336q0-2.039-1.648-2.039a3.938,3.938,0,0,0-2.609.984V27.563a4.958,4.958,0,0,1,2.719-.75q2.82,0,2.82,2.984Zm-1.281-4.047-1.93.266a3.133,3.133,0,0,0-1.344.441,1.273,1.273,0,0,0-.453,1.121,1.221,1.221,0,0,0,.418.957,1.615,1.615,0,0,0,1.113.371,2.056,2.056,0,0,0,1.574-.668,2.387,2.387,0,0,0,.621-1.691Zm7.869-2.656a1.567,1.567,0,0,0-.969-.258,1.635,1.635,0,0,0-1.371.773,3.576,3.576,0,0,0-.551,2.109V35H99.473V27h1.281v1.648h.031a2.793,2.793,0,0,1,.836-1.316,1.906,1.906,0,0,1,1.258-.473,2.092,2.092,0,0,1,.766.109Zm2.048-3.328a.812.812,0,0,1-.586-.234.791.791,0,0,1-.242-.594.821.821,0,0,1,.828-.836.827.827,0,0,1,.6.238.835.835,0,0,1,0,1.184A.82.82,0,0,1,105.693,24.969ZM106.318,35h-1.281V27h1.281Zm5.939.188a3.711,3.711,0,0,1-2.832-1.121,4.153,4.153,0,0,1-1.059-2.973,4.326,4.326,0,0,1,1.1-3.148,3.96,3.96,0,0,1,2.977-1.133,3.588,3.588,0,0,1,2.793,1.1,4.368,4.368,0,0,1,1,3.055,4.3,4.3,0,0,1-1.082,3.066A3.791,3.791,0,0,1,112.257,35.188Zm.094-7.3a2.437,2.437,0,0,0-1.953.84,3.449,3.449,0,0,0-.719,2.316,3.262,3.262,0,0,0,.727,2.242,2.469,2.469,0,0,0,1.945.82,2.342,2.342,0,0,0,1.91-.8,3.492,3.492,0,0,0,.668-2.289,3.552,3.552,0,0,0-.668-2.312A2.332,2.332,0,0,0,112.351,27.891ZM129.5,35h-1.281V33.641h-.031a2.958,2.958,0,0,1-2.75,1.547,2.988,2.988,0,0,1-2.41-1.074,4.407,4.407,0,0,1-.9-2.926,4.794,4.794,0,0,1,1-3.18,3.3,3.3,0,0,1,2.664-1.2,2.564,2.564,0,0,1,2.4,1.3h.031V23.156H129.5Zm-1.281-3.617V30.2a2.289,2.289,0,0,0-.641-1.641,2.149,2.149,0,0,0-1.625-.672,2.212,2.212,0,0,0-1.844.859,3.766,3.766,0,0,0-.672,2.375,3.387,3.387,0,0,0,.645,2.184,2.107,2.107,0,0,0,1.73.8,2.188,2.188,0,0,0,1.738-.773A2.882,2.882,0,0,0,128.221,31.383Zm10.306-.062h-5.648a2.992,2.992,0,0,0,.719,2.063,2.478,2.478,0,0,0,1.891.727,3.931,3.931,0,0,0,2.484-.891v1.2a4.643,4.643,0,0,1-2.789.766,3.381,3.381,0,0,1-2.664-1.09,4.461,4.461,0,0,1-.969-3.066,4.374,4.374,0,0,1,1.059-3.043,3.394,3.394,0,0,1,2.629-1.176,3.008,3.008,0,0,1,2.43,1.016,4.234,4.234,0,0,1,.859,2.82Zm-1.312-1.086a2.607,2.607,0,0,0-.535-1.727,1.823,1.823,0,0,0-1.465-.617,2.07,2.07,0,0,0-1.539.648,2.943,2.943,0,0,0-.781,1.7ZM141.748,35h-1.281V23.156h1.281ZM20.516,51.844h-.031V56.68H19.2V45h1.281v1.406h.031a3.03,3.03,0,0,1,2.766-1.594A2.93,2.93,0,0,1,25.7,45.887a4.449,4.449,0,0,1,.867,2.879,4.959,4.959,0,0,1-.977,3.215,3.251,3.251,0,0,1-2.672,1.207A2.676,2.676,0,0,1,20.516,51.844Zm-.031-3.227v1.117a2.379,2.379,0,0,0,.645,1.684,2.3,2.3,0,0,0,3.461-.2,4.086,4.086,0,0,0,.66-2.477,3.225,3.225,0,0,0-.617-2.094,2.043,2.043,0,0,0-1.672-.758,2.27,2.27,0,0,0-1.8.777A2.854,2.854,0,0,0,20.485,48.617Zm12.3-2.32a1.567,1.567,0,0,0-.969-.258,1.635,1.635,0,0,0-1.371.773,3.576,3.576,0,0,0-.551,2.109V53H28.611V45h1.281v1.648h.031a2.793,2.793,0,0,1,.836-1.316,1.906,1.906,0,0,1,1.258-.473,2.092,2.092,0,0,1,.766.109Zm4.736,6.891a3.711,3.711,0,0,1-2.832-1.121,4.153,4.153,0,0,1-1.059-2.973,4.326,4.326,0,0,1,1.1-3.148,3.96,3.96,0,0,1,2.977-1.133,3.588,3.588,0,0,1,2.793,1.1,4.368,4.368,0,0,1,1,3.055,4.3,4.3,0,0,1-1.082,3.066A3.791,3.791,0,0,1,37.519,53.188Zm.094-7.3a2.437,2.437,0,0,0-1.953.84,3.449,3.449,0,0,0-.719,2.316,3.262,3.262,0,0,0,.727,2.242,2.469,2.469,0,0,0,1.945.82,2.342,2.342,0,0,0,1.91-.8,3.492,3.492,0,0,0,.668-2.289,3.552,3.552,0,0,0-.668-2.312A2.332,2.332,0,0,0,37.613,45.891Zm11.392,6.742a4.163,4.163,0,0,1-2.187.555,3.622,3.622,0,0,1-2.762-1.113,4.035,4.035,0,0,1-1.051-2.887,4.435,4.435,0,0,1,1.133-3.176,3.963,3.963,0,0,1,3.023-1.2,4.209,4.209,0,0,1,1.859.391v1.313a3.258,3.258,0,0,0-1.906-.625,2.576,2.576,0,0,0-2.012.879,3.335,3.335,0,0,0-.785,2.309,3.176,3.176,0,0,0,.738,2.219,2.545,2.545,0,0,0,1.98.813,3.211,3.211,0,0,0,1.969-.7Zm8.369-3.312H51.726a2.992,2.992,0,0,0,.719,2.063,2.478,2.478,0,0,0,1.891.727,3.931,3.931,0,0,0,2.484-.891v1.2a4.643,4.643,0,0,1-2.789.766,3.381,3.381,0,0,1-2.664-1.09,4.461,4.461,0,0,1-.969-3.066,4.375,4.375,0,0,1,1.059-3.043,3.394,3.394,0,0,1,2.629-1.176,3.008,3.008,0,0,1,2.43,1.016,4.234,4.234,0,0,1,.859,2.82Zm-1.312-1.086a2.607,2.607,0,0,0-.535-1.727,1.823,1.823,0,0,0-1.465-.617,2.07,2.07,0,0,0-1.539.648,2.943,2.943,0,0,0-.781,1.7Zm2.767,4.477V51.336a3.792,3.792,0,0,0,2.3.773q1.688,0,1.688-1.125a.976.976,0,0,0-.145-.543,1.44,1.44,0,0,0-.391-.395,3.007,3.007,0,0,0-.578-.309q-.332-.137-.715-.285a9.206,9.206,0,0,1-.934-.426,2.82,2.82,0,0,1-.672-.484,1.8,1.8,0,0,1-.406-.613,2.17,2.17,0,0,1-.137-.8,1.912,1.912,0,0,1,.258-1,2.286,2.286,0,0,1,.688-.727,3.206,3.206,0,0,1,.98-.441,4.349,4.349,0,0,1,1.137-.148,4.59,4.59,0,0,1,1.859.359v1.3a3.624,3.624,0,0,0-2.031-.578,2.374,2.374,0,0,0-.648.082,1.587,1.587,0,0,0-.5.23,1.065,1.065,0,0,0-.32.355.936.936,0,0,0-.113.457,1.1,1.1,0,0,0,.113.523,1.152,1.152,0,0,0,.332.375,2.538,2.538,0,0,0,.531.3q.312.133.711.289a9.894,9.894,0,0,1,.953.418,3.269,3.269,0,0,1,.719.484,1.893,1.893,0,0,1,.457.621,2,2,0,0,1,.16.836,1.971,1.971,0,0,1-.262,1.031,2.243,2.243,0,0,1-.7.727,3.2,3.2,0,0,1-1.008.43,4.976,4.976,0,0,1-1.2.141A4.539,4.539,0,0,1,58.829,52.711Zm10.619.477a3.711,3.711,0,0,1-2.832-1.121,4.153,4.153,0,0,1-1.059-2.973,4.326,4.326,0,0,1,1.1-3.148,3.96,3.96,0,0,1,2.977-1.133,3.588,3.588,0,0,1,2.793,1.1,4.368,4.368,0,0,1,1,3.055,4.3,4.3,0,0,1-1.082,3.066A3.791,3.791,0,0,1,69.448,53.188Zm.094-7.3a2.437,2.437,0,0,0-1.953.84,3.449,3.449,0,0,0-.719,2.316,3.262,3.262,0,0,0,.727,2.242,2.469,2.469,0,0,0,1.945.82,2.342,2.342,0,0,0,1.91-.8,3.492,3.492,0,0,0,.668-2.289,3.552,3.552,0,0,0-.668-2.312A2.332,2.332,0,0,0,69.541,45.891ZM86.693,53H85.412V51.641h-.031a2.958,2.958,0,0,1-2.75,1.547,2.988,2.988,0,0,1-2.41-1.074,4.407,4.407,0,0,1-.9-2.926,4.794,4.794,0,0,1,1-3.18,3.3,3.3,0,0,1,2.664-1.2,2.564,2.564,0,0,1,2.4,1.3h.031V41.156h1.281Zm-1.281-3.617V48.2a2.289,2.289,0,0,0-.641-1.641,2.149,2.149,0,0,0-1.625-.672,2.212,2.212,0,0,0-1.844.859,3.766,3.766,0,0,0-.672,2.375,3.387,3.387,0,0,0,.645,2.184,2.107,2.107,0,0,0,1.73.8,2.188,2.188,0,0,0,1.738-.773A2.882,2.882,0,0,0,85.412,49.383Zm10.306-.062H90.07a2.992,2.992,0,0,0,.719,2.063,2.478,2.478,0,0,0,1.891.727,3.931,3.931,0,0,0,2.484-.891v1.2a4.643,4.643,0,0,1-2.789.766A3.381,3.381,0,0,1,89.71,52.1a4.461,4.461,0,0,1-.969-3.066A4.375,4.375,0,0,1,89.8,45.988a3.394,3.394,0,0,1,2.629-1.176,3.008,3.008,0,0,1,2.43,1.016,4.234,4.234,0,0,1,.859,2.82Zm-1.312-1.086a2.607,2.607,0,0,0-.535-1.727,1.823,1.823,0,0,0-1.465-.617,2.07,2.07,0,0,0-1.539.648,2.943,2.943,0,0,0-.781,1.7Zm8.949,3.609h-.031V56.68h-1.281V45h1.281v1.406h.031a3.03,3.03,0,0,1,2.766-1.594,2.93,2.93,0,0,1,2.414,1.074,4.449,4.449,0,0,1,.867,2.879,4.959,4.959,0,0,1-.977,3.215,3.251,3.251,0,0,1-2.672,1.207A2.676,2.676,0,0,1,103.354,51.844Zm-.031-3.227v1.117a2.379,2.379,0,0,0,.645,1.684,2.3,2.3,0,0,0,3.461-.2,4.086,4.086,0,0,0,.66-2.477,3.225,3.225,0,0,0-.617-2.094,2.043,2.043,0,0,0-1.672-.758,2.27,2.27,0,0,0-1.8.777A2.854,2.854,0,0,0,103.323,48.617ZM117.176,53h-1.281V51.75h-.031a2.682,2.682,0,0,1-2.461,1.438,2.63,2.63,0,0,1-1.871-.633,2.192,2.192,0,0,1-.676-1.68q0-2.242,2.641-2.609l2.4-.336q0-2.039-1.648-2.039a3.938,3.938,0,0,0-2.609.984V45.563a4.958,4.958,0,0,1,2.719-.75q2.82,0,2.82,2.984Zm-1.281-4.047-1.93.266a3.133,3.133,0,0,0-1.344.441,1.273,1.273,0,0,0-.453,1.121,1.221,1.221,0,0,0,.418.957,1.615,1.615,0,0,0,1.113.371,2.056,2.056,0,0,0,1.574-.668,2.387,2.387,0,0,0,.621-1.691Zm10.525,3.406q0,4.406-4.219,4.406a5.664,5.664,0,0,1-2.594-.562V54.922a5.327,5.327,0,0,0,2.578.75q2.953,0,2.953-3.141v-.875h-.031a3.237,3.237,0,0,1-5.152.465,4.263,4.263,0,0,1-.91-2.863,4.981,4.981,0,0,1,.98-3.242,3.275,3.275,0,0,1,2.684-1.2,2.608,2.608,0,0,1,2.4,1.3h.031V45h1.281Zm-1.281-2.977V48.2a2.289,2.289,0,0,0-.645-1.633,2.122,2.122,0,0,0-1.605-.68,2.225,2.225,0,0,0-1.859.863,3.853,3.853,0,0,0-.672,2.418A3.308,3.308,0,0,0,121,51.309a2.082,2.082,0,0,0,1.707.8,2.23,2.23,0,0,0,1.754-.766A2.854,2.854,0,0,0,125.139,49.383Zm7.22,3.8a3.711,3.711,0,0,1-2.832-1.121,4.153,4.153,0,0,1-1.059-2.973,4.326,4.326,0,0,1,1.1-3.148,3.96,3.96,0,0,1,2.977-1.133,3.588,3.588,0,0,1,2.793,1.1,4.368,4.368,0,0,1,1,3.055,4.3,4.3,0,0,1-1.082,3.066A3.791,3.791,0,0,1,132.359,53.188Zm.094-7.3a2.437,2.437,0,0,0-1.953.84,3.449,3.449,0,0,0-.719,2.316,3.262,3.262,0,0,0,.727,2.242,2.469,2.469,0,0,0,1.945.82,2.342,2.342,0,0,0,1.91-.8,3.492,3.492,0,0,0,.668-2.289,3.552,3.552,0,0,0-.668-2.312A2.332,2.332,0,0,0,132.453,45.891Z" transform="translate(638 6694.243)" fill="#212429"/>
    <g id="Trazado_1215937" data-name="Trazado 1215937" transform="translate(833.818 6673.243) rotate(90)" fill="#e5fdfa" stroke-linecap="round">
      <path d="M 37.845703125 34.38965225219727 L 1.930440306663513 34.38965225219727 L 37.845703125 1.521397590637207 L 37.845703125 34.38965225219727 Z" stroke="none"/>
      <path d="M 37.095703125 3.224420547485352 L 3.860877990722656 33.63964462280273 L 37.095703125 33.63964462280273 L 37.095703125 3.224420547485352 M 38.595703125 -0.1816444396972656 L 38.595703125 35.13964462280273 L 0 35.13964462280273 L 38.595703125 -0.1816444396972656 Z" stroke="none" fill="#098576"/>
    </g>
    <path id="Trazado_1213548" data-name="Trazado 1213548" d="M7011.115,3307.419l-111.891,43.1" transform="translate(-6629.976 3341.806)" fill="none" stroke="#098576" stroke-linecap="round" stroke-width="2"/>
    <path id="Trazado_1215939" data-name="Trazado 1215939" d="M7028.339,3336.226l-136.976-10.151" transform="translate(-6620.976 3366.815)" fill="none" stroke="#098576" stroke-linecap="round" stroke-width="2"/>
    <path id="Trazado_1215940" data-name="Trazado 1215940" d="M7032.27,3394.923l-138.761-74.637" transform="translate(-6623.976 3373.458)" fill="none" stroke="#098576" stroke-linecap="round" stroke-width="2"/>
    <path id="Trazado_1215941" data-name="Trazado 1215941" d="M7006.883,3459.448l-109.275-141.783" transform="translate(-6629.782 3376.079)" fill="none" stroke="#098576" stroke-linecap="round" stroke-width="2"/>
    <g transform="matrix(1, 0, 0, 1, 226.3, 6542.24)" filter="url(#Trazado_1218253)">
      <path id="Trazado_1218253-2" data-name="Trazado 1218253" d="M76.5,0C118.75,0,153,14.551,153,32.5S118.75,65,76.5,65,0,50.449,0,32.5,34.25,0,76.5,0Z" transform="translate(138.7 58)" fill="#f6c810"/>
    </g>
    <path id="Trazado_1218254" data-name="Trazado 1218254" d="M17.461,17H15.9l-1.875-3.141a6.84,6.84,0,0,0-.5-.746,2.85,2.85,0,0,0-.5-.5,1.718,1.718,0,0,0-.547-.285,2.249,2.249,0,0,0-.66-.09H10.742V17H9.429V5.8h3.344a4.765,4.765,0,0,1,1.355.184,3.033,3.033,0,0,1,1.078.559,2.6,2.6,0,0,1,.715.934,3.1,3.1,0,0,1,.258,1.309A3.151,3.151,0,0,1,16,9.855a2.805,2.805,0,0,1-.5.871,3.031,3.031,0,0,1-.781.652A3.988,3.988,0,0,1,13.7,11.8v.031a2.363,2.363,0,0,1,.488.285,2.687,2.687,0,0,1,.395.379,5.019,5.019,0,0,1,.371.5q.184.277.41.645ZM10.742,6.984v4.063h1.781a2.7,2.7,0,0,0,.91-.148,2.107,2.107,0,0,0,.723-.426,1.931,1.931,0,0,0,.477-.68,2.275,2.275,0,0,0,.172-.9,1.756,1.756,0,0,0-.582-1.4,2.5,2.5,0,0,0-1.684-.5ZM24.79,13.32H19.142a2.992,2.992,0,0,0,.719,2.063,2.478,2.478,0,0,0,1.891.727,3.931,3.931,0,0,0,2.484-.891v1.2a4.643,4.643,0,0,1-2.789.766,3.381,3.381,0,0,1-2.664-1.09,4.461,4.461,0,0,1-.969-3.066,4.375,4.375,0,0,1,1.059-3.043A3.394,3.394,0,0,1,21.5,8.813a3.008,3.008,0,0,1,2.43,1.016,4.234,4.234,0,0,1,.859,2.82Zm-1.312-1.086a2.607,2.607,0,0,0-.535-1.727,1.823,1.823,0,0,0-1.465-.617,2.07,2.07,0,0,0-1.539.648,2.943,2.943,0,0,0-.781,1.7Zm10.08,4.125q0,4.406-4.219,4.406a5.664,5.664,0,0,1-2.594-.562V18.922a5.327,5.327,0,0,0,2.578.75q2.953,0,2.953-3.141v-.875h-.031a3.237,3.237,0,0,1-5.152.465,4.263,4.263,0,0,1-.91-2.863,4.981,4.981,0,0,1,.98-3.242,3.275,3.275,0,0,1,2.684-1.2,2.608,2.608,0,0,1,2.4,1.3h.031V9h1.281Zm-1.281-2.977V12.2a2.289,2.289,0,0,0-.645-1.633,2.122,2.122,0,0,0-1.605-.68,2.225,2.225,0,0,0-1.859.863,3.853,3.853,0,0,0-.672,2.418,3.308,3.308,0,0,0,.645,2.137,2.082,2.082,0,0,0,1.707.8,2.23,2.23,0,0,0,1.754-.766A2.854,2.854,0,0,0,32.276,13.383Zm4.533-6.414a.812.812,0,0,1-.586-.234.791.791,0,0,1-.242-.594.821.821,0,0,1,.828-.836.827.827,0,0,1,.6.238.835.835,0,0,1,0,1.184A.82.82,0,0,1,36.809,6.969ZM37.434,17H36.153V9h1.281Zm2.111-.289V15.336a3.792,3.792,0,0,0,2.3.773q1.688,0,1.688-1.125a.976.976,0,0,0-.145-.543A1.44,1.44,0,0,0,43,14.047a3.007,3.007,0,0,0-.578-.309q-.332-.137-.715-.285a9.207,9.207,0,0,1-.934-.426,2.82,2.82,0,0,1-.672-.484,1.8,1.8,0,0,1-.406-.613,2.17,2.17,0,0,1-.137-.8,1.912,1.912,0,0,1,.258-1,2.286,2.286,0,0,1,.688-.727,3.206,3.206,0,0,1,.98-.441,4.349,4.349,0,0,1,1.137-.148,4.59,4.59,0,0,1,1.859.359v1.3a3.624,3.624,0,0,0-2.031-.578,2.374,2.374,0,0,0-.648.082,1.587,1.587,0,0,0-.5.23,1.065,1.065,0,0,0-.32.355.936.936,0,0,0-.113.457,1.1,1.1,0,0,0,.113.523,1.152,1.152,0,0,0,.332.375,2.538,2.538,0,0,0,.531.3q.312.133.711.289a9.894,9.894,0,0,1,.953.418,3.269,3.269,0,0,1,.719.484,1.893,1.893,0,0,1,.457.621,2,2,0,0,1,.16.836,1.971,1.971,0,0,1-.262,1.031,2.243,2.243,0,0,1-.7.727,3.2,3.2,0,0,1-1.008.43,4.976,4.976,0,0,1-1.2.141A4.539,4.539,0,0,1,39.545,16.711Zm10.986.211a2.47,2.47,0,0,1-1.2.25q-2.1,0-2.1-2.344V10.094H45.859V9h1.375V7.047l1.281-.414V9h2.016v1.094H48.516V14.6a1.869,1.869,0,0,0,.273,1.148,1.091,1.091,0,0,0,.906.344,1.347,1.347,0,0,0,.836-.266ZM56.416,10.3a1.567,1.567,0,0,0-.969-.258,1.635,1.635,0,0,0-1.371.773,3.576,3.576,0,0,0-.551,2.109V17H52.244V9h1.281v1.648h.031a2.794,2.794,0,0,1,.836-1.316,1.906,1.906,0,0,1,1.258-.473,2.092,2.092,0,0,1,.766.109ZM63.534,17H62.253V15.75h-.031a2.682,2.682,0,0,1-2.461,1.438,2.63,2.63,0,0,1-1.871-.633,2.192,2.192,0,0,1-.676-1.68q0-2.242,2.641-2.609l2.4-.336q0-2.039-1.648-2.039A3.938,3.938,0,0,0,58,10.875V9.563a4.958,4.958,0,0,1,2.719-.75q2.82,0,2.82,2.984Zm-1.281-4.047-1.93.266a3.133,3.133,0,0,0-1.344.441,1.273,1.273,0,0,0-.453,1.121,1.221,1.221,0,0,0,.418.957,1.615,1.615,0,0,0,1.113.371,2.056,2.056,0,0,0,1.574-.668,2.387,2.387,0,0,0,.621-1.691ZM70.122,10.3a1.567,1.567,0,0,0-.969-.258,1.635,1.635,0,0,0-1.371.773,3.576,3.576,0,0,0-.551,2.109V17H65.95V9h1.281v1.648h.031A2.793,2.793,0,0,1,68.1,9.332a1.906,1.906,0,0,1,1.258-.473,2.092,2.092,0,0,1,.766.109Zm11.23,6.336a4.163,4.163,0,0,1-2.187.555A3.622,3.622,0,0,1,76.4,16.074a4.035,4.035,0,0,1-1.051-2.887,4.435,4.435,0,0,1,1.133-3.176,3.963,3.963,0,0,1,3.023-1.2,4.209,4.209,0,0,1,1.859.391v1.313a3.258,3.258,0,0,0-1.906-.625,2.576,2.576,0,0,0-2.012.879,3.335,3.335,0,0,0-.785,2.309A3.176,3.176,0,0,0,77.4,15.3a2.545,2.545,0,0,0,1.98.813,3.211,3.211,0,0,0,1.969-.7ZM89.759,17H88.478V15.734h-.031a2.631,2.631,0,0,1-2.469,1.453q-2.859,0-2.859-3.406V9h1.273v4.578q0,2.531,1.938,2.531a1.96,1.96,0,0,0,1.543-.691,2.645,2.645,0,0,0,.605-1.809V9h1.281Zm9.017-3.68H93.128a2.992,2.992,0,0,0,.719,2.063,2.478,2.478,0,0,0,1.891.727,3.931,3.931,0,0,0,2.484-.891v1.2a4.643,4.643,0,0,1-2.789.766,3.381,3.381,0,0,1-2.664-1.09,4.461,4.461,0,0,1-.969-3.066,4.375,4.375,0,0,1,1.059-3.043,3.394,3.394,0,0,1,2.629-1.176,3.008,3.008,0,0,1,2.43,1.016,4.234,4.234,0,0,1,.859,2.82Zm-1.312-1.086a2.607,2.607,0,0,0-.535-1.727,1.823,1.823,0,0,0-1.465-.617,2.07,2.07,0,0,0-1.539.648,2.943,2.943,0,0,0-.781,1.7ZM107.356,17h-1.281V12.438q0-2.547-1.859-2.547a2.017,2.017,0,0,0-1.59.723A2.679,2.679,0,0,0,102,12.438V17h-1.281V9H102v1.328h.031a2.887,2.887,0,0,1,2.625-1.516,2.448,2.448,0,0,1,2.008.848,3.776,3.776,0,0,1,.7,2.449Zm6.127-.078a2.47,2.47,0,0,1-1.2.25q-2.1,0-2.1-2.344V10.094h-1.375V9h1.375V7.047l1.281-.414V9h2.016v1.094h-2.016V14.6a1.869,1.869,0,0,0,.273,1.148,1.091,1.091,0,0,0,.906.344,1.347,1.347,0,0,0,.836-.266Zm7.439.078h-1.281V15.75h-.031a2.682,2.682,0,0,1-2.461,1.438,2.63,2.63,0,0,1-1.871-.633,2.192,2.192,0,0,1-.676-1.68q0-2.242,2.641-2.609l2.4-.336q0-2.039-1.648-2.039a3.938,3.938,0,0,0-2.609.984V9.563a4.958,4.958,0,0,1,2.719-.75q2.82,0,2.82,2.984Zm-1.281-4.047-1.93.266a3.133,3.133,0,0,0-1.344.441,1.273,1.273,0,0,0-.453,1.121,1.221,1.221,0,0,0,.418.957,1.615,1.615,0,0,0,1.113.371,2.056,2.056,0,0,0,1.574-.668,2.387,2.387,0,0,0,.621-1.691Z" transform="translate(377 6623.243)" fill="#212429"/>
    <g transform="matrix(1, 0, 0, 1, 226.3, 6542.24)" filter="url(#Trazado_1218255)">
      <path id="Trazado_1218255-2" data-name="Trazado 1218255" d="M74.5,0C115.645,0,149,14.551,149,32.5S115.645,65,74.5,65,0,50.449,0,32.5,33.355,0,74.5,0Z" transform="translate(173.7 126)" fill="#f6c810"/>
    </g>
    <path id="Trazado_1218256" data-name="Trazado 1218256" d="M8.708,17V5.8H11.9a3.484,3.484,0,0,1,2.3.711,2.3,2.3,0,0,1,.852,1.852,2.724,2.724,0,0,1-.516,1.656,2.78,2.78,0,0,1-1.422,1v.031a2.85,2.85,0,0,1,1.813.855,2.631,2.631,0,0,1,.68,1.879,2.929,2.929,0,0,1-1.031,2.328,3.838,3.838,0,0,1-2.6.891ZM10.02,6.984V10.6h1.344a2.552,2.552,0,0,0,1.7-.52,1.809,1.809,0,0,0,.617-1.465q0-1.633-2.148-1.633Zm0,4.8v4.031H11.8a2.669,2.669,0,0,0,1.793-.547,1.873,1.873,0,0,0,.637-1.5q0-1.984-2.7-1.984ZM24.178,17H22.9V15.734h-.031A2.631,2.631,0,0,1,20.4,17.188q-2.859,0-2.859-3.406V9h1.273v4.578q0,2.531,1.938,2.531a1.96,1.96,0,0,0,1.543-.691,2.645,2.645,0,0,0,.605-1.809V9h1.281Zm2.1-.289V15.336a3.792,3.792,0,0,0,2.3.773q1.688,0,1.688-1.125a.976.976,0,0,0-.145-.543,1.44,1.44,0,0,0-.391-.395,3.007,3.007,0,0,0-.578-.309q-.332-.137-.715-.285a9.207,9.207,0,0,1-.934-.426,2.82,2.82,0,0,1-.672-.484,1.8,1.8,0,0,1-.406-.613,2.17,2.17,0,0,1-.137-.8,1.912,1.912,0,0,1,.258-1,2.286,2.286,0,0,1,.688-.727,3.206,3.206,0,0,1,.98-.441,4.349,4.349,0,0,1,1.137-.148,4.59,4.59,0,0,1,1.859.359v1.3a3.624,3.624,0,0,0-2.031-.578,2.374,2.374,0,0,0-.648.082,1.587,1.587,0,0,0-.5.23,1.065,1.065,0,0,0-.32.355.936.936,0,0,0-.113.457,1.1,1.1,0,0,0,.113.523,1.152,1.152,0,0,0,.332.375,2.538,2.538,0,0,0,.531.3q.313.133.711.289a9.9,9.9,0,0,1,.953.418,3.269,3.269,0,0,1,.719.484,1.893,1.893,0,0,1,.457.621,2,2,0,0,1,.16.836,1.971,1.971,0,0,1-.262,1.031,2.243,2.243,0,0,1-.7.727,3.2,3.2,0,0,1-1.008.43,4.976,4.976,0,0,1-1.2.141A4.539,4.539,0,0,1,26.281,16.711Zm12.728-.078a4.163,4.163,0,0,1-2.187.555,3.622,3.622,0,0,1-2.762-1.113,4.035,4.035,0,0,1-1.051-2.887,4.435,4.435,0,0,1,1.133-3.176,3.963,3.963,0,0,1,3.023-1.2,4.209,4.209,0,0,1,1.859.391v1.313a3.258,3.258,0,0,0-1.906-.625,2.576,2.576,0,0,0-2.012.879,3.335,3.335,0,0,0-.785,2.309A3.176,3.176,0,0,0,35.06,15.3a2.545,2.545,0,0,0,1.98.813,3.211,3.211,0,0,0,1.969-.7ZM46.675,17H45.394V15.75h-.031A2.682,2.682,0,0,1,42.9,17.188a2.63,2.63,0,0,1-1.871-.633,2.192,2.192,0,0,1-.676-1.68q0-2.242,2.641-2.609l2.4-.336q0-2.039-1.648-2.039a3.938,3.938,0,0,0-2.609.984V9.563a4.958,4.958,0,0,1,2.719-.75q2.82,0,2.82,2.984Zm-1.281-4.047-1.93.266a3.133,3.133,0,0,0-1.344.441,1.273,1.273,0,0,0-.453,1.121,1.221,1.221,0,0,0,.418.957,1.615,1.615,0,0,0,1.113.371,2.056,2.056,0,0,0,1.574-.668,2.387,2.387,0,0,0,.621-1.691ZM53.262,10.3a1.567,1.567,0,0,0-.969-.258,1.635,1.635,0,0,0-1.371.773,3.576,3.576,0,0,0-.551,2.109V17H49.091V9h1.281v1.648H50.4a2.794,2.794,0,0,1,.836-1.316A1.906,1.906,0,0,1,52.5,8.859a2.092,2.092,0,0,1,.766.109Zm7.089,5.547H60.32V20.68H59.039V9H60.32v1.406h.031a3.03,3.03,0,0,1,2.766-1.594,2.93,2.93,0,0,1,2.414,1.074,4.449,4.449,0,0,1,.867,2.879,4.959,4.959,0,0,1-.977,3.215,3.251,3.251,0,0,1-2.672,1.207A2.676,2.676,0,0,1,60.352,15.844Zm-.031-3.227v1.117a2.379,2.379,0,0,0,.645,1.684,2.3,2.3,0,0,0,3.461-.2,4.086,4.086,0,0,0,.66-2.477,3.225,3.225,0,0,0-.617-2.094A2.043,2.043,0,0,0,62.8,9.891a2.27,2.27,0,0,0-1.8.777A2.854,2.854,0,0,0,60.32,12.617Zm12.3-2.32a1.567,1.567,0,0,0-.969-.258,1.635,1.635,0,0,0-1.371.773,3.576,3.576,0,0,0-.551,2.109V17H68.447V9h1.281v1.648h.031A2.793,2.793,0,0,1,70.6,9.332a1.906,1.906,0,0,1,1.258-.473,2.092,2.092,0,0,1,.766.109Zm4.736,6.891a3.711,3.711,0,0,1-2.832-1.121,4.153,4.153,0,0,1-1.059-2.973,4.326,4.326,0,0,1,1.1-3.148,3.96,3.96,0,0,1,2.977-1.133,3.588,3.588,0,0,1,2.793,1.1,4.368,4.368,0,0,1,1,3.055,4.3,4.3,0,0,1-1.082,3.066A3.791,3.791,0,0,1,77.355,17.188Zm.094-7.3a2.437,2.437,0,0,0-1.953.84,3.449,3.449,0,0,0-.719,2.316,3.262,3.262,0,0,0,.727,2.242,2.469,2.469,0,0,0,1.945.82,2.342,2.342,0,0,0,1.91-.8,3.492,3.492,0,0,0,.668-2.289,3.552,3.552,0,0,0-.668-2.312A2.332,2.332,0,0,0,77.449,9.891ZM90.216,17H88.934V15.641H88.9a2.958,2.958,0,0,1-2.75,1.547,2.988,2.988,0,0,1-2.41-1.074,4.407,4.407,0,0,1-.9-2.926,4.794,4.794,0,0,1,1-3.18,3.3,3.3,0,0,1,2.664-1.2,2.564,2.564,0,0,1,2.4,1.3h.031V5.156h1.281Zm-1.281-3.617V12.2a2.289,2.289,0,0,0-.641-1.641,2.149,2.149,0,0,0-1.625-.672,2.212,2.212,0,0,0-1.844.859,3.766,3.766,0,0,0-.672,2.375,3.387,3.387,0,0,0,.645,2.184,2.107,2.107,0,0,0,1.73.8,2.188,2.188,0,0,0,1.738-.773A2.882,2.882,0,0,0,88.934,13.383ZM99.28,17H98V15.734h-.031A2.631,2.631,0,0,1,95.5,17.188q-2.859,0-2.859-3.406V9h1.273v4.578q0,2.531,1.938,2.531a1.96,1.96,0,0,0,1.543-.691A2.645,2.645,0,0,0,98,13.609V9H99.28Zm8.041-.367a4.163,4.163,0,0,1-2.187.555,3.622,3.622,0,0,1-2.762-1.113,4.035,4.035,0,0,1-1.051-2.887,4.435,4.435,0,0,1,1.133-3.176,3.963,3.963,0,0,1,3.023-1.2,4.209,4.209,0,0,1,1.859.391v1.313a3.258,3.258,0,0,0-1.906-.625,2.576,2.576,0,0,0-2.012.879,3.335,3.335,0,0,0-.785,2.309,3.176,3.176,0,0,0,.738,2.219,2.545,2.545,0,0,0,1.98.813,3.211,3.211,0,0,0,1.969-.7Zm5.65.289a2.47,2.47,0,0,1-1.2.25q-2.1,0-2.1-2.344V10.094H108.3V9h1.375V7.047l1.281-.414V9h2.016v1.094h-2.016V14.6a1.869,1.869,0,0,0,.273,1.148,1.091,1.091,0,0,0,.906.344,1.347,1.347,0,0,0,.836-.266Zm5.056.266a3.711,3.711,0,0,1-2.832-1.121,4.153,4.153,0,0,1-1.059-2.973,4.326,4.326,0,0,1,1.1-3.148,3.96,3.96,0,0,1,2.977-1.133,3.588,3.588,0,0,1,2.793,1.1,4.368,4.368,0,0,1,1,3.055,4.3,4.3,0,0,1-1.082,3.066A3.791,3.791,0,0,1,118.027,17.188Zm.094-7.3a2.437,2.437,0,0,0-1.953.84,3.449,3.449,0,0,0-.719,2.316,3.262,3.262,0,0,0,.727,2.242,2.469,2.469,0,0,0,1.945.82,2.342,2.342,0,0,0,1.91-.8,3.492,3.492,0,0,0,.668-2.289,3.552,3.552,0,0,0-.668-2.312A2.332,2.332,0,0,0,118.121,9.891Z" transform="translate(410 6691.243)" fill="#212429"/>
    <g transform="matrix(1, 0, 0, 1, 226.3, 6542.24)" filter="url(#Trazado_1218257)">
      <path id="Trazado_1218257-2" data-name="Trazado 1218257" d="M74.5,0C115.645,0,149,14.551,149,32.5S115.645,65,74.5,65,0,50.449,0,32.5,33.355,0,74.5,0Z" transform="translate(173.7 198)" fill="#f6c810"/>
    </g>
    <path id="Trazado_1218258" data-name="Trazado 1218258" d="M20.215,17H18.653l-1.875-3.141a6.84,6.84,0,0,0-.5-.746,2.85,2.85,0,0,0-.5-.5,1.718,1.718,0,0,0-.547-.285,2.249,2.249,0,0,0-.66-.09H13.5V17H12.184V5.8h3.344a4.765,4.765,0,0,1,1.355.184,3.033,3.033,0,0,1,1.078.559,2.6,2.6,0,0,1,.715.934,3.1,3.1,0,0,1,.258,1.309,3.151,3.151,0,0,1-.176,1.074,2.805,2.805,0,0,1-.5.871,3.031,3.031,0,0,1-.781.652,3.988,3.988,0,0,1-1.027.418v.031a2.363,2.363,0,0,1,.488.285,2.687,2.687,0,0,1,.395.379,5.019,5.019,0,0,1,.371.5q.184.277.41.645ZM13.5,6.984v4.063h1.781a2.7,2.7,0,0,0,.91-.148,2.107,2.107,0,0,0,.723-.426,1.931,1.931,0,0,0,.477-.68,2.275,2.275,0,0,0,.172-.9,1.756,1.756,0,0,0-.582-1.4,2.5,2.5,0,0,0-1.684-.5ZM27.545,13.32H21.9a2.992,2.992,0,0,0,.719,2.063,2.478,2.478,0,0,0,1.891.727,3.931,3.931,0,0,0,2.484-.891v1.2a4.643,4.643,0,0,1-2.789.766,3.381,3.381,0,0,1-2.664-1.09,4.461,4.461,0,0,1-.969-3.066,4.375,4.375,0,0,1,1.059-3.043,3.394,3.394,0,0,1,2.629-1.176,3.008,3.008,0,0,1,2.43,1.016,4.234,4.234,0,0,1,.859,2.82Zm-1.312-1.086a2.607,2.607,0,0,0-.535-1.727,1.823,1.823,0,0,0-1.465-.617,2.07,2.07,0,0,0-1.539.648,2.943,2.943,0,0,0-.781,1.7ZM35.211,17H33.929V15.75H33.9a2.682,2.682,0,0,1-2.461,1.438,2.63,2.63,0,0,1-1.871-.633,2.192,2.192,0,0,1-.676-1.68q0-2.242,2.641-2.609l2.4-.336q0-2.039-1.648-2.039a3.938,3.938,0,0,0-2.609.984V9.563a4.958,4.958,0,0,1,2.719-.75q2.82,0,2.82,2.984Zm-1.281-4.047L32,13.219a3.133,3.133,0,0,0-1.344.441,1.273,1.273,0,0,0-.453,1.121,1.221,1.221,0,0,0,.418.957,1.615,1.615,0,0,0,1.113.371,2.056,2.056,0,0,0,1.574-.668,2.387,2.387,0,0,0,.621-1.691ZM38.908,17H37.626V5.156h1.281ZM42.159,6.969a.812.812,0,0,1-.586-.234.791.791,0,0,1-.242-.594.821.821,0,0,1,.828-.836.827.827,0,0,1,.6.238.835.835,0,0,1,0,1.184A.82.82,0,0,1,42.159,6.969ZM42.784,17H41.5V9h1.281Zm8.173-7.633-4.734,6.539h4.688V17h-6.57v-.4l4.734-6.508H44.786V9h6.172ZM58.342,17H57.061V15.75H57.03a2.682,2.682,0,0,1-2.461,1.438,2.63,2.63,0,0,1-1.871-.633,2.192,2.192,0,0,1-.676-1.68q0-2.242,2.641-2.609l2.4-.336q0-2.039-1.648-2.039a3.938,3.938,0,0,0-2.609.984V9.563a4.958,4.958,0,0,1,2.719-.75q2.82,0,2.82,2.984Zm-1.281-4.047-1.93.266a3.133,3.133,0,0,0-1.344.441,1.273,1.273,0,0,0-.453,1.121,1.221,1.221,0,0,0,.418.957,1.615,1.615,0,0,0,1.113.371,2.056,2.056,0,0,0,1.574-.668,2.387,2.387,0,0,0,.621-1.691ZM64.93,10.3a1.567,1.567,0,0,0-.969-.258,1.635,1.635,0,0,0-1.371.773,3.576,3.576,0,0,0-.551,2.109V17H60.758V9h1.281v1.648h.031a2.794,2.794,0,0,1,.836-1.316,1.906,1.906,0,0,1,1.258-.473,2.092,2.092,0,0,1,.766.109Zm7.089,5.547h-.031V20.68H70.706V9h1.281v1.406h.031a3.03,3.03,0,0,1,2.766-1.594A2.93,2.93,0,0,1,77.2,9.887a4.449,4.449,0,0,1,.867,2.879,4.959,4.959,0,0,1-.977,3.215,3.251,3.251,0,0,1-2.672,1.207A2.676,2.676,0,0,1,72.019,15.844Zm-.031-3.227v1.117a2.379,2.379,0,0,0,.645,1.684,2.3,2.3,0,0,0,3.461-.2,4.086,4.086,0,0,0,.66-2.477,3.225,3.225,0,0,0-.617-2.094,2.043,2.043,0,0,0-1.672-.758,2.27,2.27,0,0,0-1.8.777A2.854,2.854,0,0,0,71.988,12.617Zm14.556.7H80.9a2.992,2.992,0,0,0,.719,2.063,2.478,2.478,0,0,0,1.891.727,3.931,3.931,0,0,0,2.484-.891v1.2a4.643,4.643,0,0,1-2.789.766,3.381,3.381,0,0,1-2.664-1.09,4.461,4.461,0,0,1-.969-3.066,4.375,4.375,0,0,1,1.059-3.043,3.394,3.394,0,0,1,2.629-1.176,3.008,3.008,0,0,1,2.43,1.016,4.234,4.234,0,0,1,.859,2.82Zm-1.312-1.086a2.607,2.607,0,0,0-.535-1.727,1.823,1.823,0,0,0-1.465-.617,2.07,2.07,0,0,0-1.539.648,2.943,2.943,0,0,0-.781,1.7ZM95.311,17H94.03V15.641H94a2.958,2.958,0,0,1-2.75,1.547,2.988,2.988,0,0,1-2.41-1.074,4.407,4.407,0,0,1-.9-2.926,4.794,4.794,0,0,1,1-3.18,3.3,3.3,0,0,1,2.664-1.2,2.564,2.564,0,0,1,2.4,1.3h.031V5.156h1.281ZM94.03,13.383V12.2a2.289,2.289,0,0,0-.641-1.641,2.149,2.149,0,0,0-1.625-.672,2.212,2.212,0,0,0-1.844.859,3.766,3.766,0,0,0-.672,2.375,3.387,3.387,0,0,0,.645,2.184,2.107,2.107,0,0,0,1.73.8,2.188,2.188,0,0,0,1.738-.773A2.882,2.882,0,0,0,94.03,13.383Zm4.533-6.414a.812.812,0,0,1-.586-.234.791.791,0,0,1-.242-.594.821.821,0,0,1,.828-.836.827.827,0,0,1,.6.238.835.835,0,0,1,0,1.184A.82.82,0,0,1,98.563,6.969ZM99.188,17H97.906V9h1.281Zm9.423,0H107.33V15.641H107.3a2.958,2.958,0,0,1-2.75,1.547,2.988,2.988,0,0,1-2.41-1.074,4.407,4.407,0,0,1-.9-2.926,4.794,4.794,0,0,1,1-3.18,3.3,3.3,0,0,1,2.664-1.2,2.564,2.564,0,0,1,2.4,1.3h.031V5.156h1.281Zm-1.281-3.617V12.2a2.289,2.289,0,0,0-.641-1.641,2.149,2.149,0,0,0-1.625-.672,2.212,2.212,0,0,0-1.844.859,3.766,3.766,0,0,0-.672,2.375,3.387,3.387,0,0,0,.645,2.184,2.107,2.107,0,0,0,1.73.8,2.188,2.188,0,0,0,1.738-.773A2.882,2.882,0,0,0,107.33,13.383Zm7.22,3.8a3.711,3.711,0,0,1-2.832-1.121,4.153,4.153,0,0,1-1.059-2.973,4.326,4.326,0,0,1,1.1-3.148,3.96,3.96,0,0,1,2.977-1.133,3.588,3.588,0,0,1,2.793,1.1,4.368,4.368,0,0,1,1,3.055,4.3,4.3,0,0,1-1.082,3.066A3.791,3.791,0,0,1,114.55,17.188Zm.094-7.3a2.437,2.437,0,0,0-1.953.84,3.449,3.449,0,0,0-.719,2.316,3.262,3.262,0,0,0,.727,2.242,2.469,2.469,0,0,0,1.945.82,2.342,2.342,0,0,0,1.91-.8,3.492,3.492,0,0,0,.668-2.289,3.552,3.552,0,0,0-.668-2.312A2.332,2.332,0,0,0,114.644,9.891Z" transform="translate(410 6763.243)" fill="#212429"/>
    <g id="Grupo_1227766" data-name="Grupo 1227766" transform="translate(2 5.243)">
      <path id="Trazado_1213534" data-name="Trazado 1213534" d="M6853.578,3297.237l20.758,135.569" transform="matrix(0.259, -0.966, 0.966, 0.259, -4458.085, 12602.922)" fill="none" stroke="#098576" stroke-linecap="round" stroke-width="2" stroke-dasharray="5"/>
      <path id="Trazado_1213535" data-name="Trazado 1213535" d="M6846.892,3326.734c.362.181,4.525,4.284,4.525,4.284l1.816-2.047,2.915-3.076" transform="matrix(0.259, -0.966, 0.966, 0.259, -4354.511, 12607.459)" fill="none" stroke="#098576" stroke-linecap="round" stroke-width="2"/>
    </g>
    <g transform="matrix(1, 0, 0, 1, 226.3, 6542.24)" filter="url(#Trazado_1218259)">
      <path id="Trazado_1218259-2" data-name="Trazado 1218259" d="M72.5,0C112.541,0,145,14.551,145,32.5S112.541,65,72.5,65,0,50.449,0,32.5,32.459,0,72.5,0Z" transform="translate(138.7 265)" fill="#f6c810"/>
    </g>
    <path id="Trazado_1218260" data-name="Trazado 1218260" d="M18.913,12.766V17H17.6V5.8h3.078a4.063,4.063,0,0,1,2.785.875,3.124,3.124,0,0,1,.988,2.469,3.4,3.4,0,0,1-1.1,2.609,4.194,4.194,0,0,1-2.965,1.016Zm0-5.781v4.594h1.375a3.074,3.074,0,0,0,2.074-.621A2.2,2.2,0,0,0,23.077,9.2q0-2.219-2.625-2.219ZM31.571,17H30.29V15.75h-.031A2.682,2.682,0,0,1,27.8,17.188a2.63,2.63,0,0,1-1.871-.633,2.192,2.192,0,0,1-.676-1.68q0-2.242,2.641-2.609l2.4-.336q0-2.039-1.648-2.039a3.938,3.938,0,0,0-2.609.984V9.563a4.958,4.958,0,0,1,2.719-.75q2.82,0,2.82,2.984ZM30.29,12.953l-1.93.266a3.133,3.133,0,0,0-1.344.441,1.273,1.273,0,0,0-.453,1.121,1.221,1.221,0,0,0,.418.957,1.615,1.615,0,0,0,1.113.371,2.056,2.056,0,0,0,1.574-.668,2.387,2.387,0,0,0,.621-1.691Zm10.525,3.406q0,4.406-4.219,4.406A5.664,5.664,0,0,1,34,20.2V18.922a5.327,5.327,0,0,0,2.578.75q2.953,0,2.953-3.141v-.875H39.5a3.237,3.237,0,0,1-5.152.465,4.263,4.263,0,0,1-.91-2.863,4.981,4.981,0,0,1,.98-3.242,3.275,3.275,0,0,1,2.684-1.2,2.608,2.608,0,0,1,2.4,1.3h.031V9h1.281Zm-1.281-2.977V12.2a2.289,2.289,0,0,0-.645-1.633,2.122,2.122,0,0,0-1.605-.68,2.225,2.225,0,0,0-1.859.863,3.853,3.853,0,0,0-.672,2.418,3.308,3.308,0,0,0,.645,2.137,2.082,2.082,0,0,0,1.707.8,2.23,2.23,0,0,0,1.754-.766A2.854,2.854,0,0,0,39.533,13.383ZM49.137,17H47.855V15.75h-.031a2.682,2.682,0,0,1-2.461,1.438,2.63,2.63,0,0,1-1.871-.633,2.192,2.192,0,0,1-.676-1.68q0-2.242,2.641-2.609l2.4-.336q0-2.039-1.648-2.039a3.938,3.938,0,0,0-2.609.984V9.563a4.958,4.958,0,0,1,2.719-.75q2.82,0,2.82,2.984Zm-1.281-4.047-1.93.266a3.133,3.133,0,0,0-1.344.441,1.273,1.273,0,0,0-.453,1.121,1.221,1.221,0,0,0,.418.957,1.615,1.615,0,0,0,1.113.371,2.056,2.056,0,0,0,1.574-.668,2.387,2.387,0,0,0,.621-1.691ZM55.724,10.3a1.567,1.567,0,0,0-.969-.258,1.635,1.635,0,0,0-1.371.773,3.576,3.576,0,0,0-.551,2.109V17H51.552V9h1.281v1.648h.031A2.794,2.794,0,0,1,53.7,9.332a1.906,1.906,0,0,1,1.258-.473,2.092,2.092,0,0,1,.766.109Zm11.23,6.336a4.163,4.163,0,0,1-2.187.555A3.622,3.622,0,0,1,62,16.074a4.035,4.035,0,0,1-1.051-2.887,4.435,4.435,0,0,1,1.133-3.176,3.963,3.963,0,0,1,3.023-1.2A4.209,4.209,0,0,1,66.97,9.2v1.313a3.258,3.258,0,0,0-1.906-.625,2.576,2.576,0,0,0-2.012.879,3.335,3.335,0,0,0-.785,2.309A3.176,3.176,0,0,0,63,15.3a2.545,2.545,0,0,0,1.98.813,3.211,3.211,0,0,0,1.969-.7Zm5.283.555A3.711,3.711,0,0,1,69.4,16.066a4.153,4.153,0,0,1-1.059-2.973,4.326,4.326,0,0,1,1.1-3.148,3.96,3.96,0,0,1,2.977-1.133,3.588,3.588,0,0,1,2.793,1.1,4.368,4.368,0,0,1,1,3.055,4.3,4.3,0,0,1-1.082,3.066A3.791,3.791,0,0,1,72.237,17.188Zm.094-7.3a2.437,2.437,0,0,0-1.953.84,3.449,3.449,0,0,0-.719,2.316,3.262,3.262,0,0,0,.727,2.242,2.469,2.469,0,0,0,1.945.82,2.342,2.342,0,0,0,1.91-.8,3.492,3.492,0,0,0,.668-2.289,3.552,3.552,0,0,0-.668-2.312A2.332,2.332,0,0,0,72.331,9.891ZM89.629,17H88.348V12.406a3.466,3.466,0,0,0-.41-1.922,1.555,1.555,0,0,0-1.379-.594,1.708,1.708,0,0,0-1.395.75,2.869,2.869,0,0,0-.574,1.8V17H83.309V12.25q0-2.359-1.82-2.359A1.686,1.686,0,0,0,80.1,10.6a2.923,2.923,0,0,0-.547,1.84V17H78.27V9h1.281v1.266h.031a2.718,2.718,0,0,1,2.484-1.453,2.311,2.311,0,0,1,2.266,1.656,2.855,2.855,0,0,1,2.656-1.656q2.641,0,2.641,3.258Zm3.736-1.156h-.031V20.68H92.052V9h1.281v1.406h.031a3.03,3.03,0,0,1,2.766-1.594,2.93,2.93,0,0,1,2.414,1.074,4.449,4.449,0,0,1,.867,2.879,4.959,4.959,0,0,1-.977,3.215,3.251,3.251,0,0,1-2.672,1.207A2.676,2.676,0,0,1,93.365,15.844Zm-.031-3.227v1.117a2.379,2.379,0,0,0,.645,1.684,2.3,2.3,0,0,0,3.461-.2,4.086,4.086,0,0,0,.66-2.477,3.225,3.225,0,0,0-.617-2.094,2.043,2.043,0,0,0-1.672-.758,2.27,2.27,0,0,0-1.8.777A2.854,2.854,0,0,0,93.334,12.617Zm12.3-2.32a1.567,1.567,0,0,0-.969-.258,1.635,1.635,0,0,0-1.371.773,3.576,3.576,0,0,0-.551,2.109V17H101.46V9h1.281v1.648h.031a2.793,2.793,0,0,1,.836-1.316,1.906,1.906,0,0,1,1.258-.473,2.092,2.092,0,0,1,.766.109Zm7.119,6.7H111.47V15.75h-.031a2.682,2.682,0,0,1-2.461,1.438,2.63,2.63,0,0,1-1.871-.633,2.192,2.192,0,0,1-.676-1.68q0-2.242,2.641-2.609l2.4-.336q0-2.039-1.648-2.039a3.938,3.938,0,0,0-2.609.984V9.563a4.958,4.958,0,0,1,2.719-.75q2.82,0,2.82,2.984Zm-1.281-4.047-1.93.266a3.133,3.133,0,0,0-1.344.441,1.273,1.273,0,0,0-.453,1.121,1.221,1.221,0,0,0,.418.957,1.615,1.615,0,0,0,1.113.371,2.056,2.056,0,0,0,1.574-.668,2.387,2.387,0,0,0,.621-1.691Z" transform="translate(373 6830.243)" fill="#212429"/>
    <path id="Trazado_1215942" data-name="Trazado 1215942" d="M0,0H72l-.767,18.158L54.793,34.7,0,34Z" transform="translate(329 6549.243)" fill="#e5fdfa"/>
    <path id="Trazado_1218261" data-name="Trazado 1218261" d="M6.5,16.547V15a3,3,0,0,0,.637.422,5.159,5.159,0,0,0,.781.316,6.219,6.219,0,0,0,.824.2,4.6,4.6,0,0,0,.766.07,3,3,0,0,0,1.809-.449,1.685,1.685,0,0,0,.4-2.082,2.244,2.244,0,0,0-.551-.613,5.465,5.465,0,0,0-.832-.531q-.48-.254-1.035-.535-.586-.3-1.094-.6a4.739,4.739,0,0,1-.883-.672,2.8,2.8,0,0,1-.59-.832A2.575,2.575,0,0,1,6.519,8.6,2.563,2.563,0,0,1,6.855,7.27a2.881,2.881,0,0,1,.883-.934,4,4,0,0,1,1.246-.547,5.706,5.706,0,0,1,1.426-.18,5.464,5.464,0,0,1,2.414.4V7.484A4.376,4.376,0,0,0,10.276,6.8a4.189,4.189,0,0,0-.859.09,2.428,2.428,0,0,0-.766.293A1.7,1.7,0,0,0,8.1,7.7a1.389,1.389,0,0,0-.211.781,1.608,1.608,0,0,0,.16.742,1.819,1.819,0,0,0,.473.57,4.708,4.708,0,0,0,.762.5q.449.242,1.035.531.6.3,1.141.625a5.214,5.214,0,0,1,.945.727,3.229,3.229,0,0,1,.645.883,2.482,2.482,0,0,1,.238,1.109,2.813,2.813,0,0,1-.324,1.4,2.661,2.661,0,0,1-.875.934,3.822,3.822,0,0,1-1.27.52,6.953,6.953,0,0,1-1.516.16,6.176,6.176,0,0,1-.656-.043q-.391-.043-.8-.125a6.5,6.5,0,0,1-.77-.2A2.394,2.394,0,0,1,6.5,16.547Zm9.509-9.578a.812.812,0,0,1-.586-.234.791.791,0,0,1-.242-.594.821.821,0,0,1,.828-.836.827.827,0,0,1,.6.238.835.835,0,0,1,0,1.184A.82.82,0,0,1,16.012,6.969ZM16.637,17H15.356V9h1.281Zm2.111-.289V15.336a3.792,3.792,0,0,0,2.3.773q1.688,0,1.688-1.125a.976.976,0,0,0-.145-.543,1.44,1.44,0,0,0-.391-.395,3.007,3.007,0,0,0-.578-.309q-.332-.137-.715-.285a9.207,9.207,0,0,1-.934-.426,2.82,2.82,0,0,1-.672-.484,1.8,1.8,0,0,1-.406-.613,2.17,2.17,0,0,1-.137-.8,1.912,1.912,0,0,1,.258-1,2.286,2.286,0,0,1,.688-.727,3.206,3.206,0,0,1,.98-.441,4.349,4.349,0,0,1,1.137-.148,4.59,4.59,0,0,1,1.859.359v1.3a3.624,3.624,0,0,0-2.031-.578,2.374,2.374,0,0,0-.648.082,1.587,1.587,0,0,0-.5.23,1.065,1.065,0,0,0-.32.355.936.936,0,0,0-.113.457,1.1,1.1,0,0,0,.113.523,1.152,1.152,0,0,0,.332.375,2.538,2.538,0,0,0,.531.3q.313.133.711.289a9.9,9.9,0,0,1,.953.418,3.269,3.269,0,0,1,.719.484,1.893,1.893,0,0,1,.457.621,2,2,0,0,1,.16.836,1.971,1.971,0,0,1-.262,1.031,2.243,2.243,0,0,1-.7.727,3.2,3.2,0,0,1-1.008.43,4.976,4.976,0,0,1-1.2.141A4.539,4.539,0,0,1,18.748,16.711Zm10.986.211a2.47,2.47,0,0,1-1.2.25q-2.1,0-2.1-2.344V10.094H25.062V9h1.375V7.047l1.281-.414V9h2.016v1.094H27.719V14.6a1.869,1.869,0,0,0,.273,1.148,1.091,1.091,0,0,0,.906.344,1.347,1.347,0,0,0,.836-.266Zm8.142-3.6H32.228a2.992,2.992,0,0,0,.719,2.063,2.478,2.478,0,0,0,1.891.727,3.931,3.931,0,0,0,2.484-.891v1.2a4.643,4.643,0,0,1-2.789.766,3.381,3.381,0,0,1-2.664-1.09,4.461,4.461,0,0,1-.969-3.066,4.375,4.375,0,0,1,1.059-3.043,3.394,3.394,0,0,1,2.629-1.176,3.008,3.008,0,0,1,2.43,1.016,4.234,4.234,0,0,1,.859,2.82Zm-1.312-1.086a2.607,2.607,0,0,0-.535-1.727,1.823,1.823,0,0,0-1.465-.617,2.07,2.07,0,0,0-1.539.648,2.943,2.943,0,0,0-.781,1.7ZM51.175,17H49.894V12.406a3.466,3.466,0,0,0-.41-1.922A1.555,1.555,0,0,0,48.1,9.891a1.708,1.708,0,0,0-1.395.75,2.869,2.869,0,0,0-.574,1.8V17H44.855V12.25q0-2.359-1.82-2.359a1.686,1.686,0,0,0-1.391.707,2.923,2.923,0,0,0-.547,1.84V17H39.816V9H41.1v1.266h.031a2.718,2.718,0,0,1,2.484-1.453,2.311,2.311,0,0,1,2.266,1.656,2.855,2.855,0,0,1,2.656-1.656q2.641,0,2.641,3.258Zm8.15,0H58.044V15.75h-.031a2.682,2.682,0,0,1-2.461,1.438,2.63,2.63,0,0,1-1.871-.633A2.192,2.192,0,0,1,53,14.875q0-2.242,2.641-2.609l2.4-.336q0-2.039-1.648-2.039a3.938,3.938,0,0,0-2.609.984V9.563a4.958,4.958,0,0,1,2.719-.75q2.82,0,2.82,2.984Zm-1.281-4.047-1.93.266a3.133,3.133,0,0,0-1.344.441,1.273,1.273,0,0,0-.453,1.121,1.221,1.221,0,0,0,.418.957,1.615,1.615,0,0,0,1.113.371,2.056,2.056,0,0,0,1.574-.668,2.387,2.387,0,0,0,.621-1.691Z" transform="translate(329 6555.243)" fill="#212429"/>
    <path id="Trazado_1215936" data-name="Trazado 1215936" d="M2669,6673.755h55.9l16.7-16.7v-18.829" transform="translate(-2341 -89.757)" fill="none" stroke="#098576" stroke-width="1.5"/>
    <g id="Trazado_1218262" data-name="Trazado 1218262" transform="translate(241 6661.583)" fill="#aa52f9">
      <path d="M 10.5 20 C 5.261680126190186 20 1 15.73832035064697 1 10.5 C 1 5.261680126190186 5.261680126190186 1 10.5 1 C 15.73832035064697 1 20 5.261680126190186 20 10.5 C 20 15.73832035064697 15.73832035064697 20 10.5 20 Z" stroke="none"/>
      <path d="M 10.5 2 C 5.813079833984375 2 2 5.813079833984375 2 10.5 C 2 15.18692016601562 5.813079833984375 19 10.5 19 C 15.18692016601562 19 19 15.18692016601562 19 10.5 C 19 5.813079833984375 15.18692016601562 2 10.5 2 M 10.5 0 C 16.29899024963379 0 21 4.701009750366211 21 10.5 C 21 16.29899024963379 16.29899024963379 21 10.5 21 C 4.701009750366211 21 0 16.29899024963379 0 10.5 C 0 4.701009750366211 4.701009750366211 0 10.5 0 Z" stroke="none" fill="#000"/>
    </g>
    <path id="Trazado_1216988" data-name="Trazado 1216988" d="M1713.856,9245.1h36.2" transform="translate(-1480.755 -2552.06)" fill="none" stroke="#000" stroke-linecap="round" stroke-width="2"/>
    <path id="Trazado_1216989" data-name="Trazado 1216989" d="M1725.145,9237v29.992" transform="translate(-1473.943 -2554.133)" fill="none" stroke="#000" stroke-linecap="round" stroke-width="2"/>
    <path id="Trazado_1216990" data-name="Trazado 1216990" d="M1713.856,9280.342l17.959-25.048,18.432,25.048" transform="translate(-1480.755 -2543.098)" fill="none" stroke="#000" stroke-linecap="round" stroke-width="2"/>
  </g>
</svg>
