<svg xmlns="http://www.w3.org/2000/svg" xmlns:xlink="http://www.w3.org/1999/xlink" width="295" height="315" viewBox="0 0 295 315">
  <defs>
    <clipPath id="clip-path">
      <rect id="Rectángulo_422190" data-name="Rectángulo 422190" width="295" height="315" transform="translate(1125 796)" fill="#fff" stroke="#707070" stroke-width="1" opacity="0.43"/>
    </clipPath>
  </defs>
  <g id="Enmascarar_grupo_1208495" data-name="Enmascarar grupo 1208495" transform="translate(-1125 -796)" clip-path="url(#clip-path)">
    <g id="Grupo_1227843" data-name="Grupo 1227843" transform="translate(3465.648 -1456.914)">
      <g id="Lines" transform="translate(-2339.7 2263.582)">
        <g id="Grupo_1227830" data-name="Grupo 1227830" transform="translate(0 0)">
          <path id="Trazado_1216075" data-name="Trazado 1216075" d="M71.271,215.179H67.223a16.384,16.384,0,0,0-16.385,16.385v89.9a16.385,16.385,0,0,0,16.385,16.385h55.551a16.384,16.384,0,0,0,16.385-16.385h0" transform="translate(-50.838 -102.557)" fill="none" stroke="#263238" stroke-linecap="round" stroke-linejoin="round" stroke-miterlimit="10" stroke-width="1.103" stroke-dasharray="4.412"/>
          <path id="Trazado_1216076" data-name="Trazado 1216076" d="M162.964,92.219V74.46A10.035,10.035,0,0,1,173,64.425h72.242A10.035,10.035,0,0,1,255.275,74.46h0" transform="translate(-79.199 -64.425)" fill="none" stroke="#263238" stroke-linecap="round" stroke-linejoin="round" stroke-miterlimit="10" stroke-width="1.103" stroke-dasharray="4.412"/>
        </g>
      </g>
      <g id="Shadow" transform="translate(-2333.992 2517.198)">
        <g id="Grupo_1227831" data-name="Grupo 1227831" transform="translate(0 0)">
          <ellipse id="Elipse_13235" data-name="Elipse 13235" cx="143.078" cy="22.708" rx="143.078" ry="22.708" fill="#dcb9fc"/>
          <ellipse id="Elipse_13236" data-name="Elipse 13236" cx="143.078" cy="22.708" rx="143.078" ry="22.708" fill="#dcb9fc" opacity="0.5"/>
        </g>
      </g>
      <g id="Window" transform="translate(-2325.788 2298.615)">
        <g id="Grupo_1227832" data-name="Grupo 1227832" transform="translate(0 0)">
          <path id="Trazado_1216077" data-name="Trazado 1216077" d="M339.208,127.907V262.423A16.583,16.583,0,0,1,322.628,279H86.041A16.583,16.583,0,0,1,69.46,262.423V127.907c0-.4.016-.783.049-1.17A16.578,16.578,0,0,1,86.04,111.319H322.628a16.578,16.578,0,0,1,16.531,15.419C339.192,127.125,339.208,127.512,339.208,127.907Z" transform="translate(-69.46 -111.319)" fill="#fff" stroke="#263238" stroke-linecap="round" stroke-linejoin="round" stroke-miterlimit="10" stroke-width="1.103"/>
          <path id="Trazado_1216078" data-name="Trazado 1216078" d="M319.178,280.075H95.8A15.539,15.539,0,0,1,80.26,264.536V140.276H334.717V264.535A15.539,15.539,0,0,1,319.178,280.075Z" transform="translate(-72.192 -118.643)" fill="#263238"/>
          <path id="Trazado_1216079" data-name="Trazado 1216079" d="M334.721,140.275V264.539a15.454,15.454,0,0,1-15.366,15.534H95.626A15.454,15.454,0,0,1,80.26,264.539V140.275Z" transform="translate(-72.192 -118.643)" fill="#fff" opacity="0.2"/>
          <path id="Trazado_1216080" data-name="Trazado 1216080" d="M339.176,126.738H69.526a16.578,16.578,0,0,1,16.531-15.419H322.644A16.578,16.578,0,0,1,339.176,126.738Z" transform="translate(-69.477 -111.319)" fill="#aa52f9" stroke="#263238" stroke-miterlimit="10" stroke-width="1.103"/>
          <path id="Trazado_1216081" data-name="Trazado 1216081" d="M111.892,120.644a2.937,2.937,0,1,1-2.937-2.937A2.937,2.937,0,0,1,111.892,120.644Z" transform="translate(-78.707 -112.935)" fill="#263238"/>
          <path id="Trazado_1216082" data-name="Trazado 1216082" d="M128.515,120.644a2.937,2.937,0,1,1-2.937-2.937A2.937,2.937,0,0,1,128.515,120.644Z" transform="translate(-82.912 -112.935)" fill="#263238"/>
          <circle id="Elipse_13237" data-name="Elipse 13237" cx="2.937" cy="2.937" r="2.937" transform="translate(52.148 4.772)" fill="#263238"/>
          <path id="Trazado_1216083" data-name="Trazado 1216083" d="M334.718,140.282V264.538a15.544,15.544,0,0,1-15.543,15.543H95.8a15.537,15.537,0,0,1-15.237-12.526l-.008-.008v-.033a15.414,15.414,0,0,1-.288-2.975V140.282Z" transform="translate(-72.193 -118.645)" fill="none" stroke="#263238" stroke-miterlimit="10" stroke-width="1.103"/>
          <path id="Trazado_1216084" data-name="Trazado 1216084" d="M410.571,163.413a15.8,15.8,0,0,0-3.453-1.425l-1.393-6.238h-5.933l-1.384,6.238a15.308,15.308,0,0,0-3.461,1.425l-5.356-3.428L385.4,164.18l3.371,5.356A15.24,15.24,0,0,0,387.341,173l-6.238,1.384v5.933l6.238,1.393a15.121,15.121,0,0,0,1.425,3.486l-3.428,5.389,4.195,4.195,5.389-3.428a15.333,15.333,0,0,0,3.461,1.434l1.384,6.231H405.7l1.392-6.231a15.82,15.82,0,0,0,3.453-1.434l.272.173V163.256Zm-7.8,21.633a7.664,7.664,0,1,1,7.664-7.664A7.66,7.66,0,0,1,402.775,185.046Z" transform="translate(-148.287 -122.557)" fill="#263238"/>
          <path id="Trazado_1216085" data-name="Trazado 1216085" d="M246.55,165.508V153L233.4,150.082a33.993,33.993,0,0,0-3.008-7.3l1.591-2.5H169.9l1.533,2.439a32.353,32.353,0,0,0-3,7.293l-13.153,2.925v12.51l13.153,2.934a32.816,32.816,0,0,0,3,7.351l-7.227,11.364,8.85,8.842,11.356-7.227a33.439,33.439,0,0,0,7.3,3.024l2.917,13.136h12.51l2.942-13.136a33.711,33.711,0,0,0,7.276-3.024l11.364,7.227,8.842-8.842-7.178-11.364a34.258,34.258,0,0,0,3.008-7.285Zm-45.572,9.906a16.16,16.16,0,1,1,16.16-16.16A16.16,16.16,0,0,1,200.977,175.414Z" transform="translate(-91.168 -118.643)" fill="#263238"/>
          <path id="Trazado_1216086" data-name="Trazado 1216086" d="M144.6,274.354l.527-9.922-10.285-2.9a27.852,27.852,0,0,0-2.11-5.9l6.213-8.727-6.659-7.392-9.312,5.266a27.57,27.57,0,0,0-5.669-2.711l-1.78-10.548-9.922-.527-2.868,10.318a25.926,25.926,0,0,0-5.9,2.093l-8.719-6.213-7.4,6.659,5.274,9.32a25.763,25.763,0,0,0-2.719,5.661l-3.008.495v13.441l2.184.618a25.958,25.958,0,0,0,2.11,5.917l-4.293,6.008.288,5.15v.033l.008.008,4.426,4.912,9.329-5.266A25.841,25.841,0,0,0,100,292.888l1.7,10.128v.008l.082.421,9.922.527.264-.948v-.008l2.6-9.361a26.588,26.588,0,0,0,5.933-2.093l8.7,6.205,7.4-6.65-5.258-9.329a25.761,25.761,0,0,0,2.686-5.653Zm-26.355-15.5a12.849,12.849,0,1,0-.956,18.137A12.85,12.85,0,0,0,118.247,258.853Z" transform="translate(-72.193 -141.589)" fill="#263238"/>
          <path id="Trazado_1216087" data-name="Trazado 1216087" d="M256.7,258.261a20.208,20.208,0,0,0,.6-4.7l7.134-3.75-1.971-7.238-8.052.377a20.054,20.054,0,0,0-2.893-3.738l2.386-7.7-6.5-3.725-5.439,5.935a21.1,21.1,0,0,0-4.684-.6l-3.766-7.139-7.227,1.966.382,8.062a20.436,20.436,0,0,0-3.746,2.89l-7.705-2.379-3.729,6.491,5.968,5.425a19.576,19.576,0,0,0-.589,4.686l-7.146,3.763,1.971,7.237,8.062-.382a19.207,19.207,0,0,0,2.882,3.743l-2.4,7.663,6.5,3.725,5.412-5.885a19.707,19.707,0,0,0,4.695.592l3.755,7.144,7.227-1.966-.317-6.886-.054-1.18a19.868,19.868,0,0,0,3.782-2.894l7.7,2.394,3.182-5.561.543-.941Zm-17.088,4.4a9.68,9.68,0,1,1,6.8-11.884A9.68,9.68,0,0,1,239.608,262.657Z" transform="translate(-104.937 -140.322)" fill="#263238"/>
          <path id="Trazado_1216088" data-name="Trazado 1216088" d="M358.782,269.974l1.648-9.93L350.376,256a26.694,26.694,0,0,0-1.442-6.2l7.235-8.059-5.859-8.192-9.98,4.236a26.546,26.546,0,0,0-5.389-3.346l-.585-10.829-9.938-1.64-4.071,10.013a27.782,27.782,0,0,0-6.172,1.451L306.09,226.2l-8.183,5.859,4.244,9.972a27.123,27.123,0,0,0-3.024,4.7c-.115.231-.231.462-.338.693l-10.82.6-1.648,9.922,1.632.66,8.422,3.4a26.185,26.185,0,0,0,1.442,6.172l-7.235,8.085,5.859,8.183,9.98-4.252a25.892,25.892,0,0,0,5.381,3.371l.56,10.779,9.93,1.64,4.063-9.938a26.143,26.143,0,0,0,6.189-1.45l8.068,7.243,8.191-5.867-4.244-9.98a26.042,26.042,0,0,0,3.4-5.414Zm-27.862-.444a13.005,13.005,0,1,1,3-18.146A13.006,13.006,0,0,1,330.92,269.53Z" transform="translate(-124.313 -139.308)" fill="#263238"/>
        </g>
      </g>
      <g id="Graphics" transform="translate(-2313.888 2278.693)">
        <g id="Grupo_1227840" data-name="Grupo 1227840" transform="translate(0 -8)">
          <g id="Grupo_1227837" data-name="Grupo 1227837" transform="translate(0 77.035)">
            <path id="Trazado_1216089" data-name="Trazado 1216089" d="M173.308,315.528H95.183a9.794,9.794,0,0,1-9.794-9.794V197.564a9.794,9.794,0,0,1,9.794-9.794h78.125a9.794,9.794,0,0,1,9.794,9.794v108.17A9.794,9.794,0,0,1,173.308,315.528Z" transform="translate(-85.389 -187.77)" fill="#92e3a9" stroke="#263238" stroke-miterlimit="10" stroke-width="1.103"/>
            <path id="Trazado_1216090" data-name="Trazado 1216090" d="M173.308,315.528H95.183a9.794,9.794,0,0,1-9.794-9.794V197.564a9.794,9.794,0,0,1,9.794-9.794h78.125a9.794,9.794,0,0,1,9.794,9.794v108.17A9.794,9.794,0,0,1,173.308,315.528Z" transform="translate(-85.389 -187.77)" fill="#aa52f9" opacity="0.2"/>
            <g id="Grupo_1227836" data-name="Grupo 1227836" transform="translate(9.097 9.654)">
              <path id="Trazado_1216091" data-name="Trazado 1216091" d="M195.278,210.482V318.651a9.8,9.8,0,0,1-9.8,9.8H107.356a9.793,9.793,0,0,1-9.79-9.8V210.482a9.791,9.791,0,0,1,9.79-9.79H185.48A9.793,9.793,0,0,1,195.278,210.482Z" transform="translate(-97.566 -200.692)" fill="#fff" stroke="#263238" stroke-linecap="round" stroke-linejoin="round" stroke-miterlimit="10" stroke-width="1.103"/>
              <path id="Trazado_1216092" data-name="Trazado 1216092" d="M195.278,210.482v5.793H97.566v-5.793a9.791,9.791,0,0,1,9.79-9.79H185.48A9.793,9.793,0,0,1,195.278,210.482Z" transform="translate(-97.566 -200.692)" fill="#aa52f9" stroke="#263238" stroke-miterlimit="10" stroke-width="1.103"/>
              <rect id="Rectángulo_422191" data-name="Rectángulo 422191" width="24.039" height="4.032" transform="translate(9.19 22.294)" fill="#aa52f9"/>
              <rect id="Rectángulo_422192" data-name="Rectángulo 422192" width="24.039" height="4.032" transform="translate(9.19 58.443)" fill="#aa52f9"/>
              <rect id="Rectángulo_422193" data-name="Rectángulo 422193" width="24.039" height="4.032" transform="translate(9.19 91.224)" fill="#aa52f9"/>
              <g id="Grupo_1227833" data-name="Grupo 1227833" transform="translate(9.19 32.276)">
                <rect id="Rectángulo_422194" data-name="Rectángulo 422194" width="68.275" height="2.958" fill="#263238"/>
                <rect id="Rectángulo_422195" data-name="Rectángulo 422195" width="55.964" height="2.882" transform="translate(0 5.66)" fill="#263238"/>
                <rect id="Rectángulo_422196" data-name="Rectángulo 422196" width="63.292" height="2.882" transform="translate(0 11.225)" fill="#263238"/>
                <rect id="Rectángulo_422197" data-name="Rectángulo 422197" width="63.292" height="2.882" transform="translate(0 16.784)" fill="#263238"/>
              </g>
              <g id="Grupo_1227834" data-name="Grupo 1227834" transform="translate(9.19 65.057)">
                <rect id="Rectángulo_422198" data-name="Rectángulo 422198" width="68.275" height="2.958" fill="#263238"/>
                <rect id="Rectángulo_422199" data-name="Rectángulo 422199" width="55.964" height="2.882" transform="translate(0 5.66)" fill="#263238"/>
                <rect id="Rectángulo_422200" data-name="Rectángulo 422200" width="63.292" height="2.882" transform="translate(0 11.225)" fill="#263238"/>
              </g>
              <g id="Grupo_1227835" data-name="Grupo 1227835" transform="translate(9.19 101.055)">
                <rect id="Rectángulo_422201" data-name="Rectángulo 422201" width="68.275" height="2.958" fill="#263238"/>
                <rect id="Rectángulo_422202" data-name="Rectángulo 422202" width="55.964" height="2.882" transform="translate(0 5.66)" fill="#263238"/>
                <rect id="Rectángulo_422203" data-name="Rectángulo 422203" width="63.292" height="2.882" transform="translate(0 11.225)" fill="#263238"/>
              </g>
            </g>
          </g>
          <g id="Grupo_1227839" data-name="Grupo 1227839" transform="translate(92.879)">
            <path id="Trazado_1216093" data-name="Trazado 1216093" d="M333.764,96.338v43.718a11.673,11.673,0,0,1-11.677,11.677H221.392a11.678,11.678,0,0,1-11.677-11.677V96.338a11.686,11.686,0,0,1,11.677-11.686H322.087A11.68,11.68,0,0,1,333.764,96.338Z" transform="translate(-209.715 -84.652)" fill="#fff" stroke="#222221" stroke-miterlimit="10" stroke-width="1.103"/>
            <path id="Trazado_1216094" data-name="Trazado 1216094" d="M333.764,96.338v1H209.715v-1a11.686,11.686,0,0,1,11.677-11.686H322.087A11.68,11.68,0,0,1,333.764,96.338Z" transform="translate(-209.715 -84.652)" fill="#aa52f9" stroke="#263238" stroke-miterlimit="10" stroke-width="1.103"/>
            <path id="Trazado_1216095" data-name="Trazado 1216095" d="M233.075,94.9a1.789,1.789,0,1,1,0-2.53A1.789,1.789,0,0,1,233.075,94.9Z" transform="translate(-214.851 -86.473)" fill="#263238"/>
            <path id="Trazado_1216096" data-name="Trazado 1216096" d="M244.2,94.9a1.789,1.789,0,1,1,0-2.53A1.789,1.789,0,0,1,244.2,94.9Z" transform="translate(-217.664 -86.473)" fill="#263238"/>
            <path id="Trazado_1216097" data-name="Trazado 1216097" d="M255.315,94.9a1.789,1.789,0,1,1,0-2.53A1.789,1.789,0,0,1,255.315,94.9Z" transform="translate(-220.477 -86.473)" fill="#263238"/>
            <rect id="Rectángulo_422204" data-name="Rectángulo 422204" width="40.549" height="35.051" transform="translate(7.91 20.722)" fill="none" stroke="#263238" stroke-linecap="round" stroke-linejoin="round" stroke-miterlimit="10" stroke-width="1.103" stroke-dasharray="4.412"/>
            <g id="Grupo_1227838" data-name="Grupo 1227838" transform="translate(54.715 20.722)">
              <rect id="Rectángulo_422205" data-name="Rectángulo 422205" width="46.667" height="2.462" fill="#263238"/>
              <rect id="Rectángulo_422206" data-name="Rectángulo 422206" width="35.796" height="2.462" transform="translate(0 5.105)" fill="#263238"/>
              <rect id="Rectángulo_422207" data-name="Rectángulo 422207" width="53.305" height="2.491" transform="translate(0 10.18)" fill="#263238"/>
              <rect id="Rectángulo_422208" data-name="Rectángulo 422208" width="45.39" height="2.491" transform="translate(0 15.139)" fill="#263238"/>
            </g>
          </g>
        </g>
      </g>
      <g id="Character" transform="translate(-2207.08 2370.76)">
        <g id="Grupo_1227842" data-name="Grupo 1227842" transform="translate(0 0)">
          <path id="Trazado_1216098" data-name="Trazado 1216098" d="M279.536,437.613s-21.665,6.213-24.69,7.285c-2.752.973-10.21,3.584-15.806,2.777a12.234,12.234,0,0,1-1.6-.346c-5.669-1.689-8.216-3.263-8.958-6.832s2.077-6.189,4.8-7.87,17.471-3.436,17.471-3.436l3.56,1.047h.008Z" transform="translate(-228.361 -263.866)" fill="#aa52f9"/>
          <path id="Trazado_1216099" data-name="Trazado 1216099" d="M239.041,447.676a12.246,12.246,0,0,1-1.6-.346c-5.669-1.689-8.216-3.263-8.958-6.832s2.077-6.189,4.8-7.87,17.471-3.436,17.471-3.436l3.56,1.047c-3.222,1.484-15.237,2.308-17.858,3.815s-3.89,4.351-2.34,8.192C234.937,444.289,237.145,446.267,239.041,447.676Z" transform="translate(-228.361 -263.866)" fill="#fff"/>
          <path id="Trazado_1216100" data-name="Trazado 1216100" d="M276.317,438.8s-16.271,4.216-22.723,6.914-18.762,3.879-23.146-1.686-.506-10.352,3.879-11.416,13.251-2.75,18.092-2.075" transform="translate(-228.402 -264.167)" fill="none" stroke="#263238" stroke-linecap="round" stroke-linejoin="round" stroke-miterlimit="10" stroke-width="1.103"/>
          <path id="Trazado_1216101" data-name="Trazado 1216101" d="M241.032,447.733s-8.279-4.539-5.53-10.9c2.029-4.7,13.073-3.677,18.541-6.244" transform="translate(-230.026 -264.219)" fill="none" stroke="#263238" stroke-linecap="round" stroke-linejoin="round" stroke-miterlimit="10" stroke-width="1.103"/>
          <path id="Trazado_1216102" data-name="Trazado 1216102" d="M369.9,448.539a6.868,6.868,0,0,1-3.247,5.661,12.709,12.709,0,0,1-6.658,1.376c-7.6-.1-21.879-5.53-21.879-5.53l-13.375-7.392,6.955-11.009,1.9-3.017,4.919,1.1s4.071,2.308,8.167,4.145,14.034,2.225,17.536,5.06S370.278,444.847,369.9,448.539Z" transform="translate(-252.739 -263.724)" fill="#aa52f9"/>
          <path id="Trazado_1216103" data-name="Trazado 1216103" d="M372.254,448.539a6.868,6.868,0,0,1-3.247,5.661,10.015,10.015,0,0,0-.379-6.675c-1.484-3.354-6.354-6.313-12.749-6.806s-11.29-3.486-13.853-4.821c-2-1.038-6.221-3.3-7.977-4.252l1.9-3.017,4.919,1.1s4.071,2.308,8.167,4.145,14.034,2.225,17.536,5.06S372.633,444.847,372.254,448.539Z" transform="translate(-255.094 -263.724)" fill="#fff"/>
          <path id="Trazado_1216104" data-name="Trazado 1216104" d="M328.238,446.233a84.428,84.428,0,0,0,31.3,10.694c2.432.293,5.264.333,6.894-1.495a5.1,5.1,0,0,0,1.124-3.821c-.3-3.433-3.182-6.157-6.348-7.517s-6.662-1.686-10.025-2.44a39.6,39.6,0,0,1-9.641-3.527c-2.417-1.261-4.757-2.793-7.425-3.358s-5.845.12-7.267,2.447" transform="translate(-253.274 -265.23)" fill="none" stroke="#263238" stroke-linecap="round" stroke-linejoin="round" stroke-miterlimit="10" stroke-width="1.103"/>
          <path id="Trazado_1216105" data-name="Trazado 1216105" d="M367.873,455.232a8.909,8.909,0,0,0,4.892-6.32c.485-3.236-1.358-6.49-3.956-8.481a21.966,21.966,0,0,0-9.046-3.591,58.738,58.738,0,0,1-9.529-2.3c-4.686-1.831-9.308-5.448-14.172-4.157" transform="translate(-255.603 -264.097)" fill="none" stroke="#263238" stroke-linecap="round" stroke-linejoin="round" stroke-miterlimit="10" stroke-width="1.103"/>
          <path id="Trazado_1216106" data-name="Trazado 1216106" d="M321.492,289.08l-22.629-8.611-.28-.108s.082-.6.149-1.475c.14-1.8.214-4.747-.634-5.744-1.261-1.475-4.837-.239-8.323-1.838s-9.938,1.261-9.938,1.261-4.656-.857-6.708,2.506a18.232,18.232,0,0,0-.684,6.749s-.148.057-.429.157c-2.695,1.006-17.363,6.527-20.47,8.744-3.428,2.431-7.219,27.36-8.439,34.678s-3.387,13.919-2.283,16.441,16.861,14.652,25.926,17.784,41.229,2.217,41.229,2.217.527-.14,1.458-.437c5.439-1.747,24.739-8.942,34.974-25.91C344.41,335.493,334.5,302.975,321.492,289.08ZM260.353,331.01c-1.664,1.179-.775,5.752-.775,5.752l-2.835-2.5,7.112-17.487,3.032,13.425S262.018,329.84,260.353,331.01Zm56.9,11.109c-.783.4,2.25-8,.808-9.905s-5.761-1.722-5.761-1.722l.371-2.3c.049-.255,2.563-13.144,2.563-13.144l.849-1.014s8.8,15.089,10.375,20.4C326.453,334.438,316.86,342.118,317.248,342.118Z" transform="translate(-231.436 -223.807)" fill="#aa52f9"/>
          <path id="Trazado_1216107" data-name="Trazado 1216107" d="M287.381,222.254l-11.68,12.4s-1.611,1.424-.97,5.021,2.131,6.688,3.257,6.927a16.006,16.006,0,0,0,2.7.242s2.5,5.424,4.275,7.556c0,0,.618,8.372.289,10.7,0,0,4.2,3.665,8.148,4.131s10.059-5.59,10.059-5.59l1.514-7.413s3.583-5.439,3.827-6.886,1.883-1.077,2.687-1.791a13.639,13.639,0,0,0,2.976-6.927c.308-3.018.329-6.485-3.177-5.467-3.038-.817-1.136-7.239-1.136-7.239l-5.339-4.71Z" transform="translate(-240.052 -211.523)" fill="#fff"/>
          <path id="Trazado_1216108" data-name="Trazado 1216108" d="M309.526,280.469a11.984,11.984,0,0,1-.6,1.351C307,285.455,298.6,292.377,298.6,292.377l-2.539-7.8-1.392,7.8c-2.8-1.22-11.348-8.628-11.348-8.628s-.288-.693-.642-1.772c.28-.1.429-.157.429-.157a18.234,18.234,0,0,1,.684-6.749c2.052-3.363,6.708-2.506,6.708-2.506s6.452-2.86,9.938-1.261,7.063.362,8.323,1.838.486,7.219.486,7.219Z" transform="translate(-242.1 -223.807)" fill="#fff" opacity="0.5"/>
          <path id="Trazado_1216109" data-name="Trazado 1216109" d="M339.91,291.812,317.28,283.2l-.28-.108s.082-.6.149-1.475l-.47,2.934-3.346,4.549a91.685,91.685,0,0,1,10.442,4.6,9.172,9.172,0,0,1,4.8,9.148L324.4,338.522,322.7,358.777l5.158,5.356c5.439-1.747,24.739-8.942,34.974-25.91C362.827,338.224,352.914,305.706,339.91,291.812Zm-4.244,53.038c-.783.4,2.25-8,.808-9.905s-5.761-1.722-5.761-1.722l.371-2.3c.049-.256,2.563-13.144,2.563-13.144l.849-1.014s8.8,15.089,10.375,20.4C344.87,337.169,335.278,344.85,335.666,344.85Z" transform="translate(-249.854 -226.539)" opacity="0.2"/>
          <path id="Trazado_1216110" data-name="Trazado 1216110" d="M270.071,339.936l-3.519-11.76s-6.309-21.518-10.635-26.825l1.137,15.133s-3.712,18.079-7.149,23.452-4.178,6.708,0,6.708,14.339,8.1,14.339,8.1l-.783-6.758Zm-8.843,4.549-2.835-2.5,7.112-17.487,3.032,13.425s-4.87-.362-6.535.808S261.228,344.485,261.228,344.485Z" transform="translate(-233.087 -231.53)" opacity="0.2"/>
          <path id="Trazado_1216111" data-name="Trazado 1216111" d="M288.485,265.284s.65,6.341,0,9.238" transform="translate(-243.569 -222.407)" fill="none" stroke="#263238" stroke-linecap="round" stroke-linejoin="round" stroke-miterlimit="10" stroke-width="1.103"/>
          <path id="Trazado_1216112" data-name="Trazado 1216112" d="M314.108,274.462a27.187,27.187,0,0,1,.706-6.058" transform="translate(-250.05 -223.197)" fill="none" stroke="#263238" stroke-linecap="round" stroke-linejoin="round" stroke-miterlimit="10" stroke-width="1.103"/>
          <path id="Trazado_1216113" data-name="Trazado 1216113" d="M307.666,228.582s3.836,4.82,3.64,8.46-.492,7.968-.394,12.2-6.788,13.083-10.329,13.87-6.591.984-8.853-1.279a85.511,85.511,0,0,1-7.476-9.444c-2.951-4.033-2.262-12.887-2.262-12.887" transform="translate(-241.909 -213.124)" fill="none" stroke="#263238" stroke-linecap="round" stroke-linejoin="round" stroke-miterlimit="10" stroke-width="1.103"/>
          <path id="Trazado_1216114" data-name="Trazado 1216114" d="M303.9,247.714a19.974,19.974,0,0,0-.3,4.009,4.562,4.562,0,0,0,.984,3.141c.424.433,1.04.778,1.121,1.378a1.456,1.456,0,0,1-.788,1.306,11.023,11.023,0,0,0-1.383.822" transform="translate(-247.374 -217.963)" fill="none" stroke="#263238" stroke-linecap="round" stroke-linejoin="round" stroke-miterlimit="10" stroke-width="1.103"/>
          <path id="Trazado_1216115" data-name="Trazado 1216115" d="M295.866,262.6s.444,2.859,4.278,3.457" transform="translate(-245.436 -221.729)" fill="none" stroke="#263238" stroke-linecap="round" stroke-linejoin="round" stroke-miterlimit="10" stroke-width="1.103"/>
          <path id="Trazado_1216116" data-name="Trazado 1216116" d="M295.86,250.125c0,.826-.357,1.5-.8,1.5s-.8-.67-.8-1.5.357-1.5.8-1.5S295.86,249.3,295.86,250.125Z" transform="translate(-245.03 -218.195)" fill="#263238"/>
          <path id="Trazado_1216117" data-name="Trazado 1216117" d="M311.17,250.606c0,.826-.357,1.5-.8,1.5s-.8-.67-.8-1.5.357-1.5.8-1.5S311.17,249.78,311.17,250.606Z" transform="translate(-248.903 -218.316)" fill="#263238"/>
          <path id="Trazado_1216118" data-name="Trazado 1216118" d="M308.621,245.746s3.719-3.719,6.865.429" transform="translate(-248.662 -217.078)" fill="none" stroke="#263238" stroke-linecap="round" stroke-linejoin="round" stroke-miterlimit="10" stroke-width="2.206"/>
          <path id="Trazado_1216119" data-name="Trazado 1216119" d="M296.033,245.963s-2.36-2.646-6.079,0" transform="translate(-243.94 -217.223)" fill="none" stroke="#263238" stroke-linecap="round" stroke-linejoin="round" stroke-miterlimit="10" stroke-width="2.206"/>
          <path id="Trazado_1216120" data-name="Trazado 1216120" d="M288.773,268.768s2.278,6.278,7.365,8.059,11.842-7.46,11.842-7.46l-.353-1.2s-4.426,5.75-9.35,4.77-9.793-7.651-9.793-7.651Z" transform="translate(-243.568 -222.407)" fill="#263238"/>
          <path id="Trazado_1216121" data-name="Trazado 1216121" d="M280.744,250.625s-3.032,1.071-3.838-1.292-3.57-8.582-1.152-10.655,4.363,2.737,4.363,2.737" transform="translate(-240.103 -215.546)" fill="none" stroke="#263238" stroke-linecap="round" stroke-linejoin="round" stroke-miterlimit="10" stroke-width="1.103"/>
          <path id="Trazado_1216122" data-name="Trazado 1216122" d="M320.72,252.178s2.819.567,3.625-1.8,3.57-8.582,1.152-10.656-4.363,2.737-4.363,2.737" transform="translate(-251.722 -215.812)" fill="none" stroke="#263238" stroke-linecap="round" stroke-linejoin="round" stroke-miterlimit="10" stroke-width="1.103"/>
          <path id="Trazado_1216123" data-name="Trazado 1216123" d="M279,239.821a4.2,4.2,0,0,0,2.661-1.573,6.62,6.62,0,0,0,.773-2.385,28.717,28.717,0,0,0,.421-4.807,6.466,6.466,0,0,1,.169-1.873,4.811,4.811,0,0,1,1.014-1.667c1.059-1.24,2.332-2.288,3.339-3.571a5.959,5.959,0,0,0,1.474-4.515,20.51,20.51,0,0,0,16.789,4.342c5.336-1.047,10.459-5.73,9.835-11.616a4.764,4.764,0,0,0-3.76-4.1c-2.638-.656-5.008.75-7.4,1.652-4.358,1.644-8.621-1.179-13.024-1.652-3.765-.4-8.386.062-10.347,3.805,0,0-6.762.795-9.725,6.349s2.668,13.244,2.668,13.244,2.267-2.743,5.179,2.81Z" transform="translate(-238.983 -207.89)" fill="#263238"/>
          <path id="Trazado_1216124" data-name="Trazado 1216124" d="M316.84,225.883s-1.749,9.113,2.814,13.526c0,0,1-2.74,2.011-3.408a10.564,10.564,0,0,0-.8-10.118C317.529,220.579,316.84,225.883,316.84,225.883Z" transform="translate(-250.658 -211.845)" fill="#263238"/>
          <path id="Trazado_1216125" data-name="Trazado 1216125" d="M316.191,212.8a8.608,8.608,0,0,1-5.208,5.436c-6.335,2.58-12.488-.282-18.83-.842-5.184-.458-10.9,4.212-11.26,9.534" transform="translate(-241.648 -209.132)" fill="none" stroke="#fff" stroke-linecap="round" stroke-linejoin="round" stroke-miterlimit="10" stroke-width="1.103" opacity="0.2"/>
          <path id="Trazado_1216126" data-name="Trazado 1216126" d="M275.626,226.522a11.076,11.076,0,0,1,6.747-9.773" transform="translate(-240.316 -210.131)" fill="none" stroke="#fff" stroke-linecap="round" stroke-linejoin="round" stroke-miterlimit="10" stroke-width="1.103" opacity="0.2"/>
          <path id="Trazado_1216127" data-name="Trazado 1216127" d="M286.53,276.263a28.9,28.9,0,0,0,9.865,6.749s7.583-2.2,11.443-7.487" transform="translate(-243.074 -224.998)" fill="none" stroke="#263238" stroke-linecap="round" stroke-linejoin="round" stroke-miterlimit="10" stroke-width="1.103"/>
          <circle id="Elipse_13238" data-name="Elipse 13238" cx="6.711" cy="6.711" r="6.711" transform="matrix(0.909, -0.417, 0.417, 0.909, 39.515, 28.625)" fill="none" stroke="#263238" stroke-linecap="round" stroke-linejoin="round" stroke-miterlimit="10" stroke-width="1.103"/>
          <circle id="Elipse_13239" data-name="Elipse 13239" cx="6.711" cy="6.711" r="6.711" transform="translate(55.901 26.085) rotate(-7.002)" fill="none" stroke="#263238" stroke-linecap="round" stroke-linejoin="round" stroke-miterlimit="10" stroke-width="1.103"/>
          <path id="Trazado_1216128" data-name="Trazado 1216128" d="M287.16,273.162a5.261,5.261,0,0,0-3.228,2.5c-1.188,2.09-.471,8.673-.471,8.673s6.131,6.068,11.352,8.628l1.541-8.661,2.391,8.661s8.085-5.718,10.324-10.551c0,0,.73-5.636,0-7.487a2.581,2.581,0,0,0-2.413-1.765" transform="translate(-242.244 -224.399)" fill="none" stroke="#263238" stroke-linecap="round" stroke-linejoin="round" stroke-miterlimit="10" stroke-width="1.103"/>
          <path id="Trazado_1216129" data-name="Trazado 1216129" d="M273.736,343.043s-2.394-16.058-5.583-22.61" transform="translate(-238.426 -236.357)" fill="none" stroke="#263238" stroke-linecap="round" stroke-linejoin="round" stroke-miterlimit="10" stroke-width="1.103"/>
          <path id="Trazado_1216130" data-name="Trazado 1216130" d="M258.921,301.351a65.066,65.066,0,0,1,4.96,8.3" transform="translate(-236.091 -231.53)" fill="none" stroke="#263238" stroke-linecap="round" stroke-linejoin="round" stroke-miterlimit="10" stroke-width="1.103"/>
          <path id="Trazado_1216131" data-name="Trazado 1216131" d="M343.228,314.745a46.4,46.4,0,0,1,2.636-7.838" transform="translate(-257.415 -232.935)" fill="none" stroke="#263238" stroke-linecap="round" stroke-linejoin="round" stroke-miterlimit="10" stroke-width="1.103"/>
          <path id="Trazado_1216132" data-name="Trazado 1216132" d="M336.6,343.9s1.729-11.009,3.787-20.082" transform="translate(-255.738 -237.213)" fill="none" stroke="#263238" stroke-linecap="round" stroke-linejoin="round" stroke-miterlimit="10" stroke-width="1.103"/>
          <path id="Trazado_1216133" data-name="Trazado 1216133" d="M340.521,328.471a12.663,12.663,0,0,1,6.68-4.568" transform="translate(-256.731 -237.234)" fill="none" stroke="#263238" stroke-linecap="round" stroke-linejoin="round" stroke-miterlimit="10" stroke-width="1.103"/>
          <path id="Trazado_1216134" data-name="Trazado 1216134" d="M318.245,283.592s13.924,5.562,22.911,8.72c0,0,11.056,10.4,22.911,46.412,0,0-10.866,18.273-31.527,24.132" transform="translate(-251.096 -227.038)" fill="none" stroke="#263238" stroke-linecap="round" stroke-linejoin="round" stroke-miterlimit="10" stroke-width="1.103"/>
          <path id="Trazado_1216135" data-name="Trazado 1216135" d="M342.184,363.558l9.983-8.335s5.281-4.014,10.773-1.268" transform="translate(-257.151 -244.593)" fill="none" stroke="#263238" stroke-linecap="round" stroke-linejoin="round" stroke-miterlimit="10" stroke-width="1.103"/>
          <path id="Trazado_1216136" data-name="Trazado 1216136" d="M341.665,328.669s8.258,12.163,10.37,20.4" transform="translate(-257.02 -238.44)" fill="none" stroke="#263238" stroke-linecap="round" stroke-linejoin="round" stroke-miterlimit="10" stroke-width="1.103"/>
          <path id="Trazado_1216137" data-name="Trazado 1216137" d="M262.032,358.738l-2.922-2.786a13.7,13.7,0,0,0-9.247,2.534" transform="translate(-233.8 -245.322)" fill="none" stroke="#263238" stroke-linecap="round" stroke-linejoin="round" stroke-miterlimit="10" stroke-width="1.103"/>
          <path id="Trazado_1216138" data-name="Trazado 1216138" d="M262.241,349.859s3.629-11.919,7.208-18.072" transform="translate(-236.93 -239.229)" fill="none" stroke="#263238" stroke-linecap="round" stroke-linejoin="round" stroke-miterlimit="10" stroke-width="1.103"/>
          <path id="Trazado_1216139" data-name="Trazado 1216139" d="M272.541,285.547s-20.029,7.515-21.993,9.7-9.428,44.224-9.624,49.034c-.176,4.3,15.426,13.962,23.133,18.035" transform="translate(-231.538 -227.533)" fill="none" stroke="#263238" stroke-linecap="round" stroke-linejoin="round" stroke-miterlimit="10" stroke-width="1.103"/>
          <path id="Trazado_1216140" data-name="Trazado 1216140" d="M370.931,268.675H348.108a4.88,4.88,0,0,1-4.88-4.88v-13.39a4.88,4.88,0,0,1,4.88-4.88h22.823a4.88,4.88,0,0,1,4.88,4.88V263.8A4.881,4.881,0,0,1,370.931,268.675Z" transform="translate(-257.415 -217.41)" fill="#fff" stroke="#263238" stroke-linecap="round" stroke-linejoin="round" stroke-miterlimit="10" stroke-width="1.103"/>
          <path id="Trazado_1216141" data-name="Trazado 1216141" d="M355.179,254.846l-6.266,3.933,5.814,5.156" transform="translate(-258.853 -219.767)" fill="none" stroke="#263238" stroke-linecap="round" stroke-linejoin="round" stroke-miterlimit="10" stroke-width="1.103"/>
          <path id="Trazado_1216142" data-name="Trazado 1216142" d="M372.288,264.448l5.631-4.8-6.5-4.261" transform="translate(-264.546 -219.904)" fill="none" stroke="#263238" stroke-linecap="round" stroke-linejoin="round" stroke-miterlimit="10" stroke-width="1.103"/>
          <line id="Línea_1946" data-name="Línea 1946" y1="14.503" x2="4.625" transform="translate(99.371 32.993)" fill="none" stroke="#263238" stroke-linecap="round" stroke-linejoin="round" stroke-miterlimit="10" stroke-width="1.103"/>
          <path id="Trazado_1216143" data-name="Trazado 1216143" d="M302.4,304.11a1.317,1.317,0,1,1-1.317-1.317A1.317,1.317,0,0,1,302.4,304.11Z" transform="translate(-246.423 -231.895)" fill="#263238"/>
          <g id="Grupo_1227841" data-name="Grupo 1227841" transform="translate(27.564 106.686)">
            <path id="Trazado_1216144" data-name="Trazado 1216144" d="M318.524,398.053H272.94a1.069,1.069,0,0,1-1.068-1.068h0a1.069,1.069,0,0,1,1.068-1.068h45.584a1.069,1.069,0,0,1,1.068,1.068h0A1.069,1.069,0,0,1,318.524,398.053Z" transform="translate(-266.93 -362.135)" fill="#263238"/>
            <path id="Trazado_1216145" data-name="Trazado 1216145" d="M318.447,383.073l6.109-28.686a3.053,3.053,0,0,0-2.986-3.688H268.311a3.053,3.053,0,0,0-2.995,3.644l5.477,27.732a3.051,3.051,0,0,0,2.925,2.46l41.673.955A3.053,3.053,0,0,0,318.447,383.073Z" transform="translate(-265.257 -350.698)" fill="#fff" stroke="#263238" stroke-linecap="round" stroke-linejoin="round" stroke-miterlimit="10" stroke-width="1.103"/>
            <path id="Trazado_1216146" data-name="Trazado 1216146" d="M307.56,371.386a4.252,4.252,0,1,1-4.252-4.252A4.252,4.252,0,0,1,307.56,371.386Z" transform="translate(-273.806 -354.855)" fill="#263238"/>
            <line id="Línea_1947" data-name="Línea 1947" x2="6.328" transform="translate(42.11 2.722)" fill="none" stroke="#263238" stroke-linecap="round" stroke-linejoin="round" stroke-miterlimit="10" stroke-width="1.103"/>
            <line id="Línea_1948" data-name="Línea 1948" x2="24.019" transform="translate(11.892 2.722)" fill="none" stroke="#263238" stroke-linecap="round" stroke-linejoin="round" stroke-miterlimit="10" stroke-width="1.103"/>
          </g>
          <path id="Trazado_1216147" data-name="Trazado 1216147" d="M310.363,421.732l-4.857,12.743s-12.38-3.12-28.244-6.372c-16.588-3.4-33.913-7.8-42.9-23.566a8.933,8.933,0,0,1-1.312-6.346c1.3-5.446,8.381-6.924,13.051-7.469a86.663,86.663,0,0,1,8.838-.5c1.5-.021,6.464-.809,7.663.074a35.113,35.113,0,0,0,5.764,3.416c2.652,1.126,41.363-1.012,41.363-1.012a13.805,13.805,0,0,0,1.217-4.647c6.085-3.093,20.176-5.713,26.13-4.555,9.363,1.821,14.824,7.282,13.784,13S329.16,417.571,310.363,421.732Z" transform="translate(-229.505 -252.239)" fill="#263238"/>
          <path id="Trazado_1216148" data-name="Trazado 1216148" d="M319.009,427.216s-11.775-3.12-21.4-9.623-17.141-14.044-30.546-12.483" transform="translate(-238.151 -257.722)" fill="none" stroke="#fff" stroke-linecap="round" stroke-linejoin="round" stroke-miterlimit="10" stroke-width="1.103"/>
          <path id="Trazado_1216149" data-name="Trazado 1216149" d="M304.99,412.964c6.078-1.749,10.539-5.68,15.416-9.456a104.338,104.338,0,0,1,16.5-10.845" transform="translate(-247.743 -254.627)" fill="none" stroke="#fff" stroke-linecap="round" stroke-linejoin="round" stroke-miterlimit="10" stroke-width="1.103"/>
          <line id="Línea_1949" data-name="Línea 1949" x2="1.783" transform="translate(55.11 32.993)" fill="none" stroke="#263238" stroke-linecap="round" stroke-linejoin="round" stroke-miterlimit="10" stroke-width="1.103"/>
        </g>
      </g>
    </g>
  </g>
</svg>
