<svg xmlns="http://www.w3.org/2000/svg" xmlns:xlink="http://www.w3.org/1999/xlink" width="113" height="113" viewBox="0 0 113 113">
  <defs>
    <filter id="Trazado_982547" x="0" y="0" width="113" height="113" filterUnits="userSpaceOnUse">
      <feOffset dy="3" input="SourceAlpha"/>
      <feGaussianBlur stdDeviation="3" result="blur"/>
      <feFlood flood-opacity="0.161"/>
      <feComposite operator="in" in2="blur"/>
      <feComposite in="SourceGraphic"/>
    </filter>
  </defs>
  <g id="Grupo_1227964" data-name="Grupo 1227964" transform="translate(-1112.869 -788.328)">
    <g id="Grupo_1223796" data-name="Grupo 1223796" transform="translate(0.869 -700.672)">
      <g id="Grupo_1208038" data-name="Grupo 1208038" transform="translate(0 -4138.425)">
        <g id="Grupo_1202104" data-name="Grupo 1202104" transform="translate(0 -1149.226)">
          <g id="Grupo_1201923" data-name="Grupo 1201923" transform="translate(-4174.49 4856.378)">
            <g id="Grupo_1176928" data-name="Grupo 1176928" transform="translate(5295.49 1926.273)">
              <g id="Grupo_1172322" data-name="Grupo 1172322" transform="translate(0 0)">
                <g id="Grupo_1164700" data-name="Grupo 1164700">
                  <g id="Grupo_1160931" data-name="Grupo 1160931">
                    <g id="Grupo_1160749" data-name="Grupo 1160749">
                      <g id="Grupo_1158891" data-name="Grupo 1158891">
                        <g id="Grupo_1157406" data-name="Grupo 1157406">
                          <g id="Grupo_1155793" data-name="Grupo 1155793">
                            <g id="Grupo_1154704" data-name="Grupo 1154704">
                              <g id="Grupo_1150790" data-name="Grupo 1150790">
                                <g id="Grupo_1154214" data-name="Grupo 1154214">
                                  <g id="Grupo_1152583" data-name="Grupo 1152583">
                                    <g id="Grupo_1146973" data-name="Grupo 1146973">
                                      <g id="Grupo_1146954" data-name="Grupo 1146954">
                                        <g transform="matrix(1, 0, 0, 1, -9, -6)" filter="url(#Trazado_982547)">
                                          <g id="Trazado_982547-2" data-name="Trazado 982547" transform="translate(9 6)" fill="#eddbfd">
                                            <path d="M 47.5000114440918 93.49987030029297 C 41.28938293457031 93.49987030029297 35.26534652709961 92.28384399414062 29.5951976776123 89.88558959960938 C 24.11773109436035 87.56881713867188 19.19814491271973 84.25183868408203 14.97310447692871 80.02680206298828 C 10.74805164337158 75.80176544189453 7.43107795715332 70.88218688964844 5.114304542541504 65.40472412109375 C 2.716038227081299 59.73458862304688 1.500011444091797 53.71054840087891 1.500011444091797 47.49993515014648 C 1.500011444091797 41.28932189941406 2.716038227081299 35.26528167724609 5.114304542541504 29.59514808654785 C 7.43107795715332 24.1176815032959 10.74805164337158 19.1981086730957 14.97310447692871 14.97306823730469 C 19.19814491271973 10.74802875518799 24.11773109436035 7.431055068969727 29.5951976776123 5.11428165435791 C 35.26534652709961 2.716028451919556 41.28938293457031 1.500001788139343 47.5000114440918 1.500001788139343 C 53.71063995361328 1.500001788139343 59.73467636108398 2.716028451919556 65.40482330322266 5.11428165435791 C 70.88229370117188 7.431055068969727 75.8018798828125 10.74802875518799 80.02691650390625 14.97306823730469 C 84.25196838378906 19.1981086730957 87.56894683837891 24.1176815032959 89.88571929931641 29.59514808654785 C 92.28398132324219 35.26528167724609 93.50001525878906 41.28932189941406 93.50001525878906 47.49993515014648 C 93.50001525878906 53.71054840087891 92.28398132324219 59.73458862304688 89.88571929931641 65.40472412109375 C 87.56894683837891 70.88218688964844 84.25196838378906 75.80176544189453 80.02691650390625 80.02680206298828 C 75.8018798828125 84.25183868408203 70.88229370117188 87.56881713867188 65.40482330322266 89.88558959960938 C 59.73467636108398 92.28384399414062 53.71063995361328 93.49987030029297 47.5000114440918 93.49987030029297 Z" stroke="none"/>
                                            <path d="M 47.5000114440918 3 C 41.49122619628906 3 35.66378021240234 4.1761474609375 30.17951965332031 6.495796203613281 C 24.880859375 8.7369384765625 20.12153625488281 11.94596862792969 16.03376770019531 16.03373718261719 C 11.94598388671875 20.12149047851562 8.736968994140625 24.88081359863281 6.495811462402344 30.17947387695312 C 4.176162719726562 35.66371917724609 3.000007629394531 41.49116516113281 3.000007629394531 47.49993515014648 C 3.000007629394531 53.50870513916016 4.176162719726562 59.33615112304688 6.495811462402344 64.82039642333984 C 8.736968994140625 70.11905670166016 11.94598388671875 74.87837982177734 16.03376770019531 78.96613311767578 C 20.12153625488281 83.05390167236328 24.880859375 86.26293182373047 30.17951965332031 88.50407409667969 C 35.66378021240234 90.82372283935547 41.49122619628906 91.99987030029297 47.5000114440918 91.99987030029297 C 53.50879669189453 91.99987030029297 59.33624267578125 90.82372283935547 64.82050323486328 88.50407409667969 C 70.11916351318359 86.26293182373047 74.87848663330078 83.05390167236328 78.96625518798828 78.96613311767578 C 83.05403900146484 74.87837982177734 86.2630615234375 70.11905670166016 88.50421142578125 64.82039642333984 C 90.82386016845703 59.33615112304688 92.00001525878906 53.50870513916016 92.00001525878906 47.49993515014648 C 92.00001525878906 41.49116516113281 90.82386016845703 35.66371917724609 88.50421142578125 30.17947387695312 C 86.2630615234375 24.88081359863281 83.05403900146484 20.12149047851562 78.96625518798828 16.03373718261719 C 74.87848663330078 11.94596862792969 70.11916351318359 8.7369384765625 64.82050323486328 6.495796203613281 C 59.33624267578125 4.1761474609375 53.50879669189453 3 47.5000114440918 3 M 47.5000114440918 0 C 73.73353576660156 0 95.00001525878906 21.26644134521484 95.00001525878906 47.49993515014648 C 95.00001525878906 73.73342895507812 73.73353576660156 94.99987030029297 47.5000114440918 94.99987030029297 C 21.26648712158203 94.99987030029297 7.62939453125e-06 73.73342895507812 7.62939453125e-06 47.49993515014648 C 7.62939453125e-06 21.26644134521484 21.26648712158203 0 47.5000114440918 0 Z" stroke="none" fill="#aa52f9"/>
                                          </g>
                                        </g>
                                      </g>
                                    </g>
                                  </g>
                                </g>
                              </g>
                            </g>
                          </g>
                        </g>
                      </g>
                    </g>
                  </g>
                </g>
              </g>
            </g>
          </g>
        </g>
      </g>
    </g>
    <g id="logro_2_" data-name="logro (2)" transform="translate(1142.051 810.474)">
      <g id="Grupo_1227955" data-name="Grupo 1227955" transform="translate(0.996 2.041)">
        <path id="Trazado_1216406" data-name="Trazado 1216406" d="M4.5,9.244V58.8a4.121,4.121,0,0,0,4.107,4.11H46.117a4.121,4.121,0,0,0,4.107-4.11V9.244a4.121,4.121,0,0,0-4.107-4.11H8.607A4.121,4.121,0,0,0,4.5,9.244Z" transform="translate(-4.5 -5.134)" fill="#eaf6ff" fill-rule="evenodd"/>
      </g>
      <g id="Grupo_1227956" data-name="Grupo 1227956" transform="translate(5.731 43.029)">
        <path id="Trazado_1216407" data-name="Trazado 1216407" d="M42.705,335.816H53.126v10.418H42.705Z" transform="translate(-42.705 -335.816)" fill="#ffd301" fill-rule="evenodd"/>
      </g>
      <g id="Grupo_1227957" data-name="Grupo 1227957" transform="translate(5.731 26.915)">
        <path id="Trazado_1216408" data-name="Trazado 1216408" d="M42.705,205.815H53.126v10.418H42.705Z" transform="translate(-42.705 -205.815)" fill="#ffd301" fill-rule="evenodd"/>
      </g>
      <g id="Grupo_1227958" data-name="Grupo 1227958" transform="translate(5.731 10.801)">
        <path id="Trazado_1216409" data-name="Trazado 1216409" d="M42.705,75.814H53.126V86.235H42.705Z" transform="translate(-42.705 -75.814)" fill="#ffd301" fill-rule="evenodd"/>
      </g>
      <g id="Grupo_1227959" data-name="Grupo 1227959" transform="translate(26.521 38.566)">
        <path id="Trazado_1216410" data-name="Trazado 1216410" d="M223.266,325.48a12.832,12.832,0,1,0-12.832-12.832A12.856,12.856,0,0,0,223.266,325.48Z" transform="translate(-210.434 -299.816)" fill="#fd646f" fill-rule="evenodd"/>
      </g>
      <g id="Grupo_1227960" data-name="Grupo 1227960" transform="translate(31.008 42.806)">
        <path id="Trazado_1216411" data-name="Trazado 1216411" d="M254.98,350.707a8.345,8.345,0,1,0-8.345-8.345A8.359,8.359,0,0,0,254.98,350.707Z" transform="translate(-246.635 -334.017)" fill="#f5f5f5" fill-rule="evenodd"/>
      </g>
      <g id="Grupo_1227961" data-name="Grupo 1227961" transform="translate(35.542 47.339)">
        <path id="Trazado_1216412" data-name="Trazado 1216412" d="M287.02,378.215a3.811,3.811,0,1,0-3.811-3.811A3.818,3.818,0,0,0,287.02,378.215Z" transform="translate(-283.209 -370.592)" fill="#fd646f" fill-rule="evenodd"/>
      </g>
      <g id="Grupo_1227962" data-name="Grupo 1227962" transform="translate(29.566 47.679)">
        <path id="Trazado_1216413" data-name="Trazado 1216413" d="M257,376.124a13.115,13.115,0,0,1-22,9.65,12.836,12.836,0,0,0,21.7-12.437A13.084,13.084,0,0,1,257,376.124Z" transform="translate(-235.002 -373.336)" fill="#eb4954" fill-rule="evenodd"/>
      </g>
      <g id="Grupo_1227963" data-name="Grupo 1227963" transform="translate(53.815 36.998)">
        <path id="Trazado_1216414" data-name="Trazado 1216414" d="M430.633,293V289.4l3.861-2.229v3.605l3.125,1.806-3.861,2.229Z" transform="translate(-430.633 -287.166)" fill="#fac149" fill-rule="evenodd"/>
      </g>
      <path id="Trazado_1216415" data-name="Trazado 1216415" d="M5.051,42.892a.866.866,0,0,1,.866-.866H13.1a.866.866,0,0,1,0,1.732H6.784V52.3h8.542V46.939a.866.866,0,1,1,1.732,0v6.228a.866.866,0,0,1-.866.866H5.917a.866.866,0,0,1-.866-.866ZM18.7,39.853a.866.866,0,0,0-1.217.135l-6.6,8.241L9.113,45.4a.866.866,0,0,0-1.469.918l2.416,3.864a.867.867,0,0,0,.684.406h.05a.866.866,0,0,0,.676-.325l7.36-9.194a.866.866,0,0,0-.135-1.217ZM5.051,37.275a.866.866,0,0,0,.866.866H16.192a.866.866,0,0,0,.866-.866V31.047a.866.866,0,1,0-1.732,0v5.361H6.784V27.867H13.1a.866.866,0,0,0,0-1.732H5.917A.866.866,0,0,0,5.051,27ZM18.7,23.965a.866.866,0,0,0-1.217.135l-6.6,8.238L9.114,29.508a.866.866,0,0,0-1.469.918l2.416,3.864a.866.866,0,0,0,.684.405l.05,0a.866.866,0,0,0,.676-.325l7.36-9.19a.866.866,0,0,0-.135-1.218ZM26.669,58.58H5.42a3.191,3.191,0,0,1-3.187-3.187V6.523A3.191,3.191,0,0,1,5.42,3.335H42.41A3.191,3.191,0,0,1,45.6,6.523V37.808a.866.866,0,1,0,1.732,0V6.523A4.925,4.925,0,0,0,42.41,1.6H5.42A4.925,4.925,0,0,0,.5,6.523v48.87a4.925,4.925,0,0,0,4.92,4.92H26.669a.866.866,0,0,0,0-1.732ZM13.1,11.975a.866.866,0,0,0,0-1.732H5.917a.866.866,0,0,0-.866.866V21.387a.866.866,0,0,0,.866.866H16.192a.866.866,0,0,0,.866-.866V15.156a.866.866,0,1,0-1.732,0v5.365H6.784V11.975Zm5.6-3.9a.866.866,0,0,0-1.217.135l-6.6,8.238L9.113,13.62a.866.866,0,1,0-1.468.919L10.061,18.4a.866.866,0,0,0,.684.405h.05a.866.866,0,0,0,.676-.325l7.36-9.19A.866.866,0,0,0,18.7,8.073Zm21.153,2.17H22.335a.866.866,0,0,0,0,1.732H39.85a.866.866,0,0,0,0-1.732Zm0,4.635H22.335a.866.866,0,0,0,0,1.732H39.85a.866.866,0,0,0,0-1.732Zm0,11.256H22.335a.866.866,0,0,0,0,1.732H39.85a.866.866,0,0,0,0-1.732Zm.866,5.5a.866.866,0,0,0-.866-.866H22.335a.866.866,0,0,0,0,1.732H39.85A.866.866,0,0,0,40.716,31.636ZM27.507,42.892a.866.866,0,0,0-.866-.866H22.335a.866.866,0,0,0,0,1.732h4.306A.866.866,0,0,0,27.507,42.892Zm-5.172,3.77a.866.866,0,0,0,0,1.732h2.293a.866.866,0,0,0,0-1.732ZM63.4,38.242,59.49,40.5l1.784,1.031a.866.866,0,0,1,0,1.5l-3.808,2.2a.865.865,0,0,1-.866,0L53.95,43.7,51.437,45.15a13.559,13.559,0,1,1-.868-1.5L53.084,42.2V39.144a.866.866,0,0,1,.433-.75l3.808-2.2a.866.866,0,0,1,1.3.75V39l3.915-2.259a.866.866,0,0,1,.866,1.5ZM49.934,46.018,47.592,47.37a9.126,9.126,0,1,1-.869-1.5l2.342-1.352a11.727,11.727,0,1,0,.869,1.5Zm-11.51,4.645,2.851-1.646a2.892,2.892,0,1,0,.868,1.5l-2.853,1.647a.866.866,0,1,1-.866-1.5Zm4.394-2.537,2.4-1.385a7.345,7.345,0,1,0,.868,1.5l-2.4,1.385a4.64,4.64,0,1,1-.869-1.5Zm16.29-5.844-1.776-1.026,0,0,0,0-.021-.014a.864.864,0,0,1-.072-.048l-.027-.024c-.02-.016-.04-.033-.058-.051s-.022-.025-.034-.038-.028-.03-.041-.047a.882.882,0,0,1-.063-.094h0a.88.88,0,0,1-.046-.093l-.01-.025c-.01-.025-.019-.05-.026-.076l-.007-.025a.862.862,0,0,1-.019-.1v-.006a.852.852,0,0,1-.007-.106s0,0,0-.007V38.445l-2.076,1.2V42.2l2.216,1.281Z"/>
    </g>
  </g>
</svg>
