<svg xmlns="http://www.w3.org/2000/svg" xmlns:xlink="http://www.w3.org/1999/xlink" width="108" height="108" viewBox="0 0 108 108">
  <defs>
    <filter id="Trazado_904820" x="0" y="0" width="108" height="108" filterUnits="userSpaceOnUse">
      <feOffset dy="3" input="SourceAlpha"/>
      <feGaussianBlur stdDeviation="3" result="blur"/>
      <feFlood flood-opacity="0.161"/>
      <feComposite operator="in" in2="blur"/>
      <feComposite in="SourceGraphic"/>
    </filter>
  </defs>
  <g id="Grupo_1228086" data-name="Grupo 1228086" transform="translate(-616.975 -2578.132)">
    <g id="Grupo_1227565" data-name="Grupo 1227565" transform="translate(625.975 2584.132)">
      <g id="Grupo_1180427" data-name="Grupo 1180427" transform="translate(0 0)">
        <g id="Grupo_1179140" data-name="Grupo 1179140" transform="translate(0)">
          <g id="Grupo_1173585" data-name="Grupo 1173585">
            <g id="Grupo_1173428" data-name="Grupo 1173428">
              <g id="Grupo_1171958" data-name="Grupo 1171958">
                <g id="Grupo_1167341" data-name="Grupo 1167341">
                  <g id="Grupo_1166792" data-name="Grupo 1166792">
                    <g transform="matrix(1, 0, 0, 1, -9, -6)" filter="url(#Trazado_904820)">
                      <g id="Trazado_904820-2" data-name="Trazado 904820" transform="translate(9 6)" fill="#fef9e5">
                        <path d="M 44.99999618530273 88.49999237060547 C 39.12687301635742 88.49999237060547 33.43022155761719 87.35006713867188 28.06829643249512 85.08216857910156 C 22.88852119445801 82.89130401611328 18.23629570007324 79.75457763671875 14.24084663391113 75.75914001464844 C 10.24540901184082 71.76369476318359 7.108683586120605 67.11146545410156 4.917821407318115 61.93169403076172 C 2.649921178817749 56.56976699829102 1.499996185302734 50.87311553955078 1.499996185302734 44.99999237060547 C 1.499996185302734 39.12686920166016 2.649921178817749 33.43021774291992 4.917821407318115 28.06829261779785 C 7.108683586120605 22.88851737976074 10.24540901184082 18.23630523681641 14.24084663391113 14.24085521697998 C 18.23629570007324 10.24540519714355 22.88852119445801 7.108692169189453 28.06829643249512 4.917829990386963 C 33.43022155761719 2.649929761886597 39.12687301635742 1.500004887580872 44.99999618530273 1.500004887580872 C 50.87311935424805 1.500004887580872 56.56977081298828 2.649929761886597 61.93169784545898 4.917829990386963 C 67.11147308349609 7.108692169189453 71.76369476318359 10.24540519714355 75.75914764404297 14.24085521697998 C 79.75458526611328 18.23630523681641 82.89131164550781 22.88851737976074 85.08216857910156 28.06829261779785 C 87.35007476806641 33.43021774291992 88.5 39.12686920166016 88.5 44.99999237060547 C 88.5 50.87311553955078 87.35007476806641 56.56976699829102 85.08216857910156 61.93169403076172 C 82.89131164550781 67.11146545410156 79.75458526611328 71.76369476318359 75.75914764404297 75.75914001464844 C 71.76369476318359 79.75457763671875 67.11147308349609 82.89130401611328 61.93169784545898 85.08216857910156 C 56.56977081298828 87.35006713867188 50.87311935424805 88.49999237060547 44.99999618530273 88.49999237060547 Z" stroke="none"/>
                        <path d="M 44.99999618530273 2.999992370605469 C 39.32870864868164 2.999992370605469 33.82865142822266 4.11004638671875 28.65262603759766 6.299331665039062 C 23.65165710449219 8.414566040039062 19.15968322753906 11.44333648681641 15.301513671875 15.30150604248047 C 11.44333648681641 19.15967559814453 8.414566040039062 23.65164947509766 6.299339294433594 28.65262222290039 C 4.110054016113281 33.82864761352539 2.999992370605469 39.32870483398438 2.999992370605469 44.99999237060547 C 2.999992370605469 50.67127990722656 4.110054016113281 56.17132186889648 6.299339294433594 61.34736633300781 C 8.414566040039062 66.34833526611328 11.44333648681641 70.84029388427734 15.301513671875 74.69846343994141 C 19.15968322753906 78.55663299560547 23.65165710449219 81.58540344238281 28.65262603759766 83.70063781738281 C 33.82865142822266 85.88992309570312 39.32870864868164 86.99997711181641 44.99999618530273 86.99997711181641 C 50.67128372192383 86.99997711181641 56.17134094238281 85.88992309570312 61.34736633300781 83.70063781738281 C 66.34834289550781 81.58540344238281 70.84030914306641 78.55663299560547 74.69847869873047 74.69846343994141 C 78.55665588378906 70.84029388427734 81.58542633056641 66.34833526611328 83.70065307617188 61.34736633300781 C 85.88993835449219 56.17132186889648 87 50.67127990722656 87 44.99999237060547 C 87 39.32870483398438 85.88993835449219 33.82864761352539 83.70065307617188 28.65262222290039 C 81.58542633056641 23.65164947509766 78.55665588378906 19.15967559814453 74.69847869873047 15.30150604248047 C 70.84030914306641 11.44333648681641 66.34834289550781 8.414566040039062 61.34736633300781 6.299331665039062 C 56.17134094238281 4.11004638671875 50.67128372192383 2.999992370605469 44.99999618530273 2.999992370605469 M 44.99999618530273 -7.62939453125e-06 C 69.85281372070312 -7.62939453125e-06 90 20.14717864990234 90 44.99999237060547 C 90 69.85279083251953 69.85281372070312 89.99997711181641 44.99999618530273 89.99997711181641 C 20.14717864990234 89.99997711181641 -7.62939453125e-06 69.85279083251953 -7.62939453125e-06 44.99999237060547 C -7.62939453125e-06 20.14717864990234 20.14717864990234 -7.62939453125e-06 44.99999618530273 -7.62939453125e-06 Z" stroke="none" fill="#866d08"/>
                      </g>
                    </g>
                  </g>
                </g>
              </g>
            </g>
          </g>
        </g>
      </g>
    </g>
    <g id="database" transform="translate(639 2597)">
      <path id="Trazado_1216947" data-name="Trazado 1216947" d="M39,28V38c0,2.76-8.06,5-18,5S3,40.76,3,38V28c0,2.76,8.06,5,18,5S39,30.76,39,28Z" fill="#c0ab91"/>
      <path id="Trazado_1216948" data-name="Trazado 1216948" d="M61,30v6l-4.56.76a13.086,13.086,0,0,1-.98,2.38l2.68,3.76L53.9,47.14l-3.19-2.27A2.014,2.014,0,0,0,52,43V35a1.97,1.97,0,0,0-.11-.65A8.579,8.579,0,0,0,52,33a8,8,0,0,0-13-6.24V21a13.009,13.009,0,0,1,1.24-.44L41,16h6l.76,4.56a13.086,13.086,0,0,1,2.38.98l3.76-2.68,4.24,4.24-2.68,3.76a13.086,13.086,0,0,1,.98,2.38Z" fill="#ffeb99"/>
      <rect id="Rect치ngulo_422367" data-name="Rect치ngulo 422367" width="40" height="12" rx="2" transform="translate(12 49)" fill="#57a4ff"/>
      <path id="Trazado_1216949" data-name="Trazado 1216949" d="M52,51v8a2.006,2.006,0,0,1-2,2H46a2.006,2.006,0,0,0,2-2V51a2.006,2.006,0,0,0-2-2h4A2.006,2.006,0,0,1,52,51Z" fill="#2488ff"/>
      <path id="Trazado_1216950" data-name="Trazado 1216950" d="M52,33a8.58,8.58,0,0,1-.11,1.35A2.013,2.013,0,0,0,50,33H39V26.76A8,8,0,0,1,52,33Z" fill="#c6c5ca"/>
      <path id="Trazado_1216951" data-name="Trazado 1216951" d="M52,33a8.58,8.58,0,0,1-.11,1.35A2.013,2.013,0,0,0,50,33H48a8.017,8.017,0,0,0-5.98-7.75A8,8,0,0,1,52,33Z" fill="#acabb1"/>
      <path id="Trazado_1216952" data-name="Trazado 1216952" d="M42,45h6v4H42Z" fill="#c6c5ca"/>
      <path id="Trazado_1216953" data-name="Trazado 1216953" d="M39,18V28c0,2.76-8.06,5-18,5S3,30.76,3,28V18c0,2.76,8.06,5,18,5S39,20.76,39,18Z" fill="#c0ab91"/>
      <path id="Trazado_1216954" data-name="Trazado 1216954" d="M39,8V18c0,2.76-8.06,5-18,5S3,20.76,3,18V8c0,2.76,8.06,5,18,5S39,10.76,39,8Z" fill="#c0ab91"/>
      <ellipse id="Elipse_13276" data-name="Elipse 13276" cx="18" cy="5" rx="18" ry="5" transform="translate(3 3)" fill="#ffcd00"/>
      <g id="Grupo_1228085" data-name="Grupo 1228085">
        <path id="Trazado_1216955" data-name="Trazado 1216955" d="M39,28V38c0,2.76-8.06,5-18,5-.68,0-1.34-.01-2-.04,9-.27,16-2.39,16-4.96V31.14C37.5,30.28,39,29.19,39,28Z" fill="#b39a7c"/>
        <path id="Trazado_1216956" data-name="Trazado 1216956" d="M39,18V28c0,1.19-1.5,2.28-4,3.14v-10C37.5,20.28,39,19.19,39,18Z" fill="#b39a7c"/>
        <path id="Trazado_1216957" data-name="Trazado 1216957" d="M39,8V18c0,1.19-1.5,2.28-4,3.14v-10c2.5-.86,4-1.95,4-3.14Z" fill="#b39a7c"/>
      </g>
      <path id="Trazado_1216958" data-name="Trazado 1216958" d="M39,8c0,2.76-8.06,5-18,5-.68,0-1.34-.01-2-.04,9-.27,16-2.39,16-4.96S28,3.31,19,3.04c.66-.03,1.32-.04,2-.04C30.94,3,39,5.24,39,8Z" fill="#ebbf00"/>
      <path id="Trazado_1216959" data-name="Trazado 1216959" d="M24,53h4v4H24Z" fill="#ffeb99"/>
      <rect id="Rect치ngulo_422368" data-name="Rect치ngulo 422368" width="40" height="12" rx="2" transform="translate(12 33)" fill="#57a4ff"/>
      <path id="Trazado_1216960" data-name="Trazado 1216960" d="M52,35v8a2.006,2.006,0,0,1-2,2H46a2.006,2.006,0,0,0,2-2V35a2.006,2.006,0,0,0-2-2h4A2.006,2.006,0,0,1,52,35Z" fill="#2488ff"/>
      <path id="Trazado_1216961" data-name="Trazado 1216961" d="M24,37h4v4H24Z" fill="#ffeb99"/>
      <path id="Trazado_1216962" data-name="Trazado 1216962" d="M16,45h6v4H16Z" fill="#c6c5ca"/>
      <path id="Trazado_1216963" data-name="Trazado 1216963" d="M16,53h4v4H16Z" fill="#ffeb99"/>
      <path id="Trazado_1216964" data-name="Trazado 1216964" d="M16,37h4v4H16Z" fill="#ffeb99"/>
      <path id="Trazado_1216965" data-name="Trazado 1216965" d="M20,36H16a1,1,0,0,0-1,1v4a1,1,0,0,0,1,1h4a1,1,0,0,0,1-1V37A1,1,0,0,0,20,36Zm-1,4H17V38h2Z"/>
      <path id="Trazado_1216966" data-name="Trazado 1216966" d="M28,36H24a1,1,0,0,0-1,1v4a1,1,0,0,0,1,1h4a1,1,0,0,0,1-1V37A1,1,0,0,0,28,36Zm-1,4H25V38h2Z"/>
      <path id="Trazado_1216967" data-name="Trazado 1216967" d="M31,36H45v2H31Z"/>
      <path id="Trazado_1216968" data-name="Trazado 1216968" d="M47,36h2v2H47Z"/>
      <path id="Trazado_1216969" data-name="Trazado 1216969" d="M31,40H45v2H31Z"/>
      <path id="Trazado_1216970" data-name="Trazado 1216970" d="M47,40h2v2H47Z"/>
      <path id="Trazado_1216971" data-name="Trazado 1216971" d="M16,58h4a1,1,0,0,0,1-1V53a1,1,0,0,0-1-1H16a1,1,0,0,0-1,1v4A1,1,0,0,0,16,58Zm1-4h2v2H17Z"/>
      <path id="Trazado_1216972" data-name="Trazado 1216972" d="M24,58h4a1,1,0,0,0,1-1V53a1,1,0,0,0-1-1H24a1,1,0,0,0-1,1v4A1,1,0,0,0,24,58Zm1-4h2v2H25Z"/>
      <path id="Trazado_1216973" data-name="Trazado 1216973" d="M31,52H45v2H31Z"/>
      <path id="Trazado_1216974" data-name="Trazado 1216974" d="M47,52h2v2H47Z"/>
      <path id="Trazado_1216975" data-name="Trazado 1216975" d="M31,56H45v2H31Z"/>
      <path id="Trazado_1216976" data-name="Trazado 1216976" d="M47,56h2v2H47Z"/>
      <path id="Trazado_1216977" data-name="Trazado 1216977" d="M61.16,29.01l-3.96-.66a11.452,11.452,0,0,0-.58-1.4l2.33-3.27a1,1,0,0,0-.1-1.29l-4.24-4.24a1,1,0,0,0-1.29-.1l-3.27,2.33a14.227,14.227,0,0,0-1.4-.58l-.66-3.96A1,1,0,0,0,47,15H41a1,1,0,0,0-.99.84l-.01.08V8c0-3.94-9.56-6-19-6S2,4.06,2,8V38c0,3.03,5.32,4.51,9.02,5.18A2.991,2.991,0,0,0,14,46h1v2H14a3.009,3.009,0,0,0-3,3v8a3.009,3.009,0,0,0,3,3H50a3.009,3.009,0,0,0,3-3V51a3.009,3.009,0,0,0-3-3H49V46h1a2.734,2.734,0,0,0,.5-.05l2.82,2.01a1.042,1.042,0,0,0,.58.18,1.024,1.024,0,0,0,.71-.29l4.24-4.24a1,1,0,0,0,.1-1.29l-2.33-3.27a11.451,11.451,0,0,0,.58-1.4l3.96-.66A1,1,0,0,0,62,36V30a1,1,0,0,0-.84-.99ZM40,27.29a6.959,6.959,0,0,1,10.95,4.88A3.012,3.012,0,0,0,50,32H40ZM21,4C32,4,38,6.64,38,8s-6,4-17,4S4,9.36,4,8,10,4,21,4ZM4,10.82C7.29,12.91,14.16,14,21,14s13.71-1.09,17-3.18V18c0,1.36-6,4-17,4S4,19.36,4,18ZM11,35v6.14C5.93,40.18,4,38.73,4,38V30.82a21.482,21.482,0,0,0,7.56,2.44A2.985,2.985,0,0,0,11,35ZM4,28V20.82C7.29,22.91,14.16,24,21,24s13.71-1.09,17-3.18V28c0,1.36-6,4-17,4S4,29.36,4,28Zm34,2.82V32H35.52A12.469,12.469,0,0,0,38,30.82ZM50,50a1,1,0,0,1,1,1v8a1,1,0,0,1-1,1H14a1,1,0,0,1-1-1V51a1,1,0,0,1,1-1ZM17,48V46h4v2Zm6,0V46H41v2Zm20,0V46h4v2Zm8-5a1,1,0,0,1-1,1H14a1,1,0,0,1-1-1V35a1,1,0,0,1,1-1H50a1,1,0,0,1,1,1Zm9-7.85-3.72.62a1.025,1.025,0,0,0-.8.7,11.81,11.81,0,0,1-.9,2.2.976.976,0,0,0,.07,1.05l2.18,3.07-3.04,3.04-1.42-1.01A2.972,2.972,0,0,0,53,43V35a2.844,2.844,0,0,0-.1-.72A9.318,9.318,0,0,0,53,33a8.98,8.98,0,0,0-13-8.05V21.71a4.928,4.928,0,0,1,.54-.19,1.028,1.028,0,0,0,.69-.8L41.85,17h4.3l.62,3.72a1.025,1.025,0,0,0,.7.8,12.1,12.1,0,0,1,2.2.9,1,1,0,0,0,1.05-.07l3.07-2.18,3.04,3.04-2.18,3.07a.976.976,0,0,0-.07,1.05,11.81,11.81,0,0,1,.9,2.2,1.025,1.025,0,0,0,.8.7l3.72.62Z"/>
      <path id="Trazado_1216978" data-name="Trazado 1216978" d="M6,48H4v8a1,1,0,0,0,1,1H9V55H6Z"/>
      <path id="Trazado_1216979" data-name="Trazado 1216979" d="M61,4H45V6H60v9.586l-2.707,2.707,1.414,1.414,3-3A1,1,0,0,0,62,16V5A1,1,0,0,0,61,4Z"/>
      <path id="Trazado_1216980" data-name="Trazado 1216980" d="M41,4h2V6H41Z"/>
      <path id="Trazado_1216981" data-name="Trazado 1216981" d="M4,44H6v2H4Z"/>
    </g>
  </g>
</svg>
