<svg xmlns="http://www.w3.org/2000/svg" xmlns:xlink="http://www.w3.org/1999/xlink" width="118" height="118" viewBox="0 0 118 118">
  <defs>
    <filter id="Trazado_982547" x="0" y="0" width="118" height="118" filterUnits="userSpaceOnUse">
      <feOffset dy="3" input="SourceAlpha"/>
      <feGaussianBlur stdDeviation="3" result="blur"/>
      <feFlood flood-opacity="0.161"/>
      <feComposite operator="in" in2="blur"/>
      <feComposite in="SourceGraphic"/>
    </filter>
  </defs>
  <g id="Grupo_1227828" data-name="Grupo 1227828" transform="translate(-1160.888 -1179.669)">
    <g id="Grupo_1227364" data-name="Grupo 1227364" transform="translate(0 237.622)">
      <g id="Grupo_1208612" data-name="Grupo 1208612" transform="translate(1169.888 948.048)">
        <g id="Grupo_1174813" data-name="Grupo 1174813">
          <g id="Grupo_1201680" data-name="Grupo 1201680">
            <g id="Grupo_1201330" data-name="Grupo 1201330">
              <g id="Grupo_1172010" data-name="Grupo 1172010">
                <g id="Grupo_1171046" data-name="Grupo 1171046">
                  <g id="Grupo_1148525" data-name="Grupo 1148525">
                    <g transform="matrix(1, 0, 0, 1, -9, -6)" filter="url(#Trazado_982547)">
                      <g id="Trazado_982547-2" data-name="Trazado 982547" transform="translate(9 6)" fill="#fdf4ce">
                        <path d="M 50 98.5 C 43.45188522338867 98.5 37.10042953491211 97.21787261962891 31.12207221984863 94.68923950195312 C 25.34691429138184 92.24655914306641 20.15997123718262 88.74931335449219 15.70532894134521 84.29468536376953 C 11.2506856918335 79.84004211425781 7.753442764282227 74.65309906005859 5.310757160186768 68.8779296875 C 2.782128572463989 62.89957046508789 1.5 56.54811477661133 1.5 50 C 1.5 43.45188522338867 2.782128572463989 37.10042953491211 5.310757160186768 31.12207221984863 C 7.753442764282227 25.34691429138184 11.2506856918335 20.15997123718262 15.70532894134521 15.70532894134521 C 20.15997123718262 11.2506856918335 25.34691429138184 7.753442764282227 31.12207221984863 5.310757160186768 C 37.10042953491211 2.782128572463989 43.45188522338867 1.5 50 1.5 C 56.54811477661133 1.5 62.89957046508789 2.782128572463989 68.8779296875 5.310757160186768 C 74.65309906005859 7.753442764282227 79.84004211425781 11.2506856918335 84.29468536376953 15.70532894134521 C 88.74931335449219 20.15997123718262 92.24655914306641 25.34691429138184 94.68923950195312 31.12207221984863 C 97.21787261962891 37.10042953491211 98.5 43.45188522338867 98.5 50 C 98.5 56.54811477661133 97.21787261962891 62.89957046508789 94.68923950195312 68.8779296875 C 92.24655914306641 74.65309906005859 88.74931335449219 79.84004211425781 84.29468536376953 84.29468536376953 C 79.84004211425781 88.74931335449219 74.65309906005859 92.24655914306641 68.8779296875 94.68923950195312 C 62.89957046508789 97.21787261962891 56.54811477661133 98.5 50 98.5 Z" stroke="none"/>
                        <path d="M 50 3 C 43.65372467041016 3 37.49886322021484 4.242263793945312 31.70639801025391 6.6922607421875 C 26.11003112792969 9.059326171875 21.08335113525391 12.44861602783203 16.76598358154297 16.76598358154297 C 12.44861602783203 21.08335113525391 9.059326171875 26.11003112792969 6.6922607421875 31.70639801025391 C 4.242263793945312 37.49886322021484 3 43.65372467041016 3 50 C 3 56.34627532958984 4.242263793945312 62.50113677978516 6.6922607421875 68.29360198974609 C 9.059326171875 73.88996887207031 12.44861602783203 78.91666412353516 16.76598358154297 83.23401641845703 C 21.08335113525391 87.55138397216797 26.11003112792969 90.940673828125 31.70639801025391 93.3077392578125 C 37.49886322021484 95.75773620605469 43.65372467041016 97 50 97 C 56.34627532958984 97 62.50113677978516 95.75773620605469 68.29360198974609 93.3077392578125 C 73.88996887207031 90.940673828125 78.91666412353516 87.55138397216797 83.23401641845703 83.23401641845703 C 87.55138397216797 78.91666412353516 90.940673828125 73.88996887207031 93.3077392578125 68.29360198974609 C 95.75773620605469 62.50113677978516 97 56.34627532958984 97 50 C 97 43.65372467041016 95.75773620605469 37.49886322021484 93.3077392578125 31.70639801025391 C 90.940673828125 26.11003112792969 87.55138397216797 21.08335113525391 83.23401641845703 16.76598358154297 C 78.91666412353516 12.44861602783203 73.88996887207031 9.059326171875 68.29360198974609 6.6922607421875 C 62.50113677978516 4.242263793945312 56.34627532958984 3 50 3 M 50 0 C 77.61424255371094 0 100 22.38577270507812 100 50 C 100 77.61424255371094 77.61424255371094 100 50 100 C 22.38577270507812 100 0 77.61424255371094 0 50 C 0 22.38577270507812 22.38577270507812 0 50 0 Z" stroke="none" fill="#866d08"/>
                      </g>
                    </g>
                  </g>
                </g>
              </g>
            </g>
          </g>
        </g>
      </g>
    </g>
    <g id="prototipo" transform="translate(1186.095 1155.873)">
      <path id="Trazado_1216049" data-name="Trazado 1216049" d="M30.468,102.741H9.612A2.112,2.112,0,0,1,7.5,100.629V62.612A2.112,2.112,0,0,1,9.612,60.5H30.468a2.112,2.112,0,0,1,2.112,2.112v38.017A2.112,2.112,0,0,1,30.468,102.741Z" transform="translate(-6.51 -6.51)" fill="#eaf6ff"/>
      <path id="Trazado_1216050" data-name="Trazado 1216050" d="M155.46,60.5H151.5a2.112,2.112,0,0,1,2.112,2.112v38.017a2.112,2.112,0,0,1-2.112,2.112h3.96a2.112,2.112,0,0,0,2.112-2.112V62.612A2.112,2.112,0,0,0,155.46,60.5Z" transform="translate(-131.502 -6.51)" fill="#d8ecfe"/>
      <path id="Trazado_1216051" data-name="Trazado 1216051" d="M61.9,263.973H49.358a.858.858,0,0,1-.858-.858V252.951a.858.858,0,0,1,.858-.858H61.9a.858.858,0,0,1,.858.858v10.164A.858.858,0,0,1,61.9,263.973Z" transform="translate(-42.098 -172.812)" fill="#fdb441"/>
      <path id="Trazado_1216052" data-name="Trazado 1216052" d="M123.959,252.093H120a.858.858,0,0,1,.858.858v10.164a.858.858,0,0,1-.858.858h3.96a.858.858,0,0,0,.858-.858V252.951A.858.858,0,0,0,123.959,252.093Z" transform="translate(-104.159 -172.812)" fill="#fe9738"/>
      <path id="Trazado_1216053" data-name="Trazado 1216053" d="M60.512,150.775H50.744a2.244,2.244,0,0,1,0-4.488h9.768a2.244,2.244,0,0,1,0,4.488Z" transform="translate(-42.098 -80.973)" fill="#fe7ab6"/>
      <path id="Trazado_1216054" data-name="Trazado 1216054" d="M113.46,146.287H109.5a2.244,2.244,0,0,1,0,4.488h3.96a2.244,2.244,0,0,0,0-4.488Z" transform="translate(-95.046 -80.973)" fill="#fe5ca7"/>
      <path id="Trazado_1216055" data-name="Trazado 1216055" d="M337.468,102.741H316.612a2.112,2.112,0,0,1-2.112-2.112V62.612a2.112,2.112,0,0,1,2.112-2.112h20.856a2.112,2.112,0,0,1,2.112,2.112v38.017A2.112,2.112,0,0,1,337.468,102.741Z" transform="translate(-272.985 -6.51)" fill="#eaf6ff"/>
      <path id="Trazado_1216056" data-name="Trazado 1216056" d="M462.46,60.5H458.5a2.112,2.112,0,0,1,2.112,2.112v38.017a2.112,2.112,0,0,1-2.112,2.112h3.96a2.112,2.112,0,0,0,2.112-2.112V62.612A2.112,2.112,0,0,0,462.46,60.5Z" transform="translate(-397.977 -6.51)" fill="#d8ecfe"/>
      <path id="Trazado_1216057" data-name="Trazado 1216057" d="M368.9,263.973h-12.54a.858.858,0,0,1-.858-.858V252.951a.858.858,0,0,1,.858-.858H368.9a.858.858,0,0,1,.858.858v10.164A.858.858,0,0,1,368.9,263.973Z" transform="translate(-308.573 -172.812)" fill="#fdb441"/>
      <path id="Trazado_1216058" data-name="Trazado 1216058" d="M430.959,252.093H427a.858.858,0,0,1,.858.858v10.164a.858.858,0,0,1-.858.858h3.96a.858.858,0,0,0,.858-.858V252.951A.858.858,0,0,0,430.959,252.093Z" transform="translate(-370.634 -172.812)" fill="#fe9738"/>
      <path id="Trazado_1216059" data-name="Trazado 1216059" d="M368.9,125.732h-12.54a.858.858,0,0,1-.858-.858V114.71a.858.858,0,0,1,.858-.858H368.9a.858.858,0,0,1,.858.858v10.164A.858.858,0,0,1,368.9,125.732Z" transform="translate(-308.573 -52.819)" fill="#6c7fd8"/>
      <path id="Trazado_1216060" data-name="Trazado 1216060" d="M430.959,113.852H427a.858.858,0,0,1,.858.858v10.164a.858.858,0,0,1-.858.858h3.96a.858.858,0,0,0,.858-.858V114.71A.858.858,0,0,0,430.959,113.852Z" transform="translate(-370.634 -52.819)" fill="#4f66d0"/>
      <g id="Grupo_1227827" data-name="Grupo 1227827" transform="translate(0 53)">
        <path id="Trazado_1216061" data-name="Trazado 1216061" d="M41,246.441v10.164a1.85,1.85,0,0,0,1.848,1.848h12.54a1.85,1.85,0,0,0,1.848-1.848V246.441a1.85,1.85,0,0,0-1.848-1.848H42.848A1.85,1.85,0,0,0,41,246.441Zm1.98.132H55.256v9.9H42.98Z" transform="translate(-35.588 -219.302)"/>
        <path id="Trazado_1216062" data-name="Trazado 1216062" d="M77.387,278.239h3.564a.99.99,0,0,0,0-1.98H77.387A.99.99,0,0,0,77.387,278.239Z" transform="translate(-66.319 -246.788)"/>
        <path id="Trazado_1216063" data-name="Trazado 1216063" d="M83.017,302.926h-5.63a.99.99,0,0,0,0,1.98h5.63A.99.99,0,0,0,83.017,302.926Z" transform="translate(-66.319 -269.935)"/>
        <path id="Trazado_1216064" data-name="Trazado 1216064" d="M60.445,86.525h4.635a.99.99,0,0,0,0-1.98H60.445A.99.99,0,0,0,60.445,86.525Z" transform="translate(-51.613 -80.381)"/>
        <path id="Trazado_1216065" data-name="Trazado 1216065" d="M60.445,113.646h9.4a.99.99,0,0,0,0-1.98h-9.4A.99.99,0,0,0,60.445,113.646Z" transform="translate(-51.613 -103.922)"/>
        <path id="Trazado_1216066" data-name="Trazado 1216066" d="M69.841,206.351a.99.99,0,0,0,0-1.98h-9.4a.99.99,0,0,0,0,1.98Z" transform="translate(-51.613 -184.39)"/>
        <path id="Trazado_1216067" data-name="Trazado 1216067" d="M333.071,62.724a.99.99,0,0,0,.99-.99V56.1a3.106,3.106,0,0,0-3.1-3.1H310.1a3.106,3.106,0,0,0-3.1,3.1V94.119a3.106,3.106,0,0,0,3.1,3.1h20.856a3.106,3.106,0,0,0,3.1-3.1V66.112a.99.99,0,0,0-1.98,0V94.119a1.123,1.123,0,0,1-1.122,1.122H310.1a1.123,1.123,0,0,1-1.122-1.122V56.1A1.123,1.123,0,0,1,310.1,54.98h20.856A1.123,1.123,0,0,1,332.08,56.1v5.632A.99.99,0,0,0,333.071,62.724Z" transform="translate(-266.475 -53)"/>
        <path id="Trazado_1216068" data-name="Trazado 1216068" d="M362.388,244.593h-12.54A1.85,1.85,0,0,0,348,246.441v10.164a1.85,1.85,0,0,0,1.848,1.848h12.54a1.85,1.85,0,0,0,1.848-1.848V246.441a1.85,1.85,0,0,0-1.848-1.848Zm-.132,11.88H349.98v-9.9h12.276Z" transform="translate(-302.063 -219.302)"/>
        <path id="Trazado_1216069" data-name="Trazado 1216069" d="M364.236,108.2a1.85,1.85,0,0,0-1.848-1.848h-12.54A1.85,1.85,0,0,0,348,108.2v10.164a1.85,1.85,0,0,0,1.848,1.848h12.54a1.85,1.85,0,0,0,1.848-1.848Zm-1.98,10.032H349.98v-9.9h12.276Z" transform="translate(-302.063 -99.309)"/>
        <path id="Trazado_1216070" data-name="Trazado 1216070" d="M384.387,278.239h3.564a.99.99,0,0,0,0-1.98h-3.564A.99.99,0,0,0,384.387,278.239Z" transform="translate(-332.794 -246.788)"/>
        <path id="Trazado_1216071" data-name="Trazado 1216071" d="M384.387,304.906h5.63a.99.99,0,0,0,0-1.98h-5.63A.99.99,0,0,0,384.387,304.906Z" transform="translate(-332.794 -269.935)"/>
        <path id="Trazado_1216072" data-name="Trazado 1216072" d="M54.95,98.7a.99.99,0,0,0-1.4.041l-2.238,2.376a.99.99,0,1,0,1.441,1.358l.642-.682v1.941a.881.881,0,0,1-.88.88H15.07a.881.881,0,0,1-.88-.88V97.221h9.768a3.106,3.106,0,0,0,3.1-3.1V68.548h9.407l-.8.845a.99.99,0,1,0,1.439,1.36l2.376-2.514a.99.99,0,0,0-.041-1.4L37.068,64.6a.99.99,0,0,0-1.357,1.441l.559.527H27.061V56.1a3.106,3.106,0,0,0-3.1-3.1H3.1A3.106,3.106,0,0,0,0,56.1V84.593a.99.99,0,0,0,1.98,0V56.1A1.123,1.123,0,0,1,3.1,54.98H23.958A1.123,1.123,0,0,1,25.08,56.1V66.568H21.493a3.239,3.239,0,0,0-3.078-2.244H8.646a3.234,3.234,0,0,0,0,6.468h9.768a3.239,3.239,0,0,0,3.078-2.244H25.08v25.57a1.123,1.123,0,0,1-1.122,1.122H3.1A1.123,1.123,0,0,1,1.98,94.119V88.883a.99.99,0,0,0-1.98,0v5.236a3.106,3.106,0,0,0,3.1,3.1H12.21v6.512a2.863,2.863,0,0,0,2.86,2.86H52.515a2.863,2.863,0,0,0,2.86-2.86v-1.907l.729.689a.99.99,0,1,0,1.36-1.439ZM18.414,68.812H8.646a1.254,1.254,0,0,1,0-2.508h9.768A1.254,1.254,0,0,1,18.414,68.812Z" transform="translate(0 -53)"/>
      </g>
    </g>
  </g>
</svg>
