<svg xmlns="http://www.w3.org/2000/svg" xmlns:xlink="http://www.w3.org/1999/xlink" width="113" height="113" viewBox="0 0 113 113">
  <defs>
    <filter id="Trazado_982547" x="0" y="0" width="113" height="113" filterUnits="userSpaceOnUse">
      <feOffset dy="3" input="SourceAlpha"/>
      <feGaussianBlur stdDeviation="3" result="blur"/>
      <feFlood flood-opacity="0.161"/>
      <feComposite operator="in" in2="blur"/>
      <feComposite in="SourceGraphic"/>
    </filter>
  </defs>
  <g id="Grupo_1227968" data-name="Grupo 1227968" transform="translate(-4103 -1157)">
    <g id="Grupo_1227499" data-name="Grupo 1227499" transform="translate(3310 -332)">
      <g id="Grupo_1208028" data-name="Grupo 1208028" transform="translate(-0.49 -4138.425)">
        <g id="Grupo_1177675" data-name="Grupo 1177675" transform="translate(-4493 3707.152)">
          <g id="Grupo_1176928" data-name="Grupo 1176928" transform="translate(5295.49 1926.273)">
            <g id="Grupo_1172322" data-name="Grupo 1172322" transform="translate(0 0)">
              <g id="Grupo_1164700" data-name="Grupo 1164700">
                <g id="Grupo_1160931" data-name="Grupo 1160931">
                  <g id="Grupo_1160749" data-name="Grupo 1160749">
                    <g id="Grupo_1158891" data-name="Grupo 1158891">
                      <g id="Grupo_1157406" data-name="Grupo 1157406">
                        <g id="Grupo_1155793" data-name="Grupo 1155793">
                          <g id="Grupo_1154704" data-name="Grupo 1154704">
                            <g id="Grupo_1150790" data-name="Grupo 1150790">
                              <g id="Grupo_1154214" data-name="Grupo 1154214">
                                <g id="Grupo_1152583" data-name="Grupo 1152583">
                                  <g id="Grupo_1146973" data-name="Grupo 1146973">
                                    <g id="Grupo_1146954" data-name="Grupo 1146954">
                                      <g transform="matrix(1, 0, 0, 1, -9, -6)" filter="url(#Trazado_982547)">
                                        <g id="Trazado_982547-2" data-name="Trazado 982547" transform="translate(9 6)" fill="#eddbfd">
                                          <path d="M 47.5000114440918 93.49987030029297 C 41.28938293457031 93.49987030029297 35.26534652709961 92.28384399414062 29.5951976776123 89.88558959960938 C 24.11773109436035 87.56881713867188 19.19814491271973 84.25183868408203 14.97310447692871 80.02680206298828 C 10.74805164337158 75.80176544189453 7.43107795715332 70.88218688964844 5.114304542541504 65.40472412109375 C 2.716038227081299 59.73458862304688 1.500011444091797 53.71054840087891 1.500011444091797 47.49993515014648 C 1.500011444091797 41.28932189941406 2.716038227081299 35.26528167724609 5.114304542541504 29.59514808654785 C 7.43107795715332 24.1176815032959 10.74805164337158 19.1981086730957 14.97310447692871 14.97306823730469 C 19.19814491271973 10.74802875518799 24.11773109436035 7.431055068969727 29.5951976776123 5.11428165435791 C 35.26534652709961 2.716028451919556 41.28938293457031 1.500001788139343 47.5000114440918 1.500001788139343 C 53.71063995361328 1.500001788139343 59.73467636108398 2.716028451919556 65.40482330322266 5.11428165435791 C 70.88229370117188 7.431055068969727 75.8018798828125 10.74802875518799 80.02691650390625 14.97306823730469 C 84.25196838378906 19.1981086730957 87.56894683837891 24.1176815032959 89.88571929931641 29.59514808654785 C 92.28398132324219 35.26528167724609 93.50001525878906 41.28932189941406 93.50001525878906 47.49993515014648 C 93.50001525878906 53.71054840087891 92.28398132324219 59.73458862304688 89.88571929931641 65.40472412109375 C 87.56894683837891 70.88218688964844 84.25196838378906 75.80176544189453 80.02691650390625 80.02680206298828 C 75.8018798828125 84.25183868408203 70.88229370117188 87.56881713867188 65.40482330322266 89.88558959960938 C 59.73467636108398 92.28384399414062 53.71063995361328 93.49987030029297 47.5000114440918 93.49987030029297 Z" stroke="none"/>
                                          <path d="M 47.5000114440918 3 C 41.49122619628906 3 35.66378021240234 4.1761474609375 30.17951965332031 6.495796203613281 C 24.880859375 8.7369384765625 20.12153625488281 11.94596862792969 16.03376770019531 16.03373718261719 C 11.94598388671875 20.12149047851562 8.736968994140625 24.88081359863281 6.495811462402344 30.17947387695312 C 4.176162719726562 35.66371917724609 3.000007629394531 41.49116516113281 3.000007629394531 47.49993515014648 C 3.000007629394531 53.50870513916016 4.176162719726562 59.33615112304688 6.495811462402344 64.82039642333984 C 8.736968994140625 70.11905670166016 11.94598388671875 74.87837982177734 16.03376770019531 78.96613311767578 C 20.12153625488281 83.05390167236328 24.880859375 86.26293182373047 30.17951965332031 88.50407409667969 C 35.66378021240234 90.82372283935547 41.49122619628906 91.99987030029297 47.5000114440918 91.99987030029297 C 53.50879669189453 91.99987030029297 59.33624267578125 90.82372283935547 64.82050323486328 88.50407409667969 C 70.11916351318359 86.26293182373047 74.87848663330078 83.05390167236328 78.96625518798828 78.96613311767578 C 83.05403900146484 74.87837982177734 86.2630615234375 70.11905670166016 88.50421142578125 64.82039642333984 C 90.82386016845703 59.33615112304688 92.00001525878906 53.50870513916016 92.00001525878906 47.49993515014648 C 92.00001525878906 41.49116516113281 90.82386016845703 35.66371917724609 88.50421142578125 30.17947387695312 C 86.2630615234375 24.88081359863281 83.05403900146484 20.12149047851562 78.96625518798828 16.03373718261719 C 74.87848663330078 11.94596862792969 70.11916351318359 8.7369384765625 64.82050323486328 6.495796203613281 C 59.33624267578125 4.1761474609375 53.50879669189453 3 47.5000114440918 3 M 47.5000114440918 0 C 73.73353576660156 0 95.00001525878906 21.26644134521484 95.00001525878906 47.49993515014648 C 95.00001525878906 73.73342895507812 73.73353576660156 94.99987030029297 47.5000114440918 94.99987030029297 C 21.26648712158203 94.99987030029297 7.62939453125e-06 73.73342895507812 7.62939453125e-06 47.49993515014648 C 7.62939453125e-06 21.26644134521484 21.26648712158203 0 47.5000114440918 0 Z" stroke="none" fill="#aa52f9"/>
                                        </g>
                                      </g>
                                    </g>
                                  </g>
                                </g>
                              </g>
                            </g>
                          </g>
                        </g>
                      </g>
                    </g>
                  </g>
                </g>
              </g>
            </g>
          </g>
        </g>
      </g>
    </g>
    <g id="analitica" transform="translate(4130.255 1181.255)">
      <path id="Trazado_1216450" data-name="Trazado 1216450" d="M18.225,58.176H14.57A4.57,4.57,0,0,1,10,53.606V14.57A4.57,4.57,0,0,1,14.57,10H61.635a4.57,4.57,0,0,1,4.57,4.57V53.606a4.57,4.57,0,0,1-4.57,4.57H18.225Z" transform="translate(-8.858 -8.858)" fill="#fff"/>
      <path id="Trazado_1216451" data-name="Trazado 1216451" d="M61.635,10H14.57A4.57,4.57,0,0,0,10,14.57v3.656H66.2V14.57A4.57,4.57,0,0,0,61.635,10Z" transform="translate(-8.858 -8.858)" fill="#ff5a5a"/>
      <path id="Trazado_1216452" data-name="Trazado 1216452" d="M21,82H75.266" transform="translate(-18.605 -72.632)" fill="#231f20"/>
      <rect id="Rectángulo_422223" data-name="Rectángulo 422223" width="8" height="12" transform="translate(6 45)" fill="#a5dc69"/>
      <rect id="Rectángulo_422224" data-name="Rectángulo 422224" width="7" height="15" transform="translate(32 42)" fill="#78d2fa"/>
      <rect id="Rectángulo_422225" data-name="Rectángulo 422225" width="7.311" height="25.197" transform="translate(19.192 32.15)" fill="#f5c86e"/>
      <rect id="Rectángulo_422226" data-name="Rectángulo 422226" width="7.311" height="26.903" transform="translate(44.781 30.444)" fill="#ff5a5a"/>
      <circle id="Elipse_13255" data-name="Elipse 13255" cx="2.97" cy="2.97" r="2.97" transform="translate(19.234 16.672)" fill="#f5c86e"/>
      <circle id="Elipse_13256" data-name="Elipse 13256" cx="2.97" cy="2.97" r="2.97" transform="translate(32.566 30.273)" fill="#78d2fa"/>
      <circle id="Elipse_13257" data-name="Elipse 13257" cx="2.97" cy="2.97" r="2.97" transform="translate(45.467 16.672)" fill="#ff5a5a"/>
      <circle id="Elipse_13258" data-name="Elipse 13258" cx="2.97" cy="2.97" r="2.97" transform="translate(7.007 29.18)" fill="#a5dc69"/>
      <path id="Trazado_1216453" data-name="Trazado 1216453" d="M54.5,50.322a3.993,3.993,0,0,0,3.989-3.989V5.712A5.718,5.718,0,0,0,52.778,0H5.712A5.718,5.718,0,0,0,0,5.712V46.333a3.993,3.993,0,0,0,3.989,3.989H5.255V56.2H1.142a1.142,1.142,0,1,0,0,2.285h56.2a1.142,1.142,0,1,0,0-2.285H53.235V50.322ZM5.712,2.285H52.778A3.431,3.431,0,0,1,56.2,5.712V8.225H2.4c-.039,0-.077,0-.115.006V5.712A3.431,3.431,0,0,1,5.712,2.285ZM7.54,56.2V45.924h5.026V56.2Zm12.795,0V33.293h5.026V56.2Zm12.795,0V42.953h5.026V56.2Zm12.795,0V43.9a1.142,1.142,0,1,0-2.285,0V56.2h-3.2V41.811A1.142,1.142,0,0,0,39.3,40.669H31.987a1.142,1.142,0,0,0-1.142,1.142V56.2h-3.2V32.15A1.142,1.142,0,0,0,26.5,31.008H19.192A1.142,1.142,0,0,0,18.05,32.15V56.2h-3.2V44.781a1.142,1.142,0,0,0-1.142-1.142H6.4a1.142,1.142,0,0,0-1.142,1.142v3.256H3.989a1.706,1.706,0,0,1-1.7-1.7V10.5c.038,0,.076.006.115.006H56.2V46.333a1.706,1.706,0,0,1-1.7,1.7H53.235V30.444A1.142,1.142,0,0,0,52.092,29.3H44.781a1.142,1.142,0,0,0-1.142,1.142v5.769a1.142,1.142,0,0,0,2.285,0V31.587H50.95V56.2Z"/>
      <path id="Trazado_1216454" data-name="Trazado 1216454" d="M213.207,38.285h25.81a1.142,1.142,0,1,0,0-2.285h-25.81a1.142,1.142,0,1,0,0,2.285Z" transform="translate(-187.839 -31.887)"/>
      <path id="Trazado_1216455" data-name="Trazado 1216455" d="M95.142,38.285a1.143,1.143,0,1,0-.808-.335A1.151,1.151,0,0,0,95.142,38.285Z" transform="translate(-83.262 -31.887)"/>
      <path id="Trazado_1216456" data-name="Trazado 1216456" d="M55.142,38.285a1.143,1.143,0,1,0-.808-.335A1.151,1.151,0,0,0,55.142,38.285Z" transform="translate(-47.831 -31.887)"/>
      <path id="Trazado_1216457" data-name="Trazado 1216457" d="M135.142,38.285a1.143,1.143,0,1,0-.808-.335A1.151,1.151,0,0,0,135.142,38.285Z" transform="translate(-118.692 -31.887)"/>
      <path id="Trazado_1216458" data-name="Trazado 1216458" d="M383.142,342.64a1.143,1.143,0,1,0,.808.335A1.147,1.147,0,0,0,383.142,342.64Z" transform="translate(-338.361 -303.498)"/>
      <path id="Trazado_1216459" data-name="Trazado 1216459" d="M93.908,144.164a4.119,4.119,0,1,0-3.328-1.7l-7.588,7.588a4.1,4.1,0,0,0-3.793-.092l-7.923-7.923a4.113,4.113,0,1,0-7.1.177l-6.746,6.746a4.116,4.116,0,1,0,1.616,1.616l6.827-6.827a4.1,4.1,0,0,0,3.785-.1l7.846,7.846a4.112,4.112,0,1,0,7.1.17l7.792-7.792A4.086,4.086,0,0,0,93.908,144.164Zm0-5.94a1.828,1.828,0,1,1-1.828,1.828A1.83,1.83,0,0,1,93.908,138.224Zm-38.46,16.164a1.828,1.828,0,1,1,1.828-1.828A1.83,1.83,0,0,1,55.449,154.388Zm12.227-12.508a1.828,1.828,0,1,1,1.828-1.828A1.83,1.83,0,0,1,67.676,141.879Zm13.332,13.6a1.828,1.828,0,1,1,1.828-1.828A1.83,1.83,0,0,1,81.008,155.48Z" transform="translate(-45.471 -120.41)"/>
      <path id="Trazado_1216460" data-name="Trazado 1216460" d="M132.4,128.3a1.141,1.141,0,1,0-.809-.335A1.153,1.153,0,0,0,132.4,128.3Z" transform="translate(-116.265 -111.624)"/>
      <path id="Trazado_1216461" data-name="Trazado 1216461" d="M47.142,128.306h5.483a1.142,1.142,0,1,0,0-2.285H47.142a1.142,1.142,0,1,0,0,2.285Z" transform="translate(-40.745 -111.625)"/>
      <path id="Trazado_1216462" data-name="Trazado 1216462" d="M52.626,176.306a1.142,1.142,0,1,0,0-2.285H47.142a1.142,1.142,0,0,0,0,2.285Z" transform="translate(-40.745 -154.141)"/>
    </g>
  </g>
</svg>
