<svg xmlns="http://www.w3.org/2000/svg" xmlns:xlink="http://www.w3.org/1999/xlink" width="505" height="565" viewBox="0 0 505 565">
  <defs>
    <clipPath id="clip-path">
      <rect id="Rectángulo_422227" data-name="Rectángulo 422227" width="505" height="565" transform="translate(915 1204)" fill="#fff" stroke="#707070" stroke-width="1"/>
    </clipPath>
  </defs>
  <g id="Grupo_1227986" data-name="Grupo 1227986" transform="translate(-915 -1204)">
    <rect id="Rectángulo_422262" data-name="Rectángulo 422262" width="220" height="564" transform="translate(1162 1204)" fill="#eddbfd"/>
    <g id="Enmascarar_grupo_1208499" data-name="Enmascarar grupo 1208499" clip-path="url(#clip-path)">
      <g id="Grupo_1227985" data-name="Grupo 1227985" transform="translate(786.217 956.788)">
        <path id="Trazado_1216477" data-name="Trazado 1216477" d="M339.593,1086.558c-.977-1.2-10.076-11.918-24.534-11.081a29.658,29.658,0,0,0-18.812,8.541c-.251-.7-5.471-13.872-18.812-16.245a24.535,24.535,0,0,0-17.947,44.463c-.809.056-6.224.586-9.406,5.136-3.042,4.354-2.763,10.606.865,15.379-7.508-2.066-15.351-.558-19.65,4.27-6.336,7.118-5.136,21.408,5.973,29.921q64.978-.838,129.928-1.7c16.579-42.286,15.965-75.752,1.926-83.762C366.5,1080,358.071,1076.343,339.593,1086.558Z" transform="translate(-21.599 -571.727)" fill="#f6c810"/>
        <path id="Trazado_1216478" data-name="Trazado 1216478" d="M375.076,1336.859a14.381,14.381,0,0,0-21.548-15.993,15.361,15.361,0,0,0-27.688,4.3c-.809-.279-5.61-1.9-9.853.614-4.661,2.791-6.782,9.518-4.3,15.993Q343.383,1339.3,375.076,1336.859Z" transform="translate(-81.561 -749.402)" fill="#ff7f64"/>
        <path id="Trazado_1216479" data-name="Trazado 1216479" d="M1072.589,1148.828c8.373-2.847,13.872-10.606,13.677-18.812-.251-9.629-8.29-18.059-18.812-18.812a19.912,19.912,0,0,0,2.568-23.083c-5.471-9.267-16.607-9.406-17.11-9.406,7.508-13.593,2.763-30.061-8.541-36.759-12.644-7.48-31.763-1.7-38.462,14.542a22.569,22.569,0,0,0-12.811-4.27c-12.9-.028-20.208,12.03-20.6,12.728-16.133-5.889-25.288-1.926-28.163-.475-17.64,9.071-25.2,42.007-10.216,79.213q69.248,2.554,138.469,5.136Z" transform="translate(-525.246 -551.044)" fill="#f6c810"/>
        <path id="Trazado_1216480" data-name="Trazado 1216480" d="M1119.233,1271.992c5.554-8.6,5.247-19.51-.614-27.074-7.313-9.462-19.426-8.68-20.319-8.625,4.466-7.843,1.842-17.5-4.912-21.548-5.554-3.294-13.174-2.4-18.477,2.456-2.121-1.089-8.569-4.1-15.379-1.842-9.183,3.042-15.519,14.514-13.537,27.688-2.54-.447-7.229-.781-11.081,1.842-6.42,4.382-8.513,15.547-3.07,26.46q43.709.293,87.391.614Z" transform="translate(-599.216 -676.524)" fill="#ff7f64"/>
        <g id="Grupo_1227971" data-name="Grupo 1227971" transform="translate(444.489 347.481)">
          <path id="Trazado_1216481" data-name="Trazado 1216481" d="M1083.768,784.845a1.339,1.339,0,0,1-1-.447,1.36,1.36,0,0,1-.363-.921,1.466,1.466,0,0,1,.419-1,1.4,1.4,0,0,1,1.954,0,1.524,1.524,0,0,1,.363,1,1.209,1.209,0,0,1-.419.949A1.307,1.307,0,0,1,1083.768,784.845Z" transform="translate(-1082.4 -713.51)" fill="#b4c6f4"/>
          <path id="Trazado_1216482" data-name="Trazado 1216482" d="M1115.487,783.5a1.4,1.4,0,0,1,1.4-1.4h0a1.394,1.394,0,0,1,1.368,1.4h0a1.388,1.388,0,0,1-1.368,1.368h0A1.394,1.394,0,0,1,1115.487,783.5Zm-3.852,0a1.394,1.394,0,0,1,1.368-1.4h0a1.382,1.382,0,0,1,1.4,1.4h0a1.394,1.394,0,0,1-1.4,1.368h0A1.407,1.407,0,0,1,1111.635,783.5Zm-3.88,0a1.382,1.382,0,0,1,1.4-1.4h0a1.359,1.359,0,0,1,1.368,1.4h0a1.37,1.37,0,0,1-1.368,1.368h0A1.394,1.394,0,0,1,1107.755,783.5Zm-3.852,0a1.376,1.376,0,0,1,1.368-1.4h0a1.382,1.382,0,0,1,1.4,1.4h0a1.394,1.394,0,0,1-1.4,1.368h0A1.408,1.408,0,0,1,1103.9,783.5Zm-3.88,0a1.382,1.382,0,0,1,1.4-1.4h0a1.359,1.359,0,0,1,1.368,1.4h0a1.37,1.37,0,0,1-1.368,1.368h0A1.394,1.394,0,0,1,1100.024,783.5Zm-3.824,0a1.376,1.376,0,0,1,1.368-1.4h0a1.382,1.382,0,0,1,1.4,1.4h0a1.394,1.394,0,0,1-1.4,1.368h0A1.407,1.407,0,0,1,1096.2,783.5Z" transform="translate(-1092.348 -713.528)" fill="#b4c6f4"/>
          <path id="Trazado_1216483" data-name="Trazado 1216483" d="M1180.468,784.845a1.416,1.416,0,0,1-1-.419,1.487,1.487,0,0,1-.363-.949,1.466,1.466,0,0,1,.419-1,1.4,1.4,0,0,1,1.954,0,1.34,1.34,0,0,1,.419,1,1.082,1.082,0,0,1-.447.949,1.26,1.26,0,0,1-.949.419Z" transform="translate(-1152.11 -713.51)" fill="#b4c6f4"/>
          <path id="Trazado_1216484" data-name="Trazado 1216484" d="M1179.1,612.117a1.376,1.376,0,0,1,1.368-1.4h0a1.382,1.382,0,0,1,1.4,1.4h0a1.394,1.394,0,0,1-1.4,1.368h0A1.407,1.407,0,0,1,1179.1,612.117Zm0-3.6a1.352,1.352,0,0,1,1.368-1.368h0a1.359,1.359,0,0,1,1.4,1.368h0a1.382,1.382,0,0,1-1.4,1.4h0A1.394,1.394,0,0,1,1179.1,608.517Zm0-3.628a1.388,1.388,0,0,1,1.368-1.368h0a1.376,1.376,0,0,1,1.4,1.368h0a1.382,1.382,0,0,1-1.4,1.4h0A1.394,1.394,0,0,1,1179.1,604.888Zm0-3.573a1.376,1.376,0,0,1,1.368-1.4h0a1.382,1.382,0,0,1,1.4,1.4h0a1.394,1.394,0,0,1-1.4,1.368h0A1.388,1.388,0,0,1,1179.1,601.315Zm0-3.628a1.352,1.352,0,0,1,1.368-1.368h0a1.359,1.359,0,0,1,1.4,1.368h0a1.382,1.382,0,0,1-1.4,1.4h0A1.394,1.394,0,0,1,1179.1,597.687Zm0-3.629a1.352,1.352,0,0,1,1.368-1.368h0a1.359,1.359,0,0,1,1.4,1.368h0a1.382,1.382,0,0,1-1.4,1.4h0A1.394,1.394,0,0,1,1179.1,594.058Zm0-3.573a1.376,1.376,0,0,1,1.368-1.4h0a1.382,1.382,0,0,1,1.4,1.4h0a1.394,1.394,0,0,1-1.4,1.368h0A1.388,1.388,0,0,1,1179.1,590.486Zm0-3.629a1.376,1.376,0,0,1,1.368-1.4h0a1.382,1.382,0,0,1,1.4,1.4h0a1.359,1.359,0,0,1-1.4,1.368h0A1.37,1.37,0,0,1,1179.1,586.857Zm0-3.6a1.388,1.388,0,0,1,1.368-1.368h0a1.376,1.376,0,0,1,1.4,1.368h0a1.382,1.382,0,0,1-1.4,1.4h0A1.394,1.394,0,0,1,1179.1,583.257Zm0-3.628a1.388,1.388,0,0,1,1.368-1.368h0a1.376,1.376,0,0,1,1.4,1.368h0a1.382,1.382,0,0,1-1.4,1.4h0A1.394,1.394,0,0,1,1179.1,579.628Zm0-3.573a1.376,1.376,0,0,1,1.368-1.4h0a1.382,1.382,0,0,1,1.4,1.4h0a1.394,1.394,0,0,1-1.4,1.368h0A1.408,1.408,0,0,1,1179.1,576.056Zm0-3.629a1.352,1.352,0,0,1,1.368-1.368h0a1.359,1.359,0,0,1,1.4,1.368h0a1.382,1.382,0,0,1-1.4,1.4h0A1.394,1.394,0,0,1,1179.1,572.427Zm0-3.629a1.388,1.388,0,0,1,1.368-1.368h0a1.376,1.376,0,0,1,1.4,1.368h0a1.382,1.382,0,0,1-1.4,1.4h0A1.394,1.394,0,0,1,1179.1,568.8Zm0-3.573a1.376,1.376,0,0,1,1.368-1.4h0a1.382,1.382,0,0,1,1.4,1.4h0a1.394,1.394,0,0,1-1.4,1.368h0A1.388,1.388,0,0,1,1179.1,565.226Zm0-3.629a1.352,1.352,0,0,1,1.368-1.368h0a1.359,1.359,0,0,1,1.4,1.368h0a1.382,1.382,0,0,1-1.4,1.4h0A1.394,1.394,0,0,1,1179.1,561.6Zm0-3.6a1.352,1.352,0,0,1,1.368-1.368h0a1.359,1.359,0,0,1,1.4,1.368h0a1.382,1.382,0,0,1-1.4,1.4h0A1.394,1.394,0,0,1,1179.1,558Zm0-3.6a1.376,1.376,0,0,1,1.368-1.4h0a1.4,1.4,0,0,1,1.4,1.4h0a1.394,1.394,0,0,1-1.4,1.368h0A1.388,1.388,0,0,1,1179.1,554.4Zm0-3.6a1.376,1.376,0,0,1,1.368-1.4h0a1.382,1.382,0,0,1,1.4,1.4h0a1.359,1.359,0,0,1-1.4,1.368h0A1.37,1.37,0,0,1,1179.1,550.8Z" transform="translate(-1152.11 -545.778)" fill="#b4c6f4"/>
          <path id="Trazado_1216485" data-name="Trazado 1216485" d="M1180.468,539.208a1.25,1.25,0,0,1-.949-.419,1.436,1.436,0,0,1-.419-1,1.378,1.378,0,0,1,.363-.949,1.433,1.433,0,0,1,1.982-.028,1.67,1.67,0,0,1,.419,1,1.466,1.466,0,0,1-.419,1,1.545,1.545,0,0,1-1,.419Z" transform="translate(-1152.11 -536.424)" fill="#b4c6f4"/>
        </g>
        <path id="Trazado_1216486" data-name="Trazado 1216486" d="M1100.822,571.51a1.376,1.376,0,0,1,1.4-1.368h0a1.335,1.335,0,0,1,1.368,1.368h0a1.359,1.359,0,0,1-1.368,1.4h0A1.382,1.382,0,0,1,1100.822,571.51Zm-3.684,0a1.376,1.376,0,0,1,1.4-1.368h0a1.335,1.335,0,0,1,1.368,1.368h0a1.359,1.359,0,0,1-1.368,1.4h0A1.382,1.382,0,0,1,1097.137,571.51Zm-3.684,0a1.376,1.376,0,0,1,1.4-1.368h0a1.335,1.335,0,0,1,1.368,1.368h0a1.359,1.359,0,0,1-1.368,1.4h0A1.382,1.382,0,0,1,1093.453,571.51Zm-3.656,0a1.336,1.336,0,0,1,1.368-1.368h0a1.335,1.335,0,0,1,1.368,1.368h0a1.359,1.359,0,0,1-1.368,1.4h0A1.359,1.359,0,0,1,1089.8,571.51Zm-3.684,0a1.335,1.335,0,0,1,1.368-1.368h0a1.336,1.336,0,0,1,1.368,1.368h0a1.359,1.359,0,0,1-1.368,1.4h0A1.359,1.359,0,0,1,1086.112,571.51Zm-3.712,0a1.335,1.335,0,0,1,1.368-1.368h0a1.335,1.335,0,0,1,1.368,1.368h0a1.359,1.359,0,0,1-1.368,1.4h0A1.359,1.359,0,0,1,1082.4,571.51Zm18.422-3.712a1.413,1.413,0,0,1,1.4-1.368h0a1.376,1.376,0,0,1,1.4,1.368h0a1.382,1.382,0,0,1-1.4,1.4h0A1.382,1.382,0,0,1,1100.822,567.8Zm0-3.684a1.413,1.413,0,0,1,1.4-1.368h0a1.376,1.376,0,0,1,1.4,1.368h0a1.382,1.382,0,0,1-1.4,1.4h0A1.382,1.382,0,0,1,1100.822,564.114Zm0-3.684a1.413,1.413,0,0,1,1.4-1.368h0a1.376,1.376,0,0,1,1.4,1.368h0a1.382,1.382,0,0,1-1.4,1.4h0A1.382,1.382,0,0,1,1100.822,560.429Zm0-3.712a1.413,1.413,0,0,1,1.4-1.368h0a1.376,1.376,0,0,1,1.4,1.368h0a1.382,1.382,0,0,1-1.4,1.4h0A1.382,1.382,0,0,1,1100.822,556.717Zm0-3.684a1.413,1.413,0,0,1,1.4-1.368h0a1.376,1.376,0,0,1,1.4,1.368h0a1.382,1.382,0,0,1-1.4,1.4h0A1.382,1.382,0,0,1,1100.822,553.033Zm0-3.684a1.413,1.413,0,0,1,1.4-1.368h0a1.376,1.376,0,0,1,1.4,1.368h0a1.382,1.382,0,0,1-1.4,1.4h0A1.382,1.382,0,0,1,1100.822,549.349Zm0-3.712a1.413,1.413,0,0,1,1.4-1.368h0a1.376,1.376,0,0,1,1.4,1.368h0a1.382,1.382,0,0,1-1.4,1.4h0A1.382,1.382,0,0,1,1100.822,545.636Zm0-3.684a1.376,1.376,0,0,1,1.4-1.368h0a1.359,1.359,0,0,1,1.4,1.368h0a1.382,1.382,0,0,1-1.4,1.4h0A1.382,1.382,0,0,1,1100.822,541.952Zm0-3.684a1.376,1.376,0,0,1,1.4-1.368h0a1.359,1.359,0,0,1,1.4,1.368h0a1.382,1.382,0,0,1-1.4,1.4h0A1.382,1.382,0,0,1,1100.822,538.268Z" transform="translate(-637.911 -189.286)" fill="#b4c6f4"/>
        <g id="Grupo_1227972" data-name="Grupo 1227972" transform="translate(303.229 314.706)">
          <path id="Trazado_1216487" data-name="Trazado 1216487" d="M577.668,421.808a1.417,1.417,0,0,1-1-.419,1.378,1.378,0,0,1-.363-.949,1.4,1.4,0,0,1,2.791-.028,1.578,1.578,0,0,1-.447,1,1.378,1.378,0,0,1-.949.363Z" transform="translate(-576.3 -419.045)" fill="#c4e9fc"/>
          <path id="Trazado_1216488" data-name="Trazado 1216488" d="M718.072,420.4a1.382,1.382,0,0,1,1.4-1.4h0a1.394,1.394,0,0,1,1.368,1.4h0a1.388,1.388,0,0,1-1.368,1.368h0A1.394,1.394,0,0,1,718.072,420.4Zm-3.656,0a1.376,1.376,0,0,1,1.368-1.4h0a1.382,1.382,0,0,1,1.4,1.4h0a1.394,1.394,0,0,1-1.4,1.368h0A1.407,1.407,0,0,1,714.416,420.4Zm-3.684,0a1.382,1.382,0,0,1,1.4-1.4h0a1.394,1.394,0,0,1,1.368,1.4h0a1.388,1.388,0,0,1-1.368,1.368h0A1.394,1.394,0,0,1,710.731,420.4Zm-3.656,0a1.359,1.359,0,0,1,1.368-1.4h0a1.382,1.382,0,0,1,1.4,1.4h0a1.394,1.394,0,0,1-1.4,1.368h0A1.37,1.37,0,0,1,707.075,420.4Zm-3.684,0a1.382,1.382,0,0,1,1.4-1.4h0a1.394,1.394,0,0,1,1.368,1.4h0a1.388,1.388,0,0,1-1.368,1.368h0A1.394,1.394,0,0,1,703.391,420.4Zm-3.684,0a1.359,1.359,0,0,1,1.368-1.4h0a1.382,1.382,0,0,1,1.4,1.4h0a1.394,1.394,0,0,1-1.4,1.368h0A1.37,1.37,0,0,1,699.706,420.4Zm-3.684,0a1.382,1.382,0,0,1,1.4-1.4h0a1.394,1.394,0,0,1,1.368,1.4h0a1.388,1.388,0,0,1-1.368,1.368h0A1.394,1.394,0,0,1,696.022,420.4Zm-3.684,0a1.382,1.382,0,0,1,1.4-1.4h0a1.359,1.359,0,0,1,1.368,1.4h0a1.37,1.37,0,0,1-1.368,1.368h0A1.394,1.394,0,0,1,692.338,420.4Zm-3.656,0a1.376,1.376,0,0,1,1.368-1.4h0a1.382,1.382,0,0,1,1.4,1.4h0a1.413,1.413,0,0,1-1.4,1.368h0A1.407,1.407,0,0,1,688.681,420.4Zm-3.684,0a1.382,1.382,0,0,1,1.4-1.4h0a1.359,1.359,0,0,1,1.368,1.4h0a1.37,1.37,0,0,1-1.368,1.368h0A1.394,1.394,0,0,1,685,420.4Zm-3.656,0a1.376,1.376,0,0,1,1.368-1.4h0a1.382,1.382,0,0,1,1.4,1.4h0a1.394,1.394,0,0,1-1.4,1.368h0A1.407,1.407,0,0,1,681.34,420.4Zm-3.712,0a1.382,1.382,0,0,1,1.4-1.4h0a1.394,1.394,0,0,1,1.368,1.4h0a1.388,1.388,0,0,1-1.368,1.368h0A1.394,1.394,0,0,1,677.628,420.4Zm-3.656,0a1.359,1.359,0,0,1,1.368-1.4h0a1.382,1.382,0,0,1,1.4,1.4h0a1.413,1.413,0,0,1-1.4,1.368h0A1.37,1.37,0,0,1,673.972,420.4Zm-3.684,0a1.382,1.382,0,0,1,1.4-1.4h0a1.394,1.394,0,0,1,1.368,1.4h0a1.407,1.407,0,0,1-1.368,1.368h0A1.394,1.394,0,0,1,670.288,420.4Zm-3.656,0A1.359,1.359,0,0,1,668,419h0a1.382,1.382,0,0,1,1.4,1.4h0a1.394,1.394,0,0,1-1.4,1.368h0A1.37,1.37,0,0,1,666.631,420.4Zm-3.684,0a1.376,1.376,0,0,1,1.368-1.4h0a1.382,1.382,0,0,1,1.4,1.4h0a1.394,1.394,0,0,1-1.4,1.368h0A1.407,1.407,0,0,1,662.947,420.4Zm-3.712,0a1.382,1.382,0,0,1,1.4-1.4h0A1.359,1.359,0,0,1,662,420.4h0a1.37,1.37,0,0,1-1.368,1.368h0A1.394,1.394,0,0,1,659.235,420.4Zm-3.656,0a1.376,1.376,0,0,1,1.368-1.4h0a1.382,1.382,0,0,1,1.4,1.4h0a1.413,1.413,0,0,1-1.4,1.368h0A1.408,1.408,0,0,1,655.578,420.4Zm-3.684,0a1.382,1.382,0,0,1,1.4-1.4h0a1.359,1.359,0,0,1,1.368,1.4h0a1.37,1.37,0,0,1-1.368,1.368h0A1.394,1.394,0,0,1,651.894,420.4Zm-3.656,0a1.376,1.376,0,0,1,1.368-1.4h0a1.382,1.382,0,0,1,1.4,1.4h0a1.394,1.394,0,0,1-1.4,1.368h0A1.407,1.407,0,0,1,648.237,420.4Zm-3.684,0a1.382,1.382,0,0,1,1.4-1.4h0a1.394,1.394,0,0,1,1.368,1.4h0a1.388,1.388,0,0,1-1.368,1.368h0A1.394,1.394,0,0,1,644.553,420.4Zm-3.656,0a1.376,1.376,0,0,1,1.368-1.4h0a1.382,1.382,0,0,1,1.4,1.4h0a1.413,1.413,0,0,1-1.4,1.368h0A1.408,1.408,0,0,1,640.9,420.4Zm-3.712,0a1.382,1.382,0,0,1,1.4-1.4h0a1.359,1.359,0,0,1,1.368,1.4h0a1.37,1.37,0,0,1-1.368,1.368h0A1.394,1.394,0,0,1,637.184,420.4Zm-3.656,0A1.359,1.359,0,0,1,634.9,419h0a1.382,1.382,0,0,1,1.4,1.4h0a1.394,1.394,0,0,1-1.4,1.368h0A1.37,1.37,0,0,1,633.528,420.4Zm-3.684,0a1.382,1.382,0,0,1,1.4-1.4h0a1.394,1.394,0,0,1,1.368,1.4h0a1.388,1.388,0,0,1-1.368,1.368h0A1.394,1.394,0,0,1,629.844,420.4Zm-3.656,0a1.359,1.359,0,0,1,1.368-1.4h0a1.382,1.382,0,0,1,1.4,1.4h0a1.394,1.394,0,0,1-1.4,1.368h0A1.37,1.37,0,0,1,626.187,420.4Zm-3.684,0a1.4,1.4,0,0,1,1.4-1.4h0a1.394,1.394,0,0,1,1.368,1.4h0a1.388,1.388,0,0,1-1.368,1.368h0A1.394,1.394,0,0,1,622.5,420.4Zm-3.684,0a1.4,1.4,0,0,1,1.4-1.4h0a1.359,1.359,0,0,1,1.368,1.4h0a1.37,1.37,0,0,1-1.368,1.368h0A1.394,1.394,0,0,1,618.819,420.4Zm-3.656,0a1.376,1.376,0,0,1,1.368-1.4h0a1.382,1.382,0,0,1,1.4,1.4h0a1.394,1.394,0,0,1-1.4,1.368h0A1.407,1.407,0,0,1,615.162,420.4Zm-3.712,0a1.382,1.382,0,0,1,1.4-1.4h0a1.359,1.359,0,0,1,1.368,1.4h0a1.37,1.37,0,0,1-1.368,1.368h0A1.394,1.394,0,0,1,611.45,420.4Zm-3.656,0a1.394,1.394,0,0,1,1.368-1.4h0a1.382,1.382,0,0,1,1.4,1.4h0a1.394,1.394,0,0,1-1.4,1.368h0A1.407,1.407,0,0,1,607.794,420.4Zm-3.684,0a1.4,1.4,0,0,1,1.4-1.4h0a1.394,1.394,0,0,1,1.368,1.4h0a1.388,1.388,0,0,1-1.368,1.368h0A1.394,1.394,0,0,1,604.109,420.4Zm-3.656,0a1.359,1.359,0,0,1,1.368-1.4h0a1.382,1.382,0,0,1,1.4,1.4h0a1.394,1.394,0,0,1-1.4,1.368h0A1.37,1.37,0,0,1,600.453,420.4Zm-3.684,0a1.382,1.382,0,0,1,1.4-1.4h0a1.394,1.394,0,0,1,1.368,1.4h0a1.388,1.388,0,0,1-1.368,1.368h0A1.394,1.394,0,0,1,596.769,420.4Zm-3.656,0a1.359,1.359,0,0,1,1.368-1.4h0a1.382,1.382,0,0,1,1.4,1.4h0a1.394,1.394,0,0,1-1.4,1.368h0A1.37,1.37,0,0,1,593.112,420.4Zm-3.712,0a1.4,1.4,0,0,1,1.4-1.4h0a1.394,1.394,0,0,1,1.368,1.4h0a1.388,1.388,0,0,1-1.368,1.368h0A1.394,1.394,0,0,1,589.4,420.4Z" transform="translate(-585.744 -419)" fill="#b4c6f4"/>
          <path id="Trazado_1216489" data-name="Trazado 1216489" d="M1064.968,421.8a1.416,1.416,0,0,1-1-.419,1.431,1.431,0,0,1-.363-.949,1.417,1.417,0,0,1,.419-1,1.455,1.455,0,0,1,1.954,0,1.436,1.436,0,0,1,.419,1,1.209,1.209,0,0,1-.419.949A1.436,1.436,0,0,1,1064.968,421.8Z" transform="translate(-927.587 -419.035)" fill="#b4c6f4"/>
          <path id="Trazado_1216490" data-name="Trazado 1216490" d="M1063.6,573.839a1.388,1.388,0,0,1,1.368-1.368h0a1.376,1.376,0,0,1,1.4,1.368h0a1.382,1.382,0,0,1-1.4,1.4h0A1.413,1.413,0,0,1,1063.6,573.839Zm0-3.712a1.388,1.388,0,0,1,1.368-1.368h0a1.376,1.376,0,0,1,1.4,1.368h0a1.382,1.382,0,0,1-1.4,1.4h0A1.413,1.413,0,0,1,1063.6,570.127Zm0-3.684a1.388,1.388,0,0,1,1.368-1.368h0a1.376,1.376,0,0,1,1.4,1.368h0a1.382,1.382,0,0,1-1.4,1.4h0A1.413,1.413,0,0,1,1063.6,566.443Zm0-3.656a1.376,1.376,0,0,1,1.368-1.4h0a1.382,1.382,0,0,1,1.4,1.4h0a1.394,1.394,0,0,1-1.4,1.368h0A1.407,1.407,0,0,1,1063.6,562.786Zm0-3.684a1.376,1.376,0,0,1,1.368-1.4h0a1.382,1.382,0,0,1,1.4,1.4h0a1.394,1.394,0,0,1-1.4,1.368h0A1.407,1.407,0,0,1,1063.6,559.1Zm0-3.684a1.376,1.376,0,0,1,1.368-1.4h0a1.382,1.382,0,0,1,1.4,1.4h0a1.359,1.359,0,0,1-1.4,1.368h0A1.37,1.37,0,0,1,1063.6,555.418Zm0-3.712a1.376,1.376,0,0,1,1.368-1.4h0a1.382,1.382,0,0,1,1.4,1.4h0a1.359,1.359,0,0,1-1.4,1.368h0A1.37,1.37,0,0,1,1063.6,551.705Zm0-3.684a1.352,1.352,0,0,1,1.368-1.368h0a1.359,1.359,0,0,1,1.4,1.368h0a1.382,1.382,0,0,1-1.4,1.4h0A1.394,1.394,0,0,1,1063.6,548.021Zm0-3.684a1.352,1.352,0,0,1,1.368-1.368h0a1.359,1.359,0,0,1,1.4,1.368h0a1.382,1.382,0,0,1-1.4,1.4h0A1.394,1.394,0,0,1,1063.6,544.337Zm0-3.712a1.388,1.388,0,0,1,1.368-1.368h0a1.376,1.376,0,0,1,1.4,1.368h0a1.382,1.382,0,0,1-1.4,1.4h0A1.394,1.394,0,0,1,1063.6,540.624Zm0-3.684a1.388,1.388,0,0,1,1.368-1.368h0a1.376,1.376,0,0,1,1.4,1.368h0a1.382,1.382,0,0,1-1.4,1.4h0A1.394,1.394,0,0,1,1063.6,536.94Zm0-3.684a1.388,1.388,0,0,1,1.368-1.368h0a1.376,1.376,0,0,1,1.4,1.368h0a1.382,1.382,0,0,1-1.4,1.4h0A1.394,1.394,0,0,1,1063.6,533.256Zm0-3.656a1.376,1.376,0,0,1,1.368-1.4h0a1.382,1.382,0,0,1,1.4,1.4h0a1.394,1.394,0,0,1-1.4,1.368h0A1.388,1.388,0,0,1,1063.6,529.6Zm0-3.712a1.376,1.376,0,0,1,1.368-1.4h0a1.382,1.382,0,0,1,1.4,1.4h0a1.394,1.394,0,0,1-1.4,1.368h0A1.388,1.388,0,0,1,1063.6,525.887Zm0-3.684a1.376,1.376,0,0,1,1.368-1.4h0a1.382,1.382,0,0,1,1.4,1.4h0a1.359,1.359,0,0,1-1.4,1.368h0A1.37,1.37,0,0,1,1063.6,522.2Zm0-3.684a1.376,1.376,0,0,1,1.368-1.4h0a1.382,1.382,0,0,1,1.4,1.4h0a1.382,1.382,0,0,1-1.4,1.4h0A1.413,1.413,0,0,1,1063.6,518.519Zm0-3.712a1.352,1.352,0,0,1,1.368-1.368h0a1.359,1.359,0,0,1,1.4,1.368h0a1.382,1.382,0,0,1-1.4,1.4h0A1.413,1.413,0,0,1,1063.6,514.806Zm0-3.684a1.388,1.388,0,0,1,1.368-1.368h0a1.376,1.376,0,0,1,1.4,1.368h0a1.382,1.382,0,0,1-1.4,1.4h0A1.413,1.413,0,0,1,1063.6,511.122Zm0-3.684a1.388,1.388,0,0,1,1.368-1.368h0a1.376,1.376,0,0,1,1.4,1.368h0a1.382,1.382,0,0,1-1.4,1.4h0A1.413,1.413,0,0,1,1063.6,507.438Zm0-3.684a1.388,1.388,0,0,1,1.368-1.368h0a1.376,1.376,0,0,1,1.4,1.368h0a1.382,1.382,0,0,1-1.4,1.4h0A1.413,1.413,0,0,1,1063.6,503.753Zm0-3.656a1.376,1.376,0,0,1,1.368-1.4h0a1.382,1.382,0,0,1,1.4,1.4h0a1.394,1.394,0,0,1-1.4,1.368h0A1.407,1.407,0,0,1,1063.6,500.1Zm0-3.712a1.376,1.376,0,0,1,1.368-1.4h0a1.382,1.382,0,0,1,1.4,1.4h0a1.394,1.394,0,0,1-1.4,1.368h0A1.407,1.407,0,0,1,1063.6,496.385Zm0-3.684a1.376,1.376,0,0,1,1.368-1.4h0a1.382,1.382,0,0,1,1.4,1.4h0a1.359,1.359,0,0,1-1.4,1.368h0A1.37,1.37,0,0,1,1063.6,492.7Zm0-3.684a1.376,1.376,0,0,1,1.368-1.4h0a1.382,1.382,0,0,1,1.4,1.4h0a1.359,1.359,0,0,1-1.4,1.368h0A1.37,1.37,0,0,1,1063.6,489.016Zm0-3.712a1.376,1.376,0,0,1,1.368-1.4h0a1.382,1.382,0,0,1,1.4,1.4h0a1.382,1.382,0,0,1-1.4,1.4h0A1.394,1.394,0,0,1,1063.6,485.3Zm0-3.684a1.352,1.352,0,0,1,1.368-1.368h0a1.359,1.359,0,0,1,1.4,1.368h0a1.382,1.382,0,0,1-1.4,1.4h0A1.394,1.394,0,0,1,1063.6,481.62Zm0-3.684a1.388,1.388,0,0,1,1.368-1.368h0a1.376,1.376,0,0,1,1.4,1.368h0a1.382,1.382,0,0,1-1.4,1.4h0A1.394,1.394,0,0,1,1063.6,477.935Zm0-3.712a1.388,1.388,0,0,1,1.368-1.368h0a1.376,1.376,0,0,1,1.4,1.368h0a1.382,1.382,0,0,1-1.4,1.4h0A1.394,1.394,0,0,1,1063.6,474.223Zm0-3.656a1.376,1.376,0,0,1,1.368-1.4h0a1.382,1.382,0,0,1,1.4,1.4h0a1.394,1.394,0,0,1-1.4,1.368h0A1.388,1.388,0,0,1,1063.6,470.567Zm0-3.684a1.376,1.376,0,0,1,1.368-1.4h0a1.382,1.382,0,0,1,1.4,1.4h0a1.394,1.394,0,0,1-1.4,1.368h0A1.388,1.388,0,0,1,1063.6,466.882Zm0-3.684a1.376,1.376,0,0,1,1.368-1.4h0a1.382,1.382,0,0,1,1.4,1.4h0a1.394,1.394,0,0,1-1.4,1.368h0A1.388,1.388,0,0,1,1063.6,463.2Zm0-3.712a1.376,1.376,0,0,1,1.368-1.4h0a1.382,1.382,0,0,1,1.4,1.4h0a1.359,1.359,0,0,1-1.4,1.368h0A1.37,1.37,0,0,1,1063.6,459.486Zm0-3.684a1.352,1.352,0,0,1,1.368-1.368h0a1.359,1.359,0,0,1,1.4,1.368h0a1.359,1.359,0,0,1-1.4,1.368h0A1.37,1.37,0,0,1,1063.6,455.8Zm0-3.684a1.352,1.352,0,0,1,1.368-1.368h0a1.359,1.359,0,0,1,1.4,1.368h0a1.382,1.382,0,0,1-1.4,1.4h0A1.413,1.413,0,0,1,1063.6,452.117Zm0-3.684a1.352,1.352,0,0,1,1.368-1.368h0a1.359,1.359,0,0,1,1.4,1.368h0a1.382,1.382,0,0,1-1.4,1.4h0A1.413,1.413,0,0,1,1063.6,448.433Zm0-3.712a1.388,1.388,0,0,1,1.368-1.368h0a1.376,1.376,0,0,1,1.4,1.368h0a1.382,1.382,0,0,1-1.4,1.4h0A1.413,1.413,0,0,1,1063.6,444.721Zm0-3.684a1.388,1.388,0,0,1,1.368-1.368h0a1.376,1.376,0,0,1,1.4,1.368h0a1.382,1.382,0,0,1-1.4,1.4h0A1.413,1.413,0,0,1,1063.6,441.036Zm0-3.656a1.376,1.376,0,0,1,1.368-1.4h0a1.382,1.382,0,0,1,1.4,1.4h0a1.394,1.394,0,0,1-1.4,1.368h0A1.407,1.407,0,0,1,1063.6,437.38Zm0-3.684a1.376,1.376,0,0,1,1.368-1.4h0a1.382,1.382,0,0,1,1.4,1.4h0a1.394,1.394,0,0,1-1.4,1.368h0A1.407,1.407,0,0,1,1063.6,433.7Z" transform="translate(-927.587 -428.588)" fill="#b4c6f4"/>
          <path id="Trazado_1216491" data-name="Trazado 1216491" d="M1064.968,950.418a1.294,1.294,0,0,1-.949-.419,1.436,1.436,0,0,1-.419-1,1.17,1.17,0,0,1,.419-.949,1.373,1.373,0,0,1,1.954,0,1.307,1.307,0,0,1,.419.949,1.339,1.339,0,0,1-.447,1,1.306,1.306,0,0,1-.949.419Z" transform="translate(-927.587 -800.087)" fill="#c4e9fc"/>
          <path id="Trazado_1216492" data-name="Trazado 1216492" d="M1002,949.068a1.336,1.336,0,0,1,1.368-1.368h0a1.359,1.359,0,0,1,1.4,1.368h0a1.382,1.382,0,0,1-1.4,1.4h0A1.376,1.376,0,0,1,1002,949.068Zm-3.768,0a1.359,1.359,0,0,1,1.4-1.368h0a1.359,1.359,0,0,1,1.4,1.368h0a1.382,1.382,0,0,1-1.4,1.4h0A1.4,1.4,0,0,1,998.233,949.068Zm-3.74,0a1.359,1.359,0,0,1,1.4-1.368h0a1.37,1.37,0,0,1,1.368,1.368h0a1.376,1.376,0,0,1-1.368,1.4h0A1.4,1.4,0,0,1,994.492,949.068Zm-3.712,0a1.352,1.352,0,0,1,1.368-1.368h0a1.359,1.359,0,0,1,1.4,1.368h0a1.382,1.382,0,0,1-1.4,1.4h0A1.413,1.413,0,0,1,990.78,949.068Zm-3.74,0a1.352,1.352,0,0,1,1.368-1.368h0a1.359,1.359,0,0,1,1.4,1.368h0a1.382,1.382,0,0,1-1.4,1.4h0A1.413,1.413,0,0,1,987.04,949.068Zm-3.74,0a1.336,1.336,0,0,1,1.368-1.368h0a1.359,1.359,0,0,1,1.4,1.368h0a1.382,1.382,0,0,1-1.4,1.4h0A1.376,1.376,0,0,1,983.3,949.068Z" transform="translate(-869.7 -800.132)" fill="#c4e9fc"/>
          <path id="Trazado_1216493" data-name="Trazado 1216493" d="M971.224,950.445a1.417,1.417,0,0,1-1-.419,1.568,1.568,0,0,1-.419-1,1.382,1.382,0,1,1,2.763,0,1.64,1.64,0,0,1-.363,1,1.489,1.489,0,0,1-1,.419Z" transform="translate(-859.968 -800.114)" fill="#c4e9fc"/>
        </g>
        <path id="Trazado_1216494" data-name="Trazado 1216494" d="M780.721,868.729q-.293,16.454-.893,33.27-1.507,42.663-4.829,82.813a91.212,91.212,0,0,1-73.742-.167q-2.512-39.606-5.638-79.883-1.382-17.626-2.819-35.085a74.922,74.922,0,0,1,87.893-.949Z" transform="translate(-357.054 -418.568)" fill="#5e3d75"/>
        <path id="Trazado_1216495" data-name="Trazado 1216495" d="M819.544,847.551a61.187,61.187,0,0,1,5.08,14.067,62.392,62.392,0,0,1-.474,28.86c-5.3-1.4-10.606-2.763-15.937-4.159-4.857,1.535-9.685,3.07-14.542,4.605a71.691,71.691,0,0,1-2.54-27.018,70.868,70.868,0,0,1,3.684-16.607q12.351.126,24.7.223Z" transform="translate(-427.697 -413.049)" fill="#222636"/>
        <path id="Trazado_1216496" data-name="Trazado 1216496" d="M948.912,883.5a38.136,38.136,0,0,1,16.607,8.932,40.847,40.847,0,0,1,8.932,12.923c8.764,19.119,8.653,49.906,8.625,55.1a66.952,66.952,0,0,1-7.4,8.318,68.541,68.541,0,0,1-26.153,15.379L944,962.294Q946.47,922.9,948.912,883.5Z" transform="translate(-538.141 -439.145)" fill="#5e3d75"/>
        <path id="Trazado_1216497" data-name="Trazado 1216497" d="M655.353,883.5a38.136,38.136,0,0,0-16.607,8.932,40.849,40.849,0,0,0-8.932,12.923c-8.764,19.119-8.653,49.906-8.625,55.1a66.951,66.951,0,0,0,7.4,8.318,68.541,68.541,0,0,0,26.153,15.379l5.526-21.855Q657.8,922.9,655.353,883.5Z" transform="translate(-305.429 -439.145)" fill="#5e3d75"/>
        <path id="Trazado_1216498" data-name="Trazado 1216498" d="M808.468,695.422a45.262,45.262,0,0,0,2.931-9.546c.754-4.047,2.652-14.1-2.456-23.083-1.284-2.233-3.433-5.889-7.7-7.4a11.864,11.864,0,0,0-5.08-.614,22.459,22.459,0,0,0-15.24-.167c-11.751,4.466-13.984,18.477-14.319,20.459-1.954,12.281,4.885,21.548,6.308,23.39q17.793-1.549,35.559-3.07Z" transform="translate(-410.005 -273.229)" fill="#222636"/>
        <path id="Trazado_1216581" data-name="Trazado 1216581" d="M66.4,0H301.166a66.4,66.4,0,0,1,66.4,66.4v60.1a66.4,66.4,0,0,1-66.4,66.4H66.4A66.4,66.4,0,0,1,0,126.5V66.4A66.4,66.4,0,0,1,66.4,0Z" transform="translate(197.5 582.293)" fill="#aa52f9"/>
        <path id="Trazado_1216499" data-name="Trazado 1216499" d="M259.335,1701.612H242.7V1623.6h15.407v1.842H244.57v74.328h14.765Z" transform="translate(-32.584 -972.672)" fill="#fff"/>
        <path id="Trazado_1216500" data-name="Trazado 1216500" d="M827.037,821.4a101.138,101.138,0,0,1-3.182,25.176,102.994,102.994,0,0,1-9.546,24.032,83.826,83.826,0,0,1-15.91-48.064q14.319-.586,28.665-1.144Z" transform="translate(-433.18 -394.378)" fill="#ff7f64"/>
        <g id="Grupo_1227973" data-name="Grupo 1227973" transform="translate(323.492 728.298)">
          <path id="Trazado_1216501" data-name="Trazado 1216501" d="M692.526,1936.108H654.9a5.992,5.992,0,0,1-6-6V1906.8a5.992,5.992,0,0,1,6-6h37.625a5.992,5.992,0,0,1,6,6v23.306A5.992,5.992,0,0,1,692.526,1936.108ZM654.9,1904.484a2.311,2.311,0,0,0-2.317,2.317v23.306a2.311,2.311,0,0,0,2.317,2.317h37.625a2.311,2.311,0,0,0,2.317-2.317V1906.8a2.311,2.311,0,0,0-2.317-2.317Z" transform="translate(-648.9 -1900.8)" fill="#fff"/>
          <rect id="Rectángulo_422231" data-name="Rectángulo 422231" width="45.942" height="3.684" transform="translate(1.842 10.606)" fill="#fff"/>
          <rect id="Rectángulo_422232" data-name="Rectángulo 422232" width="10.383" height="3.684" transform="translate(8.318 17.752)" fill="#fff"/>
          <rect id="Rectángulo_422233" data-name="Rectángulo 422233" width="17.78" height="3.684" transform="translate(8.318 24.339)" fill="#fff"/>
        </g>
        <g id="Grupo_1227974" data-name="Grupo 1227974" transform="translate(315.845 335.416)">
          <path id="Trazado_1216502" data-name="Trazado 1216502" d="M646.565,520.386H626.273a4.789,4.789,0,0,1-4.773-4.773v-17.64a4.789,4.789,0,0,1,4.773-4.773h20.292a4.789,4.789,0,0,1,4.773,4.773v17.64A4.789,4.789,0,0,1,646.565,520.386Zm-20.292-24.311A1.93,1.93,0,0,0,624.347,498v17.64a1.93,1.93,0,0,0,1.926,1.926h20.292a1.93,1.93,0,0,0,1.926-1.926V498a1.93,1.93,0,0,0-1.926-1.926Z" transform="translate(-621.5 -493.2)" fill="#b4c6f4"/>
          <path id="Trazado_1216503" data-name="Trazado 1216503" d="M685.492,527.6h-2.959v2.847h2.959a1.906,1.906,0,0,1,1.9,1.926v17.64a1.9,1.9,0,0,1-1.9,1.9h-20.32a1.924,1.924,0,0,1-1.926-1.9v-1.647H660.4v1.647a4.765,4.765,0,0,0,4.773,4.745h20.32a4.741,4.741,0,0,0,4.745-4.745v-17.64A4.747,4.747,0,0,0,685.492,527.6Z" transform="translate(-649.542 -517.998)" fill="#b4c6f4"/>
          <rect id="Rectángulo_422234" data-name="Rectángulo 422234" width="26.962" height="2.847" transform="translate(1.423 8.178)" fill="#b4c6f4"/>
        </g>
        <g id="Grupo_1227975" data-name="Grupo 1227975" transform="translate(494.45 368.38)">
          <path id="Trazado_1216504" data-name="Trazado 1216504" d="M1283.59,655.679a22.19,22.19,0,1,1,22.19-22.19A22.228,22.228,0,0,1,1283.59,655.679Zm0-40.36a18.17,18.17,0,1,0,18.17,18.17A18.19,18.19,0,0,0,1283.59,615.319Z" transform="translate(-1261.4 -611.3)" fill="#b4c6f4"/>
          <rect id="Rectángulo_422235" data-name="Rectángulo 422235" width="10.802" height="4.047" transform="translate(20.042 17.521) rotate(-89.8)" fill="#b4c6f4"/>
          <path id="Trazado_1216505" data-name="Trazado 1216505" d="M1356.562,703.718l-7.062-5.024,2.372-3.294,7.062,5.052Z" transform="translate(-1324.91 -671.926)" fill="#b4c6f4"/>
          <path id="Trazado_1216506" data-name="Trazado 1216506" d="M1337.5,685.249a2.149,2.149,0,1,1-2.149-2.149A2.15,2.15,0,0,1,1337.5,685.249Z" transform="translate(-1313.16 -663.06)" fill="#b4c6f4"/>
        </g>
        <g id="Grupo_1227976" data-name="Grupo 1227976" transform="translate(455.96 277.305)">
          <path id="Trazado_1216507" data-name="Trazado 1216507" d="M1154.37,317.9h-26.628a4.241,4.241,0,0,0-4.243,4.243v18.031a4.241,4.241,0,0,0,4.243,4.243h15.323v5.164a1.821,1.821,0,0,0,3.322,1.033l4.242-6.2h3.74a4.241,4.241,0,0,0,4.243-4.243V322.143A4.241,4.241,0,0,0,1154.37,317.9Z" transform="translate(-1123.5 -308.717)" fill="#b4c6f4"/>
          <path id="Trazado_1216508" data-name="Trazado 1216508" d="M1180.1,285h-26.627a5.271,5.271,0,0,0-5.275,5.275v1.535h2.038v-1.535a3.24,3.24,0,0,1,3.238-3.238H1180.1a3.24,3.24,0,0,1,3.238,3.238v18.031a3.24,3.24,0,0,1-3.238,3.238h-1.479v2.038h1.479a5.289,5.289,0,0,0,5.275-5.275V290.275A5.289,5.289,0,0,0,1180.1,285Z" transform="translate(-1141.306 -285)" fill="#b4c6f4"/>
        </g>
        <path id="Trazado_1216509" data-name="Trazado 1216509" d="M1246.852,853.217l-3.1-1.228a19.071,19.071,0,0,0,.251-2.568,19.61,19.61,0,0,0-.335-3.21l3.014-1.312a2.018,2.018,0,0,0,1.033-2.652l-1.9-4.354a2.018,2.018,0,0,0-2.652-1.033l-3.042,1.312a18.937,18.937,0,0,0-4.131-4.047l1.2-3.042a1.988,1.988,0,0,0-1.144-2.6l-4.438-1.758a1.988,1.988,0,0,0-2.6,1.144l-1.228,3.1a19.052,19.052,0,0,0-2.568-.251,19.617,19.617,0,0,0-3.21.335l-1.312-3.014a2.018,2.018,0,0,0-2.651-1.033l-4.354,1.9a2.018,2.018,0,0,0-1.033,2.652l1.312,3.042a18.941,18.941,0,0,0-4.047,4.131l-3.042-1.2a1.988,1.988,0,0,0-2.6,1.144l-1.758,4.438a1.988,1.988,0,0,0,1.144,2.6l3.1,1.228a19.031,19.031,0,0,0-.251,2.568,19.61,19.61,0,0,0,.335,3.21l-3.014,1.312a2.018,2.018,0,0,0-1.033,2.652l1.9,4.354a2.018,2.018,0,0,0,2.652,1.033l3.042-1.312a18.939,18.939,0,0,0,4.131,4.047l-1.2,3.042a1.988,1.988,0,0,0,1.144,2.6l4.438,1.758a1.988,1.988,0,0,0,2.6-1.144l1.228-3.1a19.051,19.051,0,0,0,2.568.251,19.616,19.616,0,0,0,3.21-.335l1.312,3.014a2.018,2.018,0,0,0,2.652,1.033l4.354-1.9a2.018,2.018,0,0,0,1.033-2.652l-1.312-3.042a18.939,18.939,0,0,0,4.047-4.131l3.042,1.2a1.988,1.988,0,0,0,2.6-1.144l1.758-4.438A1.988,1.988,0,0,0,1246.852,853.217Z" transform="translate(-724.407 -398.116)" fill="#b4c6f4"/>
        <path id="Trazado_1216510" data-name="Trazado 1216510" d="M1371.515,1767.373l-2.317-.921a14.521,14.521,0,0,0,.2-1.926,15.256,15.256,0,0,0-.251-2.4l2.261-.977a1.516,1.516,0,0,0,.782-1.982l-1.424-3.266a1.516,1.516,0,0,0-1.982-.782l-2.289.977a13.819,13.819,0,0,0-3.1-3.015l.893-2.289a1.514,1.514,0,0,0-.837-1.954l-3.322-1.312a1.514,1.514,0,0,0-1.954.837l-.921,2.317a14.517,14.517,0,0,0-1.926-.2,15.258,15.258,0,0,0-2.4.251l-.977-2.261a1.516,1.516,0,0,0-1.982-.781l-3.266,1.423a1.516,1.516,0,0,0-.781,1.982l.977,2.289a13.813,13.813,0,0,0-3.014,3.1l-2.289-.893a1.514,1.514,0,0,0-1.954.837l-1.312,3.322a1.514,1.514,0,0,0,.837,1.954l2.317.921a14.517,14.517,0,0,0-.2,1.926,15.271,15.271,0,0,0,.251,2.4l-2.261.977a1.516,1.516,0,0,0-.782,1.982l1.423,3.266a1.516,1.516,0,0,0,1.982.781l2.289-.977a13.815,13.815,0,0,0,3.1,3.014l-.893,2.289a1.514,1.514,0,0,0,.837,1.954l3.322,1.312a1.514,1.514,0,0,0,1.954-.837l.921-2.317a14.542,14.542,0,0,0,1.926.2,15.271,15.271,0,0,0,2.4-.251l.977,2.261a1.516,1.516,0,0,0,1.982.782l3.266-1.423a1.516,1.516,0,0,0,.782-1.982l-.977-2.289a13.813,13.813,0,0,0,3.015-3.1l2.289.893a1.514,1.514,0,0,0,1.954-.837l1.312-3.321A1.514,1.514,0,0,0,1371.515,1767.373Z" transform="translate(-822.33 -1061.935)" fill="#fff"/>
        <path id="Trazado_1216511" data-name="Trazado 1216511" d="M636.463,304.3a2.418,2.418,0,0,1-.893-.167l-2.68-1.061a2.334,2.334,0,0,1-1.34-1.284,2.413,2.413,0,0,1-.028-1.87l.391-.977a16.045,16.045,0,0,1-1.4-1.368l-1,.419a2.465,2.465,0,0,1-3.182-1.256l-1.144-2.624a2.453,2.453,0,0,1,1.256-3.21l.977-.419a8.1,8.1,0,0,1-.084-1.2,2.739,2.739,0,0,1,.056-.754l-.977-.391a2.418,2.418,0,0,1-1.368-3.154l1.061-2.68a2.465,2.465,0,0,1,3.154-1.368l.977.391a16.054,16.054,0,0,1,1.368-1.4l-.419-.977a2.417,2.417,0,0,1,1.256-3.182l2.624-1.144a2.465,2.465,0,0,1,3.182,1.256l.419.977a9.12,9.12,0,0,1,1.954-.028l.391-.977a2.465,2.465,0,0,1,3.154-1.368l2.679,1.061a2.418,2.418,0,0,1,1.368,3.154l-.391.977a16.058,16.058,0,0,1,1.4,1.368l.977-.419a2.44,2.44,0,0,1,3.182,1.256l1.144,2.624a2.417,2.417,0,0,1-1.256,3.182l-.977.419a8.107,8.107,0,0,1,.084,1.2,2.74,2.74,0,0,1-.056.754l.977.391a2.333,2.333,0,0,1,1.34,1.284,2.413,2.413,0,0,1,.028,1.87l-1.061,2.68a2.428,2.428,0,0,1-2.261,1.535h0a2.418,2.418,0,0,1-.893-.167l-.977-.391a12.89,12.89,0,0,1-1.368,1.4l.419.977a2.417,2.417,0,0,1-1.256,3.182l-2.624,1.144a2.465,2.465,0,0,1-3.182-1.256l-.419-.977a11.334,11.334,0,0,1-1.954.028l-.391.977a2.428,2.428,0,0,1-2.261,1.535ZM631.3,294.61l.586.754a9.685,9.685,0,0,0,2.233,2.177l.782.558-1.089,2.735,2.652,1.033,1.089-2.763.949.14a10.231,10.231,0,0,0,1.368.14,10.7,10.7,0,0,0,1.731-.167l.949-.167,1.172,2.707,2.624-1.144-1.172-2.707.754-.586a10.292,10.292,0,0,0,2.177-2.233l.558-.782,2.735,1.089,1.061-2.679-2.763-1.089.167-1.2a7.577,7.577,0,0,0,.112-1.144,10.7,10.7,0,0,0-.167-1.731l-.167-.949,2.707-1.172L651.2,282.8l-2.707,1.172-.586-.754a10.293,10.293,0,0,0-2.233-2.177l-.782-.558,1.089-2.735-2.68-1.061-1.089,2.763-.949-.14a10.235,10.235,0,0,0-1.368-.14,10.7,10.7,0,0,0-1.731.167l-.949.167-1.172-2.707-2.624,1.144,1.172,2.707-.754.586a10.271,10.271,0,0,0-2.177,2.233l-.558.782-2.735-1.089-1.061,2.68,2.763,1.089-.14.949a10.238,10.238,0,0,0-.14,1.368,10.7,10.7,0,0,0,.167,1.73l.167.949L627.42,293.1l1.144,2.624,2.707-1.172Z" transform="translate(-308.086)" fill="#b4c6f4"/>
        <g id="Grupo_1227977" data-name="Grupo 1227977" transform="translate(375.575 330.085)">
          <path id="Trazado_1216512" data-name="Trazado 1216512" d="M893.572,508.307a8.506,8.506,0,0,0,.084-1.144,7.981,7.981,0,0,0-7.983-7.983c-4.41,0-.614,0-.977.056a9.427,9.427,0,0,0-2.484-2.345,9.953,9.953,0,0,0-15.351,8.318c0,5.471.14,1.842.419,2.763a7.488,7.488,0,0,0-3.768,5.3,6.378,6.378,0,0,0-.112,1.256,7.546,7.546,0,0,0,7.564,7.536h18.394a7.54,7.54,0,0,0,7.536-7.536c0-4.159-1.256-4.857-3.321-6.252Zm-4.215,10.83H870.964a4.628,4.628,0,0,1-4.633-4.577c0-2.512.056-.865.2-1.256a4.575,4.575,0,0,1,3.042-3.1l1.619-.53-.7-1.507a6.9,6.9,0,0,1-.67-2.931,7,7,0,0,1,6.978-6.978c3.824,0,4.577,1.2,5.889,3.238.028.056.056.084.084.14l.112.2.474.754.5-.14.558-.14a5.994,5.994,0,0,1,1.256-.167,5,5,0,0,1,5.024,5.024c0,2.791-.056.893-.223,1.451l-.391,1.228,1.172.53a4.619,4.619,0,0,1,2.679,4.187c0,1.814-2.066,4.578-4.578,4.578Z" transform="translate(-855.613 -489.383)" fill="#b4c6f4"/>
          <path id="Trazado_1216513" data-name="Trazado 1216513" d="M862.825,484.511a5.525,5.525,0,0,1-.251,1.675,6.881,6.881,0,0,0-5.889-3.238,7,7,0,0,0-6.978,6.978c0,3.852.223,2.01.67,2.931l.7,1.507-1.619.53a4.575,4.575,0,0,0-3.042,3.1h-4.857a6.051,6.051,0,0,1-6.057-6.057,5.582,5.582,0,0,1,4.271-5.806,8.283,8.283,0,0,1-.782-3.573,8.452,8.452,0,0,1,8.457-8.457c4.689,0,5.778,1.675,7.229,4.131a8.072,8.072,0,0,1,1.647-.223,6.507,6.507,0,0,1,5.806,3.6,6.364,6.364,0,0,1,.7,2.9Z" transform="translate(-835.5 -474.1)" fill="#b4c6f4"/>
          <path id="Trazado_1216514" data-name="Trazado 1216514" d="M934.177,519.314l-.5.14-.474-.754A5.781,5.781,0,0,1,934.177,519.314Z" transform="translate(-905.93 -506.252)" fill="#b4c6f4"/>
        </g>
        <g id="Grupo_1227978" data-name="Grupo 1227978" transform="translate(407.115 732.736)">
          <path id="Trazado_1216515" data-name="Trazado 1216515" d="M1006.572,1950.907a8.508,8.508,0,0,0,.084-1.144,7.981,7.981,0,0,0-7.983-7.983c-4.41,0-.614,0-.977.056a9.423,9.423,0,0,0-2.484-2.345,9.953,9.953,0,0,0-15.351,8.318c0,5.471.14,1.842.419,2.763a7.487,7.487,0,0,0-3.768,5.3,6.37,6.37,0,0,0-.112,1.256,7.546,7.546,0,0,0,7.564,7.536h18.394a7.54,7.54,0,0,0,7.536-7.536c0-4.159-1.256-4.857-3.321-6.252Zm-4.215,10.83H983.964a4.628,4.628,0,0,1-4.633-4.578c0-2.512.056-.865.2-1.256a4.575,4.575,0,0,1,3.042-3.1l1.619-.53-.7-1.507a6.905,6.905,0,0,1-.67-2.931,7,7,0,0,1,6.978-6.978c3.824,0,4.578,1.2,5.889,3.238.028.056.056.084.084.14l.112.2.474.754.5-.14.558-.14a6,6,0,0,1,1.256-.167,5,5,0,0,1,5.024,5.024c0,2.791-.056.893-.223,1.451l-.391,1.228,1.172.53a4.619,4.619,0,0,1,2.68,4.187c0,1.814-2.065,4.578-4.578,4.578Z" transform="translate(-968.613 -1931.983)" fill="#fff"/>
          <path id="Trazado_1216516" data-name="Trazado 1216516" d="M975.825,1927.111a5.528,5.528,0,0,1-.251,1.675,6.881,6.881,0,0,0-5.889-3.238,7,7,0,0,0-6.978,6.978c0,3.852.223,2.01.67,2.931l.7,1.507-1.619.53a4.574,4.574,0,0,0-3.042,3.1h-4.857a6.051,6.051,0,0,1-6.057-6.057,5.582,5.582,0,0,1,4.27-5.806,8.283,8.283,0,0,1-.782-3.573,8.452,8.452,0,0,1,8.457-8.457c4.689,0,5.778,1.675,7.229,4.131a8.058,8.058,0,0,1,1.647-.223,6.507,6.507,0,0,1,5.806,3.6A6.363,6.363,0,0,1,975.825,1927.111Z" transform="translate(-948.5 -1916.7)" fill="#fff"/>
          <path id="Trazado_1216517" data-name="Trazado 1216517" d="M1047.177,1961.914l-.5.14-.474-.754A5.771,5.771,0,0,1,1047.177,1961.914Z" transform="translate(-1018.93 -1948.852)" fill="#fff"/>
        </g>
        <path id="Trazado_1216518" data-name="Trazado 1216518" d="M817.627,697.631a98.211,98.211,0,0,0-1.507-10.55c-.335-.558-6.336-9.881-17.7-9.881s-17.361,9.322-17.7,9.881c-.837,4.382-1.284,8.038-1.507,10.55-.977,10.523-1.675,19.036,2.763,26.935A27.1,27.1,0,0,0,786,730.009a28.331,28.331,0,0,0,12.421,7.48,28.233,28.233,0,0,0,12.421-7.48,26.715,26.715,0,0,0,3.1-3.964c5.331-8.4,4.578-18.477,3.684-28.386Z" transform="translate(-418.829 -290.426)" fill="#ff9b86"/>
        <path id="Trazado_1216519" data-name="Trazado 1216519" d="M815.5,678.453a39.632,39.632,0,0,1-8.848,6.141,38.745,38.745,0,0,1-11.918,3.74,32.587,32.587,0,0,1-11.918-3.07,32.973,32.973,0,0,1-10.216-7.48,21.549,21.549,0,0,1,5.778-10.551c7.731-7.508,21.883-8.625,30.312-1.368a21.554,21.554,0,0,1,6.81,12.616Z" transform="translate(-414.581 -278.728)" fill="#222636"/>
        <path id="Trazado_1216520" data-name="Trazado 1216520" d="M751.446,1289.52a43.155,43.155,0,0,0-14.793-14.821l-34.833-6.783c0-.363.028-.754.056-1.116-.977.2-1.926.391-2.9.558-.977-.2-1.926-.391-2.9-.558,0,.363.028.754.056,1.116l-34.834,6.783A43.155,43.155,0,0,0,646.5,1289.52c-5.666,9.657-6.057,19.594-5.722,28.665,1.172,31.735,11.918,68.83,15.3,80.05a14.106,14.106,0,0,0,10.495,4.438,13.776,13.776,0,0,0,9.071-3.963q1.675-45.97,3.349-91.885c6.671-2.289,13.342-4.605,20.013-6.894,6.671,2.289,13.342,4.605,20.013,6.894q1.675,45.97,3.349,91.885a13.916,13.916,0,0,0,9.071,3.964,14.151,14.151,0,0,0,10.495-4.438c3.377-11.193,14.1-48.287,15.3-80.05.335-9.071-.056-18.98-5.722-28.665Z" transform="translate(-319.489 -715.46)" fill="#222636"/>
        <path id="Trazado_1216521" data-name="Trazado 1216521" d="M910.829,777.1c.251-.419,1.675-2.763,3.126-2.54,1.563.251,2.456,3.405,2.428,5.666-.084,4.689-4.3,7.815-5.3,8.541-.754-1.758-2.875-7.341-.223-11.667Z" transform="translate(-513.315 -360.602)" fill="#ff9b86"/>
        <path id="Trazado_1216522" data-name="Trazado 1216522" d="M769.953,777.1c-.251-.419-1.675-2.763-3.126-2.54-1.563.251-2.456,3.405-2.428,5.666.084,4.689,4.3,7.815,5.3,8.541.754-1.758,2.875-7.341.223-11.667Z" transform="translate(-408.668 -360.602)" fill="#ff9b86"/>
        <path id="Trazado_1216523" data-name="Trazado 1216523" d="M915.9,736.976a19.452,19.452,0,0,1-.7,3.349,20.74,20.74,0,0,1-2.317,5.192L912.3,724.5h2.205C914.98,728.659,915.426,732.818,915.9,736.976Z" transform="translate(-515.289 -324.524)" fill="#222636"/>
        <path id="Trazado_1216524" data-name="Trazado 1216524" d="M773.9,736.976a19.44,19.44,0,0,0,.7,3.349,20.738,20.738,0,0,0,2.317,5.192q.293-10.509.586-21.017H775.3C774.821,728.659,774.375,732.818,773.9,736.976Z" transform="translate(-415.518 -324.524)" fill="#222636"/>
        <path id="Trazado_1216525" data-name="Trazado 1216525" d="M967.226,1039.971a76.1,76.1,0,0,1,3.377-7.089c1-1.9,2.065-3.628,3.07-5.219-.2-2.345-.391-4.717-.614-7.089-.977-10.383-2.233-20.431-3.684-30.172q-1.089,17.835-2.149,35.7l-5.526,15.072c1.842-.419,3.684-.809,5.526-1.228Z" transform="translate(-550.9 -516.208)" fill="#222636"/>
        <path id="Trazado_1216526" data-name="Trazado 1216526" d="M701.348,1039.971a76.094,76.094,0,0,0-3.377-7.089c-1-1.9-2.065-3.628-3.07-5.219.2-2.345.391-4.717.614-7.089.977-10.383,2.233-20.431,3.684-30.172q1.089,17.835,2.149,35.7l5.526,15.072c-1.842-.419-3.684-.809-5.526-1.228Z" transform="translate(-358.568 -516.208)" fill="#222636"/>
        <path id="Trazado_1216527" data-name="Trazado 1216527" d="M947.486,1718.3q-.335,4.982-.67,9.964c.7,1.368,1.423,2.735,2.121,4.1a42.33,42.33,0,0,1-.056,7.369,45.171,45.171,0,0,1-2.4,10.662c-1.116,3.182-1.7,4.773-3.042,6.364-2.679,3.154-7.145,5.192-8.569,3.852-.949-.893-.279-3.014.279-5.164.14-.586,1.061-9.015,2.931-25.9.251-2.4.614-5.917.977-10.271,2.819-.307,5.61-.642,8.429-.949Z" transform="translate(-531.216 -1040.94)" fill="#222636"/>
        <path id="Trazado_1216528" data-name="Trazado 1216528" d="M710.107,1718.3l.67,9.964c-.7,1.368-1.423,2.735-2.121,4.1a42.329,42.329,0,0,0,.056,7.369,45.178,45.178,0,0,0,2.4,10.662c1.116,3.182,1.7,4.773,3.042,6.364,2.68,3.154,7.145,5.192,8.569,3.852.949-.893.279-3.014-.279-5.164-.14-.586-1.061-9.015-2.931-25.9-.251-2.4-.614-5.917-.977-10.271-2.819-.307-5.61-.642-8.429-.949Z" transform="translate(-368.388 -1040.94)" fill="#222636"/>
        <path id="Trazado_1216529" data-name="Trazado 1216529" d="M943.255,1433.78l-1.814-.391c2.037-9.769,3.908-19.677,5.526-29.5,3.21-19.259,5.694-38.881,7.369-58.363a55.7,55.7,0,0,0-22.636-28.888l1-1.535a58.172,58.172,0,0,1,17.361,17.361,56.975,56.975,0,0,1,6.085,12.672l.056.2v.2c-1.7,19.566-4.187,39.327-7.424,58.7-1.647,9.853-3.517,19.789-5.554,29.586Z" transform="translate(-529.274 -750.279)" fill="#5e3d75"/>
        <path id="Trazado_1216530" data-name="Trazado 1216530" d="M688.251,1433.708c-2.038-9.8-3.908-19.734-5.554-29.586-3.238-19.37-5.722-39.132-7.4-58.7v-.2l.056-.2a57.06,57.06,0,0,1,6.113-12.672A58.5,58.5,0,0,1,698.829,1315l1,1.535a55.7,55.7,0,0,0-22.636,28.888c1.675,19.454,4.159,39.1,7.369,58.363,1.647,9.825,3.489,19.761,5.526,29.5l-1.814.391Z" transform="translate(-344.439 -750.207)" fill="#5e3d75"/>
        <path id="Trazado_1216531" data-name="Trazado 1216531" d="M760.118,1210.381H685.287c-3.349,0-6.364-2.317-6.755-5.219l-6-44.184A6.021,6.021,0,0,1,678.7,1154h88a6.021,6.021,0,0,1,6.168,6.978l-6,44.184C766.482,1208.065,763.439,1210.381,760.118,1210.381Z" transform="translate(-342.396 -634.145)" fill="#fff"/>
        <rect id="Rectángulo_422236" data-name="Rectángulo 422236" width="12.365" height="4.019" transform="translate(396.76 490.66)" fill="#222636"/>
        <rect id="Rectángulo_422237" data-name="Rectángulo 422237" width="12.365" height="4.019" transform="translate(352.883 490.66)" fill="#222636"/>
        <g id="Grupo_1227979" data-name="Grupo 1227979" transform="translate(210.423 282.831)">
          <path id="Trazado_1216532" data-name="Trazado 1216532" d="M327.534,372.681H256.081A12.281,12.281,0,0,1,243.8,360.4V317.081A12.281,12.281,0,0,1,256.081,304.8h71.453a12.281,12.281,0,0,1,12.281,12.281V360.4A12.281,12.281,0,0,1,327.534,372.681Zm-71.425-64.168a8.6,8.6,0,0,0-8.6,8.6v43.319a8.6,8.6,0,0,0,8.6,8.6h71.453a8.6,8.6,0,0,0,8.6-8.6V317.109a8.6,8.6,0,0,0-8.6-8.6H256.109Z" transform="translate(-243.8 -304.8)" fill="#b4c6f4"/>
          <rect id="Rectángulo_422238" data-name="Rectángulo 422238" width="32.321" height="3.684" transform="translate(12.923 15.268)" fill="#b4c6f4"/>
          <rect id="Rectángulo_422239" data-name="Rectángulo 422239" width="32.321" height="3.684" transform="translate(12.923 23.334)" fill="#b4c6f4"/>
          <rect id="Rectángulo_422240" data-name="Rectángulo 422240" width="32.321" height="3.684" transform="translate(12.923 31.428)" fill="#b4c6f4"/>
          <rect id="Rectángulo_422241" data-name="Rectángulo 422241" width="32.321" height="3.684" transform="translate(12.923 39.495)" fill="#b4c6f4"/>
          <rect id="Rectángulo_422242" data-name="Rectángulo 422242" width="12.923" height="3.684" transform="translate(59.34 15.268)" fill="#b4c6f4"/>
          <rect id="Rectángulo_422243" data-name="Rectángulo 422243" width="12.923" height="3.684" transform="translate(59.34 23.334)" fill="#b4c6f4"/>
          <path id="Trazado_1216533" data-name="Trazado 1216533" d="M497.275,459.6h5.778a2.871,2.871,0,0,1,2.875,2.875v5.778a2.871,2.871,0,0,1-2.875,2.875h-5.778a2.871,2.871,0,0,1-2.875-2.875v-5.778A2.871,2.871,0,0,1,497.275,459.6Z" transform="translate(-424.454 -416.393)" fill="#b4c6f4"/>
        </g>
        <path id="Trazado_1216534" data-name="Trazado 1216534" d="M332.292,639.9H260.839A10.423,10.423,0,0,0,250.4,650.339v43.319A10.423,10.423,0,0,0,260.839,704.1h71.453a10.423,10.423,0,0,0,10.439-10.439V650.339A10.423,10.423,0,0,0,332.292,639.9ZM307.9,653.3h12.923v3.684H307.9Zm-14.1,27.939H261.481v-3.684H293.8Zm0-8.066H261.481v-3.684H293.8Zm0-8.094H261.481v-3.684H293.8Zm0-8.066H261.481v-3.684H293.8Zm14.1,4.382h12.923v3.684H307.9Zm22.162,28.5a2.871,2.871,0,0,1-2.875,2.875h-5.778a2.871,2.871,0,0,1-2.875-2.875v-5.778a2.871,2.871,0,0,1,2.875-2.875h5.778a2.871,2.871,0,0,1,2.875,2.875Z" transform="translate(-38.135 -263.537)" fill="#b4c6f4"/>
        <g id="Grupo_1227980" data-name="Grupo 1227980" transform="translate(274.843 347.485)">
          <path id="Trazado_1216535" data-name="Trazado 1216535" d="M475.968,539.218a1.25,1.25,0,0,1-.949-.419,1.436,1.436,0,0,1-.419-1,1.378,1.378,0,0,1,.363-.949,1.411,1.411,0,0,1,2.4.949,1.465,1.465,0,0,1-.419,1,1.436,1.436,0,0,1-1,.419Z" transform="translate(-474.6 -536.437)" fill="#b4c6f4"/>
          <path id="Trazado_1216536" data-name="Trazado 1216536" d="M474.6,577.025a1.376,1.376,0,0,1,1.368-1.4h0a1.382,1.382,0,0,1,1.4,1.4h0a1.394,1.394,0,0,1-1.4,1.368h0A1.388,1.388,0,0,1,474.6,577.025Zm0-3.684a1.376,1.376,0,0,1,1.368-1.4h0a1.382,1.382,0,0,1,1.4,1.4h0a1.394,1.394,0,0,1-1.4,1.368h0A1.388,1.388,0,0,1,474.6,573.341Zm0-3.74a1.352,1.352,0,0,1,1.368-1.368h0a1.359,1.359,0,0,1,1.4,1.368h0a1.382,1.382,0,0,1-1.4,1.4h0A1.394,1.394,0,0,1,474.6,569.6Zm0-3.684a1.376,1.376,0,0,1,1.368-1.4h0a1.382,1.382,0,0,1,1.4,1.4h0a1.359,1.359,0,0,1-1.4,1.368h0A1.37,1.37,0,0,1,474.6,565.917Zm0-3.684a1.376,1.376,0,0,1,1.368-1.4h0a1.382,1.382,0,0,1,1.4,1.4h0a1.394,1.394,0,0,1-1.4,1.368h0A1.388,1.388,0,0,1,474.6,562.232Zm0-3.74a1.352,1.352,0,0,1,1.368-1.368h0a1.359,1.359,0,0,1,1.4,1.368h0a1.382,1.382,0,0,1-1.4,1.4h0A1.394,1.394,0,0,1,474.6,558.492Zm0-3.684a1.376,1.376,0,0,1,1.368-1.4h0a1.382,1.382,0,0,1,1.4,1.4h0a1.394,1.394,0,0,1-1.4,1.368h0A1.388,1.388,0,0,1,474.6,554.808Zm0-3.74a1.388,1.388,0,0,1,1.368-1.368h0a1.376,1.376,0,0,1,1.4,1.368h0a1.382,1.382,0,0,1-1.4,1.4h0A1.394,1.394,0,0,1,474.6,551.068Z" transform="translate(-474.6 -545.998)" fill="#b4c6f4"/>
          <path id="Trazado_1216537" data-name="Trazado 1216537" d="M475.968,658.79a1.379,1.379,0,0,1-1.368-1.4,1.37,1.37,0,0,1,.419-1,1.486,1.486,0,0,1,1.954.028,1.356,1.356,0,0,1,.419.949,1.417,1.417,0,0,1-.419,1A1.387,1.387,0,0,1,475.968,658.79Z" transform="translate(-474.6 -622.655)" fill="#b4c6f4"/>
        </g>
        <path id="Trazado_1216538" data-name="Trazado 1216538" d="M1052.224,459.6h0a6.23,6.23,0,0,1,6.224,6.224v14.988a6.23,6.23,0,0,1-6.224,6.224h0a6.23,6.23,0,0,1-6.224-6.224V465.824A6.23,6.23,0,0,1,1052.224,459.6Z" transform="translate(-611.671 -133.562)" fill="#b4c6f4"/>
        <path id="Trazado_1216539" data-name="Trazado 1216539" d="M1127.844,492.366H1057.2V471.6h70.644a10.383,10.383,0,0,1,0,20.766Zm-66.932-3.712h66.932a6.7,6.7,0,0,0,0-13.4h-66.932Z" transform="translate(-619.745 -142.212)" fill="#b4c6f4"/>
        <circle id="Elipse_13260" data-name="Elipse 13260" cx="6.922" cy="6.922" r="6.922" transform="translate(431.504 360.92) rotate(-23.9)" fill="#b4c6f4"/>
        <circle id="Elipse_13261" data-name="Elipse 13261" cx="6.922" cy="6.922" r="6.922" transform="translate(431.487 378.796) rotate(-23.6)" fill="#b4c6f4"/>
        <circle id="Elipse_13262" data-name="Elipse 13262" cx="6.922" cy="6.922" r="6.922" transform="translate(432.71 405.46) rotate(-80.5)" fill="#b4c6f4"/>
        <circle id="Elipse_13263" data-name="Elipse 13263" cx="6.922" cy="6.922" r="6.922" transform="translate(432.748 423.011) rotate(-80.5)" fill="#b4c6f4"/>
        <circle id="Elipse_13264" data-name="Elipse 13264" cx="6.922" cy="6.922" r="6.922" transform="translate(431.547 431.073) rotate(-23.9)" fill="#b4c6f4"/>
        <path id="Trazado_1216540" data-name="Trazado 1216540" d="M1059.1,593.28a1.137,1.137,0,0,1-.893-.419l-2.093-2.4a1.207,1.207,0,1,1,1.814-1.591l1.116,1.284,1.619-2.205a1.2,1.2,0,1,1,1.926,1.424l-2.512,3.405a1.331,1.331,0,0,1-.921.5h-.056Z" transform="translate(-618.747 -225.738)" fill="#fff"/>
        <path id="Trazado_1216541" data-name="Trazado 1216541" d="M1285.58,502.273a1.736,1.736,0,0,1-1.284-.586l-2.987-3.433a1.7,1.7,0,1,1,2.568-2.233l1.591,1.814,2.317-3.126a1.717,1.717,0,1,1,2.763,2.038l-3.573,4.857a1.72,1.72,0,0,1-1.312.7h-.084Z" transform="translate(-780.998 -158.372)" fill="#b4c6f4"/>
        <path id="Trazado_1216542" data-name="Trazado 1216542" d="M1059.1,657.28a1.137,1.137,0,0,1-.893-.419l-2.093-2.4a1.207,1.207,0,1,1,1.814-1.591l1.116,1.284,1.619-2.2a1.2,1.2,0,0,1,1.926,1.423l-2.512,3.405a1.234,1.234,0,0,1-.921.5h-.056Z" transform="translate(-618.747 -271.874)" fill="#fff"/>
        <path id="Trazado_1216543" data-name="Trazado 1216543" d="M1059.1,782.38a1.137,1.137,0,0,1-.893-.419l-2.093-2.4a1.207,1.207,0,1,1,1.814-1.591l1.116,1.284,1.619-2.205a1.2,1.2,0,0,1,1.926,1.423l-2.512,3.405a1.235,1.235,0,0,1-.921.5h-.056Z" transform="translate(-618.747 -362.057)" fill="#fff"/>
        <g id="Grupo_1227981" data-name="Grupo 1227981" transform="translate(443.568 346.93)">
          <path id="Trazado_1216544" data-name="Trazado 1216544" d="M1080.468,595.817a1.379,1.379,0,0,1-1.368-1.4,1.17,1.17,0,0,1,.419-.949,1.4,1.4,0,0,1,1.954,0,1.356,1.356,0,0,1,.419.949,1.339,1.339,0,0,1-.447,1,1.307,1.307,0,0,1-.949.419Z" transform="translate(-1079.1 -576.712)" fill="#b4c6f4"/>
          <path id="Trazado_1216545" data-name="Trazado 1216545" d="M1099.117,594.368a1.394,1.394,0,0,1,1.4-1.368h0a1.388,1.388,0,0,1,1.368,1.368h0a1.376,1.376,0,0,1-1.368,1.4h0A1.382,1.382,0,0,1,1099.117,594.368Zm-3.573,0a1.394,1.394,0,0,1,1.4-1.368h0a1.352,1.352,0,0,1,1.368,1.368h0a1.359,1.359,0,0,1-1.368,1.4h0A1.382,1.382,0,0,1,1095.545,594.368Zm-3.545,0a1.37,1.37,0,0,1,1.368-1.368h0a1.376,1.376,0,0,1,1.4,1.368h0a1.382,1.382,0,0,1-1.4,1.4h0A1.359,1.359,0,0,1,1092,594.368Z" transform="translate(-1088.399 -576.658)" fill="#b4c6f4"/>
          <path id="Trazado_1216546" data-name="Trazado 1216546" d="M1131.668,595.718a1.294,1.294,0,0,1-.949-.419,1.436,1.436,0,0,1-.419-1,1.209,1.209,0,0,1,.419-.949,1.373,1.373,0,0,1,1.954,0,1.356,1.356,0,0,1,.419.949,1.416,1.416,0,0,1-.419,1A1.387,1.387,0,0,1,1131.668,595.718Z" transform="translate(-1116.009 -576.613)" fill="#b4c6f4"/>
          <path id="Trazado_1216547" data-name="Trazado 1216547" d="M1130.3,558.646a1.382,1.382,0,0,1,1.4-1.4h0a1.413,1.413,0,0,1,1.368,1.4h0a1.407,1.407,0,0,1-1.368,1.368h0A1.376,1.376,0,0,1,1130.3,558.646Zm0-4.1a1.382,1.382,0,0,1,1.4-1.4h0a1.394,1.394,0,0,1,1.368,1.4h0a1.37,1.37,0,0,1-1.368,1.368h0A1.359,1.359,0,0,1,1130.3,554.543Zm0-4.075a1.359,1.359,0,0,1,1.4-1.368h0a1.37,1.37,0,0,1,1.368,1.368h0a1.394,1.394,0,0,1-1.368,1.4h0A1.382,1.382,0,0,1,1130.3,550.468Z" transform="translate(-1116.009 -545.011)" fill="#b4c6f4"/>
          <path id="Trazado_1216548" data-name="Trazado 1216548" d="M1131.724,537.2a1.417,1.417,0,0,1-1-.419,1.437,1.437,0,0,1-.419-1,1.209,1.209,0,0,1,.419-.949,1.455,1.455,0,0,1,1.954,0,1.356,1.356,0,0,1,.419.949,1.432,1.432,0,0,1-1.368,1.424Z" transform="translate(-1116.009 -534.45)" fill="#b4c6f4"/>
        </g>
        <rect id="Rectángulo_422244" data-name="Rectángulo 422244" width="17.919" height="2.763" transform="translate(452.108 334.942)" fill="#b4c6f4"/>
        <rect id="Rectángulo_422245" data-name="Rectángulo 422245" width="8.96" height="2.763" transform="translate(452.108 340.022)" fill="#b4c6f4"/>
        <rect id="Rectángulo_422246" data-name="Rectángulo 422246" width="14.626" height="2.763" transform="translate(464.334 340.022)" fill="#b4c6f4"/>
        <rect id="Rectángulo_422247" data-name="Rectángulo 422247" width="2.763" height="17.082" transform="translate(493.166 331.788)" fill="#b4c6f4"/>
        <path id="Trazado_1216549" data-name="Trazado 1216549" d="M792.41,285h20.04a5.61,5.61,0,0,1,5.61,5.61v8.848a5.61,5.61,0,0,1-5.61,5.61H792.41a5.611,5.611,0,0,1-5.61-5.61V290.61A5.611,5.611,0,0,1,792.41,285Z" transform="translate(-424.818 -7.695)" fill="#b4c6f4"/>
        <path id="Trazado_1216550" data-name="Trazado 1216550" d="M958.951,286.842a3.77,3.77,0,0,1,3.768,3.768v8.848a3.77,3.77,0,0,1-3.768,3.768H938.91a3.77,3.77,0,0,1-3.768-3.768V290.61a3.77,3.77,0,0,1,3.768-3.768Zm0-1.842H938.91a5.611,5.611,0,0,0-5.61,5.61v8.848a5.611,5.611,0,0,0,5.61,5.61h20.04a5.611,5.611,0,0,0,5.61-5.61V290.61a5.611,5.611,0,0,0-5.61-5.61Z" transform="translate(-530.427 -7.695)" fill="#b4c6f4"/>
        <rect id="Rectángulo_422248" data-name="Rectángulo 422248" width="1.842" height="21.687" transform="translate(377.194 294.414)" fill="#b4c6f4"/>
        <rect id="Rectángulo_422249" data-name="Rectángulo 422249" width="1.842" height="19.845" transform="translate(417.582 296.257)" fill="#b4c6f4"/>
        <rect id="Rectángulo_422250" data-name="Rectángulo 422250" width="8.625" height="1.842" transform="translate(408.483 282.161)" fill="#b4c6f4"/>
        <rect id="Rectángulo_422251" data-name="Rectángulo 422251" width="5.861" height="1.842" transform="translate(408.483 285.567)" fill="#b4c6f4"/>
        <rect id="Rectángulo_422252" data-name="Rectángulo 422252" width="7.62" height="1.842" transform="translate(417.08 285.567)" fill="#b4c6f4"/>
        <rect id="Rectángulo_422253" data-name="Rectángulo 422253" width="12.421" height="1.842" transform="translate(408.483 288.721)" fill="#b4c6f4"/>
        <rect id="Rectángulo_422254" data-name="Rectángulo 422254" width="3.461" height="1.842" transform="translate(424.699 292.405)" fill="#b4c6f4"/>
        <path id="Trazado_1216551" data-name="Trazado 1216551" d="M355.884,1521.5H294.2a9.1,9.1,0,0,1-9.1-9.1h0a9.1,9.1,0,0,1,9.1-9.1h61.684a9.1,9.1,0,0,1,9.1,9.1h0A9.1,9.1,0,0,1,355.884,1521.5Z" transform="translate(-63.15 -885.95)" fill="#fff"/>
        <path id="Trazado_1216552" data-name="Trazado 1216552" d="M355.884,1612.5H294.2a9.1,9.1,0,0,1-9.1-9.1h0a9.1,9.1,0,0,1,9.1-9.1h61.684a9.1,9.1,0,0,1,9.1,9.1h0A9.1,9.1,0,0,1,355.884,1612.5Z" transform="translate(-63.15 -951.55)" fill="#222636"/>
        <path id="Trazado_1216553" data-name="Trazado 1216553" d="M355.884,1703.4H294.2a9.1,9.1,0,0,1-9.1-9.1h0a9.1,9.1,0,0,1,9.1-9.1h61.684a9.1,9.1,0,0,1,9.1,9.1h0A9.1,9.1,0,0,1,355.884,1703.4Z" transform="translate(-63.15 -1017.079)" fill="#fff"/>
        <path id="Trazado_1216554" data-name="Trazado 1216554" d="M355.884,1794.4H294.2a9.1,9.1,0,0,1-9.1-9.1h0a9.1,9.1,0,0,1,9.1-9.1h61.684a9.1,9.1,0,0,1,9.1,9.1h0A9.1,9.1,0,0,1,355.884,1794.4Z" transform="translate(-63.15 -1082.68)" fill="#fff"/>
        <path id="Trazado_1216555" data-name="Trazado 1216555" d="M355.884,1885.3H294.2a9.1,9.1,0,0,1-9.1-9.1h0a9.1,9.1,0,0,1,9.1-9.1h61.684a9.1,9.1,0,0,1,9.1,9.1h0A9.1,9.1,0,0,1,355.884,1885.3Z" transform="translate(-63.15 -1148.208)" fill="#fff"/>
        <path id="Trazado_1216556" data-name="Trazado 1216556" d="M1101.271,1463.6h14.263a7.862,7.862,0,0,1,7.871,7.871v14.263a7.862,7.862,0,0,1-7.871,7.871h-14.263a7.862,7.862,0,0,1-7.871-7.871v-14.263A7.862,7.862,0,0,1,1101.271,1463.6Z" transform="translate(-645.841 -857.331)" fill="#fff"/>
        <path id="Trazado_1216557" data-name="Trazado 1216557" d="M1238.571,1463.6h14.263a7.862,7.862,0,0,1,7.871,7.871v14.263a7.862,7.862,0,0,1-7.871,7.871h-14.263a7.862,7.862,0,0,1-7.871-7.871v-14.263A7.862,7.862,0,0,1,1238.571,1463.6Z" transform="translate(-744.819 -857.331)" fill="#fff"/>
        <path id="Trazado_1216558" data-name="Trazado 1216558" d="M1238.571,1616.9h14.263a7.862,7.862,0,0,1,7.871,7.871v14.263a7.862,7.862,0,0,1-7.871,7.871h-14.263a7.862,7.862,0,0,1-7.871-7.871v-14.263A7.862,7.862,0,0,1,1238.571,1616.9Z" transform="translate(-744.819 -967.842)" fill="#fff"/>
        <path id="Trazado_1216559" data-name="Trazado 1216559" d="M1375.871,1463.6h14.263a7.862,7.862,0,0,1,7.871,7.871v14.263a7.862,7.862,0,0,1-7.871,7.871h-14.263a7.862,7.862,0,0,1-7.871-7.871v-14.263A7.862,7.862,0,0,1,1375.871,1463.6Z" transform="translate(-843.796 -857.331)" fill="#fff"/>
        <path id="Trazado_1216560" data-name="Trazado 1216560" d="M1222.359,1566.1H1143.9v-12.2h1.842v10.355h74.775V1553.9h1.842Z" transform="translate(-682.246 -922.427)" fill="#fff"/>
        <rect id="Rectángulo_422255" data-name="Rectángulo 422255" width="1.842" height="34.471" transform="translate(499.949 626.449)" fill="#fff"/>
        <path id="Trazado_1216561" data-name="Trazado 1216561" d="M273.619,1585.213H259.3V1532.6h14.319v1.842H261.142v48.929h12.476Z" transform="translate(-44.551 -907.072)" fill="#fff"/>
        <path id="Trazado_1216562" data-name="Trazado 1216562" d="M563.016,1742.1H550.4v-1.842h10.774v-23.418h-9.546V1715h11.388Z" transform="translate(-254.4 -1038.561)" fill="#fff"/>
        <path id="Trazado_1216563" data-name="Trazado 1216563" d="M566.086,1636.012H550.4v-1.842h13.844v-99.728H550.4V1532.6h15.686Z" transform="translate(-254.4 -907.072)" fill="#fff"/>
        <path id="Trazado_1216564" data-name="Trazado 1216564" d="M1181.06,1920.8h43.1a10.161,10.161,0,0,1,10.16,10.16v30.7a10.161,10.161,0,0,1-10.16,10.16h-43.1a10.161,10.161,0,0,1-10.16-10.16v-30.7A10.161,10.161,0,0,1,1181.06,1920.8Z" transform="translate(-701.71 -1186.919)" fill="#5e3d75"/>
        <g id="Grupo_1227982" data-name="Grupo 1227982" transform="translate(479.573 744.766)">
          <rect id="Rectángulo_422256" data-name="Rectángulo 422256" width="13.342" height="13.342" rx="6.671" fill="#fff"/>
          <rect id="Rectángulo_422257" data-name="Rectángulo 422257" width="13.342" height="13.342" rx="6.671" transform="translate(15.463)" fill="#fff"/>
          <rect id="Rectángulo_422258" data-name="Rectángulo 422258" width="13.342" height="13.342" rx="6.671" transform="translate(30.926)" fill="#fff"/>
          <rect id="Rectángulo_422259" data-name="Rectángulo 422259" width="13.342" height="13.342" rx="6.671" transform="translate(0 15.882)" fill="#fff"/>
          <rect id="Rectángulo_422260" data-name="Rectángulo 422260" width="13.342" height="13.342" rx="6.671" transform="translate(15.463 15.882)" fill="#fff"/>
          <rect id="Rectángulo_422261" data-name="Rectángulo 422261" width="13.342" height="13.342" rx="6.671" transform="translate(30.926 15.882)" fill="#fff"/>
        </g>
        <path id="Trazado_1216565" data-name="Trazado 1216565" d="M1062.81,1832.3h17.724a4.419,4.419,0,0,1,4.41,4.41v4.605a4.419,4.419,0,0,1-4.41,4.41H1062.81a4.419,4.419,0,0,1-4.41-4.41v-4.605A4.419,4.419,0,0,1,1062.81,1832.3Z" transform="translate(-620.61 -1123.121)" fill="#5e3d75"/>
        <path id="Trazado_1216566" data-name="Trazado 1216566" d="M1062.81,1770.8h17.724a4.419,4.419,0,0,1,4.41,4.41v4.605a4.42,4.42,0,0,1-4.41,4.41H1062.81a4.42,4.42,0,0,1-4.41-4.41v-4.605A4.419,4.419,0,0,1,1062.81,1770.8Z" transform="translate(-620.61 -1078.787)" fill="#5e3d75"/>
        <path id="Trazado_1216567" data-name="Trazado 1216567" d="M1062.81,1709.2h17.724a4.419,4.419,0,0,1,4.41,4.41v4.605a4.419,4.419,0,0,1-4.41,4.41H1062.81a4.419,4.419,0,0,1-4.41-4.41v-4.605A4.419,4.419,0,0,1,1062.81,1709.2Z" transform="translate(-620.61 -1034.38)" fill="#5e3d75"/>
        <g id="Grupo_1227983" data-name="Grupo 1227983" transform="translate(456.937 680.626)">
          <path id="Trazado_1216568" data-name="Trazado 1216568" d="M1127.921,1731.959a1,1,0,0,1-.67-.251.945.945,0,0,1,0-1.284.988.988,0,0,1,1.34,0,1.158,1.158,0,0,1,.251.614,1.114,1.114,0,0,1-.251.67A.92.92,0,0,1,1127.921,1731.959Z" transform="translate(-1127 -1730.117)" fill="#5e3d75"/>
          <path id="Trazado_1216569" data-name="Trazado 1216569" d="M1144.268,1730.949a.954.954,0,0,1,.921-.949h0a.954.954,0,0,1,.921.949h0a.924.924,0,0,1-.921.893h0A.943.943,0,0,1,1144.268,1730.949Zm-3.768,0a.935.935,0,0,1,.921-.949h0a.954.954,0,0,1,.921.949h0a.924.924,0,0,1-.921.893h0A.905.905,0,0,1,1140.5,1730.949Z" transform="translate(-1136.732 -1730)" fill="#5e3d75"/>
          <path id="Trazado_1216570" data-name="Trazado 1216570" d="M1168.521,1731.959a1.136,1.136,0,0,1-.67-.223.984.984,0,0,1-.251-.7.779.779,0,0,1,.251-.614.989.989,0,0,1,1.34,0,.976.976,0,0,1,.223.614,1.114,1.114,0,0,1-.251.67.764.764,0,0,1-.614.251Z" transform="translate(-1156.268 -1730.117)" fill="#5e3d75"/>
          <path id="Trazado_1216571" data-name="Trazado 1216571" d="M1167.6,1771.332a.924.924,0,0,1,.893-.921h0a.954.954,0,0,1,.949.921h0a.935.935,0,0,1-.949.921h0A.924.924,0,0,1,1167.6,1771.332Zm0-3.824a.906.906,0,0,1,.893-.921h0a.954.954,0,0,1,.949.921h0a.935.935,0,0,1-.949.921h0A.924.924,0,0,1,1167.6,1767.509Zm0-3.824a.918.918,0,0,1,.893-.893h0a.95.95,0,0,1,.949.893h0a.959.959,0,0,1-.949.949h0A.95.95,0,0,1,1167.6,1763.685Zm0-3.8a.906.906,0,0,1,.893-.921h0a.954.954,0,0,1,.949.921h0a.954.954,0,0,1-.949.921h0A.924.924,0,0,1,1167.6,1759.889Zm0-3.824a.906.906,0,0,1,.893-.921h0a.954.954,0,0,1,.949.921h0a.974.974,0,0,1-.949.921h0A.944.944,0,0,1,1167.6,1756.065Zm0-3.824a.918.918,0,0,1,.893-.893h0a.95.95,0,0,1,.949.893h0a.959.959,0,0,1-.949.949h0A.95.95,0,0,1,1167.6,1752.241Zm0-3.824a.906.906,0,0,1,.893-.921h0a.954.954,0,0,1,.949.921h0a.954.954,0,0,1-.949.921h0A.924.924,0,0,1,1167.6,1748.417Zm0-3.8a.924.924,0,0,1,.893-.921h0a.954.954,0,0,1,.949.921h0a.935.935,0,0,1-.949.921h0A.924.924,0,0,1,1167.6,1744.621Z" transform="translate(-1156.268 -1739.876)" fill="#5e3d75"/>
          <path id="Trazado_1216572" data-name="Trazado 1216572" d="M1168.521,1854.959a.905.905,0,0,1-.67-.251.809.809,0,0,1-.251-.67.78.78,0,0,1,.251-.614.918.918,0,0,1,1.284,0,.764.764,0,0,1,.251.614,1.055,1.055,0,0,1-.251.67A.764.764,0,0,1,1168.521,1854.959Z" transform="translate(-1156.268 -1818.786)" fill="#5e3d75"/>
          <path id="Trazado_1216573" data-name="Trazado 1216573" d="M1144.268,1854.021a.929.929,0,0,1,.921-.921h0a.929.929,0,0,1,.921.921h0a.924.924,0,0,1-.921.893h0A.906.906,0,0,1,1144.268,1854.021Zm-3.768,0a.929.929,0,0,1,.921-.921h0a.929.929,0,0,1,.921.921h0a.924.924,0,0,1-.921.893h0A.906.906,0,0,1,1140.5,1854.021Z" transform="translate(-1136.732 -1818.741)" fill="#5e3d75"/>
          <path id="Trazado_1216574" data-name="Trazado 1216574" d="M1127.921,1854.869a1,1,0,0,1-.67-.251,1.032,1.032,0,0,1-.251-.67.935.935,0,0,1,1.563-.67.989.989,0,0,1,.307.67,1.054,1.054,0,0,1-.251.67.92.92,0,0,1-.67.251Z" transform="translate(-1127 -1818.696)" fill="#5e3d75"/>
        </g>
        <g id="Grupo_1227984" data-name="Grupo 1227984" transform="translate(459.086 697.791)">
          <path id="Trazado_1216575" data-name="Trazado 1216575" d="M1135.621,1793.378a1,1,0,0,1-.67-.251,1.033,1.033,0,0,1-.251-.67.935.935,0,0,1,1.591-.642.858.858,0,0,1,.251.642,1.054,1.054,0,0,1-.251.67A.88.88,0,0,1,1135.621,1793.378Z" transform="translate(-1134.7 -1791.536)" fill="#5e3d75"/>
          <path id="Trazado_1216576" data-name="Trazado 1216576" d="M1182.38,1792.449a.954.954,0,0,1,.921-.949h0a.935.935,0,0,1,.921.949h0a.924.924,0,0,1-.921.893h0A.944.944,0,0,1,1182.38,1792.449Zm-3.768,0a.936.936,0,0,1,.921-.949h0a.935.935,0,0,1,.921.949h0a.924.924,0,0,1-.921.893h0A.906.906,0,0,1,1178.612,1792.449Zm-3.8,0a.935.935,0,0,1,.921-.949h0a.954.954,0,0,1,.921.949h0a.924.924,0,0,1-.921.893h0A.906.906,0,0,1,1174.816,1792.449Zm-3.768,0a.935.935,0,0,1,.921-.949h0a.974.974,0,0,1,.921.949h0a.944.944,0,0,1-.921.893h0A.906.906,0,0,1,1171.048,1792.449Zm-3.8,0a.935.935,0,0,1,.921-.949h0a.935.935,0,0,1,.921.949h0a.924.924,0,0,1-.921.893h0A.906.906,0,0,1,1167.252,1792.449Zm-3.8,0a.954.954,0,0,1,.921-.949h0a.954.954,0,0,1,.921.949h0a.924.924,0,0,1-.921.893h0A.944.944,0,0,1,1163.456,1792.449Zm-3.768,0a.935.935,0,0,1,.921-.949h0a.974.974,0,0,1,.921.949h0a.944.944,0,0,1-.921.893h0A.906.906,0,0,1,1159.688,1792.449Zm-3.824,0a.935.935,0,0,1,.921-.949h0a.935.935,0,0,1,.921.949h0a.924.924,0,0,1-.921.893h0A.924.924,0,0,1,1155.864,1792.449Zm-3.768,0a.935.935,0,0,1,.921-.949h0a.974.974,0,0,1,.921.949h0a.944.944,0,0,1-.921.893h0A.924.924,0,0,1,1152.1,1792.449Zm-3.8,0a.935.935,0,0,1,.921-.949h0a.935.935,0,0,1,.921.949h0a.924.924,0,0,1-.921.893h0A.906.906,0,0,1,1148.3,1792.449Z" transform="translate(-1144.504 -1791.5)" fill="#5e3d75"/>
          <path id="Trazado_1216577" data-name="Trazado 1216577" d="M1285.021,1793.387a1,1,0,0,1-.67-.251,1.165,1.165,0,0,1-.251-.67,1.084,1.084,0,0,1,.251-.642.987.987,0,0,1,1.34,0,1.155,1.155,0,0,1,.251.642,1.24,1.24,0,0,1-.251.67A.88.88,0,0,1,1285.021,1793.387Z" transform="translate(-1242.4 -1791.545)" fill="#5e3d75"/>
          <path id="Trazado_1216578" data-name="Trazado 1216578" d="M1284.1,1838.094a.93.93,0,0,1,.921-.921h0a.911.911,0,0,1,.921.921h0a.911.911,0,0,1-.921.921h0A.93.93,0,0,1,1284.1,1838.094Zm0-3.629a.929.929,0,0,1,.921-.921h0a.911.911,0,0,1,.921.921h0a.911.911,0,0,1-.921.921h0A.93.93,0,0,1,1284.1,1834.465Zm0-3.628a.93.93,0,0,1,.921-.921h0a.911.911,0,0,1,.921.921h0a.911.911,0,0,1-.921.921h0A.93.93,0,0,1,1284.1,1830.837Zm0-3.6a.93.93,0,0,1,.921-.921h0a.911.911,0,0,1,.921.921h0a.911.911,0,0,1-.921.921h0A.93.93,0,0,1,1284.1,1827.236Zm0-3.628a.93.93,0,0,1,.921-.921h0a.911.911,0,0,1,.921.921h0a.911.911,0,0,1-.921.921h0A.93.93,0,0,1,1284.1,1823.608Zm0-3.629a.929.929,0,0,1,.921-.921h0a.911.911,0,0,1,.921.921h0a.911.911,0,0,1-.921.921h0A.93.93,0,0,1,1284.1,1819.979Zm0-3.6a.912.912,0,0,1,.921-.921h0a.911.911,0,0,1,.921.921h0a.911.911,0,0,1-.921.921h0A.929.929,0,0,1,1284.1,1816.379Zm0-3.628a.912.912,0,0,1,.921-.921h0a.911.911,0,0,1,.921.921h0a.948.948,0,0,1-.921.921h0A.948.948,0,0,1,1284.1,1812.75Zm0-3.629a.911.911,0,0,1,.921-.921h0a.911.911,0,0,1,.921.921h0a.948.948,0,0,1-.921.921h0A.948.948,0,0,1,1284.1,1809.122Zm0-3.6a.912.912,0,0,1,.921-.921h0a.911.911,0,0,1,.921.921h0a.924.924,0,0,1-.921.893h0A.924.924,0,0,1,1284.1,1805.521Z" transform="translate(-1242.4 -1800.943)" fill="#5e3d75"/>
          <path id="Trazado_1216579" data-name="Trazado 1216579" d="M1285.021,1936.149a1,1,0,0,1-.67-.251,1.165,1.165,0,0,1-.251-.67.887.887,0,0,1,.251-.614.947.947,0,0,1,1.284-.028.989.989,0,0,1,.307.67,1.24,1.24,0,0,1-.251.67.88.88,0,0,1-.67.251Z" transform="translate(-1242.4 -1894.477)" fill="#5e3d75"/>
        </g>
        <path id="Trazado_1216580" data-name="Trazado 1216580" d="M1163.251,1781h2.624a1.441,1.441,0,0,1,1.451,1.451v4.605a1.442,1.442,0,0,1-1.451,1.451h-2.624a1.441,1.441,0,0,1-1.451-1.451v-4.605A1.441,1.441,0,0,1,1163.251,1781Z" transform="translate(-695.15 -1086.14)" fill="#5e3d75"/>
      </g>
    </g>
  </g>
</svg>
