<svg xmlns="http://www.w3.org/2000/svg" xmlns:xlink="http://www.w3.org/1999/xlink" width="103" height="103" viewBox="0 0 103 103">
  <defs>
    <filter id="Trazado_978624" x="0" y="0" width="103" height="103" filterUnits="userSpaceOnUse">
      <feOffset dy="3" input="SourceAlpha"/>
      <feGaussianBlur stdDeviation="3" result="blur"/>
      <feFlood flood-opacity="0.161"/>
      <feComposite operator="in" in2="blur"/>
      <feComposite in="SourceGraphic"/>
    </filter>
  </defs>
  <g id="Grupo_1227969" data-name="Grupo 1227969" transform="translate(-171.869 -1782.328)">
    <g id="Grupo_1227500" data-name="Grupo 1227500" transform="translate(0.869 640.328)">
      <g id="Grupo_1225355" data-name="Grupo 1225355" transform="translate(180 1148)">
        <g id="Grupo_1176881" data-name="Grupo 1176881">
          <g id="Grupo_1175148" data-name="Grupo 1175148">
            <g id="Grupo_1173798" data-name="Grupo 1173798">
              <g id="Grupo_1171925" data-name="Grupo 1171925">
                <g id="Grupo_1164524" data-name="Grupo 1164524">
                  <g id="Grupo_1144123" data-name="Grupo 1144123">
                    <g transform="matrix(1, 0, 0, 1, -9, -6)" filter="url(#Trazado_978624)">
                      <g id="Trazado_978624-2" data-name="Trazado 978624" transform="translate(9 6)" fill="#e5ebfb">
                        <path d="M 42.5 83.5 C 36.96437835693359 83.5 31.59512901306152 82.41617584228516 26.54141235351562 80.27863311767578 C 21.65934181213379 78.21369171142578 17.27447128295898 75.25723266601562 13.50862312316895 71.49137878417969 C 9.742764472961426 67.72553253173828 6.786305904388428 63.34066009521484 4.721364498138428 58.45858764648438 C 2.583823442459106 53.40486907958984 1.5 48.03562164306641 1.5 42.5 C 1.5 36.96437835693359 2.583823442459106 31.59512901306152 4.721364498138428 26.54141235351562 C 6.786305904388428 21.65934181213379 9.742764472961426 17.27447128295898 13.50862312316895 13.50862312316895 C 17.27447128295898 9.742764472961426 21.65934181213379 6.786305904388428 26.54141235351562 4.721364498138428 C 31.59512901306152 2.583823442459106 36.96437835693359 1.5 42.5 1.5 C 48.03562164306641 1.5 53.40486907958984 2.583823442459106 58.45858764648438 4.721364498138428 C 63.34066009521484 6.786305904388428 67.72553253173828 9.742764472961426 71.49137878417969 13.50862312316895 C 75.25723266601562 17.27447128295898 78.21369171142578 21.65934181213379 80.27863311767578 26.54141235351562 C 82.41617584228516 31.59512901306152 83.5 36.96437835693359 83.5 42.5 C 83.5 48.03562164306641 82.41617584228516 53.40486907958984 80.27863311767578 58.45858764648438 C 78.21369171142578 63.34066009521484 75.25723266601562 67.72553253173828 71.49137878417969 71.49137878417969 C 67.72553253173828 75.25723266601562 63.34066009521484 78.21369171142578 58.45858764648438 80.27863311767578 C 53.40486907958984 82.41617584228516 48.03562164306641 83.5 42.5 83.5 Z" stroke="none"/>
                        <path d="M 42.5 3 C 37.16621398925781 3 31.99356079101562 4.043960571289062 27.125732421875 6.102882385253906 C 22.42246627807617 8.092185974121094 18.19785308837891 10.94070434570312 14.56928253173828 14.56928253173828 C 10.94070434570312 18.19785308837891 8.092185974121094 22.42246627807617 6.102882385253906 27.125732421875 C 4.043960571289062 31.99356079101562 3 37.16621398925781 3 42.5 C 3 47.83378601074219 4.043960571289062 53.00643920898438 6.102882385253906 57.87425231933594 C 8.092185974121094 62.57753372192383 10.94070434570312 66.80213165283203 14.56928253173828 70.43071746826172 C 18.19786834716797 74.05929565429688 22.42246627807617 76.90781402587891 27.125732421875 78.89711761474609 C 31.99356079101562 80.95603942871094 37.16621398925781 82 42.5 82 C 47.83378601074219 82 53.00642395019531 80.95603942871094 57.87425231933594 78.89711761474609 C 62.57753372192383 76.90781402587891 66.80213165283203 74.05929565429688 70.43071746826172 70.43071746826172 C 74.05929565429688 66.80213165283203 76.90781402587891 62.57753372192383 78.89711761474609 57.87425231933594 C 80.95603942871094 53.00642395019531 82 47.83378601074219 82 42.5 C 82 37.16621398925781 80.95603942871094 31.99356079101562 78.89711761474609 27.125732421875 C 76.90781402587891 22.42246627807617 74.05929565429688 18.19786834716797 70.43071746826172 14.56928253173828 C 66.80213165283203 10.94070434570312 62.57753372192383 8.092185974121094 57.87425231933594 6.102882385253906 C 53.00643920898438 4.043960571289062 47.83378601074219 3 42.5 3 M 42.5 0 C 65.97209167480469 0 85 19.02789306640625 85 42.5 C 85 65.97209167480469 65.97209167480469 85 42.5 85 C 19.02789306640625 85 0 65.97209167480469 0 42.5 C 0 19.02789306640625 19.02789306640625 0 42.5 0 Z" stroke="none" fill="#0b47db"/>
                      </g>
                    </g>
                  </g>
                </g>
              </g>
            </g>
          </g>
        </g>
      </g>
    </g>
    <g id="uml_1_" data-name="uml (1)" transform="translate(194.102 1801.561)">
      <path id="Trazado_1216463" data-name="Trazado 1216463" d="M192.51,18.587H176.342a1.155,1.155,0,0,1-1.155-1.155V8.655A1.155,1.155,0,0,1,176.342,7.5H192.51a1.155,1.155,0,0,1,1.155,1.155v8.777A1.155,1.155,0,0,1,192.51,18.587Z" transform="translate(-155.158 -6.643)" fill="#6c7fd8"/>
      <path id="Trazado_1216464" data-name="Trazado 1216464" d="M299.871,7.5h-3.465a1.155,1.155,0,0,1,1.155,1.155v8.777a1.155,1.155,0,0,1-1.155,1.155h3.465a1.155,1.155,0,0,0,1.155-1.155V8.655A1.155,1.155,0,0,0,299.871,7.5Z" transform="translate(-262.519 -6.643)" fill="#4f66d0"/>
      <path id="Trazado_1216465" data-name="Trazado 1216465" d="M395.984,193.345H384.435a1.155,1.155,0,0,1-1.155-1.155v-8.777a1.155,1.155,0,0,1,1.155-1.155h11.549a1.155,1.155,0,0,1,1.155,1.155v8.777A1.155,1.155,0,0,1,395.984,193.345Z" transform="translate(-339.461 -161.421)" fill="#ffe177"/>
      <path id="Trazado_1216466" data-name="Trazado 1216466" d="M467.558,182.258h-3.465a1.155,1.155,0,0,1,1.155,1.155v8.777a1.155,1.155,0,0,1-1.155,1.155h3.465a1.155,1.155,0,0,0,1.155-1.155v-8.777A1.155,1.155,0,0,0,467.558,182.258Z" transform="translate(-411.035 -161.421)" fill="#ffd15b"/>
      <path id="Trazado_1216467" data-name="Trazado 1216467" d="M8.655,193.345H20.2a1.155,1.155,0,0,0,1.155-1.155v-8.777a1.155,1.155,0,0,0-1.155-1.155H8.655A1.155,1.155,0,0,0,7.5,183.413v8.777a1.155,1.155,0,0,0,1.155,1.155Z" transform="translate(-6.643 -161.421)" fill="#ffe177"/>
      <path id="Trazado_1216468" data-name="Trazado 1216468" d="M91.778,182.258H88.313a1.155,1.155,0,0,1,1.155,1.155v8.777a1.155,1.155,0,0,1-1.155,1.155h3.465a1.155,1.155,0,0,0,1.155-1.155v-8.777A1.155,1.155,0,0,0,91.778,182.258Z" transform="translate(-78.216 -161.421)" fill="#ffd15b"/>
      <path id="Trazado_1216469" data-name="Trazado 1216469" d="M205.619,187.4l-4.693-4.693a1.659,1.659,0,0,1,0-2.346l4.693-4.693a1.659,1.659,0,0,1,2.346,0l4.693,4.693a1.659,1.659,0,0,1,0,2.346l-4.693,4.693A1.659,1.659,0,0,1,205.619,187.4Z" transform="translate(-177.525 -155.158)" fill="#bd80e1"/>
      <path id="Trazado_1216470" data-name="Trazado 1216470" d="M232.625,200.331l-2.6-2.6a1.659,1.659,0,0,1,0,2.346l-4.693,4.693a1.659,1.659,0,0,1-2.346,0l2.6,2.6a1.659,1.659,0,0,0,2.346,0l4.693-4.693A1.659,1.659,0,0,0,232.625,200.331Z" transform="translate(-197.491 -175.124)" fill="#af66da"/>
      <circle id="Elipse_13259" data-name="Elipse 13259" cx="5.543" cy="5.543" r="5.543" transform="translate(23.724 46.591)" fill="#9be69d"/>
      <path id="Trazado_1216471" data-name="Trazado 1216471" d="M220.534,413.064a5.543,5.543,0,0,1-7.483,7.483,5.543,5.543,0,1,0,7.483-7.483Z" transform="translate(-188.694 -365.84)" fill="#6fd7a3"/>
      <path id="Trazado_1216472" data-name="Trazado 1216472" d="M395.984,331.122H384.435a1.155,1.155,0,0,1-1.155-1.155V321.19a1.155,1.155,0,0,1,1.155-1.155h11.549a1.155,1.155,0,0,1,1.155,1.155v8.777A1.155,1.155,0,0,1,395.984,331.122Z" transform="translate(-339.461 -283.446)" fill="#ffe177"/>
      <path id="Trazado_1216473" data-name="Trazado 1216473" d="M467.558,320.036h-3.465a1.155,1.155,0,0,1,1.155,1.155v8.777a1.155,1.155,0,0,1-1.155,1.155h3.465a1.155,1.155,0,0,0,1.155-1.155v-8.777A1.155,1.155,0,0,0,467.558,320.036Z" transform="translate(-411.035 -283.447)" fill="#ffd15b"/>
      <path id="Trazado_1216474" data-name="Trazado 1216474" d="M8.655,331.122H20.2a1.155,1.155,0,0,0,1.155-1.155V321.19a1.155,1.155,0,0,0-1.155-1.155H8.655A1.155,1.155,0,0,0,7.5,321.19v8.777a1.155,1.155,0,0,0,1.155,1.155Z" transform="translate(-6.643 -283.446)" fill="#ffe177"/>
      <path id="Trazado_1216475" data-name="Trazado 1216475" d="M91.778,320.036H88.313a1.155,1.155,0,0,1,1.155,1.155v8.777a1.155,1.155,0,0,1-1.155,1.155h3.465a1.155,1.155,0,0,0,1.155-1.155v-8.777A1.155,1.155,0,0,0,91.778,320.036Z" transform="translate(-78.216 -283.447)" fill="#ffd15b"/>
      <path id="Trazado_1216476" data-name="Trazado 1216476" d="M56.523,32.781a2.015,2.015,0,0,0,2.012-2.012V21.992a2.014,2.014,0,0,0-2.012-2.012H52.3a.857.857,0,1,0,0,1.715h4.219a.3.3,0,0,1,.3.3v8.777a.3.3,0,0,1-.3.3H44.974a.3.3,0,0,1-.3-.3V21.992a.3.3,0,0,1,.3-.3H48.3a.857.857,0,1,0,0-1.715H44.974a2.015,2.015,0,0,0-2.012,2.012v3.531H36.323a2.5,2.5,0,0,0-.583-.922l-4.693-4.693a2.506,2.506,0,0,0-.922-.585V12.8h7.227a2.015,2.015,0,0,0,2.012-2.013V2.012A2.014,2.014,0,0,0,37.352,0H27.493a.857.857,0,1,0,0,1.715h9.858a.3.3,0,0,1,.3.3v8.777a.3.3,0,0,1-.3.3H21.184a.3.3,0,0,1-.3-.3V2.012a.3.3,0,0,1,.3-.3h2.308a.857.857,0,0,0,0-1.715H21.184a2.015,2.015,0,0,0-2.012,2.012v8.777A2.015,2.015,0,0,0,21.184,12.8H28.41v6.521a2.505,2.505,0,0,0-.922.585L22.8,24.6a2.5,2.5,0,0,0-.583.922H15.574V21.992a2.015,2.015,0,0,0-2.012-2.012H2.012A2.015,2.015,0,0,0,0,21.992v8.777a2.015,2.015,0,0,0,2.012,2.012H6.929v2.95H2.012A2.015,2.015,0,0,0,0,37.744v2.384a.857.857,0,1,0,1.715,0V37.744a.3.3,0,0,1,.3-.3H13.561a.3.3,0,0,1,.3.3v8.777a.3.3,0,0,1-.3.3H2.012a.3.3,0,0,1-.3-.3V44.129a.857.857,0,1,0-1.715,0v2.392a2.014,2.014,0,0,0,2.012,2.012H6.929v3.6a.857.857,0,0,0,.857.857H22.926a6.4,6.4,0,0,0,12.684,0H50.748a.857.857,0,0,0,.857-.857v-3.6h4.917a2.015,2.015,0,0,0,2.012-2.012V37.743a2.015,2.015,0,0,0-2.012-2.012H51.606v-2.95ZM24.008,25.814,28.7,21.121a.8.8,0,0,1,1.134,0l4.693,4.693a.8.8,0,0,1,0,1.134L29.834,31.64a.8.8,0,0,1-1.134,0l-4.693-4.693A.8.8,0,0,1,24.008,25.814ZM1.715,30.769V21.992a.3.3,0,0,1,.3-.3H13.561a.3.3,0,0,1,.3.3v8.777a.3.3,0,0,1-.3.3H2.012a.3.3,0,0,1-.3-.3ZM8.644,48.533h4.917a2.014,2.014,0,0,0,2.012-2.012V37.744a2.014,2.014,0,0,0-2.012-2.012H8.644v-2.95h4.917a2.015,2.015,0,0,0,2.012-2.012V27.238h6.638a2.5,2.5,0,0,0,.583.922l4.693,4.693a2.506,2.506,0,0,0,.922.585V45.793a6.412,6.412,0,0,0-5.484,5.484H8.644ZM29.268,56.82a4.686,4.686,0,1,1,4.686-4.686A4.691,4.691,0,0,1,29.268,56.82ZM56.82,37.743v8.777a.3.3,0,0,1-.3.3H44.974a.3.3,0,0,1-.3-.3V37.743a.3.3,0,0,1,.3-.3H56.523A.3.3,0,0,1,56.82,37.743Zm-6.929-2.012H44.974a2.015,2.015,0,0,0-2.012,2.012v8.777a2.015,2.015,0,0,0,2.012,2.012h4.917v2.744H35.609a6.412,6.412,0,0,0-5.484-5.484V33.437a2.505,2.505,0,0,0,.922-.585L35.74,28.16a2.5,2.5,0,0,0,.583-.922h6.638v3.531a2.014,2.014,0,0,0,2.012,2.012h4.917Z"/>
    </g>
  </g>
</svg>
